<svg xmlns="http://www.w3.org/2000/svg" width="60" height="45" viewBox="0 0 60 45"><defs><style>.a{fill:#44603d;}</style></defs><g transform="translate(-2974.976 -113.153)"><path class="a" d="M3008.845,120.754a26.685,26.685,0,0,0-6.829.48c-3.38.835-6.282,2.945-9.087,5.009a17.055,17.055,0,0,0-4.093,3.766c-1.553,2.232-2.187,5.346-4.618,6.562l7.217-2.9a18.263,18.263,0,0,1,5.394-1.542c1.6-.116,3.237.191,4.812-.13a9.808,9.808,0,0,0,5.074-3.331,23.545,23.545,0,0,0,4.86-8.338" transform="translate(-4.769 -3.706)"/><path class="a" d="M3042.32,121.37a7.169,7.169,0,0,0-1.618.419c-2.564.993-4.342,3.3-5.984,5.51l-3.973,5.335,5.839-3.16c1.832-.992,3.871-2.263,4.187-4.322.1-.633.014-1.288.161-1.912.321-1.364,1.623-2.232,2.82-2.961" transform="translate(-29.325 -3.677)"/><path class="a" d="M3052.515,130.238a8.618,8.618,0,0,1,6.31,4.462,18.178,18.178,0,0,1,2.049,7.691,39.973,39.973,0,0,0,.77,6.9,26.319,26.319,0,0,0,1.981,4.872c2.209,4.516,4.7,9.226,9,11.831,1.6-2.778,3.255-5.709,3.332-8.916.071-2.948-1.2-5.75-2.591-8.353a16.6,16.6,0,0,0-4.586-5.942c-1.342-.963-2.919-1.549-4.3-2.459-3.134-2.072-4.945-5.6-7.532-8.325" transform="translate(-40.984 -8.973)"/><path class="a" d="M3053.106,130.275a6.714,6.714,0,0,1,.286,4.469,22.1,22.1,0,0,0-.8,4.489,7.1,7.1,0,0,0,3.053,5.756l.482-1.746a8.078,8.078,0,0,0-.126-6.57l-1.481-3.947c-.634-1.689-1.379-3.512-2.952-4.4" transform="translate(-40.17 -7.872)"/><path class="a" d="M3032.608,134.773c.281,2.523-1.353,4.872-3.232,6.58s-4.1,3.08-5.628,5.106a14.593,14.593,0,0,0-2.564,7.92c-.179,2.81.11,5.626.162,8.441.04,2.155-.144,4.523-1.638,6.077a26.511,26.511,0,0,0,6.354-4.044,19.181,19.181,0,0,0,4.489-7.241,34.493,34.493,0,0,0,2.01-16.183c-.3-2.592-.892-5.279-.077-7.759" transform="translate(-23.521 -10.744)"/><path class="a" d="M2977.239,116.633c-1.709,2.853-1.883,6.336-2.011,9.659l-.252,6.524a19.339,19.339,0,0,0,2.985-3.959,28.749,28.749,0,0,0,1.511-4.2,58.974,58.974,0,0,1,5.181-10.637" transform="translate(0 -0.448)"/><path class="a" d="M3067.708,117.184c.594,3.007,3.442,5.147,4.177,8.122a18.855,18.855,0,0,0,.706,3.3,7.118,7.118,0,0,0,2.953,2.836q2.808,1.757,5.781,3.231c-.157-3.3-3.268-5.706-4.2-8.88-.533-1.823-.348-3.907-1.423-5.472-1-1.461-2.823-2.063-4.459-2.746a26.221,26.221,0,0,1-7.117-4.421" transform="translate(-46.978)"/></g></svg>