<svg xmlns="http://www.w3.org/2000/svg" width="188" height="201" viewBox="0 0 188 201"><defs><style>.a{fill:#86aa7d;}</style></defs><path class="a" d="M2568.386,293.282a19.676,19.676,0,0,0,3.887,6.26c1.787,1.707,4.483,2.7,6.783,1.8,2.847-1.118,4.176-4.645,7.017-5.775,2.592-1.031,5.65.377,7.353,2.59s2.343,5.043,2.849,7.789c.7,3.791,1.246,7.659,2.765,11.2s4.192,6.8,7.847,8.014,8.284-.2,9.871-3.708c1.09-2.414.621-5.212.13-7.816l-4.349-23.1c1.46,2.021,3.018,4.124,5.276,5.178s5.421.613,6.576-1.6c1.252-2.395-.365-5.2-1.68-7.565s-2.166-5.776-.009-7.4c2.043-1.541,4.943-.055,6.91,1.582s4.333,3.577,6.774,2.811c1.855-.582,2.93-2.633,2.994-4.578a14.259,14.259,0,0,0-1.385-5.626,15.407,15.407,0,0,0,10.9-1.8c2.04-1.209,3.789-2.887,5.911-3.945,7.992-3.986,17.635,2.023,26.4.32,2.99-.581,6.287-3.2,5.245-6.069-.862-2.371-3.94-2.857-6.459-2.959l-23.246-.934a7.854,7.854,0,0,1-3.9-.842,2.706,2.706,0,0,1-1.167-3.453c.647-1.08,2.136-1.277,3.382-1.1a10.282,10.282,0,0,0,3.734.3c1.224-.289,2.284-1.734,1.609-2.8a11.449,11.449,0,0,1-12.06-4.731l2.215-1.47a2.983,2.983,0,0,0,4.617-3.479c-.993-2.376-4.888-3.442-4.377-5.965.33-1.624,2.448-2.213,4.052-1.805s3,1.444,4.608,1.831,3.724-.264,3.991-1.9c.4-2.415-3.422-3.891-3.185-6.327.218-2.243,3.42-2.578,5.546-1.833s4.667,1.855,6.418.437c2.341-1.9.784-6.551,3.389-8.063,1.886-1.095,4.112.5,5.983,1.617s5.106,1.218,5.431-.94a4.431,4.431,0,0,1-.5-5.548,3.953,3.953,0,1,0,5.822-4.411c7.677.261,6.979,1.98,14.656,2.241,2.411.082.919-.3,3.1-1.343s8.375-1.626,7.638-3.926c-1.017-3.172-7.206-2.372-10.527-2.169-7.51.457-5.222-3.22-12.733-2.763,1.9-1.662,2.367-4.474,2.058-6.982s3.99-.473,3.553-2.962c2.345.034,5.086-1.687,7.431-1.653-.647-2.461-6.932-7.589-7.58-10.049,1.715-.353,4.213,1.931,5.928,1.578-.27-2.247-3.953-5.572-6.213-5.584s-5.111-.285-5.849-2.423c-.823-2.383,2.158-4.572,4.661-4.284s4.583,1.98,6.864,3.049,5.43,1.317,6.93-.709c.665-.9,1.023-.863,1.184-1.97.15-1.032,4.887-3.6,5.037-4.629.433-2.966-3.9-5.593-3.464-8.56-.044,2.014,3.177,2.268,4.644.889s2.138-3.517,3.8-4.657a5.875,5.875,0,0,1,6.095.131,17.3,17.3,0,0,1,4.6,4.437c2.045-.921,1.873-4.047.5-5.82s-3.49-2.85-4.884-4.609-1.638-4.863.376-5.849a12.165,12.165,0,0,0,3.614,3.569,3.675,3.675,0,0,0,5.422-4.713,12.164,12.164,0,0,0-2.752-3.783l.647-.988c5.487,3.7,14.078,1.867,19.291-2.213-6.728-2.564-14.885-1.355-20.917-6.137H2568.386Z" transform="translate(-2568.386 -124.584)"/></svg>