<svg xmlns="http://www.w3.org/2000/svg" width="175" height="207" viewBox="0 0 175 207"><defs><style>.a{fill:#a4c39d;}</style></defs><path class="a" d="M3316.781,816.468l14.3-8.179c3.3-1.89,6.685-3.808,10.421-4.536,5.156-1.005,10.474.355,15.415,2.142-3.406-5.383-.379-13.639,5.694-15.536,3.975-1.241,8.853-.2,11.924-3.017,3.222-2.954,1.52-9.359-2.742-10.317.374-3.573,4.572-5.523,8.153-5.342s6.973,1.74,10.546,2.043,7.833-1.307,8.568-4.823c.74-3.549-2.638-6.776-6.143-7.682s-7.213-.311-10.813-.679-7.546-2.205-8.43-5.721c-.973-3.873,2.313-7.61,5.917-9.321s7.715-2.241,11.163-4.248,6.109-6.45,4.207-9.961c-2.782-5.136-11.22-2.748-15.7-6.495-2.67-2.234-3.242-6.258-2.3-9.614s3.109-6.208,5.231-8.969l21.08-27.429c-12.589,23.811-5.768,33.044-11.583,47.667,7.516-10.536,15.494-15.823,22.549-31.61-1.984,17.263-3.839,34.23-13.427,48.263,9.2-6.089,10.81-19.73,19.868-26.025,8.353-5.805,11.339-21.481,17.009-32.221l3.653,12.45,7.811-.484c-2.089,2.329-4.014,4.962-4.649,8.028s.323,6.639,2.968,8.308c3.069,1.937,7.367.634,9.8-2.061s3.385-6.4,3.941-9.991a63.658,63.658,0,0,0-13.351-49.245c-1.536-1.887-3.236-3.787-3.8-6.155s.525-5.346,2.9-5.886c1.966-.448,3.976.989,4.843,2.813a12.512,12.512,0,0,1,.765,5.948c4.977.308,11.3-.208,13-4.9.666-1.839.378-3.9.929-5.78s2.678-3.612,4.352-2.6c2.135,1.288.622,4.523-.807,6.568s-1.757,5.957.735,6.03l-2.979,6.876c2.838,1.268,6.138-.57,8.224-2.877s3.633-5.178,6.215-6.91,6.823-1.624,8.084,1.221c-1.78-5.335-9.849-12.655-5.337-16,3.144-2.333-3.163-9.483-4.744-14.225,3.592,4.219,7.181,8.405,10.432,7.679,3.356-4.622-1.859-9.457-2.789-14.186h-171.1Z" transform="translate(-3316.781 -609.468)"/></svg>