<svg xmlns="http://www.w3.org/2000/svg" width="85" height="55" viewBox="0 0 85 55"><defs><style>.a{fill:#44603d;}</style></defs><g transform="translate(101 19)"><g transform="translate(-101 -19)"><path class="a" d="M3407.642,611.682c-.132,3.236-.328,6.669-2.182,9.325-.707,1.013-1.625,1.86-2.408,2.816a13.5,13.5,0,0,0-2.531,11.943,18.928,18.928,0,0,0,5.629-9.292,35.112,35.112,0,0,0,1.032-10.928" transform="translate(-3362.359 -610.492)"/><path class="a" d="M3413.316,612.008c1.369,1.41,3.136,2.423,4.338,3.978,2.658,3.437,1.877,8.5,3.982,12.3,2.058,3.719,6.578,5.693,8.271,9.592.174-3.08.333-6.267-.759-9.153-1.121-2.962-3.436-5.286-5.687-7.513l-4.823-4.773a32.567,32.567,0,0,1-6-7.2" transform="translate(-3369.405 -609.141)"/><path class="a" d="M3448.2,610.691a63.9,63.9,0,0,0,5.686,7.96,12.831,12.831,0,0,0,3.478,3.165c2.59,1.429,5.743,1.114,8.676,1.5a17.777,17.777,0,0,1,7.574,2.862,9.384,9.384,0,0,0-3.686-6.961,14.989,14.989,0,0,0-7.489-2.912,54.1,54.1,0,0,1-5.629-.66c-3.795-.892-6.888-3.551-9.818-6.122" transform="translate(-3388.609 -609.299)"/><path class="a" d="M3437.894,611.578c1.28,4.326,4.763,7.647,6.6,11.77,1.165,2.622,1.631,5.5,2.62,8.193s2.682,5.352,5.346,6.419c-2.25-1.849-1.7-5.34-2.224-8.205a9.955,9.955,0,0,0-4.576-6.628c-1.118-.676-2.483-1.251-2.917-2.483" transform="translate(-3383.437 -610.434)"/><path class="a" d="M3453.668,638.008c2.774,3.478,8.451,2.583,12.088,5.145,1.125.792,2,1.885,3.083,2.738a9.169,9.169,0,0,0,7.426,1.757,10.25,10.25,0,0,1-8.275-.73c-1.619-.909-2.993-2.264-4.736-2.9-1.8-.657-3.841-.486-5.593-1.264a5.641,5.641,0,0,1-3.208-4.091" transform="translate(-3392.297 -625.061)"/><path class="a" d="M3357.834,610.605a20.509,20.509,0,0,0,2.967,17.253,9.684,9.684,0,0,0,5.576-7.321,18.785,18.785,0,0,0-.172-5.058,11.866,11.866,0,0,0-1.042-4.13,4.077,4.077,0,0,0-3.354-2.325" transform="translate(-3338.471 -609.025)"/><path class="a" d="M3337.509,611.313a18.644,18.644,0,0,1-.656,6.439c-.932,2.676-3.009,4.758-4.756,6.988a33.19,33.19,0,0,0-4.9,8.688,23.282,23.282,0,0,1,1.213-15.466c1.223-2.73,3.006-5.313,3.3-8.289" transform="translate(-3321.372 -609.383)"/><path class="a" d="M3315.806,684.842a23.332,23.332,0,0,1,6.354,2.994c3.007,2.25,4.738,5.786,7.254,8.574,4.043,4.483,9.914,6.835,15.71,8.525a24.438,24.438,0,0,1-13.366-.347c-2.282-.66-4.611-1.664-5.993-3.6a12.8,12.8,0,0,1-1.567-3.518l-2.411-7.327a10.063,10.063,0,0,0-1.3-2.878c-1.117-1.519-2.969-2.276-4.726-2.962" transform="translate(-3315.496 -650.711)"/><path class="a" d="M3315.165,669.434c3.247-2.87,8.073-3.077,12.341-2.323a12.087,12.087,0,0,0,5.119.289,13.407,13.407,0,0,0,4.155-2.47,22.055,22.055,0,0,1,8.465-3.672,39.537,39.537,0,0,0-5.788,6.3,7.067,7.067,0,0,1-2.208,2.265,5.864,5.864,0,0,1-1.979.521,31,31,0,0,1-6.743.132,9.081,9.081,0,0,1-3.215-.751c-.727-.357-1.362-.875-2.062-1.281a7.655,7.655,0,0,0-4.667-.977" transform="translate(-3315.165 -637.924)"/></g></g></svg>