<svg xmlns="http://www.w3.org/2000/svg" xmlns:xlink="http://www.w3.org/1999/xlink" width="196.827" height="172.018" viewBox="0 0 196.827 172.018"><defs><style>.a{fill:#5d8154;}.b{filter:url(#a);}</style><filter id="a" x="0" y="0" width="196.827" height="172.018" filterUnits="userSpaceOnUse"><feOffset dy="-5" input="SourceAlpha"/><feGaussianBlur stdDeviation="10" result="b"/><feFlood flood-color="#5d5d5d" flood-opacity="0.161"/><feComposite operator="in" in2="b"/><feComposite in="SourceGraphic"/></filter></defs><g class="b" transform="matrix(1, 0, 0, 1, 0, 0)"><path class="a" d="M61.969.007C58.287,3.895,52.787,6.936,49.193,10.94c-4.441,4.949-9.387,9.315-10.449,15.973-2.022,12.681-6.589,12.064-11.477,17.965-4.665,5.632-4.2,6.7-5.068,14.3-.636,5.562-2.272,7.486-2.679,8.054a10.176,10.176,0,0,1-2.261,1.9c-5.022,3.863-3.835,11.449-2.587,16.819,2.515,10.825,3.921,17.192-1.3,22.29a68.309,68.309,0,0,1-6.389,6.034C3.6,116.945.032,116.717.212,117.592c.331,1.607-1.238,5.076,1.1,4.3s6.291-4.673,11.423-10.933c4.908-5.987,3.861-9.688,10.832-14.509s6.087-5.465,11.1-8.45c5.251-3.124,6.9.35,13.184-12.75a20.4,20.4,0,0,0,2.389-8.025c.085-2.983-1.591-5.633-1.6-8.588-.013-2.851,1.3-5.429,2.123-8.092a18.739,18.739,0,0,0,.676-7.209c-.376-4.706-.211-7.906,3.583-11.252,7.816-6.894,2.466-11.923,4.942-19.294A35.828,35.828,0,0,0,61.976,0Z" transform="translate(137.72 35) rotate(62)"/></g></svg>