<svg xmlns="http://www.w3.org/2000/svg" width="107" height="130" viewBox="0 0 107 130"><defs><style>.a{fill:#5d8154;}</style></defs><path class="a" d="M0,9.453l6.333.926c.871.127,1.955.466,2.034,1.344,1.954.31,3.7-1.3,4.691-3.019S14.67,5,16.09,3.624c1.758-1.71,4.357-2.138,6.782-2.484a20.12,20.12,0,0,1-3.64,6.648c-1.117,1.187-2.541,2.122-3.348,3.539-.688,1.208-.869,2.675-1.67,3.812-1.048,1.488-2.918,2.1-4.387,3.176,3.215.754,6.248-1.613,8.709-3.819A133.1,133.1,0,0,0,29.628,3.749a10.892,10.892,0,0,1,4-3.358A10.025,10.025,0,0,1,37.718.055l6.958.388a4.81,4.81,0,0,0-3.586,1.67,30.915,30.915,0,0,0-2.433,3.276,17.747,17.747,0,0,1-8.091,6.1c-2.774,1.026-5.795,1.35-8.458,2.637a6.789,6.789,0,0,0-1.793,1.187c-.529.513-.928,1.144-1.417,1.7-1.675,1.894-4.23,2.694-6.652,3.412a26.114,26.114,0,0,0,5.825,2.913,8.933,8.933,0,0,0,6.378-.2c2.093-.988,3.555-3,5.624-4.043,2.261-1.134,4.928-.958,7.449-.756-.5,1.41-.524,2.95-1.006,4.365a7.219,7.219,0,0,1-5.132,4.623c2.228.425,4.115-1.779,6.362-2.1a7.35,7.35,0,0,1,2.731.28,49.191,49.191,0,0,1,7.61,2.511,6.9,6.9,0,0,0-3.172.095,2.372,2.372,0,0,0-1.69,2.419c.082.481.367.961.221,1.426-.388,1.237-2.786.319-3.334,1.494,1.1.929,2.723.63,4.155.52a12.809,12.809,0,0,1,6.616,1.3c1.047.518,3.37,1.31,3.732,2.533-3.708-.784-7.842-1.838-11.367.176-.958.548-1.79,1.294-2.735,1.863a8.732,8.732,0,0,1-4.692,1.244,20.621,20.621,0,0,1,12.843,1.256l-2.253,2.7c1.295.45,2.882,1.41,2.517,2.733-.136.493-.535.874-.707,1.356-.563,1.578,1.421,2.815,3.041,3.229s3.684,1.233,3.562,2.9c.473-3.413,5.39-3.87,7.564-6.54a12.656,12.656,0,0,0,1.545-2.971,21.542,21.542,0,0,1,8.015-9.344c-1.63.742-1.792,3.074-1.105,4.731s1.945,3.065,2.4,4.8c1.205,4.647-3.753,9.485-2.005,13.957a1.893,1.893,0,0,1,.229,1.351,1.516,1.516,0,0,1-.794.691,16.662,16.662,0,0,1-5.359,1.637,142.811,142.811,0,0,1,24.4-7.046,3.932,3.932,0,0,0-3.011,2.3,23.306,23.306,0,0,1-1.865,3.492c-1.4,1.743-3.718,2.372-5.723,3.356a15.744,15.744,0,0,0-6.738,6.375,13.13,13.13,0,0,1,8.175-5.322,35.265,35.265,0,0,0-3.181,8.954,19.153,19.153,0,0,1,7.279-8.281c-1.477,3.468,1.3,8.28-1.41,10.895,1.369-2.15,1.692-4.777,2.168-7.283A25.308,25.308,0,0,1,89.876,60c2.469-3.15,6.326-5.406,10.316-5.157-1.963.618-2.789,3-2.746,5.059s.661,4.118.361,6.158c-.5,3.425-3.389,5.9-5.869,8.31A53.814,53.814,0,0,0,83.9,84.3c2.892-3.4,6.6-7.139,11.017-6.516a34.439,34.439,0,0,1-11.4,8.682,4.276,4.276,0,0,1,.565,4.124c2.878-3.237,7.758-3.915,10.943-6.848C96.4,82.468,97.4,80.829,98.729,79.5c4.163-4.146,10.7-4.5,16.564-4.134-5.91,2.336-9.048,9.508-15.156,11.261-2.681.77-5.758.418-8.054,2.006a30.042,30.042,0,0,0-2.56,2.383,8.862,8.862,0,0,1-5.43,2.185c3.047-.136,6.251-.32,8.826-1.957,1.132-.72,2.09-1.694,3.242-2.383,2.151-1.287,4.762-1.467,7.263-1.615a7.039,7.039,0,0,1-3.145,4.3c.119,1,1.425,1.416,2.394,1.144s1.767-.964,2.71-1.314,2.249-.179,2.605.763A5.242,5.242,0,0,1,108,93.928c.019,1.639,1.538,2.784,2.762,3.871a16.279,16.279,0,0,1,4.275,6.067,4.123,4.123,0,0,0,.3-3.884c-.462-1.274-1.255-2.4-1.8-3.642a10.183,10.183,0,0,1,.164-8.419c2.743,2.477,6.475,3.458,9.787,5.095s6.554,4.542,6.513,8.242V107H0Z" transform="translate(107) rotate(90)"/></svg>