<svg xmlns="http://www.w3.org/2000/svg" xmlns:xlink="http://www.w3.org/1999/xlink" width="188.647" height="136.406" viewBox="0 0 188.647 136.406"><defs><style>.a{fill:#5d8154;}.b{filter:url(#a);}</style><filter id="a" x="0" y="0" width="188.647" height="136.406" filterUnits="userSpaceOnUse"><feOffset dy="-5" input="SourceAlpha"/><feGaussianBlur stdDeviation="10" result="b"/><feFlood flood-opacity="0.161"/><feComposite operator="in" in2="b"/><feComposite in="SourceGraphic"/></filter></defs><g class="b" transform="matrix(1, 0, 0, 1, 0, 0)"><path class="a" d="M61.969.007c-3.684,3.888-9.187,6.927-12.781,10.931-4.442,4.949-9.391,9.314-10.451,15.972-2.019,12.682-6.59,12.064-11.478,17.964-4.666,5.631-4.2,6.7-5.066,14.3-.634,5.563-2.271,7.487-2.678,8.054a10.171,10.171,0,0,1-2.262,1.9c-5.024,3.862-3.833,11.45-2.582,16.821,2.521,10.828,3.931,17.2-1.29,22.293a68.267,68.267,0,0,1-6.391,6.033C3.6,116.945.031,116.716.211,117.591c.331,1.607-1.237,5.077,1.1,4.3s6.293-4.671,11.427-10.931c4.91-5.986,3.86-9.689,10.834-14.508S29.663,90.984,34.683,88c5.253-3.122,6.9.353,13.189-12.747a20.38,20.38,0,0,0,2.387-8.026c.084-2.983-1.594-5.634-1.609-8.59-.014-2.852,1.3-5.43,2.121-8.093a18.729,18.729,0,0,0,.673-7.21c-.378-4.707-.214-7.908,3.581-11.253,7.819-6.893,2.464-11.925,4.938-19.3A35.8,35.8,0,0,0,61.975,0Z" transform="translate(151.09 35) rotate(83)"/></g></svg>