<svg xmlns="http://www.w3.org/2000/svg" width="185" height="213" viewBox="0 0 185 213"><defs><style>.a{fill:#86aa7d;}</style></defs><path class="a" d="M2801.863,332.83c-7.676,2.828-15.78-6.4-23.61-4.035-3.2.967-5.506,3.68-8.32,5.475s-7.14,2.362-9.03-.389c-2.374-3.453,1.167-9.037-1.719-12.076-1.72-1.811-4.725-1.45-7.007-.431s-4.42,2.572-6.911,2.778c-3.372.279-6.375-1.958-9.012-4.076l-8.481-6.811a22.019,22.019,0,0,0-6.561-4.1c-2.79-.93-5.815-.706-8.746-.471l-20.084,1.611c-4.317.346-8.874.651-12.77-1.24s-6.668-6.818-4.677-10.661c2.1-4.058,7.626-4.454,12.2-4.569s10.214-1.329,11.36-5.752a4.462,4.462,0,1,1-5.7-6.849c1.715-1.29,4.534-1.6,5.025-3.685.374-1.589-.969-3.017-1.485-4.566-.782-2.344.453-4.982,2.345-6.574a18.752,18.752,0,0,1,6.681-3.1l-.221-3.606c-10.091,8.98-26.35,10.1-37.58,2.59a14.842,14.842,0,0,1-4.992-5.038,7.367,7.367,0,0,1-.3-6.865l1.2-.732a62.18,62.18,0,0,0,11.5,4.838,20.874,20.874,0,0,0,12.312-.051c3.511-1.241,6.443-3.685,9.656-5.567s7.118-3.229,10.632-2l.507-.684a3.646,3.646,0,0,0-.349-6.763,6.55,6.55,0,0,0,3.775-9.765l-.629-.651a3.543,3.543,0,0,1-5.213-3.927c.594-2.369,3.541-3.966,3.246-6.389a3.6,3.6,0,0,0-3.319-2.8,10.536,10.536,0,0,0-4.562.893l-8.772,3.127c-1.8.642-3.888,1.264-5.54.3s-2.143-3.194-1.664-5.03a13.229,13.229,0,0,1,2.921-4.83l-.754-.116a37.389,37.389,0,0,1-21.034,20.884,29.537,29.537,0,0,1,13.13-25.6l-.143-.631-7.58,6.254a10.292,10.292,0,0,1-3.441,2.144,3.506,3.506,0,0,1-3.735-.908c-1.314-1.672-.058-4.232,1.724-5.4s3.983-1.557,5.752-2.74,2.97-3.786,1.6-5.414l.052.5-9.694,2.726c-1.381.388-3.2.619-3.941-.606a2.271,2.271,0,0,1,.494-2.639,6.654,6.654,0,0,1,2.493-1.409l8.737-3.379a12.412,12.412,0,0,0,4.173-2.268,4.219,4.219,0,0,0,1.336-4.311c-.541-1.5-2.645-2.342-3.854-1.3l-1.094-.215a3.095,3.095,0,1,1-3.518-3.266,8.679,8.679,0,0,1-3.861-6.468l-5.948,10.275a12.617,12.617,0,0,1,1.729-11.845l-9.543,5.124a18.691,18.691,0,0,1,9.4-9.055,4.2,4.2,0,1,1-.081-8.25,11.483,11.483,0,0,1-3.473-9.88,10.547,10.547,0,0,1-3.6,3.476c-1.521.727-3.628.527-4.537-.892a3.6,3.6,0,0,1,.67-4.187,10.529,10.529,0,0,1,3.873-2.338,18.786,18.786,0,0,1-15.413,1.848l3.127-5.419c-1.157,1.788-2.4,3.653-4.295,4.626s-4.636.648-5.619-1.241a4.191,4.191,0,0,1,.966-4.612,12.312,12.312,0,0,1,4.268-2.586l-.506-.5-6.991,3.51a10.921,10.921,0,0,1-3.8,1.349,3.711,3.711,0,0,1-3.538-1.511c-1.05-1.736.1-3.97,1.468-5.468a18.712,18.712,0,0,1,9.146-5.478L2632,133a5.978,5.978,0,0,1-4.308-6.5,13.472,13.472,0,0,1-4.489,4.282c-1.881.908-4.468.721-5.676-.981-1.446-2.038-.259-4.833.946-7.021h183.388Z" transform="translate(-2616.864 -122.781)"/></svg>