<svg xmlns="http://www.w3.org/2000/svg" width="201" height="175" viewBox="0 0 201 175"><defs><style>.a{fill:#a4c39d;}</style></defs><path class="a" d="M2714.39,290.2c-6.186,1.8-12.433,3.609-18.864,4s-13.151-.764-18.436-4.443a49.1,49.1,0,0,0-4.174-2.935c-2.717-1.5-5.9-1.84-8.992-2.151l-12.1-1.219c-3.22-.324-7.095-1.14-8.133-4.2-.674-1.986.128-4.407-1.087-6.117-.982-1.381-2.925-1.7-4.606-1.475s-3.293.884-4.985,1-3.625-.512-4.3-2.067a4.758,4.758,0,0,1,.5-3.932,14.528,14.528,0,0,1,17.179-6.937,19.6,19.6,0,0,1,4.873-17.035c1.308-1.386,2.874-2.66,3.487-4.463s-.37-4.3-2.276-4.346l.107-.7a15.4,15.4,0,0,0-10.011.085,36.5,36.5,0,0,0-9,4.717,119.414,119.414,0,0,0-23.1,20.229,51.789,51.789,0,0,1,8.557-33.179c-15.2,8.719-27.448,21.663-39.456,34.417a48.214,48.214,0,0,1,12.779-37.818,23.338,23.338,0,0,1-23.1,6.922l.518-.234c3.65-3.772,7.171-7.714,11.361-10.878s9.18-5.539,14.432-5.641l-7.517-4.89.491-3.322-.486-.081a17.83,17.83,0,0,1-11.133,4.89l.174-.136a12.422,12.422,0,0,0,3.523-6.443l1.235-1.275a41.542,41.542,0,0,0-18.57,25.375l.058,1.706a43.856,43.856,0,0,1,11.225-28.856l.119.034a12.177,12.177,0,0,1-4.5-15l-.048-.529a36.894,36.894,0,0,1-14.613,11.618c-1.644.724-3.749,1.261-5.088.064a4.306,4.306,0,0,1-1.061-3.444,13.672,13.672,0,0,1,3.916-9c1.174-1.184,2.708-2.739,1.942-4.22-.387-.75-1.282-1.155-1.606-1.935-.474-1.14.607-2.431,1.815-2.693a7.662,7.662,0,0,1,3.635.5,4.836,4.836,0,0,0,2.669.185,1.885,1.885,0,0,0,1.422-2.014c-.149-.692-.779-1.151-1.268-1.664a4.921,4.921,0,0,1,3.2-8.3c-2.085.015-2.434-3.656-4.5-3.949-2.018-.286-3.617,3-5.437,2.083-1.338-.676-.949-2.918-2.154-3.811-1.044-.774-2.564-.006-3.372,1.012s-1.33,2.31-2.413,3.03c-2.116,1.408-5.167-.348-6.019-2.741s-.191-5.028.473-7.479l-.511-.082a5.915,5.915,0,0,1-10.509-3.433,3.545,3.545,0,0,1-5.711-1.061,11.6,11.6,0,0,0-.593-1.895c-.914-1.606-3.285-1.363-5.043-.787s-3.947,1.175-5.245-.141c-1.388-1.407-.416-3.97,1.287-4.975s3.79-.986,5.754-1.213a8.02,8.02,0,0,0,4.085-1.409,3.624,3.624,0,0,0,1.387-3.855c-.367-1.06-1.335-1.8-1.852-2.794a3.625,3.625,0,0,1,3.588-5.274,4.2,4.2,0,0,1-1.711-4.318h187.8Z" transform="translate(-2513.39 -119.271)"/></svg>