<svg xmlns="http://www.w3.org/2000/svg" width="115.027" height="94.499" viewBox="0 0 115.027 94.499"><defs><style>.a{fill:#5d8154;}</style></defs><path class="a" d="M2823.716,190.288l-5.6-.817c-.771-.112-1.73-.411-1.8-1.187-1.729-.274-3.274,1.151-4.151,2.667s-1.427,3.267-2.683,4.486c-1.555,1.51-3.855,1.888-6,2.194a17.76,17.76,0,0,1,3.22-5.871c.989-1.048,2.248-1.874,2.962-3.126.609-1.067.769-2.363,1.478-3.367.927-1.314,2.582-1.859,3.882-2.805-2.845-.666-5.529,1.424-7.706,3.373a117.668,117.668,0,0,0-9.815,9.492,9.633,9.633,0,0,1-3.542,2.965,8.887,8.887,0,0,1-3.616.3l-6.157-.343a4.26,4.26,0,0,0,3.173-1.475,27.306,27.306,0,0,0,2.153-2.893,15.7,15.7,0,0,1,7.159-5.388c2.454-.906,5.127-1.192,7.484-2.329a6.008,6.008,0,0,0,1.587-1.049c.469-.453.821-1.01,1.253-1.5,1.482-1.673,3.743-2.379,5.885-3.014a23.124,23.124,0,0,0-5.154-2.573,7.918,7.918,0,0,0-5.643.173c-1.852.873-3.145,2.654-4.976,3.571-2,1-4.36.846-6.591.668.439-1.245.464-2.605.89-3.855a6.384,6.384,0,0,1,4.541-4.083c-1.972-.376-3.641,1.571-5.629,1.851a6.515,6.515,0,0,1-2.417-.247,43.583,43.583,0,0,1-6.734-2.217,6.12,6.12,0,0,0,2.807-.084,2.1,2.1,0,0,0,1.5-2.137c-.073-.425-.325-.848-.2-1.259.344-1.093,2.465-.282,2.95-1.319-.971-.82-2.409-.556-3.677-.459a11.352,11.352,0,0,1-5.854-1.145c-.926-.457-2.982-1.157-3.3-2.237,3.281.692,6.939,1.623,10.058-.156.848-.484,1.584-1.143,2.42-1.646a7.738,7.738,0,0,1,4.151-1.1,18.278,18.278,0,0,1-11.364-1.109l1.994-2.384c-1.146-.4-2.55-1.245-2.227-2.414.121-.435.473-.772.626-1.2.5-1.393-1.257-2.486-2.691-2.852s-3.26-1.089-3.151-2.565c-.418,3.015-4.769,3.418-6.693,5.776a11.17,11.17,0,0,0-1.367,2.623,19.035,19.035,0,0,1-7.092,8.252c1.443-.656,1.585-2.715.978-4.178s-1.721-2.707-2.119-4.241c-1.067-4.1,3.321-8.377,1.774-12.326a1.669,1.669,0,0,1-.2-1.193,1.34,1.34,0,0,1,.7-.61,14.763,14.763,0,0,1,4.742-1.446,126.545,126.545,0,0,1-21.592,6.222,3.479,3.479,0,0,0,2.664-2.031,20.57,20.57,0,0,1,1.651-3.084c1.239-1.54,3.29-2.095,5.064-2.964a13.92,13.92,0,0,0,5.962-5.63,11.619,11.619,0,0,1-7.234,4.7,31.106,31.106,0,0,0,2.815-7.908,16.925,16.925,0,0,1-6.44,7.313c1.307-3.062-1.15-7.312,1.248-9.622-1.211,1.9-1.5,4.219-1.918,6.432a22.328,22.328,0,0,1-3.957,9.736c-2.185,2.782-5.6,4.775-9.128,4.554,1.737-.546,2.468-2.647,2.43-4.468s-.585-3.637-.32-5.439c.446-3.024,3-5.211,5.193-7.339a47.543,47.543,0,0,0,7.113-8.768c-2.559,3.006-5.839,6.3-9.748,5.755a30.467,30.467,0,0,1,10.089-7.668,3.77,3.77,0,0,1-.5-3.642c-2.546,2.859-6.864,3.458-9.683,6.048-1.222,1.123-2.1,2.571-3.28,3.741-3.684,3.661-9.472,3.973-14.656,3.651,5.229-2.063,8.006-8.4,13.41-9.945,2.373-.68,5.1-.369,7.126-1.772a26.561,26.561,0,0,0,2.265-2.1,7.849,7.849,0,0,1,4.8-1.93c-2.7.12-5.531.282-7.81,1.729-1,.636-1.85,1.5-2.869,2.1-1.9,1.137-4.213,1.3-6.427,1.426a6.218,6.218,0,0,1,2.783-3.794c-.105-.884-1.261-1.25-2.118-1.01s-1.563.852-2.4,1.16-1.99.158-2.305-.674a4.621,4.621,0,0,1-.012-1.579c-.017-1.447-1.361-2.459-2.444-3.418a14.377,14.377,0,0,1-3.783-5.358,3.635,3.635,0,0,0-.261,3.43c.409,1.126,1.111,2.12,1.593,3.217a8.978,8.978,0,0,1-.145,7.435c-2.427-2.187-5.729-3.054-8.66-4.5s-5.8-4.011-5.762-7.279v-5.071h115.027Z" transform="translate(-2708.689 -104.138)"/></svg>