<svg xmlns="http://www.w3.org/2000/svg" xmlns:xlink="http://www.w3.org/1999/xlink" width="405" height="504" viewBox="0 0 405 504"><defs><style>.a{fill:#4c6046;}.b{filter:url(#a);}</style><filter id="a" x="0" y="0" width="405" height="504" filterUnits="userSpaceOnUse"><feOffset dy="-5" input="SourceAlpha"/><feGaussianBlur stdDeviation="5" result="b"/><feFlood flood-opacity="0.161"/><feComposite operator="in" in2="b"/><feComposite in="SourceGraphic"/></filter></defs><g class="b" transform="matrix(1, 0, 0, 1, 0, 0)"><path class="a" d="M375.124,348.476a50.347,50.347,0,0,0-66.73,38.984c-.822,4.922-.913,9.943-1.465,14.9a13.453,13.453,0,0,1,2.035.648l-2.208.778c-.125.949-.265,1.9-.442,2.838-1.186,6.318-4.037,12.749-9.5,16.155-10.1,6.3-25.736.516-33.689,9.36-6.108,6.792-3.182,17.3-4.089,26.492l6.259,3.847-6.551-1.7a17.933,17.933,0,0,1-2.152,6.08c-4.778,8.064-16.316,9.615-25.138,6.41s-15.825-9.895-23.311-15.548c-7.224-5.455-15.877-10.208-24.827-9.356a22.707,22.707,0,0,0,.31,2.524,6.4,6.4,0,0,1,.1,3.374,13.848,13.848,0,0,0-3.054-2.374,24.308,24.308,0,0,0,.144,4.946l-5.092-6.4a52.957,52.957,0,0,0-12.2,8.319c-5.511,4.7-10.963,9.812-17.773,12.3s-15.507,1.574-19.843-4.227c-4.381-5.861-2.845-14.024-1.526-21.216,1.243-6.779,1.669-14.836-3-19.665a26.33,26.33,0,0,0-4.636,4.081l6.46-1.057-6.46,1.057a26.33,26.33,0,0,1,4.636-4.081,11.419,11.419,0,0,0-.905-.848c-8.6-7.171-22.861,1.389-32.545-4.244-8.877-5.164-8.592-18.977-16.717-25.255a14.774,14.774,0,0,0-2.077-1.339c-.514,1.887-.959,3.791-1.319,5.713a46.734,46.734,0,0,0-1.431-6.85c-10.929-3.419-25.654,3.8-35.592-3-6.378-4.361-8.181-12.918-8.432-20.628-.135-4.178,0-8.467-.365-12.63l-5.688.1c1.713-1.162,3.485-2.234,5.3-3.231a26.179,26.179,0,0,0-2.109-7.012C16.2,339.746,6.821,334.887.569,339.424V811.661h375ZM54.437,421.624c-2.508.77-4.931-.362-6.805-2.006-1.431-1.255-2.414-2.914-3.941-4.061-2.286-1.719-4.52-1.453-7.04-2.357a4.028,4.028,0,0,1-2.179-2.092,2.548,2.548,0,0,1-.135-1.439,1.85,1.85,0,0,1,.205-.625,1.527,1.527,0,0,1,.44-.394,1.747,1.747,0,0,1,.263-.171,1.826,1.826,0,0,1,.47-.132c.147-.029.291-.089.439-.107.234-.029.472-.025.706-.05.389-.041.776-.085,1.165-.129,1.11-.128,2.217-.268,3.326-.4a77.8,77.8,0,0,1,9.255-.748c2.595-.008,4.959.616,6.58,2.779C59.8,413.175,59.085,420.2,54.437,421.624Zm22.4,6.9c-1.348-.21-1.7-1.6-1.838-2.746a.628.628,0,0,1,.626-.625,3.628,3.628,0,0,1,2.67,1.2.606.606,0,0,1,.159.434A1.426,1.426,0,0,1,76.836,428.525Zm24.443,25.5c-4.145,1.933-10.9.181-12.882-4.118a4.583,4.583,0,0,1,.474-5.1c1.326-1.693,3.376-2.53,3.82-5.079a6.333,6.333,0,0,1,.814-2.947c2.871-4.184,8.14-1.8,10.2,1.718a.52.52,0,0,1,.035.1.435.435,0,0,1,.028.046C105.336,443,106.64,451.526,101.279,454.026Zm19.982,35.51c-1.951,2.735-5.891.48-7.8-1.05-1.626-1.306-6.395-5.05-3.891-7.427,2.317-2.2,5.473-.335,7.432,1.493C119.22,484.2,123.13,486.914,121.261,489.535Zm34.546-10.178a6.515,6.515,0,0,1-6.11-.855.629.629,0,0,1,.275-1.044,43.508,43.508,0,0,1,4.66-1.073,2.7,2.7,0,0,0,.333,0c.785.129,1.974.489,2.092,1.438C157.151,478.583,156.436,479.123,155.808,479.358Zm33.333-.7A54.1,54.1,0,0,1,181,475.289c-1.892-.854-4.206-2.142-5.232-4.071-.609-1.146-.587-1.954.422-2.76a12.258,12.258,0,0,1,3.191-1.262,29.072,29.072,0,0,1,4.875-1.718c3.483-.638,7.67,2.465,8.344,5.881a.612.612,0,0,1,0,.1.478.478,0,0,1,.023.07C192.911,473.992,193.083,479.676,189.14,478.653Zm31.619,6.047a3.553,3.553,0,0,1-3.463-.754c-.8-.725-1.508-2.333-.429-3.148.6-.453,1.391-.175,2.03.028a17.458,17.458,0,0,1,2.393.978l.012.006c.031.015.063.027.094.043a.571.571,0,0,1,.116.091l.01.006,0,.005a.514.514,0,0,1,.12.147A1.6,1.6,0,0,1,220.759,484.7Zm45.19,7.207c-2.215,2.868-6.971,4.437-10.077,6.09-3.067,1.63-5.414,2.481-8.922,1.6-3.6-.9-15.335-6.235-10.244-11.57,1.7-1.78,4.341-1.424,6.512-1.168,6.762.8,13.424,1.759,19.236-2.6a.522.522,0,0,1,.321-.108C266.953,482.814,267.926,489.348,265.949,491.907Zm30.259-41.474c-.436,4.091-1.427,8.2-5.974,9.044-5.252.978-4.362-3.945-4.089-7.632.3-4.112-.316-8.208,4.581-9.143a.724.724,0,0,1,.081,0,.593.593,0,0,1,.085-.023C295.3,442.382,296.588,446.856,296.208,450.432Zm24.968-31.17c-3.447.3-3.411-4.852-.9-6.091l0,0,0,0,.008,0a.574.574,0,0,1,.475-.061,3.637,3.637,0,0,1,2.861,3.272A2.761,2.761,0,0,1,321.175,419.263Zm2.948-29.063c-.236.654-1.2,2.077-2.067,1.609-.581-.313-.5-1.369-.587-1.908a14.56,14.56,0,0,1-.411-3.045c.059-.945.529-1.791,1.561-1.595a.361.361,0,0,1,.129.053.33.33,0,0,1,.369.178C323.9,386.925,324.719,388.548,324.124,390.2Zm35.258-10.21c-.607,7.618-4.42,16.488-12.913,17.718-10.077,1.459-3.325-7.159-1.874-11.758,1.66-5.265-3.31-8.773-2.017-13.645.572-2.156,1.737-3.41,3.942-3.664C354.032,367.786,360.005,372.154,359.381,379.99Z" transform="translate(14.43 -317.66)"/></g></svg>