<svg xmlns="http://www.w3.org/2000/svg" xmlns:xlink="http://www.w3.org/1999/xlink" width="525" height="334" viewBox="0 0 525 334"><defs><style>.a{fill:#90af89;}.b{filter:url(#c);}.c{filter:url(#a);}</style><filter id="a" x="212.81" y="0" width="312.19" height="334" filterUnits="userSpaceOnUse"><feOffset dy="-5" input="SourceAlpha"/><feGaussianBlur stdDeviation="25" result="b"/><feFlood flood-opacity="0.161"/><feComposite operator="in" in2="b"/><feComposite in="SourceGraphic"/></filter><filter id="c" x="0" y="19.421" width="315.15" height="296.022" filterUnits="userSpaceOnUse"><feOffset dy="-5" input="SourceAlpha"/><feGaussianBlur stdDeviation="25" result="d"/><feFlood flood-opacity="0.161"/><feComposite operator="in" in2="d"/><feComposite in="SourceGraphic"/></filter></defs><g transform="translate(75 -104.354)"><g class="c" transform="matrix(1, 0, 0, 1, -75, 104.35)"><path class="a" d="M397.153,459.7V332.932c2.591-10.1-9.936-16.884-18.125-19.4-11.506-3.53-31.49-1.783-39.319,8.59-.113.15-.2.312-.309.465q3.852,1.908,7.706,3.814l-9.857.087a26.8,26.8,0,0,0-1.726,12.8c.589,6,2.769,11.727,5.253,17.221,1.677,3.708,3.525,7.43,4.053,11.465s-.533,8.55-3.753,11.04c-4.217,3.262-9.768,1.92-15.239.707q-.165,7.823-.331,15.644-1.3-8.125-2.594-16.252c-.7-.131-1.394-.252-2.081-.34A24.428,24.428,0,0,0,293.307,402c-.177,4.24.752,8.446.965,12.685s-.419,8.8-3.21,11.993c0,0-4.888,3.762-7.361,3.986l-1.156,10.221-7.351-9.622c-2.928-.149-5.856-.441-8.786-.339a32.279,32.279,0,0,0-29.741,41.67s3.362,16.982,26.292,23.279H397.5v-36.2Zm-29.09-115.022c.662-1.536,1.365-3.112,2.153-4.587a4.991,4.991,0,0,1,4.136-2.819,4.179,4.179,0,0,1,2.491.816,1.961,1.961,0,0,1,.8,2.1c-.053.219-.144.427-.209.643-.447,1.5-.382,3.081-.929,4.59a10.146,10.146,0,0,1-2.358,3.814c-1.854,1.821-5.358,1.95-6.42-.813A4.822,4.822,0,0,1,368.062,344.676Zm-14.5,96.452a39.845,39.845,0,0,1,5.8-.67c.958-.066,1.976-.6,2.941-.345,1.216.317,2.385,2.211,3.131,3.159a9.355,9.355,0,0,1,2.009,4.077,1.87,1.87,0,0,1-2.271,2.272l-9.4-2.6c-1.587-.438-4.061-.677-4.657-2.546C350.559,442.712,351.974,441.478,353.565,441.128Zm-40.643-22.193c1-1.215,2.611-1.921,3.3-3.339a8.785,8.785,0,0,0,.5-3.2,3.555,3.555,0,0,1,1.318-2.851,3.486,3.486,0,0,1,2.852-.1,4.736,4.736,0,0,1,2.18,1.241,3.356,3.356,0,0,1,.981,2.829c-.163,2.46-1.18,3.526-1.835,5.572a10.421,10.421,0,0,1-3.511,5.281,4.875,4.875,0,0,1-4.219.981A3.782,3.782,0,0,1,312,422.585,4.361,4.361,0,0,1,312.922,418.935Z" transform="translate(52.5 -231.87)"/></g><g class="b" transform="matrix(1, 0, 0, 1, -75, 104.35)"><path class="a" d="M149.451,408.675c-5.249-1.562-10.857-1.113-16.315-.666s-11.074.86-16.3-.766-10.049-5.792-10.77-11.222c-1.2-9,8.719-16.365,8.384-25.436-.253-6.849-6.642-12.258-13.37-13.554s-13.64.6-20.1,2.878c-5.645,1.986-11.389,4.306-17.368,4.05a15.773,15.773,0,0,1-10.9-4.916l-7.479,1.088,6.022-3.193a9.633,9.633,0,0,1-.99-2.849c-1.037-5.934,3.4-11.334,4.727-17.209,1.764-7.824-2.483-16.249-9.162-20.686s-15.29-5.271-23.144-3.658A44.129,44.129,0,0,0,18.29,313.7l.747,6.263L14.376,315.1A81.956,81.956,0,0,0,.868,322.351v1.021L0,322.351V457.757s66.266-.671,100.471,0,50.158-7.353,50.158-7.353a21.973,21.973,0,0,0-1.178-41.729Zm-16.056,13a4.082,4.082,0,0,1,1.616-1.436,2.888,2.888,0,0,1,2.577-.017c1.962.812,2.55,1.937,4.038,3.037a8.971,8.971,0,0,1,3.335,4.325,4.2,4.2,0,0,1-.366,3.713,3.256,3.256,0,0,1-2.944,1.263,3.758,3.758,0,0,1-2.722-1.764c-.713-1.153-.844-2.661-1.81-3.613a7.542,7.542,0,0,0-2.473-1.291,3.065,3.065,0,0,1-1.962-1.865A3.007,3.007,0,0,1,133.4,421.676ZM87.46,374.912a3.8,3.8,0,0,1,.629.671c1.69,2.3,1.989,6.331,2.461,9.086a39.006,39.006,0,0,1-.2,13.984c-.368,1.9-2.785,1.737-3.721.487l-7.46-9.971c-1.707-2.282-4.074-4.766-4.238-7.785C74.683,376.544,83.71,371.766,87.46,374.912Zm-59.2-53.082a34.173,34.173,0,0,1,4.995-.578c.824-.057,1.7-.512,2.532-.3,1.047.272,2.054,1.9,2.7,2.72a8.064,8.064,0,0,1,1.73,3.512,1.611,1.611,0,0,1-1.957,1.958l-8.091-2.237c-1.367-.378-3.5-.584-4.012-2.194C25.674,323.193,26.892,322.13,28.264,321.83Z" transform="translate(75 -212.35)"/></g></g></svg>