<svg xmlns="http://www.w3.org/2000/svg" xmlns:xlink="http://www.w3.org/1999/xlink" width="402.953" height="421.253" viewBox="0 0 402.953 421.253"><defs><style>.a{fill:#fff;}.b{fill:#90af89;}.c{filter:url(#a);}</style><filter id="a" x="0" y="0" width="402.953" height="421.253" filterUnits="userSpaceOnUse"><feOffset dy="-5" input="SourceAlpha"/><feGaussianBlur stdDeviation="25" result="b"/><feFlood flood-opacity="0.161"/><feComposite operator="in" in2="b"/><feComposite in="SourceGraphic"/></filter></defs><g transform="translate(-1530.17 -712.427)"><g class="c" transform="matrix(1, 0, 0, 1, 1530.17, 712.43)"><path class="a" d="M31.8,27.556C20.465,39.64,13.59,54.975,8.492,70.063-1.349,99.191-4.074,131.3,7.357,159.926s38.853,52.842,71.736,56.629c33.117,3.813,66.543-13.854,84.547-39.725s22.022-58.479,16.663-88.8c-4.4-24.866-15.272-49.469-35.043-66.89A85.742,85.742,0,0,0,112.028,3.1c-13.641-3.848-28.75-4.75-42.11.282-14.352,5.4-27.83,13.239-38.043,24.094Z" transform="matrix(0.92, 0.39, -0.39, 0.92, 159.93, 80.13)"/></g><path class="b" d="M56.615.781A33.915,33.915,0,0,0,45.984,4.873a136.331,136.331,0,0,0-34.3,28.6q-1.04,1.219-2.057,2.469C4.234,42.569-.929,51.19.142,60.573,1.516,72.6,11.995,78.936,21.171,82.742c13.466,5.583,27.435,10.234,41.609,9.708S91.5,85.642,100.924,72.318s12.457-34.341,4.992-49.5A38.652,38.652,0,0,0,83.82,3.606C75.15.549,65.622-1.062,56.615.781Z" transform="matrix(-0.996, -0.087, 0.087, -0.996, 1772.793, 940.233)"/><path class="b" d="M.98,16.718a8.037,8.037,0,0,1-.755-1.782,6.565,6.565,0,0,1,3.25-7.53,6.051,6.051,0,0,1,1.307-.468C14.821,4.584,31.687.92,41.948.147c3.113-.235,6.388-.366,9.2,1.053a11.766,11.766,0,0,1,5.838,8.493,19.538,19.538,0,0,1-1.39,10.587,48.85,48.85,0,0,1-5.317,9.287c-2.579,3.761-5.637,7.7-9.973,8.679a16.456,16.456,0,0,1-6.92-.339A70.2,70.2,0,0,1,21.37,34.352,42.774,42.774,0,0,1,11.049,28.77a30.918,30.918,0,0,1-3.98-3.739,46.644,46.644,0,0,1-3.867-5C2.506,19.007,1.631,17.89.98,16.718Z" transform="matrix(0.883, -0.469, 0.469, 0.883, 1739.346, 978.756)"/><path class="b" d="M20.326,2.106c-.668-.3-1.3-.622-2.014-.882A20.126,20.126,0,0,0,12.272.017c-.548-.023-1.1-.023-1.644,0C6.371.211,2.226,1.99.433,4.7-.526,6.148.022,12.67,2.942,18.515s7.821,9.126,9.171,9.564a7.682,7.682,0,0,0,5.318-.459,10.5,10.5,0,0,0,3.625-2.94,18.431,18.431,0,0,0,4.049-8.226A16.426,16.426,0,0,0,24,6.5a18.4,18.4,0,0,0-1.121-2.134A11.882,11.882,0,0,0,20.326,2.106Z" transform="translate(1649.415 991.409) rotate(-70)"/></g></svg>