<svg xmlns="http://www.w3.org/2000/svg" xmlns:xlink="http://www.w3.org/1999/xlink" width="133" height="99" viewBox="0 0 133 99"><defs><style>.a{fill:#44603d;}.b{filter:url(#a);}</style><filter id="a" x="0" y="0" width="133" height="99" filterUnits="userSpaceOnUse"><feOffset dy="3" input="SourceAlpha"/><feGaussianBlur stdDeviation="2.5" result="b"/><feFlood flood-opacity="0.161"/><feComposite operator="in" in2="b"/><feComposite in="SourceGraphic"/></filter></defs><g class="b" transform="matrix(1, 0, 0, 1, 0, 0)"><path class="a" d="M244.566-334.254a8.23,8.23,0,0,0-1.441,2.018c-.383.806-.254,1.261.537,1.194a3.377,3.377,0,0,1,.79,0c.319.051.613.141.926.212q.772.172,1.535.393a14.815,14.815,0,0,1,2.994,1.219l.2.114a4.886,4.886,0,0,1,2.161,2.286,4.75,4.75,0,0,1,.357,2.037,6.675,6.675,0,0,1-.146,1.187c-.039.184-.495,1.7-.975,1.673a.565.565,0,0,0,.049-.223c.015-3.172-1.327-5.251-3.636-6.034a16.522,16.522,0,0,0-4.887-.477,5.09,5.09,0,0,0-.6.026c-.516.057-1.063.16-1.591.255a2.763,2.763,0,0,0-1.209.584c-.328.236-.654.482-.977.737-.631.5-1.251,1.026-1.854,1.581a30.917,30.917,0,0,0-3.355,3.622,13.73,13.73,0,0,0-2.167,3.529c-.191.524-.169.938.065,1.155.309.252.944.1,1.48.057a13.669,13.669,0,0,1,6.819,1.061,4.222,4.222,0,0,1,1.88,1.306.83.83,0,0,1,.166.536,1.162,1.162,0,0,1-.153.487c-.137.248-.213.31-.408.343a.553.553,0,0,1-.139.021.147.147,0,0,1-.074-.037,6.7,6.7,0,0,0-3.57-1.354c-.833-.088-1.691-.108-2.521-.146-.982-.045-1.833-.246-2.813-.222a5.6,5.6,0,0,0-1.548.25,9.75,9.75,0,0,0-2.135,1.047,7.441,7.441,0,0,0-1.8,2c-.347.465-.676.937-.986,1.412a23.842,23.842,0,0,0-1.661,2.991,22.72,22.72,0,0,0-.845,2.212,2.213,2.213,0,0,0-.178.818,1.439,1.439,0,0,0,.165.573,1.454,1.454,0,0,0,1.034.619,4.036,4.036,0,0,0,1.161.038,7.868,7.868,0,0,0,2.648-.876c1.2-.6,2.73-1.546,3.381-.989a21.087,21.087,0,0,1-6.709,4.586,31.038,31.038,0,0,0-4.914,2.125,3.414,3.414,0,0,0-.763.59,6.141,6.141,0,0,0-.577.74,27.744,27.744,0,0,0-1.534,2.406,19.286,19.286,0,0,0-1.117,2.406,20.631,20.631,0,0,0-1.236,5.215c-.053.483-.09.955-.114,1.423-.129,2.462-.052,4.977.877,6.637a3.378,3.378,0,0,0,1.221,1.23,6.919,6.919,0,0,0,.809.417,1.7,1.7,0,0,0,.81.333,1.313,1.313,0,0,0,.592-.476,73.388,73.388,0,0,0,7.258-9.656,16.572,16.572,0,0,1,2.029-2.948c1.117-1.077,1.6-.424.8,1.03-.892,1.627-2.165,3.091-3.079,4.831a16.678,16.678,0,0,0-1.753,4.158,2.6,2.6,0,0,0,1.135,2.532c1.5,1.394,7.183-1.637,7.483-1.929,3.636-3.537,6.015-8.321,7.555-12.711a88.058,88.058,0,0,0,3.129-11.456c1.809,4.466-3.571,13.194-3.907,20.438-.173,3.71,2.189,4.084,4.843,3.779a15.888,15.888,0,0,0,4.87-1.342c1.884-.868,3.728-1.408,5.547-3.019a11.831,11.831,0,0,0,2.972-4.213,12.784,12.784,0,0,0,.976-3.75,24.041,24.041,0,0,0-.412-6.744c-.092-.559-.187-1.109-.269-1.658l-2.194-14.571c-.044-.295-.588-3.636.838-3.089.638.245.509,1.834.6,2.5l.941,6.535,2.5,17.369a.98.98,0,0,0,.065.406.726.726,0,0,0,.409.565c2.89,3.451,7.868,4,12.951,2.72A54.456,54.456,0,0,0,284-291.638c2.668-1.285,5.569-2.76,6.519-5.746,1.764-5.549-3.573-10.646-6.611-13.27-4.036-3.487-8.3-5.9-10.521-9.454-1.87-2.987-4.057-5.425-5.38-8.031-.142-.284.105-.737.553-1.016a1.1,1.1,0,0,1,.855-.182,5.13,5.13,0,0,1,3.3,2.64,6.711,6.711,0,0,0,5.712,4.364c3.093.459,6.755.018,10.235.527a9.153,9.153,0,0,1,3.36,1.321,23.7,23.7,0,0,1,3.51,2.6c.8.7,1.627,1.422,2.374,2.224a18.2,18.2,0,0,0,1.628,1.943,3.982,3.982,0,0,0,3.573.47,16.208,16.208,0,0,0,5.768-3.226,30.916,30.916,0,0,0,5.042-5.055,26.069,26.069,0,0,0,1.888-2.752q.413-.694.767-1.394c.217-.427.491-.821.727-1.232a.568.568,0,0,0-.008-.6,16.272,16.272,0,0,0-8.77-6.766,36.625,36.625,0,0,0-11.188-1.743,79.761,79.761,0,0,0-10.54.573l-.708.082c-1.294.154-2.567.317-3.811.466-1.328.159-2.989.5-3.979.174-1.556-.51,0-1.96,1.594-2.666a37.359,37.359,0,0,1,3.771-1.367,55.446,55.446,0,0,1,16.406-2.613,51.192,51.192,0,0,1,6.591.39,50.717,50.717,0,0,1,6.8,1.324,50.243,50.243,0,0,1,6.938,2.406q.737.318,1.465.66c.489.23.921.5,1.419.735a2.862,2.862,0,0,0,1.355.283,3.174,3.174,0,0,0,1.73-.709c5.765-4.073,7.369-9,4.452-12.547-2.723-3.193-8.564-4.366-14.839-4.019-6.595.363-13.151,2.317-18.974,4.069-5.9,1.776-11.416,3.436-16.582,4.994,7.133-5.885,14.862-11.809,25.058-16.337,1.017-.451.645-1.08-.36-.63-10.073,4.505-17.753,10.252-24.834,16.053,1.117-2.692.68-4.624-.523-6.178a3.589,3.589,0,0,1-.433-3.481,7.29,7.29,0,0,0,.367-1.885c0-.325.128-1.341-.719-1.059a3.164,3.164,0,0,0-.5.255c-.259.141-.523.267-.785.377-.327.142-.653.3-.976.46a23.913,23.913,0,0,0-6.378,4.634c-.008.008-.013.016-.02.023-.191.143-.288.3-.231.388a11.816,11.816,0,0,1,1.293,4.294,17.881,17.881,0,0,1,.1,2.582q-.023.762-.1,1.573c-.028.281-.057.564-.1.855l-.024.323c.033.294-.223.587-.763.876a.2.2,0,0,0-.038-.044c-1.48-1.166-1.559-3.069-1.724-4.748a7.139,7.139,0,0,0-.473-2.235,2.543,2.543,0,0,0-.582-.825c-.248-.229-.467-.786-1.305-.416a2.68,2.68,0,0,0-.494.3c-.489.347-.993.679-1.5.992q-.884.575-1.737,1.186a35.525,35.525,0,0,0-3.161,2.476,15.72,15.72,0,0,0-2.048,2.167,9.651,9.651,0,0,0-.828,1.273c-.246.465-.425.867-.2,1.111a8.551,8.551,0,0,0,.881.836,19.732,19.732,0,0,0,2.208,1.395,5.2,5.2,0,0,1,1.016.786c.264.271.713.673.656,1.164a2.248,2.248,0,0,1-.183,1.649c-.412.772-1.467,1.729-2.154,1.5a.24.24,0,0,0-.01-.038,12.425,12.425,0,0,0-3.59-4.786,10.715,10.715,0,0,0-2.15-1.336,3.266,3.266,0,0,0-2.191-.305C248.854-338.154,246.329-336.1,244.566-334.254Zm1.315,15.89a.521.521,0,0,1-.639-.13c-.455-.423-.923-.818-1.341-1.239a10.324,10.324,0,0,0-1.232-1.1c-.02-.015-.039-.03-.061-.043-.171-.12-.371-.243-.307-.549a1.882,1.882,0,0,1,.46-.823,2.882,2.882,0,0,1,1.259-.81,1.842,1.842,0,0,1,1.03,0c1.326.372,1.953,1.609,1.656,3.434A1.781,1.781,0,0,1,245.881-318.364Zm-8.932,20.923a20.839,20.839,0,0,1-2.2,4.624,4.679,4.679,0,0,1-1.2,1.353.72.72,0,0,1-.65.142,1.1,1.1,0,0,1-.152-1.139,15.1,15.1,0,0,1,1.984-4.518c.365-.558.723-1.114,1.092-1.66a13.015,13.015,0,0,1,1.076-1.482,1.014,1.014,0,0,1,.355-.269c.164-.05.288.005.327.147a1.233,1.233,0,0,1-.005.543,13.813,13.813,0,0,1-.623,2.257Zm13.506-15.286a12.464,12.464,0,0,1,.861,6.59,6.241,6.241,0,0,1-.273,1.369,3.9,3.9,0,0,1-.8,1.382,2.158,2.158,0,0,1-1.141.7.825.825,0,0,1-.919-.523,5.192,5.192,0,0,1,.141-2.929,13.637,13.637,0,0,0,.331-2.691c.013-.653.031-1.3.047-1.935.014-.532-.17-1.445.335-2.068a1.122,1.122,0,0,1,.818-.437.742.742,0,0,1,.6.542ZM262.714-324a9.784,9.784,0,0,1,3.946,5.6,3.929,3.929,0,0,1,.183,1.346,2.963,2.963,0,0,1-.583,1.561,3.091,3.091,0,0,1-1.368,1.051,1.664,1.664,0,0,1-1.557-.16,3.576,3.576,0,0,1-1-2.748,8.607,8.607,0,0,0-.618-2.555c-.245-.592-.48-1.176-.712-1.749-.193-.478-.817-1.222-.348-1.946a1.7,1.7,0,0,1,.985-.665,1.308,1.308,0,0,1,1.076.265Zm9.714-9.674a.96.96,0,0,1,.749-.038c.661.188,1.354.363,2.025.572s1.339.411,2.079.565l.1.021a.8.8,0,0,1,.7.366.883.883,0,0,1-.226.746,2.963,2.963,0,0,1-1.369.879,3.832,3.832,0,0,1-1.4.157c-1.824-.1-3-.968-3.2-2.294a.968.968,0,0,1,.538-.976Zm-35.507,24.1a.849.849,0,0,1-.514.254c-1.511.271-2.84.546-4.285.8-.31.065-.478-.109-.429-.44a2.016,2.016,0,0,1,.691-1.093,3.337,3.337,0,0,1,1.458-.726,6.733,6.733,0,0,1,2.01-.32,1.221,1.221,0,0,1,1.245.9.679.679,0,0,1-.175.619Zm27.841-26.981a2.685,2.685,0,0,1-1.938-2.354,1.116,1.116,0,0,1,.1-.558,2.178,2.178,0,0,1,.605-.717,4.172,4.172,0,0,1,1.018-.6,1.819,1.819,0,0,1,1.011-.161c.491.123.447.582.385,1.014a2.02,2.02,0,0,0,.161,1.107c.12.262.236.529.355.8.1.231.54.566.056,1.031a2.357,2.357,0,0,1-.917.489A1.209,1.209,0,0,1,264.761-336.554Zm-11.012,4.413a2.964,2.964,0,0,1,1.344-.083,3.333,3.333,0,0,1,2.965,3.527,1.588,1.588,0,0,1-.815,1.424.868.868,0,0,1-.885-.1c-.7-.428-1.41-.823-2.055-1.246a15.772,15.772,0,0,0-1.85-1.089l-.088-.042c-.248-.115-.533-.231-.512-.557a1.6,1.6,0,0,1,.429-.9A3.323,3.323,0,0,1,253.749-332.141Z" transform="translate(-206.74 365.41)"/></g></svg>