<svg xmlns="http://www.w3.org/2000/svg" xmlns:xlink="http://www.w3.org/1999/xlink" width="159.895" height="87.544" viewBox="0 0 159.895 87.544"><defs><style>.a{fill:#5d8154;}.b{fill:#709368;}.c{filter:url(#a);}</style><filter id="a" x="0" y="0" width="129.878" height="87.544" filterUnits="userSpaceOnUse"><feOffset dy="3" input="SourceAlpha"/><feGaussianBlur stdDeviation="3" result="b"/><feFlood flood-opacity="0.161"/><feComposite operator="in" in2="b"/><feComposite in="SourceGraphic"/></filter></defs><g transform="matrix(0.208, -0.978, 0.978, 0.208, 9, 53.929)"><g class="c" transform="matrix(0.21, 0.98, -0.98, 0.21, 50.88, -20.02)"><path class="a" d="M48.5.1A6.126,6.126,0,0,0,46.546.074Q45.273.1,44,.219q-1.04.1-2.074.246c-.534.078-1.243.021-1.453.629a22.539,22.539,0,0,0-1.431,5.78,23.144,23.144,0,0,1-.431-5.835c.093-1.771-4.091.7-4.6.992A22.752,22.752,0,0,0,28.959,6l-.134.142C26.146,9,24.611,13.13,21.037,15.015a.64.64,0,0,0-.333.628c-.037,3.951,2.618,7.307,5.577,9.59a25.543,25.543,0,0,0,4.6,2.793c-2.671,1.206-6.145-.035-8.608-1.287C19.5,25.33,17.2,22.826,17.26,19.526a.641.641,0,0,0-.8-.626,1.6,1.6,0,0,0-.887.23,4.155,4.155,0,0,0-.564.714q-.5.647-.961,1.326A26.5,26.5,0,0,0,12.4,23.952a31.54,31.54,0,0,0-2.319,6.057q-.088.319-.17.64c-.048.19-.137.373-.18.564a.935.935,0,0,0,.111.6,6.82,6.82,0,0,0,2.426,2.674c1.639,1.1,3.395,2.062,5.119,3.021Q22.4,40.3,27.644,42.594c-.044.245-.092.488-.134.733a46.867,46.867,0,0,1-5.108-.505,25.848,25.848,0,0,1-5.126-1.256,11.931,11.931,0,0,1-7.213-6.522c-.354-.865-1.265-.527-1.369.281a22.2,22.2,0,0,0-.159,6.3A14.831,14.831,0,0,0,12.69,49.9c2.846,2.865,6.862,3.875,10.191,5.925-3,.047-5.876,1.091-8.839,1.6A11.415,11.415,0,0,1,3.916,54.522c-.226-.217-1.269-.75-1.337-.177a2.527,2.527,0,0,0,0,.5c.031.346.084.683.1,1.031q.032.564.052,1.127.038,1.124.022,2.251c-.022,1.5-.118,3-.29,4.484a44.182,44.182,0,0,1-.741,4.44q-.109.5-.23.99c-.97,3.964-2.3,8.077-.858,12.084a.569.569,0,0,0,.185.619,23.51,23.51,0,0,0,6.417,4.1A2.93,2.93,0,0,0,6.6,85.89q-.361-.055-.72-.125-.718-.141-1.423-.344c-.454-.131-.9-.291-1.34-.451a6.889,6.889,0,0,0-1.169-.451c-.47-.076-1.112,0-1.084.624.2,4.58,5.6,7.154,8.853,9.418l13.318,9.283c.708.493,1.375-.674.673-1.164l-.391-.273a.7.7,0,0,0,.057-.236,116.531,116.531,0,0,0,.135-12.315.724.724,0,0,0-.049-.229,68.876,68.876,0,0,1,.808-12.162q.785-6.047,1.574-12.093a.524.524,0,0,0-.187-.512c.09-2.214.3-4.411.594-6.6a.7.7,0,0,0,.372-1.144c-.06-.065-.122-.127-.184-.19.577-3.879,1.385-7.727,2.2-11.565a.676.676,0,0,0-.042-.43q.031-.2.063-.393a.73.73,0,0,0,.116-.732c.062-.366.131-.731.2-1.1a.643.643,0,0,0,.155-.84,91.581,91.581,0,0,1,3.441-12.8.6.6,0,0,0,.395-.44,49.655,49.655,0,0,1,3.058-8.461c1.007-2.138,2.124-4.218,2.981-6.419a.7.7,0,0,0,.183-.188c1.235-1.853,2.477-3.7,3.855-5.454.687-.872,1.408-1.716,2.175-2.517A11.034,11.034,0,0,1,47.6,3.434,2.605,2.605,0,0,0,48.73,1.959c.208-.5.5-1.336-.022-1.748A.752.752,0,0,0,48.5.1Z" transform="matrix(0.21, -0.98, 0.98, 0.21, 9, 53.93)"/></g><path class="b" d="M25.84,0A2.39,2.39,0,0,0,24.72.5a9.231,9.231,0,0,0-1.061.8,40.491,40.491,0,0,0-5.2,5.668A38.6,38.6,0,0,0,14.975,11.8a50.7,50.7,0,0,0-3.4,7.6c-.941,2.57-1.728,5.189-2.495,7.814A207.2,207.2,0,0,0,3.833,51.287a278.159,278.159,0,0,0-3.5,58.836,159.317,159.317,0,0,0,4.377,31.151.679.679,0,0,0,1.308-.359C1.287,122.365.773,102.775,1.744,83.749,2.659,65.83,4.963,47.759,9.6,30.395c.709-2.655,1.447-5.3,2.306-7.915a62.439,62.439,0,0,1,3.047-7.687,33.075,33.075,0,0,1,1.978-3.65,37.532,37.532,0,0,1,2.392-3.205q2.8-3.437,5.633-6.848l.461-.557A2.247,2.247,0,0,0,25.84,0Z" transform="translate(22.461 2.245)"/></g></svg>