<svg xmlns="http://www.w3.org/2000/svg" xmlns:xlink="http://www.w3.org/1999/xlink" width="139.3" height="157.145" viewBox="0 0 139.3 157.145"><defs><style>.a{fill:#44603d;}.b{filter:url(#a);}</style><filter id="a" x="0" y="0" width="139.3" height="157.145" filterUnits="userSpaceOnUse"><feOffset dy="3" input="SourceAlpha"/><feGaussianBlur stdDeviation="2.5" result="b"/><feFlood flood-opacity="0.161"/><feComposite operator="in" in2="b"/><feComposite in="SourceGraphic"/></filter></defs><g class="b" transform="matrix(1, 0, 0, 1, 0, 0)"><path class="a" d="M1599.552,635.685c11.123-6.759,28.237-8.179,28.237-8.179-12.252-5.966-27.649,4.388-43.768,7.964-6.511,1.445-10.825,1.424-13.656.886a12.9,12.9,0,0,0,7.333-1.685c7.784-4.1,18.081-18.336,26.992-26.935s8.449-7.786,13.228-11.16a27.708,27.708,0,0,0-17.258,10.43c-6.656,8.558-22.118,28.822-32.5,28.063,1.7-.222,4.212-1.186,7.591-4.1A35.873,35.873,0,0,0,1583.86,620a63.655,63.655,0,0,1,4.091-6.983,21.5,21.5,0,0,0,2.155-4.055,26.891,26.891,0,0,1,6-8.76c1.228-1.222,2.529-2.37,3.866-3.472,10.8-8.9,10.185-14.27,10.185-14.27s-13.121,9.636-19.978,18.752-6.852,12.954-10.1,17.9A84.95,84.95,0,0,1,1568.5,632.79c1.458-1.9,3.313-5.636,5.271-12.9,4.425-16.4,7.5-32.5,12.7-36.934,4.551-3.882,12.964-11.16,12.964-11.16s-15.836,6.868-17.813,9.713-7.114,22.508-8.313,25.293c-.946,2.2-4.5,18.657-6.581,25.213a44.228,44.228,0,0,0,.537-13.015c-1.033-8.112-2.584-17.152-3.146-25.792-.811-12.45-5.1-29.1-5.1-29.1s-.784,11.856.5,20.469c2.07,13.908,2.993,16.373,3.517,25.526.4,6.97,1.431,14.817,2.172,19.856-3.045-8.8-9.439-26.376-14.694-34.709-7.173-11.375-11.613-15.317-13.518-22.9,0,0-1.13,8.312,6.1,18.815,5.254,7.638,15.5,27.459,20.7,37.706-5.012-8.979-9.6-11.248-18.094-19.917-10.248-10.457-39.378-26.483-39.378-26.483,4.635,5.2,15.831,13.22,32.987,24.986a113.3,113.3,0,0,1,25.37,24.691c-5.133-3.645-24.462-16.585-37.474-14.579,0,0-20.886,16.352-25.408,29.489,0,0,19.565-25.2,26.494-25.172s15.817.588,23.249,4.914c5.429,3.16,9.336,4.885,11.745,6.555-1.94-.255-11.1-1.3-18.281.634-8.078,2.178-16.267,7.241-19.973,12.76s-6.888,16.7-6.888,16.7,6.251-10.844,11.071-16.446,14-12.33,33.249-11.323c0,0-22.91,7.163-26.721,21.273,0,0,4.659-6.75,9.845-8.808s17.2-8.234,19.827-11.108c0,0-.5,12.086-3.365,16.4s-7.142,13.1-6.01,14.148,1.722.177,1.722.177a170.769,170.769,0,0,0,6.98-17.253,48.449,48.449,0,0,0,2.214-13.124,14.352,14.352,0,0,0,5.644,5.6c5.863,3.342,15.734,16.149,17.38,15.975s-1.584-9.734-6.879-12.9c-3.9-2.336-11.323-6.391-15-9.113C1574.619,640.489,1590.716,641.054,1599.552,635.685Z" transform="translate(404.67 -1572.43) rotate(80)"/></g></svg>