<svg xmlns="http://www.w3.org/2000/svg" xmlns:xlink="http://www.w3.org/1999/xlink" width="180.892" height="107.844" viewBox="0 0 180.892 107.844"><defs><style>.a{fill:#5d8154;}.b{fill:#709368;}.c{filter:url(#c);}.d{filter:url(#a);}</style><filter id="a" x="42.5" y="19.844" width="99" height="88" filterUnits="userSpaceOnUse"><feOffset dy="5" input="SourceAlpha"/><feGaussianBlur stdDeviation="2.5" result="b"/><feFlood flood-opacity="0.161"/><feComposite operator="in" in2="b"/><feComposite in="SourceGraphic"/></filter><filter id="c" x="0" y="0" width="154.545" height="69.596" filterUnits="userSpaceOnUse"><feOffset dy="3" input="SourceAlpha"/><feGaussianBlur stdDeviation="3" result="d"/><feFlood flood-opacity="0.161"/><feComposite operator="in" in2="d"/><feComposite in="SourceGraphic"/></filter></defs><g transform="translate(9.973 3.51)"><g class="d" transform="matrix(1, 0, 0, 1, -9.97, -3.51)"><path class="a" d="M362.213,417.868c-2.358.927-5.032,2.031-5.871,4.623a8.28,8.28,0,0,1-2.036,3.832,18.49,18.49,0,0,1-3.7,2.538.61.61,0,0,0-.277.309,43.918,43.918,0,0,1-6.066-2.141.654.654,0,0,0-.859-.671c-2.809.956-5.714,1.961-8.032,3.882-2.433,2.017-3.609,5.745-6.75,6.815a.674.674,0,0,0-.286,1.075.683.683,0,0,0,.175.465l2.64,3.021a18.831,18.831,0,0,1-3.857-2.688.625.625,0,0,0-.836-.027.694.694,0,0,0-.575.468,18.465,18.465,0,0,1-3.279,6.5c-1.639,1.811-4.052,2.565-5.895,4.122-3.678,3.107-5.148,7.835-6.435,12.309a.8.8,0,0,0-.092.464.565.565,0,0,0,.053.2.709.709,0,0,0,.248.3l3.248,2.27a16.86,16.86,0,0,1-3.194-.789.525.525,0,0,0-.568.1.538.538,0,0,0-.345.35,41.888,41.888,0,0,0-2.683,17.748.7.7,0,0,0-.07.289c-.158,4.745,5.189,5.913,8.892,5.873a27.8,27.8,0,0,0,13.689-3.857.579.579,0,0,0,.278-.708c-.035-4.244-.145-8.585-1.3-12.64.571.739,1.139,1.48,1.7,2.23,1.656,2.223,3.061,4.637,2.956,7.5a.6.6,0,0,0,.786.6c2.4.542,4.39-1.036,5.641-2.978,1.7-2.642,2.686-5.486,5.987-6.5,2.512-.769,5.7.125,7.46-2.348,1.561-2.188.6-5.124,1.954-7.379a.659.659,0,0,0,.1-.277c1.392-2.187,3.684-3.546,5.276-5.567a13.717,13.717,0,0,0,2.722-6.562c.675-4.772-.854-9.382-3.115-13.524,2.025.871,2.914,3.65,3.509,5.582a25.348,25.348,0,0,1,1.085,7c-.292.435-.1,1.154.528,1.039a20.048,20.048,0,0,0,10.528-5.382.686.686,0,0,0,.35-.278c.041-.062.076-.126.112-.189.079-.083.161-.162.239-.246a.6.6,0,0,0,.15-.617,6.592,6.592,0,0,0-.565-4.619,20.349,20.349,0,0,1-1.908-5.915c1.988,2.988,1.89,7.34,5.492,9.175a.625.625,0,0,0,.8-.163l0,0c2.215-1.42,1.747-4.44,3.431-6.3,1.737-1.913,4.315-2.927,5.822-5.076a9.472,9.472,0,0,0,1.3-4.646,12.974,12.974,0,0,0-.412-5.213c.021-1.734-.438-3.755-2.513-3.906a10.35,10.35,0,0,0-3.035.653,8.053,8.053,0,0,1-4.6-.393.68.68,0,0,0-.184-.039.738.738,0,0,0-.183-.1A25.772,25.772,0,0,0,362.213,417.868Z" transform="translate(-256.85 -393.77)"/></g><path class="b" d="M376.264,423.019a137.629,137.629,0,0,0-28.735,12.291c-8.64,4.831-16.964,10.487-23.717,17.79a52.455,52.455,0,0,0-12.235,21.2,41.745,41.745,0,0,0-1.266,4.667.626.626,0,0,0,.152.576c-.062.423-.12.847-.168,1.274-.1.859,1.223,1.166,1.322.3a41.8,41.8,0,0,1,1.231-6.369c5.377-16.341,20.152-27.481,34.84-35.486,17.362-9.462,36.451-17.509,56.491-18.048a66.2,66.2,0,0,1,31.426,6.51.678.678,0,0,0,.63-1.2c-.214-.107-.431-.206-.646-.311a.574.574,0,0,0-.365-.546C416.721,417.225,395.547,417.431,376.264,423.019Z" transform="translate(-265.675 -396.457)"/><g transform="translate(-0.973 -0.167)"><g class="c" transform="matrix(1, 0, 0, 1, -9, -3.34)"><path class="a" d="M407.8,409.592a.946.946,0,0,0-1.288-.978.79.79,0,0,0-.35-.306c-25.272-11.92-54.121-6.269-78.879,4.017-4.653,1.933-9.235,4.028-13.777,6.206a.86.86,0,0,0-.536.084l-6.6,3.411a.713.713,0,0,0-.389.887c-.632.239-1.277.446-1.934.629a.8.8,0,0,0-.905.2c-.019.021-.041.039-.061.059a.721.721,0,0,0-.568.558,55.79,55.79,0,0,1-11.276,8.471c-2.109,1.225-4.246,2.414-6.267,3.78a38.125,38.125,0,0,0-5.517,4.417c-.46.452-.942.879-1.363,1.367-2.2,2.569-3.2,6.225-6.221,8.015a.786.786,0,0,0-.4.55.7.7,0,0,0-.032.947c1.549,2.041,4.165,1.5,5.641-.359a18.685,18.685,0,0,0,2.184-4.567q1.13-2.717,2.259-5.434l.059-.056a14.663,14.663,0,0,1,1.3-.9,24.275,24.275,0,0,0-2.432,7.521.822.822,0,0,0,.254.8,1.015,1.015,0,0,0,.153.129,7.422,7.422,0,0,1,2.728,3.5.893.893,0,0,0,1.215.492.88.88,0,0,0,.761-.847,59.8,59.8,0,0,1,2.344-14.311c.109-.072.212-.145.324-.215.212-.129.425-.254.637-.382a24.438,24.438,0,0,0-1.625,9.858.818.818,0,0,0,.2.524,1.032,1.032,0,0,0,.112.172,8.2,8.2,0,0,0,4.95,2.9.84.84,0,0,0,.687-.161.715.715,0,0,0,.345-.6.877.877,0,0,0-.017-.394,29.483,29.483,0,0,1,.31-7.19,30.76,30.76,0,0,0,.847,8.072.733.733,0,0,0,.76.6.954.954,0,0,0,.145.071,9.223,9.223,0,0,0,4.631.044l5.248-.718L316.055,449a.881.881,0,0,0,.9-1.3,12.5,12.5,0,0,1-.944-11.187c.974-2.46,2.4-4.707,3.263-7.174a34.929,34.929,0,0,1-.269,16.943.759.759,0,0,0,.226.8.932.932,0,0,0,.2.155c2.5,1.427,5.166,2.55,8.018,1.44,2.5-.975,4.229-3.059,6.223-4.751,2.8-2.377,5.883-2.48,9.389-2.549,2.679-.051,5.336-.314,7.626-1.819a.818.818,0,0,0,.364-.5c.006-.009.013-.015.018-.025a65.522,65.522,0,0,0,7.7-20.618,43.735,43.735,0,0,1-4.6,19.531.9.9,0,0,0,1.066,1.241c6.871,1.172,12.163-3.868,16.951-8l4.428-3.823a11.264,11.264,0,0,0,3.171-3.52,9.957,9.957,0,0,0,.781-4.249c5.739.146,11.9.865,17.516-.511C402.787,417.918,407.139,414.655,407.8,409.592Z" transform="translate(-262.27 -395.61)"/></g><path class="b" d="M435.426,459.64a50.967,50.967,0,0,0-3.655-19.164,63.934,63.934,0,0,0-6.892-15.049c-6.594-10.375-17.439-17.445-28.756-21.79-24.888-9.556-52.333-1.959-75.375,9.19q-3.161,1.529-6.3,3.141c-2.6,1.111-5.218,2.219-7.7,3.54-.608.323-1.2.672-1.783,1.041s-1.158.759-1.72,1.162-1.121.823-1.671,1.25-1.093.864-1.633,1.3-1.074.882-1.609,1.324c-.587.489-1.167,1-1.78,1.453a6.794,6.794,0,0,0-.535.508c-.2.183-.423.337-.632.506l-.887.712-1.028.827-1.008.812-.829.668-.492.395a.458.458,0,0,1-.068.056l.313-.163.809-.424q.557-.291,1.111-.585.61-.322,1.219-.646.567-.3,1.132-.611c.284-.155.571-.309.851-.475.311-.183.611-.37.9-.581s.592-.432.886-.65c.592-.436,1.18-.878,1.768-1.319s1.18-.882,1.775-1.317,1.191-.863,1.8-1.282,1.214-.822,1.836-1.21l.26-.162c2.822-1.733,5.87-3.162,8.82-4.683,11.712-5.206,23.244-10.384,35.836-13.146,13.086-2.87,26.854-3.214,39.827.435a61.93,61.93,0,0,1,40.8,37.6,87.681,87.681,0,0,1,3.117,17.377.649.649,0,0,0,1.3-.046Z" transform="translate(-268.428 -399.287)"/></g></g></svg>