<svg xmlns="http://www.w3.org/2000/svg" xmlns:xlink="http://www.w3.org/1999/xlink" width="210.731" height="221.629" viewBox="0 0 210.731 221.629"><defs><style>.a{fill:#5d8154;}.b{filter:url(#e);}.c{filter:url(#c);}.d{filter:url(#a);}</style><filter id="a" x="18.581" y="0" width="192.15" height="187.709" filterUnits="userSpaceOnUse"><feOffset dy="-5" input="SourceAlpha"/><feGaussianBlur stdDeviation="10" result="b"/><feFlood flood-color="#5d5d5d" flood-opacity="0.161"/><feComposite operator="in" in2="b"/><feComposite in="SourceGraphic"/></filter><filter id="c" x="13" y="36" width="196.116" height="161.603" filterUnits="userSpaceOnUse"><feOffset dy="-5" input="SourceAlpha"/><feGaussianBlur stdDeviation="10" result="d"/><feFlood flood-opacity="0.161"/><feComposite operator="in" in2="d"/><feComposite in="SourceGraphic"/></filter><filter id="e" x="0" y="51" width="196.85" height="170.629" filterUnits="userSpaceOnUse"><feOffset dy="-5" input="SourceAlpha"/><feGaussianBlur stdDeviation="10" result="f"/><feFlood flood-opacity="0.161"/><feComposite operator="in" in2="f"/><feComposite in="SourceGraphic"/></filter></defs><g transform="matrix(0.97, -0.242, 0.242, 0.97, 96.852, 44.171)"><g class="d" transform="matrix(0.97, 0.24, -0.24, 0.97, -83.29, -66.29)"><path class="a" d="M61.969.007C58.287,3.895,52.787,6.936,49.193,10.94c-4.441,4.949-9.387,9.315-10.449,15.973-2.022,12.681-6.589,12.064-11.477,17.965-4.665,5.632-4.2,6.7-5.068,14.3-.636,5.562-2.272,7.486-2.679,8.054a10.176,10.176,0,0,1-2.261,1.9c-5.022,3.863-3.835,11.449-2.587,16.819,2.515,10.825,3.921,17.192-1.3,22.29a68.309,68.309,0,0,1-6.389,6.034C3.6,116.945.032,116.717.212,117.592c.331,1.607-1.238,5.076,1.1,4.3s6.291-4.673,11.423-10.933c4.908-5.987,3.861-9.688,10.832-14.509s6.087-5.465,11.1-8.45c5.251-3.124,6.9.35,13.184-12.75a20.4,20.4,0,0,0,2.389-8.025c.085-2.983-1.591-5.633-1.6-8.588-.013-2.851,1.3-5.429,2.123-8.092a18.739,18.739,0,0,0,.676-7.209c-.376-4.706-.211-7.906,3.583-11.252,7.816-6.894,2.466-11.923,4.942-19.294A35.828,35.828,0,0,0,61.976,0Z" transform="translate(139.24 35) rotate(48)"/></g><g class="c" transform="matrix(0.97, 0.24, -0.24, 0.97, -83.29, -66.29)"><path class="a" d="M61.969.007c-3.684,3.888-9.187,6.927-12.781,10.931-4.442,4.949-9.391,9.314-10.451,15.972-2.019,12.682-6.59,12.064-11.478,17.964-4.666,5.631-4.2,6.7-5.066,14.3-.634,5.563-2.271,7.487-2.678,8.054a10.171,10.171,0,0,1-2.262,1.9c-5.024,3.862-3.833,11.45-2.582,16.821,2.521,10.828,3.931,17.2-1.29,22.293a68.267,68.267,0,0,1-6.391,6.033C3.6,116.945.031,116.716.211,117.591c.331,1.607-1.237,5.077,1.1,4.3s6.293-4.671,11.427-10.931c4.91-5.986,3.86-9.689,10.834-14.508S29.663,90.984,34.683,88c5.253-3.122,6.9.353,13.189-12.747a20.38,20.38,0,0,0,2.387-8.026c.084-2.983-1.594-5.634-1.609-8.59-.014-2.852,1.3-5.43,2.121-8.093a18.729,18.729,0,0,0,.673-7.21c-.378-4.707-.214-7.908,3.581-11.253,7.819-6.893,2.464-11.925,4.938-19.3A35.8,35.8,0,0,0,61.975,0Z" transform="matrix(0.36, 0.93, -0.93, 0.36, 156.9, 71)"/></g><g class="b" transform="matrix(0.97, 0.24, -0.24, 0.97, -83.29, -66.29)"><path class="a" d="M61.969.007C58.287,3.895,52.787,6.936,49.193,10.94c-4.441,4.949-9.387,9.315-10.449,15.973-2.022,12.681-6.589,12.064-11.477,17.965-4.665,5.632-4.2,6.7-5.068,14.3-.636,5.562-2.272,7.486-2.679,8.054a10.176,10.176,0,0,1-2.261,1.9c-5.022,3.863-3.835,11.449-2.587,16.819,2.515,10.825,3.921,17.192-1.3,22.29a68.305,68.305,0,0,1-6.389,6.034C3.6,116.945.032,116.717.212,117.592c.331,1.607-1.238,5.076,1.1,4.3s6.291-4.673,11.423-10.933c4.908-5.987,3.861-9.688,10.832-14.509s6.087-5.465,11.1-8.45c5.251-3.124,6.9.35,13.184-12.75a20.4,20.4,0,0,0,2.389-8.025c.085-2.983-1.591-5.633-1.6-8.588-.013-2.851,1.3-5.429,2.123-8.092a18.739,18.739,0,0,0,.676-7.209c-.376-4.706-.211-7.906,3.583-11.252,7.816-6.894,2.466-11.923,4.942-19.294A35.828,35.828,0,0,0,61.976,0Z" transform="translate(166.85 141.39) rotate(117)"/></g></g></svg>