<svg xmlns="http://www.w3.org/2000/svg" xmlns:xlink="http://www.w3.org/1999/xlink" width="203.173" height="147.172" viewBox="0 0 203.173 147.172"><defs><style>.a{fill:#99a297;}.b{fill:#bfc7bd;}.c{fill:#3b3b3b;}.d{filter:url(#o);}.e{filter:url(#m);}.f{filter:url(#k);}.g{filter:url(#i);}.h{filter:url(#g);}.i{filter:url(#e);}.j{filter:url(#c);}.k{filter:url(#a);}</style><filter id="a" x="99.365" y="75.118" width="46.368" height="65.167" filterUnits="userSpaceOnUse"><feOffset dy="3" input="SourceAlpha"/><feGaussianBlur stdDeviation="3" result="b"/><feFlood flood-opacity="0.161"/><feComposite operator="in" in2="b"/><feComposite in="SourceGraphic"/></filter><filter id="c" x="51.176" y="84.682" width="44.897" height="57.669" filterUnits="userSpaceOnUse"><feOffset dy="3" input="SourceAlpha"/><feGaussianBlur stdDeviation="3" result="d"/><feFlood flood-opacity="0.161"/><feComposite operator="in" in2="d"/><feComposite in="SourceGraphic"/></filter><filter id="e" x="42.487" y="46.169" width="160.686" height="91.467" filterUnits="userSpaceOnUse"><feOffset dy="3" input="SourceAlpha"/><feGaussianBlur stdDeviation="3" result="f"/><feFlood flood-opacity="0.161"/><feComposite operator="in" in2="f"/><feComposite in="SourceGraphic"/></filter><filter id="g" x="11.661" y="35.951" width="48.897" height="41.798" filterUnits="userSpaceOnUse"><feOffset dy="3" input="SourceAlpha"/><feGaussianBlur stdDeviation="3" result="h"/><feFlood flood-opacity="0.161"/><feComposite operator="in" in2="h"/><feComposite in="SourceGraphic"/></filter><filter id="i" x="113.83" y="79.939" width="46.368" height="65.167" filterUnits="userSpaceOnUse"><feOffset dy="3" input="SourceAlpha"/><feGaussianBlur stdDeviation="3" result="j"/><feFlood flood-opacity="0.161"/><feComposite operator="in" in2="j"/><feComposite in="SourceGraphic"/></filter><filter id="k" x="66.846" y="89.503" width="44.897" height="57.669" filterUnits="userSpaceOnUse"><feOffset dy="3" input="SourceAlpha"/><feGaussianBlur stdDeviation="3" result="l"/><feFlood flood-opacity="0.161"/><feComposite operator="in" in2="l"/><feComposite in="SourceGraphic"/></filter><filter id="m" x="0" y="0" width="117.764" height="121.439" filterUnits="userSpaceOnUse"><feOffset dy="3" input="SourceAlpha"/><feGaussianBlur stdDeviation="3" result="n"/><feFlood flood-opacity="0.161"/><feComposite operator="in" in2="n"/><feComposite in="SourceGraphic"/></filter><filter id="o" x="20.231" y="32.467" width="48.897" height="41.798" filterUnits="userSpaceOnUse"><feOffset dy="3" input="SourceAlpha"/><feGaussianBlur stdDeviation="3" result="p"/><feFlood flood-opacity="0.161"/><feComposite operator="in" in2="p"/><feComposite in="SourceGraphic"/></filter></defs><g transform="translate(-3763.659 -2330)"><g transform="translate(3768 2336)"><g transform="translate(0 0)"><g class="k" transform="matrix(1, 0, 0, 1, -4.34, -6)"><path class="a" d="M1005.41,251.493a8.278,8.278,0,0,0-1.469-1.211,15.617,15.617,0,0,0-16.077-.324,11.852,11.852,0,0,0-3.087,2.769c-6.182,7.952,1.845,16.093,6.255,22.435,1.689,2.426,3.51,5.4,2.446,8.462-.774,2.223-2.952,2.692-3.979,4.518-1.448,2.576,1.04,4.748,3.174,5.665,6.062,2.606,16.751,1.42,17.048-6.709.16-4.4.811-8.779,1.05-13.177a45.471,45.471,0,0,0-.85-13.227,24.341,24.341,0,0,0-2.047-5.527A15.325,15.325,0,0,0,1005.41,251.493Z" transform="translate(-874.16 -166.76)"/></g><g class="j" transform="matrix(1, 0, 0, 1, -4.34, -6)"><path class="a" d="M962.144,259.608a10.11,10.11,0,0,0-2.249-1.471,13.936,13.936,0,0,0-10.1-.691,13.214,13.214,0,0,0-4.578,2.5,9.211,9.211,0,0,0-1.53,1.631c-4.678,6.462-.876,14.868,3.662,20.207a.93.93,0,0,0,.071.068c1.074,1.581,2.864,4.668.926,6.181-1.24.969-2.744,1.864-2.58,3.657.18,1.954,2.12,3.261,3.763,3.958,4.75,2.02,12.03.232,14.821-4.174a27.9,27.9,0,0,0,3.9-17.984,27.15,27.15,0,0,0-1.945-7.488A16.719,16.719,0,0,0,962.144,259.608Z" transform="translate(-881.37 -166.13)"/></g><g class="i" transform="matrix(1, 0, 0, 1, -4.34, -6)"><path class="a" d="M1064.2,259.3c-12.067,4.457-23.54.9-32.523-7.951-6.408-6.31-11.354-14.028-18.1-19.978a45.559,45.559,0,0,0-30.056-11.508c-17.6.121-32.959,12.393-44.505,24.6-5.464,5.776-12.854,12.4-15.32,20.164a1.586,1.586,0,0,0-.048.224,1.469,1.469,0,0,0-.31.9c-.327,12.855,10.91,19.884,21.526,24.2,14.861,6.04,29,2.966,43.9-1.291,8.368-2.391,16.586-4.388,25.329-4.728,7.434-.289,14.912.087,22.3-.923,12.971-1.772,23.729-8.774,29.192-20.856a1.616,1.616,0,0,0,.129-.477C1066.494,260.619,1065.7,258.742,1064.2,259.3Z" transform="translate(-871.85 -167.69)"/></g><g class="h" transform="matrix(1, 0, 0, 1, -4.34, -6)"><path class="b" d="M929.6,226.608c-.988-2.535-4.4-2.672-7.023-3.363-1.978-.521-3.954-1.055-5.9-1.673a35.549,35.549,0,0,1-10.876-5.208,19.559,19.559,0,0,1-4-4.044c-.794-1.091-2.916-.876-2.807.761.6,9.056,11.319,16.141,18.761,19.648,2.316,1.091,6.456,3.623,9.073,2.377,2.263-1.076,3.006-4.448,3.058-6.713A4.591,4.591,0,0,0,929.6,226.608Z" transform="translate(-878.32 -169.69)"/></g><g class="g" transform="matrix(1, 0, 0, 1, -4.34, -6)"><path class="a" d="M1005.41,251.493a8.278,8.278,0,0,0-1.469-1.211,15.617,15.617,0,0,0-16.077-.324,11.852,11.852,0,0,0-3.087,2.769c-6.182,7.952,1.845,16.093,6.255,22.435,1.689,2.426,3.51,5.4,2.446,8.462-.774,2.223-2.952,2.692-3.979,4.518-1.448,2.576,1.04,4.748,3.174,5.665,6.062,2.606,16.751,1.42,17.048-6.709.16-4.4.811-8.779,1.05-13.177a45.471,45.471,0,0,0-.85-13.227,24.341,24.341,0,0,0-2.047-5.527A15.325,15.325,0,0,0,1005.41,251.493Z" transform="translate(-859.69 -161.94)"/></g><g class="f" transform="matrix(1, 0, 0, 1, -4.34, -6)"><path class="a" d="M962.144,259.608a10.11,10.11,0,0,0-2.249-1.471,13.936,13.936,0,0,0-10.1-.691,13.214,13.214,0,0,0-4.578,2.5,9.211,9.211,0,0,0-1.53,1.631c-4.678,6.462-.876,14.868,3.662,20.207a.93.93,0,0,0,.071.068c1.074,1.581,2.864,4.668.926,6.181-1.24.969-2.744,1.864-2.58,3.657.18,1.954,2.12,3.261,3.763,3.958,4.75,2.02,12.03.232,14.821-4.174a27.9,27.9,0,0,0,3.9-17.984,27.15,27.15,0,0,0-1.945-7.488A16.719,16.719,0,0,0,962.144,259.608Z" transform="translate(-865.7 -161.31)"/></g><g transform="translate(0 0)"><path class="b" d="M866.194,496.044c-.712-1.28-2.03-1.037-3.123-1.167-.824-.1-1.648-.2-2.473-.357a12.77,12.77,0,0,1-4.839-1.808A10.048,10.048,0,0,1,853.7,490.9c-.448-.518-1.229-.2-.971.674,1.425,4.848,6.451,7.687,9.754,8.893,1.028.375,2.943,1.36,3.776.442.721-.794.56-2.688.28-3.919A3.536,3.536,0,0,0,866.194,496.044Z" transform="translate(-852.675 -417.993)"/><g transform="translate(2.748)"><g class="e" transform="matrix(1, 0, 0, 1, -7.09, -6)"><path class="a" d="M948.208,443.933c-9.893-12.522-27.816-17.43-42.577-10.916-19.065,8.414-11.389,37.655-18.137,53.273a1.63,1.63,0,0,0-.083.259A29.538,29.538,0,0,1,876.752,498.1c-4.3,2.668-9.243,4.034-13.189,7.3a24.53,24.53,0,0,0-7.007,9.653c3.313-.1,12.775-.008,17.982,3.944,5.267,4,7.642,11.918,8.315,14.57.279-.148.555-.3.839-.433a31.085,31.085,0,0,1,8.916-2.16c8.163-1.191,13.152-4.229,18.542-10.425a71.72,71.72,0,0,1,21.99-17.322c7.289-3.8,14.057-7.856,18.212-15.212C958.944,474.577,957.789,456.058,948.208,443.933Z" transform="translate(-847.56 -424.14)"/></g><path class="b" d="M874.858,504.815c-5.207-3.953-14.67-4.045-17.982-3.944a25.807,25.807,0,0,0-1.911,9.767,12.63,12.63,0,0,0,.51,4.213,2.584,2.584,0,0,0,.449.845c.688.795,2.149.368,3.039.22,2.293-.384,4.453-1.244,6.721-1.727a39.629,39.629,0,0,1,7.627-.645,21.306,21.306,0,0,1-4.744,1.657c-1.155.237-3.29-.15-3.964,1.04a1.513,1.513,0,0,0,.1,1.624,8.1,8.1,0,0,0,2.938,1.8c1.324.659,2.632,1.386,3.99,1.974a8.871,8.871,0,0,0,6.883.185,41.3,41.3,0,0,0,4.661-2.439C882.5,516.733,880.125,508.814,874.858,504.815Z" transform="translate(-854.964 -415.946)"/></g></g><g class="d" transform="matrix(1, 0, 0, 1, -4.34, -6)"><path class="b" d="M929.6,226.608c-.988-2.535-4.4-2.672-7.023-3.363-1.978-.521-3.954-1.055-5.9-1.673a35.549,35.549,0,0,1-10.876-5.208,19.559,19.559,0,0,1-4-4.044c-.794-1.091-2.916-.876-2.807.761.6,9.056,11.319,16.141,18.761,19.648,2.316,1.091,6.456,3.623,9.073,2.377,2.263-1.076,3.006-4.448,3.058-6.713A4.591,4.591,0,0,0,929.6,226.608Z" transform="translate(-869.75 -173.18)"/></g></g></g><path class="c" d="M4.671,3.95a6.309,6.309,0,0,0-.744-2.875A2.086,2.086,0,0,0,1.892.006a1.47,1.47,0,0,0-1.3.722,1.829,1.829,0,0,0-.181.28A4.859,4.859,0,0,0,.118,4.084,3.119,3.119,0,0,0,1.35,6.29a2.552,2.552,0,0,0,2.31-.152A2.039,2.039,0,0,0,4.671,3.95Z" transform="matrix(0.985, 0.174, -0.174, 0.985, 3798.171, 2406.883)"/></g></svg>