<svg xmlns="http://www.w3.org/2000/svg" width="23" height="15" viewBox="0 0 23 15"><defs><style>.a{fill:#73926b;}</style></defs><path class="a" d="M463.266-369.432l-.1.07a22.9,22.9,0,0,0-3.637.551,9.55,9.55,0,0,0-3.34,1.269,28.015,28.015,0,0,0-2.84,2.317l-.282.26h0c-.225-.072-.3-.323-.549-.371a.5.5,0,0,0-.46.156l-.011.007c-.04.029-.007.091.033.076a.037.037,0,0,0,.027-.013l0,0a.191.191,0,0,1,.194.017.428.428,0,0,0-.18.086.726.726,0,0,0-.241.293.032.032,0,0,0,0,.039l.006.008h0l.012.008h0l.01,0h.016l.008,0,.009,0,0,0a.617.617,0,0,1,.323-.134c-.214.138-.44.345-.415.6a.046.046,0,0,0,.079.025l0,0a.478.478,0,0,1,.516-.176c-.1.112-.193.226-.28.347a15.6,15.6,0,0,0-.818,1.6c-.333.592-.784,1.113-1.084,1.724a7.325,7.325,0,0,0-.313.752c-.755-1.846-2.726-2.769-4-4.235a9.2,9.2,0,0,1-1.443-3.119,3.542,3.542,0,0,0-1.575-2.038.042.042,0,0,0-.031,0l-.017-.02c-.036-.04-.1.018-.061.058a6.56,6.56,0,0,1,1.34,3.012,23.271,23.271,0,0,0,.678,2.463.31.31,0,0,0-.2-.016.518.518,0,0,0-.229.089.365.365,0,0,0-.079.259.034.034,0,0,0,0,.008.043.043,0,0,0,.084.01c.027-.083.118-.082.2-.067a.485.485,0,0,0-.184.452.043.043,0,0,0,.079.029.391.391,0,0,1,.172-.169.518.518,0,0,0-.079.275.5.5,0,0,0,.182.263.043.043,0,0,0,.063-.006l.006-.008,0,0a.031.031,0,0,0,0-.009.033.033,0,0,0,0-.019.2.2,0,0,1,.314-.208.044.044,0,0,0,.028.009,14.781,14.781,0,0,0,2.9,4.3,7.8,7.8,0,0,1-.8.261c-.848.209-2.977.328-2.676-1.065a.04.04,0,0,0-.019-.044c-.058-.321-.563.093-.674.18a16.789,16.789,0,0,0-1.226,1.251c-.489.471-1.013.913-1.52,1.366-.36.322-.825.65-.852,1.16-.035.019-.029.08.019.077a3.71,3.71,0,0,0,1.342-.414,8.324,8.324,0,0,1,1.631-.637,3.27,3.27,0,0,0,.748-.265,4.729,4.729,0,0,1,.722-.374c.619-.2,1.091.252,1.674.343a2.4,2.4,0,0,0,.716-.042,2.324,2.324,0,0,1,1.088.115,7.11,7.11,0,0,0,1.694.371c1.3.091,2.534-.559,3.824-.368a.034.034,0,0,0,.019.018,11.5,11.5,0,0,0,3.392.832.042.042,0,0,0,.014,0,7.419,7.419,0,0,1,1.762.549,6.291,6.291,0,0,1,1.592.842.042.042,0,0,0,.028.01.039.039,0,0,0,.02.01,2.986,2.986,0,0,0,.874-.114c.177-.015.33-.046.412-.2a.784.784,0,0,0,.363-.167c.042-.034-.019-.092-.061-.058-.15.122-.426.244-.557.043a.763.763,0,0,0,.548-.253c.041-.036-.02-.094-.061-.058-.149.131-.339.29-.553.214a1.147,1.147,0,0,0,.374-.3c.034-.041-.026-.1-.061-.058a1.39,1.39,0,0,1-1.445.354,1.349,1.349,0,0,0,.722-.4.044.044,0,0,0-.009-.063l.017-.012c.043-.034-.018-.092-.061-.058a.6.6,0,0,1-.366.13c.126-.075.255-.146.388-.212.049-.025.006-.1-.043-.071q-.14.07-.276.147a1.5,1.5,0,0,0,.222-.346c.022-.048-.052-.09-.074-.042a1.3,1.3,0,0,1-1.019.777h0c-1.068-.475-2.136-.954-3.174-1.488-.485-.25-.961-.514-1.457-.743a3.1,3.1,0,0,1-1.347-.791,4.18,4.18,0,0,1,.955-3.32,26.967,26.967,0,0,1,2.573-2.841,44.463,44.463,0,0,1,5.691-4.892l.03,0a.043.043,0,0,0,.041-.049l.039-.028C463.353-369.392,463.31-369.464,463.266-369.432Zm-2.2,13.981a1.582,1.582,0,0,1-.777.359c-.067-.017-.133-.035-.2-.054a1.328,1.328,0,0,0,.444-.185.038.038,0,0,0,.033-.005l.079-.05A.7.7,0,0,0,461.065-355.451Z" transform="translate(-440.327 369.44)"/></svg>