<svg xmlns="http://www.w3.org/2000/svg" width="25.989" height="26.097" viewBox="0 0 25.989 26.097"><defs><style>.a{fill:#262626;}.b{fill:#980f08;}</style></defs><path class="a" d="M164.947,312.877A11.841,11.841,0,0,0,150,303.666c-6.94,2.043-12.693,7.428-10.182,15.147,2.107,6.48,8.348,11.87,15.428,10.115C162.126,327.223,166.319,319.679,164.947,312.877Z" transform="translate(-139.217 -303.167)"/><path class="b" d="M144.558,315.294a.338.338,0,0,1-.128-.026.554.554,0,0,1-.276-.442,15.03,15.03,0,0,1-.267-3.493.107.107,0,0,1,.081-.1.1.1,0,0,1,.115.053l.061.115a8.058,8.058,0,0,0,.837,1.346,3.765,3.765,0,0,1,1.159-1.388.958.958,0,0,1,.652-.176,1.047,1.047,0,0,1,.717.646l.055.111a1.717,1.717,0,0,0,.346.519c.272-.383.569-.76.879-1.121a.789.789,0,0,1,.456-.314c.316-.057.561.233.671.488.03.065.053.132.079.2a1.8,1.8,0,0,0,.14.318,2.067,2.067,0,0,1,1.1-.981.766.766,0,0,1,.782.063.8.8,0,0,1,.209.347,4.231,4.231,0,0,1-.251,3.443.1.1,0,0,1-.061.049.093.093,0,0,1-.079-.008,1.418,1.418,0,0,1-.494-.559c-.028-.043-.055-.089-.083-.13-.1-.162-.322-.423-.582-.4a.762.762,0,0,0-.421.251,5.225,5.225,0,0,0-.8.971.1.1,0,0,1-.087.049h0a.1.1,0,0,1-.087-.051,1.752,1.752,0,0,1-.182-.513c-.018-.079-.038-.16-.061-.237-.032-.1-.154-.423-.413-.458a.83.83,0,0,0-.557.282l-1.175,1.06a.242.242,0,0,1-.237.071.233.233,0,0,1-.126-.144l-.387-.973-1.179.944A.694.694,0,0,1,144.558,315.294Z" transform="translate(-134.679 -295.555)"/><path class="b" d="M151.217,307.383c-.294.164-.606.3-.91.442-.456.217-.91.436-1.356.673-.174.093-.345.188-.519.284a.325.325,0,0,0-.162.205.355.355,0,0,0-.038.166c.026,1.256.265,4.247,2.243,3.739.89-.229,1.2-1.155,1.341-1.962a8.441,8.441,0,0,0,.061-3.424.336.336,0,0,0-.371-.253A.759.759,0,0,0,151.217,307.383Z" transform="translate(-130.433 -299.186)"/><path class="b" d="M142.475,307.255a.336.336,0,0,0-.371.253,8.476,8.476,0,0,0,.059,3.424c.14.807.452,1.733,1.343,1.962,1.976.507,2.217-2.484,2.243-3.739a.355.355,0,0,0-.039-.166.313.313,0,0,0-.162-.205c-.172-.1-.344-.192-.517-.284-.446-.237-.9-.456-1.356-.673-.3-.144-.618-.278-.91-.442A.759.759,0,0,0,142.475,307.255Z" transform="translate(-136.552 -299.186)"/></svg>