<svg xmlns="http://www.w3.org/2000/svg" width="40.255" height="40.415" viewBox="0 0 40.255 40.415"><defs><style>.a{fill:#499cb5;}.b,.c{stroke:none;}.c{fill:#fff;}</style></defs><g class="a" transform="translate(-1107.879 -329.36)"><path class="b" d="M 1124.406005859375 368.2750854492188 L 1111.328125 368.2750854492188 L 1109.603515625 368.2750854492188 L 1109.842651367188 366.5671081542969 L 1114.660766601562 332.1520080566406 L 1114.841552734375 330.8599853515625 L 1116.146240234375 330.8599853515625 L 1129.22314453125 330.8599853515625 C 1132.653442382812 330.8599853515625 1135.5771484375 331.3538513183594 1137.912963867188 332.327880859375 C 1140.30224609375 333.3240966796875 1142.215942382812 334.7172241210938 1143.600708007812 336.468505859375 C 1144.977661132812 338.2142944335938 1145.888549804688 340.2728881835938 1146.30908203125 342.5885009765625 C 1146.711791992188 344.8167114257812 1146.739624023438 347.2169799804688 1146.392333984375 349.7239685058594 C 1146.045288085938 352.2252197265625 1145.321044921875 354.6185302734375 1144.239501953125 356.837646484375 C 1143.144775390625 359.0798645019531 1141.650268554688 361.0751953125 1139.796875 362.7691345214844 C 1137.945190429688 364.4630126953125 1135.709594726562 365.8189086914062 1133.152709960938 366.7987060546875 C 1130.601196289062 367.7782592773438 1127.658081054688 368.2750854492188 1124.406005859375 368.2750854492188 Z M 1123.525390625 357.1632690429688 L 1125.536376953125 357.1632690429688 C 1126.63818359375 357.1632690429688 1127.675537109375 356.9626770019531 1128.619384765625 356.5670776367188 C 1129.57568359375 356.1652221679688 1130.442016601562 355.6017150878906 1131.19287109375 354.8927612304688 C 1131.950927734375 354.1768798828125 1132.586181640625 353.3340759277344 1133.080810546875 352.3879089355469 C 1133.571411132812 351.4490661621094 1133.908081054688 350.4128723144531 1134.081298828125 349.3079833984375 C 1134.217651367188 348.2244873046875 1134.176513671875 347.2134704589844 1133.958984375 346.3027038574219 C 1133.746948242188 345.4179077148438 1133.393676757812 344.681396484375 1132.879516601562 344.05224609375 C 1132.360717773438 343.4168395996094 1131.717895507812 342.921875 1130.913696289062 342.5385437011719 C 1130.122192382812 342.1635437011719 1129.172241210938 341.97265625 1128.093505859375 341.97265625 L 1125.66064453125 341.97265625 L 1123.525390625 357.1632690429688 Z"/><path class="c" d="M 1116.146240234375 332.3599853515625 L 1111.328125 366.7750854492188 L 1124.406005859375 366.7750854492188 C 1127.485595703125 366.7750854492188 1130.222900390625 366.3167114257812 1132.615966796875 365.3980102539062 C 1135.00830078125 364.4812622070312 1137.065185546875 363.2350463867188 1138.784912109375 361.6619262695312 C 1140.506103515625 360.0888061523438 1141.875244140625 358.2612915039062 1142.89111328125 356.1804809570312 C 1143.90576171875 354.0985717773438 1144.5791015625 351.8780517578125 1144.906494140625 349.51806640625 C 1145.2333984375 347.1588745117188 1145.20947265625 344.9384155273438 1144.833251953125 342.8565673828125 C 1144.455322265625 340.7756958007812 1143.65234375 338.9561157226562 1142.424072265625 337.3988647460938 C 1141.1943359375 335.8436279296875 1139.49853515625 334.6141357421875 1137.335693359375 333.7123413085938 C 1135.172607421875 332.8103637695312 1132.46923828125 332.3599853515625 1129.22314453125 332.3599853515625 L 1116.146240234375 332.3599853515625 M 1125.536376953125 358.6632690429688 L 1121.7998046875 358.6632690429688 L 1124.356689453125 340.47265625 L 1128.093505859375 340.47265625 C 1129.4033203125 340.47265625 1130.558349609375 340.7103881835938 1131.55908203125 341.1845092773438 C 1132.55810546875 341.6607055664062 1133.384765625 342.2992553710938 1134.041015625 343.10302734375 C 1134.697265625 343.906005859375 1135.15478515625 344.8562622070312 1135.41796875 345.9542236328125 C 1135.68017578125 347.052001953125 1135.72998046875 348.2399291992188 1135.566650390625 349.51806640625 C 1135.36865234375 350.7960815429688 1134.9833984375 351.9859008789062 1134.41015625 353.0828857421875 C 1133.836181640625 354.1807250976562 1133.107421875 355.1478881835938 1132.22265625 355.9834594726562 C 1131.337646484375 356.8190307617188 1130.330078125 357.4752807617188 1129.19921875 357.9505004882812 C 1128.067626953125 358.4247436523438 1126.847412109375 358.6632690429688 1125.536376953125 358.6632690429688 M 1113.536987304688 329.3599853515625 L 1116.146240234375 329.3599853515625 L 1129.22314453125 329.3599853515625 C 1132.852661132812 329.3599853515625 1135.970581054688 329.8927307128906 1138.490356445312 330.9434204101562 C 1141.117431640625 332.0387878417969 1143.232666015625 333.5846862792969 1144.77734375 335.5381469726562 C 1146.308959960938 337.47998046875 1147.320068359375 339.7609558105469 1147.784912109375 342.3204650878906 C 1148.216064453125 344.7062683105469 1148.247314453125 347.2655334472656 1147.878051757812 349.9298400878906 C 1147.50927734375 352.5882263183594 1146.73876953125 355.13330078125 1145.587890625 357.4947814941406 C 1144.40966796875 359.9081726074219 1142.802001953125 362.0546264648438 1140.808837890625 363.8763427734375 C 1138.818237304688 365.697265625 1136.422607421875 367.1520385742188 1133.689453125 368.1993713378906 C 1130.966552734375 369.2447204589844 1127.842529296875 369.7750854492188 1124.406005859375 369.7750854492188 L 1111.328125 369.7750854492188 L 1107.87890625 369.7750854492188 L 1108.357055664062 366.359130859375 L 1113.175170898438 331.9440307617188 L 1113.536987304688 329.3599853515625 Z M 1130.272338867188 343.89453125 C 1129.680297851562 343.6145935058594 1128.947265625 343.47265625 1128.093505859375 343.47265625 L 1126.964477539062 343.47265625 L 1125.2509765625 355.6632690429688 L 1125.536376953125 355.6632690429688 C 1126.450805664062 355.6632690429688 1127.269653320312 355.5063781738281 1128.039672851562 355.1836547851562 C 1128.83935546875 354.8476257324219 1129.534790039062 354.3953552246094 1130.1630859375 353.8020935058594 C 1130.808715820312 353.1924438476562 1131.328369140625 352.50244140625 1131.751586914062 351.6929321289062 C 1132.162963867188 350.9057922363281 1132.446899414062 350.0328979492188 1132.595825195312 349.0982666015625 C 1132.706298828125 348.2029724121094 1132.674072265625 347.3799133300781 1132.5 346.6511535644531 C 1132.342041015625 345.9921569824219 1132.086059570312 345.4517517089844 1131.718139648438 345.00146484375 C 1131.342895507812 344.5419006347656 1130.870239257812 344.1801452636719 1130.272338867188 343.89453125 Z"/></g></svg>