<svg xmlns="http://www.w3.org/2000/svg" width="11.2" height="11.402" viewBox="0 0 11.2 11.402"><defs><style>.a{fill:#fff;}</style></defs><path class="a" d="M1112.924,332.36h4.333a7.014,7.014,0,0,1,2.688.448,4.109,4.109,0,0,1,1.686,1.221,4.033,4.033,0,0,1,.8,1.808,6.98,6.98,0,0,1,.024,2.207,7.293,7.293,0,0,1-.668,2.207,6.015,6.015,0,0,1-1.36,1.816,6.365,6.365,0,0,1-2.044,1.238,7.552,7.552,0,0,1-2.72.456h-4.333Zm2.72,2.688-.847,6.027h1.238a3.107,3.107,0,0,0,1.214-.236,3.322,3.322,0,0,0,1-.652,3.616,3.616,0,0,0,.725-.961,3.784,3.784,0,0,0,.383-1.181,3.27,3.27,0,0,0-.049-1.181,2.276,2.276,0,0,0-1.278-1.58,2.653,2.653,0,0,0-1.148-.236Z" transform="translate(-1111.328 -332.36)"/></svg>