<svg xmlns="http://www.w3.org/2000/svg" width="281.801" height="39.004" viewBox="0 0 281.801 39.004"><defs><style>.a{fill:#fff;stroke:#262626;stroke-width:2px;}.b{fill:#262626;}.c{fill:#980000;}.d{stroke:none;}.e{fill:none;}</style></defs><g transform="translate(-61.199 -61.761)"><g transform="translate(35 23)"><g class="a" transform="translate(70 46)"><rect class="d" width="238" height="25" rx="12.5"/><rect class="e" x="1" y="1" width="236" height="23" rx="11.5"/></g></g><g transform="translate(-1165.233 -66.443)"><path class="b" d="M1245.934,128.2a19.5,19.5,0,1,0,19.5,19.5A19.524,19.524,0,0,0,1245.934,128.2Zm-18.283,19.5a18.275,18.275,0,0,1,33.636-9.908c-3.056-1.807-7.747-2.111-10.631-.274a7.4,7.4,0,0,0-5.774-1.189c-1.972.528-2.845,1.864-3.737,3.569-.822,1.571-1.94,2.081-3.575,2.59a3.338,3.338,0,0,0-1.687.934c-1.188,1.489.045,3,1.409,3.741a2.976,2.976,0,0,1,.067.774c.019.27.034.54.042.81a10.639,10.639,0,0,1-.064,1.6,5.5,5.5,0,0,1-1.164,2.879,8.666,8.666,0,0,0-2.008,4.134,7.551,7.551,0,0,0,.251,3.463,7.768,7.768,0,0,0,.315.834c.087.2.221.647.4.776A18.267,18.267,0,0,1,1227.651,147.706Zm15.151-.278a.3.3,0,0,0,.551.049,4.212,4.212,0,0,1,1.811-.955,1.54,1.54,0,0,1,1.952,1.266.263.263,0,0,0,.28.243.2.2,0,0,0,.192-.039c.967-.739,2.684-1.762,3.732-.619,1.563,1.7.274,5.169-.735,6.864-.5.834-3.876,4.594-4.761,1.259a.362.362,0,0,0-.6-.063A2.143,2.143,0,0,1,1243,156.44a1.818,1.818,0,0,1-1.065-.573,1.65,1.65,0,0,1-.324-.577c-.064-.2-.013-.578-.226-.671-.319-.139-.493.341-.671.53a2.771,2.771,0,0,1-.922.646,2.649,2.649,0,0,1-3.348-1.123.682.682,0,0,0,.118-.086c2.219-2.015,2.2-4.987,1.913-7.758a.687.687,0,0,0-.023-.112A3.264,3.264,0,0,1,1242.8,147.428Z" transform="translate(0)"/><path class="c" d="M1229.432,149.487a18.275,18.275,0,0,1,33.636-9.908c-3.056-1.807-7.747-2.111-10.631-.274a7.394,7.394,0,0,0-5.773-1.189c-1.972.528-2.845,1.864-3.737,3.569-.822,1.571-1.94,2.081-3.575,2.59a3.339,3.339,0,0,0-1.688.934c-1.187,1.489.046,3,1.409,3.741a2.966,2.966,0,0,1,.067.774c.02.27.035.54.042.81a10.639,10.639,0,0,1-.064,1.6,5.5,5.5,0,0,1-1.164,2.879,8.663,8.663,0,0,0-2.008,4.134,7.551,7.551,0,0,0,.251,3.463,7.794,7.794,0,0,0,.315.834c.087.2.221.647.4.776A18.267,18.267,0,0,1,1229.432,149.487Zm15.151-.278a.3.3,0,0,0,.551.049,4.211,4.211,0,0,1,1.811-.955,1.54,1.54,0,0,1,1.952,1.266.263.263,0,0,0,.28.243.2.2,0,0,0,.192-.039c.967-.739,2.684-1.762,3.732-.619,1.563,1.7.273,5.169-.735,6.864-.5.834-3.876,4.594-4.761,1.259a.362.362,0,0,0-.6-.063,2.143,2.143,0,0,1-2.222,1.007,1.818,1.818,0,0,1-1.065-.573,1.652,1.652,0,0,1-.324-.577c-.064-.2-.013-.578-.226-.671-.319-.139-.493.341-.671.53a2.771,2.771,0,0,1-.922.646,2.649,2.649,0,0,1-3.348-1.123.684.684,0,0,0,.118-.086c2.219-2.015,2.2-4.987,1.913-7.758a.675.675,0,0,0-.023-.112A3.264,3.264,0,0,1,1244.583,149.209Z" transform="translate(-1.781 -1.781)"/><path class="c" d="M1294.5,163.889a1.3,1.3,0,0,0-1.34.282,2.438,2.438,0,0,0-.83,2.379,1.236,1.236,0,0,0,2.284.553C1295.2,166.322,1295.7,164.383,1294.5,163.889Z" transform="translate(-39.089 -21.132)"/></g></g></svg>