<svg xmlns="http://www.w3.org/2000/svg" width="10.981" height="11.793" viewBox="0 0 10.981 11.793"><defs><style>.a{fill:#fff;}</style></defs><path class="a" d="M1219.364,331.765a7.151,7.151,0,0,1,1.393.122,6.069,6.069,0,0,1,1.075.309,4.846,4.846,0,0,1,.806.407q.342.22.6.415l-1.792,2.411q-.179-.13-.415-.285a3.933,3.933,0,0,0-1.23-.521,3.592,3.592,0,0,0-.831-.09,3.372,3.372,0,0,0-1.295.244,3.488,3.488,0,0,0-1.059.676,3.705,3.705,0,0,0-.766,1.01,3.892,3.892,0,0,0-.4,1.246,3.827,3.827,0,0,0,.008,1.246,2.461,2.461,0,0,0,.407,1,2.086,2.086,0,0,0,.8.668,2.689,2.689,0,0,0,1.2.244,4.582,4.582,0,0,0,.9-.1l.407-2.883h3.095l-.668,4.756q-1.173.424-2.093.668a7.055,7.055,0,0,1-1.816.244,6.5,6.5,0,0,1-2.476-.44,4.76,4.76,0,0,1-1.775-1.222,4.521,4.521,0,0,1-.994-1.849,5.607,5.607,0,0,1-.114-2.305,6.955,6.955,0,0,1,2.288-4.227,7.158,7.158,0,0,1,4.748-1.751Z" transform="translate(-1212.26 -331.765)"/></svg>