<svg xmlns="http://www.w3.org/2000/svg" width="165.052" height="58.923" viewBox="0 0 165.052 58.923"><defs><style>.a,.c,.g{fill:#fff;}.a{stroke:#f4d110;stroke-width:2px;}.b{fill:#f4d110;stroke:#fff;}.d{fill:#5b9b6c;}.e,.g{stroke:none;}.f{fill:none;}</style></defs><g transform="translate(-104 -293)"><g transform="translate(73 -429)"><g transform="translate(-14.199 665)"><g transform="translate(105 69)"><g class="a"><rect class="e" width="105.251" height="25" rx="12.5"/><rect class="f" x="1" y="1" width="103.251" height="23" rx="11.5"/></g></g></g><g transform="translate(12968 7052) rotate(180)"><g class="b" transform="translate(12892 6274)"><circle class="e" cx="15" cy="15" r="15"/><circle class="f" cx="15" cy="15" r="14.5"/></g><g class="b" transform="translate(12877 6300)"><circle class="e" cx="15" cy="15" r="15"/><circle class="f" cx="15" cy="15" r="14.5"/></g><g class="b" transform="translate(12907 6300)"><circle class="e" cx="15" cy="15" r="15"/><circle class="f" cx="15" cy="15" r="14.5"/></g></g></g><path class="c" d="M1112.924,332.36h4.333a7.014,7.014,0,0,1,2.688.448,4.109,4.109,0,0,1,1.686,1.221,4.033,4.033,0,0,1,.8,1.808,6.98,6.98,0,0,1,.024,2.207,7.293,7.293,0,0,1-.668,2.207,6.015,6.015,0,0,1-1.36,1.816,6.365,6.365,0,0,1-2.044,1.238,7.552,7.552,0,0,1-2.72.456h-4.333Zm2.72,2.688-.847,6.027h1.238a3.107,3.107,0,0,0,1.214-.236,3.322,3.322,0,0,0,1-.652,3.616,3.616,0,0,0,.725-.961,3.784,3.784,0,0,0,.383-1.181,3.27,3.27,0,0,0-.049-1.181,2.276,2.276,0,0,0-1.278-1.58,2.653,2.653,0,0,0-1.148-.236Z" transform="translate(-998.147 -29.821)"/><path class="c" d="M1173,335.266q-.1-.13-.212-.277a2.946,2.946,0,0,0-.244-.277,1.149,1.149,0,0,0-.318-.22.993.993,0,0,0-.432-.09,1.121,1.121,0,0,0-.586.146.653.653,0,0,0-.294.505.773.773,0,0,0,.147.513,2.153,2.153,0,0,0,.554.562q.651.473,1.173.879a4.669,4.669,0,0,1,.863.864,2.808,2.808,0,0,1,.48,1,3.472,3.472,0,0,1,.041,1.295,3.065,3.065,0,0,1-.513,1.328,4.322,4.322,0,0,1-1.042,1.067,5,5,0,0,1-1.4.708,5.088,5.088,0,0,1-1.588.253,3.964,3.964,0,0,1-1.148-.155,3.781,3.781,0,0,1-.928-.416,3.988,3.988,0,0,1-.741-.594,4.606,4.606,0,0,1-.57-.708l2.346-1.938a3.057,3.057,0,0,0,.269.358,3.1,3.1,0,0,0,.334.334,1.715,1.715,0,0,0,.383.252.98.98,0,0,0,.431.1,1.179,1.179,0,0,0,.709-.2.674.674,0,0,0,.3-.473.805.805,0,0,0-.048-.432,1.283,1.283,0,0,0-.22-.342,1.761,1.761,0,0,0-.318-.277q-.179-.122-.342-.252-.554-.424-1.01-.8a4.686,4.686,0,0,1-.766-.782,2.542,2.542,0,0,1-.44-.9,2.928,2.928,0,0,1-.032-1.164,3.718,3.718,0,0,1,.578-1.6,3.774,3.774,0,0,1,1.059-1.059,4.321,4.321,0,0,1,1.336-.578,5.907,5.907,0,0,1,1.425-.179,3.77,3.77,0,0,1,.977.114,3.548,3.548,0,0,1,.782.309,3.59,3.59,0,0,1,.668.472q.309.277.635.619Z" transform="translate(-1021.049 -29.388)"/><g class="d" transform="translate(-1095.953 -18.209)"><path class="e" d="M 1228.535400390625 368.6327514648438 C 1225.551635742188 368.6327514648438 1222.862060546875 368.1513366699219 1220.541381835938 367.2018432617188 C 1218.19189453125 366.2405700683594 1216.215942382812 364.8775024414062 1214.66845703125 363.1505126953125 C 1213.117431640625 361.4197082519531 1212.003784179688 359.3514099121094 1211.358276367188 357.0030822753906 C 1210.720458984375 354.678466796875 1210.5927734375 352.146728515625 1210.978759765625 349.4776306152344 C 1211.361938476562 346.834228515625 1212.199096679688 344.3149719238281 1213.467163085938 341.9892578125 C 1214.734741210938 339.6612243652344 1216.373657226562 337.6080017089844 1218.338134765625 335.8874816894531 C 1220.2978515625 334.1694946289062 1222.600463867188 332.788330078125 1225.181640625 331.7828674316406 C 1227.768920898438 330.775634765625 1230.58984375 330.2650146484375 1233.566528320312 330.2650146484375 C 1235.221557617188 330.2650146484375 1236.7255859375 330.3979187011719 1238.036865234375 330.6600036621094 C 1239.341552734375 330.9206237792969 1240.516235351562 331.2594909667969 1241.528198242188 331.667236328125 C 1242.538940429688 332.0753173828125 1243.436279296875 332.52978515625 1244.196411132812 333.0184020996094 C 1244.906860351562 333.4750061035156 1245.544799804688 333.9146423339844 1246.092651367188 334.3251647949219 L 1247.288452148438 335.2211303710938 L 1246.397094726562 336.4203491210938 L 1241.0234375 343.6502685546875 L 1240.139892578125 344.839111328125 L 1238.940063476562 343.9705505371094 C 1238.609008789062 343.7309265136719 1238.219970703125 343.4640197753906 1237.750610351562 343.1546020507812 C 1237.34326171875 342.8888244628906 1236.863891601562 342.6322631835938 1236.325927734375 342.3919982910156 C 1235.790649414062 342.1528015136719 1235.188720703125 341.9525451660156 1234.536376953125 341.7966003417969 C 1233.902099609375 341.6457824707031 1233.180786132812 341.569091796875 1232.394165039062 341.569091796875 C 1231.196166992188 341.569091796875 1230.081420898438 341.7777099609375 1229.080932617188 342.189208984375 C 1228.067260742188 342.6051330566406 1227.15087890625 343.1900939941406 1226.35595703125 343.9283142089844 C 1225.557983398438 344.6706848144531 1224.889526367188 345.5533447265625 1224.369873046875 346.5509338378906 C 1223.8486328125 347.5489807128906 1223.497802734375 348.6462707519531 1223.326416015625 349.8138732910156 C 1223.156005859375 350.9801025390625 1223.161499023438 352.0731201171875 1223.342651367188 353.0614013671875 C 1223.513793945312 353.9969787597656 1223.839111328125 354.8054809570312 1224.3095703125 355.4649353027344 C 1224.77099609375 356.1141357421875 1225.3701171875 356.6129760742188 1226.142822265625 356.9920959472656 C 1226.9248046875 357.3768920898438 1227.910034179688 357.5715942382812 1229.073120117188 357.5715942382812 C 1229.495727539062 357.5715942382812 1229.948852539062 357.5408325195312 1230.427978515625 357.4797668457031 L 1231.494995117188 349.92333984375 L 1231.677124023438 348.633056640625 L 1232.980224609375 348.633056640625 L 1242.26171875 348.633056640625 L 1243.987060546875 348.633056640625 L 1243.747192382812 350.3415832519531 L 1241.744750976562 364.6046752929688 L 1241.619140625 365.4994506835938 L 1240.769409179688 365.8067321777344 C 1238.396606445312 366.664794921875 1236.242431640625 367.3521728515625 1234.366943359375 367.8497314453125 C 1232.411376953125 368.3692626953125 1230.449096679688 368.6327514648438 1228.535400390625 368.6327514648438 Z"/><path class="g" d="M 1233.566528320312 331.7650146484375 C 1230.765014648438 331.7650146484375 1228.15185546875 332.2362060546875 1225.72607421875 333.1805419921875 C 1223.299438476562 334.1258544921875 1221.165649414062 335.4035034179688 1219.326416015625 337.015869140625 C 1217.485595703125 338.6281127929688 1215.972045898438 340.5255126953125 1214.7841796875 342.7073364257812 C 1213.594604492188 344.8890380859375 1212.821899414062 347.2183837890625 1212.463256835938 349.6923217773438 C 1212.105224609375 352.168212890625 1212.219482421875 354.4730224609375 1212.8046875 356.6055297851562 C 1213.39111328125 358.7390747070312 1214.384887695312 360.58642578125 1215.785522460938 362.1494750976562 C 1217.186157226562 363.7125244140625 1218.96044921875 364.934326171875 1221.109375 365.8135375976562 C 1223.259033203125 366.6930541992188 1225.734130859375 367.1327514648438 1228.535400390625 367.1327514648438 C 1230.325317382812 367.1327514648438 1232.142211914062 366.8887329101562 1233.982299804688 366.39990234375 C 1235.821655273438 365.9119262695312 1237.914428710938 365.2440795898438 1240.25927734375 364.3961181640625 L 1242.26171875 350.133056640625 L 1232.980224609375 350.133056640625 L 1231.759399414062 358.779296875 C 1230.78271484375 358.9751586914062 1229.88671875 359.0715942382812 1229.073120117188 359.0715942382812 C 1227.672485351562 359.0715942382812 1226.475708007812 358.8276977539062 1225.482177734375 358.3387451171875 C 1224.48779296875 357.8508911132812 1223.690307617188 357.1829223632812 1223.08837890625 356.3360595703125 C 1222.48486328125 355.4900512695312 1222.078857421875 354.4887084960938 1221.8671875 353.3318481445312 C 1221.655517578125 352.1770629882812 1221.647338867188 350.9307861328125 1221.84228515625 349.595947265625 C 1222.038452148438 348.2600708007812 1222.435424804688 347.0147094726562 1223.03955078125 345.8580322265625 C 1223.6416015625 344.7020874023438 1224.406860351562 343.69287109375 1225.335205078125 342.8292236328125 C 1226.264038085938 341.966552734375 1227.3212890625 341.2898559570312 1228.510375976562 340.8019409179688 C 1229.698974609375 340.3131103515625 1230.994140625 340.069091796875 1232.394165039062 340.069091796875 C 1233.305786132812 340.069091796875 1234.136108398438 340.1596069335938 1234.885131835938 340.3377075195312 C 1235.6337890625 340.5166625976562 1236.31884765625 340.745849609375 1236.9375 341.0223388671875 C 1237.55615234375 341.298583984375 1238.100952148438 341.591796875 1238.573974609375 341.9007568359375 C 1239.04541015625 342.2115478515625 1239.460815429688 342.4957885742188 1239.819580078125 342.7554931640625 L 1245.193237304688 335.5255737304688 C 1244.671997070312 335.135009765625 1244.069580078125 334.719970703125 1243.385375976562 334.2802124023438 C 1242.701416015625 333.840576171875 1241.895874023438 333.433349609375 1240.967529296875 333.0585327148438 C 1240.039916992188 332.6847534179688 1238.964599609375 332.3749389648438 1237.742919921875 332.1309204101562 C 1236.522338867188 331.886962890625 1235.130493164062 331.7650146484375 1233.566528320312 331.7650146484375 M 1233.566528320312 328.7650146484375 C 1235.319946289062 328.7650146484375 1236.922973632812 328.90771484375 1238.330932617188 329.1891174316406 C 1239.726440429688 329.4678344726562 1240.990844726562 329.8335266113281 1242.088745117188 330.2759399414062 C 1243.187255859375 330.7194519042969 1244.168579101562 331.2173767089844 1245.007568359375 331.756591796875 C 1245.747924804688 332.2324829101562 1246.415649414062 332.6928100585938 1246.9921875 333.124755859375 L 1249.383666992188 334.9167175292969 L 1247.60107421875 337.3151550292969 L 1242.227416992188 344.5450744628906 L 1240.460205078125 346.9226989746094 L 1238.060546875 345.1856384277344 C 1237.747802734375 344.9592895507812 1237.37744140625 344.7052612304688 1236.928344726562 344.4091491699219 C 1236.587646484375 344.1870727539062 1236.17919921875 343.9692077636719 1235.71435546875 343.7616577148438 C 1235.26318359375 343.56005859375 1234.749877929688 343.389892578125 1234.187622070312 343.2554931640625 C 1233.668579101562 343.132080078125 1233.064086914062 343.069091796875 1232.394165039062 343.069091796875 C 1231.378784179688 343.069091796875 1230.481567382812 343.2350463867188 1229.651489257812 343.5764770507812 C 1228.791870117188 343.9291687011719 1228.048583984375 344.4034729003906 1227.376831054688 345.0274047851562 C 1226.69580078125 345.660888671875 1226.146850585938 346.386474609375 1225.700317382812 347.2438354492188 C 1225.25 348.1058959960938 1224.95947265625 349.016845703125 1224.810424804688 350.0317993164062 C 1224.663940429688 351.0347290039062 1224.666381835938 351.9638366699219 1224.817993164062 352.7909545898438 C 1224.951171875 353.5188598632812 1225.184204101562 354.1082763671875 1225.530639648438 354.5938110351562 L 1225.532104492188 354.5959167480469 L 1225.533569335938 354.5980224609375 C 1225.84521484375 355.0364685058594 1226.260620117188 355.3790588378906 1226.803588867188 355.6454162597656 C 1227.379272460938 355.9287414550781 1228.141723632812 356.0715942382812 1229.073120117188 356.0715942382812 C 1229.086059570312 356.0715942382812 1229.098999023438 356.0715637207031 1229.111938476562 356.0715026855469 L 1230.009643554688 349.713623046875 L 1230.3740234375 347.133056640625 L 1232.980224609375 347.133056640625 L 1242.26171875 347.133056640625 L 1245.712280273438 347.133056640625 L 1245.232543945312 350.5501403808594 L 1243.230102539062 364.8132019042969 L 1242.978881835938 366.6027526855469 L 1241.279541015625 367.2173156738281 C 1238.865600585938 368.0902404785156 1236.669311523438 368.7908020019531 1234.751586914062 369.2995910644531 C 1232.6708984375 369.8523559570312 1230.5791015625 370.1327514648438 1228.535400390625 370.1327514648438 C 1225.355834960938 370.1327514648438 1222.475219726562 369.6137390136719 1219.973388671875 368.5901184082031 C 1217.412231445312 367.5422668457031 1215.25146484375 366.0488891601562 1213.55126953125 364.1515502929688 C 1211.843994140625 362.2462158203125 1210.619506835938 359.9748840332031 1209.911987304688 357.400634765625 C 1209.218872070312 354.8751220703125 1209.078491210938 352.1376037597656 1209.494140625 349.262939453125 C 1209.903076171875 346.4421691894531 1210.796630859375 343.7537231445312 1212.150268554688 341.2711791992188 C 1213.502197265625 338.7880859375 1215.251831054688 336.5965576171875 1217.349853515625 334.7590637207031 C 1219.440673828125 332.9261169433594 1221.892822265625 331.4541931152344 1224.637084960938 330.3851623535156 C 1227.39892578125 329.3100280761719 1230.402954101562 328.7650146484375 1233.566528320312 328.7650146484375 Z"/></g></g></svg>