<svg xmlns="http://www.w3.org/2000/svg" width="56.299" height="20.256" viewBox="0 0 56.299 20.256"><defs><style>.a{fill:#3fa43f;}.b{fill:#7c411e;}.c{fill:#ebe59f;}</style></defs><path class="a" d="M30.872,215.624a2.086,2.086,0,0,0-2.087,2.087v5.6a4.582,4.582,0,0,0,3.35,3.6,4.453,4.453,0,0,0,4.541-1.73c1.033-1.445,1.349-3.625,2.977-4.282,1.734-.7,3.518.933,4.473,2.573s1.813,3.619,3.584,4.223c2.058.7,4.2-.889,5.475-2.677s2.22-3.934,4.017-5.171a3.418,3.418,0,0,1,1.81-.665c2.012-.053,3.234,2.205,3.914,4.146s1.666,4.239,3.663,4.488c1.441.18,2.754-.858,3.676-2a15.279,15.279,0,0,1,2.872-3.313,4.766,4.766,0,0,1,6.435,1.261c.985,1.469,1.195,3.52,2.6,4.569a3.119,3.119,0,0,0,1.994.584v-11.2a2.087,2.087,0,0,0-2.087-2.087Z" transform="translate(-28.325 -215.164)"/><path class="b" d="M84.249,229.58a3.538,3.538,0,0,1-2.143-.676,6.28,6.28,0,0,1-1.841-2.89,9.854,9.854,0,0,0-.865-1.791,4.2,4.2,0,0,0-2.71-1.727,4.108,4.108,0,0,0-3.085.589,9.028,9.028,0,0,0-2.025,2.226c-.245.339-.49.674-.749,1-1.265,1.572-2.73,2.347-4.088,2.172-2.18-.272-3.266-2.575-4.042-4.793-.615-1.756-1.7-3.838-3.413-3.838l-.055,0a2.911,2.911,0,0,0-1.559.585,11.05,11.05,0,0,0-2.853,3.455c-.341.543-.681,1.088-1.049,1.6-1.3,1.811-3.648,3.639-6,2.844-1.681-.574-2.607-2.237-3.424-3.7-.136-.245-.271-.488-.409-.723-.692-1.187-2.292-3.028-3.9-2.378-.9.363-1.357,1.347-1.839,2.391a10.692,10.692,0,0,1-.935,1.732,4.916,4.916,0,0,1-5.024,1.909,5.06,5.06,0,0,1-3.7-3.961l-.007-5.683a2.548,2.548,0,0,1,2.546-2.546H82.287a2.549,2.549,0,0,1,2.548,2.546v11.643l-.445.015C84.343,229.58,84.295,229.58,84.249,229.58Zm-8.4-8.083a5.41,5.41,0,0,1,1.011.1,5.124,5.124,0,0,1,3.3,2.117,10.652,10.652,0,0,1,.954,1.96,5.526,5.526,0,0,0,1.539,2.5,2.532,2.532,0,0,0,1.257.477V217.92a1.629,1.629,0,0,0-1.627-1.625H31.081a1.627,1.627,0,0,0-1.625,1.625v5.6a4.111,4.111,0,0,0,2.995,3.148,3.98,3.98,0,0,0,4.063-1.55,10.262,10.262,0,0,0,.85-1.583c.536-1.16,1.09-2.36,2.327-2.859,1.92-.771,3.915.834,5.044,2.769.14.241.278.49.418.74.773,1.386,1.572,2.82,2.916,3.279,1.872.639,3.838-.952,4.954-2.507.359-.5.688-1.029,1.02-1.557a11.886,11.886,0,0,1,3.111-3.726,3.812,3.812,0,0,1,2.058-.746c1.844-.024,3.321,1.493,4.359,4.453.683,1.951,1.607,3.974,3.288,4.184,1.4.182,2.645-1.075,3.258-1.835.249-.311.486-.635.722-.961a9.88,9.88,0,0,1,2.248-2.445A4.879,4.879,0,0,1,75.853,221.5Z" transform="translate(-28.535 -215.374)"/><g transform="translate(0 3.554)"><path class="c" d="M82.17,226.7c-1.4-1.049-1.614-3.1-2.6-4.569a4.766,4.766,0,0,0-6.435-1.261,15.28,15.28,0,0,0-2.872,3.313c-.922,1.147-2.235,2.185-3.676,2-2-.249-2.984-2.549-3.663-4.488s-1.9-4.2-3.914-4.146a3.418,3.418,0,0,0-1.81.665c-1.8,1.237-2.735,3.383-4.017,5.171s-3.417,3.378-5.475,2.677c-1.771-.6-2.629-2.583-3.584-4.223s-2.739-3.273-4.473-2.573c-1.627.657-1.944,2.837-2.977,4.282a4.453,4.453,0,0,1-4.541,1.73,4.582,4.582,0,0,1-3.35-3.6v8.519a3.13,3.13,0,0,0,3.131,3.129H81.033a3.131,3.131,0,0,0,3.131-3.129v-2.923A3.119,3.119,0,0,1,82.17,226.7Z" transform="translate(-28.325 -217.095)"/><path class="b" d="M81.243,234.007H32.126a3.6,3.6,0,0,1-3.591-3.59V221.9l.913-.081a4.118,4.118,0,0,0,3,3.229,3.98,3.98,0,0,0,4.063-1.55,10.262,10.262,0,0,0,.85-1.583c.536-1.16,1.09-2.36,2.327-2.859,1.92-.771,3.915.834,5.044,2.769.14.241.278.49.418.74.773,1.386,1.572,2.82,2.916,3.278,1.872.639,3.838-.952,4.954-2.507.359-.5.688-1.029,1.02-1.557a11.886,11.886,0,0,1,3.111-3.726,3.813,3.813,0,0,1,2.058-.746c1.844-.024,3.321,1.493,4.359,4.453.683,1.951,1.607,3.974,3.288,4.184,1.4.182,2.645-1.075,3.258-1.835.249-.311.486-.635.722-.961a9.88,9.88,0,0,1,2.248-2.445,5.016,5.016,0,0,1,3.779-.733,5.124,5.124,0,0,1,3.3,2.117,10.651,10.651,0,0,1,.954,1.96,5.526,5.526,0,0,0,1.539,2.5,2.569,2.569,0,0,0,1.7.491l.477-.015v3.4A3.6,3.6,0,0,1,81.243,234.007Zm-51.787-9.944v6.354a2.673,2.673,0,0,0,2.671,2.669H81.243a2.673,2.673,0,0,0,2.671-2.669v-2.474a3.466,3.466,0,0,1-1.808-.663h0a6.292,6.292,0,0,1-1.839-2.89A9.854,9.854,0,0,0,79.4,222.6a4.2,4.2,0,0,0-2.71-1.727,4.108,4.108,0,0,0-3.085.589,9.029,9.029,0,0,0-2.025,2.226c-.245.339-.49.674-.749,1-1.265,1.572-2.73,2.347-4.088,2.172-2.18-.272-3.266-2.575-4.042-4.793-.615-1.756-1.7-3.838-3.413-3.838l-.055,0a2.911,2.911,0,0,0-1.559.585,11.05,11.05,0,0,0-2.853,3.455c-.341.543-.681,1.088-1.049,1.6-1.3,1.811-3.648,3.639-6,2.844-1.681-.574-2.607-2.237-3.424-3.7-.136-.245-.271-.488-.409-.723-.692-1.187-2.292-3.028-3.9-2.378-.9.363-1.357,1.347-1.839,2.391a10.6,10.6,0,0,1-.935,1.73,4.775,4.775,0,0,1-7.807.033Z" transform="translate(-28.535 -217.305)"/></g></svg>