<svg xmlns="http://www.w3.org/2000/svg" width="160.942" height="129.792" viewBox="0 0 160.942 129.792"><defs><style>.a{fill:#3fa43f;}.b{fill:#7c411e;}.c{fill:#ebe59f;}</style></defs><path class="a" d="M62.227,201.433a4.472,4.472,0,0,0,4.556-1.729c1.036-1.447,1.353-3.626,2.986-4.284,1.74-.7,3.527.933,4.486,2.573s1.819,3.619,3.593,4.221c2.064.7,4.206-.887,5.491-2.677s2.226-3.934,4.028-5.169a3.423,3.423,0,0,1,1.815-.666c2.018-.053,3.243,2.205,3.925,4.144s1.671,4.239,3.674,4.49c1.443.18,2.761-.86,3.685-2a15.309,15.309,0,0,1,2.879-3.313,4.788,4.788,0,0,1,6.456,1.259c.987,1.469,1.2,3.52,2.607,4.569a3.618,3.618,0,0,0,3.98-.015,6.925,6.925,0,0,0,2.566-3.324,8.143,8.143,0,0,1,1.786-3.284c1.605-1.37,4.173-.609,5.637.922s2.2,3.617,3.24,5.471,2.669,3.645,4.758,3.776a4.969,4.969,0,0,0,4.249-2.38,10.473,10.473,0,0,0,1.478-4.891c.1-1.151.184-2.454,1.055-3.188,1.574-1.331,3.82.39,5.143,1.983,1.635,1.962,3.369,3.978,5.7,4.97s5.421.613,6.805-1.535c.5-.779.735-1.706,1.206-2.5a4.818,4.818,0,0,1,7.562-.563,25.267,25.267,0,0,1,1.859,3.49c.659,1.145,1.83,2.187,3.113,1.977a3.828,3.828,0,0,0,1.916-1.171c1.686-1.616,2.262-5.482,4.657-6.242a3.7,3.7,0,0,1,3.7,1.377c.942,1.044,1.565,2.349,2.472,3.424a8.047,8.047,0,0,0,6.61,2.818,3.965,3.965,0,0,0,2.231-.747c1.213-.97,1.37-2.737,1.7-4.274s1.305-3.278,2.846-3.216c1.263.053,2.113,1.3,2.748,2.415a18.916,18.916,0,0,0,1.795,2.77,8.83,8.83,0,0,0,13.576.1c1.005-1.176,1.633-4.269,2.093-6.417v-5.239a3.482,3.482,0,0,0-3.481-3.481H62.35a3.481,3.481,0,0,0-3.481,3.481v8.488A4.588,4.588,0,0,0,62.227,201.433Z" transform="translate(-58.409 -185.413)"/><path class="b" d="M134.817,207.067c-.088,0-.175,0-.261-.007-2.6-.16-4.33-2.579-5.132-4.007-.313-.558-.6-1.136-.884-1.714a14.284,14.284,0,0,0-2.286-3.665c-1.307-1.368-3.591-2.1-5.007-.891a5.738,5.738,0,0,0-1.386,2.419c-.09.232-.179.464-.272.692a7.283,7.283,0,0,1-2.75,3.54,4.042,4.042,0,0,1-4.5-.007,6.291,6.291,0,0,1-1.846-2.89,9.739,9.739,0,0,0-.867-1.791,4.2,4.2,0,0,0-2.713-1.725,4.128,4.128,0,0,0-3.1.587,8.974,8.974,0,0,0-2.032,2.231c-.245.335-.491.67-.749.992-1.27,1.572-2.73,2.343-4.1,2.172-2.183-.272-3.273-2.575-4.052-4.793-.619-1.756-1.71-3.838-3.422-3.838H89.4a2.952,2.952,0,0,0-1.567.587,11.037,11.037,0,0,0-2.861,3.453c-.342.545-.685,1.09-1.055,1.605-1.3,1.811-3.652,3.647-6.012,2.844-1.684-.573-2.612-2.235-3.433-3.7q-.2-.37-.41-.727c-.7-1.189-2.3-3.028-3.917-2.378-.9.363-1.359,1.349-1.844,2.391a10.692,10.692,0,0,1-.937,1.732,4.943,4.943,0,0,1-5.036,1.909h0a5.058,5.058,0,0,1-3.706-3.96l-.007-8.567a3.945,3.945,0,0,1,3.941-3.941H215.62a3.946,3.946,0,0,1,3.941,3.941V194.8l-.07.372c-.486,2.284-1.093,5.13-2.132,6.345a9.293,9.293,0,0,1-14.283-.107,19.071,19.071,0,0,1-1.8-2.763c-.644-1.13-1.4-2.215-2.41-2.255-1.417-.064-2.143,1.765-2.376,2.851-.05.232-.1.469-.144.711-.263,1.359-.561,2.9-1.719,3.825a4.354,4.354,0,0,1-2.489.849,8.536,8.536,0,0,1-6.993-2.982,16.638,16.638,0,0,1-1.187-1.662,13.983,13.983,0,0,0-1.274-1.749c-.746-.825-2.036-1.642-3.216-1.25-1.263.4-2,1.9-2.719,3.345a10.1,10.1,0,0,1-1.767,2.794,4.24,4.24,0,0,1-2.159,1.292c-1.568.256-2.879-.97-3.588-2.2-.26-.451-.477-.93-.694-1.408a9.116,9.116,0,0,0-1.123-2.023,4.06,4.06,0,0,0-3.52-1.39,4.112,4.112,0,0,0-3.29,1.9,9.167,9.167,0,0,0-.53,1.123,8.869,8.869,0,0,1-.685,1.393c-1.592,2.472-4.989,2.728-7.372,1.71-2.33-.992-4.039-2.9-5.87-5.1-.865-1.038-2.2-2.183-3.347-2.283a1.459,1.459,0,0,0-1.147.357,3.98,3.98,0,0,0-.88,2.732l-.013.147a10.668,10.668,0,0,1-1.555,5.1A5.44,5.44,0,0,1,134.817,207.067ZM122.974,195.26a5.711,5.711,0,0,1,3.945,1.776,15.126,15.126,0,0,1,2.445,3.893c.28.565.558,1.128.863,1.671.711,1.265,2.227,3.406,4.387,3.54a4.589,4.589,0,0,0,3.834-2.174,9.849,9.849,0,0,0,1.4-4.679l.013-.145c.1-1.184.225-2.526,1.2-3.352a2.409,2.409,0,0,1,1.822-.574c1.751.153,3.361,1.878,3.972,2.612,1.756,2.11,3.383,3.93,5.524,4.843,2.067.882,4.965.613,6.238-1.362a8.292,8.292,0,0,0,.609-1.25,9.8,9.8,0,0,1,.587-1.237,5.275,5.275,0,0,1,8.315-.619,9.9,9.9,0,0,1,1.248,2.222c.2.451.407.9.653,1.329.528.92,1.544,1.927,2.64,1.752a3.462,3.462,0,0,0,1.671-1.049,9.372,9.372,0,0,0,1.579-2.537c.8-1.622,1.629-3.3,3.256-3.812,1.594-.539,3.209.425,4.186,1.508a14.871,14.871,0,0,1,1.362,1.863,15.879,15.879,0,0,0,1.119,1.572,7.6,7.6,0,0,0,6.226,2.656,3.476,3.476,0,0,0,1.977-.648c.895-.716,1.147-2.021,1.392-3.282.048-.247.1-.491.147-.729.359-1.668,1.412-3.58,3.207-3.58l.107,0c1.465.061,2.4,1.371,3.129,2.645a18.769,18.769,0,0,0,1.749,2.7,8.534,8.534,0,0,0,6.419,3.069h.059a8.521,8.521,0,0,0,6.4-2.969c.885-1.038,1.515-3.989,1.931-5.942l.059-.274-.009-5.139a3.025,3.025,0,0,0-3.021-3.021H62.56a3.024,3.024,0,0,0-3.021,3.021v8.486a4.114,4.114,0,0,0,3,3.146h0a3.992,3.992,0,0,0,4.077-1.55,9.885,9.885,0,0,0,.852-1.583c.538-1.16,1.1-2.358,2.336-2.859,1.927-.771,3.925.834,5.053,2.769.142.241.282.49.422.74.775,1.386,1.576,2.818,2.925,3.277,1.879.641,3.851-.95,4.968-2.509.359-.5.69-1.029,1.023-1.557a11.948,11.948,0,0,1,3.118-3.724,3.853,3.853,0,0,1,2.064-.747h.081c1.782,0,3.264,1.537,4.289,4.453.685,1.951,1.613,3.976,3.3,4.186,1.423.19,2.656-1.075,3.269-1.837.25-.309.486-.633.723-.957a9.817,9.817,0,0,1,2.255-2.446,5.055,5.055,0,0,1,3.792-.733,5.132,5.132,0,0,1,3.3,2.115,10.538,10.538,0,0,1,.957,1.959,5.522,5.522,0,0,0,1.543,2.5,3.16,3.16,0,0,0,3.463-.039,6.372,6.372,0,0,0,2.384-3.109c.09-.219.177-.444.263-.67a6.518,6.518,0,0,1,1.648-2.787A3.513,3.513,0,0,1,122.974,195.26Z" transform="translate(-58.619 -185.622)"/><g transform="translate(0 4.83)"><path class="c" d="M216.8,197.431a8.83,8.83,0,0,1-13.576-.1,18.916,18.916,0,0,1-1.795-2.77c-.635-1.116-1.486-2.362-2.748-2.415-1.541-.063-2.515,1.681-2.846,3.216s-.488,3.3-1.7,4.274a3.965,3.965,0,0,1-2.231.747,8.047,8.047,0,0,1-6.61-2.818c-.908-1.075-1.53-2.38-2.472-3.424a3.7,3.7,0,0,0-3.7-1.377c-2.395.76-2.971,4.626-4.657,6.242a3.828,3.828,0,0,1-1.916,1.171c-1.283.21-2.454-.832-3.113-1.977a25.267,25.267,0,0,0-1.859-3.49,4.818,4.818,0,0,0-7.562.563c-.471.8-.705,1.725-1.206,2.5-1.384,2.148-4.477,2.527-6.805,1.535s-4.063-3.008-5.7-4.97c-1.324-1.592-3.569-3.313-5.143-1.983-.871.734-.952,2.038-1.055,3.188a10.473,10.473,0,0,1-1.478,4.891,4.969,4.969,0,0,1-4.249,2.38c-2.089-.131-3.715-1.92-4.758-3.776s-1.776-3.939-3.24-5.471-4.031-2.292-5.637-.922a8.143,8.143,0,0,0-1.786,3.284,6.925,6.925,0,0,1-2.566,3.324,3.618,3.618,0,0,1-3.98.015c-1.41-1.049-1.62-3.1-2.607-4.569a4.788,4.788,0,0,0-6.456-1.259,15.309,15.309,0,0,0-2.879,3.313c-.924,1.145-2.242,2.185-3.685,2-2-.25-2.995-2.549-3.674-4.49s-1.907-4.2-3.925-4.144a3.423,3.423,0,0,0-1.815.666c-1.8,1.235-2.743,3.382-4.028,5.169s-3.428,3.378-5.491,2.677c-1.775-.6-2.636-2.581-3.593-4.221s-2.746-3.273-4.486-2.573c-1.633.657-1.949,2.837-2.986,4.284a4.472,4.472,0,0,1-4.556,1.729,4.588,4.588,0,0,1-3.358-3.593V307.688a3.481,3.481,0,0,0,3.481,3.481H215.409a3.482,3.482,0,0,0,3.481-3.481V191.014C218.43,193.162,217.8,196.254,216.8,197.431Z" transform="translate(-58.409 -186.666)"/><path class="b" d="M215.62,313.207H62.56a3.945,3.945,0,0,1-3.941-3.941V195.843l.913-.081a4.121,4.121,0,0,0,3.01,3.227,3.992,3.992,0,0,0,4.077-1.55,9.806,9.806,0,0,0,.852-1.583c.538-1.16,1.1-2.358,2.336-2.859,1.927-.771,3.925.834,5.053,2.769.142.241.282.49.422.74.775,1.386,1.576,2.818,2.925,3.277,1.879.641,3.851-.95,4.968-2.509.359-.5.69-1.029,1.023-1.557a11.948,11.948,0,0,1,3.118-3.724,3.853,3.853,0,0,1,2.064-.747c1.848-.059,3.33,1.5,4.37,4.453.685,1.951,1.613,3.976,3.3,4.186,1.423.19,2.656-1.075,3.269-1.837.25-.309.486-.633.723-.957a9.784,9.784,0,0,1,2.255-2.446,5.054,5.054,0,0,1,3.792-.733,5.132,5.132,0,0,1,3.3,2.115,10.538,10.538,0,0,1,.957,1.959,5.522,5.522,0,0,0,1.543,2.5,3.159,3.159,0,0,0,3.463-.039,6.372,6.372,0,0,0,2.384-3.109c.09-.219.177-.444.263-.67a6.518,6.518,0,0,1,1.648-2.787c1.824-1.554,4.672-.716,6.27.954a15.126,15.126,0,0,1,2.445,3.893c.28.565.558,1.128.863,1.671.711,1.265,2.227,3.406,4.387,3.54a4.589,4.589,0,0,0,3.834-2.174,9.849,9.849,0,0,0,1.4-4.679l.013-.145c.1-1.184.225-2.526,1.2-3.352a2.409,2.409,0,0,1,1.822-.574c1.751.153,3.361,1.878,3.972,2.612,1.756,2.11,3.383,3.93,5.524,4.843,2.067.882,4.965.613,6.238-1.362a8.291,8.291,0,0,0,.609-1.25,9.8,9.8,0,0,1,.587-1.237,5.276,5.276,0,0,1,8.315-.619,9.9,9.9,0,0,1,1.248,2.222c.2.451.407.9.653,1.329.528.92,1.544,1.927,2.64,1.752a3.463,3.463,0,0,0,1.671-1.049,9.372,9.372,0,0,0,1.579-2.537c.8-1.622,1.629-3.3,3.256-3.812,1.594-.539,3.209.425,4.186,1.508a14.869,14.869,0,0,1,1.362,1.863,15.876,15.876,0,0,0,1.119,1.572,7.581,7.581,0,0,0,6.226,2.656,3.476,3.476,0,0,0,1.977-.648c.895-.716,1.147-2.021,1.392-3.282.048-.247.1-.491.147-.729.359-1.668,1.412-3.58,3.207-3.58l.107,0c1.465.061,2.4,1.371,3.129,2.645a18.769,18.769,0,0,0,1.749,2.7,8.534,8.534,0,0,0,6.419,3.069h.059a8.521,8.521,0,0,0,6.4-2.969c.885-1.038,1.515-3.989,1.931-5.942l.97-4.525v121.02A3.946,3.946,0,0,1,215.62,313.207ZM59.539,198V309.266a3.024,3.024,0,0,0,3.021,3.021H215.62a3.025,3.025,0,0,0,3.021-3.021V196.509a8.094,8.094,0,0,1-1.281,2.8h0a9.293,9.293,0,0,1-14.283-.107,19.073,19.073,0,0,1-1.8-2.763c-.644-1.13-1.4-2.215-2.41-2.255-1.417-.064-2.143,1.765-2.376,2.851-.05.232-.1.469-.144.711-.263,1.359-.561,2.9-1.719,3.825a4.354,4.354,0,0,1-2.489.849,8.536,8.536,0,0,1-6.993-2.982,16.642,16.642,0,0,1-1.187-1.662,13.982,13.982,0,0,0-1.274-1.749c-.746-.825-2.036-1.642-3.216-1.25-1.263.4-2,1.9-2.719,3.345a10.1,10.1,0,0,1-1.767,2.794,4.24,4.24,0,0,1-2.159,1.292c-1.568.256-2.879-.97-3.588-2.2-.26-.451-.477-.93-.694-1.408a9.115,9.115,0,0,0-1.123-2.023,4.06,4.06,0,0,0-3.52-1.39,4.112,4.112,0,0,0-3.29,1.9,9.168,9.168,0,0,0-.53,1.123,8.869,8.869,0,0,1-.685,1.393c-1.592,2.472-4.989,2.728-7.372,1.71-2.33-.992-4.039-2.9-5.87-5.1-.865-1.038-2.2-2.183-3.347-2.283a1.459,1.459,0,0,0-1.147.357,3.98,3.98,0,0,0-.88,2.732l-.013.147a10.668,10.668,0,0,1-1.555,5.1,5.373,5.373,0,0,1-4.657,2.585c-2.6-.16-4.33-2.579-5.132-4.007-.313-.558-.6-1.136-.884-1.714a14.283,14.283,0,0,0-2.286-3.665c-1.307-1.368-3.591-2.1-5.007-.891A5.739,5.739,0,0,0,119.861,197c-.09.232-.179.464-.272.692a7.284,7.284,0,0,1-2.75,3.54,4.042,4.042,0,0,1-4.5-.007,6.292,6.292,0,0,1-1.846-2.89,9.74,9.74,0,0,0-.867-1.791,4.2,4.2,0,0,0-2.713-1.725,4.128,4.128,0,0,0-3.1.587,8.975,8.975,0,0,0-2.032,2.231c-.245.335-.491.67-.749.992-1.27,1.572-2.73,2.343-4.1,2.172-2.183-.272-3.273-2.575-4.052-4.793-.619-1.756-1.71-3.838-3.422-3.838H89.4a2.952,2.952,0,0,0-1.567.587,11.037,11.037,0,0,0-2.861,3.453c-.342.545-.685,1.09-1.055,1.605-1.3,1.811-3.652,3.647-6.012,2.844-1.684-.573-2.612-2.235-3.433-3.7q-.2-.37-.41-.727c-.7-1.189-2.3-3.028-3.917-2.378-.9.363-1.359,1.349-1.844,2.391a10.691,10.691,0,0,1-.937,1.732,4.8,4.8,0,0,1-7.829.029Z" transform="translate(-58.619 -188.246)"/></g></svg>