<svg xmlns="http://www.w3.org/2000/svg" width="254.948" height="20.26" viewBox="0 0 254.948 20.26"><defs><style>.a{fill:#3fa43f;}.b{fill:#7c411e;}.c{fill:#ebe59f;}</style></defs><path class="a" d="M67.742,326.468a2.087,2.087,0,0,0-2.087,2.087v5.366a4.585,4.585,0,0,0,3.348,3.6,4.454,4.454,0,0,0,4.543-1.73c1.033-1.445,1.349-3.625,2.977-4.282,1.734-.7,3.518.933,4.473,2.573s1.813,3.619,3.584,4.221c2.058.7,4.2-.887,5.475-2.675s2.218-3.934,4.017-5.171a3.421,3.421,0,0,1,1.81-.666c2.012-.051,3.234,2.207,3.914,4.146s1.666,4.239,3.663,4.49c1.44.18,2.754-.86,3.674-2A15.379,15.379,0,0,1,110,333.1a4.768,4.768,0,0,1,6.437,1.261c.985,1.469,1.195,3.518,2.6,4.569a3.6,3.6,0,0,0,3.969-.015,6.9,6.9,0,0,0,2.559-3.324c.639-1.543,1.044-3.332,2.916-3.9a4.2,4.2,0,0,1,3.7.823c2.016,1.546,2.807,4.02,4.02,6.183,1.04,1.856,2.662,3.645,4.746,3.776a4.955,4.955,0,0,0,4.236-2.378,10.517,10.517,0,0,0,1.473-4.893c.1-1.149.184-2.452,1.053-3.188,1.568-1.329,3.807.392,5.128,1.983,1.629,1.964,3.359,3.98,5.681,4.972s5.406.613,6.785-1.535c1.224-1.905.856-4.711,6.259-4.289a3.536,3.536,0,0,1,2.511,1.255,26.541,26.541,0,0,1,1.828,3.459c.657,1.145,1.826,2.187,3.105,1.979a3.836,3.836,0,0,0,1.911-1.173c1.681-1.614,2.255-5.482,4.643-6.24a3.681,3.681,0,0,1,3.694,1.377c.939,1.044,1.561,2.349,2.465,3.424a8.01,8.01,0,0,0,6.59,2.818,3.958,3.958,0,0,0,2.227-.747c1.208-.97,1.364-2.737,1.7-4.273s1.3-3.28,2.837-3.216c1.257.053,2.106,1.3,2.741,2.413A18.8,18.8,0,0,0,209.6,337a8.071,8.071,0,0,0,6.389,3.039c1.668.394,4.648-2.84,5.657-4.254,1.033-1.445,1.349-3.625,2.977-4.282,1.734-.7,3.518.933,4.473,2.573s1.815,3.619,3.584,4.221c2.058.7,4.2-.887,5.476-2.675s2.218-3.934,4.015-5.171a3.421,3.421,0,0,1,1.809-.666c2.012-.051,3.234,2.207,3.914,4.146s1.666,4.239,3.665,4.49c1.439.18,2.752-.86,3.674-2A15.328,15.328,0,0,1,258.1,333.1a4.766,4.766,0,0,1,6.435,1.261c.985,1.469,1.195,3.518,2.6,4.569a3.6,3.6,0,0,0,3.969-.015,6.905,6.905,0,0,0,2.559-3.324c.639-1.543,1.046-3.334,2.918-3.9a4.2,4.2,0,0,1,3.694.823c2.016,1.546,2.807,4.02,4.02,6.183,1.04,1.856,2.662,3.645,4.746,3.776a4.953,4.953,0,0,0,4.236-2.378,10.5,10.5,0,0,0,1.473-4.893c.1-1.149.184-2.452,1.053-3.188,1.568-1.329,3.809.392,5.128,1.983,1.629,1.964,3.361,3.98,5.683,4.972s5.4.613,6.785-1.535c.5-.777.733-1.7,1.2-2.5a4.746,4.746,0,0,1,5.081-2v-4.385a2.088,2.088,0,0,0-2.087-2.087Z" transform="translate(-65.195 -326.008)"/><path class="b" d="M141.386,343.159c-.087,0-.173,0-.258-.007-2.59-.164-4.319-2.583-5.119-4.011-.313-.556-.6-1.136-.885-1.714a11.44,11.44,0,0,0-3.015-4.33,3.719,3.719,0,0,0-3.282-.746c-1.384.414-1.854,1.64-2.351,2.938-.09.232-.179.464-.272.69a7.263,7.263,0,0,1-2.741,3.542,4.023,4.023,0,0,1-4.486-.009,6.265,6.265,0,0,1-1.843-2.89,9.848,9.848,0,0,0-.863-1.791,4.2,4.2,0,0,0-2.708-1.725,4.14,4.14,0,0,0-3.087.587,8.993,8.993,0,0,0-2.023,2.227c-.247.337-.491.674-.751.994-1.265,1.574-2.724,2.356-4.088,2.174-2.18-.272-3.267-2.575-4.042-4.793-.615-1.758-1.7-3.838-3.413-3.838H96.1a2.942,2.942,0,0,0-1.561.585,11.034,11.034,0,0,0-2.85,3.453c-.342.545-.685,1.09-1.055,1.605-1.3,1.813-3.648,3.645-6,2.844-1.681-.574-2.607-2.235-3.422-3.7-.138-.247-.272-.491-.41-.725-.692-1.187-2.3-3.013-3.9-2.378-.9.363-1.355,1.347-1.839,2.389a10.777,10.777,0,0,1-.935,1.734,4.922,4.922,0,0,1-5.024,1.909,5.052,5.052,0,0,1-3.7-3.961l-.007-5.445a2.55,2.55,0,0,1,2.548-2.549H317.805a2.551,2.551,0,0,1,2.548,2.549v4.952l-.556-.12a4.27,4.27,0,0,0-4.589,1.784,9.574,9.574,0,0,0-.528,1.123A8.775,8.775,0,0,1,314,337.9c-1.589,2.474-4.97,2.73-7.352,1.712-2.515-1.073-4.368-3.306-5.856-5.1-.863-1.038-2.192-2.185-3.337-2.284a1.484,1.484,0,0,0-1.14.359,3.988,3.988,0,0,0-.88,2.734l-.013.144a10.717,10.717,0,0,1-1.546,5.106,5.475,5.475,0,0,1-4.648,2.584c-2.59-.164-4.319-2.583-5.119-4.011-.313-.556-.6-1.136-.884-1.712a11.446,11.446,0,0,0-3.015-4.331,3.718,3.718,0,0,0-3.282-.746c-1.384.414-1.854,1.638-2.351,2.936-.09.232-.179.464-.274.692a7.258,7.258,0,0,1-2.741,3.542,4.023,4.023,0,0,1-4.486-.009,6.28,6.28,0,0,1-1.843-2.89,9.729,9.729,0,0,0-.863-1.791,4.2,4.2,0,0,0-2.706-1.725,4.138,4.138,0,0,0-3.089.587,8.993,8.993,0,0,0-2.023,2.227c-.247.337-.492.674-.751.994-1.265,1.574-2.721,2.356-4.088,2.174-2.178-.272-3.266-2.575-4.042-4.793-.615-1.758-1.7-3.838-3.413-3.838H244.2a2.947,2.947,0,0,0-1.561.585,11.033,11.033,0,0,0-2.85,3.453c-.342.545-.685,1.09-1.055,1.605-1.3,1.813-3.649,3.645-6,2.844-1.681-.574-2.607-2.235-3.426-3.7-.134-.245-.271-.49-.409-.723-.692-1.187-2.284-3.013-3.9-2.378-.9.363-1.353,1.347-1.837,2.389a10.632,10.632,0,0,1-.935,1.734c-.76,1.064-4.015,4.944-6.139,4.433a8.388,8.388,0,0,1-6.638-3.192,18.827,18.827,0,0,1-1.791-2.763c-.642-1.13-1.392-2.215-2.4-2.257-.02,0-.04,0-.061,0-1.171,0-2,1.423-2.307,2.855-.05.232-.1.469-.142.709-.261,1.358-.56,2.9-1.716,3.827a4.329,4.329,0,0,1-2.481.847,8.486,8.486,0,0,1-6.977-2.98,17.341,17.341,0,0,1-1.182-1.662,13.836,13.836,0,0,0-1.272-1.753c-.742-.823-2.03-1.646-3.2-1.248-1.257.4-2,1.9-2.71,3.343a10.156,10.156,0,0,1-1.762,2.794,4.237,4.237,0,0,1-2.156,1.292c-1.555.258-2.872-.97-3.579-2.2-.258-.449-.475-.928-.69-1.4a9.275,9.275,0,0,0-1.1-2,3.071,3.071,0,0,0-2.187-1.082c-3.9-.3-4.481,1.081-5.151,2.684a8.927,8.927,0,0,1-.683,1.392c-1.589,2.476-4.976,2.73-7.354,1.712-2.511-1.073-4.366-3.306-5.856-5.1-.862-1.04-2.191-2.187-3.336-2.286a1.486,1.486,0,0,0-1.141.359,3.988,3.988,0,0,0-.878,2.734l-.013.144a10.717,10.717,0,0,1-1.548,5.106A5.43,5.43,0,0,1,141.386,343.159ZM129.7,331.306a4.934,4.934,0,0,1,2.971,1.062,12.322,12.322,0,0,1,3.282,4.65c.278.565.556,1.128.862,1.673.709,1.265,2.22,3.405,4.374,3.542a4.5,4.5,0,0,0,3.822-2.174,9.859,9.859,0,0,0,1.4-4.681l.013-.142c.1-1.184.225-2.527,1.2-3.354a2.4,2.4,0,0,1,1.817-.574c1.795.156,3.488,2.041,3.963,2.612,1.427,1.719,3.2,3.858,5.51,4.845,2.062.885,4.95.609,6.216-1.362a8.251,8.251,0,0,0,.609-1.254c.705-1.69,1.5-3.619,6.073-3.243a3.982,3.982,0,0,1,2.835,1.427,10.118,10.118,0,0,1,1.217,2.189,14.762,14.762,0,0,0,.65,1.327c.528.92,1.537,1.929,2.631,1.751a3.443,3.443,0,0,0,1.668-1.047,9.383,9.383,0,0,0,1.574-2.537c.8-1.62,1.625-3.3,3.247-3.81,1.592-.538,3.2.427,4.177,1.508a14.676,14.676,0,0,1,1.359,1.865,15.82,15.82,0,0,0,1.116,1.57,7.562,7.562,0,0,0,6.207,2.658,3.477,3.477,0,0,0,1.972-.65c.891-.716,1.143-2.021,1.386-3.282.048-.247.094-.49.145-.729.364-1.7,1.449-3.693,3.306-3.579,1.462.063,2.4,1.373,3.122,2.647a18.77,18.77,0,0,0,1.743,2.706,7.606,7.606,0,0,0,6.04,2.872c1.379.307,4.149-2.48,5.279-4.061a9.886,9.886,0,0,0,.849-1.585c.538-1.158,1.093-2.358,2.33-2.855,1.916-.779,3.912.832,5.042,2.767.14.239.28.488.418.74.773,1.386,1.572,2.818,2.918,3.279,1.874.633,3.836-.952,4.952-2.509.359-.5.69-1.031,1.022-1.559a11.937,11.937,0,0,1,3.109-3.722,3.827,3.827,0,0,1,2.058-.747c1.765-.017,3.323,1.493,4.359,4.453.683,1.953,1.609,3.976,3.288,4.186,1.4.168,2.645-1.075,3.258-1.835.25-.311.486-.637.722-.961a9.876,9.876,0,0,1,2.248-2.445,5.048,5.048,0,0,1,3.781-.733,5.125,5.125,0,0,1,3.3,2.115,10.67,10.67,0,0,1,.953,1.962,5.526,5.526,0,0,0,1.539,2.5,3.141,3.141,0,0,0,3.45-.037,6.369,6.369,0,0,0,2.377-3.111c.092-.219.179-.445.265-.67.528-1.381,1.128-2.943,2.945-3.488a4.646,4.646,0,0,1,4.107.9,12.308,12.308,0,0,1,3.282,4.652c.278.565.554,1.127.86,1.671.709,1.265,2.22,3.405,4.374,3.542a4.482,4.482,0,0,0,3.823-2.176,9.817,9.817,0,0,0,1.4-4.679l.013-.142c.1-1.184.225-2.527,1.2-3.354a2.411,2.411,0,0,1,1.815-.574c1.745.151,3.354,1.879,3.965,2.612,1.749,2.111,3.372,3.932,5.508,4.845,2.06.88,4.95.609,6.216-1.362a7.978,7.978,0,0,0,.609-1.252,9.9,9.9,0,0,1,.585-1.235,5.128,5.128,0,0,1,5.016-2.308v-3.84a1.629,1.629,0,0,0-1.627-1.629H67.953a1.628,1.628,0,0,0-1.627,1.629v5.364a4.111,4.111,0,0,0,2.995,3.148,3.991,3.991,0,0,0,4.063-1.55,9.889,9.889,0,0,0,.849-1.585c.538-1.158,1.092-2.358,2.33-2.855,1.916-.779,3.914.832,5.042,2.767.14.241.278.49.42.74.771,1.386,1.57,2.818,2.916,3.279,1.878.635,3.838-.954,4.952-2.509.359-.5.69-1.031,1.022-1.559a11.887,11.887,0,0,1,3.109-3.722,3.822,3.822,0,0,1,2.058-.747c1.778-.017,3.323,1.493,4.359,4.453.683,1.953,1.607,3.976,3.288,4.186,1.4.168,2.645-1.075,3.258-1.835.249-.311.486-.637.722-.961a9.9,9.9,0,0,1,2.246-2.445,5.229,5.229,0,0,1,7.082,1.382,10.668,10.668,0,0,1,.954,1.962,5.526,5.526,0,0,0,1.539,2.5,3.141,3.141,0,0,0,3.45-.037,6.381,6.381,0,0,0,2.376-3.111c.092-.219.177-.442.263-.668.528-1.381,1.128-2.945,2.945-3.49A3.987,3.987,0,0,1,129.7,331.306Z" transform="translate(-65.405 -326.218)"/><g transform="translate(0 3.319)"><path class="c" d="M314.6,333.424c-.469.8-.7,1.725-1.2,2.5-1.381,2.148-4.464,2.529-6.785,1.535s-4.053-3.008-5.683-4.972c-1.32-1.59-3.56-3.312-5.128-1.983-.869.736-.948,2.04-1.053,3.188a10.5,10.5,0,0,1-1.473,4.893,4.953,4.953,0,0,1-4.236,2.378c-2.084-.131-3.706-1.92-4.746-3.775-1.213-2.163-2-4.637-4.02-6.183a4.2,4.2,0,0,0-3.694-.823c-1.872.561-2.279,2.353-2.918,3.9a6.9,6.9,0,0,1-2.559,3.324,3.6,3.6,0,0,1-3.969.015c-1.4-1.051-1.614-3.1-2.6-4.569a4.766,4.766,0,0,0-6.435-1.261,15.329,15.329,0,0,0-2.872,3.313c-.922,1.145-2.235,2.185-3.674,2-2-.25-2.986-2.55-3.665-4.49s-1.9-4.2-3.914-4.146a3.42,3.42,0,0,0-1.809.666c-1.8,1.237-2.735,3.383-4.015,5.171s-3.418,3.376-5.476,2.675c-1.769-.6-2.629-2.581-3.584-4.221s-2.739-3.273-4.473-2.573c-1.627.657-1.944,2.837-2.977,4.282-1.009,1.414-3.989,4.648-5.657,4.254a8.071,8.071,0,0,1-6.389-3.039,18.805,18.805,0,0,1-1.789-2.772c-.635-1.115-1.484-2.36-2.741-2.413-1.537-.064-2.507,1.679-2.837,3.216s-.488,3.3-1.7,4.273a3.957,3.957,0,0,1-2.227.747,8.01,8.01,0,0,1-6.59-2.818c-.9-1.075-1.526-2.38-2.465-3.424a3.681,3.681,0,0,0-3.694-1.377c-2.387.758-2.962,4.626-4.643,6.24A3.837,3.837,0,0,1,179,338.33c-1.279.208-2.448-.834-3.105-1.979a26.544,26.544,0,0,0-1.828-3.459,3.536,3.536,0,0,0-2.511-1.255c-5.4-.422-5.035,2.384-6.259,4.289-1.379,2.148-4.462,2.529-6.785,1.535s-4.052-3.008-5.681-4.972c-1.322-1.59-3.56-3.312-5.128-1.983-.869.736-.95,2.04-1.053,3.188a10.517,10.517,0,0,1-1.473,4.893,4.955,4.955,0,0,1-4.236,2.378c-2.084-.131-3.706-1.92-4.746-3.775-1.213-2.163-2-4.637-4.02-6.183a4.2,4.2,0,0,0-3.7-.823c-1.872.563-2.277,2.353-2.916,3.9a6.9,6.9,0,0,1-2.559,3.324,3.6,3.6,0,0,1-3.969.015c-1.4-1.051-1.614-3.1-2.6-4.569A4.768,4.768,0,0,0,110,331.589a15.38,15.38,0,0,0-2.872,3.313c-.92,1.145-2.235,2.185-3.674,2-2-.25-2.984-2.55-3.663-4.49s-1.9-4.2-3.914-4.146a3.42,3.42,0,0,0-1.81.666c-1.8,1.237-2.735,3.383-4.017,5.171s-3.417,3.376-5.475,2.675c-1.771-.6-2.629-2.581-3.584-4.221s-2.739-3.273-4.473-2.573c-1.627.657-1.944,2.837-2.977,4.282A4.454,4.454,0,0,1,69,336a4.585,4.585,0,0,1-3.348-3.6v8.755a3.129,3.129,0,0,0,3.129,3.129H316.551a3.131,3.131,0,0,0,3.131-3.129v-9.736A4.746,4.746,0,0,0,314.6,333.424Z" transform="translate(-65.195 -327.811)"/><path class="b" d="M316.762,344.962H68.995a3.6,3.6,0,0,1-3.59-3.593v-8.753l.913-.081a4.118,4.118,0,0,0,3,3.229,3.991,3.991,0,0,0,4.063-1.55,9.891,9.891,0,0,0,.849-1.585c.538-1.158,1.092-2.358,2.33-2.855,1.916-.779,3.914.832,5.042,2.767.14.241.278.49.42.74.771,1.386,1.57,2.818,2.916,3.279,1.87.633,3.838-.952,4.952-2.509.359-.5.69-1.031,1.022-1.559a11.866,11.866,0,0,1,3.109-3.722,3.821,3.821,0,0,1,2.058-.747c1.778-.017,3.323,1.493,4.359,4.453.683,1.953,1.607,3.976,3.288,4.186,1.4.167,2.645-1.075,3.258-1.835.249-.311.486-.637.722-.961a9.9,9.9,0,0,1,2.246-2.445,5.053,5.053,0,0,1,3.783-.733,5.125,5.125,0,0,1,3.3,2.115,10.671,10.671,0,0,1,.954,1.962,5.526,5.526,0,0,0,1.539,2.5,3.141,3.141,0,0,0,3.45-.037,6.381,6.381,0,0,0,2.376-3.111c.092-.219.177-.442.263-.668.528-1.381,1.128-2.945,2.945-3.49a4.644,4.644,0,0,1,4.107.9,12.322,12.322,0,0,1,3.282,4.65c.278.565.556,1.128.862,1.673.709,1.265,2.22,3.405,4.374,3.542a4.5,4.5,0,0,0,3.822-2.174,9.859,9.859,0,0,0,1.4-4.681l.013-.142c.1-1.184.225-2.527,1.2-3.354a2.4,2.4,0,0,1,1.817-.574c1.795.156,3.488,2.041,3.963,2.614,1.427,1.717,3.2,3.856,5.51,4.843,2.062.885,4.95.609,6.216-1.362a8.254,8.254,0,0,0,.609-1.254c.707-1.688,1.519-3.612,6.073-3.243a3.982,3.982,0,0,1,2.835,1.427,10.117,10.117,0,0,1,1.217,2.189,14.761,14.761,0,0,0,.65,1.327c.528.92,1.537,1.929,2.631,1.751a3.444,3.444,0,0,0,1.668-1.047,9.383,9.383,0,0,0,1.574-2.537c.8-1.62,1.625-3.3,3.247-3.81,1.592-.538,3.2.427,4.177,1.508a14.676,14.676,0,0,1,1.359,1.865,15.808,15.808,0,0,0,1.116,1.57,7.562,7.562,0,0,0,6.207,2.658,3.476,3.476,0,0,0,1.972-.65c.891-.716,1.143-2.021,1.386-3.282.048-.247.094-.49.145-.729.364-1.7,1.449-3.693,3.306-3.579,1.462.063,2.4,1.373,3.122,2.647a18.77,18.77,0,0,0,1.743,2.706,7.606,7.606,0,0,0,6.04,2.872c1.379.307,4.149-2.48,5.279-4.061a9.889,9.889,0,0,0,.849-1.585c.538-1.158,1.093-2.358,2.33-2.855,1.916-.779,3.912.832,5.042,2.767.14.239.28.488.418.74.773,1.386,1.572,2.818,2.918,3.279,1.874.633,3.836-.952,4.952-2.509.359-.5.69-1.031,1.022-1.559a11.936,11.936,0,0,1,3.109-3.722,3.826,3.826,0,0,1,2.058-.747c1.765-.017,3.323,1.493,4.359,4.453.683,1.953,1.609,3.976,3.288,4.186,1.4.167,2.645-1.075,3.258-1.835.25-.311.486-.637.722-.961a9.876,9.876,0,0,1,2.248-2.445,5.048,5.048,0,0,1,3.781-.733,5.125,5.125,0,0,1,3.3,2.115,10.673,10.673,0,0,1,.953,1.962,5.526,5.526,0,0,0,1.539,2.5,3.141,3.141,0,0,0,3.45-.037,6.369,6.369,0,0,0,2.377-3.111c.092-.219.179-.445.265-.67.528-1.381,1.128-2.943,2.945-3.488a4.646,4.646,0,0,1,4.107.9,12.308,12.308,0,0,1,3.282,4.652c.278.565.554,1.127.86,1.671.709,1.265,2.22,3.405,4.374,3.542a4.488,4.488,0,0,0,3.823-2.174,9.832,9.832,0,0,0,1.4-4.681l.013-.142c.1-1.184.225-2.527,1.2-3.354a2.372,2.372,0,0,1,1.815-.574c1.745.151,3.354,1.879,3.965,2.612,1.749,2.111,3.372,3.932,5.508,4.845,2.06.88,4.95.609,6.216-1.362a7.98,7.98,0,0,0,.609-1.252,9.9,9.9,0,0,1,.585-1.235h0a5.182,5.182,0,0,1,5.572-2.216l.365.077v10.108A3.6,3.6,0,0,1,316.762,344.962ZM66.325,334.78v6.588a2.675,2.675,0,0,0,2.669,2.673H316.762a2.676,2.676,0,0,0,2.671-2.673v-9.349a4.232,4.232,0,0,0-4.225,1.848h0a9.578,9.578,0,0,0-.528,1.123,8.773,8.773,0,0,1-.683,1.392c-1.589,2.474-4.97,2.73-7.352,1.712-2.515-1.073-4.368-3.306-5.856-5.1-.863-1.038-2.192-2.185-3.337-2.284a1.484,1.484,0,0,0-1.14.359,3.988,3.988,0,0,0-.88,2.734l-.013.144a10.718,10.718,0,0,1-1.546,5.106,5.475,5.475,0,0,1-4.648,2.584c-2.59-.164-4.319-2.583-5.119-4.011-.313-.556-.6-1.136-.884-1.712a11.446,11.446,0,0,0-3.015-4.331,3.718,3.718,0,0,0-3.282-.746c-1.384.414-1.854,1.638-2.351,2.936-.09.232-.179.464-.274.692a7.258,7.258,0,0,1-2.741,3.542,4.024,4.024,0,0,1-4.486-.009,6.28,6.28,0,0,1-1.843-2.89,9.73,9.73,0,0,0-.863-1.791,4.2,4.2,0,0,0-2.706-1.725,4.138,4.138,0,0,0-3.089.587,8.993,8.993,0,0,0-2.023,2.227c-.247.337-.492.674-.751.994-1.265,1.574-2.721,2.356-4.088,2.174-2.178-.272-3.266-2.575-4.042-4.793-.615-1.758-1.7-3.838-3.413-3.838H244.2a2.947,2.947,0,0,0-1.561.585,11.033,11.033,0,0,0-2.85,3.453c-.342.545-.685,1.09-1.055,1.605-1.3,1.813-3.649,3.645-6,2.844-1.681-.574-2.607-2.235-3.426-3.7-.134-.245-.271-.49-.409-.723-.692-1.187-2.284-3.013-3.9-2.378-.9.363-1.353,1.347-1.837,2.389a10.631,10.631,0,0,1-.935,1.734c-.76,1.064-4.015,4.944-6.139,4.433a8.388,8.388,0,0,1-6.638-3.192,18.829,18.829,0,0,1-1.791-2.763c-.642-1.13-1.392-2.215-2.4-2.257-.02,0-.04,0-.061,0-1.171,0-2,1.423-2.307,2.855-.05.232-.1.469-.142.709-.261,1.358-.56,2.9-1.716,3.827a4.329,4.329,0,0,1-2.481.847,8.486,8.486,0,0,1-6.977-2.98,17.333,17.333,0,0,1-1.182-1.662,13.838,13.838,0,0,0-1.272-1.752c-.742-.823-2.03-1.646-3.2-1.248-1.257.4-2,1.9-2.71,3.343a10.156,10.156,0,0,1-1.762,2.794,4.238,4.238,0,0,1-2.156,1.292c-1.555.258-2.872-.97-3.579-2.2-.258-.449-.475-.928-.69-1.4a9.275,9.275,0,0,0-1.1-2,3.071,3.071,0,0,0-2.187-1.082c-3.9-.3-4.481,1.081-5.151,2.684a8.925,8.925,0,0,1-.683,1.392c-1.589,2.476-4.976,2.73-7.354,1.712-2.511-1.073-4.366-3.306-5.856-5.1-.862-1.04-2.191-2.187-3.336-2.286a1.486,1.486,0,0,0-1.141.359,3.987,3.987,0,0,0-.878,2.734l-.013.144a10.717,10.717,0,0,1-1.548,5.106,5.423,5.423,0,0,1-4.646,2.584c-2.59-.164-4.319-2.583-5.119-4.011-.313-.556-.6-1.136-.885-1.714a11.439,11.439,0,0,0-3.015-4.33,3.719,3.719,0,0,0-3.282-.746c-1.384.414-1.854,1.64-2.351,2.938-.09.232-.179.464-.272.69a7.263,7.263,0,0,1-2.741,3.542,4.023,4.023,0,0,1-4.486-.009,6.265,6.265,0,0,1-1.843-2.89,9.849,9.849,0,0,0-.863-1.791,4.2,4.2,0,0,0-2.708-1.725,4.141,4.141,0,0,0-3.087.587,8.993,8.993,0,0,0-2.023,2.227c-.247.337-.491.674-.751.994-1.265,1.574-2.724,2.356-4.088,2.174-2.18-.272-3.267-2.575-4.042-4.793-.615-1.758-1.7-3.838-3.413-3.838H96.1a2.942,2.942,0,0,0-1.561.585,11.034,11.034,0,0,0-2.85,3.453c-.342.545-.685,1.09-1.055,1.605-1.3,1.813-3.648,3.645-6,2.844-1.681-.574-2.607-2.235-3.422-3.7-.138-.247-.272-.491-.41-.725-.692-1.187-2.3-3.013-3.9-2.378-.9.363-1.355,1.347-1.839,2.389a10.776,10.776,0,0,1-.935,1.734,4.776,4.776,0,0,1-7.807.031Z" transform="translate(-65.405 -328.021)"/></g></svg>