<svg xmlns="http://www.w3.org/2000/svg" width="375" height="136" viewBox="0 0 375 136"><defs><style>.a{fill:#84836f;}.b{fill:#892500;}.c{fill:#7c411e;}</style></defs><g transform="translate(-549.058 -443.547)"><g transform="translate(549.058 449.887)"><path class="a" d="M921.31,450.124c-2.379.756-2.949,4.6-4.625,6.208a3.812,3.812,0,0,1-1.9,1.164c-1.275.209-2.439-.829-3.094-1.966a26.105,26.105,0,0,0-1.823-3.444,3.5,3.5,0,0,0-2.478-1.241c-5.4-.432-5.036,2.364-6.255,4.26-1.375,2.138-4.447,2.516-6.76,1.529s-4.038-2.993-5.661-4.945c-1.315-1.584-3.547-3.3-5.109-1.972-.866.731-.946,2.027-1.049,3.171a10.419,10.419,0,0,1-1.467,4.864,4.936,4.936,0,0,1-4.22,2.365c-2.076-.13-3.692-1.91-4.728-3.753-1.208-2.151-2-4.614-4.005-6.152a4.183,4.183,0,0,0-3.682-.816c-1.863.558-2.268,2.338-2.9,3.874A6.887,6.887,0,0,1,859,456.577a3.591,3.591,0,0,1-3.954.015c-1.4-1.045-1.608-3.085-2.589-4.544a4.749,4.749,0,0,0-6.411-1.254,15.257,15.257,0,0,0-2.861,3.3c-.919,1.139-2.226,2.171-3.662,1.992-1.99-.247-2.973-2.536-3.649-4.464s-1.894-4.176-3.9-4.123a3.4,3.4,0,0,0-1.8.663c-1.79,1.228-2.725,3.363-4,5.141s-3.4,3.36-5.454,2.662c-1.762-.6-2.619-2.569-3.571-4.2s-2.729-3.255-4.456-2.559c-1.621.654-1.937,2.821-2.965,4.26-1,1.4-2.433,4.143-4.524,4.189a8.955,8.955,0,0,1-6.727-3.215,19.048,19.048,0,0,1-1.782-2.757c-.631-1.11-1.476-2.349-2.731-2.4-1.529-.066-2.5,1.668-2.826,3.2s-.484,3.284-1.689,4.251a3.955,3.955,0,0,1-2.217.743,8,8,0,0,1-6.567-2.8c-.9-1.069-1.52-2.367-2.456-3.405a3.674,3.674,0,0,0-3.679-1.369c-2.379.756-2.951,4.6-4.627,6.208a3.812,3.812,0,0,1-1.9,1.164c-1.275.209-2.439-.829-3.092-1.966a26.334,26.334,0,0,0-1.825-3.444,3.5,3.5,0,0,0-2.478-1.241c-5.4-.432-5.036,2.364-6.255,4.26-1.375,2.138-4.447,2.516-6.76,1.529s-4.038-2.993-5.661-4.945c-1.315-1.584-3.547-3.3-5.109-1.972-.864.73-.944,2.027-1.047,3.171a10.422,10.422,0,0,1-1.469,4.864,4.933,4.933,0,0,1-4.218,2.365c-2.078-.13-3.693-1.91-4.729-3.753-1.209-2.151-2-4.614-4.005-6.152a4.183,4.183,0,0,0-3.682-.817c-1.863.558-2.268,2.338-2.9,3.874a6.884,6.884,0,0,1-2.547,3.306,3.594,3.594,0,0,1-3.954.015c-1.4-1.045-1.608-3.085-2.591-4.544a4.749,4.749,0,0,0-6.411-1.254,15.249,15.249,0,0,0-2.861,3.3c-.919,1.139-2.226,2.171-3.66,1.992-1.99-.247-2.974-2.536-3.651-4.464s-1.894-4.176-3.9-4.123a3.4,3.4,0,0,0-1.8.663c-1.792,1.228-2.727,3.363-4,5.141s-3.405,3.36-5.456,2.662c-1.762-.6-2.617-2.567-3.57-4.2s-2.729-3.255-4.456-2.56c-1.621.654-1.937,2.821-2.964,4.26-1,1.4-3.974,4.621-5.637,4.229a8.049,8.049,0,0,1-6.365-3.021,18.885,18.885,0,0,1-1.782-2.757c-.631-1.11-1.476-2.349-2.731-2.4-1.531-.066-2.5,1.668-2.826,3.2s-.484,3.284-1.689,4.251a3.96,3.96,0,0,1-2.219.743,7.992,7.992,0,0,1-6.565-2.8c-.9-1.069-1.52-2.367-2.455-3.405a3.676,3.676,0,0,0-3.681-1.369c-2.379.756-2.949,4.6-4.625,6.208a3.813,3.813,0,0,1-1.9,1.164c-1.275.209-2.439-.829-3.094-1.966a26.1,26.1,0,0,0-1.823-3.444,3.507,3.507,0,0,0-2.479-1.241c-5.4-.43-5.034,2.364-6.253,4.26-1.375,2.138-4.447,2.516-6.76,1.529s-4.038-2.993-5.661-4.945c-1.315-1.584-3.547-3.3-5.109-1.972-.865.73-.946,2.027-1.049,3.171a10.419,10.419,0,0,1-1.467,4.864,4.935,4.935,0,0,1-4.22,2.365c-2.076-.13-3.692-1.91-4.728-3.753-1.208-2.151-2-4.614-4.005-6.152a4.185,4.185,0,0,0-3.682-.817c-1.863.558-2.268,2.338-2.9,3.874a6.885,6.885,0,0,1-2.549,3.306,3.594,3.594,0,0,1-3.954.015c-1.4-1.045-1.608-3.085-2.589-4.544a4.749,4.749,0,0,0-6.411-1.254,11.075,11.075,0,0,0-2.415,2.7V576H923.392v-125.7A2.831,2.831,0,0,0,921.31,450.124Z" transform="translate(-548.85 -446.803)"/><path class="a" d="M924.058,576.67h-375V453.321l.347-.474a9.949,9.949,0,0,1,2.265-2.459,5,5,0,0,1,3.765-.727,5.115,5.115,0,0,1,3.288,2.1,10.6,10.6,0,0,1,.95,1.952,5.469,5.469,0,0,0,1.533,2.483,3.14,3.14,0,0,0,3.438-.037,6.337,6.337,0,0,0,2.366-3.094c.09-.218.176-.439.26-.663.528-1.373,1.126-2.929,2.936-3.471a4.629,4.629,0,0,1,4.093.892,12.274,12.274,0,0,1,3.27,4.63c.277.56.552,1.12.855,1.659.708,1.258,2.214,3.387,4.359,3.522a4.545,4.545,0,0,0,3.805-2.16,9.767,9.767,0,0,0,1.4-4.654l.013-.146c.106-1.177.226-2.514,1.194-3.334a2.4,2.4,0,0,1,1.814-.569c1.788.156,3.473,2.029,3.946,2.6,1.421,1.706,3.191,3.834,5.489,4.815,2.047.877,4.929.608,6.195-1.355a7.994,7.994,0,0,0,.605-1.243c.7-1.683,1.52-3.581,6.07-3.226a3.973,3.973,0,0,1,2.8,1.41,9.964,9.964,0,0,1,1.216,2.184c.2.447.4.9.647,1.318.528.915,1.544,1.924,2.62,1.743a3.452,3.452,0,0,0,1.661-1.044,9.269,9.269,0,0,0,1.568-2.525c.8-1.611,1.619-3.275,3.235-3.788a4.092,4.092,0,0,1,4.159,1.5,14.559,14.559,0,0,1,1.355,1.855,15.782,15.782,0,0,0,1.111,1.564,7.619,7.619,0,0,0,6.184,2.642,3.444,3.444,0,0,0,1.962-.646c.891-.712,1.142-2.01,1.383-3.268.048-.243.094-.483.145-.72.365-1.692,1.454-3.689,3.294-3.561,1.456.064,2.39,1.366,3.112,2.633a18.652,18.652,0,0,0,1.735,2.693,7.588,7.588,0,0,0,6.017,2.854c1.375.311,4.135-2.466,5.26-4.039a9.744,9.744,0,0,0,.845-1.574c.536-1.153,1.087-2.347,2.322-2.841,1.922-.769,3.9.828,5.023,2.752q.212.362.418.736c.77,1.379,1.564,2.8,2.907,3.261,1.87.635,3.824-.948,4.931-2.5.358-.5.688-1.023,1.02-1.551a11.8,11.8,0,0,1,3.1-3.7,3.792,3.792,0,0,1,2.05-.743h.079c1.773,0,3.246,1.529,4.266,4.429.68,1.941,1.6,3.953,3.273,4.161,1.408.165,2.637-1.069,3.244-1.825.251-.309.488-.635.724-.957a9.779,9.779,0,0,1,2.237-2.43,5,5,0,0,1,3.763-.727,5.115,5.115,0,0,1,3.288,2.1,10.605,10.605,0,0,1,.95,1.952,5.485,5.485,0,0,0,1.533,2.483,3.14,3.14,0,0,0,3.438-.037,6.338,6.338,0,0,0,2.366-3.094c.092-.218.178-.439.26-.663.528-1.373,1.126-2.929,2.936-3.471a4.634,4.634,0,0,1,4.093.892,12.275,12.275,0,0,1,3.27,4.625c.277.562.552,1.124.856,1.664.706,1.258,2.21,3.387,4.357,3.522a4.465,4.465,0,0,0,3.811-2.16,9.91,9.91,0,0,0,1.39-4.654l.013-.146c.106-1.177.226-2.514,1.2-3.334a2.373,2.373,0,0,1,1.808-.569c1.74.15,3.341,1.867,3.95,2.6,1.744,2.1,3.359,3.909,5.487,4.817,2.05.873,4.929.608,6.195-1.355a7.984,7.984,0,0,0,.605-1.243c.7-1.684,1.5-3.61,6.074-3.224a3.95,3.95,0,0,1,2.8,1.412,10,10,0,0,1,1.21,2.175c.205.449.407.9.653,1.322.524.917,1.52,1.933,2.62,1.745a3.43,3.43,0,0,0,1.66-1.044,9.272,9.272,0,0,0,1.568-2.525c.8-1.611,1.619-3.275,3.235-3.788,1.6-.535,3.193.425,4.161,1.5a14.729,14.729,0,0,1,1.352,1.851,15.9,15.9,0,0,0,1.115,1.567,7.566,7.566,0,0,0,6.182,2.642,3.455,3.455,0,0,0,1.964-.646c.889-.712,1.141-2.01,1.383-3.268.046-.243.092-.483.145-.72.363-1.692,1.427-3.689,3.294-3.561,1.454.064,2.388,1.366,3.11,2.633a18.77,18.77,0,0,0,1.737,2.693,8.48,8.48,0,0,0,6.376,3.05c1.505-.035,2.734-1.886,3.629-3.237.185-.276.356-.536.519-.763a9.9,9.9,0,0,0,.845-1.574c.535-1.153,1.087-2.347,2.32-2.841,1.92-.776,3.9.829,5.025,2.754.139.24.277.483.414.731.772,1.38,1.566,2.807,2.91,3.264,1.871.635,3.822-.946,4.931-2.494.358-.5.688-1.025,1.018-1.552a11.867,11.867,0,0,1,3.1-3.7,3.776,3.776,0,0,1,2.052-.743h.079c1.773,0,3.246,1.529,4.266,4.429.678,1.941,1.6,3.953,3.273,4.161,1.386.17,2.635-1.067,3.244-1.825.25-.308.482-.63.719-.952a9.756,9.756,0,0,1,2.243-2.435,5,5,0,0,1,3.761-.727,5.107,5.107,0,0,1,3.29,2.1,10.468,10.468,0,0,1,.95,1.95,5.5,5.5,0,0,0,1.533,2.483,3.133,3.133,0,0,0,3.438-.037,6.348,6.348,0,0,0,2.366-3.092c.092-.216.174-.439.26-.663.526-1.373,1.126-2.931,2.936-3.473a4.625,4.625,0,0,1,4.093.892,12.3,12.3,0,0,1,3.272,4.63c.275.56.55,1.119.853,1.659.708,1.258,2.214,3.389,4.359,3.521a4.375,4.375,0,0,0,3.807-2.158,9.786,9.786,0,0,0,1.394-4.654l.013-.132c.1-1.183.222-2.525,1.194-3.349a2.4,2.4,0,0,1,1.814-.569c1.788.156,3.473,2.029,3.946,2.6,1.423,1.706,3.191,3.834,5.489,4.815,2.052.879,4.933.61,6.193-1.355a7.8,7.8,0,0,0,.605-1.247c.706-1.681,1.5-3.609,6.075-3.22a3.95,3.95,0,0,1,2.8,1.412,9.873,9.873,0,0,1,1.212,2.179c.2.449.405.9.649,1.318.526.917,1.548,1.917,2.62,1.745a3.426,3.426,0,0,0,1.661-1.044,9.268,9.268,0,0,0,1.568-2.525c.8-1.609,1.619-3.273,3.233-3.786a3.239,3.239,0,0,1,2.411.2l.27.123Zm-374.083-.915H923.141V450.82a2.215,2.215,0,0,0-1.476-.053l-.007,0c-1.243.394-1.98,1.882-2.69,3.321a10.05,10.05,0,0,1-1.759,2.781,4.21,4.21,0,0,1-2.146,1.285c-1.562.264-2.859-.967-3.565-2.191-.257-.45-.475-.925-.689-1.4a9.106,9.106,0,0,0-1.093-1.986,3.039,3.039,0,0,0-2.155-1.069c-3.9-.313-4.486,1.067-5.155,2.664a8.744,8.744,0,0,1-.682,1.386c-1.579,2.461-4.957,2.711-7.324,1.7-2.5-1.067-4.348-3.288-5.833-5.071-.856-1.034-2.18-2.173-3.321-2.272a1.462,1.462,0,0,0-1.137.355,3.972,3.972,0,0,0-.877,2.732l-.013.132a10.624,10.624,0,0,1-1.542,5.077,5.287,5.287,0,0,1-4.629,2.569c-2.578-.159-4.3-2.565-5.1-3.988-.312-.553-.594-1.128-.88-1.7a11.4,11.4,0,0,0-3-4.31,3.723,3.723,0,0,0-3.272-.742c-1.379.416-1.847,1.635-2.344,2.926-.088.231-.176.461-.268.687a7.247,7.247,0,0,1-2.732,3.521,4.014,4.014,0,0,1-4.469-.009,6.231,6.231,0,0,1-1.834-2.874,9.6,9.6,0,0,0-.864-1.78,4.164,4.164,0,0,0-2.7-1.717,4.062,4.062,0,0,0-3.072.584,8.963,8.963,0,0,0-2.023,2.219c-.244.333-.484.666-.741.985-1.26,1.562-2.7,2.338-4.077,2.16-2.171-.271-3.253-2.561-4.025-4.767-.613-1.747-1.7-3.815-3.4-3.815h-.053a2.923,2.923,0,0,0-1.557.582,10.99,10.99,0,0,0-2.837,3.433c-.341.542-.68,1.086-1.051,1.6-1.293,1.8-3.638,3.623-5.973,2.827-1.676-.569-2.6-2.224-3.415-3.685-.134-.24-.268-.482-.4-.714-.691-1.185-2.3-3-3.891-2.367-.9.361-1.35,1.34-1.83,2.378a10.5,10.5,0,0,1-.932,1.723c-.156.218-.321.469-.5.736-1.009,1.52-2.39,3.6-4.387,3.647a9.421,9.421,0,0,1-7.09-3.383,18.768,18.768,0,0,1-1.792-2.759c-.634-1.111-1.381-2.19-2.39-2.234-.02,0-.04,0-.061,0-1.164,0-1.99,1.415-2.3,2.84-.048.229-.094.463-.139.7-.262,1.351-.557,2.885-1.711,3.81a4.31,4.31,0,0,1-2.472.842,8.434,8.434,0,0,1-6.948-2.964,17,17,0,0,1-1.181-1.655,13.966,13.966,0,0,0-1.265-1.741c-.737-.816-2.021-1.639-3.193-1.239-1.251.4-1.988,1.884-2.7,3.323a10.088,10.088,0,0,1-1.757,2.781,4.206,4.206,0,0,1-2.146,1.285c-1.566.26-2.861-.967-3.565-2.193-.262-.456-.481-.936-.691-1.4a9.14,9.14,0,0,0-1.093-1.981,3.04,3.04,0,0,0-2.155-1.069c-3.9-.309-4.485,1.067-5.155,2.666a8.644,8.644,0,0,1-.68,1.384c-1.581,2.461-4.959,2.711-7.326,1.7-2.5-1.067-4.348-3.286-5.832-5.073-.858-1.033-2.184-2.173-3.323-2.27a1.465,1.465,0,0,0-1.135.355,3.958,3.958,0,0,0-.878,2.717l-.013.148a10.782,10.782,0,0,1-1.539,5.075,5.276,5.276,0,0,1-4.632,2.569c-2.58-.161-4.3-2.567-5.1-3.986-.313-.555-.6-1.131-.882-1.706a11.447,11.447,0,0,0-3-4.306,3.712,3.712,0,0,0-3.27-.741c-1.381.416-1.849,1.633-2.345,2.924-.088.231-.176.461-.268.687a7.243,7.243,0,0,1-2.732,3.522,4.021,4.021,0,0,1-4.469-.009,6.226,6.226,0,0,1-1.834-2.876,9.6,9.6,0,0,0-.864-1.78,4.161,4.161,0,0,0-2.7-1.715,4.079,4.079,0,0,0-3.073.584,8.948,8.948,0,0,0-2.017,2.213c-.244.335-.488.67-.748.992-1.258,1.56-2.7,2.334-4.075,2.159-2.166-.269-3.25-2.561-4.025-4.766-.613-1.748-1.7-3.817-3.4-3.817h-.053a2.922,2.922,0,0,0-1.555.582,10.956,10.956,0,0,0-2.837,3.431c-.343.542-.682,1.086-1.053,1.6-1.293,1.805-3.638,3.629-5.973,2.829-1.674-.569-2.595-2.223-3.411-3.68-.136-.243-.271-.487-.407-.721-.691-1.183-2.3-3-3.89-2.365-.9.361-1.352,1.34-1.832,2.378a10.556,10.556,0,0,1-.932,1.723c-.756,1.058-3.97,4.923-6.114,4.409a8.365,8.365,0,0,1-6.615-3.175,18.745,18.745,0,0,1-1.79-2.759c-.635-1.111-1.381-2.19-2.389-2.234-.02,0-.042,0-.061,0-1.165,0-1.99,1.415-2.3,2.84-.05.229-.094.463-.139.7-.262,1.351-.557,2.885-1.711,3.81a4.31,4.31,0,0,1-2.472.842,8.407,8.407,0,0,1-6.95-2.964,17.012,17.012,0,0,1-1.177-1.653,13.95,13.95,0,0,0-1.267-1.743c-.739-.816-2.019-1.639-3.193-1.239-1.253.4-1.988,1.884-2.7,3.323a10,10,0,0,1-1.757,2.781,4.228,4.228,0,0,1-2.146,1.285c-1.562.262-2.859-.967-3.565-2.191-.259-.45-.473-.925-.688-1.4a9.253,9.253,0,0,0-1.1-1.988,3.051,3.051,0,0,0-2.157-1.069c-3.886-.313-4.482,1.069-5.151,2.667a8.623,8.623,0,0,1-.68,1.384c-1.583,2.461-4.957,2.711-7.326,1.7-2.5-1.067-4.348-3.286-5.833-5.071-.858-1.034-2.181-2.173-3.321-2.272a1.469,1.469,0,0,0-1.137.355,3.966,3.966,0,0,0-.877,2.717l-.013.148a10.6,10.6,0,0,1-1.544,5.075,5.263,5.263,0,0,1-4.627,2.569c-2.578-.161-4.3-2.567-5.1-3.986-.312-.555-.594-1.13-.88-1.7a11.405,11.405,0,0,0-3-4.31,3.717,3.717,0,0,0-3.272-.741c-1.381.416-1.847,1.633-2.342,2.924-.09.231-.178.461-.27.687a7.264,7.264,0,0,1-2.732,3.522,4.021,4.021,0,0,1-4.469-.009,6.212,6.212,0,0,1-1.834-2.876,9.728,9.728,0,0,0-.864-1.78,4.16,4.16,0,0,0-2.7-1.715,4.076,4.076,0,0,0-3.072.584,9.072,9.072,0,0,0-2.045,2.241l-.171.236Z" transform="translate(-549.058 -447.01)"/></g><g transform="translate(549.058 443.547)"><path class="b" d="M551.386,443.8a2.078,2.078,0,0,0-2.079,2.076V456.14a11.074,11.074,0,0,1,2.415-2.7,4.749,4.749,0,0,1,6.411,1.254c.981,1.459,1.19,3.5,2.589,4.544a3.594,3.594,0,0,0,3.954-.015,6.885,6.885,0,0,0,2.549-3.306c.636-1.536,1.042-3.316,2.9-3.874a4.18,4.18,0,0,1,3.681.817c2.01,1.538,2.8,4,4.007,6.152,1.036,1.844,2.652,3.623,4.728,3.753a4.935,4.935,0,0,0,4.22-2.365,10.419,10.419,0,0,0,1.467-4.864c.1-1.144.183-2.44,1.049-3.171,1.563-1.324,3.794.388,5.109,1.972,1.623,1.952,3.349,3.958,5.661,4.945s5.384.61,6.76-1.529c1.218-1.895.851-4.689,6.244-4.26a3.521,3.521,0,0,1,2.494,1.247,26.571,26.571,0,0,1,1.817,3.438c.655,1.137,1.819,2.175,3.094,1.966a3.812,3.812,0,0,0,1.9-1.164c1.676-1.607,2.246-5.452,4.625-6.208a3.676,3.676,0,0,1,3.681,1.369c.935,1.038,1.555,2.336,2.455,3.405a7.992,7.992,0,0,0,6.565,2.8,3.96,3.96,0,0,0,2.219-.743c1.2-.967,1.361-2.722,1.689-4.251s1.295-3.262,2.826-3.2c1.254.051,2.1,1.291,2.731,2.4a18.884,18.884,0,0,0,1.782,2.757,8.049,8.049,0,0,0,6.365,3.021c1.663.392,4.632-2.825,5.637-4.229,1.027-1.439,1.342-3.607,2.964-4.26,1.727-.7,3.5.928,4.456,2.56s1.808,3.6,3.57,4.2c2.05.7,4.179-.884,5.456-2.662s2.21-3.912,4-5.141a3.4,3.4,0,0,1,1.8-.663c2-.053,3.22,2.193,3.9,4.123s1.661,4.216,3.651,4.464c1.434.179,2.742-.853,3.66-1.992a15.249,15.249,0,0,1,2.861-3.3,4.749,4.749,0,0,1,6.411,1.254c.983,1.459,1.19,3.5,2.591,4.544a3.594,3.594,0,0,0,3.954-.015,6.884,6.884,0,0,0,2.547-3.306c.636-1.536,1.042-3.316,2.9-3.874a4.179,4.179,0,0,1,3.68.817c2.01,1.538,2.8,4,4.007,6.152,1.036,1.844,2.652,3.623,4.729,3.753A4.933,4.933,0,0,0,734.3,460.4a10.422,10.422,0,0,0,1.469-4.864c.1-1.144.183-2.44,1.047-3.171,1.562-1.324,3.794.388,5.109,1.972,1.623,1.952,3.349,3.958,5.661,4.945s5.384.61,6.76-1.529c1.219-1.9.851-4.691,6.246-4.26a3.515,3.515,0,0,1,2.492,1.249,26.425,26.425,0,0,1,1.819,3.436c.653,1.137,1.817,2.175,3.092,1.966a3.812,3.812,0,0,0,1.9-1.164c1.676-1.607,2.248-5.452,4.627-6.208a3.674,3.674,0,0,1,3.679,1.369c.935,1.038,1.555,2.336,2.456,3.405a8,8,0,0,0,6.567,2.8,3.955,3.955,0,0,0,2.217-.743c1.2-.967,1.361-2.722,1.689-4.251s1.3-3.262,2.826-3.2c1.254.051,2.1,1.291,2.731,2.4a19.048,19.048,0,0,0,1.782,2.757,8.955,8.955,0,0,0,6.727,3.215c2.091-.046,3.519-2.785,4.524-4.189,1.029-1.439,1.344-3.607,2.965-4.26,1.727-.7,3.5.928,4.456,2.559s1.808,3.6,3.571,4.2c2.05.7,4.179-.884,5.454-2.662s2.212-3.912,4-5.141a3.4,3.4,0,0,1,1.8-.663c2-.053,3.222,2.193,3.9,4.123s1.66,4.216,3.649,4.464c1.436.179,2.743-.853,3.662-1.992a15.257,15.257,0,0,1,2.861-3.3,4.749,4.749,0,0,1,6.411,1.254c.981,1.459,1.19,3.5,2.589,4.544a3.591,3.591,0,0,0,3.954-.015,6.887,6.887,0,0,0,2.549-3.306c.636-1.536,1.042-3.316,2.9-3.874a4.183,4.183,0,0,1,3.682.816c2.008,1.538,2.8,4,4.005,6.152,1.036,1.844,2.652,3.623,4.728,3.753a4.936,4.936,0,0,0,4.22-2.365,10.419,10.419,0,0,0,1.467-4.864c.1-1.144.183-2.44,1.049-3.171,1.563-1.324,3.794.388,5.109,1.972,1.623,1.952,3.349,3.958,5.661,4.945s5.384.61,6.76-1.529c1.219-1.9.851-4.691,6.246-4.26a3.516,3.516,0,0,1,2.492,1.249,26.424,26.424,0,0,1,1.817,3.436c.655,1.137,1.819,2.175,3.094,1.966a3.812,3.812,0,0,0,1.9-1.164c1.676-1.607,2.246-5.452,4.625-6.208a2.831,2.831,0,0,1,2.081.181v-7.309a2.079,2.079,0,0,0-2.08-2.076Z" transform="translate(-548.85 -443.339)"/><path class="c" d="M877.31,463.668c-.088,0-.174,0-.262-.009-2.578-.159-4.3-2.565-5.1-3.988-.312-.553-.594-1.128-.88-1.7a11.405,11.405,0,0,0-3-4.31,3.723,3.723,0,0,0-3.272-.741c-1.379.416-1.847,1.635-2.344,2.926-.088.231-.176.461-.268.687a7.247,7.247,0,0,1-2.732,3.521,4.014,4.014,0,0,1-4.469-.009,6.231,6.231,0,0,1-1.834-2.874,9.6,9.6,0,0,0-.864-1.78,4.164,4.164,0,0,0-2.7-1.717,4.062,4.062,0,0,0-3.072.584,8.962,8.962,0,0,0-2.023,2.219c-.244.333-.484.666-.741.985-1.26,1.562-2.7,2.338-4.077,2.16-2.171-.271-3.253-2.561-4.025-4.767-.613-1.747-1.7-3.815-3.4-3.815h-.053a2.923,2.923,0,0,0-1.557.582,10.989,10.989,0,0,0-2.837,3.433c-.341.542-.68,1.086-1.051,1.6-1.293,1.8-3.638,3.623-5.973,2.827-1.676-.569-2.6-2.224-3.415-3.685-.134-.24-.268-.482-.4-.714-.691-1.185-2.3-3-3.891-2.367-.9.361-1.35,1.34-1.83,2.378a10.5,10.5,0,0,1-.932,1.723c-.156.218-.321.469-.5.736-1.009,1.52-2.39,3.6-4.387,3.647a9.421,9.421,0,0,1-7.09-3.383,18.766,18.766,0,0,1-1.792-2.759c-.634-1.111-1.381-2.19-2.39-2.234-.02,0-.04,0-.061,0-1.164,0-1.99,1.415-2.3,2.84-.048.229-.094.463-.139.7-.262,1.351-.557,2.885-1.711,3.81a4.31,4.31,0,0,1-2.472.842,8.432,8.432,0,0,1-6.948-2.964,17,17,0,0,1-1.181-1.655,13.963,13.963,0,0,0-1.265-1.741c-.739-.818-2.021-1.64-3.193-1.239-1.251.4-1.988,1.884-2.7,3.323a10.089,10.089,0,0,1-1.757,2.781,4.206,4.206,0,0,1-2.146,1.285c-1.566.26-2.861-.967-3.565-2.193-.262-.456-.479-.936-.691-1.4a9.147,9.147,0,0,0-1.089-1.977,3.058,3.058,0,0,0-2.168-1.077c-3.91-.295-4.476,1.071-5.146,2.666a8.589,8.589,0,0,1-.68,1.386c-1.581,2.461-4.959,2.711-7.326,1.7-2.5-1.067-4.348-3.286-5.832-5.073-.858-1.033-2.184-2.173-3.323-2.27a1.465,1.465,0,0,0-1.135.355,3.958,3.958,0,0,0-.878,2.717l-.013.148a10.782,10.782,0,0,1-1.539,5.075,5.276,5.276,0,0,1-4.632,2.569c-2.58-.161-4.3-2.567-5.1-3.986-.312-.555-.6-1.131-.882-1.7a11.423,11.423,0,0,0-3.006-4.308,3.713,3.713,0,0,0-3.268-.741c-1.381.416-1.849,1.633-2.345,2.924-.088.231-.176.461-.268.687a7.243,7.243,0,0,1-2.732,3.522,4.021,4.021,0,0,1-4.469-.009,6.226,6.226,0,0,1-1.834-2.876,9.6,9.6,0,0,0-.864-1.78,4.161,4.161,0,0,0-2.7-1.715,4.079,4.079,0,0,0-3.073.584,8.948,8.948,0,0,0-2.017,2.213c-.244.335-.488.67-.748.992-1.26,1.562-2.72,2.332-4.075,2.159-2.166-.269-3.25-2.561-4.025-4.766-.613-1.748-1.7-3.817-3.4-3.817h-.053a2.922,2.922,0,0,0-1.555.582,10.956,10.956,0,0,0-2.837,3.431c-.343.542-.682,1.086-1.053,1.6-1.293,1.805-3.638,3.629-5.973,2.829-1.674-.569-2.595-2.223-3.411-3.68-.136-.243-.271-.487-.407-.721-.691-1.183-2.3-3-3.89-2.365-.9.361-1.352,1.34-1.832,2.378a10.554,10.554,0,0,1-.932,1.723c-.756,1.058-3.97,4.923-6.114,4.409a8.365,8.365,0,0,1-6.615-3.175,18.744,18.744,0,0,1-1.79-2.759c-.635-1.111-1.381-2.19-2.389-2.234-.02,0-.042,0-.061,0-1.165,0-1.99,1.415-2.3,2.84-.05.229-.094.463-.139.7-.262,1.351-.557,2.885-1.711,3.81a4.31,4.31,0,0,1-2.472.842,8.407,8.407,0,0,1-6.95-2.964,17.009,17.009,0,0,1-1.177-1.653,13.95,13.95,0,0,0-1.267-1.743c-.739-.818-2.019-1.64-3.193-1.239-1.253.4-1.988,1.884-2.7,3.323a10,10,0,0,1-1.757,2.781,4.228,4.228,0,0,1-2.146,1.285c-1.562.262-2.859-.967-3.565-2.191-.259-.449-.473-.923-.688-1.4a9.142,9.142,0,0,0-1.093-1.981,3.054,3.054,0,0,0-2.168-1.077c-3.91-.3-4.478,1.071-5.144,2.667a8.71,8.71,0,0,1-.68,1.384c-1.583,2.461-4.957,2.711-7.326,1.7-2.5-1.067-4.348-3.286-5.833-5.071-.858-1.034-2.181-2.173-3.321-2.272a1.413,1.413,0,0,0-1.137.355,3.966,3.966,0,0,0-.877,2.717l-.013.148a10.6,10.6,0,0,1-1.544,5.075,5.263,5.263,0,0,1-4.627,2.569c-2.578-.161-4.3-2.567-5.1-3.986-.312-.553-.594-1.128-.878-1.7a11.405,11.405,0,0,0-3.007-4.312,3.716,3.716,0,0,0-3.27-.741c-1.381.416-1.847,1.633-2.342,2.924-.09.231-.178.461-.27.687a7.264,7.264,0,0,1-2.732,3.522,4.021,4.021,0,0,1-4.469-.009,6.212,6.212,0,0,1-1.834-2.876,9.728,9.728,0,0,0-.864-1.78,4.16,4.16,0,0,0-2.7-1.715,4.076,4.076,0,0,0-3.072.584,9.073,9.073,0,0,0-2.045,2.241l-1.088,1.476V446.081a2.539,2.539,0,0,1,2.536-2.534H921.52a2.539,2.539,0,0,1,2.538,2.534V454.1l-.649-.295a2.332,2.332,0,0,0-1.744-.161c-1.251.4-1.988,1.884-2.7,3.323a10.049,10.049,0,0,1-1.759,2.781,4.21,4.21,0,0,1-2.146,1.285c-1.562.264-2.859-.967-3.565-2.191-.257-.449-.473-.925-.688-1.4a9.064,9.064,0,0,0-1.091-1.981,3.06,3.06,0,0,0-2.168-1.078c-3.906-.295-4.478,1.071-5.148,2.668a8.563,8.563,0,0,1-.68,1.384c-1.579,2.461-4.957,2.711-7.324,1.7-2.5-1.067-4.348-3.288-5.833-5.071-.856-1.034-2.18-2.173-3.321-2.272a1.462,1.462,0,0,0-1.137.355,3.972,3.972,0,0,0-.877,2.732l-.013.132a10.624,10.624,0,0,1-1.542,5.077A5.4,5.4,0,0,1,877.31,463.668Zm-11.65-11.787a4.927,4.927,0,0,1,2.962,1.055,12.3,12.3,0,0,1,3.272,4.63c.275.56.55,1.119.853,1.659.708,1.258,2.214,3.389,4.359,3.521a4.375,4.375,0,0,0,3.807-2.158,9.786,9.786,0,0,0,1.394-4.654l.013-.132c.1-1.183.222-2.525,1.194-3.349a2.4,2.4,0,0,1,1.814-.569c1.788.156,3.473,2.029,3.946,2.6,1.423,1.706,3.191,3.834,5.489,4.815,2.052.879,4.933.61,6.193-1.355a7.923,7.923,0,0,0,.605-1.245c.706-1.681,1.511-3.592,6.064-3.224a3.975,3.975,0,0,1,2.815,1.421,10.062,10.062,0,0,1,1.208,2.173c.2.449.4.9.647,1.318.526.915,1.548,1.915,2.62,1.743a3.426,3.426,0,0,0,1.661-1.044,9.267,9.267,0,0,0,1.568-2.525c.8-1.611,1.619-3.275,3.235-3.788a3.077,3.077,0,0,1,1.762-.033v-6.659a1.621,1.621,0,0,0-1.621-1.618H551.594a1.62,1.62,0,0,0-1.619,1.618v8.879a7.745,7.745,0,0,1,1.695-1.7,5,5,0,0,1,3.765-.727,5.115,5.115,0,0,1,3.288,2.1,10.6,10.6,0,0,1,.95,1.952,5.47,5.47,0,0,0,1.533,2.483,3.14,3.14,0,0,0,3.438-.037,6.338,6.338,0,0,0,2.366-3.094c.09-.218.176-.439.26-.663.528-1.373,1.126-2.929,2.936-3.471a4.617,4.617,0,0,1,4.091.892,12.259,12.259,0,0,1,3.271,4.63c.277.56.552,1.12.855,1.659.708,1.258,2.214,3.387,4.359,3.521a4.45,4.45,0,0,0,3.805-2.158,9.767,9.767,0,0,0,1.4-4.654l.013-.146c.106-1.177.226-2.514,1.194-3.334a2.4,2.4,0,0,1,1.814-.569c1.788.156,3.473,2.029,3.946,2.6,1.421,1.706,3.191,3.834,5.489,4.815,2.047.877,4.929.608,6.195-1.355a8.05,8.05,0,0,0,.6-1.241c.706-1.683,1.526-3.6,6.063-3.228a3.98,3.98,0,0,1,2.817,1.419,10.033,10.033,0,0,1,1.208,2.175c.2.447.4.9.647,1.318.528.915,1.544,1.924,2.62,1.743a3.452,3.452,0,0,0,1.661-1.044,9.269,9.269,0,0,0,1.568-2.525c.8-1.611,1.619-3.275,3.235-3.788a4.092,4.092,0,0,1,4.159,1.5,14.558,14.558,0,0,1,1.355,1.855,15.779,15.779,0,0,0,1.111,1.564,7.619,7.619,0,0,0,6.184,2.642,3.444,3.444,0,0,0,1.962-.646c.891-.712,1.142-2.01,1.383-3.268.048-.243.094-.483.145-.72.365-1.692,1.454-3.689,3.294-3.561,1.456.064,2.39,1.366,3.112,2.633a18.652,18.652,0,0,0,1.735,2.693,7.588,7.588,0,0,0,6.017,2.854c1.375.311,4.135-2.466,5.26-4.039a9.744,9.744,0,0,0,.845-1.574c.536-1.153,1.087-2.347,2.322-2.841,1.922-.769,3.9.828,5.023,2.752q.212.363.418.736c.77,1.379,1.564,2.8,2.907,3.261,1.87.635,3.824-.948,4.931-2.5.358-.5.688-1.023,1.02-1.551a11.8,11.8,0,0,1,3.1-3.7,3.792,3.792,0,0,1,2.05-.743l.079,0c1.773,0,3.246,1.531,4.266,4.431.68,1.941,1.6,3.953,3.273,4.161,1.408.165,2.637-1.069,3.244-1.825.251-.309.488-.635.724-.957a9.779,9.779,0,0,1,2.237-2.43,5,5,0,0,1,3.763-.727,5.115,5.115,0,0,1,3.288,2.1,10.6,10.6,0,0,1,.95,1.952,5.485,5.485,0,0,0,1.533,2.483,3.14,3.14,0,0,0,3.438-.037,6.338,6.338,0,0,0,2.366-3.094c.092-.218.178-.439.26-.663.528-1.373,1.126-2.929,2.936-3.471a4.614,4.614,0,0,1,4.091.892,12.266,12.266,0,0,1,3.272,4.627c.277.562.554,1.122.856,1.662.706,1.258,2.21,3.387,4.357,3.521a4.463,4.463,0,0,0,3.811-2.158,9.91,9.91,0,0,0,1.39-4.654l.013-.146c.106-1.177.226-2.514,1.2-3.334a2.373,2.373,0,0,1,1.808-.569c1.74.15,3.341,1.868,3.95,2.6,1.744,2.1,3.359,3.909,5.487,4.817,2.05.873,4.929.608,6.195-1.355a7.89,7.89,0,0,0,.605-1.243c.706-1.682,1.506-3.594,6.063-3.226a3.977,3.977,0,0,1,2.815,1.419,10.028,10.028,0,0,1,1.207,2.17,14.722,14.722,0,0,0,.651,1.322c.524.915,1.52,1.933,2.62,1.745a3.43,3.43,0,0,0,1.66-1.044,9.272,9.272,0,0,0,1.568-2.525c.8-1.611,1.619-3.275,3.235-3.788,1.6-.535,3.193.425,4.161,1.5a14.729,14.729,0,0,1,1.352,1.851,16.125,16.125,0,0,0,1.115,1.567A7.566,7.566,0,0,0,787.4,460.1a3.455,3.455,0,0,0,1.964-.646c.889-.712,1.141-2.01,1.383-3.268.046-.243.092-.483.145-.72.363-1.692,1.427-3.689,3.294-3.561,1.454.064,2.388,1.366,3.11,2.633a18.77,18.77,0,0,0,1.737,2.693,8.48,8.48,0,0,0,6.376,3.05c1.505-.035,2.734-1.886,3.629-3.237.185-.276.356-.536.519-.763a9.9,9.9,0,0,0,.845-1.574c.535-1.153,1.087-2.347,2.32-2.841,1.92-.776,3.9.829,5.025,2.754.139.24.277.483.414.731.772,1.38,1.566,2.807,2.91,3.264,1.871.635,3.822-.947,4.931-2.494.358-.5.688-1.025,1.018-1.552a11.867,11.867,0,0,1,3.1-3.7,3.776,3.776,0,0,1,2.052-.743h.079c1.773,0,3.246,1.529,4.266,4.429.678,1.941,1.6,3.953,3.273,4.161,1.386.17,2.635-1.067,3.244-1.825.25-.308.482-.63.719-.952a9.756,9.756,0,0,1,2.243-2.435,5,5,0,0,1,3.761-.727,5.107,5.107,0,0,1,3.29,2.1,10.469,10.469,0,0,1,.95,1.95,5.5,5.5,0,0,0,1.533,2.483,3.133,3.133,0,0,0,3.438-.037,6.348,6.348,0,0,0,2.366-3.092c.092-.216.174-.439.26-.663.526-1.373,1.126-2.931,2.936-3.473A3.917,3.917,0,0,1,865.659,451.881Z" transform="translate(-549.058 -443.547)"/></g></g></svg>