<svg xmlns="http://www.w3.org/2000/svg" width="356.468" height="20.258" viewBox="0 0 356.468 20.258"><defs><style>.a{fill:#ebe59f;}.b{fill:#7c411e;}.c{fill:#3fa43f;}</style></defs><g transform="translate(0 3.319)"><path class="a" d="M363.3,443.575a3.6,3.6,0,0,1-3.969.015c-1.406-1.051-1.614-3.1-2.6-4.569a4.768,4.768,0,0,0-6.437-1.261,15.326,15.326,0,0,0-2.872,3.313c-.92,1.145-2.235,2.185-3.674,2-2-.25-2.986-2.55-3.665-4.49s-1.9-4.2-3.912-4.145a3.42,3.42,0,0,0-1.81.666c-1.8,1.235-2.737,3.382-4.017,5.169s-3.418,3.378-5.475,2.677c-1.771-.6-2.629-2.581-3.586-4.221s-2.739-3.273-4.471-2.573c-1.629.655-1.946,2.837-2.977,4.282-1.009,1.414-2.445,4.168-4.543,4.214a8.987,8.987,0,0,1-6.75-3.234,18.9,18.9,0,0,1-1.789-2.772c-.635-1.116-1.484-2.36-2.743-2.413-1.535-.064-2.505,1.679-2.837,3.216s-.486,3.3-1.7,4.273a3.948,3.948,0,0,1-2.226.747,8.015,8.015,0,0,1-6.59-2.818c-.906-1.075-1.526-2.38-2.465-3.424a3.683,3.683,0,0,0-3.695-1.377c-2.387.758-2.962,4.626-4.644,6.24a3.809,3.809,0,0,1-1.909,1.171c-1.279.21-2.448-.832-3.105-1.977a26.353,26.353,0,0,0-1.83-3.461,3.512,3.512,0,0,0-2.489-1.248c-5.425-.436-5.053,2.375-6.279,4.284-1.379,2.148-4.464,2.528-6.785,1.535s-4.052-3.01-5.681-4.972c-1.322-1.59-3.56-3.313-5.128-1.983-.869.736-.95,2.038-1.053,3.188a10.51,10.51,0,0,1-1.473,4.891,4.953,4.953,0,0,1-4.236,2.38c-2.084-.131-3.706-1.92-4.746-3.775-1.213-2.163-2-4.639-4.022-6.185a4.191,4.191,0,0,0-3.695-.821c-1.872.563-2.277,2.353-2.916,3.9a6.921,6.921,0,0,1-2.559,3.324,3.6,3.6,0,0,1-3.969.015c-1.406-1.051-1.614-3.1-2.6-4.569a4.768,4.768,0,0,0-6.437-1.261,15.382,15.382,0,0,0-2.872,3.314c-.92,1.145-2.235,2.185-3.674,2-2-.25-2.986-2.549-3.663-4.49s-1.9-4.2-3.914-4.145a3.42,3.42,0,0,0-1.81.666c-1.8,1.235-2.735,3.382-4.017,5.169s-3.417,3.378-5.475,2.676c-1.771-.6-2.629-2.581-3.584-4.221s-2.739-3.273-4.473-2.573c-1.627.655-1.944,2.837-2.977,4.282-1.009,1.414-3.989,4.648-5.657,4.252a8.07,8.07,0,0,1-6.391-3.037,19.056,19.056,0,0,1-1.789-2.772c-.633-1.116-1.482-2.36-2.741-2.413-1.535-.064-2.507,1.679-2.837,3.216s-.486,3.3-1.7,4.273a3.953,3.953,0,0,1-2.226.747,8.021,8.021,0,0,1-6.592-2.818c-.9-1.075-1.524-2.38-2.465-3.424a3.678,3.678,0,0,0-3.693-1.377c-2.388.758-2.962,4.626-4.644,6.24a3.814,3.814,0,0,1-1.911,1.171c-1.279.21-2.446-.832-3.1-1.977a26.574,26.574,0,0,0-1.83-3.461,3.512,3.512,0,0,0-2.489-1.248c-5.425-.436-5.055,2.375-6.279,4.284-1.381,2.148-4.464,2.528-6.785,1.535s-4.052-3.01-5.683-4.972c-1.32-1.59-3.56-3.313-5.129-1.983-.867.736-.948,2.038-1.051,3.188a10.491,10.491,0,0,1-1.474,4.891A4.947,4.947,0,0,1,85.8,446.9c-2.086-.131-3.706-1.92-4.747-3.775-1.211-2.163-2-4.639-4.02-6.185a4.194,4.194,0,0,0-3.7-.821c-1.87.563-2.277,2.353-2.914,3.9a6.933,6.933,0,0,1-2.559,3.324,3.6,3.6,0,0,1-3.969.015c-1.406-1.051-1.614-3.1-2.6-4.569a4.768,4.768,0,0,0-6.437-1.261,15.331,15.331,0,0,0-2.872,3.314c-.92,1.145-2.235,2.185-3.674,2-2-.25-2.986-2.549-3.665-4.49s-1.9-4.2-3.912-4.145a3.42,3.42,0,0,0-1.81.666c-1.8,1.235-2.737,3.382-4.017,5.169s-3.418,3.378-5.475,2.676c-1.771-.6-2.629-2.581-3.586-4.221s-2.739-3.273-4.471-2.573c-1.629.655-1.946,2.837-2.977,4.282a4.455,4.455,0,0,1-4.543,1.729,4.585,4.585,0,0,1-3.35-3.593v11.884H362.922a3.131,3.131,0,0,0,3.131-3.131v-7.339c-.064.166-.127.333-.193.5A6.933,6.933,0,0,1,363.3,443.575Z" transform="translate(-10.045 -433.747)"/><path class="b" d="M363.132,450.9H10.255V438.55l.913-.081a4.112,4.112,0,0,0,3,3.229,3.978,3.978,0,0,0,4.061-1.55,9.872,9.872,0,0,0,.85-1.583c.536-1.16,1.092-2.358,2.329-2.857,1.918-.773,3.915.832,5.042,2.769.142.243.282.491.422.742.771,1.384,1.57,2.818,2.914,3.277,1.881.637,3.84-.955,4.954-2.511.357-.5.688-1.029,1.02-1.557a11.916,11.916,0,0,1,3.109-3.722,3.821,3.821,0,0,1,2.058-.747h.081c1.78,0,3.258,1.537,4.278,4.453.683,1.953,1.607,3.974,3.288,4.184,1.4.166,2.647-1.075,3.258-1.835.25-.311.486-.635.723-.959a9.779,9.779,0,0,1,2.248-2.445,5.01,5.01,0,0,1,3.777-.733,5.124,5.124,0,0,1,3.3,2.117,10.587,10.587,0,0,1,.955,1.959,5.546,5.546,0,0,0,1.537,2.5,3.144,3.144,0,0,0,3.452-.037A6.406,6.406,0,0,0,70.2,440.05c.09-.221.175-.444.261-.668.528-1.381,1.128-2.945,2.945-3.492a4.644,4.644,0,0,1,4.107.9,12.333,12.333,0,0,1,3.284,4.652c.276.563.556,1.128.86,1.673.711,1.265,2.222,3.405,4.374,3.54a4.422,4.422,0,0,0,3.823-2.172,9.871,9.871,0,0,0,1.4-4.679l.013-.142c.1-1.187.223-2.529,1.2-3.358a2.407,2.407,0,0,1,1.817-.573c1.8.156,3.488,2.04,3.965,2.614,1.427,1.716,3.2,3.856,5.508,4.843,2.06.874,4.948.607,6.218-1.364a8.034,8.034,0,0,0,.607-1.25c.709-1.694,1.515-3.619,6.095-3.242a3.962,3.962,0,0,1,2.811,1.421,10.048,10.048,0,0,1,1.219,2.189c.2.451.407.9.65,1.327.53.922,1.535,1.929,2.632,1.752a3.446,3.446,0,0,0,1.666-1.047,9.412,9.412,0,0,0,1.574-2.537c.8-1.62,1.627-3.3,3.249-3.812,1.592-.541,3.2.429,4.175,1.509a14.648,14.648,0,0,1,1.359,1.861,15.678,15.678,0,0,0,1.117,1.574,7.582,7.582,0,0,0,6.205,2.656,3.464,3.464,0,0,0,1.971-.648c.891-.716,1.145-2.021,1.388-3.286.046-.243.094-.486.145-.725.364-1.7,1.419-3.683,3.306-3.578,1.46.063,2.4,1.373,3.122,2.645a18.737,18.737,0,0,0,1.743,2.708,7.6,7.6,0,0,0,6.038,2.87c1.375.309,4.151-2.476,5.281-4.061a10.014,10.014,0,0,0,.849-1.583c.536-1.16,1.092-2.358,2.33-2.857,1.922-.779,3.915.832,5.042,2.769.14.241.28.49.418.738.773,1.386,1.572,2.82,2.916,3.28,1.878.635,3.84-.954,4.954-2.511.359-.5.688-1.027,1.018-1.554a11.915,11.915,0,0,1,3.111-3.726,3.822,3.822,0,0,1,2.06-.747h.081c1.778,0,3.256,1.537,4.276,4.453.685,1.953,1.609,3.974,3.288,4.184,1.4.166,2.647-1.075,3.258-1.835.25-.311.488-.635.723-.959a9.806,9.806,0,0,1,2.246-2.445,5.027,5.027,0,0,1,3.781-.733,5.119,5.119,0,0,1,3.3,2.117,10.588,10.588,0,0,1,.955,1.959,5.546,5.546,0,0,0,1.537,2.5,3.141,3.141,0,0,0,3.452-.037,6.385,6.385,0,0,0,2.376-3.109c.09-.221.177-.444.261-.668.53-1.381,1.128-2.945,2.945-3.492a4.647,4.647,0,0,1,4.109.9,12.349,12.349,0,0,1,3.282,4.652c.278.563.556,1.128.861,1.673.709,1.265,2.22,3.405,4.374,3.54a4.48,4.48,0,0,0,3.822-2.172,9.864,9.864,0,0,0,1.4-4.679l.013-.142c.1-1.187.223-2.529,1.2-3.358a2.4,2.4,0,0,1,1.815-.573c1.747.151,3.356,1.878,3.965,2.612,1.751,2.11,3.374,3.932,5.508,4.845,2.064.88,4.95.611,6.218-1.364a8.029,8.029,0,0,0,.607-1.25c.707-1.694,1.508-3.63,6.095-3.242a3.97,3.97,0,0,1,2.813,1.421,10.127,10.127,0,0,1,1.215,2.185c.2.451.409.9.653,1.331.528.922,1.532,1.927,2.631,1.752a3.429,3.429,0,0,0,1.666-1.047,9.352,9.352,0,0,0,1.576-2.538c.8-1.62,1.625-3.293,3.247-3.81,1.594-.532,3.2.429,4.175,1.509a14.93,14.93,0,0,1,1.357,1.859,16.021,16.021,0,0,0,1.119,1.576,7.592,7.592,0,0,0,6.205,2.656,3.464,3.464,0,0,0,1.971-.648c.893-.716,1.145-2.021,1.388-3.286.048-.243.094-.486.145-.725.364-1.7,1.445-3.683,3.306-3.578,1.463.063,2.4,1.373,3.122,2.647a18.816,18.816,0,0,0,1.743,2.706,8.506,8.506,0,0,0,6.4,3.067c1.511-.035,2.743-1.894,3.643-3.253.186-.278.359-.541.521-.769a9.881,9.881,0,0,0,.85-1.583c.536-1.16,1.092-2.358,2.33-2.857,1.914-.777,3.912.83,5.04,2.769.142.243.282.491.422.742.771,1.384,1.57,2.818,2.914,3.277,1.874.637,3.838-.952,4.954-2.509.357-.5.688-1.027,1.018-1.555a11.914,11.914,0,0,1,3.111-3.726,3.807,3.807,0,0,1,2.06-.747h.079c1.778,0,3.256,1.537,4.278,4.453.683,1.951,1.607,3.974,3.288,4.184,1.4.179,2.647-1.075,3.258-1.835.249-.309.486-.631.72-.955a9.8,9.8,0,0,1,2.25-2.448,5.032,5.032,0,0,1,3.779-.733,5.119,5.119,0,0,1,3.3,2.117,10.6,10.6,0,0,1,.955,1.96,5.54,5.54,0,0,0,1.537,2.5,3.138,3.138,0,0,0,3.452-.039h0a6.366,6.366,0,0,0,2.375-3.107l1.04-2.7.04,2.378V447.3A3.6,3.6,0,0,1,363.132,450.9Zm-351.957-.92H363.132A2.674,2.674,0,0,0,365.8,447.3v-5.289a6.359,6.359,0,0,1-2.049,2.161h0a4.024,4.024,0,0,1-4.486-.009,6.245,6.245,0,0,1-1.841-2.886,9.7,9.7,0,0,0-.867-1.793,4.2,4.2,0,0,0-2.71-1.727,4.093,4.093,0,0,0-3.083.587,8.992,8.992,0,0,0-2.027,2.231c-.245.335-.49.67-.747.99-1.265,1.572-2.713,2.343-4.092,2.172-2.178-.273-3.264-2.575-4.039-4.792-.617-1.758-1.706-3.838-3.413-3.838h-.055a2.916,2.916,0,0,0-1.559.585,11.024,11.024,0,0,0-2.853,3.455c-.341.545-.681,1.088-1.051,1.6-1.3,1.813-3.65,3.641-6,2.842-1.679-.571-2.6-2.233-3.422-3.695-.136-.247-.272-.491-.41-.729-.694-1.189-2.3-3.019-3.9-2.38-.9.363-1.357,1.347-1.839,2.391a10.841,10.841,0,0,1-.935,1.732c-.158.219-.326.473-.5.744-1.012,1.528-2.4,3.617-4.405,3.663a9.443,9.443,0,0,1-7.115-3.4,18.884,18.884,0,0,1-1.793-2.763c-.641-1.128-1.39-2.213-2.4-2.255-.022,0-.041,0-.063,0-1.169,0-2,1.421-2.3,2.853-.05.232-.1.469-.142.707-.263,1.359-.56,2.9-1.716,3.829a4.327,4.327,0,0,1-2.481.847,8.43,8.43,0,0,1-6.975-2.98,16.869,16.869,0,0,1-1.187-1.664,13.831,13.831,0,0,0-1.268-1.749c-.742-.825-2.029-1.649-3.207-1.248-1.255.4-1.994,1.894-2.708,3.341a10.1,10.1,0,0,1-1.762,2.8,4.24,4.24,0,0,1-2.156,1.292c-1.559.265-2.87-.97-3.579-2.2-.263-.458-.482-.943-.692-1.41a9.26,9.26,0,0,0-1.1-1.994,3.046,3.046,0,0,0-2.163-1.075c-3.928-.32-4.5,1.071-5.174,2.68a8.91,8.91,0,0,1-.681,1.392c-1.589,2.472-4.972,2.726-7.354,1.712-2.515-1.073-4.366-3.306-5.856-5.1-.861-1.036-2.191-2.183-3.336-2.283a1.48,1.48,0,0,0-1.141.357,3.988,3.988,0,0,0-.878,2.737l-.013.144a10.708,10.708,0,0,1-1.548,5.1,5.268,5.268,0,0,1-4.648,2.584c-2.588-.16-4.317-2.581-5.119-4.009-.311-.558-.6-1.136-.884-1.716a11.434,11.434,0,0,0-3.015-4.328,3.728,3.728,0,0,0-3.282-.747c-1.386.418-1.856,1.644-2.353,2.942-.088.232-.177.464-.271.69a7.283,7.283,0,0,1-2.741,3.54,4.021,4.021,0,0,1-4.486-.009,6.261,6.261,0,0,1-1.841-2.888,9.737,9.737,0,0,0-.867-1.791,4.2,4.2,0,0,0-2.708-1.727,4.1,4.1,0,0,0-3.085.587,9.034,9.034,0,0,0-2.025,2.227c-.245.335-.49.674-.749.994-1.265,1.572-2.719,2.353-4.09,2.174-2.178-.274-3.266-2.577-4.041-4.793-.615-1.758-1.7-3.838-3.413-3.838h-.055a2.914,2.914,0,0,0-1.559.585,11.084,11.084,0,0,0-2.853,3.453c-.341.545-.681,1.09-1.049,1.6-1.3,1.813-3.645,3.643-6,2.844-1.679-.572-2.607-2.233-3.424-3.7-.136-.247-.271-.49-.409-.725-.692-1.187-2.294-3.015-3.9-2.38-.9.363-1.357,1.349-1.839,2.391a10.839,10.839,0,0,1-.935,1.732c-.76,1.064-4.015,4.948-6.139,4.434a8.384,8.384,0,0,1-6.638-3.194,18.889,18.889,0,0,1-1.793-2.763c-.641-1.128-1.392-2.213-2.4-2.255-.022,0-.041,0-.063,0-1.169,0-2,1.421-2.3,2.853-.05.232-.1.469-.142.707-.263,1.359-.56,2.9-1.716,3.829a4.328,4.328,0,0,1-2.483.847,8.428,8.428,0,0,1-6.975-2.98,16.818,16.818,0,0,1-1.184-1.662,13.867,13.867,0,0,0-1.272-1.751c-.74-.825-2.018-1.653-3.2-1.248-1.255.4-1.994,1.894-2.708,3.341a10.1,10.1,0,0,1-1.763,2.8,4.235,4.235,0,0,1-2.154,1.292c-1.555.265-2.87-.97-3.579-2.2-.26-.451-.477-.93-.692-1.408a9.322,9.322,0,0,0-1.1-2,3.05,3.05,0,0,0-2.163-1.075c-3.932-.315-4.5,1.073-5.174,2.68a9,9,0,0,1-.681,1.392c-1.59,2.474-4.976,2.728-7.354,1.712-2.513-1.073-4.366-3.306-5.856-5.1-.862-1.038-2.192-2.185-3.336-2.284a1.476,1.476,0,0,0-1.141.357,3.976,3.976,0,0,0-.878,2.737l-.013.144a10.715,10.715,0,0,1-1.548,5.1,5.326,5.326,0,0,1-4.648,2.584c-2.588-.16-4.319-2.581-5.119-4.009-.313-.558-.6-1.136-.884-1.716a11.448,11.448,0,0,0-3.015-4.328,3.73,3.73,0,0,0-3.284-.747c-1.384.418-1.854,1.644-2.351,2.942-.088.232-.179.464-.271.69a7.279,7.279,0,0,1-2.743,3.54,4.024,4.024,0,0,1-4.486-.009,6.276,6.276,0,0,1-1.841-2.888,9.617,9.617,0,0,0-.865-1.791,4.193,4.193,0,0,0-2.708-1.727,4.092,4.092,0,0,0-3.085.587,9,9,0,0,0-2.025,2.227c-.245.335-.49.674-.749.994-1.265,1.572-2.724,2.353-4.09,2.174-2.18-.274-3.266-2.577-4.042-4.793-.615-1.758-1.7-3.838-3.411-3.838h-.055a2.914,2.914,0,0,0-1.559.585,11.071,11.071,0,0,0-2.851,3.451c-.342.545-.683,1.09-1.053,1.605-1.3,1.813-3.65,3.645-6,2.844-1.679-.571-2.6-2.233-3.422-3.694-.138-.247-.272-.491-.411-.729-.692-1.187-2.292-3.015-3.9-2.38-.9.363-1.355,1.349-1.837,2.391a10.84,10.84,0,0,1-.935,1.732,4.916,4.916,0,0,1-5.024,1.909,4.937,4.937,0,0,1-2.785-1.876Z" transform="translate(-10.255 -433.957)"/></g><path class="c" d="M10.505,432.4v7.453a4.585,4.585,0,0,0,3.35,3.593,4.454,4.454,0,0,0,4.543-1.729c1.031-1.445,1.347-3.626,2.977-4.282,1.732-.7,3.516.931,4.471,2.573s1.815,3.617,3.586,4.221c2.056.7,4.193-.887,5.475-2.676s2.218-3.934,4.017-5.169a3.42,3.42,0,0,1,1.81-.666c2.01-.052,3.232,2.205,3.912,4.146s1.668,4.239,3.665,4.49c1.44.18,2.754-.86,3.674-2a15.332,15.332,0,0,1,2.872-3.314,4.768,4.768,0,0,1,6.437,1.261c.985,1.469,1.193,3.518,2.6,4.569a3.6,3.6,0,0,0,3.969-.015,6.933,6.933,0,0,0,2.559-3.324c.637-1.543,1.044-3.332,2.914-3.9a4.194,4.194,0,0,1,3.7.821c2.016,1.546,2.809,4.022,4.02,6.185,1.042,1.856,2.662,3.645,4.747,3.775a4.947,4.947,0,0,0,4.234-2.38,10.491,10.491,0,0,0,1.474-4.891c.1-1.151.184-2.452,1.051-3.188,1.568-1.331,3.809.392,5.129,1.983,1.631,1.962,3.361,3.98,5.683,4.972s5.4.613,6.785-1.535c1.224-1.909.854-4.72,6.279-4.284a3.512,3.512,0,0,1,2.489,1.248,26.58,26.58,0,0,1,1.83,3.461c.657,1.145,1.824,2.187,3.1,1.977a3.813,3.813,0,0,0,1.911-1.171c1.682-1.614,2.257-5.482,4.644-6.24a3.678,3.678,0,0,1,3.693,1.377c.941,1.044,1.561,2.349,2.465,3.424a8.021,8.021,0,0,0,6.592,2.818,3.953,3.953,0,0,0,2.226-.747c1.209-.97,1.366-2.737,1.7-4.273s1.3-3.28,2.837-3.216c1.259.053,2.108,1.3,2.741,2.413a19.06,19.06,0,0,0,1.789,2.772,8.07,8.07,0,0,0,6.391,3.037c1.668.4,4.648-2.839,5.657-4.252,1.033-1.445,1.349-3.626,2.977-4.282,1.734-.7,3.516.931,4.473,2.573s1.813,3.617,3.584,4.221c2.058.7,4.193-.887,5.475-2.676s2.218-3.934,4.017-5.169a3.42,3.42,0,0,1,1.81-.666c2.01-.052,3.234,2.205,3.914,4.146s1.666,4.239,3.663,4.49c1.439.18,2.754-.86,3.674-2a15.383,15.383,0,0,1,2.872-3.314,4.768,4.768,0,0,1,6.437,1.261c.985,1.469,1.193,3.518,2.6,4.569a3.6,3.6,0,0,0,3.969-.015,6.922,6.922,0,0,0,2.559-3.324c.639-1.543,1.044-3.332,2.916-3.9a4.191,4.191,0,0,1,3.695.821c2.018,1.546,2.809,4.022,4.022,6.185,1.04,1.856,2.662,3.645,4.746,3.775a4.953,4.953,0,0,0,4.236-2.38,10.51,10.51,0,0,0,1.473-4.891c.1-1.151.184-2.452,1.053-3.188,1.568-1.331,3.807.392,5.128,1.983,1.629,1.962,3.359,3.98,5.681,4.972s5.406.613,6.785-1.535c1.226-1.909.854-4.72,6.279-4.284a3.512,3.512,0,0,1,2.489,1.248,26.359,26.359,0,0,1,1.83,3.461c.657,1.145,1.826,2.187,3.105,1.977a3.808,3.808,0,0,0,1.909-1.171c1.683-1.614,2.257-5.482,4.644-6.24a3.683,3.683,0,0,1,3.695,1.377c.939,1.044,1.559,2.349,2.465,3.424a8.015,8.015,0,0,0,6.59,2.818,3.948,3.948,0,0,0,2.226-.747c1.209-.97,1.366-2.737,1.7-4.273s1.3-3.28,2.837-3.216c1.259.053,2.108,1.3,2.743,2.413a18.905,18.905,0,0,0,1.789,2.772,8.987,8.987,0,0,0,6.75,3.234c2.1-.046,3.534-2.8,4.543-4.214,1.031-1.445,1.348-3.626,2.977-4.282,1.732-.7,3.516.931,4.471,2.573s1.815,3.617,3.586,4.221c2.056.7,4.193-.887,5.475-2.677s2.218-3.934,4.017-5.169a3.421,3.421,0,0,1,1.81-.666c2.01-.052,3.232,2.205,3.912,4.145s1.668,4.239,3.665,4.49c1.44.18,2.754-.86,3.674-2a15.326,15.326,0,0,1,2.872-3.313,4.768,4.768,0,0,1,6.437,1.261c.985,1.469,1.193,3.518,2.6,4.569a3.6,3.6,0,0,0,3.969-.015,6.933,6.933,0,0,0,2.559-3.324c.066-.162.129-.33.193-.5v-6.78a2.088,2.088,0,0,0-2.087-2.087Z" transform="translate(-10.045 -431.944)"/><path class="b" d="M86.242,449.093c-.088,0-.177,0-.263-.005-2.588-.162-4.319-2.583-5.119-4.011-.313-.558-.6-1.136-.884-1.716a11.448,11.448,0,0,0-3.015-4.328,3.73,3.73,0,0,0-3.284-.747c-1.384.418-1.854,1.644-2.351,2.942-.088.232-.179.464-.271.69a7.279,7.279,0,0,1-2.743,3.54,4.024,4.024,0,0,1-4.486-.009,6.275,6.275,0,0,1-1.841-2.888,9.615,9.615,0,0,0-.865-1.791,4.193,4.193,0,0,0-2.708-1.727,4.092,4.092,0,0,0-3.085.587,9,9,0,0,0-2.025,2.227c-.245.335-.49.674-.749.994-1.265,1.572-2.724,2.352-4.09,2.174-2.18-.274-3.266-2.577-4.042-4.793-.615-1.758-1.7-3.838-3.411-3.838h-.055a2.915,2.915,0,0,0-1.559.585,11.072,11.072,0,0,0-2.851,3.451c-.342.545-.683,1.09-1.053,1.605-1.3,1.813-3.65,3.645-6,2.844-1.679-.571-2.6-2.233-3.422-3.694-.138-.247-.272-.491-.411-.729-.692-1.187-2.292-3.015-3.9-2.38-.9.363-1.355,1.349-1.837,2.391a10.841,10.841,0,0,1-.935,1.732,4.916,4.916,0,0,1-5.024,1.909,5.057,5.057,0,0,1-3.7-3.961l-.007-7.993H364.176a2.551,2.551,0,0,1,2.548,2.548l-.031,6.945-.2.506a7.269,7.269,0,0,1-2.739,3.54,4.023,4.023,0,0,1-4.486-.009,6.245,6.245,0,0,1-1.841-2.886A9.7,9.7,0,0,0,356.56,441a4.2,4.2,0,0,0-2.71-1.727,4.093,4.093,0,0,0-3.083.587,8.992,8.992,0,0,0-2.027,2.231c-.245.335-.49.67-.747.99-1.265,1.572-2.713,2.343-4.092,2.172-2.178-.272-3.264-2.575-4.039-4.792-.617-1.758-1.706-3.838-3.413-3.838h-.055a2.915,2.915,0,0,0-1.559.585,11.024,11.024,0,0,0-2.853,3.455c-.341.545-.681,1.088-1.051,1.6-1.3,1.813-3.65,3.641-6,2.842-1.679-.571-2.6-2.233-3.422-3.695-.136-.247-.272-.491-.41-.729-.694-1.189-2.3-3.019-3.9-2.38-.9.363-1.357,1.347-1.839,2.391a10.84,10.84,0,0,1-.935,1.732c-.158.219-.326.473-.5.744-1.012,1.528-2.4,3.617-4.405,3.663a9.443,9.443,0,0,1-7.115-3.4,18.889,18.889,0,0,1-1.793-2.763c-.641-1.128-1.39-2.213-2.4-2.255-.022,0-.041,0-.063,0-1.169,0-2,1.421-2.3,2.853-.05.232-.1.469-.142.707-.263,1.359-.56,2.9-1.716,3.829a4.327,4.327,0,0,1-2.481.847,8.446,8.446,0,0,1-6.975-2.98,16.876,16.876,0,0,1-1.187-1.664,13.831,13.831,0,0,0-1.268-1.749c-.742-.825-2.029-1.649-3.207-1.248-1.255.4-1.994,1.894-2.708,3.341a10.1,10.1,0,0,1-1.762,2.8,4.24,4.24,0,0,1-2.156,1.292c-1.559.265-2.87-.97-3.579-2.2-.263-.458-.482-.943-.692-1.41a9.261,9.261,0,0,0-1.1-1.994,3.047,3.047,0,0,0-2.163-1.075c-3.928-.32-4.5,1.071-5.174,2.68a8.914,8.914,0,0,1-.681,1.392c-1.589,2.472-4.972,2.726-7.354,1.712-2.515-1.073-4.366-3.306-5.856-5.1-.861-1.036-2.191-2.183-3.336-2.283a1.48,1.48,0,0,0-1.141.357,3.988,3.988,0,0,0-.878,2.737l-.013.144a10.708,10.708,0,0,1-1.548,5.1,5.353,5.353,0,0,1-4.648,2.586c-2.588-.162-4.317-2.583-5.119-4.011-.311-.558-.6-1.136-.884-1.716a11.434,11.434,0,0,0-3.015-4.328,3.728,3.728,0,0,0-3.282-.747c-1.386.418-1.856,1.644-2.353,2.942-.088.232-.177.464-.271.69a7.283,7.283,0,0,1-2.741,3.54,4.021,4.021,0,0,1-4.486-.009,6.261,6.261,0,0,1-1.841-2.888,9.735,9.735,0,0,0-.867-1.791,4.2,4.2,0,0,0-2.708-1.727,4.1,4.1,0,0,0-3.085.587,9.035,9.035,0,0,0-2.025,2.227c-.245.335-.49.674-.749.994-1.265,1.572-2.719,2.352-4.09,2.174-2.178-.274-3.266-2.577-4.041-4.793-.615-1.758-1.7-3.838-3.413-3.838h-.055a2.915,2.915,0,0,0-1.559.585,11.084,11.084,0,0,0-2.853,3.453c-.341.545-.681,1.09-1.049,1.6-1.3,1.813-3.645,3.643-6,2.844-1.679-.572-2.607-2.233-3.424-3.7-.136-.247-.271-.49-.409-.725-.692-1.187-2.294-3.015-3.9-2.38-.9.363-1.357,1.349-1.839,2.391a10.841,10.841,0,0,1-.935,1.732c-.76,1.064-4.015,4.948-6.139,4.434a8.384,8.384,0,0,1-6.638-3.194,18.894,18.894,0,0,1-1.793-2.763c-.641-1.128-1.392-2.213-2.4-2.255-.022,0-.041,0-.063,0-1.169,0-2,1.421-2.3,2.853-.05.232-.1.469-.142.707-.263,1.359-.56,2.9-1.716,3.829a4.328,4.328,0,0,1-2.483.847,8.428,8.428,0,0,1-6.975-2.98,16.814,16.814,0,0,1-1.184-1.662,13.867,13.867,0,0,0-1.272-1.751c-.74-.825-2.018-1.653-3.2-1.248-1.255.4-1.994,1.894-2.708,3.341a10.1,10.1,0,0,1-1.763,2.8,4.235,4.235,0,0,1-2.154,1.292c-1.555.265-2.87-.97-3.579-2.2-.26-.451-.477-.93-.692-1.408a9.322,9.322,0,0,0-1.1-2,3.05,3.05,0,0,0-2.163-1.075c-3.923-.315-4.5,1.071-5.174,2.68a9,9,0,0,1-.681,1.392c-1.59,2.474-4.976,2.728-7.354,1.712-2.513-1.073-4.366-3.306-5.856-5.1-.862-1.038-2.192-2.185-3.336-2.284a1.476,1.476,0,0,0-1.141.357,3.976,3.976,0,0,0-.878,2.737l-.013.144a10.715,10.715,0,0,1-1.548,5.1A5.427,5.427,0,0,1,86.242,449.093ZM74.547,437.242a4.932,4.932,0,0,1,2.971,1.06,12.333,12.333,0,0,1,3.284,4.652c.276.563.556,1.128.86,1.673.711,1.265,2.222,3.405,4.374,3.54a4.422,4.422,0,0,0,3.823-2.172,9.871,9.871,0,0,0,1.4-4.679l.013-.142c.1-1.187.223-2.529,1.2-3.358a2.408,2.408,0,0,1,1.817-.573c1.8.156,3.488,2.04,3.965,2.612,1.427,1.717,3.2,3.858,5.508,4.845,2.06.874,4.948.607,6.218-1.364a8.038,8.038,0,0,0,.607-1.25c.709-1.694,1.515-3.619,6.095-3.242a3.962,3.962,0,0,1,2.811,1.421,10.049,10.049,0,0,1,1.219,2.189c.2.449.407.9.65,1.327.53.922,1.535,1.929,2.632,1.752a3.446,3.446,0,0,0,1.666-1.047,9.412,9.412,0,0,0,1.574-2.537c.8-1.62,1.627-3.3,3.249-3.812,1.592-.541,3.2.429,4.175,1.509a14.641,14.641,0,0,1,1.359,1.861,15.68,15.68,0,0,0,1.117,1.574,7.582,7.582,0,0,0,6.205,2.656,3.463,3.463,0,0,0,1.971-.648c.891-.716,1.145-2.021,1.388-3.286.046-.243.094-.486.145-.725.364-1.7,1.419-3.683,3.306-3.578,1.46.063,2.4,1.373,3.122,2.645a18.737,18.737,0,0,0,1.743,2.708,7.6,7.6,0,0,0,6.038,2.87c1.373.305,4.151-2.478,5.281-4.061a10.018,10.018,0,0,0,.849-1.583c.536-1.16,1.092-2.358,2.33-2.857,1.922-.779,3.915.834,5.042,2.769.14.241.28.49.418.738.773,1.386,1.572,2.82,2.916,3.28,1.878.635,3.84-.954,4.954-2.511.359-.5.688-1.027,1.018-1.554a11.915,11.915,0,0,1,3.111-3.726,3.821,3.821,0,0,1,2.06-.747l.081,0c1.778,0,3.256,1.539,4.276,4.455.685,1.953,1.609,3.974,3.288,4.184,1.4.166,2.647-1.075,3.258-1.835.25-.311.488-.635.723-.959a9.807,9.807,0,0,1,2.246-2.445,5.027,5.027,0,0,1,3.781-.733,5.12,5.12,0,0,1,3.3,2.117,10.587,10.587,0,0,1,.955,1.959,5.546,5.546,0,0,0,1.537,2.5,3.141,3.141,0,0,0,3.452-.037,6.384,6.384,0,0,0,2.376-3.109c.09-.219.177-.444.261-.668.53-1.381,1.128-2.945,2.945-3.492a4.647,4.647,0,0,1,4.109.9,12.349,12.349,0,0,1,3.282,4.652c.278.563.556,1.128.861,1.673.709,1.265,2.22,3.405,4.374,3.54a4.48,4.48,0,0,0,3.822-2.172,9.863,9.863,0,0,0,1.4-4.679l.013-.142c.1-1.187.223-2.529,1.2-3.358a2.413,2.413,0,0,1,1.815-.573c1.747.151,3.356,1.878,3.965,2.612,1.751,2.11,3.374,3.932,5.508,4.845,2.064.88,4.95.607,6.218-1.364a8.032,8.032,0,0,0,.607-1.25c.707-1.694,1.508-3.63,6.095-3.242a3.97,3.97,0,0,1,2.813,1.421,10.129,10.129,0,0,1,1.215,2.185c.2.451.409.9.653,1.331.528.922,1.532,1.927,2.631,1.752a3.429,3.429,0,0,0,1.666-1.047,9.352,9.352,0,0,0,1.576-2.538c.8-1.62,1.625-3.293,3.247-3.81,1.594-.532,3.2.429,4.175,1.509a14.927,14.927,0,0,1,1.357,1.859,16.017,16.017,0,0,0,1.119,1.576,7.592,7.592,0,0,0,6.205,2.656,3.463,3.463,0,0,0,1.971-.648c.893-.716,1.145-2.021,1.388-3.286.048-.243.094-.486.145-.725.364-1.7,1.445-3.683,3.306-3.578,1.463.063,2.4,1.373,3.122,2.647a18.816,18.816,0,0,0,1.743,2.706,8.506,8.506,0,0,0,6.4,3.067c1.511-.035,2.743-1.894,3.643-3.253.186-.278.359-.541.521-.769a9.88,9.88,0,0,0,.85-1.583c.536-1.16,1.092-2.358,2.33-2.857,1.914-.777,3.912.83,5.04,2.769.142.243.282.491.422.742.771,1.384,1.57,2.818,2.914,3.277,1.874.637,3.838-.952,4.954-2.509.357-.5.688-1.027,1.018-1.555a11.914,11.914,0,0,1,3.111-3.726,3.807,3.807,0,0,1,2.06-.747l.079,0c1.778,0,3.256,1.539,4.278,4.455.683,1.951,1.607,3.974,3.288,4.184,1.4.179,2.647-1.075,3.258-1.835.249-.309.486-.631.72-.955a9.8,9.8,0,0,1,2.25-2.448,5.032,5.032,0,0,1,3.779-.733,5.119,5.119,0,0,1,3.3,2.117,10.6,10.6,0,0,1,.955,1.96,5.54,5.54,0,0,0,1.537,2.5,3.138,3.138,0,0,0,3.452-.039,6.366,6.366,0,0,0,2.375-3.107l.149-.381.011-6.719a1.63,1.63,0,0,0-1.627-1.627h-353v6.991a4.1,4.1,0,0,0,3,3.148,3.978,3.978,0,0,0,4.061-1.55,9.875,9.875,0,0,0,.85-1.583c.536-1.16,1.092-2.358,2.329-2.857,1.918-.773,3.915.832,5.042,2.769.142.243.282.491.422.742.771,1.384,1.57,2.818,2.914,3.277,1.881.637,3.84-.955,4.954-2.511.357-.5.688-1.029,1.02-1.557a11.916,11.916,0,0,1,3.109-3.722,3.821,3.821,0,0,1,2.058-.747l.081,0c1.78,0,3.258,1.539,4.278,4.455.683,1.953,1.607,3.974,3.288,4.184,1.4.166,2.647-1.075,3.258-1.835.25-.311.486-.635.723-.959a9.78,9.78,0,0,1,2.248-2.445,5.01,5.01,0,0,1,3.777-.733,5.124,5.124,0,0,1,3.3,2.117,10.586,10.586,0,0,1,.955,1.959,5.546,5.546,0,0,0,1.537,2.5,3.137,3.137,0,0,0,3.452-.039,6.391,6.391,0,0,0,2.376-3.107c.09-.219.175-.444.261-.668.528-1.381,1.128-2.945,2.945-3.492A3.924,3.924,0,0,1,74.547,437.242Z" transform="translate(-10.255 -432.154)"/></svg>