<svg xmlns="http://www.w3.org/2000/svg" width="139.531" height="20.26" viewBox="0 0 139.531 20.26"><defs><style>.a{fill:#84836f;}.b{fill:#7c411e;}.c{fill:#892500;}</style></defs><g transform="translate(0 3.302)"><path class="a" d="M368.414,446.657c-1.62.654-1.935,2.824-2.963,4.263-1,1.408-2.434,4.149-4.523,4.195a8.947,8.947,0,0,1-6.72-3.22,18.82,18.82,0,0,1-1.781-2.76c-.632-1.111-1.475-2.349-2.729-2.4-1.53-.064-2.5,1.671-2.824,3.2s-.486,3.288-1.688,4.254a3.94,3.94,0,0,1-2.218.744,7.974,7.974,0,0,1-6.561-2.806c-.9-1.07-1.519-2.37-2.454-3.409a3.664,3.664,0,0,0-3.678-1.371c-2.377.755-2.949,4.605-4.622,6.213a3.812,3.812,0,0,1-1.9,1.167c-1.274.207-2.437-.83-3.092-1.97a25.132,25.132,0,0,0-1.846-3.475,4.772,4.772,0,0,0-7.507.561c-.467.794-.7,1.717-1.2,2.491-1.374,2.139-4.444,2.518-6.755,1.529s-4.036-2.995-5.657-4.95c-1.316-1.583-3.544-3.3-5.106-1.974-.865.733-.946,2.031-1.048,3.174a10.45,10.45,0,0,1-1.466,4.871,4.933,4.933,0,0,1-4.217,2.368c-2.075-.13-3.689-1.911-4.725-3.759s-1.763-3.924-3.216-5.447-4-2.283-5.6-.918a8.111,8.111,0,0,0-1.772,3.268A6.875,6.875,0,0,1,268,453.8a3.584,3.584,0,0,1-3.951.015c-1.4-1.047-1.607-3.086-2.588-4.549a4.745,4.745,0,0,0-6.407-1.255,15.209,15.209,0,0,0-2.859,3.3c-.918,1.14-2.225,2.175-3.66,2-1.988-.249-2.971-2.538-3.647-4.47s-1.893-4.178-3.9-4.127a3.405,3.405,0,0,0-1.8.663c-1.789,1.23-2.723,3.367-4,5.148-1.07,1.5-2.747,2.835-4.47,2.815v1.528a5.794,5.794,0,0,0,5.795,5.793H363.453a5.793,5.793,0,0,0,5.795-5.793V446.51A2.2,2.2,0,0,0,368.414,446.657Z" transform="translate(-230.221 -444.206)"/><path class="b" d="M363.682,461.394H236.749a6.306,6.306,0,0,1-6.3-6.3v-2.038l.509.006.033,0c1.589,0,3.117-1.343,4.023-2.606.356-.5.682-1.021,1.012-1.545a11.863,11.863,0,0,1,3.11-3.724,3.844,3.844,0,0,1,2.073-.751c1.8-.092,3.345,1.494,4.386,4.463.676,1.93,1.589,3.931,3.235,4.138,1.387.172,2.6-1.061,3.2-1.813.247-.308.484-.63.718-.955A9.816,9.816,0,0,1,255,447.83a5.05,5.05,0,0,1,3.8-.737,5.137,5.137,0,0,1,3.317,2.126,10.567,10.567,0,0,1,.953,1.959,5.463,5.463,0,0,0,1.517,2.465,3.077,3.077,0,0,0,3.383-.039,6.3,6.3,0,0,0,2.348-3.073c.09-.218.176-.442.262-.669a6.528,6.528,0,0,1,1.648-2.789c1.829-1.567,4.69-.726,6.29.955a15.067,15.067,0,0,1,2.434,3.883c.277.561.553,1.122.858,1.662.7,1.25,2.2,3.37,4.316,3.5a4.448,4.448,0,0,0,3.764-2.144,9.748,9.748,0,0,0,1.387-4.635l.013-.137c.1-1.191.222-2.538,1.21-3.378a2.421,2.421,0,0,1,1.842-.583c1.758.154,3.367,1.886,3.977,2.621,1.418,1.708,3.183,3.83,5.467,4.807,2.034.871,4.886.607,6.134-1.336a7.921,7.921,0,0,0,.6-1.239,10.226,10.226,0,0,1,.586-1.237,5.275,5.275,0,0,1,8.333-.621,9.848,9.848,0,0,1,1.246,2.225c.2.445.4.894.645,1.318.519.9,1.5,1.9,2.571,1.721a3.287,3.287,0,0,0,1.635-1.032,9.28,9.28,0,0,0,1.56-2.514c.8-1.62,1.627-3.3,3.26-3.816,1.6-.546,3.227.427,4.2,1.516a14.687,14.687,0,0,1,1.358,1.86,15.983,15.983,0,0,0,1.109,1.56,7.52,7.52,0,0,0,6.139,2.628,3.4,3.4,0,0,0,1.935-.634c.876-.7,1.125-2,1.365-3.244.048-.244.1-.487.147-.724.367-1.71,1.433-3.684,3.337-3.6,1.477.06,2.419,1.376,3.147,2.656a18.494,18.494,0,0,0,1.73,2.687,8.414,8.414,0,0,0,6.337,3.037c1.483-.029,2.7-1.871,3.59-3.218.185-.277.357-.537.521-.766a10.026,10.026,0,0,0,.841-1.569c.537-1.162,1.094-2.362,2.342-2.866l0,0a2.727,2.727,0,0,1,1.017-.183l.508,0V455.1A6.306,6.306,0,0,1,363.682,461.394Zm-132.224-7.349V455.1a5.3,5.3,0,0,0,5.291,5.289H363.682a5.3,5.3,0,0,0,5.291-5.289v-7.791a1.189,1.189,0,0,0-.143.048c-.878.357-1.329,1.327-1.8,2.355a10.764,10.764,0,0,1-.936,1.734c-.156.216-.321.469-.5.735-1.013,1.53-2.4,3.627-4.424,3.671a9.453,9.453,0,0,1-7.12-3.4,18.71,18.71,0,0,1-1.783-2.747c-.64-1.125-1.376-2.194-2.36-2.234h-.06c-1.3,0-2.023,1.752-2.249,2.8-.051.231-.1.467-.143.7-.262,1.362-.559,2.9-1.723,3.839a4.382,4.382,0,0,1-2.5.854,8.518,8.518,0,0,1-6.982-2.985,16.421,16.421,0,0,1-1.18-1.659,14.091,14.091,0,0,0-1.263-1.737c-.731-.81-2-1.624-3.143-1.232-1.233.392-1.963,1.873-2.67,3.3a10.082,10.082,0,0,1-1.765,2.795,4.233,4.233,0,0,1-2.17,1.3c-1.576.253-2.9-.977-3.609-2.216a15.546,15.546,0,0,1-.689-1.4,9.085,9.085,0,0,0-1.111-2,3.983,3.983,0,0,0-3.453-1.367,4.033,4.033,0,0,0-3.229,1.866,8.948,8.948,0,0,0-.524,1.114,8.831,8.831,0,0,1-.684,1.395c-1.594,2.485-4.994,2.738-7.376,1.719-2.509-1.072-4.36-3.3-5.846-5.089-.854-1.028-2.166-2.163-3.292-2.261a1.453,1.453,0,0,0-1.1.348,3.931,3.931,0,0,0-.86,2.7l-.011.139a10.7,10.7,0,0,1-1.55,5.1,5.4,5.4,0,0,1-4.668,2.591c-2.6-.161-4.331-2.584-5.133-4.015-.312-.555-.6-1.133-.882-1.71a14.137,14.137,0,0,0-2.26-3.636c-1.283-1.345-3.521-2.064-4.9-.881a5.687,5.687,0,0,0-1.362,2.386c-.09.233-.18.466-.273.693a7.264,7.264,0,0,1-2.749,3.543,4.037,4.037,0,0,1-4.516-.011,6.266,6.266,0,0,1-1.849-2.894,9.7,9.7,0,0,0-.856-1.774,4.124,4.124,0,0,0-2.668-1.7,4,4,0,0,0-3.035.577,8.915,8.915,0,0,0-2.007,2.207c-.244.337-.489.673-.746.993-1.27,1.578-2.727,2.353-4.114,2.179-2.194-.275-3.282-2.582-4.061-4.8-.607-1.736-1.682-3.792-3.354-3.792l-.053,0a2.894,2.894,0,0,0-1.528.575,10.955,10.955,0,0,0-2.828,3.429c-.339.541-.68,1.083-1.046,1.6A6.746,6.746,0,0,1,231.458,454.045Z" transform="translate(-230.45 -444.436)"/></g><path class="c" d="M365.385,442.909h-130.8a3.864,3.864,0,0,0-3.863,3.863v8.067c1.723.02,3.4-1.32,4.47-2.815,1.276-1.781,2.21-3.918,4-5.148a3.405,3.405,0,0,1,1.8-.663c2-.051,3.22,2.2,3.9,4.127s1.659,4.221,3.647,4.47c1.435.18,2.742-.856,3.66-2a15.209,15.209,0,0,1,2.859-3.3,4.745,4.745,0,0,1,6.407,1.255c.98,1.462,1.189,3.5,2.588,4.549a3.584,3.584,0,0,0,3.951-.015A6.875,6.875,0,0,0,270.55,452a8.111,8.111,0,0,1,1.772-3.268c1.593-1.365,4.144-.607,5.6.918s2.181,3.6,3.216,5.447,2.65,3.629,4.725,3.759a4.933,4.933,0,0,0,4.217-2.368,10.45,10.45,0,0,0,1.466-4.871c.1-1.144.183-2.441,1.048-3.174,1.561-1.323,3.79.39,5.106,1.974,1.622,1.956,3.345,3.962,5.657,4.95s5.381.61,6.755-1.529c.5-.773.729-1.7,1.2-2.491a4.772,4.772,0,0,1,7.507-.561,25.132,25.132,0,0,1,1.846,3.475c.654,1.14,1.818,2.177,3.092,1.97a3.812,3.812,0,0,0,1.9-1.167c1.673-1.607,2.245-5.458,4.622-6.213a3.664,3.664,0,0,1,3.678,1.371c.935,1.039,1.554,2.338,2.454,3.409a7.974,7.974,0,0,0,6.561,2.806,3.94,3.94,0,0,0,2.218-.744c1.2-.966,1.36-2.725,1.688-4.254s1.294-3.266,2.824-3.2c1.254.053,2.1,1.292,2.729,2.4a18.82,18.82,0,0,0,1.781,2.76,8.947,8.947,0,0,0,6.72,3.22c2.089-.046,3.519-2.787,4.523-4.195,1.028-1.439,1.343-3.608,2.963-4.263a2.2,2.2,0,0,1,.834-.147v-1.239A3.864,3.864,0,0,0,365.385,442.909Z" transform="translate(-230.221 -442.405)"/><path class="b" d="M286.322,459.592c-.088,0-.176,0-.264-.009-2.6-.161-4.331-2.584-5.133-4.015-.312-.555-.6-1.133-.882-1.71a14.137,14.137,0,0,0-2.26-3.636c-1.283-1.345-3.521-2.064-4.9-.881a5.687,5.687,0,0,0-1.362,2.386c-.09.233-.18.466-.273.693a7.264,7.264,0,0,1-2.749,3.543,4.037,4.037,0,0,1-4.516-.011,6.266,6.266,0,0,1-1.849-2.894,9.7,9.7,0,0,0-.856-1.774,4.124,4.124,0,0,0-2.668-1.7,4,4,0,0,0-3.035.577,8.915,8.915,0,0,0-2.007,2.207c-.244.337-.489.673-.746.993-1.27,1.578-2.727,2.353-4.114,2.179-2.194-.275-3.282-2.582-4.061-4.8-.607-1.736-1.682-3.792-3.354-3.792l-.053,0a2.894,2.894,0,0,0-1.528.575,10.955,10.955,0,0,0-2.828,3.429c-.339.541-.68,1.083-1.046,1.6a6.4,6.4,0,0,1-4.844,3.026h-.042l-.5-.007V447a4.372,4.372,0,0,1,4.367-4.367h130.8A4.372,4.372,0,0,1,369.981,447v1.739l-.5,0a1.725,1.725,0,0,0-.651.11c-.878.356-1.327,1.327-1.8,2.355a10.764,10.764,0,0,1-.936,1.734c-.156.216-.321.469-.5.735-1.013,1.53-2.4,3.627-4.424,3.671a9.453,9.453,0,0,1-7.12-3.4,18.71,18.71,0,0,1-1.783-2.747c-.64-1.125-1.376-2.194-2.36-2.234h-.06c-1.3,0-2.023,1.752-2.249,2.8-.051.231-.1.467-.143.7-.262,1.362-.559,2.9-1.723,3.839a4.382,4.382,0,0,1-2.5.854,8.518,8.518,0,0,1-6.982-2.985,16.421,16.421,0,0,1-1.18-1.659,14.091,14.091,0,0,0-1.263-1.737c-.731-.81-2-1.624-3.143-1.232-1.233.392-1.963,1.873-2.67,3.3a10.082,10.082,0,0,1-1.765,2.795,4.221,4.221,0,0,1-2.17,1.3c-1.576.253-2.9-.977-3.609-2.216a15.546,15.546,0,0,1-.689-1.4,9.085,9.085,0,0,0-1.111-2,3.983,3.983,0,0,0-3.453-1.367,4.033,4.033,0,0,0-3.229,1.866,8.948,8.948,0,0,0-.524,1.114,8.831,8.831,0,0,1-.684,1.395c-1.594,2.485-4.994,2.738-7.376,1.719-2.509-1.072-4.36-3.3-5.846-5.089-.854-1.028-2.166-2.163-3.292-2.261a1.453,1.453,0,0,0-1.1.348,3.931,3.931,0,0,0-.86,2.7l-.011.139a10.7,10.7,0,0,1-1.55,5.1A5.455,5.455,0,0,1,286.322,459.592Zm-11.76-11.848a5.7,5.7,0,0,1,3.951,1.785,15.067,15.067,0,0,1,2.434,3.883c.277.561.553,1.122.858,1.662.7,1.25,2.2,3.37,4.316,3.5a4.448,4.448,0,0,0,3.764-2.144,9.748,9.748,0,0,0,1.387-4.635l.013-.137c.1-1.191.222-2.538,1.21-3.378a2.421,2.421,0,0,1,1.842-.583c1.758.154,3.367,1.886,3.977,2.621,1.418,1.708,3.183,3.83,5.467,4.807,2.034.871,4.886.607,6.134-1.336a7.921,7.921,0,0,0,.6-1.239,10.226,10.226,0,0,1,.586-1.237,5.275,5.275,0,0,1,8.333-.621,9.848,9.848,0,0,1,1.246,2.225c.2.445.4.894.645,1.318.519.9,1.5,1.9,2.571,1.721a3.287,3.287,0,0,0,1.635-1.032,9.28,9.28,0,0,0,1.56-2.514c.8-1.62,1.627-3.3,3.26-3.816,1.6-.546,3.227.427,4.2,1.516a14.687,14.687,0,0,1,1.358,1.86,15.983,15.983,0,0,0,1.109,1.56,7.52,7.52,0,0,0,6.139,2.628,3.4,3.4,0,0,0,1.935-.634c.876-.7,1.125-2,1.365-3.244.048-.244.1-.487.147-.724.367-1.71,1.433-3.684,3.337-3.6,1.477.06,2.419,1.376,3.147,2.656a18.494,18.494,0,0,0,1.73,2.687,8.414,8.414,0,0,0,6.337,3.037c1.483-.029,2.7-1.871,3.59-3.218.185-.277.357-.537.521-.766a10.026,10.026,0,0,0,.841-1.569c.537-1.162,1.094-2.362,2.342-2.866a2.364,2.364,0,0,1,.519-.145V447a3.361,3.361,0,0,0-3.359-3.357h-130.8A3.361,3.361,0,0,0,231.458,447v7.527a6.08,6.08,0,0,0,3.557-2.568c.356-.5.682-1.021,1.012-1.545a11.863,11.863,0,0,1,3.11-3.724,3.844,3.844,0,0,1,2.073-.751c1.8-.092,3.345,1.494,4.386,4.463.676,1.93,1.589,3.931,3.235,4.138,1.387.172,2.6-1.061,3.2-1.813.247-.308.484-.63.718-.955A9.816,9.816,0,0,1,255,449.331a5.05,5.05,0,0,1,3.8-.737,5.137,5.137,0,0,1,3.317,2.126,10.567,10.567,0,0,1,.953,1.959,5.463,5.463,0,0,0,1.517,2.465,3.077,3.077,0,0,0,3.383-.039,6.3,6.3,0,0,0,2.348-3.073c.09-.218.176-.442.262-.669a6.528,6.528,0,0,1,1.648-2.789A3.524,3.524,0,0,1,274.562,447.743Z" transform="translate(-230.45 -442.634)"/></svg>