<svg xmlns="http://www.w3.org/2000/svg" width="95.419" height="20.26" viewBox="0 0 95.419 20.26"><defs><style>.a{fill:#84836f;}.b{fill:#7c411e;}.c{fill:#892500;}</style></defs><g transform="translate(0 5.054)"><path class="a" d="M255.876,448.338c-.632-1.111-1.477-2.349-2.731-2.4-1.528-.064-2.494,1.671-2.824,3.2s-.484,3.288-1.688,4.254a3.93,3.93,0,0,1-2.216.744,7.974,7.974,0,0,1-6.561-2.806c-.9-1.07-1.519-2.37-2.454-3.409a3.666,3.666,0,0,0-3.678-1.371c-2.377.755-2.949,4.605-4.624,6.213a3.807,3.807,0,0,1-1.9,1.167c-1.274.207-2.437-.83-3.092-1.97a25.132,25.132,0,0,0-1.845-3.475,4.772,4.772,0,0,0-7.507.561c-.467.794-.7,1.717-1.2,2.491-1.373,2.139-4.444,2.518-6.755,1.529s-4.034-2.995-5.656-4.95c-1.316-1.583-3.544-3.3-5.106-1.974-.865.733-.946,2.031-1.048,3.174a10.471,10.471,0,0,1-1.466,4.871,4.933,4.933,0,0,1-4.217,2.368c-2.075-.13-3.689-1.911-4.725-3.759s-1.763-3.924-3.216-5.447-4-2.283-5.6-.918A8.111,8.111,0,0,0,174,449.7a6.874,6.874,0,0,1-2.547,3.31,4.027,4.027,0,0,1-1.847.577v1.5a4.782,4.782,0,0,0,4.783,4.783h84.845a4.784,4.784,0,0,0,4.785-4.783v-.957a8.036,8.036,0,0,1-6.361-3.026A18.825,18.825,0,0,1,255.876,448.338Z" transform="translate(-169.102 -445.162)"/><path class="b" d="M259.465,460.6H174.618a5.293,5.293,0,0,1-5.287-5.287v-1.97l.471-.029a3.493,3.493,0,0,0,1.615-.5,6.3,6.3,0,0,0,2.348-3.073c.09-.216.174-.442.26-.665a6.515,6.515,0,0,1,1.649-2.793c1.829-1.565,4.69-.726,6.29.955a15.011,15.011,0,0,1,2.432,3.88c.279.561.555,1.123.86,1.666.7,1.25,2.194,3.37,4.316,3.5a4.462,4.462,0,0,0,3.764-2.144,9.741,9.741,0,0,0,1.385-4.635l.013-.141c.106-1.189.224-2.536,1.211-3.374a2.419,2.419,0,0,1,1.842-.583c1.756.154,3.367,1.886,3.977,2.621,1.418,1.708,3.181,3.83,5.467,4.807,2.034.871,4.886.607,6.134-1.336a8.087,8.087,0,0,0,.6-1.239,9.966,9.966,0,0,1,.586-1.237,5.275,5.275,0,0,1,8.333-.621,9.94,9.94,0,0,1,1.244,2.223c.2.447.4.894.645,1.32.52.9,1.5,1.9,2.573,1.721a3.283,3.283,0,0,0,1.633-1.032,9.233,9.233,0,0,0,1.56-2.514c.8-1.62,1.627-3.3,3.26-3.816,1.615-.542,3.229.429,4.206,1.516a14.653,14.653,0,0,1,1.356,1.858,16.012,16.012,0,0,0,1.109,1.561,7.528,7.528,0,0,0,6.141,2.628,3.4,3.4,0,0,0,1.935-.634c.876-.7,1.125-2,1.365-3.244.048-.244.1-.487.145-.724.368-1.71,1.453-3.673,3.339-3.6,1.477.06,2.419,1.376,3.147,2.656l.048.086a18.024,18.024,0,0,0,1.682,2.6,7.519,7.519,0,0,0,5.978,2.843l.5.005v1.457A5.291,5.291,0,0,1,259.465,460.6Zm-89.128-6.336v1.048a4.285,4.285,0,0,0,4.281,4.279h84.846a4.284,4.284,0,0,0,4.279-4.279v-.469a8.458,8.458,0,0,1-6.246-3.191,18.706,18.706,0,0,1-1.783-2.747l.39-.335-.44.249c-.59-1.039-1.327-2.108-2.311-2.148-1.191-.055-2.014,1.417-2.311,2.8-.049.231-.093.467-.141.7-.262,1.362-.559,2.9-1.723,3.839a4.381,4.381,0,0,1-2.5.854,8.507,8.507,0,0,1-6.982-2.985,17.086,17.086,0,0,1-1.184-1.66,14.188,14.188,0,0,0-1.259-1.736c-.731-.808-1.99-1.62-3.145-1.232-1.232.392-1.963,1.873-2.668,3.3a10.081,10.081,0,0,1-1.765,2.795,4.233,4.233,0,0,1-2.17,1.3c-1.572.253-2.9-.977-3.608-2.216-.26-.451-.477-.929-.693-1.406a8.96,8.96,0,0,0-1.109-2,4.274,4.274,0,0,0-6.682.5,9.488,9.488,0,0,0-.524,1.114,8.823,8.823,0,0,1-.682,1.395c-1.6,2.485-4.992,2.738-7.378,1.719-2.509-1.072-4.358-3.3-5.846-5.089-.852-1.028-2.164-2.163-3.29-2.261a1.464,1.464,0,0,0-1.1.348,3.932,3.932,0,0,0-.858,2.692l-.013.143a10.712,10.712,0,0,1-1.549,5.1,5.408,5.408,0,0,1-4.668,2.593c-2.6-.161-4.331-2.584-5.133-4.015-.313-.557-.6-1.136-.883-1.714a14.14,14.14,0,0,0-2.258-3.632c-1.283-1.345-3.522-2.064-4.906-.881a5.689,5.689,0,0,0-1.362,2.39c-.09.231-.178.462-.271.689a7.264,7.264,0,0,1-2.749,3.543A4.379,4.379,0,0,1,170.337,454.262Z" transform="translate(-169.331 -445.392)"/></g><path class="c" d="M260.83,442.909H172.795a3.189,3.189,0,0,0-3.189,3.189v9.785a4.027,4.027,0,0,0,1.847-.577A6.874,6.874,0,0,0,174,452a8.111,8.111,0,0,1,1.772-3.268c1.593-1.365,4.144-.607,5.6.918s2.181,3.6,3.216,5.447,2.65,3.629,4.725,3.759a4.933,4.933,0,0,0,4.217-2.368,10.471,10.471,0,0,0,1.466-4.871c.1-1.144.183-2.441,1.048-3.174,1.561-1.323,3.79.39,5.106,1.974,1.622,1.956,3.345,3.962,5.656,4.95s5.383.61,6.755-1.529c.5-.773.731-1.7,1.2-2.491a4.772,4.772,0,0,1,7.507-.561,25.132,25.132,0,0,1,1.845,3.475c.654,1.14,1.818,2.177,3.092,1.97a3.807,3.807,0,0,0,1.9-1.167c1.675-1.607,2.247-5.458,4.624-6.213a3.666,3.666,0,0,1,3.678,1.371c.935,1.039,1.552,2.338,2.454,3.409a7.974,7.974,0,0,0,6.561,2.806,3.93,3.93,0,0,0,2.216-.744c1.2-.966,1.36-2.725,1.688-4.254s1.3-3.266,2.824-3.2c1.254.053,2.1,1.292,2.731,2.4a18.825,18.825,0,0,0,1.781,2.76,8.036,8.036,0,0,0,6.361,3.026V446.1A3.189,3.189,0,0,0,260.83,442.909Z" transform="translate(-169.102 -442.405)"/><path class="c" d="M189.772,459.592c-.088,0-.176,0-.264-.009-2.6-.161-4.331-2.584-5.133-4.015-.313-.557-.6-1.136-.883-1.714a14.14,14.14,0,0,0-2.258-3.632c-1.283-1.345-3.522-2.064-4.906-.881a5.689,5.689,0,0,0-1.362,2.39c-.09.231-.178.462-.271.689a7.264,7.264,0,0,1-2.749,3.543,4.505,4.505,0,0,1-2.08.652l-.535.033v-10.32a3.7,3.7,0,0,1,3.693-3.693h88.035a3.7,3.7,0,0,1,3.691,3.693v10.831l-.506,0a8.5,8.5,0,0,1-6.746-3.207,18.706,18.706,0,0,1-1.783-2.747c-.64-1.125-1.376-2.194-2.36-2.234-1.191-.055-2.014,1.417-2.311,2.8-.049.231-.093.467-.141.7-.262,1.362-.559,2.9-1.723,3.839a4.381,4.381,0,0,1-2.5.854,8.507,8.507,0,0,1-6.982-2.985,17.086,17.086,0,0,1-1.184-1.66,14.188,14.188,0,0,0-1.259-1.736c-.731-.808-1.99-1.62-3.145-1.232-1.232.392-1.963,1.873-2.668,3.3a10.081,10.081,0,0,1-1.765,2.795,4.221,4.221,0,0,1-2.17,1.3c-1.572.253-2.9-.977-3.608-2.216-.26-.451-.477-.929-.693-1.406a8.96,8.96,0,0,0-1.109-2,4.274,4.274,0,0,0-6.682.5,9.488,9.488,0,0,0-.524,1.114,8.823,8.823,0,0,1-.682,1.395c-1.6,2.485-4.992,2.738-7.378,1.719-2.509-1.072-4.358-3.3-5.846-5.089-.852-1.028-2.164-2.163-3.29-2.261a1.464,1.464,0,0,0-1.1.348,3.932,3.932,0,0,0-.858,2.692l-.013.143a10.712,10.712,0,0,1-1.549,5.1A5.453,5.453,0,0,1,189.772,459.592ZM178.01,447.743a5.705,5.705,0,0,1,3.953,1.785,15.011,15.011,0,0,1,2.432,3.88c.279.561.555,1.123.86,1.666.7,1.25,2.194,3.37,4.316,3.5a4.462,4.462,0,0,0,3.764-2.144,9.741,9.741,0,0,0,1.385-4.635l.013-.141c.106-1.189.224-2.536,1.211-3.374a2.419,2.419,0,0,1,1.842-.583c1.756.154,3.367,1.886,3.977,2.621,1.418,1.708,3.181,3.83,5.467,4.807,2.034.871,4.886.607,6.134-1.336a8.087,8.087,0,0,0,.6-1.239,9.966,9.966,0,0,1,.586-1.237,5.275,5.275,0,0,1,8.333-.621,9.94,9.94,0,0,1,1.244,2.223c.2.447.4.894.645,1.32.52.9,1.5,1.9,2.573,1.721a3.283,3.283,0,0,0,1.633-1.032,9.233,9.233,0,0,0,1.56-2.514c.8-1.62,1.627-3.3,3.26-3.816,1.615-.542,3.229.429,4.206,1.516a14.653,14.653,0,0,1,1.356,1.858,16.012,16.012,0,0,0,1.109,1.561,7.528,7.528,0,0,0,6.141,2.628,3.4,3.4,0,0,0,1.935-.634c.876-.7,1.125-2,1.365-3.244.048-.244.1-.487.145-.724.368-1.71,1.453-3.673,3.339-3.6,1.477.06,2.419,1.376,3.147,2.656a18.494,18.494,0,0,0,1.73,2.687,7.483,7.483,0,0,0,5.47,2.824v-9.8a2.688,2.688,0,0,0-2.685-2.683H173.024a2.689,2.689,0,0,0-2.687,2.683v9.207a3.354,3.354,0,0,0,1.079-.429,6.3,6.3,0,0,0,2.348-3.073c.09-.216.174-.442.26-.665a6.515,6.515,0,0,1,1.649-2.793A3.52,3.52,0,0,1,178.01,447.743Z" transform="translate(-169.331 -442.634)"/></svg>