<svg xmlns="http://www.w3.org/2000/svg" width="41.09" height="20.26" viewBox="0 0 41.09 20.26"><defs><style>.a{fill:#892500;}.b{fill:#7c411e;}.c{fill:#84836f;}</style></defs><g transform="translate(-139.182 -442.634)"><g transform="translate(139.182 442.634)"><path class="a" d="M177.461,442.909H141.533a2.077,2.077,0,0,0-2.076,2.078v5.342a4.565,4.565,0,0,0,3.334,3.579,4.435,4.435,0,0,0,4.523-1.723c1.028-1.439,1.343-3.608,2.963-4.263,1.726-.7,3.5.929,4.453,2.562s1.805,3.6,3.568,4.2c2.047.7,4.175-.883,5.45-2.663s2.208-3.918,4-5.148a3.405,3.405,0,0,1,1.8-.663c2-.051,3.22,2.2,3.9,4.127s1.659,4.221,3.647,4.47a3.368,3.368,0,0,0,2.445-.8v-9.028A2.077,2.077,0,0,0,177.461,442.909Z" transform="translate(-138.953 -442.405)"/><path class="b" d="M159.541,455.589a3.594,3.594,0,0,1-1.177-.2c-1.688-.574-2.613-2.236-3.433-3.7q-.2-.368-.409-.722c-.885-1.517-2.461-2.892-3.828-2.351-.88.357-1.329,1.329-1.805,2.359a10.829,10.829,0,0,1-.936,1.732,4.959,4.959,0,0,1-5.049,1.919,5.082,5.082,0,0,1-3.715-3.981l-.007-5.43a2.585,2.585,0,0,1,2.58-2.582H177.69a2.586,2.586,0,0,1,2.582,2.582v9.279l-.2.15a3.828,3.828,0,0,1-2.813.894c-2.192-.275-3.284-2.582-4.061-4.8-.607-1.736-1.681-3.792-3.354-3.792l-.053,0a2.894,2.894,0,0,0-1.528.575,10.946,10.946,0,0,0-2.828,3.427c-.339.543-.68,1.085-1.046,1.6C163.3,454.061,161.484,455.589,159.541,455.589Zm-8.2-8.106c1.593,0,3.119,1.376,4.05,2.976.141.242.28.491.42.742.764,1.371,1.554,2.787,2.875,3.237,1.838.636,3.779-.942,4.879-2.478.357-.5.685-1.023,1.013-1.547a11.856,11.856,0,0,1,3.11-3.722,3.839,3.839,0,0,1,2.073-.751c1.814-.092,3.345,1.494,4.386,4.463.676,1.93,1.589,3.933,3.235,4.138a2.855,2.855,0,0,0,1.88-.553v-8.771a1.575,1.575,0,0,0-1.574-1.572H141.762a1.575,1.575,0,0,0-1.574,1.572v5.342a4.05,4.05,0,0,0,2.947,3.088,3.916,3.916,0,0,0,4-1.525,9.893,9.893,0,0,0,.839-1.571c.539-1.162,1.1-2.362,2.344-2.866A2.692,2.692,0,0,1,151.343,447.483Z" transform="translate(-139.182 -442.634)"/></g><g transform="translate(139.182 445.936)"><path class="c" d="M177.092,453.309c-1.988-.249-2.973-2.538-3.647-4.47s-1.895-4.178-3.9-4.127a3.405,3.405,0,0,0-1.8.663c-1.79,1.23-2.723,3.367-4,5.148s-3.4,3.361-5.45,2.663c-1.763-.6-2.617-2.569-3.568-4.2s-2.727-3.258-4.453-2.562c-1.62.654-1.935,2.824-2.963,4.263a4.435,4.435,0,0,1-4.523,1.723,4.565,4.565,0,0,1-3.334-3.579v8.716a3.115,3.115,0,0,0,3.115,3.116h33.849a3.115,3.115,0,0,0,3.115-3.116v-5.031A3.368,3.368,0,0,1,177.092,453.309Z" transform="translate(-138.953 -444.206)"/><path class="b" d="M176.649,461.394H142.8a3.624,3.624,0,0,1-3.619-3.62v-8.716l1-.088a4.05,4.05,0,0,0,2.952,3.176,3.916,3.916,0,0,0,4-1.525,9.893,9.893,0,0,0,.839-1.571c.539-1.162,1.1-2.362,2.344-2.866,1.935-.783,3.944.832,5.076,2.775.141.242.28.491.42.742.764,1.371,1.554,2.787,2.875,3.237,1.838.636,3.779-.942,4.879-2.478.357-.5.685-1.023,1.013-1.547a11.856,11.856,0,0,1,3.11-3.722,3.839,3.839,0,0,1,2.073-.751c1.814-.092,3.345,1.494,4.386,4.463.676,1.93,1.589,3.933,3.235,4.138a2.933,2.933,0,0,0,2.08-.7l.808-.614v6.044A3.626,3.626,0,0,1,176.649,461.394Zm-36.461-10.045v6.425a2.615,2.615,0,0,0,2.613,2.612h33.847a2.616,2.616,0,0,0,2.615-2.612v-4.118a3.469,3.469,0,0,1-2,.383h0c-2.192-.275-3.284-2.582-4.061-4.8-.607-1.736-1.681-3.792-3.354-3.792l-.053,0a2.894,2.894,0,0,0-1.528.575,10.946,10.946,0,0,0-2.828,3.427c-.339.543-.68,1.085-1.046,1.6-1.3,1.816-3.66,3.664-6.024,2.846-1.688-.574-2.613-2.236-3.433-3.7q-.2-.368-.409-.722c-.885-1.517-2.461-2.892-3.828-2.351-.88.357-1.329,1.329-1.805,2.359a10.829,10.829,0,0,1-.936,1.732,4.8,4.8,0,0,1-7.765.141Z" transform="translate(-139.182 -444.436)"/></g></g></svg>