<svg xmlns="http://www.w3.org/2000/svg" width="35.862" height="41.946" viewBox="0 0 35.862 41.946"><defs><style>.a{fill:#915aea;}.b,.c{stroke:none;}.c{fill:#fff;}</style></defs><g class="a" transform="translate(-1162.263 -328.715)"><path class="b" d="M 1176.551879882812 369.1611328125 C 1175.119995117188 369.1611328125 1173.798095703125 368.9809875488281 1172.622802734375 368.6257019042969 C 1171.456909179688 368.2745971679688 1170.3828125 367.7929077148438 1169.431640625 367.1944580078125 C 1168.49462890625 366.6072998046875 1167.642578125 365.9233093261719 1166.901245117188 365.1629943847656 C 1166.179077148438 364.42578125 1165.53271484375 363.6227111816406 1164.982421875 362.778564453125 L 1164.250854492188 361.6564331054688 L 1165.283447265625 360.8031311035156 L 1172.423583984375 354.9028625488281 L 1173.7353515625 353.8187866210938 L 1174.646118164062 355.2563781738281 C 1174.831665039062 355.5491638183594 1175.062744140625 355.8566284179688 1175.332885742188 356.1702270507812 C 1175.59716796875 356.4777526855469 1175.885498046875 356.7660522460938 1176.191284179688 357.0285949707031 L 1176.193359375 357.0302734375 L 1176.195190429688 357.0319519042969 C 1176.459228515625 357.2601928710938 1176.731201171875 357.4399108886719 1177.02685546875 357.5813598632812 C 1177.23828125 357.6832885742188 1177.454711914062 357.7319641113281 1177.692016601562 357.7319641113281 C 1178.257080078125 357.7319641113281 1178.686401367188 357.6283569335938 1178.9677734375 357.4240417480469 C 1179.253662109375 357.2157897949219 1179.269287109375 357.0821228027344 1179.276000976562 357.0250549316406 L 1179.27734375 357.0136413574219 L 1179.27880859375 357.0022583007812 C 1179.307861328125 356.782958984375 1179.295532226562 356.6082458496094 1179.242309570312 356.48291015625 C 1179.14013671875 356.2495422363281 1179.005493164062 356.0406188964844 1178.83056640625 355.8443603515625 C 1178.628784179688 355.6204223632812 1178.39501953125 355.4170532226562 1178.135620117188 355.2397766113281 C 1177.749145507812 354.9771423339844 1177.37158203125 354.6990966796875 1177.016479492188 354.4153137207031 C 1175.837158203125 353.51220703125 1174.822143554688 352.7096557617188 1173.91357421875 351.9619445800781 C 1172.90087890625 351.1302795410156 1172.03515625 350.2445068359375 1171.341552734375 349.3302001953125 C 1170.596923828125 348.3525390625 1170.059326171875 347.24853515625 1169.745727539062 346.0511779785156 C 1169.431518554688 344.8573303222656 1169.386596679688 343.4653625488281 1169.61279296875 341.915283203125 C 1169.908447265625 339.7781372070312 1170.582885742188 337.9225463867188 1171.617431640625 336.3999328613281 C 1172.632568359375 334.904052734375 1173.858642578125 333.6806640625 1175.261108398438 332.764404296875 C 1176.635375976562 331.8668518066406 1178.157958984375 331.2073059082031 1179.78662109375 330.8040466308594 C 1181.36376953125 330.4131774902344 1182.944580078125 330.2149658203125 1184.48486328125 330.2149658203125 C 1185.7353515625 330.2149658203125 1186.86767578125 330.3492736816406 1187.85009765625 330.6141052246094 C 1188.8193359375 330.87451171875 1189.730834960938 331.235595703125 1190.558349609375 331.6869506835938 C 1191.379150390625 332.1356811523438 1192.156616210938 332.6854553222656 1192.870483398438 333.3216857910156 L 1192.872802734375 333.3236999511719 L 1192.875 333.3257141113281 C 1193.53564453125 333.9193725585938 1194.213989257812 334.5802612304688 1194.891357421875 335.2900085449219 L 1195.965576171875 336.4157104492188 L 1194.80126953125 337.4479675292969 L 1187.810791015625 343.6455993652344 L 1186.595703125 344.7228698730469 L 1185.618041992188 343.4263000488281 C 1185.425537109375 343.1710205078125 1185.212646484375 342.8927307128906 1184.985229492188 342.5990600585938 C 1184.794067382812 342.35302734375 1184.591186523438 342.1231994628906 1184.366455078125 341.8984680175781 C 1184.223876953125 341.7565307617188 1184.0361328125 341.6285095214844 1183.811401367188 341.5208435058594 C 1183.637939453125 341.4383544921875 1183.412719726562 341.3955688476562 1183.145751953125 341.3955688476562 C 1182.730712890625 341.3955688476562 1182.389892578125 341.4736938476562 1182.132568359375 341.6277770996094 C 1182.023193359375 341.693603515625 1181.9736328125 341.94189453125 1181.9541015625 342.0839538574219 L 1181.95361328125 342.0871276855469 L 1181.953247070312 342.09033203125 C 1181.953125 342.0916748046875 1181.94189453125 342.2568359375 1182.184204101562 342.641845703125 C 1182.4462890625 343.057861328125 1182.884887695312 343.4951171875 1183.487548828125 343.9410400390625 C 1184.82373046875 344.9109497070312 1186.036865234375 345.8205871582031 1187.09375 346.6448364257812 C 1188.25390625 347.5536499023438 1189.230346679688 348.5323486328125 1189.99853515625 349.5557556152344 C 1190.809936523438 350.6392211914062 1191.387084960938 351.8434448242188 1191.715209960938 353.1364135742188 C 1192.041625976562 354.4270629882812 1192.094360351562 355.9424133300781 1191.8720703125 357.641357421875 L 1191.87158203125 357.64501953125 L 1191.87109375 357.6486511230469 C 1191.642944335938 359.3291320800781 1191.034545898438 360.9049682617188 1190.062622070312 362.3323974609375 C 1189.128662109375 363.7068786621094 1187.94091796875 364.9239196777344 1186.533447265625 365.9486083984375 C 1185.135009765625 366.9647216796875 1183.559936523438 367.7618408203125 1181.850708007812 368.3186340332031 C 1180.13671875 368.8776245117188 1178.353759765625 369.1611328125 1176.551879882812 369.1611328125 Z"/><path class="c" d="M 1184.48486328125 331.7149658203125 C 1183.06298828125 331.7149658203125 1181.617309570312 331.8957214355469 1180.147094726562 332.2600708007812 C 1178.67529296875 332.62451171875 1177.321044921875 333.2106323242188 1176.08154296875 334.0201721191406 C 1174.840698242188 334.8308410644531 1173.766723632812 335.9041442871094 1172.858154296875 337.2429504394531 C 1171.948486328125 338.5817260742188 1171.362182617188 340.2100524902344 1171.097778320312 342.1269226074219 C 1170.8994140625 343.4826965332031 1170.931884765625 344.6648254394531 1171.19677734375 345.6710815429688 C 1171.461181640625 346.6804504394531 1171.90771484375 347.5979614257812 1172.53662109375 348.4236450195312 C 1173.163696289062 349.2502746582031 1173.9404296875 350.0429992675781 1174.86669921875 350.8037109375 C 1175.791137695312 351.564453125 1176.816650390625 352.3731384277344 1177.940551757812 353.2336730957031 C 1178.269897460938 353.4973449707031 1178.617919921875 353.7539367675781 1178.982055664062 354.0013732910156 C 1179.344360351562 354.2489929199219 1179.66650390625 354.5306091308594 1179.948364257812 354.8440856933594 C 1180.22900390625 355.1585693359375 1180.45263671875 355.506103515625 1180.6181640625 355.8854675292969 C 1180.782470703125 356.2657775878906 1180.83154296875 356.703125 1180.765869140625 357.1991271972656 C 1180.700073242188 357.7622680664062 1180.39453125 358.2405395507812 1179.848999023438 358.637939453125 C 1179.303100585938 359.0342102050781 1178.584228515625 359.2319641113281 1177.692016601562 359.2319641113281 C 1177.228881835938 359.2319641113281 1176.791381835938 359.1329956054688 1176.379272460938 358.9343872070312 C 1175.964111328125 358.7356872558594 1175.576904296875 358.480224609375 1175.214233398438 358.1666870117188 C 1174.848999023438 357.8531188964844 1174.510498046875 357.5147399902344 1174.196533203125 357.1493530273438 C 1173.883422851562 356.7859497070312 1173.60986328125 356.4234924316406 1173.379028320312 356.0591430664062 L 1166.239013671875 361.9594116210938 C 1166.734985351562 362.72021484375 1167.312255859375 363.4389953613281 1167.975219726562 364.1158447265625 C 1168.63623046875 364.7938232421875 1169.3876953125 365.396728515625 1170.23046875 365.9248657226562 C 1171.0732421875 366.4551391601562 1172.015747070312 366.8763427734375 1173.056884765625 367.1898803710938 C 1174.09716796875 367.5043640136719 1175.262939453125 367.6611328125 1176.551879882812 367.6611328125 C 1178.205322265625 367.6611328125 1179.815795898438 367.404541015625 1181.386108398438 366.8923950195312 C 1182.955322265625 366.3811950683594 1184.376831054688 365.6614685058594 1185.650634765625 364.7359313964844 C 1186.921875 363.8104248046875 1187.980712890625 362.727294921875 1188.82275390625 361.4882202148438 C 1189.666259765625 360.249267578125 1190.187255859375 358.9014282226562 1190.384765625 357.4468383789062 C 1190.58349609375 355.9273986816406 1190.54150390625 354.6134338378906 1190.26123046875 353.5052795410156 C 1189.980590820312 352.3991088867188 1189.492065429688 351.3818054199219 1188.798950195312 350.4562683105469 C 1188.10498046875 349.5317993164062 1187.227783203125 348.6553039550781 1186.171264648438 347.82763671875 C 1185.112670898438 347.0020141601562 1183.922729492188 346.1104125976562 1182.600952148438 345.1510009765625 C 1181.840209960938 344.5888977050781 1181.27880859375 344.0188598632812 1180.914672851562 343.4407653808594 C 1180.550903320312 342.8627014160156 1180.402465820312 342.3414916992188 1180.468139648438 341.8793029785156 C 1180.568237304688 341.1524963378906 1180.865966796875 340.6393127441406 1181.361938476562 340.3408813476562 C 1181.857177734375 340.0443115234375 1182.4521484375 339.8955688476562 1183.145751953125 339.8955688476562 C 1183.64208984375 339.8955688476562 1184.07958984375 339.9873657226562 1184.459594726562 340.1681213378906 C 1184.8388671875 340.349853515625 1185.161499023438 340.573486328125 1185.427368164062 340.8380126953125 C 1185.69189453125 341.1026306152344 1185.939208984375 341.382080078125 1186.171264648438 341.6806945800781 C 1186.401611328125 341.9781799316406 1186.6162109375 342.2586669921875 1186.815673828125 342.523193359375 L 1193.80615234375 336.3255615234375 C 1193.143920898438 335.631591796875 1192.499145507812 335.0046081542969 1191.872436523438 334.4414672851562 C 1191.243041992188 333.8804931640625 1190.565307617188 333.4002685546875 1189.840087890625 333.0037841796875 C 1189.111694335938 332.6064758300781 1188.317993164062 332.2930297851562 1187.459716796875 332.0624084472656 C 1186.600341796875 331.8307495117188 1185.608764648438 331.7149658203125 1184.48486328125 331.7149658203125 M 1184.48486328125 328.7149658203125 C 1185.8671875 328.7149658203125 1187.130737304688 328.8666381835938 1188.240600585938 329.1658020019531 C 1189.322875976562 329.4566345214844 1190.34521484375 329.8620300292969 1191.276611328125 330.3700866699219 C 1192.198608398438 330.8741455078125 1193.06982421875 331.489990234375 1193.868530273438 332.2019348144531 L 1193.873046875 332.2059631347656 L 1193.877563476562 332.2099914550781 C 1194.566650390625 332.8291931152344 1195.272827148438 333.5170288085938 1195.9765625 334.2544555664062 L 1198.125 336.505859375 L 1195.79638671875 338.5703735351562 L 1188.805908203125 344.7679748535156 L 1188.019897460938 345.4648742675781 L 1188.021362304688 345.4660034179688 C 1189.2822265625 346.4538269042969 1190.35107421875 347.5268249511719 1191.1982421875 348.6552429199219 C 1192.129760742188 349.8992309570312 1192.792236328125 351.2818908691406 1193.169067382812 352.7675476074219 C 1193.54248046875 354.2437438964844 1193.606323242188 355.9482727050781 1193.359375 357.8359069824219 L 1193.358520507812 357.8432006835938 L 1193.357543945312 357.8504943847656 C 1193.097778320312 359.7633361816406 1192.406372070312 361.5552978515625 1191.302612304688 363.1765441894531 C 1190.271850585938 364.6932373046875 1188.9638671875 366.0346069335938 1187.416381835938 367.1612548828125 C 1185.889526367188 368.2706604003906 1184.174072265625 369.1393432617188 1182.315307617188 369.744873046875 C 1180.451416015625 370.3527526855469 1178.511962890625 370.6611328125 1176.551879882812 370.6611328125 C 1174.972900390625 370.6611328125 1173.5048828125 370.4594116210938 1172.188720703125 370.0615234375 C 1170.896118164062 369.6722412109375 1169.699340820312 369.1348876953125 1168.634643554688 368.4652099609375 C 1167.597290039062 367.8148193359375 1166.654052734375 367.0575256347656 1165.831420898438 366.2144165039062 C 1165.038208007812 365.4045715332031 1164.329833984375 364.524169921875 1163.725830078125 363.5977478027344 L 1162.262817382812 361.3534240722656 L 1164.328002929688 359.6468505859375 L 1171.468017578125 353.74658203125 L 1172.596435546875 352.8140563964844 C 1171.650390625 351.9989013671875 1170.828247070312 351.1346740722656 1170.150024414062 350.2414245605469 L 1170.150024414062 350.2414245605469 C 1169.283081054688 349.1030883789062 1168.658813476562 347.8211669921875 1168.294677734375 346.4313049316406 C 1167.929565429688 345.0444946289062 1167.873168945312 343.4529418945312 1168.127685546875 341.7043762207031 C 1168.45556640625 339.3388977050781 1169.212280273438 337.2706909179688 1170.376831054688 335.5569152832031 C 1171.503540039062 333.8965759277344 1172.87109375 332.5340881347656 1174.440673828125 331.5086669921875 C 1175.956420898438 330.5187072753906 1177.633666992188 329.7918395996094 1179.426025390625 329.3480224609375 C 1181.120849609375 328.9280090332031 1182.823120117188 328.7149658203125 1184.48486328125 328.7149658203125 Z"/></g></svg>