<svg xmlns="http://www.w3.org/2000/svg" width="9.056" height="11.809" viewBox="0 0 9.056 11.809"><defs><style>.a{fill:#fff;}</style></defs><path class="a" d="M1173,335.266q-.1-.13-.212-.277a2.946,2.946,0,0,0-.244-.277,1.149,1.149,0,0,0-.318-.22.993.993,0,0,0-.432-.09,1.121,1.121,0,0,0-.586.146.653.653,0,0,0-.294.505.773.773,0,0,0,.147.513,2.153,2.153,0,0,0,.554.562q.651.473,1.173.879a4.669,4.669,0,0,1,.863.864,2.808,2.808,0,0,1,.48,1,3.472,3.472,0,0,1,.041,1.295,3.065,3.065,0,0,1-.513,1.328,4.322,4.322,0,0,1-1.042,1.067,5,5,0,0,1-1.4.708,5.088,5.088,0,0,1-1.588.253,3.964,3.964,0,0,1-1.148-.155,3.781,3.781,0,0,1-.928-.416,3.988,3.988,0,0,1-.741-.594,4.606,4.606,0,0,1-.57-.708l2.346-1.938a3.057,3.057,0,0,0,.269.358,3.1,3.1,0,0,0,.334.334,1.715,1.715,0,0,0,.383.252.98.98,0,0,0,.431.1,1.179,1.179,0,0,0,.709-.2.674.674,0,0,0,.3-.473.805.805,0,0,0-.048-.432,1.283,1.283,0,0,0-.22-.342,1.761,1.761,0,0,0-.318-.277q-.179-.122-.342-.252-.554-.424-1.01-.8a4.686,4.686,0,0,1-.766-.782,2.542,2.542,0,0,1-.44-.9,2.928,2.928,0,0,1-.032-1.164,3.718,3.718,0,0,1,.578-1.6,3.774,3.774,0,0,1,1.059-1.059,4.321,4.321,0,0,1,1.336-.578,5.907,5.907,0,0,1,1.425-.179,3.77,3.77,0,0,1,.977.114,3.548,3.548,0,0,1,.782.309,3.59,3.59,0,0,1,.668.472q.309.277.635.619Z" transform="translate(-1166.239 -331.715)"/></svg>