<svg xmlns="http://www.w3.org/2000/svg" width="32.572" height="35.695" viewBox="0 0 32.572 35.695"><defs><style>.a{fill:#fff;}.b{fill:#7c411e;}.c{fill:#91af89;}</style></defs><path class="a" d="M182.66,340.622c-.32,0-.642.006-.96-.018-.359-.028-.719-.081-1.076-.13a13.468,13.468,0,0,1-2.721-.671,12.755,12.755,0,0,1-2.008-.91,12.478,12.478,0,0,1-1.838-1.246c-.324-.265-.63-.549-.932-.837a8.806,8.806,0,0,1-.695-.717q-.539-.646-1.04-1.321a12.711,12.711,0,0,1-1-1.631,15.976,15.976,0,0,1-1.009-2.381,14.8,14.8,0,0,1-.513-1.969c-.079-.424-.142-.855-.184-1.285-.045-.45-.059-.9-.081-1.354a5.489,5.489,0,0,1-.008-.6c.024-.419.059-.837.093-1.258a13.48,13.48,0,0,1,.328-2c.113-.468.227-.94.379-1.4.205-.62.436-1.232.675-1.84.136-.349.3-.687.466-1.027a20.951,20.951,0,0,1,1.191-2.14,22.564,22.564,0,0,1,1.362-1.953c.288-.369.579-.738.879-1.1.233-.28.476-.555.725-.821q.512-.554,1.042-1.09c.318-.322.638-.64.973-.942a16.82,16.82,0,0,1,1.846-1.479c.464-.316.944-.608,1.431-.888a11.7,11.7,0,0,1,2.061-.908,11.991,11.991,0,0,1,1.692-.446c.49-.089.981-.168,1.475-.229.355-.045.713-.065,1.07-.085s.685-.022,1.029-.024c.326,0,.652,0,.977.014a8.54,8.54,0,0,1,1.759.247,9.016,9.016,0,0,1,1.712.582c.492.235.971.5,1.447.764a12.19,12.19,0,0,1,1.568,1.106c.235.186.458.389.679.59.2.186.4.371.59.573a15.86,15.86,0,0,1,1.133,1.335,14.531,14.531,0,0,1,1.27,2.034,15.1,15.1,0,0,1,.952,2.33,15.6,15.6,0,0,1,.533,2.215c.071.426.118.857.162,1.287.034.318.057.636.063.956.014.575.024,1.149.012,1.724-.008.385-.055.768-.093,1.149-.032.338-.065.675-.115,1.009-.063.419-.132.837-.217,1.25-.1.48-.207.956-.334,1.427-.132.5-.274.989-.444,1.471-.235.663-.472,1.327-.758,1.966-.31.687-.655,1.362-1.027,2.018-.324.578-.689,1.133-1.066,1.678-.306.438-.652.849-.987,1.264a12.889,12.889,0,0,1-1.406,1.475c-.411.371-.837.727-1.275,1.066a13.584,13.584,0,0,1-1.155.806c-.424.263-.867.5-1.309.732a14.045,14.045,0,0,1-2.579,1.013,13.444,13.444,0,0,1-1.907.424c-.442.061-.884.12-1.327.172a6.372,6.372,0,0,1-.644.032c-.29,0-.582-.008-.873-.012Z" transform="translate(-168.102 -305.432)"/><path class="b" d="M183.7,341.371c-.172,0-.344,0-.515-.006l-.59-.008c-.229,0-.46,0-.689-.02-.306-.02-.618-.063-.928-.1l-.174-.024a14.349,14.349,0,0,1-2.819-.7,13.245,13.245,0,0,1-2.085-.944,12.833,12.833,0,0,1-1.911-1.293c-.332-.272-.648-.567-.958-.861a8.927,8.927,0,0,1-.734-.762q-.548-.655-1.058-1.339a13.1,13.1,0,0,1-1.035-1.7,16.438,16.438,0,0,1-1.04-2.454,15.435,15.435,0,0,1-.529-2.034c-.083-.438-.146-.885-.191-1.327-.036-.363-.053-.727-.069-1.09l-.012-.288a6.075,6.075,0,0,1-.01-.652c.024-.424.059-.847.095-1.27a13.9,13.9,0,0,1,.34-2.079c.116-.482.235-.966.391-1.433.207-.632.442-1.25.683-1.866.116-.3.257-.59.395-.883l.083-.176a21.352,21.352,0,0,1,1.222-2.19,22.351,22.351,0,0,1,1.39-2c.29-.371.584-.744.887-1.11.241-.288.49-.571.744-.843q.518-.56,1.054-1.1c.324-.328.65-.654.993-.96a17.452,17.452,0,0,1,1.9-1.524c.474-.32.964-.62,1.459-.908a13.451,13.451,0,0,1,3.913-1.41c.5-.091,1-.168,1.5-.235.369-.045.74-.067,1.11-.087.683-.032,1.37-.03,2.047-.008a9.066,9.066,0,0,1,1.856.257,9.306,9.306,0,0,1,1.809.62c.5.237.993.505,1.479.778a12.805,12.805,0,0,1,1.633,1.149c.245.2.474.4.7.614.211.2.423.387.618.6a16.668,16.668,0,0,1,1.169,1.378,15.072,15.072,0,0,1,1.311,2.1,15.413,15.413,0,0,1,.983,2.407,15.976,15.976,0,0,1,.551,2.282c.071.44.12.88.166,1.319.034.33.059.661.065.993.014.582.024,1.167.012,1.749-.008.318-.039.638-.071.956l-.024.229c-.034.347-.067.691-.118,1.033-.063.43-.134.857-.223,1.279-.1.488-.209.973-.338,1.455-.138.507-.282,1.015-.458,1.508-.253.717-.486,1.362-.772,2-.3.669-.642,1.343-1.046,2.059-.292.521-.64,1.066-1.092,1.716-.257.369-.539.719-.823,1.064l-.186.231A13.6,13.6,0,0,1,194.3,337c-.423.379-.857.744-1.305,1.09a13.945,13.945,0,0,1-1.2.835c-.434.269-.887.509-1.339.748a14.294,14.294,0,0,1-2.671,1.05,13.964,13.964,0,0,1-1.978.438c-.444.065-.89.124-1.337.174C184.217,341.363,183.95,341.365,183.7,341.371Zm-.786-1,.29.006c.192,0,.383,0,.569.006a5.443,5.443,0,0,0,.594-.03c.436-.047.873-.107,1.309-.17a12.639,12.639,0,0,0,1.838-.411A13.132,13.132,0,0,0,190,338.8c.432-.229.865-.458,1.277-.715a12.461,12.461,0,0,0,1.114-.778q.646-.5,1.25-1.04a12.647,12.647,0,0,0,1.35-1.42l.188-.231c.268-.33.537-.657.78-1,.432-.624.764-1.145,1.042-1.639.389-.689.717-1.337,1-1.978.27-.6.5-1.23.742-1.925.166-.472.3-.956.434-1.437.122-.46.229-.928.324-1.4.085-.4.154-.815.215-1.224.047-.324.079-.654.111-.983l.024-.231c.03-.294.059-.586.067-.883.012-.567,0-1.135-.012-1.7-.006-.3-.03-.61-.059-.916-.043-.421-.091-.841-.158-1.256a14.842,14.842,0,0,0-.517-2.144,14.53,14.53,0,0,0-.92-2.257,14.264,14.264,0,0,0-1.226-1.963,15.677,15.677,0,0,0-1.1-1.3c-.176-.19-.371-.367-.563-.543-.213-.193-.428-.391-.652-.571a11.912,11.912,0,0,0-1.5-1.06c-.464-.263-.934-.519-1.416-.748a8.482,8.482,0,0,0-1.619-.549,7.834,7.834,0,0,0-1.656-.231c-.654-.024-1.307-.024-1.965.008-.346.016-.691.038-1.035.081-.484.061-.965.138-1.449.225a11.457,11.457,0,0,0-1.619.428,11.038,11.038,0,0,0-1.976.867c-.474.276-.944.561-1.4.869a16.5,16.5,0,0,0-1.793,1.439c-.328.294-.642.606-.95.922-.353.351-.695.713-1.035,1.078-.243.261-.48.527-.707.8-.3.357-.582.721-.871,1.09a21.757,21.757,0,0,0-1.331,1.907,21.08,21.08,0,0,0-1.163,2.091l-.087.18c-.128.27-.259.539-.365.815-.237.6-.466,1.2-.667,1.814-.146.446-.259.9-.367,1.356a13,13,0,0,0-.316,1.929c-.034.415-.069.829-.093,1.246a5.087,5.087,0,0,0,.008.521l.016.318c.016.344.032.691.065,1.035q.062.628.178,1.244a14.785,14.785,0,0,0,.5,1.9,15.489,15.489,0,0,0,.979,2.308,11.886,11.886,0,0,0,.954,1.568c.326.438.669.873,1.023,1.3a8.529,8.529,0,0,0,.655.679c.292.276.59.555.9.811a11.941,11.941,0,0,0,1.769,1.2,12.443,12.443,0,0,0,1.929.877,13.321,13.321,0,0,0,2.624.648l.176.024c.288.04.578.079.867.1.207.016.413.016.618.016Z" transform="translate(-168.345 -305.676)"/><g transform="translate(5.454 3.163)"><path class="c" d="M179.55,307.529a11.093,11.093,0,0,1,2.9.47,19.2,19.2,0,0,1,3.2,1.307,16.1,16.1,0,0,1,2.057,1.163,5.39,5.39,0,0,1,1.512,1.522,3.509,3.509,0,0,1,.547,1.769,4.113,4.113,0,0,1-.523,2.095,7.958,7.958,0,0,1-1.4,1.826,20.765,20.765,0,0,1-2.772,2.355,21.6,21.6,0,0,1-2.79,1.7c-.434.221-.873.434-1.321.626a4.916,4.916,0,0,1-1.4.342,6.335,6.335,0,0,1-1.313.016,8.538,8.538,0,0,1-2.087-.478,8.871,8.871,0,0,1-2.041-.991,6.208,6.208,0,0,1-2.276-2.776,6.493,6.493,0,0,1-.468-2.016,8.3,8.3,0,0,1,.107-2.051,9.151,9.151,0,0,1,.908-2.683,7.728,7.728,0,0,1,5.1-3.957,7.8,7.8,0,0,1,1.735-.225C179.335,307.539,179.443,307.533,179.55,307.529Z" transform="translate(-170.864 -307.033)"/><path class="b" d="M179.065,323.482c-.209,0-.413-.01-.614-.028a8.993,8.993,0,0,1-2.209-.5,9.493,9.493,0,0,1-2.152-1.05,6.727,6.727,0,0,1-2.454-2.993,6.9,6.9,0,0,1-.5-2.168,8.674,8.674,0,0,1,.113-2.172,9.555,9.555,0,0,1,.958-2.827,8.4,8.4,0,0,1,7.264-4.448l.34-.014a11.626,11.626,0,0,1,3.023.49,19.827,19.827,0,0,1,3.285,1.341,16.22,16.22,0,0,1,2.12,1.2,5.887,5.887,0,0,1,1.647,1.662,4.032,4.032,0,0,1,.622,2.014,4.575,4.575,0,0,1-.582,2.344,8.33,8.33,0,0,1-1.479,1.941,21.648,21.648,0,0,1-2.837,2.411,22.123,22.123,0,0,1-2.855,1.736c-.442.229-.89.444-1.35.642a5.375,5.375,0,0,1-1.534.377A7.014,7.014,0,0,1,179.065,323.482Zm.734-15.216-.32.014a7.568,7.568,0,0,0-4.583,1.668,7.152,7.152,0,0,0-1.82,2.249,8.681,8.681,0,0,0-.859,2.537,7.78,7.78,0,0,0-.1,1.929,6.032,6.032,0,0,0,.43,1.868,5.749,5.749,0,0,0,2.1,2.555,9.2,9.2,0,0,0,3.9,1.386,5.809,5.809,0,0,0,1.212-.014,4.434,4.434,0,0,0,1.256-.306c.436-.188.865-.4,1.289-.612a21.416,21.416,0,0,0,2.729-1.659,20.375,20.375,0,0,0,2.707-2.3,7.506,7.506,0,0,0,1.313-1.712,3.617,3.617,0,0,0,.466-1.848,2.985,2.985,0,0,0-.472-1.522,4.807,4.807,0,0,0-1.378-1.38,15.411,15.411,0,0,0-1.994-1.127,18.426,18.426,0,0,0-3.121-1.273A10.6,10.6,0,0,0,179.8,308.265Z" transform="translate(-171.107 -307.278)"/></g><g transform="translate(18.122 22.034)"><path class="c" d="M186.629,319.972a11.193,11.193,0,0,1-.282,2.257,2.13,2.13,0,0,1-.6,1.074,1.979,1.979,0,0,1-.79.423,11.152,11.152,0,0,1-2.154.452c-.393.041-.79.059-1.185.061a5.243,5.243,0,0,1-2.525-.665c-.284-.154-.578-.294-.847-.476a1.062,1.062,0,0,1-.215-1.581,4.3,4.3,0,0,1,.521-.46c.464-.383.926-.768,1.4-1.145a30.356,30.356,0,0,1,3.248-2.355,3.838,3.838,0,0,1,.8-.381,1.675,1.675,0,0,1,1.7.4,2.6,2.6,0,0,1,.823,1.538C186.589,319.441,186.607,319.783,186.629,319.972Z" transform="translate(-177.28 -316.592)"/><path class="b" d="M181.846,324.978a5.719,5.719,0,0,1-2.736-.725l-.219-.116a7.028,7.028,0,0,1-.671-.383,1.576,1.576,0,0,1-.681-1.1,1.555,1.555,0,0,1,.365-1.22,3.771,3.771,0,0,1,.474-.43l.349-.286c.385-.318.77-.64,1.161-.952a30.338,30.338,0,0,1,3.3-2.395,4.366,4.366,0,0,1,.908-.426,2.158,2.158,0,0,1,2.178.5,3.1,3.1,0,0,1,.981,1.816,7.347,7.347,0,0,1,.091.731l.02.209,0,.042a11.431,11.431,0,0,1-.3,2.352,2.584,2.584,0,0,1-.74,1.315,2.449,2.449,0,0,1-.975.533,11.7,11.7,0,0,1-2.251.472c-.409.041-.819.061-1.232.065Zm2.934-7.155a1.246,1.246,0,0,0-.379.063,3.535,3.535,0,0,0-.7.334,29.381,29.381,0,0,0-3.191,2.322c-.387.308-.768.624-1.149.94l-.363.3a2.664,2.664,0,0,0-.342.3.57.57,0,0,0-.136.446.582.582,0,0,0,.255.4c.184.12.381.225.578.33l.227.118a4.75,4.75,0,0,0,2.269.608h.02c.375,0,.756-.02,1.133-.061a10.751,10.751,0,0,0,2.059-.43,1.544,1.544,0,0,0,.6-.314,1.664,1.664,0,0,0,.454-.835,10.632,10.632,0,0,0,.265-2.124l-.014-.15c-.016-.176-.036-.407-.077-.634a2.1,2.1,0,0,0-.663-1.254A1.255,1.255,0,0,0,184.78,317.823Z" transform="translate(-177.524 -316.836)"/></g><g transform="translate(2.858 24.253)"><path class="c" d="M172.089,322.19a4.287,4.287,0,0,1-1.566-.3.585.585,0,0,1-.29-.278,1.942,1.942,0,0,1-.176-1.11,3.093,3.093,0,0,1,.73-1.684,1.471,1.471,0,0,1,.725-.535,2.422,2.422,0,0,1,.608-.077,2.581,2.581,0,0,1,1.256.3,2.924,2.924,0,0,1,1.4,1.625,1.316,1.316,0,0,1,.03.736,1.127,1.127,0,0,1-.594.74,3.839,3.839,0,0,1-1.777.561C172.31,322.182,172.184,322.186,172.089,322.19Z" transform="translate(-169.55 -317.716)"/><path class="b" d="M172.332,322.93h-.022a4.785,4.785,0,0,1-1.741-.34,1.083,1.083,0,0,1-.533-.507,2.411,2.411,0,0,1-.225-1.382,3.564,3.564,0,0,1,.843-1.953,1.946,1.946,0,0,1,.971-.693,3.151,3.151,0,0,1,2.231.267,3.422,3.422,0,0,1,1.631,1.893,1.782,1.782,0,0,1,.049,1,1.6,1.6,0,0,1-.825,1.062,4.378,4.378,0,0,1-2,.632Zm.032-3.982a2.014,2.014,0,0,0-.482.059,1.016,1.016,0,0,0-.472.377,2.575,2.575,0,0,0-.618,1.418,1.424,1.424,0,0,0,.124.833,3.293,3.293,0,0,0,1.416.308l.318-.018a3.353,3.353,0,0,0,1.556-.492c.276-.164.34-.3.365-.42a.826.826,0,0,0-.012-.464,2.423,2.423,0,0,0-1.175-1.36A2.091,2.091,0,0,0,172.364,318.947Z" transform="translate(-169.793 -317.96)"/></g></svg>