<svg xmlns="http://www.w3.org/2000/svg" width="19.338" height="814.023" viewBox="0 0 19.338 814.023"><defs><style>.a{fill:gray;}.b{fill:#666;}.c{fill:#f2f2f2;}.d{fill:#f7e150;}</style></defs><rect class="a" width="19.338" height="814.023" transform="translate(0)"/><rect class="b" width="19.338" height="7.135" transform="translate(0 212.86)"/><rect class="b" width="19.338" height="7.135" transform="translate(0 403.068)"/><rect class="b" width="19.338" height="7.135" transform="translate(0 593.275)"/><rect class="b" width="19.338" height="7.135" transform="translate(0 783.483)"/><rect class="c" width="19.338" height="70.964" transform="translate(0 274.516)"/><g transform="translate(0 274.516)"><path class="d" d="M7.75,150.069,0,171.28v28.708l18.24-49.919Z" transform="translate(0 -150.069)"/><path class="c" d="M0,150.069V171.28l7.75-21.211Z" transform="translate(0 -150.069)"/><path class="d" d="M18.059,164.031,1.521,209.293h10.49l6.049-16.554Z" transform="translate(1.279 -138.329)"/><path class="c" d="M13.268,179.626,7.219,196.18h6.049Z" transform="translate(6.07 -125.216)"/><path class="c" d="M19.338,150.069h-1.1L0,199.988v21.045H2.8L19.338,175.77Z" transform="translate(0 -150.069)"/></g><g transform="translate(0 657.998)"><path class="d" d="M7.75,358.391,0,379.6V408.31l18.24-49.919Z" transform="translate(0 -358.391)"/><path class="c" d="M0,358.391V379.6l7.75-21.211Z" transform="translate(0 -358.391)"/><path class="d" d="M18.059,372.354,1.521,417.616h10.49l6.049-16.554Z" transform="translate(1.279 -346.652)"/><path class="c" d="M13.268,387.949,7.219,404.5h6.049Z" transform="translate(6.07 -333.539)"/><path class="c" d="M19.338,358.391h-1.1L0,408.31v21.045H2.8l16.538-45.262Z" transform="translate(0 -358.391)"/></g></svg>