<svg xmlns="http://www.w3.org/2000/svg" width="152" height="28" viewBox="0 0 152 28"><defs><style>.a{fill:#bc7979;}.b,.c{fill:#fff;}.c{font-size:12px;font-family:GenJyuuGothic-P-Normal, Gen Jyuu Gothic P;letter-spacing:0.05em;}</style></defs><g transform="translate(-132 -385)"><rect class="a" width="152" height="28" rx="14" transform="translate(132 385)"/><g transform="translate(-89)"><path class="b" d="M3.417,9.463H.789A.789.789,0,0,1,0,8.675V.789A.789.789,0,0,1,.789,0H3.417a.789.789,0,0,1,.789.789V8.675A.789.789,0,0,1,3.417,9.463ZM2.1,1.314a.789.789,0,1,0,.789.789A.789.789,0,0,0,2.1,1.314ZM12.618,14.147c0-1.394-.853-2.176-1.093-3.107h3.343a1.963,1.963,0,0,0,1.957-1.909,2.379,2.379,0,0,0-.639-1.617l0,0A2.745,2.745,0,0,0,15.876,4.9a2.6,2.6,0,0,0-.538-2.456,1.744,1.744,0,0,0-.2-1.467C14.465.014,12.8,0,11.4,0H11.3A9.433,9.433,0,0,0,7.375,1.042a5.172,5.172,0,0,1-1.73.532.394.394,0,0,0-.387.394V8.993a.394.394,0,0,0,.117.28c1.3,1.286,1.861,2.648,2.928,3.717a3.979,3.979,0,0,1,.834,1.935c.146.608.452,1.9,1.115,1.9C11.041,16.824,12.618,16.561,12.618,14.147Z" transform="translate(231 392)"/><text class="c" transform="translate(251 404)"><tspan x="0" y="0">您已經給孩子一個爛</tspan></text></g></g></svg>