<svg id="Layer_1" enable-background="new 0 0 512 512" height="512" viewBox="0 0 512 512" width="512" xmlns="http://www.w3.org/2000/svg"><g><path d="m400 424h-288c-61.757 0-112-50.243-112-112s50.243-112 112-112c5.673 0 11.297.421 16.844 1.258 7.332-63.663 61.561-113.258 127.156-113.258s119.824 49.595 127.156 113.258c5.547-.837 11.171-1.258 16.844-1.258 61.757 0 112 50.243 112 112s-50.243 112-112 112zm-288-192c-44.112 0-80 35.888-80 80s35.888 80 80 80h288c44.112 0 80-35.888 80-80s-35.888-80-80-80c-9.204 0-18.216 1.543-26.785 4.587-5.045 1.792-10.652.942-14.939-2.265s-6.687-8.345-6.393-13.691c.078-1.419.116-2.934.116-4.631 0-52.935-43.065-96-96-96s-96 43.065-96 96c0 1.697.038 3.212.116 4.631.294 5.346-2.105 10.484-6.393 13.691-4.287 3.207-9.894 4.057-14.939 2.265-8.567-3.044-17.579-4.587-26.783-4.587z"/></g></svg>