<svg xmlns="http://www.w3.org/2000/svg" xmlns:xlink="http://www.w3.org/1999/xlink" width="278" height="263.707" viewBox="0 0 278 263.707"><defs><style>.a{fill:#bad8b4;}.b{fill:#fafcfb;}.c{fill:#f9fbfa;}.d{fill:#e7e7e7;}.e{fill:none;}.f{fill:#ebebeb;}.g{fill:#ff8686;}.h{fill:#3b3b3b;}.i{fill:#404653;}.j{fill:#2d3340;}.k{fill:#ff0;}.l{filter:url(#am);}.m{filter:url(#ak);}.n{filter:url(#ai);}.o{filter:url(#ag);}.p{filter:url(#ae);}.q{filter:url(#ac);}.r{filter:url(#aa);}.s{filter:url(#y);}.t{filter:url(#w);}.u{filter:url(#u);}.v{filter:url(#s);}.w{filter:url(#q);}.x{filter:url(#o);}.y{filter:url(#m);}.z{filter:url(#k);}.aa{filter:url(#i);}.ab{filter:url(#g);}.ac{filter:url(#e);}.ad{filter:url(#c);}.ae{filter:url(#a);}</style><filter id="a" x="81.368" y="140.302" width="90.841" height="79.022" filterUnits="userSpaceOnUse"><feOffset dy="3" input="SourceAlpha"/><feGaussianBlur stdDeviation="3" result="b"/><feFlood flood-opacity="0.161"/><feComposite operator="in" in2="b"/><feComposite in="SourceGraphic"/></filter><filter id="c" x="36.69" y="130.034" width="41.22" height="52.183" filterUnits="userSpaceOnUse"><feOffset dy="6" input="SourceAlpha"/><feGaussianBlur stdDeviation="3" result="d"/><feFlood flood-opacity="0.161"/><feComposite operator="in" in2="d"/><feComposite in="SourceGraphic"/></filter><filter id="e" x="42.729" y="156.414" width="22.582" height="22.906" filterUnits="userSpaceOnUse"><feOffset dy="3" input="SourceAlpha"/><feGaussianBlur stdDeviation="3" result="f"/><feFlood flood-opacity="0.161"/><feComposite operator="in" in2="f"/><feComposite in="SourceGraphic"/></filter><filter id="g" x="38.88" y="155.973" width="22.064" height="22.693" filterUnits="userSpaceOnUse"><feOffset dy="3" input="SourceAlpha"/><feGaussianBlur stdDeviation="3" result="h"/><feFlood flood-opacity="0.161"/><feComposite operator="in" in2="h"/><feComposite in="SourceGraphic"/></filter><filter id="i" x="47.109" y="155.749" width="20.973" height="21.203" filterUnits="userSpaceOnUse"><feOffset dy="3" input="SourceAlpha"/><feGaussianBlur stdDeviation="3" result="j"/><feFlood flood-opacity="0.161"/><feComposite operator="in" in2="j"/><feComposite in="SourceGraphic"/></filter><filter id="k" x="67.954" y="33.869" width="73.591" height="107.416" filterUnits="userSpaceOnUse"><feOffset dy="3" input="SourceAlpha"/><feGaussianBlur stdDeviation="3" result="l"/><feFlood flood-opacity="0.161"/><feComposite operator="in" in2="l"/><feComposite in="SourceGraphic"/></filter><filter id="m" x="99.797" y="47.858" width="44.048" height="56.391" filterUnits="userSpaceOnUse"><feOffset dx="6" dy="3" input="SourceAlpha"/><feGaussianBlur stdDeviation="4.5" result="n"/><feFlood flood-opacity="0.161"/><feComposite operator="in" in2="n"/><feComposite in="SourceGraphic"/></filter><filter id="o" x="88.307" y="28.797" width="42.89" height="49.762" filterUnits="userSpaceOnUse"><feOffset dx="6" dy="-3" input="SourceAlpha"/><feGaussianBlur stdDeviation="3" result="p"/><feFlood flood-opacity="0.161"/><feComposite operator="in" in2="p"/><feComposite in="SourceGraphic"/></filter><filter id="q" x="0" y="51.61" width="278" height="155.372" filterUnits="userSpaceOnUse"><feOffset dy="3" input="SourceAlpha"/><feGaussianBlur stdDeviation="3" result="r"/><feFlood flood-opacity="0.161"/><feComposite operator="in" in2="r"/><feComposite in="SourceGraphic"/></filter><filter id="s" x="39.644" y="42.61" width="80.288" height="75.387" filterUnits="userSpaceOnUse"><feOffset dx="3" dy="-6" input="SourceAlpha"/><feGaussianBlur stdDeviation="3" result="t"/><feFlood flood-opacity="0.161"/><feComposite operator="in" in2="t"/><feComposite in="SourceGraphic"/></filter><filter id="u" x="8.215" y="124.138" width="64.009" height="33.72" filterUnits="userSpaceOnUse"><feOffset dx="1" dy="6" input="SourceAlpha"/><feGaussianBlur stdDeviation="3" result="v"/><feFlood flood-opacity="0.161"/><feComposite operator="in" in2="v"/><feComposite in="SourceGraphic"/></filter><filter id="w" x="114.392" y="43.439" width="84.524" height="96.283" filterUnits="userSpaceOnUse"><feOffset dy="3" input="SourceAlpha"/><feGaussianBlur stdDeviation="3" result="x"/><feFlood flood-opacity="0.161"/><feComposite operator="in" in2="x"/><feComposite in="SourceGraphic"/></filter><filter id="y" x="162.881" y="56.831" width="46.535" height="53.021" filterUnits="userSpaceOnUse"><feOffset dx="6" dy="3" input="SourceAlpha"/><feGaussianBlur stdDeviation="4.5" result="z"/><feFlood flood-opacity="0.161"/><feComposite operator="in" in2="z"/><feComposite in="SourceGraphic"/></filter><filter id="aa" x="146.258" y="37.439" width="51.42" height="44.594" filterUnits="userSpaceOnUse"><feOffset dx="6" dy="-3" input="SourceAlpha"/><feGaussianBlur stdDeviation="3" result="ab"/><feFlood flood-opacity="0.161"/><feComposite operator="in" in2="ab"/><feComposite in="SourceGraphic"/></filter><filter id="ac" x="138.905" y="149.661" width="80.356" height="57.035" filterUnits="userSpaceOnUse"><feOffset dy="3" input="SourceAlpha"/><feGaussianBlur stdDeviation="3" result="ad"/><feFlood flood-opacity="0.161"/><feComposite operator="in" in2="ad"/><feComposite in="SourceGraphic"/></filter><filter id="ae" x="76.244" y="130.508" width="36.963" height="51.158" filterUnits="userSpaceOnUse"><feOffset dy="6" input="SourceAlpha"/><feGaussianBlur stdDeviation="3" result="af"/><feFlood flood-opacity="0.161"/><feComposite operator="in" in2="af"/><feComposite in="SourceGraphic"/></filter><filter id="ag" x="82.743" y="156.902" width="22.098" height="22.517" filterUnits="userSpaceOnUse"><feOffset dy="3" input="SourceAlpha"/><feGaussianBlur stdDeviation="3" result="ah"/><feFlood flood-opacity="0.161"/><feComposite operator="in" in2="ah"/><feComposite in="SourceGraphic"/></filter><filter id="ai" x="78.865" y="157.07" width="21.568" height="22.383" filterUnits="userSpaceOnUse"><feOffset dy="3" input="SourceAlpha"/><feGaussianBlur stdDeviation="3" result="aj"/><feFlood flood-opacity="0.161"/><feComposite operator="in" in2="aj"/><feComposite in="SourceGraphic"/></filter><filter id="ak" x="86.758" y="155.627" width="20.655" height="20.953" filterUnits="userSpaceOnUse"><feOffset dy="3" input="SourceAlpha"/><feGaussianBlur stdDeviation="3" result="al"/><feFlood flood-opacity="0.161"/><feComposite operator="in" in2="al"/><feComposite in="SourceGraphic"/></filter><filter id="am" x="33.512" y="0" width="67.91" height="42.394" filterUnits="userSpaceOnUse"><feOffset dy="3" input="SourceAlpha"/><feGaussianBlur stdDeviation="3" result="an"/><feFlood flood-opacity="0.161"/><feComposite operator="in" in2="an"/><feComposite in="SourceGraphic"/></filter></defs><g transform="translate(-539 -43)"><ellipse class="a" cx="74.508" cy="23.105" rx="74.508" ry="23.105" transform="translate(602.992 260.497)"/><g transform="translate(548 82.87)"><g class="ae" transform="matrix(1, 0, 0, 1, -9, -39.87)"><path class="b" d="M44.13,4.855a1.21,1.21,0,0,0-.142-.036.934.934,0,0,0-.1-.067C34.417.91,23.219-1.953,13.206,1.657,5.761,4.342-.473,11.26.028,19.548.522,27.69,6.784,34.209,14.087,37.1A27.69,27.69,0,0,0,28.133,38.76c7.164-1.031,12.912-6.046,20.344-5.713a.947.947,0,0,0,.234-.036c2.742,1.281,2.966,5.388,7.55,4.353,3.59-.809,5.569-4.628,5.983-7.963C63.574,18.667,52.814,8.977,44.13,4.855Z" transform="matrix(0.91, 0.41, -0.41, 0.91, 106.25, 146.3)"/></g><g transform="matrix(0.951, 0.309, -0.309, 0.951, 46.368, 93.165)"><g class="ad" transform="matrix(0.95, -0.31, 0.31, 0.95, -93.77, -109.41)"><path class="c" d="M7.024.366A4.453,4.453,0,0,0,2.689.84a5.864,5.864,0,0,0-2.5,3.683C-.74,8.9,2,13.911,2.2,18.3,2.35,21.5.3,27.281,2.893,29.989c3.9,4.067,8.983-2.195,10.13-5.651a24.15,24.15,0,0,0,.65-12.765A22.814,22.814,0,0,0,11.4,5.508C10.454,3.781,9.216,1.686,7.5.622A4.281,4.281,0,0,0,7.024.366Z" transform="matrix(0.95, 0.31, -0.31, 0.95, 55.37, 133.03)"/></g><g transform="translate(0.458 26.829)"><g class="ac" transform="matrix(0.95, -0.31, 0.31, 0.95, -94.22, -136.24)"><path class="d" d="M2.106.1c-.214.083-.438.132-.652.216a3.47,3.47,0,0,0-.67.335A1.624,1.624,0,0,0,.009,1.819,2.123,2.123,0,0,0,1.4,3.87a1.381,1.381,0,0,0,1.958-.721A3.005,3.005,0,0,0,3.435,1.51a3.75,3.75,0,0,0-.278-.8A1.691,1.691,0,0,0,2.738.067C2.555-.063,2.307.023,2.106.1Z" transform="matrix(0.95, 0.31, -0.31, 0.95, 52.97, 162.41)"/></g><g class="ab" transform="matrix(0.95, -0.31, 0.31, 0.95, -94.22, -136.24)"><path class="d" d="M.707.1C.463.2.177.373.118.6A3.244,3.244,0,0,0,.687,3.5c.443.528,1.119.683,1.533.041a5.605,5.605,0,0,0,.549-1.489A2.372,2.372,0,0,0,2.941.777,1.268,1.268,0,0,0,1.815.041a2.559,2.559,0,0,0-.927,0A1.357,1.357,0,0,0,.707.1Z" transform="matrix(0.95, 0.31, -0.31, 0.95, 49.11, 161.97)"/></g><g class="aa" transform="matrix(0.95, -0.31, 0.31, 0.95, -94.22, -136.24)"><path class="d" d="M2.254,2.11a7.58,7.58,0,0,0-.328-1.02C1.781.819,1.229-.251.825.054.3.453-.2.976.085,1.687s1.085.869,1.775.941A.412.412,0,0,0,2.254,2.11Z" transform="matrix(0.95, 0.31, -0.31, 0.95, 56.92, 161.75)"/></g><path class="d" d="M1.6.078A.49.49,0,0,0,1.231.013C.6.189-.165.854.031,1.608s1.2.512,1.731.288a.41.41,0,0,0,.2-.351A4.61,4.61,0,0,0,1.808.353.417.417,0,0,0,1.6.078Z" transform="translate(0 0.254)"/></g></g><g transform="translate(67.954 8.523) rotate(-13)"><g class="z" transform="matrix(0.97, 0.22, -0.22, 0.97, -64.1, -64.46)"><path class="b" d="M31.867,42.7c3.218-4.648,6.562-11.574,5.945-18.352s-4.046-6.066-7.019-3.659c2.3-5.633,4.128-12.773,2.087-17.783C30-4.159,23.786,3.434,21.185,7.035,14.8,15.884,10.776,29.472,7.028,42.22,3.357,54.7.355,67.6,0,81.988c-.028,1.139.735,1.329,1.038.607,11.441-.289,22.025-9.447,30.922-22.473,2.114-3.1,5.505-8.12,3.574-13.794C34.585,43.538,33.272,42.6,31.867,42.7Z" transform="translate(76.95 48.39) rotate(-13)"/></g><g class="y" transform="matrix(0.97, 0.22, -0.22, 0.97, -64.1, -64.46)"><path class="b" d="M11.052,5.369C10.108-5,2.614,2.153.19,6.062-.267,6.8.182,7.912.667,7.849L1.788,25.322c-.073.081-.143.168-.217.248-.648.7-.063,2.572.586,1.872C5.744,23.577,11.869,14.341,11.052,5.369Z" transform="translate(107.3 60.86) rotate(-13)"/></g><g class="x" transform="matrix(0.97, 0.22, -0.22, 0.97, -64.1, -64.46)"><path class="b" d="M18.149,2.9c-2.877-7.061-9.094.532-11.694,4.133A60.53,60.53,0,0,0,0,19.078l1.133.806a5.185,5.185,0,0,1,.85.69.421.421,0,0,0,.2.114q4.865,3.73,9.731,7.463c.2.149.422-.045.566-.279C15.3,23.307,21.281,10.593,18.149,2.9Z" transform="translate(91.31 45.08) rotate(-13)"/></g></g><g transform="translate(0 17.74)"><g transform="translate(0 0)"><path class="e" d="M70.761,57.025a20.172,20.172,0,0,0-4.978,8.148l0,0c-.175,7.764,13.191.2,14.918-.866a44.187,44.187,0,0,0,7.555-5.927A36.729,36.729,0,0,1,70.761,57.025Z" transform="translate(-58.384 1.094)"/><g class="w" transform="matrix(1, 0, 0, 1, -9, -57.61)"><path class="b" d="M321.166,60.659a.822.822,0,0,0-.456-1.09,136.089,136.089,0,0,0-74.594-11.462A132.65,132.65,0,0,0,209.54,58.279c-15.528,6.875-31.963,21.279-49.81,13.508a.8.8,0,0,0-.121-.026c2.37-16.929-2.592-37.521-17.907-46.228a30.628,30.628,0,0,0-31.772.763c-17.84-9.48-35.107,3.267-36.475,22.3-8.176,4.9-16.915,15.585-9.238,24.864a19.7,19.7,0,0,0,7.367,5.306,22.316,22.316,0,0,0-4.7,7.908,1,1,0,0,0-.255.58,4.939,4.939,0,0,0,1.863,4.71.888.888,0,0,0,.165.5c6.44,9.189,17.865,14.523,28.93,14.183a111.833,111.833,0,0,0,14.523,20.5C124.115,140.567,139.417,150.908,157,155.8a82.439,82.439,0,0,0,68.943-11.451c1.164-.812,2.314-1.644,3.437-2.522a.954.954,0,0,0,.482-.141c17.8-10.715,22.852-30.984,31.626-48.441,11.189-22.263,33.27-35.72,58.487-31.076A1.1,1.1,0,0,0,321.166,60.659ZM83.57,86.865c-1.727,1.062-15.093,8.63-14.918.866l0,0a20.172,20.172,0,0,1,4.978-8.148,36.729,36.729,0,0,0,17.494,1.358A44.187,44.187,0,0,1,83.57,86.865Z" transform="translate(-52.25 36.15)"/></g><path class="f" d="M165.288,80.221c-16.7-4.911-34.746-4.461-51.563.023-8,2.134-16.138,5.461-21.352,11.871,12.008,13.417,27.311,23.758,44.894,28.647a82.439,82.439,0,0,0,68.943-11.451C196.625,95.195,181.667,85.037,165.288,80.221Z" transform="translate(-41.519 13.576)"/></g><path class="g" d="M88.255,58.383A44.187,44.187,0,0,1,80.7,64.31c-1.727,1.062-15.093,8.63-14.918.866l0,0a20.172,20.172,0,0,1,4.978-8.148A36.729,36.729,0,0,0,88.255,58.383Z" transform="translate(-58.384 1.095)"/><g class="v" transform="matrix(1, 0, 0, 1, -9, -57.61)"><path class="b" d="M127.481,25.534C111.411,16.4,91.92,23.308,83.8,39.48c-.58,1.157,1.123,2.17,1.736,1.069l56.695,36.712c-.028.1-.047.216-.075.319a1.022,1.022,0,0,0,1.969.543C148.889,60.372,144.779,35.367,127.481,25.534Z" transform="translate(-38.03 36.15)"/></g><g class="u" transform="matrix(1, 0, 0, 1, -9, -57.61)"><path class="b" d="M110.213,72.335c-.3.224-.619.4-.925.611l-41.046-7.69c-.2-.27-.431-.521-.626-.8-.748-1.069-2.52-.049-1.763,1.03C75.7,79.536,97.2,84.667,111.245,74.1,112.282,73.318,111.266,71.545,110.213,72.335Z" transform="translate(-49.45 63.13)"/></g></g><g transform="translate(114.393 9.57)"><g class="t" transform="matrix(1, 0, 0, 1, -123.39, -49.44)"><path class="b" d="M558.9,99.1c5.651-4.383,11.523-10.913,10.439-17.3s-7.1-5.72-12.325-3.45c4.041-5.311,7.248-12.044,3.664-16.768-5.051-6.658-15.968.5-20.534,3.9-11.217,8.344-18.277,21.156-24.859,33.177-6.445,11.768-11.715,23.928-12.338,37.5a1,1,0,0,0,1.822.572c20.089-.273,38.673-8.908,54.294-21.19,3.711-2.919,9.666-7.656,6.275-13.006A6.888,6.888,0,0,0,558.9,99.1Z" transform="translate(-379.55 -9.4)"/></g><g class="s" transform="matrix(1, 0, 0, 1, -123.39, -49.44)"><path class="b" d="M551.1,74.855c-1.657-9.776-14.816-3.033-19.071.654-.8.695-.015,1.744.837,1.685l1.969,16.476c-.127.077-.252.159-.381.234a1.022,1.022,0,0,0,1.03,1.765C541.78,92.024,552.534,83.315,551.1,74.855Z" transform="translate(-361.31 -2.46)"/></g><g class="r" transform="matrix(1, 0, 0, 1, -123.39, -49.44)"><path class="b" d="M550.636,61.58c-5.051-6.658-15.968.5-20.534,3.9a59.346,59.346,0,0,0-11.333,11.356l1.989.76a10.3,10.3,0,0,1,1.492.65,1.026,1.026,0,0,0,.35.108q8.543,3.518,17.087,7.037a1.016,1.016,0,0,0,.994-.263C545.642,80.821,556.136,68.832,550.636,61.58Z" transform="translate(-369.51 -9.4)"/></g></g><path class="h" d="M.5,4.157c.379-1.49,1.461-3.5,2.771-4A3.31,3.31,0,0,1,6.882,1.428c1.607,2.051,1.49,5.055,1.312,7.648,0,.046-.035.063-.044.1a.6.6,0,0,1-.192.556,5.305,5.305,0,0,1-4.441,1.143C2.589,10.725.846,10.492.3,9.4-.323,8.134.161,5.5.5,4.157Z" transform="translate(44.838 53.157) rotate(-8)"/><g class="q" transform="matrix(1, 0, 0, 1, -9, -39.87)"><path class="b" d="M458.633,79.225a1.21,1.21,0,0,0-.142-.036.934.934,0,0,0-.1-.067c-9.468-3.842-20.666-6.705-30.679-3.1-7.445,2.685-13.68,9.6-13.178,17.891.494,8.142,6.756,14.66,14.059,17.548a27.69,27.69,0,0,0,14.046,1.664c7.164-1.031,12.912-6.046,20.344-5.713a.947.947,0,0,0,.234-.036c2.742,1.281,2.966,5.388,7.55,4.353,3.59-.809,5.569-4.628,5.983-7.963C478.076,93.037,467.317,83.347,458.633,79.225Z" transform="translate(-266.6 81.29)"/></g><g transform="translate(81.143 93.639) rotate(9)"><g class="p" transform="matrix(0.99, -0.16, 0.16, 0.99, -109.92, -117.76)"><path class="c" d="M7.024.366A4.453,4.453,0,0,0,2.689.84a5.864,5.864,0,0,0-2.5,3.683C-.74,8.9,2,13.911,2.2,18.3,2.35,21.5.3,27.281,2.893,29.989c3.9,4.067,8.983-2.195,10.13-5.651a24.15,24.15,0,0,0,.65-12.765A22.814,22.814,0,0,0,11.4,5.508C10.454,3.781,9.216,1.686,7.5.622A4.281,4.281,0,0,0,7.024.366Z" transform="translate(90.14 133.51) rotate(9)"/></g><g transform="translate(0.458 26.829)"><g class="o" transform="matrix(0.99, -0.16, 0.16, 0.99, -110.38, -144.59)"><path class="f" d="M2.106.1c-.214.083-.438.132-.652.216a3.47,3.47,0,0,0-.67.335A1.624,1.624,0,0,0,.009,1.819,2.123,2.123,0,0,0,1.4,3.87a1.381,1.381,0,0,0,1.958-.721A3.005,3.005,0,0,0,3.435,1.51a3.75,3.75,0,0,0-.278-.8A1.691,1.691,0,0,0,2.738.067C2.555-.063,2.307.023,2.106.1Z" transform="translate(92.37 162.9) rotate(9)"/></g><g class="n" transform="matrix(0.99, -0.16, 0.16, 0.99, -110.38, -144.59)"><path class="f" d="M.707.1C.463.2.177.373.118.6A3.244,3.244,0,0,0,.687,3.5c.443.528,1.119.683,1.533.041a5.605,5.605,0,0,0,.549-1.489A2.372,2.372,0,0,0,2.941.777,1.268,1.268,0,0,0,1.815.041a2.559,2.559,0,0,0-.927,0A1.357,1.357,0,0,0,.707.1Z" transform="translate(88.48 163.07) rotate(9)"/></g><g class="m" transform="matrix(0.99, -0.16, 0.16, 0.99, -110.38, -144.59)"><path class="f" d="M2.254,2.11a7.58,7.58,0,0,0-.328-1.02C1.781.819,1.229-.251.825.054.3.453-.2.976.085,1.687s1.085.869,1.775.941A.412.412,0,0,0,2.254,2.11Z" transform="translate(96.17 161.63) rotate(9)"/></g><path class="f" d="M1.6.078A.49.49,0,0,0,1.231.013C.6.189-.165.854.031,1.608s1.2.512,1.731.288a.41.41,0,0,0,.2-.351A4.61,4.61,0,0,0,1.808.353.417.417,0,0,0,1.6.078Z" transform="translate(0 0.254)"/></g></g></g><g transform="translate(304.477 -113.546)"><path class="i" d="M348.585,230.553c-.6-2.063-3.332-2.892-5.307-3.834-3.814-1.821-6.553-4.334-9.437-6.977-2.1-1.92-3.429-3.5-3.937-6.077-.485-2.463-.471-4.935-.844-7.407-.4-2.647-.561-5.217-.76-7.855a7.6,7.6,0,0,0-3.817-5.871,19.824,19.824,0,0,0-7.186-3.224c-3.494-.7-6.679.2-10.1.319a.447.447,0,0,0-.294-.069c-3.21.263-6.094-.936-9.2-1.376-1.416-.2-2.874-.274-4.287-.488-4.039-.611-8.667-1.327-12.566.08-4.6,1.658-7.224,3.2-8.525,7.182-.649,1.988-1.337,3.971-1.907,5.968-.686,2.405-2.052,4.536-2.938,6.877a18.1,18.1,0,0,1-4.777,2.448c-1.821.763-3.851,1.307-5.729,1.983-3.507,1.261-6.77,2.236-7.446,5.56a.347.347,0,0,0,.139.346c.135,6.77,6.142,10.868,12.515,14.563a29.6,29.6,0,0,0,10.851,3.3c4.778.657,9.168,2.431,13.808,3.543,6.934,1.662,13.494,3.223,20.75,3.81a90.283,90.283,0,0,0,15.913.012c4.145-.395,8.437-.726,12.243-2.239a37.349,37.349,0,0,0,11.018-6.911C348.223,232.852,349.284,231.773,348.585,230.553Z"/><path class="j" d="M274.212,220.27c.034.3-.056.6-.017.855.041.276.082.565.108.84a3.444,3.444,0,0,0,.286.77l.1.2.048.1a.694.694,0,0,1,.045.165.569.569,0,0,0,.1.349l.174.373.086.188a.75.75,0,0,0,.108.133,1.2,1.2,0,0,1,.295.47,1.771,1.771,0,0,0,.066.17c.03.06.064.121.1.181.151.241.326.486.51.729.211.276.239.576.481.774-.358-.1-.534-.428-.768-.584a5.318,5.318,0,0,1-.726-.67c-.054-.063-.108-.127-.159-.195a1.613,1.613,0,0,1-.129-.231.67.67,0,0,0-.221-.275,1.126,1.126,0,0,1-.2-.218l-.111-.213-.221-.428a1.145,1.145,0,0,1-.1-.252,2.031,2.031,0,0,1-.023-.235.2.2,0,0,0-.009-.046l-.045-.1-.088-.207a2.689,2.689,0,0,1-.19-.909c.023-.3.062-.589.108-.888A4.128,4.128,0,0,1,274.212,220.27Z" transform="translate(-5.985 -12.756)"/><path class="j" d="M285.489,234.514c2.166.89,4.469,1.633,6.6,2.505.092.027.247.044.448.111a1.379,1.379,0,0,1,.277.133c.063.038.056.028.063.028-.032,0,.029,0,.146,0a.864.864,0,0,1,.233.036,1.108,1.108,0,0,1,.175.07.617.617,0,0,0,.29.105c.619.1,1.207.287,1.79.363l.862.129.228.036c.1.017.2.039.285.062l.432.126c.233.051.559.088.834.133.334.054.648.136.929.2.515.125,1.167.2,1.748.3a4.274,4.274,0,0,1,.492.127c.022.011.229.035.391.061s.373.052.461.073c.1.021.232.036.38.052a5.328,5.328,0,0,1,1.012.189,3.025,3.025,0,0,0,.354.083,3.372,3.372,0,0,1,.525.088c.4.111.665.25.856.3l.822.177c.58.117,1.148.228,1.7.29a12.227,12.227,0,0,1,1.906.3c.108.035.383.024.8.067l.937.16a2.594,2.594,0,0,0,.333.026l.243.009a2.1,2.1,0,0,1,.383.057c.206.043.052.024.209.027a2.162,2.162,0,0,1,.614.046l.462.1a1.474,1.474,0,0,0,.317.034c.227.007.564-.018.895-.012l1.827.007,3.621.008c.284-.007.562-.024.832-.056.236-.031.634-.088.911-.113a6.2,6.2,0,0,0,.818-.125,5.3,5.3,0,0,1,1.049-.06l1.834-.1c.3-.013.635-.038.916-.028a2.43,2.43,0,0,0,.715-.086c.254-.067.544-.173.892-.252s.611-.1.921-.15c.6-.1,1.214-.16,1.741-.306.556-.156,1.218-.3,1.753-.457l.849-.233a2.665,2.665,0,0,0,.719-.3,3.132,3.132,0,0,1,.911-.362.823.823,0,0,0,.3-.129l.193-.115.192-.1c.1-.056.208-.139.34-.227a1.978,1.978,0,0,1,.448-.213,3.2,3.2,0,0,0,.743-.368c.242-.153.519-.3.76-.42a3.762,3.762,0,0,0,.614-.51c.412-.37.867-.716,1.292-1.07-.373.4-.76.776-1.112,1.185a3.638,3.638,0,0,1-.6.6c-.26.162-.482.3-.705.473a3.527,3.527,0,0,1-.769.464,1.322,1.322,0,0,0-.322.186c-.1.076-.2.175-.34.271l-.184.115-.163.118a1.477,1.477,0,0,1-.48.248,2.251,2.251,0,0,0-.687.346,3.257,3.257,0,0,1-.869.425l-.863.29c-.6.209-1.106.347-1.69.545a15.313,15.313,0,0,1-1.8.407c-.285.058-.62.115-.864.175s-.5.17-.82.27a3.872,3.872,0,0,1-1.074.178c-.329,0-.6.039-.906.064l-1.808.147a4.648,4.648,0,0,0-.768.045,7.987,7.987,0,0,1-.971.173c-.327.039-.529.077-.891.133-.332.047-.661.074-.984.09-1.292.036-2.454.018-3.688.03l-1.827.007c-.278,0-.549.023-.93.019a3.341,3.341,0,0,1-.589-.056l-.422-.089a.626.626,0,0,0-.288-.031,2.311,2.311,0,0,1-.688-.078.249.249,0,0,0-.065-.013l-.213-.01a4.159,4.159,0,0,1-.574-.056l-.849-.154a7.122,7.122,0,0,1-1.01-.114,10.552,10.552,0,0,0-1.675-.272,17.2,17.2,0,0,1-1.866-.343l-.445-.1c-.156-.04-.265-.058-.491-.125-.381-.124-.633-.261-.812-.309a2.2,2.2,0,0,0-.367-.064,4.545,4.545,0,0,1-.52-.132,3.536,3.536,0,0,0-.76-.16c-.153-.02-.327-.043-.517-.086s-.284-.051-.433-.079a4.84,4.84,0,0,1-.5-.1c-.213-.064-.283-.1-.371-.115-.6-.131-1.163-.2-1.809-.384-.3-.084-.563-.164-.825-.216-.318-.067-.6-.1-.947-.2l-.422-.141c-.057-.018-.108-.031-.154-.041l-.218-.043-.923-.189a19.951,19.951,0,0,1-3.434-1.063c-.585-.324-1.058-.523-1.6-.773s-1.089-.454-1.6-.744c-.13-.065-.263-.146-.372-.186s-.275-.083-.43-.152l-.782-.394c-.259-.129-.505-.281-.778-.39A3.152,3.152,0,0,1,285.489,234.514Z" transform="translate(-8.896 -18.211)"/></g><g class="l" transform="matrix(1, 0, 0, 1, 539, 43)"><path class="k" d="M-790.682-110.5c-12.4,0-24.955-4.189-24.955-12.2s12.554-12.2,24.955-12.2,24.955,4.189,24.955,12.2S-778.28-110.5-790.682-110.5Zm0-17.777c-12.622,0-18.338,4.28-18.338,5.58s5.716,5.58,18.338,5.58,18.338-4.28,18.338-5.58S-778.06-128.277-790.682-128.277Z" transform="translate(858.15 140.89)"/></g></g></svg>