<svg xmlns="http://www.w3.org/2000/svg" xmlns:xlink="http://www.w3.org/1999/xlink" width="254.376" height="232.035" viewBox="0 0 254.376 232.035"><defs><style>.a{fill:#bad8b4;}.b{fill:#ffe87e;}.c{fill:#ffecaa;}.d{fill:#3b3b3b;}.e{fill:#404653;}.f{fill:#2d3340;}.g{filter:url(#m);}.h{filter:url(#k);}.i{filter:url(#i);}.j{filter:url(#g);}.k{filter:url(#e);}.l{filter:url(#c);}.m{filter:url(#a);}</style><filter id="a" x="30.02" y="123.601" width="34.981" height="42.411" filterUnits="userSpaceOnUse"><feOffset dy="3" input="SourceAlpha"/><feGaussianBlur stdDeviation="3" result="b"/><feFlood flood-opacity="0.161"/><feComposite operator="in" in2="b"/><feComposite in="SourceGraphic"/></filter><filter id="c" x="3.001" y="25.328" width="251.376" height="174.255" filterUnits="userSpaceOnUse"><feOffset dy="3" input="SourceAlpha"/><feGaussianBlur stdDeviation="3" result="d"/><feFlood flood-opacity="0.161"/><feComposite operator="in" in2="d"/><feComposite in="SourceGraphic"/></filter><filter id="e" x="36.371" y="127.669" width="100.118" height="75.681" filterUnits="userSpaceOnUse"><feOffset dy="5" input="SourceAlpha"/><feGaussianBlur stdDeviation="3" result="f"/><feFlood flood-opacity="0.161"/><feComposite operator="in" in2="f"/><feComposite in="SourceGraphic"/></filter><filter id="g" x="47.742" y="16.328" width="90.637" height="84.637" filterUnits="userSpaceOnUse"><feOffset dx="3" dy="-6" input="SourceAlpha"/><feGaussianBlur stdDeviation="3" result="h"/><feFlood flood-opacity="0.161"/><feComposite operator="in" in2="h"/><feComposite in="SourceGraphic"/></filter><filter id="i" x="0" y="53.347" width="63.906" height="71.503" filterUnits="userSpaceOnUse"><feOffset dx="-3" dy="6" input="SourceAlpha"/><feGaussianBlur stdDeviation="3" result="j"/><feFlood flood-opacity="0.161"/><feComposite operator="in" in2="j"/><feComposite in="SourceGraphic"/></filter><filter id="k" x="93.005" y="132.903" width="59.386" height="92.492" filterUnits="userSpaceOnUse"><feOffset dy="3" input="SourceAlpha"/><feGaussianBlur stdDeviation="3" result="l"/><feFlood flood-opacity="0.161"/><feComposite operator="in" in2="l"/><feComposite in="SourceGraphic"/></filter><filter id="m" x="66.6" y="122.509" width="34.981" height="42.411" filterUnits="userSpaceOnUse"><feOffset dy="3" input="SourceAlpha"/><feGaussianBlur stdDeviation="3" result="n"/><feFlood flood-opacity="0.161"/><feComposite operator="in" in2="n"/><feComposite in="SourceGraphic"/></filter></defs><g transform="translate(-20 -450.366)"><ellipse class="a" cx="74.508" cy="23.105" rx="74.508" ry="23.105" transform="translate(49.992 636.19)"/><g class="m" transform="matrix(1, 0, 0, 1, 20, 450.37)"><path class="b" d="M155.661,319.427a6.39,6.39,0,0,0-4.072-.6,5.382,5.382,0,0,0-4.061,3.871,33.5,33.5,0,0,1-2.5,6.282,14.578,14.578,0,0,0-2.161,4.773,5.82,5.82,0,0,0,.554,3.508c-.632.35-1.385.844-1.471,1.469-.07.506.307,1.086.895.895.378-.123.749-.263,1.124-.4a16.723,16.723,0,0,0-.122,1.838.736.736,0,0,0,1.241.514c.222-.2.46-.385.689-.579a16.5,16.5,0,0,0,.648,1.788c.29.611,1.14.364,1.329-.173q.248-.705.494-1.41c3.29.443,6.307-2.891,7.939-5.928,1.8-3.349,3.386-7.439,2.468-11.288a8.207,8.207,0,0,0-1.914-3.719A4.519,4.519,0,0,0,155.661,319.427Z" transform="translate(-102.92 -189.13)"/></g><path class="b" d="M137.974,378.855c-1.16-9.51-5.111-22.486-16.018-24.721-3.92-.8-8.153-.356-11.015,2.69-7.043,7.494-3.31,18.279.177,26.344,1.97,4.555,5.023,8.591,7.161,13.071a21.8,21.8,0,0,1,2.535,8.639,7.565,7.565,0,0,1-1.036,4.276c-.64,1-1.832,1.719-2.022,2.985-.647,4.312,8.385,3.486,10.611,2.794a8.015,8.015,0,0,0,1.235-.482C141.671,408.362,139.308,389.792,137.974,378.855Z" transform="translate(-32.743 244.796)"/><g transform="translate(32.001 481.693)"><g class="l" transform="matrix(1, 0, 0, 1, -12, -31.33)"><path class="b" d="M474.762,933.7c-.019.006-.033,0-.05.008-11.065,4.518-23.331,6.344-34.959,2.779-10.182-3.123-19.358-9.142-29.473-12.629-22.522-7.768-42.564-15.157-58.022-34.161,4.2-10.221,6.634-20.882,3.8-31.789-2.722-10.47-8.252-20.621-17.118-27.1-11.462-8.37-26.745-8.1-39.236-2.113-16.578-11.487-36.024,1.433-37.448,19.995-14.144,8.976-25.26,26.544-15.774,42.791a19.954,19.954,0,0,0,10.365,8.68c2.375,8.048,10.041,11.753,17.822,12.977a.985.985,0,0,0,.3-.012,129.2,129.2,0,0,0,1.357,16.85,38.074,38.074,0,0,1,24.9-4.908c12.119,1.71,23.062,8.433,32.022,16.771a96.181,96.181,0,0,1,25.2,38.762c22.118-3.4,43.415-10.778,65.18-15.832,10.445-2.427,22.1-3.056,31.737-8.075,9.143-4.761,15.362-13.247,20.812-21.719C476.768,934.043,475.531,933.175,474.762,933.7Z" transform="translate(-230.95 -793.02)"/></g><g class="k" transform="matrix(1, 0, 0, 1, -12, -31.33)"><path class="c" d="M321.2,905.634c-8.96-8.338-19.9-15.061-32.022-16.771a38.073,38.073,0,0,0-24.9,4.908c1.954,12.9,6.324,25.44,15.239,35.092,15.644,16.941,38.836,18.925,60.573,16.4,2.111-.246,4.21-.544,6.305-.867A96.181,96.181,0,0,0,321.2,905.634Z" transform="translate(-218.91 -756.81)"/></g></g><g class="j" transform="matrix(1, 0, 0, 1, 20, 450.37)"><path class="b" d="M342.488,496.35c-2.724-10.47-8.251-20.621-17.118-27.095-16.736-12.221-41.614-6.034-54.062,9.5-.779.973.6,2.366,1.383,1.383.03-.036.061-.07.091-.106l63.895,47.885c-.047.114-.086.232-.133.346-.487,1.159,1.4,1.666,1.885.521C342.794,518.363,345.384,507.485,342.488,496.35Z" transform="translate(-217.34 -431.46)"/></g><path class="d" d="M9.334,7.894A12.609,12.609,0,0,0,7.848,2.15,4.168,4.168,0,0,0,3.781.011a2.939,2.939,0,0,0-2.6,1.443,3.661,3.661,0,0,0-.361.56A9.71,9.71,0,0,0,.237,8.162C.588,9.854,1.3,11.913,2.7,12.571a5.1,5.1,0,0,0,4.617-.3C8.9,11.218,9.5,10.142,9.334,7.894Z" transform="matrix(0.985, 0.174, -0.174, 0.985, 80.811, 517.823)"/><g class="i" transform="matrix(1, 0, 0, 1, 20, 450.37)"><path class="b" d="M186.535,566.635l-24.346-45.987.035-.021c1.044-.651.083-2.309-.967-1.653-13.991,8.735-25.1,26.076-15.741,42.1,4.1,7.025,11,9.57,18.826,10.606,7.475.99,17.142,1.5,23.3-3.558C188.513,567.4,187.447,566.233,186.535,566.635Z" transform="translate(-130.06 -462.48)"/></g><g class="h" transform="matrix(1, 0, 0, 1, 20, 450.37)"><path class="b" d="M261.237,388.921c-1.007-7.826-3.1-16.621-9.885-21.493a13.252,13.252,0,0,0-6.16-2.488,23.54,23.54,0,0,0-4.981-.17,21.983,21.983,0,0,0-9.218,2.758,20.876,20.876,0,0,0-9.35,11.315c-2.243,6.428-.967,13.207,1.435,19.391,2.231,5.744,6.074,10.753,8.5,16.423a22.2,22.2,0,0,1,1.976,7.293,11.539,11.539,0,0,1-.357,3.757,6.732,6.732,0,0,1-1.577,3.236,10.41,10.41,0,0,1-1.581.653,4.925,4.925,0,0,0-1.4,1.139,4.287,4.287,0,0,0-.97,3.5c.514,2.97,3.9,4.22,6.472,4.673,8.3,1.461,19.2-2.687,22.214-11.023a.956.956,0,0,0,.166-.268A81.052,81.052,0,0,0,261.237,388.921Z" transform="translate(-118.47 -225.8)"/></g><g class="g" transform="matrix(1, 0, 0, 1, 20, 450.37)"><path class="b" d="M155.661,319.427a6.39,6.39,0,0,0-4.072-.6,5.382,5.382,0,0,0-4.061,3.871,33.5,33.5,0,0,1-2.5,6.282,14.578,14.578,0,0,0-2.161,4.773,5.82,5.82,0,0,0,.554,3.508c-.632.35-1.385.844-1.471,1.469-.07.506.307,1.086.895.895.378-.123.749-.263,1.124-.4a16.723,16.723,0,0,0-.122,1.838.736.736,0,0,0,1.241.514c.222-.2.46-.385.689-.579a16.5,16.5,0,0,0,.648,1.788c.29.611,1.14.364,1.329-.173q.248-.705.494-1.41c3.29.443,6.307-2.891,7.939-5.928,1.8-3.349,3.386-7.439,2.468-11.288a8.207,8.207,0,0,0-1.914-3.719A4.519,4.519,0,0,0,155.661,319.427Z" transform="translate(-66.34 -190.22)"/></g><g transform="translate(-205.523 263.408)"><path class="e" d="M356.858,234.194c-.649-2.236-3.61-3.133-5.75-4.155-4.133-1.973-7.1-4.7-10.225-7.559-2.272-2.081-3.715-3.8-4.266-6.585-.526-2.668-.511-5.347-.914-8.026-.433-2.868-.608-5.653-.824-8.511-.2-2.658-1.647-4.707-4.135-6.362a21.48,21.48,0,0,0-7.786-3.493c-3.786-.762-7.237.222-10.94.346a.485.485,0,0,0-.319-.075c-3.478.285-6.6-1.014-9.969-1.491-1.534-.217-3.114-.3-4.645-.529-4.376-.662-9.391-1.437-13.616.087-4.981,1.8-7.827,3.47-9.237,7.782-.7,2.154-1.449,4.3-2.067,6.467-.743,2.606-2.223,4.915-3.184,7.452-1.264,1.154-3.635,2.006-5.176,2.652-1.974.827-4.172,1.416-6.207,2.148-3.8,1.366-7.336,2.423-8.068,6.025a.376.376,0,0,0,.15.375c.147,7.335,6.655,11.776,13.561,15.779A32.067,32.067,0,0,0,275,240.091c5.177.712,9.934,2.634,14.961,3.839,7.513,1.8,14.622,3.492,22.483,4.129a97.824,97.824,0,0,0,17.242.013c4.491-.428,9.142-.787,13.265-2.426a40.469,40.469,0,0,0,11.938-7.488C356.467,236.685,357.617,235.516,356.858,234.194Z"/><path class="f" d="M274.253,220.27c.037.322-.06.648-.018.926.044.3.089.612.117.911a3.732,3.732,0,0,0,.31.834l.109.213.052.107a.752.752,0,0,1,.049.179.616.616,0,0,0,.11.378l.189.4.093.2a.814.814,0,0,0,.117.144,1.3,1.3,0,0,1,.32.509,1.914,1.914,0,0,0,.072.185c.033.065.069.131.109.2.163.261.353.527.553.79.228.3.259.624.521.839-.388-.1-.578-.463-.832-.633a5.762,5.762,0,0,1-.786-.725c-.059-.068-.117-.138-.172-.211a1.746,1.746,0,0,1-.139-.25.726.726,0,0,0-.24-.3,1.22,1.22,0,0,1-.212-.237l-.121-.231-.239-.464a1.242,1.242,0,0,1-.108-.273,2.2,2.2,0,0,1-.024-.254.217.217,0,0,0-.01-.05l-.049-.112-.1-.224a2.914,2.914,0,0,1-.206-.985c.024-.326.067-.638.117-.962A4.472,4.472,0,0,1,274.253,220.27Z" transform="translate(-4.464 -11.039)"/><path class="f" d="M285.489,234.514c2.347.965,4.842,1.769,7.151,2.715.1.029.268.048.485.12a1.493,1.493,0,0,1,.3.144c.069.041.06.03.068.031-.034-.005.031,0,.158,0a.936.936,0,0,1,.253.039,1.2,1.2,0,0,1,.19.076.668.668,0,0,0,.314.114c.67.11,1.308.311,1.939.393l.934.14.247.039c.112.018.215.042.308.067l.468.136c.252.056.606.1.9.144.362.058.7.147,1.006.219.558.136,1.265.212,1.894.321a4.629,4.629,0,0,1,.533.138c.024.011.248.038.424.066s.4.057.5.08c.113.023.251.039.412.056a5.772,5.772,0,0,1,1.1.2,3.281,3.281,0,0,0,.384.09,3.652,3.652,0,0,1,.569.1c.432.12.72.271.927.324l.891.192c.628.127,1.244.247,1.846.314a13.25,13.25,0,0,1,2.065.324c.117.038.415.026.868.072l1.015.173a2.809,2.809,0,0,0,.36.028l.264.01a2.273,2.273,0,0,1,.415.062c.223.047.056.026.227.029a2.342,2.342,0,0,1,.666.049l.5.106a1.6,1.6,0,0,0,.344.037c.246.007.611-.019.97-.013l1.98.008,3.924.009c.307-.008.609-.026.9-.06.256-.033.687-.1.987-.122a6.712,6.712,0,0,0,.886-.136,5.748,5.748,0,0,1,1.137-.065l1.987-.11c.33-.014.688-.041.992-.031a2.633,2.633,0,0,0,.775-.093c.275-.072.59-.187.966-.273s.662-.107,1-.162c.646-.11,1.315-.174,1.886-.332.6-.169,1.32-.326,1.9-.495l.92-.252a2.887,2.887,0,0,0,.78-.325,3.394,3.394,0,0,1,.988-.392.892.892,0,0,0,.326-.14l.21-.125.208-.107c.109-.06.225-.151.369-.246a2.142,2.142,0,0,1,.485-.231,3.47,3.47,0,0,0,.8-.4c.263-.166.562-.322.824-.455a4.076,4.076,0,0,0,.666-.553c.446-.4.939-.776,1.4-1.159-.4.433-.824.841-1.205,1.284a3.941,3.941,0,0,1-.653.651c-.281.175-.523.329-.764.512a3.822,3.822,0,0,1-.833.5,1.433,1.433,0,0,0-.349.2c-.105.082-.216.189-.369.294l-.2.125-.177.128a1.6,1.6,0,0,1-.52.269,2.439,2.439,0,0,0-.745.374,3.529,3.529,0,0,1-.942.46l-.935.314c-.65.226-1.2.376-1.832.59a16.593,16.593,0,0,1-1.954.441c-.309.063-.671.125-.936.189s-.541.184-.888.293a4.2,4.2,0,0,1-1.164.193c-.356,0-.655.043-.982.07l-1.959.159a5.036,5.036,0,0,0-.832.049,8.655,8.655,0,0,1-1.052.188c-.354.043-.573.083-.966.144-.359.051-.716.08-1.067.1-1.4.039-2.659.02-4,.033l-1.979.008c-.3,0-.595.025-1.008.021a3.622,3.622,0,0,1-.638-.061l-.457-.1a.679.679,0,0,0-.312-.033,2.5,2.5,0,0,1-.745-.084.271.271,0,0,0-.07-.014l-.231-.011a4.506,4.506,0,0,1-.622-.06l-.92-.166a7.715,7.715,0,0,1-1.094-.123,11.433,11.433,0,0,0-1.815-.294,18.638,18.638,0,0,1-2.022-.372l-.482-.113c-.169-.043-.287-.063-.533-.135-.413-.134-.686-.283-.88-.335a2.384,2.384,0,0,0-.4-.069,4.926,4.926,0,0,1-.563-.143,3.831,3.831,0,0,0-.824-.174c-.165-.022-.355-.047-.56-.093-.221-.056-.308-.055-.469-.086a5.25,5.25,0,0,1-.542-.106c-.231-.069-.307-.108-.4-.124-.655-.142-1.26-.221-1.961-.417-.325-.091-.61-.177-.894-.234-.345-.073-.647-.111-1.026-.214l-.457-.153c-.062-.019-.117-.034-.167-.045l-.237-.047-1-.205a21.618,21.618,0,0,1-3.72-1.151c-.634-.351-1.147-.567-1.729-.838s-1.18-.491-1.731-.806c-.141-.07-.285-.158-.4-.2s-.3-.09-.466-.165l-.847-.427c-.281-.14-.547-.3-.843-.423A3.416,3.416,0,0,1,285.489,234.514Z" transform="translate(-6.635 -15.76)"/></g></g></svg>