<svg xmlns="http://www.w3.org/2000/svg" xmlns:xlink="http://www.w3.org/1999/xlink" width="226.154" height="230.624" viewBox="0 0 226.154 230.624"><defs><style>.a{fill:#bad8b4;}.b{fill:#c4831c;}.c{fill:#905420;}.d{fill:none;}.e{fill:#b70c15;}.f{fill:#ffff43;}.g{fill:#693c15;}.h{fill:#3b3b3b;}.i{fill:#442626;}.j{fill:#4f2b2b;}.k{filter:url(#i);}.l{filter:url(#g);}.m{filter:url(#e);}.n{filter:url(#c);}.o{filter:url(#a);}</style><filter id="a" x="35.31" y="101.305" width="38.019" height="52.908" filterUnits="userSpaceOnUse"><feOffset dy="2" input="SourceAlpha"/><feGaussianBlur stdDeviation="3" result="b"/><feFlood flood-opacity="0.161"/><feComposite operator="in" in2="b"/><feComposite in="SourceGraphic"/></filter><filter id="c" x="0" y="18.917" width="226.154" height="175.661" filterUnits="userSpaceOnUse"><feOffset dy="3" input="SourceAlpha"/><feGaussianBlur stdDeviation="3" result="d"/><feFlood flood-opacity="0.161"/><feComposite operator="in" in2="d"/><feComposite in="SourceGraphic"/></filter><filter id="e" x="129.011" y="131.629" width="60.505" height="88.189" filterUnits="userSpaceOnUse"><feOffset dy="3" input="SourceAlpha"/><feGaussianBlur stdDeviation="3" result="f"/><feFlood flood-opacity="0.161"/><feComposite operator="in" in2="f"/><feComposite in="SourceGraphic"/></filter><filter id="g" x="43.922" y="9.917" width="70.102" height="55.439" filterUnits="userSpaceOnUse"><feOffset dx="3" dy="-6" input="SourceAlpha"/><feGaussianBlur stdDeviation="3" result="h"/><feFlood flood-opacity="0.161"/><feComposite operator="in" in2="h"/><feComposite in="SourceGraphic"/></filter><filter id="i" x="75.649" y="99.384" width="32.01" height="50.838" filterUnits="userSpaceOnUse"><feOffset dy="2" input="SourceAlpha"/><feGaussianBlur stdDeviation="3" result="j"/><feFlood flood-opacity="0.161"/><feComposite operator="in" in2="j"/><feComposite in="SourceGraphic"/></filter></defs><g transform="translate(9 24.917)"><ellipse class="a" cx="74.508" cy="23.105" rx="74.508" ry="23.105" transform="translate(40.992 159.497)"/><g transform="translate(41.464 83.367) rotate(11)"><g transform="translate(0 28.697)"><path class="b" d="M2.175.005A.593.593,0,0,1,2.31.037a.941.941,0,0,1,.535.64,2.347,2.347,0,0,1,.031.572c-.016.391-.089.78-.1,1.171q-.048,1.187-.1,2.373A.367.367,0,0,1,2,4.976C1.581,4.317,1.184,3.649.81,2.966A4.808,4.808,0,0,1,0,1.187C-.031.509.646.215,1.209.1A4.591,4.591,0,0,1,1.791.018,2.1,2.1,0,0,1,2.175.005Z" transform="translate(5.456 2.94)"/><path class="b" d="M.855.087c.095.058.182.134.266.191a2.633,2.633,0,0,1,.746.589,1.274,1.274,0,0,1,.147.605,1,1,0,0,1-.154.467,5.5,5.5,0,0,1-.256.572L.678,4.572C.525,4.911,0,4.728,0,4.389Q.028,2.362.233.348A.38.38,0,0,1,.6,0,.506.506,0,0,1,.855.087Z" transform="translate(2.299 1.733)"/><path class="b" d="M1.047.086a.8.8,0,0,1,.544-.06.419.419,0,0,1,.253.253,14.666,14.666,0,0,1,.794,3.838.367.367,0,0,1-.621.256A9.275,9.275,0,0,1,.1,1.875,1.112,1.112,0,0,1,.2.765,2.071,2.071,0,0,1,.838.192,1.76,1.76,0,0,1,1.047.086Z" transform="translate(9.194 1.523)"/><path class="b" d="M.891.164A.5.5,0,0,1,1.665.21C2.369,1.4,1.438,1.968.616,2.782a.367.367,0,0,1-.608-.354A7.25,7.25,0,0,1,.457,1Q.608.651.792.321A1.59,1.59,0,0,1,.891.164Z"/></g><g class="o" transform="matrix(0.98, -0.19, 0.19, 0.98, -70.2, -96.66)"><path class="c" d="M1.35,9.238a13.025,13.025,0,0,1,.109-1.9,16.307,16.307,0,0,1,.322-1.752A9.86,9.86,0,0,1,3.068,2.446,5.518,5.518,0,0,1,8.615.059a5.766,5.766,0,0,1,5.032,4.165,10.012,10.012,0,0,1,.362,2.908,14.945,14.945,0,0,1-.093,1.509,11.51,11.51,0,0,0-.211,1.7c.071,1.81.09,3.625.068,5.435a55.52,55.52,0,0,1-.381,6.257,23.915,23.915,0,0,1-1.4,5.957,8.218,8.218,0,0,1-3.017,4.031,5.6,5.6,0,0,1-3.135.815,4.9,4.9,0,0,1-3.945-2.093A11,11,0,0,1,.223,25.783,32.946,32.946,0,0,1,.085,19.5c.119-2.028.354-4.047.643-6.056.115-.794.24-1.587.368-2.379A10.894,10.894,0,0,0,1.35,9.238Z" transform="translate(50.58 108.31) rotate(11)"/></g></g><path class="c" d="M142.068,107.2c-9.756-6.379-27.668-8.448-30.332,6.506a.866.866,0,0,0-.458.729c-.588,9.786,2,16.481,8.595,23.887,5.521,6.2,11.75,10.919,18.163,15.979-.1,4.863-1.334,11.3-6.2,13.5a.744.744,0,0,0-.343.231.652.652,0,0,0-.1.154c-.012.025-.028.045-.038.073a.739.739,0,0,0-.031.442c.116,1.219.061,2.453.239,3.666a5.189,5.189,0,0,0,.82,2.675.919.919,0,0,0,1.519-.4c.473-1.175,1.791-2.357,3.062-1.594.723.434,1.3,1.039,2.073,1.426a.929.929,0,0,0,.434.1.79.79,0,0,0,.919-.423c.762-1.415,3.019-.095,4.076.25a1.425,1.425,0,0,0,1.626-.306,12.456,12.456,0,0,0,2.979-3.582,26.442,26.442,0,0,0,1.753-3.317c.509-1.2.72-2.479,1.123-3.713.487-1.488,1.023-2.962,1.429-4.475,1.178-4.4,2.121-9.67,4.194-13.711a.779.779,0,0,0,.025-.092.7.7,0,0,0,.783-.644C160.39,129.878,154.658,115.432,142.068,107.2Z" transform="translate(-59.746 7.717)"/><g transform="translate(0 0)"><path class="d" d="M112.523,59.362c-.041-.033-.077-.071-.118-.1-.495-.38-.051-.692-.458-.647s-1.082,1.145-1.375,1.417c-.97.9-2.5,2.475-3.924,2.376-1.077-.074-2.472-1.363-3.41-2.364-1.146,1.027-2.83,2.492-4.1,2.179-.6-.148-.944-.838-1.279-1.285-1.318-1.752-1.066-2.347-3.285-1.1-1.334.752-2.277,1.92-3.774,1.125a4.5,4.5,0,0,1-.937-.717.964.964,0,0,1-.129.055,21.7,21.7,0,0,1-2.87.37c.106,1.159,1.365,2.339.612,3.589a3.44,3.44,0,0,1-1.714,1.17,19.515,19.515,0,0,0-3.16.976c.24-.09.332.371.679.786.259.31.62.535.855.866a1.6,1.6,0,0,1,.391.738c.093.72-.583,1.226-1.173,1.642.415.02.831.028,1.244.041a.82.82,0,0,1,1.254-.017c.042.047.081.077.124.122a.786.786,0,0,1,.371.365c3.429,3.225,4.43-1.237,7.272-2.469,2.681-1.159,4.933,1.51,7.37.892s2.392-4.767,5.828-5.288c.548-.084,1.18.311,1.73.319,4.754.058,1.661.381,2.732-1.29A15.893,15.893,0,0,0,112.523,59.362Z" transform="translate(-72.751 -7.818)"/><g class="n" transform="matrix(1, 0, 0, 1, -9, -24.92)"><path class="c" d="M67.683,88.6l0-.017a.833.833,0,0,0-.083-.259.721.721,0,0,0-.068-.1.778.778,0,0,0-.131-.137A.844.844,0,0,0,67.232,88a.862.862,0,0,0-.083-.039.974.974,0,0,0-1.285.532c-2.482,6.324-5.17,12.672-11.42,16.1-4.734,2.6-10.019,3.5-14.677,6.333-5.083,3.086-9.062,2.978-14.7,2.85-4.888-.112-8.857,1.452-13.4,3.033-12.508,4.351-24.41.711-36.336-3.705-5.5-2.035-11.506-4.438-15.618-8.816-4.617-4.914-6.388-11.8-7.131-18.305C-47.3,71.7-51.108,55.717-66.316,50.731a26.317,26.317,0,0,0-24.338,4.34c-7.982-9.542-26.264-4.242-30.966,6.154-2.261,5-2.557,11.283-6.683,15.316-2.86,2.793-7.253,3.209-9.805,6.392-4.031,5.026-2.063,11.743.106,17.053a.926.926,0,0,0,.691.566.929.929,0,0,0,1.8.179c.364-1.021,1.949-2.313,3.074-3.078.4.563.759,1.5,1.167,1.941a2.522,2.522,0,0,0,1.6,1.036c1.271.068,2.8-1.138,3.966-2.121a17.382,17.382,0,0,0,1.056,1.76,20.031,20.031,0,0,1-2.493.255.941.941,0,0,0-.877.668,3.09,3.09,0,0,0,.137,1.829c.448,1.594.94,1.878-.953,2.557-1.03.37-3.506.672-3.654,2.117-.108,1.052,1.043,2.156,1.781,2.931-.007.01-.012.01-.019.02-.211.031-.816.681-.962.835-.364.383-.812.823-.765,1.394a.969.969,0,0,0,.387.716c0,.01,0,.02.007.031,4.054,8.807,15.306,15.057,22.668,20.813,4.59,3.59,8.267,6.907,10.569,12.469,1.8,4.356,3.039,8.928,4.657,13.359a1.053,1.053,0,0,0,.1.163c.532,1.593,1.04,3.158,1.549,4.711,2.175,6.621,4.4,12.863,8.819,18.7,5.736,7.572,11.967,11.689,20.482,15.858,11.139,5.454,23.742,9.142,36.167,6.554,1.8-.374,3.7-.828,5.627-1.37,5.509-1.549,11.234-3.855,15.285-7.338a.772.772,0,0,0,.3-.621.924.924,0,0,0,.915-.143c9.823-7.818,20.7-13.557,30.818-20.783,4.856-3.468,9.338-7.1,14.476-10.162a86.2,86.2,0,0,0,12.8-8.621c7.553-6.568,10.94-15.22,12.24-24.959,1.912-14.3,1.673-29.066,2.317-43.463A.9.9,0,0,0,67.683,88.6Zm-172.327,17.4c-.551-.007-1.181-.4-1.731-.319-3.436.521-3.384,4.668-5.826,5.288s-4.69-2.051-7.37-.89c-2.843,1.231-3.843,5.693-7.274,2.467a.78.78,0,0,0-.371-.365c-.042-.045-.08-.076-.124-.122a.818.818,0,0,0-1.253.017c-.415-.013-.831-.02-1.244-.041.588-.416,1.264-.922,1.171-1.642a1.613,1.613,0,0,0-.39-.738c-.237-.329-.6-.556-.857-.866-.348-.415-.439-.874-.679-.786a19.513,19.513,0,0,1,3.16-.976,3.451,3.451,0,0,0,1.715-1.17c.751-1.25-.508-2.429-.614-3.589a21.475,21.475,0,0,0,2.872-.37,1.027,1.027,0,0,0,.128-.055,4.482,4.482,0,0,0,.937.717c1.5.8,2.44-.372,3.774-1.123,2.219-1.251,1.967-.656,3.285,1.1.336.445.678,1.135,1.279,1.283,1.273.313,2.956-1.152,4.1-2.179.938,1,2.335,2.291,3.411,2.364,1.42.1,2.952-1.474,3.924-2.376.291-.271.976-1.372,1.373-1.417s-.036.268.458.647c.041.031.079.068.118.1a15.86,15.86,0,0,1-1.244,3.75C-102.985,106.39-99.892,106.067-104.644,106.009Z" transform="translate(149.44 -24.51)"/></g><path class="b" d="M152.171,110.26a62.169,62.169,0,0,0-43.4-6.6c2.175,6.622,4.4,12.864,8.817,18.7,5.736,7.572,11.968,11.688,20.483,15.857,11.138,5.455,23.742,9.143,36.165,6.555,1.8-.374,3.7-.828,5.628-1.37A62.168,62.168,0,0,0,152.171,110.26Z" transform="translate(-60.852 12.046)"/></g><g transform="translate(85.803 52.935)"><path class="b" d="M152.7,67.069q.609-.628,1.168-1.28c-.512-.326-1.018-.658-1.506-1.014a22.309,22.309,0,0,1-3.173-2.758c-.1-.111-.188-.236-.288-.348-.461-.514-.912-1.034-1.317-1.587-.205.54-.41,1.078-.642,1.608a46.059,46.059,0,0,1-11.837,15.7.761.761,0,0,0-.189.982.941.941,0,0,0,1.356.954,60.928,60.928,0,0,0,10.755-7.2C148.874,70.564,150.917,68.895,152.7,67.069Z" transform="translate(-134.81 -60.082)"/><path class="b" d="M206.441,65.805c-.084-.578-.175-1.159-.268-1.741q-.866.323-1.725.674a31.452,31.452,0,0,0-3.819,1.834c-.164.095-.333.175-.495.272-.45.273-.882.492-1.315.717q0,1.017.009,2a37.469,37.469,0,0,0,.93,9.453c1.347,5.3,3.288,10.482,5.057,15.663l.691,4.729c.156,1.072,1.712.711,1.785-.242A147.862,147.862,0,0,0,206.441,65.805Z" transform="translate(-105.702 -58.271)"/><path class="b" d="M191.325,67.935c-.431-.01-.845.009-1.263.023-.652.023-1.293.071-1.919.148q-.282,1.111-.556,2.163a27.586,27.586,0,0,0-1.216,9.134c.438,7.364,1.239,13.775-.482,21.114a.937.937,0,0,0,1.388,1,.757.757,0,0,0,.417-.273c3.329-4.248,4.379-8.9,4.743-14.236A71.629,71.629,0,0,1,194.553,72c.205-.733.365-1.366.483-1.974a10.936,10.936,0,0,0,.214-2.045c-.62.009-1.255.006-1.912,0S192.019,67.951,191.325,67.935Z" transform="translate(-111.594 -56.512)"/><path class="b" d="M165.5,69.948q-.91-.26-1.817-.538a20.623,20.623,0,0,0-1.11,2.034,37.9,37.9,0,0,0-2.643,8.6c-1.187,5.879-.2,12.339-4.415,17.217-.762.882.519,2.173,1.286,1.286a16.8,16.8,0,0,0,3.3-6.222,131.245,131.245,0,0,1,4.964-12.565,64.939,64.939,0,0,1,3.769-6.635c.409-.669.806-1.35,1.2-2.037q-.927-.2-1.85-.426Q166.845,70.332,165.5,69.948Z" transform="translate(-125.499 -55.84)"/><path class="b" d="M162.731,68.808c-.566-.205-1.13-.41-1.7-.62-.058-.022-.116-.045-.175-.065-1.276-.474-2.575-.967-3.871-1.5-.559-.23-1.113-.474-1.667-.72q-.319.877-.634,1.743c-2.821,7.7-5.708,14.776-11.356,21.183a.89.89,0,0,0-.083,1.1.759.759,0,0,0,.944.444.83.83,0,0,0,.228-.108l.012,0c4.094-3.048,9.811-5.538,12.6-9.988a31.249,31.249,0,0,0,2.507-6.123,15.062,15.062,0,0,1,1.869-3.518C161.831,70.017,162.277,69.424,162.731,68.808Z" transform="translate(-131.041 -57.436)"/><path class="b" d="M185.782,70.493a35.159,35.159,0,0,1-8.321,1.49c-.614.035-1.229.06-1.842.065-.113.714-.224,1.424-.349,2.152-1.759,10.233-4.692,21.558-9.411,30.4a.941.941,0,0,0,1.045,1.341.8.8,0,0,0,.772-.24c5.457-5.567,10.992-11.3,13.948-18.652,1.157-2.876,1.737-5.933,2.8-8.835.844-2.3,1.957-4.065,2.7-6.077a12.9,12.9,0,0,0,.617-2.278c-.225.079-.445.157-.674.236C186.641,70.243,186.211,70.362,185.782,70.493Z" transform="translate(-120.743 -55.637)"/></g><g class="m" transform="matrix(1, 0, 0, 1, -9, -24.92)"><path class="c" d="M203.207,116.026c-3.993-9.177-11.718-16.461-22.414-14.546-11.1,1.987-17.505,12.575-16.087,23.412a27.065,27.065,0,0,0,3.8,10.615,36.766,36.766,0,0,0,7.355,8.48c1.212,1.05,2.557,1.936,3.747,3a23.768,23.768,0,0,1,2.29,2.428c.7.835,1.445,1.615,2.079,2.505a11.136,11.136,0,0,1,2.133,5.068c.42,3.461-1.317,6.2-3.315,8.832a.81.81,0,0,0-.134.281c-.01.022-.022.041-.031.064a.921.921,0,0,0,.029.719c2.84,6.237,10.282,4.689,15.426,2.851a.894.894,0,0,0,.41-.305.722.722,0,0,0,.422-.418,50.93,50.93,0,0,0,3.784-14.5C208.11,142.228,208.609,128.44,203.207,116.026Z" transform="translate(-26.5 36.46)"/></g><path class="e" d="M221.063,32.67l-.585-1.13c-.087-.167-.153-.336-.23-.508-.052-.116-.14-.3-.292-.3-.308.009-.449.528-.546.752-.145.339-.291.678-.42,1.026s-.212.7-.332,1.043c-.205.594-.454,1.171-.706,1.747a13.089,13.089,0,0,0-1.141,3.42,6.639,6.639,0,0,0,.006,1.845c.49,3.49,3.3,7.962,1.212,12.028a1,1,0,0,0,.326,1.2,1.218,1.218,0,0,0,1.333-.031,2.9,2.9,0,0,0,1.03-1.106,13.635,13.635,0,0,0,2.01-5.553,10.265,10.265,0,0,0-.112-2.761,10.106,10.106,0,0,1,.321-3.518,8.961,8.961,0,0,0-.23-4.009,19.384,19.384,0,0,0-.786-2.181c-.227-.55-.425-1.129-.7-1.656Z" transform="translate(-11.744 -20.492)"/><path class="f" d="M219.436,38.395a6.411,6.411,0,0,0-.089,1.915,7.211,7.211,0,0,1-.116,2.467,29.444,29.444,0,0,0-1.019-4.34,5.853,5.853,0,0,1,.683-3.584A6.105,6.105,0,0,1,219.436,38.395Z" transform="translate(-10.665 -14.569)"/><path class="g" d="M82.6,66.406a19.515,19.515,0,0,1,3.16-.976,3.44,3.44,0,0,0,1.714-1.17c.752-1.25-.506-2.429-.612-3.589a21.7,21.7,0,0,0,2.87-.37.964.964,0,0,0,.129-.055,4.5,4.5,0,0,0,.937.717c1.5.8,2.44-.372,3.774-1.125,2.219-1.25,1.967-.655,3.285,1.1.335.447.678,1.136,1.279,1.285,1.273.313,2.956-1.152,4.1-2.179.938,1,2.333,2.29,3.41,2.364,1.42.1,2.953-1.474,3.924-2.376.292-.272.978-1.372,1.375-1.417s-.036.268.458.647c.041.031.077.068.118.1a15.893,15.893,0,0,1-1.244,3.749c-1.071,1.672,2.022,1.349-2.732,1.29-.55-.007-1.181-.4-1.73-.319-3.436.521-3.384,4.668-5.828,5.288s-4.689-2.051-7.37-.892c-2.843,1.232-3.843,5.694-7.272,2.469a.786.786,0,0,0-.371-.365c-.042-.045-.081-.076-.124-.122a.82.82,0,0,0-1.254.017c-.413-.013-.829-.02-1.244-.041.589-.416,1.266-.922,1.173-1.642a1.6,1.6,0,0,0-.391-.738c-.236-.33-.6-.556-.855-.866C82.933,66.776,82.841,66.315,82.6,66.406Z" transform="translate(-72.751 -7.817)"/><g class="l" transform="matrix(1, 0, 0, 1, -9, -24.92)"><path class="c" d="M137.164,25c-13.311-4.364-26.609,2.659-33.084,14.462-.563,1.027,1.007,1.945,1.57.918.022-.039.048-.076.068-.113l48.519,19.62c0,.122,0,.247,0,.37a.91.91,0,0,0,1.818,0C156.18,45.969,152.372,29.987,137.164,25Z" transform="translate(-54.04 1.22)"/></g><g transform="translate(141.112 176.027)"><path class="b" d="M531.075,102.961a4.385,4.385,0,0,0-1.56.057,3.837,3.837,0,0,0-1.964.919,5.465,5.465,0,0,0-1.414,2.818,17.154,17.154,0,0,0-.338,3.7c0,1.21.06,2.418.1,3.627.012.387.022.772.019,1.159,0,.022.018.029.02.049,0,.225.172.436.432.329a12.364,12.364,0,0,0,6.821-6.674c.54-1.311,1.044-2.976.3-4.31a3.221,3.221,0,0,0-1.074-1.1,5.144,5.144,0,0,0-.7-.378A2.618,2.618,0,0,0,531.075,102.961Z" transform="translate(-517.193 -102.693)"/><path class="b" d="M527.8,102.84a5.042,5.042,0,0,0-1.426-.049,8.724,8.724,0,0,0-1.347.127,4.5,4.5,0,0,0-2.347,1.13c-1.445,1.388-1.791,3.5-2.7,5.214-.025.048-.006.089-.012.134a.37.37,0,0,0-.076.294l.033.2a.365.365,0,0,0,.351.266c1.818.116,4.9.364,6.424-.928,1.34-1.132,1.242-3.045,1.333-4.635a8.128,8.128,0,0,1,.121-1.109C528.216,103.15,528.134,102.939,527.8,102.84Z" transform="translate(-519.883 -102.762)"/><path class="b" d="M537.987,104.745a3.461,3.461,0,0,0-1.477-1.322,3.178,3.178,0,0,0-3.733.985,3.464,3.464,0,0,0-.639,1.784,9.083,9.083,0,0,0,.8,4.069,5.707,5.707,0,0,0,.234.528.356.356,0,0,0,.073.067.351.351,0,0,0,.2.1c.439.074.906.07,1.352.113s.921.1,1.379.154.918.124,1.375.195a5.888,5.888,0,0,0,1.311.195c.2-.019.519-.073.532-.327a2.706,2.706,0,0,0-.163-.663c-.055-.231-.1-.464-.135-.7-.073-.477-.118-.956-.163-1.436a11.364,11.364,0,0,0-.5-2.818A4.838,4.838,0,0,0,537.987,104.745Z" transform="translate(-514.32 -102.577)"/></g><g transform="translate(65.464 176.027)"><path class="b" d="M475.439,106.43c-.047.026-.092.052-.135.081a4.755,4.755,0,0,0-1.078,1.367,18.055,18.055,0,0,0-.948,1.6,17.762,17.762,0,0,0-1.369,3.455q-.1.345-.179.694a.354.354,0,0,0,.045.268.361.361,0,0,0,.157.125c.026.015.033.044.067.052a11.083,11.083,0,0,0,6.453.177,5.714,5.714,0,0,0,1.191-.57,1.991,1.991,0,0,0,.538-.391,1.818,1.818,0,0,0,.154-.586,5.119,5.119,0,0,0,.125-.666,6.965,6.965,0,0,0,.029-1.155,7.073,7.073,0,0,0-.508-2.3,3.518,3.518,0,0,0-3.192-2.469A3.1,3.1,0,0,0,475.439,106.43Z" transform="translate(-464.939 -104.67)"/><g transform="translate(0 0)"><path class="b" d="M474.612,105.66a1.72,1.72,0,0,0-.493-.354,2.3,2.3,0,0,0-.626-.148,2.874,2.874,0,0,0-.57-.035,3.061,3.061,0,0,0-1.082.262,5.78,5.78,0,0,0-1.922,1.506,24.31,24.31,0,0,0-2.747,4.178l-.077.132c-.015.025,0,.045-.009.07a.367.367,0,0,0-.019.224.329.329,0,0,0,.322.285q3.8.083,7.592-.092a.289.289,0,0,0,.284-.191.716.716,0,0,0,.025-.208c.017-.564.2-1.094.253-1.653a7.843,7.843,0,0,0,0-1.653A4.092,4.092,0,0,0,474.612,105.66Z" transform="translate(-467.059 -105.122)"/><path class="b" d="M483.227,108.955a4.922,4.922,0,0,0-3.769-2,.269.269,0,0,0-.276.129c-1.464,1.349-1.109,3.349-.65,5.079.009.036.041.044.058.073s.038.047.057.071.054.067.095.081.035.049.07.061q2.121.672,4.239,1.346a.369.369,0,0,0,.412-.167A5,5,0,0,0,483.227,108.955Z" transform="translate(-462.023 -104.287)"/></g></g><path class="h" d="M462.775-1.757a.779.779,0,0,0-.886-.617.927.927,0,0,0-.486.077l-7.754,3.628a.712.712,0,0,0-.445.612.881.881,0,0,0-.1.259c-.6,3.926-.288,12.032,5.96,10.7C464.666,11.717,463.73,2.12,462.775-1.757Z" transform="translate(-406.345 27.11)"/><g transform="translate(75.649 81.467)"><g class="k" transform="matrix(1, 0, 0, 1, -84.65, -106.38)"><path class="c" d="M487.821,42.26a13.016,13.016,0,0,0-.109-1.9,16.322,16.322,0,0,0-.321-1.752,9.862,9.862,0,0,0-1.287-3.138,5.518,5.518,0,0,0-5.547-2.387,5.765,5.765,0,0,0-5.032,4.165,10.012,10.012,0,0,0-.362,2.908,14.945,14.945,0,0,0,.093,1.509,11.51,11.51,0,0,1,.211,1.7c-.071,1.81-.09,3.625-.068,5.435a55.52,55.52,0,0,0,.381,6.257,23.915,23.915,0,0,0,1.4,5.957,8.217,8.217,0,0,0,3.017,4.031,5.6,5.6,0,0,0,3.135.815,4.9,4.9,0,0,0,3.945-2.093,11,11,0,0,0,1.669-4.959,32.941,32.941,0,0,0,.138-6.28c-.119-2.028-.354-4.047-.643-6.056-.115-.794-.24-1.587-.368-2.379A10.9,10.9,0,0,1,487.821,42.26Z" transform="translate(-390.51 73.36)"/></g><g transform="translate(2.291 28.697)"><path class="b" d="M479.845,54.774a.593.593,0,0,0-.135.032.941.941,0,0,0-.535.64,2.347,2.347,0,0,0-.031.572c.016.391.089.78.1,1.171q.048,1.187.1,2.373a.367.367,0,0,0,.678.183c.415-.659.812-1.327,1.186-2.01a4.809,4.809,0,0,0,.809-1.779c.032-.678-.645-.972-1.208-1.085a4.592,4.592,0,0,0-.582-.083A2.1,2.1,0,0,0,479.845,54.774Z" transform="translate(-475.642 -51.828)"/><path class="b" d="M483.064,54.026c-.095.058-.182.134-.266.191a2.633,2.633,0,0,0-.746.589,1.275,1.275,0,0,0-.147.605,1,1,0,0,0,.154.467,5.511,5.511,0,0,0,.256.572l.927,2.061c.153.339.682.156.678-.183q-.028-2.027-.233-4.041a.38.38,0,0,0-.364-.348A.506.506,0,0,0,483.064,54.026Z" transform="translate(-474.385 -52.206)"/><path class="b" d="M478.328,53.88a.8.8,0,0,0-.544-.06.419.419,0,0,0-.253.253,14.666,14.666,0,0,0-.794,3.838.367.367,0,0,0,.621.256,9.274,9.274,0,0,0,1.913-2.5,1.112,1.112,0,0,0-.1-1.11,2.071,2.071,0,0,0-.637-.573A1.759,1.759,0,0,0,478.328,53.88Z" transform="translate(-476.735 -52.271)"/><path class="b" d="M484.577,52.911a.5.5,0,0,0-.774.047c-.7,1.191.227,1.757,1.049,2.572a.367.367,0,0,0,.608-.354,7.254,7.254,0,0,0-.45-1.433q-.151-.345-.335-.675A1.59,1.59,0,0,0,484.577,52.911Z" transform="translate(-473.635 -52.747)"/></g></g><g transform="translate(-423.633 -443.234) rotate(8)"><path class="i" d="M530.094,394.56a.391.391,0,0,0-.165-.327,29.532,29.532,0,0,0-6.481-3.519q-3.127-1.923-6.188-3.955a.4.4,0,0,0-.487,0,20.66,20.66,0,0,1-7.491-11,.444.444,0,0,0-.125-.213.488.488,0,0,0-.809-.263c-1.7,1.626-3.8,1.658-5.972,2.111-1.846.384-3.669.933-5.49,1.422a18.636,18.636,0,0,0-3.337,1.1,4.831,4.831,0,0,0-2.318,2.066,5.306,5.306,0,0,0,.017,3.546,13.257,13.257,0,0,0,1.268,3.145,18.786,18.786,0,0,0,4.558,5.458,11.975,11.975,0,0,0,3.665,2.142c9.066,3.066,20.155.249,29.359-.749C530.708,395.458,530.715,394.493,530.094,394.56Z" transform="translate(0 -5.673)"/><path class="i" d="M587.809,399.082c.061-.56.1-1.119.114-1.677.006,0,.012,0,.018-.008q1.232-.908,2.43-1.858c.291-.232.622-.465.936-.717C591.766,396.459,589.923,397.967,587.809,399.082Z" transform="translate(-22.183 -10.177)"/><path class="j" d="M575.407,382.8c-.409-1.965-.383-3.919-.724-5.872-.6-3.416-3.042-7.532-4.962-10.358s-2.514-5.932-5.347-8.138c-3.553-2.769-8.357-3.688-12.576-4.94a.448.448,0,0,0-.233-.008,27.658,27.658,0,0,0-2.938-1.181.5.5,0,0,0-.368-.244c-3.738-.491-7.461-1.254-11.22-.64a31.593,31.593,0,0,0-10.276,3.4,19.834,19.834,0,0,0-6.185,5.242,42.677,42.677,0,0,0-2.633,4.5c-1.208,2.064-2.854,3.477-4.412,5.238-.009.01-.01.021-.019.031a.434.434,0,0,0-.146.352c.126,5.767,6.507,9.722,10.736,12.674,5.859,4.09,11.454,8.932,18.932,8.7a120.268,120.268,0,0,1,12.2-.116c3.623.251,7.532,1.274,11.142.4,1.695-.411,3.184-1.355,4.836-1.874a9,9,0,0,0,2.791-.988,3.422,3.422,0,0,0,1.41-2.427A7.385,7.385,0,0,0,575.407,382.8Zm-4.65,2.413c-.2-1.452-1.745-4.685-.616-5.962.01-.008.022-.009.032-.018a11.8,11.8,0,0,1,2.691-1.645,4.992,4.992,0,0,0,.829-.51c.142,1.085.059,2.12.2,3.251.125,1.029.393,1.931.58,2.839a6.082,6.082,0,0,1-1.823,1.7c-.588.468-1.19.92-1.793,1.369C570.832,385.9,570.8,385.554,570.757,385.211Zm.007,3.88c.061-.56.1-1.119.114-1.677.006,0,.012,0,.018-.008q1.232-.908,2.43-1.858c.291-.232.622-.465.936-.717C574.721,386.468,572.878,387.976,570.764,389.091Z" transform="translate(-5.138 -0.186)"/><path class="i" d="M562.564,352.655a2.529,2.529,0,0,0-1.393-1.42,5.879,5.879,0,0,0-3.509-.8,1.443,1.443,0,0,0-1.283,1.364c.012,1.669,1.832,2.5,3.249,2.585C560.634,354.446,563.123,354.336,562.564,352.655Z" transform="translate(-14.987)"/></g></g></svg>