<svg xmlns="http://www.w3.org/2000/svg" xmlns:xlink="http://www.w3.org/1999/xlink" width="257.376" height="216.707" viewBox="0 0 257.376 216.707"><defs><style>.a{fill:#bad8b4;}.b{fill:#ffe87e;}.c{fill:#c9d1e6;}.d{fill:#d73639;}.e{fill:#ffecaa;}.f{fill:#3b3b3b;}.g{fill:#393840;opacity:0.793;}.h{fill:#c2000b;}.i{filter:url(#o);}.j{filter:url(#m);}.k{filter:url(#k);}.l{filter:url(#i);}.m{filter:url(#g);}.n{filter:url(#e);}.o{filter:url(#c);}.p{filter:url(#a);}</style><filter id="a" x="33.02" y="108.273" width="34.981" height="42.411" filterUnits="userSpaceOnUse"><feOffset dy="3" input="SourceAlpha"/><feGaussianBlur stdDeviation="3" result="b"/><feFlood flood-opacity="0.161"/><feComposite operator="in" in2="b"/><feComposite in="SourceGraphic"/></filter><filter id="c" x="6" y="10" width="251.376" height="174.255" filterUnits="userSpaceOnUse"><feOffset dy="3" input="SourceAlpha"/><feGaussianBlur stdDeviation="3" result="d"/><feFlood flood-opacity="0.161"/><feComposite operator="in" in2="d"/><feComposite in="SourceGraphic"/></filter><filter id="e" x="39.371" y="112.341" width="100.117" height="75.681" filterUnits="userSpaceOnUse"><feOffset dy="5" input="SourceAlpha"/><feGaussianBlur stdDeviation="3" result="f"/><feFlood flood-opacity="0.161"/><feComposite operator="in" in2="f"/><feComposite in="SourceGraphic"/></filter><filter id="g" x="50.741" y="1" width="90.637" height="84.637" filterUnits="userSpaceOnUse"><feOffset dx="3" dy="-6" input="SourceAlpha"/><feGaussianBlur stdDeviation="3" result="h"/><feFlood flood-opacity="0.161"/><feComposite operator="in" in2="h"/><feComposite in="SourceGraphic"/></filter><filter id="i" x="3" y="38.019" width="63.906" height="71.503" filterUnits="userSpaceOnUse"><feOffset dx="-3" dy="6" input="SourceAlpha"/><feGaussianBlur stdDeviation="3" result="j"/><feFlood flood-opacity="0.161"/><feComposite operator="in" in2="j"/><feComposite in="SourceGraphic"/></filter><filter id="k" x="96.005" y="117.576" width="59.386" height="92.492" filterUnits="userSpaceOnUse"><feOffset dy="3" input="SourceAlpha"/><feGaussianBlur stdDeviation="3" result="l"/><feFlood flood-opacity="0.161"/><feComposite operator="in" in2="l"/><feComposite in="SourceGraphic"/></filter><filter id="m" x="69.599" y="107.181" width="34.981" height="42.411" filterUnits="userSpaceOnUse"><feOffset dy="3" input="SourceAlpha"/><feGaussianBlur stdDeviation="3" result="n"/><feFlood flood-opacity="0.161"/><feComposite operator="in" in2="n"/><feComposite in="SourceGraphic"/></filter><filter id="o" x="0" y="5.972" width="101.905" height="63.902" filterUnits="userSpaceOnUse"><feOffset dy="3" input="SourceAlpha"/><feGaussianBlur stdDeviation="3" result="p"/><feFlood flood-opacity="0.161"/><feComposite operator="in" in2="p"/><feComposite in="SourceGraphic"/></filter></defs><g transform="translate(-17 -465.693)"><ellipse class="a" cx="74.508" cy="23.105" rx="74.508" ry="23.105" transform="translate(49.992 636.19)"/><g class="p" transform="matrix(1, 0, 0, 1, 17, 465.69)"><path class="b" d="M155.661,319.427a6.39,6.39,0,0,0-4.072-.6,5.382,5.382,0,0,0-4.061,3.871,33.5,33.5,0,0,1-2.5,6.282,14.578,14.578,0,0,0-2.161,4.773,5.82,5.82,0,0,0,.554,3.508c-.632.35-1.385.844-1.471,1.469-.07.506.307,1.086.895.895.378-.123.749-.263,1.124-.4a16.723,16.723,0,0,0-.122,1.838.736.736,0,0,0,1.241.514c.222-.2.46-.385.689-.579a16.5,16.5,0,0,0,.648,1.788c.29.611,1.14.364,1.329-.173q.248-.705.494-1.41c3.29.443,6.307-2.891,7.939-5.928,1.8-3.349,3.386-7.439,2.468-11.288a8.207,8.207,0,0,0-1.914-3.719A4.519,4.519,0,0,0,155.661,319.427Z" transform="translate(-99.92 -204.46)"/></g><g transform="translate(-231.504 -48.541)"><path class="c" d="M338.238,569.912c-11.978-6.149-22.439-14.543-32.746-23.118-8.332-6.932-17.627-17.1-28.8-18.859a.567.567,0,0,0-.082,0,.55.55,0,0,0-.084-.025,21.4,21.4,0,0,0-11.609,1.715c-3.818,1.953-6.3,5.556-5.784,11.34.97,10.8,9.73,18.8,17.492,25.295,15.989,13.374,44.255,19.643,61.467,4.85v.013l.326-.264.676-.548Z"/><path class="d" d="M339.438,571.038l-1.927-1.015a.571.571,0,0,0-.265-.066.564.564,0,0,0-.366.135c-6.193,5.234-14.391,8-23.7,8a57.946,57.946,0,0,1-35.541-13.031c-7.721-6.458-16.034-14.19-16.937-24.234-.04-.455-.044-.886-.044-1.315a.57.57,0,0,0-.2-.433.562.562,0,0,0-.365-.133.594.594,0,0,0-.094.007l-2.012.338a.567.567,0,0,0-.472.573c.009.4.03.815.068,1.244,1.01,11.234,9.845,19.495,18.048,26.355A60.355,60.355,0,0,0,313.2,581.2c9.069,0,17.258-2.471,23.7-7.144a.579.579,0,0,0,.2-.106l.863-.7c.27-.212.538-.429.795-.645l.769-.623a.567.567,0,0,0-.092-.943Z"/></g><path class="b" d="M137.974,378.855c-1.16-9.51-5.111-22.486-16.018-24.721-3.92-.8-8.153-.356-11.015,2.69-7.043,7.494-3.31,18.279.177,26.344,1.97,4.555,5.023,8.591,7.161,13.071a21.8,21.8,0,0,1,2.535,8.639,7.565,7.565,0,0,1-1.036,4.276c-.64,1-1.832,1.719-2.022,2.985-.647,4.312,8.385,3.486,10.611,2.794a8.015,8.015,0,0,0,1.235-.482C141.671,408.362,139.308,389.792,137.974,378.855Z" transform="translate(-32.743 244.796)"/><g transform="translate(32.001 481.693)"><g class="o" transform="matrix(1, 0, 0, 1, -15, -16)"><path class="b" d="M474.762,933.7c-.019.006-.033,0-.05.008-11.065,4.518-23.331,6.344-34.959,2.779-10.182-3.123-19.358-9.142-29.473-12.629-22.522-7.768-42.564-15.157-58.022-34.161,4.2-10.221,6.634-20.882,3.8-31.789-2.722-10.47-8.252-20.621-17.118-27.1-11.462-8.37-26.745-8.1-39.236-2.113-16.578-11.487-36.024,1.433-37.448,19.995-14.144,8.976-25.26,26.544-15.774,42.791a19.954,19.954,0,0,0,10.365,8.68c2.375,8.048,10.041,11.753,17.822,12.977a.985.985,0,0,0,.3-.012,129.2,129.2,0,0,0,1.357,16.85,38.074,38.074,0,0,1,24.9-4.908c12.119,1.71,23.062,8.433,32.022,16.771a96.181,96.181,0,0,1,25.2,38.762c22.118-3.4,43.415-10.778,65.18-15.832,10.445-2.427,22.1-3.056,31.737-8.075,9.143-4.761,15.362-13.247,20.812-21.719C476.768,934.043,475.531,933.175,474.762,933.7Z" transform="translate(-227.95 -808.35)"/></g><g class="n" transform="matrix(1, 0, 0, 1, -15, -16)"><path class="e" d="M321.2,905.634c-8.96-8.338-19.9-15.061-32.022-16.771a38.073,38.073,0,0,0-24.9,4.908c1.954,12.9,6.324,25.44,15.239,35.092,15.644,16.941,38.836,18.925,60.573,16.4,2.111-.246,4.21-.544,6.305-.867A96.181,96.181,0,0,0,321.2,905.634Z" transform="translate(-215.91 -772.14)"/></g></g><g class="m" transform="matrix(1, 0, 0, 1, 17, 465.69)"><path class="b" d="M342.488,496.35c-2.724-10.47-8.251-20.621-17.118-27.095-16.736-12.221-41.614-6.034-54.062,9.5-.779.973.6,2.366,1.383,1.383.03-.036.061-.07.091-.106l63.895,47.885c-.047.114-.086.232-.133.346-.487,1.159,1.4,1.666,1.885.521C342.794,518.363,345.384,507.485,342.488,496.35Z" transform="translate(-214.34 -446.79)"/></g><path class="f" d="M9.334,7.894A12.609,12.609,0,0,0,7.848,2.15,4.168,4.168,0,0,0,3.781.011a2.939,2.939,0,0,0-2.6,1.443,3.661,3.661,0,0,0-.361.56A9.71,9.71,0,0,0,.237,8.162C.588,9.854,1.3,11.913,2.7,12.571a5.1,5.1,0,0,0,4.617-.3C8.9,11.218,9.5,10.142,9.334,7.894Z" transform="matrix(0.985, 0.174, -0.174, 0.985, 80.811, 517.823)"/><g class="l" transform="matrix(1, 0, 0, 1, 17, 465.69)"><path class="b" d="M186.535,566.635l-24.346-45.987.035-.021c1.044-.651.083-2.309-.967-1.653-13.991,8.735-25.1,26.076-15.741,42.1,4.1,7.025,11,9.57,18.826,10.606,7.475.99,17.142,1.5,23.3-3.558C188.513,567.4,187.447,566.233,186.535,566.635Z" transform="translate(-127.06 -477.8)"/></g><g class="k" transform="matrix(1, 0, 0, 1, 17, 465.69)"><path class="b" d="M261.237,388.921c-1.007-7.826-3.1-16.621-9.885-21.493a13.252,13.252,0,0,0-6.16-2.488,23.54,23.54,0,0,0-4.981-.17,21.983,21.983,0,0,0-9.218,2.758,20.876,20.876,0,0,0-9.35,11.315c-2.243,6.428-.967,13.207,1.435,19.391,2.231,5.744,6.074,10.753,8.5,16.423a22.2,22.2,0,0,1,1.976,7.293,11.539,11.539,0,0,1-.357,3.757,6.732,6.732,0,0,1-1.577,3.236,10.41,10.41,0,0,1-1.581.653,4.925,4.925,0,0,0-1.4,1.139,4.287,4.287,0,0,0-.97,3.5c.514,2.97,3.9,4.22,6.472,4.673,8.3,1.461,19.2-2.687,22.214-11.023a.956.956,0,0,0,.166-.268A81.052,81.052,0,0,0,261.237,388.921Z" transform="translate(-115.47 -241.13)"/></g><g class="j" transform="matrix(1, 0, 0, 1, 17, 465.69)"><path class="b" d="M155.661,319.427a6.39,6.39,0,0,0-4.072-.6,5.382,5.382,0,0,0-4.061,3.871,33.5,33.5,0,0,1-2.5,6.282,14.578,14.578,0,0,0-2.161,4.773,5.82,5.82,0,0,0,.554,3.508c-.632.35-1.385.844-1.471,1.469-.07.506.307,1.086.895.895.378-.123.749-.263,1.124-.4a16.723,16.723,0,0,0-.122,1.838.736.736,0,0,0,1.241.514c.222-.2.46-.385.689-.579a16.5,16.5,0,0,0,.648,1.788c.29.611,1.14.364,1.329-.173q.248-.705.494-1.41c3.29.443,6.307-2.891,7.939-5.928,1.8-3.349,3.386-7.439,2.468-11.288a8.207,8.207,0,0,0-1.914-3.719A4.519,4.519,0,0,0,155.661,319.427Z" transform="translate(-63.34 -205.55)"/></g><g transform="translate(-231.504 -48.541)"><path class="g" d="M376.617,557.72c-.032-.5-.075-.992-.126-1.487s-.113-.988-.182-1.481-.147-.979-.233-1.467-.178-.966-.278-1.446-.205-.947-.318-1.419-.229-.924-.353-1.383-.248-.9-.381-1.341c-.07-.231-.145-.46-.217-.689-.063-.2-.123-.4-.189-.6-.023-.07-.045-.146-.072-.22a.72.72,0,0,0-.14-.245.652.652,0,0,0-.267-.161c-.381-.159-.764-.311-1.143-.474q-.492-.213-.977-.442-.961-.455-1.892-.97t-1.816-1.08q-.889-.565-1.746-1.182t-1.682-1.277q-.83-.663-1.626-1.365t-1.575-1.446q-.26-.248-.517-.5c-2.419-2.371-4.477-5.142-7.193-7.191-6.812-5.137-15.425-8.273-23.217-11.574a.66.66,0,0,0-.744.157c-.349.115-.7.206-1.052.31-5.756,1.707-11.78,1.965-17.662,3.131-4.993.693-10,.047-15,.482-4.269.371-8.618.759-12.869,1.29-6.367.795-12.573,2.316-18.03,5.788a.637.637,0,0,0-.2.2,21.4,21.4,0,0,1,11.609-1.715.55.55,0,0,1,.084.025.562.562,0,0,1,.082,0c11.168,1.761,20.463,11.927,28.8,18.859,10.307,8.575,20.768,16.969,32.746,23.118l.86.4s4.943,3.378,15.865,6.381c3.975.83,8.188,1.2,11.652-.062.51-.185,1.012-.4,1.5-.629a15.017,15.017,0,0,0,1.361-.736,14.351,14.351,0,0,0,1.224-.835,13.422,13.422,0,0,0,1.092-.929,13.236,13.236,0,0,0,.967-1.014,13.769,13.769,0,0,0,.846-1.092q.393-.564.731-1.163t.621-1.228q.285-.632.516-1.285t.417-1.336c.125-.455.232-.915.324-1.378s.171-.94.235-1.414.115-.961.153-1.443.062-.976.074-1.465.014-.986,0-1.479S376.649,558.215,376.617,557.72Z"/><path class="d" d="M361.416,579.016a33.12,33.12,0,0,1-6.774-.788c-9.011-2.473-14.022-5.16-15.759-6.2a.567.567,0,0,1-.067-.927l1.669-1.353a.562.562,0,0,1,.633-.054,65.366,65.366,0,0,0,14.26,5.491,30.154,30.154,0,0,0,6.027.7,13.7,13.7,0,0,0,4.673-.725c.472-.171.93-.364,1.363-.571s.831-.423,1.225-.661a12.806,12.806,0,0,0,1.086-.742,12.161,12.161,0,0,0,.966-.821,11.737,11.737,0,0,0,.852-.894,12.088,12.088,0,0,0,.752-.97q.35-.5.65-1.035c.205-.362.389-.73.559-1.106s.328-.771.469-1.166.269-.808.381-1.222.213-.844.3-1.271.159-.876.218-1.316.109-.9.143-1.355.06-.923.071-1.384.012-.937,0-1.406-.031-.949-.06-1.42-.072-.952-.12-1.426-.11-.948-.177-1.421-.142-.948-.224-1.417-.173-.933-.268-1.4-.2-.919-.309-1.376-.221-.89-.341-1.335-.242-.873-.37-1.3l-.335-1.064s-.581-.239-.81-.337q-.522-.227-1.031-.466c-.667-.316-1.333-.658-1.979-1.015-.623-.345-1.262-.725-1.9-1.129q-.927-.59-1.82-1.23t-1.747-1.328q-.858-.688-1.682-1.412c-.55-.484-1.09-.982-1.622-1.488l-.529-.513c-.891-.873-1.73-1.794-2.541-2.683a33.8,33.8,0,0,0-4.5-4.378c-5.6-4.22-12.508-7.079-19.193-9.844l-.275-.113q-1.62-.67-3.209-1.337l-1.28-.671a.568.568,0,0,1-.265-.3,1,1,0,0,1,.072-.826,1.714,1.714,0,0,1,1.262-.749,4.462,4.462,0,0,0,.5-.138l.593-.175.656-.186a7.541,7.541,0,0,0,.964-.369c.181-.078.363-.157.546-.23q.765-.3,1.54-.566a27.034,27.034,0,0,1,3.484-.961,20.365,20.365,0,0,1,3.642-.406h0a1.05,1.05,0,0,1,.274.034c.021,0,.043,0,.054,0,7.68,1.427,15.005,5.559,22.413,12.635.486.464.983.933,1.486,1.407,5.278,4.979,11.261,10.623,12.239,18.1a1.1,1.1,0,0,1-.165.757,1.235,1.235,0,0,1-1.189.934,1.28,1.28,0,0,1-.192-.015l-.227-.036q.082.289.16.577c.129.472.249.948.363,1.425s.227.978.329,1.468.2.993.288,1.493.169,1.013.24,1.522.136,1.02.189,1.534.1,1.032.132,1.548.054,1.038.066,1.555.012,1.036,0,1.553-.039,1.032-.079,1.548-.094,1.019-.162,1.528-.151,1.011-.252,1.513-.214.992-.348,1.482-.283.972-.451,1.446-.358.948-.565,1.407-.438.915-.685,1.354-.522.877-.81,1.29a15.291,15.291,0,0,1-.945,1.219,14.728,14.728,0,0,1-1.078,1.13,14.881,14.881,0,0,1-1.218,1.036,15.838,15.838,0,0,1-1.356.927c-.49.3-.995.569-1.5.812s-1.073.48-1.644.688A16.546,16.546,0,0,1,361.416,579.016Z"/><path class="h" d="M378.484,542.21c-1.536-3.044-3.827-6.562-7.521-4.943a2.953,2.953,0,0,0-.279.131c-.079.039-.154.066-.233.11-.013.007-.019.018-.032.026a2.531,2.531,0,0,0-.465.374c-1.178,1.217-.492,2.986.114,4.284s1.429,2.448,1.973,3.762a28.262,28.262,0,0,0,1.388,3.758,2.869,2.869,0,0,0,3.416,1.621C380.842,550.142,379.869,544.954,378.484,542.21Z"/><path class="d" d="M378.322,545.853a2.435,2.435,0,0,0-1.437-1.6,2.616,2.616,0,0,0-3.236,2.289c.023,1.524,1.074,3.308,2.8,3.157S378.745,547.261,378.322,545.853Z"/><g class="i" transform="matrix(1, 0, 0, 1, 248.5, 514.23)"><path class="d" d="M339.174,572.108a.58.58,0,0,1-.265-.066l-1.928-1.015c-.544-.285-1.081-.585-1.617-.886l-.706-.394-.645-.352c-.384-.208-.768-.416-1.145-.634-.8-.46-1.581-.94-2.364-1.421l-.916-.556c-.34-.2-.679-.407-1.013-.618-.835-.528-1.655-1.076-2.474-1.623l-.842-.556c-.291-.191-.583-.381-.871-.579-.8-.545-1.586-1.109-2.374-1.672l-.893-.634c-.276-.2-.554-.389-.828-.589-.772-.564-1.535-1.141-2.3-1.718l-.907-.681c-.273-.2-.544-.406-.813-.612-.776-.6-1.545-1.2-2.315-1.81l-1.646-1.293c-.958-.765-1.911-1.542-2.864-2.319l-1.056-.855q-1.955-1.6-3.9-3.227c-1.6-1.327-3.189-2.739-4.877-4.235-.909-.807-1.777-1.576-2.66-2.347C291.092,536.3,284.2,530.74,276.547,529.5l-.217-.02c-.02,0-.06-.011-.1-.02-.463-.044-.921-.073-1.378-.092l-.676-.018c-.151-.005-.3-.01-.449-.01l-.745.017q-.451.015-.894.045l-.439.032c-.355.031-.7.071-1.044.118l-.124.016c-.5.072-.9.146-1.284.229l-.35.085c-.271.065-.537.133-.8.209-.133.037-.261.077-.389.118-.247.079-.491.164-.73.255l-.328.124c-.335.137-.661.281-.969.439a8.813,8.813,0,0,0-4.981,8.488.568.568,0,0,1-.473.561l-2.012.338a.6.6,0,0,1-.094.008.565.565,0,0,1-.361-.131.559.559,0,0,1-.2-.423c-.153-6.595,3.456-9.91,6.51-11.53l.188-.1a21.12,21.12,0,0,1,9.544-2.028c.961,0,1.948.049,2.935.147l.19.026c9.55,1.5,17.631,8.669,24.762,14.991,1.68,1.491,3.268,2.9,4.856,4.22,3.677,3.059,7.642,6.321,11.723,9.453.161.124.895.672.895.672,1.023.775,2.045,1.552,3.079,2.306.412.3.828.591,1.244.882l1.31.926c.493.353.986.705,1.486,1.046.481.329.968.646,1.456.962l1.377.906c.43.287.86.573,1.3.848.717.453,1.449.887,2.179,1.32l.539.32.606.368c.3.183.6.367.9.542.973.559,1.967,1.087,2.961,1.614,0,0,.535.289.709.385.224.125.45.251.68.368l.971.469c.106.063.489.314,1.21.716a.567.567,0,0,1,.082.935l-1.669,1.353A.565.565,0,0,1,339.174,572.108Z" transform="translate(-248.5 -514.23)"/></g></g></g></svg>