<svg xmlns="http://www.w3.org/2000/svg" xmlns:xlink="http://www.w3.org/1999/xlink" width="272.311" height="204.642" viewBox="0 0 272.311 204.642"><defs><style>.a{fill:#bad8b4;}.b{fill:#7aac54;}.c{fill:#b8de83;}.d{fill:#7caf55;}.e{fill:#b96046;}.f{fill:none;}.g{fill:#4a6f2e;}.h{fill:#e07c68;}.i{fill:#505050;}.j{fill:#404653;}.k{fill:#2d3340;}.l{filter:url(#m);}.m{filter:url(#k);}.n{filter:url(#i);}.o{filter:url(#g);}.p{filter:url(#e);}.q{filter:url(#c);}.r{filter:url(#a);}</style><filter id="a" x="120.335" y="122.129" width="42.088" height="61.909" filterUnits="userSpaceOnUse"><feOffset dy="1" input="SourceAlpha"/><feGaussianBlur stdDeviation="3" result="b"/><feFlood flood-opacity="0.161"/><feComposite operator="in" in2="b"/><feComposite in="SourceGraphic"/></filter><filter id="c" x="116.381" y="162.341" width="25.84" height="24.814" filterUnits="userSpaceOnUse"><feOffset dy="1" input="SourceAlpha"/><feGaussianBlur stdDeviation="3" result="d"/><feFlood flood-opacity="0.161"/><feComposite operator="in" in2="d"/><feComposite in="SourceGraphic"/></filter><filter id="e" x="23.109" y="60.151" width="178.546" height="90.293" filterUnits="userSpaceOnUse"><feOffset dy="3" input="SourceAlpha"/><feGaussianBlur stdDeviation="3" result="f"/><feFlood flood-opacity="0.161"/><feComposite operator="in" in2="f"/><feComposite in="SourceGraphic"/></filter><filter id="g" x="0" y="77.704" width="55.553" height="67.098" filterUnits="userSpaceOnUse"><feOffset dy="3" input="SourceAlpha"/><feGaussianBlur stdDeviation="3" result="h"/><feFlood flood-opacity="0.161"/><feComposite operator="in" in2="h"/><feComposite in="SourceGraphic"/></filter><filter id="i" x="45.84" y="11.685" width="72.156" height="54.03" filterUnits="userSpaceOnUse"><feOffset dx="3" dy="-6" input="SourceAlpha"/><feGaussianBlur stdDeviation="3" result="j"/><feFlood flood-opacity="0.161"/><feComposite operator="in" in2="j"/><feComposite in="SourceGraphic"/></filter><filter id="k" x="91.225" y="96.523" width="42.549" height="57.636" filterUnits="userSpaceOnUse"><feOffset dy="1" input="SourceAlpha"/><feGaussianBlur stdDeviation="3" result="l"/><feFlood flood-opacity="0.161"/><feComposite operator="in" in2="l"/><feComposite in="SourceGraphic"/></filter><filter id="m" x="155.54" y="77.554" width="53.135" height="66.882" filterUnits="userSpaceOnUse"><feOffset dx="3" dy="-6" input="SourceAlpha"/><feGaussianBlur stdDeviation="3" result="n"/><feFlood flood-opacity="0.161"/><feComposite operator="in" in2="n"/><feComposite in="SourceGraphic"/></filter></defs><g transform="translate(9 14.936)"><path class="a" d="M74.508,0c41.15,0,74.508,10.345,74.508,23.105S115.658,46.211,74.508,46.211,0,35.866,0,23.105,33.359,0,74.508,0Z" transform="translate(72.99 143.496)"/><g transform="translate(73.259 101.604)"><path class="b" d="M82.259,96.52c-.017-.035,0-.072-.031-.1-1.393-1.684-3.43-2.535-5.175-3.78a.462.462,0,0,0-.835-.108c-2.125,3.7-7.091,7.578-7.589,11.929-.471,4.107,3.167,7.944,5.988,10.348a.468.468,0,0,0,.651,0,3.52,3.52,0,0,0,.875-2.594,1.993,1.993,0,0,0,1.642.281,3.176,3.176,0,0,0,2-1.107c.846-1.335-.39-2.471-1.467-3.212a.471.471,0,0,0-.147-.169c-4.511-3.138,2.309-8.206,4.151-10.953A.384.384,0,0,0,82.259,96.52Z" transform="translate(-68.587 -92.303)"/><path class="c" d="M76.972,102.518c-1.081-1.248-3.133.426-3.934,1.237a.4.4,0,0,0-.059.493,3.9,3.9,0,0,0,.844,2.068,12.678,12.678,0,0,0,2.386,2.734.466.466,0,0,0,.768-.2,14.806,14.806,0,0,0,.5-3.463C77.489,104.542,77.575,103.215,76.972,102.518Z" transform="translate(-64.955 -84.115)"/><path class="c" d="M74.771,104.117c-.866-1.035-1.917-.388-2.673.393a1.771,1.771,0,0,0-.643,1.916,2.839,2.839,0,0,0,1.153,1.32q1.172.94,2.294,1.939a.466.466,0,0,0,.785-.325C75.667,107.683,75.94,105.517,74.771,104.117Z" transform="translate(-66.248 -82.849)"/></g><g transform="translate(114.025 115.193)"><path class="d" d="M101.895,117.658a.357.357,0,0,0-.408-.108c-2.471.849-5.418.483-7.219,2.706-1.6,1.976-1.213,3.767.127,5.787a.471.471,0,0,0,.73.064.427.427,0,0,0,.428-.081,46.963,46.963,0,0,0,3.785-4.048,20.013,20.013,0,0,0,2.769-3.7A.441.441,0,0,0,101.895,117.658Z" transform="translate(-88.704 -84.747)"/><g class="r" transform="matrix(1, 0, 0, 1, -123.02, -130.13)"><path class="d" d="M114.016,105.861c-3.019-3.967-9.692-7.982-14.17-5.291a.9.9,0,0,0-1.186.278c-5.146,6.443-2.167,17.667,4.353,22.27,3.965,7.453-5.71,10.883-8.162,16.569-.007.018,0,.037-.011.055-.987.489-.844,2.258.46,2.173.6-.039.86.489,1.132.95a1.081,1.081,0,0,0,.136.151.953.953,0,0,0,1.48.37c.377-.278,1.184-.281,1.653-.491a9.335,9.335,0,0,0,1.8-1.123c.015-.013.02-.029.037-.042a1.188,1.188,0,0,0,.369-.357c.347-.518,1.232-.366,1.761-.366a12.361,12.361,0,0,1,2.34-.092,1.132,1.132,0,0,0,.664-.074,1.028,1.028,0,0,0,.722-.329c1.814-1.877,2.316-4.19,3.217-6.565.963-2.546,2.719-4.629,3.827-7.052a1.108,1.108,0,0,0,.136-.116C119.911,119.923,119.284,112.784,114.016,105.861Z" transform="translate(35.14 30.43)"/></g><path class="c" d="M104.2,121.782a.422.422,0,0,0-.281-.358c-.037-.013-.072-.015-.108-.026a1.884,1.884,0,0,0-.233-.175.412.412,0,0,0-.421.015,4.378,4.378,0,0,0-4.748,2.517.342.342,0,0,0-.23.292q-.378,2.54-.559,5.1a.461.461,0,0,0,.691.4c1.25-.9,2.519-1.761,3.82-2.581a4.835,4.835,0,0,0,2.044-1.688A3.548,3.548,0,0,0,104.2,121.782Z" transform="translate(-85.015 -81.689)"/><path class="c" d="M96.4,121.334a1.955,1.955,0,0,0-.783-1.07l-.013-.011-.011,0a.952.952,0,0,0-.577-.081,2.607,2.607,0,0,0-1.756,1.121c-.857.972-1.658,1.991-2.427,3.035a.461.461,0,0,0,.274.675,15.61,15.61,0,0,0,2.824.3,10.619,10.619,0,0,0,2.769.1.458.458,0,0,0,.322-.322A7.371,7.371,0,0,0,96.4,121.334Z" transform="translate(-90.763 -82.539)"/><g class="q" transform="matrix(1, 0, 0, 1, -123.02, -130.13)"><path class="c" d="M96.058,121.659a.373.373,0,0,0-.2.153c-2.156.761-3.212,4.109-3.794,5.984a.412.412,0,0,0,.392.541c.04.011.059.046.107.046,2.541.039,4.767-1.131,7.026-2.184.018-.009.015-.026.031-.037.053-.022.079-.085.118-.134s.068-.072.075-.118c.005-.018.024-.018.026-.039C100.178,123.711,98.514,121.042,96.058,121.659Z" transform="translate(33.34 48.77)"/></g></g><path class="e" d="M44.426,84.31a.516.516,0,0,0-.057.017l-.011,0c-1.579-.138-2.03-.393-1.734-2.024a8.881,8.881,0,0,1,.893-2.508,17.609,17.609,0,0,1,3.528-4.37A1.01,1.01,0,0,0,47.2,75.2a49.607,49.607,0,0,0,5.9.153,46.849,46.849,0,0,0,12.418-1.892C60.078,78.913,51.14,83.746,44.426,84.31Z" transform="translate(-17.166 -6.495)"/><path class="f" d="M43.518,79.791a8.881,8.881,0,0,0-.893,2.508c-.3,1.631.154,1.886,1.734,2.024l.011,0a.516.516,0,0,1,.057-.017c6.714-.564,15.652-5.4,21.092-10.848A46.849,46.849,0,0,1,53.1,75.354a49.607,49.607,0,0,1-5.9-.153,1.01,1.01,0,0,1-.153.221A17.609,17.609,0,0,0,43.518,79.791Z" transform="translate(-17.166 -6.495)"/><g class="p" transform="matrix(1, 0, 0, 1, -9, -14.94)"><path class="c" d="M200.834,114.295c-.86-.1-1.712-.21-2.531-.357a73.634,73.634,0,0,1-8.561-2.223,31.012,31.012,0,0,0-19.338.438c-7.664,2.48-11.405,9.015-19.108,10.725a31.049,31.049,0,0,1-20.281-3.868c-4.829-2.69-9.769-5.609-13.359-9.911-3.32-3.978-4.578-8.911-7.155-13.319-1.991-1.906-3.726-.984-5.576.439a3.516,3.516,0,0,1-2.588.921c-1.675-.173-2.807-1.574-3.546-3.011a1.2,1.2,0,0,1-.252-.381,14.538,14.538,0,0,1-.156-11.6c2-5.488,4.6-11.543-.693-15.933C89.46,60.6,79.024,74.468,72.205,78.268a29.509,29.509,0,0,1-5.655,2.377C61.111,86.1,52.173,90.929,45.459,91.494a.518.518,0,0,0-.057.017l-.011,0c-1.579-.138-2.03-.393-1.734-2.024a8.881,8.881,0,0,1,.893-2.508,17.609,17.609,0,0,1,3.528-4.37,1.011,1.011,0,0,0,.153-.221c-.932-.083-1.853-.206-2.761-.36-2.561,2.929-5.706,8.164-3.305,10.561a1.076,1.076,0,0,0,.2.445c4.348,5.864,8.565,9.953,15.924,11.363a57.7,57.7,0,0,0,11.87.987c5.043-.1,10.343-2.2,14.878.686a1.163,1.163,0,0,0,.226.243c14.31,10.271,24.8,27.364,43.382,30.261,17.92,2.794,35.572-4.482,52.112-10.392,7.616-2.866,14.979-6.589,21.1-11.826a1.079,1.079,0,0,1-.353.039C201.27,114.367,201.06,114.322,200.834,114.295Z" transform="translate(-9.2 1.26)"/></g><path class="g" d="M62.749,53.732a42.752,42.752,0,0,1,4-2.588c.408-.233.822-.45,1.237-.669a8.965,8.965,0,0,1,2.156-3.327A11.508,11.508,0,0,1,74.9,44.014a.455.455,0,0,0,.336-.6c0-.015-.013-.024-.017-.039a.485.485,0,0,0-.489-.333,7.4,7.4,0,0,0-4.688-.072,32.607,32.607,0,0,0-3.429.952A9.136,9.136,0,0,1,70.4,41.565a.527.527,0,0,0,.2-.116.463.463,0,0,0,.044-.061.481.481,0,0,0,.1-.285l0-.02a.553.553,0,0,0-.116-.333l-.006-.006a.431.431,0,0,0-.347-.162l-.011,0a17.141,17.141,0,0,0-6.238.868,19.734,19.734,0,0,0-4.015,2.23,10.943,10.943,0,0,1,2.6-2.84.5.5,0,0,0,.208-.381c.107-.307-.011-.68-.415-.636-6.624.732-11.436,6.366-14.624,11.795a.516.516,0,0,0-.066.217C52.713,50.013,58.714,50.54,62.749,53.732Z" transform="translate(-12.82 -34.702)"/><g class="o" transform="matrix(1, 0, 0, 1, -9, -14.94)"><path class="h" d="M61.667,74.541c-.311.232-.693.511-1.206.853-4.767,3.19-10.174,6.359-14.023,10.679a32.568,32.568,0,0,0-7.28,12.6c-1.965,6.662-4.736,11.335-8.885,16.928a.4.4,0,0,0-.079.206c-1.741,2.053-2.48,7.126,1.018,7.688,1.754.281,3.19-.86,4.179-2.178a17.239,17.239,0,0,0,3.18-6.528c3.241-9.354,6.394-18.31,12.085-26.546,4.868-5.135,10.629-8.938,15.633-13.8-.54.029-1.081.074-1.62.09C63.682,74.563,62.676,74.567,61.667,74.541Z" transform="translate(-19.74 9.26)"/></g><path class="d" d="M285.545,37.69a.946.946,0,0,0-1.318-.566.975.975,0,0,0-.094.035,116.021,116.021,0,0,0-21.88,11.084c-11.078,7.043-19.9,15.034-30.5,22.684A157.367,157.367,0,0,1,216.9,80.138c-2.853,1.609-5.624,3.357-8.517,4.9a38.166,38.166,0,0,1-10.359,4.1,11.092,11.092,0,0,1-5.557-.022,6.822,6.822,0,0,1-2.314-1.581q-1.257-1.1-2.566-2.142a50.952,50.952,0,0,0-10.773-6.644A49.334,49.334,0,0,0,164.282,75.1c-.186-.029-.37-.059-.555-.086a78.753,78.753,0,0,0-26.4.627,89.478,89.478,0,0,0-8.982,2.145c-1.452.439-2.89.93-4.3,1.5-1.353.544-2.579,1.291-3.907,1.89-1.017.461-1.412.539-2.059-.392a1.226,1.226,0,0,0-.142-.136,19.652,19.652,0,0,0,1.046-3.622c1.908-9.922-3.9-20.669-13.4-25.274-9.618-4.66-19.5-3.414-28.015,1.063-.415.219-.829.436-1.237.669a42.753,42.753,0,0,0-4,2.588c-4.035-3.191-10.036-3.719-15.025-1.9A13.549,13.549,0,0,0,49.747,60.5c-1.27,2.454-1.552,5.168-1.927,7.859-.783,5.631-2.221,9.093-6.072,13.188-3.2,3.4-5.385,6.013-5.46,10.824.358,8.37,6.372,11.824,13.391,13.012.908.154,1.829.278,2.761.36.961.086,1.932.138,2.9.162,1.009.026,2.015.022,3-.009.539-.017,1.079-.061,1.62-.09a44.886,44.886,0,0,0,10.8-1.8,29.507,29.507,0,0,0,5.655-2.377c6.819-3.8,17.255-17.669,25.483-12.054,5.3,4.39,2.693,10.446.693,15.933a14.538,14.538,0,0,0,.156,11.6,1.205,1.205,0,0,0,.252.381c.739,1.438,1.871,2.838,3.546,3.011a3.516,3.516,0,0,0,2.588-.921c1.849-1.423,3.585-2.346,5.576-.439,2.577,4.408,3.835,9.341,7.155,13.319,3.59,4.3,8.53,7.221,13.359,9.911a31.048,31.048,0,0,0,20.281,3.868c7.7-1.71,11.444-8.245,19.108-10.725a31.012,31.012,0,0,1,19.338-.438,73.626,73.626,0,0,0,8.561,2.223c.82.147,1.671.256,2.531.357.226.028.436.072.667.1a1.08,1.08,0,0,0,.353-.039c.228-.195.454-.4.678-.6a42.727,42.727,0,0,0,7.247-8.194c4.129-6.181,6.436-13.405,10.12-19.843,2.333-4.072,4.9-8,7.53-11.891,2.559-3.787,4.934-7.7,7.745-11.306,2.186-2.809,4.561-6.065,9.124-11.159,5.984-6.682,9.218-10.609,15.486-16.987,5.993-6.1,13.084-10.944,19.343-16.74.695-.643,1.379-1.3,2.048-1.965A1.037,1.037,0,0,0,285.545,37.69Z" transform="translate(-22.407 -37.035)"/><g class="n" transform="matrix(1, 0, 0, 1, -9, -14.94)"><path class="d" d="M92.382,46.386c-14.654-7.1-29.952-.546-40.027,10.354-1,1.085.618,2.713,1.625,1.625.1-.114.211-.217.318-.329l46.492,19.873c-.6,1.177,1.245,2.2,2.039,1.028C110.476,67.591,104.291,52.156,92.382,46.386Z" transform="translate(-0.2 -16.74)"/></g><g transform="translate(105.488 44.595)"><path class="c" d="M95.62,65.608a3.618,3.618,0,0,0-1.956-2.824,4.155,4.155,0,0,0-2.594-.048c-.866.195-1.754.254-2.616.458-1.309.311-2.489,1.068-2.318,2.576.25,2.215,3.642,4.535,5.692,4.815C94.625,70.965,96.041,68.012,95.62,65.608Z" transform="translate(-86.119 -60.237)"/><path class="c" d="M126.591,68.838a3.666,3.666,0,0,0-1.112-.121c-.37,0-.737,0-1.1.022a3.126,3.126,0,0,0-1.962.671,1.719,1.719,0,0,0-.357.48c-.759,1.519.66,2.916,1.919,3.443.631.265,1.522.774,2.224.563.653-.2,1.1-1.009,1.34-1.583a3.682,3.682,0,0,0,.272-1.962,1.977,1.977,0,0,0-.7-1.232A1.619,1.619,0,0,0,126.591,68.838Z" transform="translate(-56.169 -55.07)"/><path class="c" d="M123.017,73.218a.769.769,0,0,0-.268-.055c-.491-.013-1.046.171-1.552.191-.566.022-1.132.017-1.7.075a1.331,1.331,0,0,0-1.252.772c-.506,1.256.5,2.807,1.609,3.344a2.968,2.968,0,0,0,3.611-.847,2.447,2.447,0,0,0,.529-2A2.155,2.155,0,0,0,123.017,73.218Z" transform="translate(-59.296 -51.341)"/><path class="c" d="M116.784,67.824l-.175.053a10.9,10.9,0,0,0-2.978,1.291,3.882,3.882,0,0,0-1.614,3.976c.471,2.794,4.061,5.414,6.916,5.013,1.618-.228,2.327-2.1,2.9-3.407.671-1.518,1.375-3.708.631-5.335a3.4,3.4,0,0,0-2.517-1.916A6.708,6.708,0,0,0,116.784,67.824Z" transform="translate(-64.462 -56.153)"/><path class="c" d="M105.246,70.373c-.018,0-.028.011-.044.009a3.752,3.752,0,0,0-1.46.039c-1.313.309-3.715,1.123-4.55,2.322-2.568,3.7,5.857,4.063,7.488,4.309,3.318.5,8.879,2.287,8.929-2.767C115.66,69.084,108.456,70.934,105.246,70.373Z" transform="translate(-75.564 -53.717)"/><path class="c" d="M108.489,65.329c-.2.09-.412.171-.625.243-.658.222-1.66.627-1.653,1.463a1.564,1.564,0,0,0,.331.847c1.78,2.542,4.546,2.072,6.945.974.794-.364,2.215-.87,2.5-1.809.261-.857-.6-2.11-1.132-2.693-1.417-1.548-3.1-.844-4.657.064A16.092,16.092,0,0,1,108.489,65.329Z" transform="translate(-69.275 -59.489)"/><path class="c" d="M104.908,73.276c1.91-.949,4.605-2.524,5.412-4.673.564-1.5-.325-2.314-1.348-3.377-1.349-1.4-3.272-3.383-5.263-3.816-1.96-.426-3.839.392-5.57,1.223-1.274.61-3.386,1.313-3.2,3.1a2.684,2.684,0,0,0,.318.971c.487.921,1.844,1.561,2.541,2.281,1.083,1.12,1.875,2.383,3.072,3.4C102.452,73.73,103.066,74.19,104.908,73.276Z" transform="translate(-78.732 -61.292)"/><path class="c" d="M126.327,73a2.619,2.619,0,0,0-.9.647.977.977,0,0,0-.164,1.041,1.834,1.834,0,0,0,2.1.776,1.634,1.634,0,0,0,.673-2.287.933.933,0,0,0-.772-.46,1.271,1.271,0,0,0-.461.081A5.2,5.2,0,0,0,126.327,73Z" transform="translate(-53.371 -51.716)"/><path class="c" d="M129.442,66.756a.88.88,0,0,0-.82.131c-.494.425-1.162,1.029-.945,1.765.142.483.772,1.143,1.316,1.05.632-.108.859-1.075.993-1.585a1.273,1.273,0,0,0-.048-1.006A.867.867,0,0,0,129.442,66.756Z" transform="translate(-51.313 -56.75)"/><path class="c" d="M130.559,69.589a.674.674,0,0,0-.654-.035c-.325.2-.827.419-.825.879a1.409,1.409,0,0,0,.825,1.02.49.49,0,0,0,.557-.072,1.54,1.54,0,0,0,.432-1.344A.608.608,0,0,0,130.559,69.589Z" transform="translate(-50.103 -54.425)"/><path class="c" d="M132.4,64.5a.575.575,0,0,0-.125-.037.631.631,0,0,0-.566.173c-.27.313-.7.728-.487,1.177a1.047,1.047,0,0,0,1.006.461.8.8,0,0,0,.676-.849A1.027,1.027,0,0,0,132.4,64.5Z" transform="translate(-48.353 -58.64)"/></g><g transform="translate(88.996 89.587)"><path class="d" d="M80.917,101.457c-1.583.627-3.094,1.412-3.572,3.184-.542,2.006.13,4.171.847,6.033.368.956,1.967,1.219,2.215,0,.4-1.945.559-4.269,1.4-6.074a1.135,1.135,0,0,0-.05-1.077C82.781,102.825,82.2,100.95,80.917,101.457Z" transform="translate(-77.148 -72.684)"/><g class="m" transform="matrix(1, 0, 0, 1, -98, -104.52)"><path class="d" d="M101.4,88.632c-3.224-4.815-10.49-3.241-12.288,2.331-.658,2.039.092,4.407-.219,6.484-.831,5.567-3.664,7.572-6.875,11.436-3.748,4.506-2.129,9.729-3.62,15.064a1.044,1.044,0,0,0,.066.754.677.677,0,0,0,.026.064,1.184,1.184,0,0,0,.066.116.959.959,0,0,0,.952.52c3-.165,4.364-2.142,5.265-4.6.193,1.384.452,2.449,2.138,2.307,3.69-.309,3.64-4.629,3.844-7.42,2.577-6.4,9.661-9.2,11.271-16.35C102.812,95.867,103.793,91.4,101.4,88.632Z" transform="translate(21.86 18.76)"/></g><g transform="translate(1.982 36.171)"><path class="c" d="M86.044,106.236c-.368-1.241-3.142-.818-3.853-.151a.375.375,0,0,0-.074.472c0,.011-.007.017-.006.026q.507,2.225,1.017,4.451c.081.358.682.48.84.11.406-.956.989-1.811,1.45-2.737C85.7,107.847,86.235,106.88,86.044,106.236Z" transform="translate(-75.006 -105.442)"/><path class="c" d="M83.085,107.1c-.974-1.535-3.686-1.331-4.66.12l-.009.022a.432.432,0,0,0-.167.3c-.171,1.932.686,3.9.952,5.795a.437.437,0,0,0,.592.3.476.476,0,0,0,.61-.145c1.228-1.728,2.894-3.805,2.9-6.019A.379.379,0,0,0,83.085,107.1Z" transform="translate(-78.226 -104.946)"/></g></g><g transform="translate(152.54 77.618)"><path class="d" d="M140.25,123.735a37.987,37.987,0,0,0,6.51-24c-.518-8-2.256-17.81-11.163-19.878-22.005-5.109-27.138,23.671-22.1,38.755a1.22,1.22,0,0,0,.018.178c1.511,4.783,3.059,9.451,6.162,13.461,1.89,2.441,4.973,4.125,6.7,6.55,6.273,8.791.947,13.736-4.493,18.492a1.033,1.033,0,0,0-.316.5,1,1,0,0,0-.393,1.188c.436,1.386.914,2.752,1.438,4.109a1.179,1.179,0,0,0,1.412.8,27.1,27.1,0,0,1,8.547-.6.935.935,0,0,0,1.05-.745,1.249,1.249,0,0,0,.342-.309c2.34-3.158,2.9-5.826,3.884-9.523,1.232-4.625,3.833-8.712,5.155-13.282C144.545,134.1,144.613,127.638,140.25,123.735Z" transform="translate(-111.71 -79.256)"/><g class="l" transform="matrix(1, 0, 0, 1, -161.54, -92.55)"><path class="d" d="M146.763,99.734c-.518-8-2.256-17.81-11.163-19.878-22.3-5.177-27.28,24.45-21.9,39.356a1.2,1.2,0,0,0,2.208.1l19.468,7.239c-.336,1.05,1.013,2.191,1.86,1.2A38.425,38.425,0,0,0,146.763,99.734Z" transform="translate(49.83 13.3)"/></g><path class="c" d="M126.388,124.276a.461.461,0,0,0-.206-.156c-1.077-.91-2.906.445-3.509,1.438a.363.363,0,0,0-.031.224c-.274,1.416-.59,2.818-.96,4.212a.463.463,0,0,0,.768.447c1.325-1.211,2.763-2.287,4.1-3.478C127.482,126.131,127.037,125.17,126.388,124.276Z" transform="translate(-103.372 -41.895)"/><path class="c" d="M125.636,123.452a8.54,8.54,0,0,0-2.987.873,3.779,3.779,0,0,0-1.007-2.107c-.024-.044-.013-.094-.057-.134-1.48-1.39-2.943-.408-4.23.71a12.38,12.38,0,0,0-3.9,6.267.435.435,0,0,0,.059.347,1.631,1.631,0,0,0,.276.211.461.461,0,0,0,.34-.02h0a24.966,24.966,0,0,1,5.032-1.41l.075-.018a17.362,17.362,0,0,0-.98,2.732.36.36,0,0,0-.018.059c-.005.026-.018.057-.024.083s.015.051.013.083a.446.446,0,0,0,.029.176.386.386,0,0,0,.119.173.36.36,0,0,0,.077.053.443.443,0,0,0,.454.011c2.094-.548,4.706-.507,6.552-1.726,1.215-.8,1.693-2.875,1.7-4.236C127.171,124.57,126.748,123.517,125.636,123.452Z" transform="translate(-110.263 -43.923)"/></g><path class="i" d="M59.636,65.552c-.745-4.044,5.127-4.712,5.592-.765.171,1.452,2.471,1.469,2.3,0-.351-2.98-2.7-5.374-5.848-5-3.232.384-4.809,3.379-4.26,6.375.268,1.452,2.482.836,2.217-.612Z" transform="translate(-4.781 -17.991)"/><g transform="matrix(0.995, 0.105, -0.105, 0.995, -206.652, -226.952)"><path class="j" d="M340.2,226.861c-.549-1.889-3.05-2.647-4.858-3.51a34.816,34.816,0,0,1-8.638-6.386c-1.919-1.758-3.139-3.207-3.6-5.563-.444-2.254-.431-4.517-.772-6.78-.366-2.423-.514-4.776-.7-7.19a6.958,6.958,0,0,0-3.493-5.374,18.145,18.145,0,0,0-6.577-2.951c-3.2-.643-6.114.188-9.241.292a.41.41,0,0,0-.269-.063c-2.938.241-5.578-.856-8.422-1.26-1.3-.184-2.631-.251-3.924-.447-3.7-.559-7.933-1.214-11.5.073-4.208,1.518-6.612,2.931-7.8,6.574-.594,1.82-1.224,3.635-1.746,5.463-.628,2.2-1.878,4.152-2.69,6.295a16.566,16.566,0,0,1-4.373,2.241c-1.667.7-3.525,1.2-5.243,1.815-3.21,1.154-6.2,2.047-6.816,5.09a.317.317,0,0,0,.127.317c.124,6.2,5.622,9.948,11.455,13.33a27.089,27.089,0,0,0,9.932,3.016c4.373.6,8.392,2.225,12.638,3.243a122.011,122.011,0,0,0,18.993,3.488,82.638,82.638,0,0,0,14.565.011c3.794-.362,7.723-.665,11.206-2.05a34.187,34.187,0,0,0,10.085-6.326C339.865,228.965,340.837,227.978,340.2,226.861Z"/><path class="k" d="M274.171,220.27c.031.272-.051.547-.015.782.037.253.075.517.1.769a3.15,3.15,0,0,0,.262.7l.092.18.044.09a.634.634,0,0,1,.041.151.521.521,0,0,0,.093.32l.159.341.078.172a.687.687,0,0,0,.1.122,1.1,1.1,0,0,1,.27.43,1.62,1.62,0,0,0,.061.156c.028.055.059.111.092.166.138.221.3.445.467.668.193.252.219.527.44.709-.328-.088-.488-.391-.7-.534a4.864,4.864,0,0,1-.664-.613c-.05-.058-.1-.116-.145-.178a1.474,1.474,0,0,1-.118-.211.613.613,0,0,0-.2-.251,1.03,1.03,0,0,1-.179-.2l-.1-.2-.2-.392a1.051,1.051,0,0,1-.091-.231,1.857,1.857,0,0,1-.021-.215.184.184,0,0,0-.008-.042l-.041-.094-.081-.189a2.461,2.461,0,0,1-.174-.832c.021-.276.057-.539.1-.813A3.777,3.777,0,0,1,274.171,220.27Z" transform="translate(-7.527 -14.497)"/><path class="k" d="M285.489,234.514c1.983.815,4.091,1.494,6.041,2.293.084.025.226.04.41.1a1.261,1.261,0,0,1,.254.121c.058.035.051.025.057.026-.029,0,.026,0,.134,0a.79.79,0,0,1,.214.033,1.016,1.016,0,0,1,.16.064.564.564,0,0,0,.265.1c.566.093,1.105.263,1.638.332l.789.118.209.033c.094.015.181.036.26.057l.4.115c.213.047.512.081.763.122.306.049.593.124.85.185.471.115,1.069.179,1.6.271a3.911,3.911,0,0,1,.451.116c.021.01.209.032.358.056s.342.048.422.067.212.033.348.047a4.875,4.875,0,0,1,.926.173,2.775,2.775,0,0,0,.324.076,3.085,3.085,0,0,1,.481.081c.365.1.608.229.783.273l.752.162c.53.107,1.051.208,1.559.265a11.194,11.194,0,0,1,1.744.274c.1.032.351.022.733.061l.858.146a2.374,2.374,0,0,0,.3.024l.223.009a1.921,1.921,0,0,1,.351.053c.189.04.047.022.191.024a1.979,1.979,0,0,1,.562.042l.423.09a1.35,1.35,0,0,0,.29.031c.208.006.516-.016.819-.011l1.673.007,3.315.007c.26-.007.515-.022.762-.051.216-.028.58-.081.834-.1a5.672,5.672,0,0,0,.749-.115,4.855,4.855,0,0,1,.96-.055l1.678-.093c.279-.012.581-.034.838-.026a2.224,2.224,0,0,0,.654-.079c.232-.061.5-.158.816-.23s.559-.09.843-.137c.546-.093,1.111-.147,1.593-.28.509-.143,1.115-.275,1.6-.418l.777-.213a2.439,2.439,0,0,0,.659-.275,2.867,2.867,0,0,1,.834-.331.753.753,0,0,0,.276-.118l.177-.106.176-.09c.092-.051.19-.128.311-.208a1.809,1.809,0,0,1,.41-.195,2.931,2.931,0,0,0,.68-.337c.222-.14.475-.272.7-.385a3.444,3.444,0,0,0,.562-.467c.377-.338.794-.656,1.183-.979-.342.366-.7.711-1.018,1.084a3.329,3.329,0,0,1-.552.55c-.238.148-.442.278-.646.433a3.228,3.228,0,0,1-.7.425,1.211,1.211,0,0,0-.295.17c-.089.069-.183.16-.311.248l-.168.106-.149.108a1.352,1.352,0,0,1-.44.227,2.061,2.061,0,0,0-.629.316,2.982,2.982,0,0,1-.8.389l-.79.265c-.549.191-1.013.317-1.547.5a14.018,14.018,0,0,1-1.651.373c-.261.053-.567.106-.791.16s-.457.155-.75.247a3.544,3.544,0,0,1-.983.163c-.3,0-.553.036-.829.059l-1.655.134a4.255,4.255,0,0,0-.7.041,7.309,7.309,0,0,1-.889.159c-.3.036-.484.07-.816.121-.3.043-.6.068-.9.083-1.182.033-2.247.017-3.376.028l-1.672.007c-.254,0-.5.021-.852.018a3.06,3.06,0,0,1-.539-.051l-.386-.082a.573.573,0,0,0-.264-.028,2.114,2.114,0,0,1-.63-.071.228.228,0,0,0-.059-.012l-.195-.009a3.808,3.808,0,0,1-.526-.051l-.777-.141a6.519,6.519,0,0,1-.924-.1,9.659,9.659,0,0,0-1.534-.249,15.747,15.747,0,0,1-1.708-.314l-.407-.1c-.143-.037-.243-.053-.45-.114-.349-.114-.579-.239-.743-.283a2.013,2.013,0,0,0-.336-.059,4.161,4.161,0,0,1-.476-.121,3.237,3.237,0,0,0-.7-.147c-.14-.019-.3-.04-.473-.078s-.26-.046-.4-.072a4.437,4.437,0,0,1-.458-.089c-.195-.058-.259-.092-.34-.105-.553-.12-1.064-.186-1.656-.352-.274-.077-.515-.15-.755-.2-.291-.062-.546-.094-.867-.181l-.386-.129c-.052-.016-.1-.029-.141-.038l-.2-.04-.845-.173a18.261,18.261,0,0,1-3.143-.973c-.535-.3-.969-.479-1.461-.708s-1-.415-1.462-.681c-.119-.059-.24-.134-.34-.171s-.252-.076-.394-.14l-.716-.361c-.237-.118-.462-.257-.712-.357A2.885,2.885,0,0,1,285.489,234.514Z" transform="translate(-11.188 -20.696)"/></g></g></svg>