<svg xmlns="http://www.w3.org/2000/svg" xmlns:xlink="http://www.w3.org/1999/xlink" width="254.376" height="229.68" viewBox="0 0 254.376 229.68"><defs><style>.a{fill:#bad8b4;}.b{fill:#ffe87e;}.c{fill:#ffecaa;}.d{fill:#3b3b3b;}.e{fill:#442626;}.f{fill:#4f2b2b;}.g{filter:url(#m);}.h{filter:url(#k);}.i{filter:url(#i);}.j{filter:url(#g);}.k{filter:url(#e);}.l{filter:url(#c);}.m{filter:url(#a);}</style><filter id="a" x="30.021" y="121.245" width="34.981" height="42.411" filterUnits="userSpaceOnUse"><feOffset dy="3" input="SourceAlpha"/><feGaussianBlur stdDeviation="3" result="b"/><feFlood flood-opacity="0.161"/><feComposite operator="in" in2="b"/><feComposite in="SourceGraphic"/></filter><filter id="c" x="3" y="22.973" width="251.376" height="174.255" filterUnits="userSpaceOnUse"><feOffset dy="3" input="SourceAlpha"/><feGaussianBlur stdDeviation="3" result="d"/><feFlood flood-opacity="0.161"/><feComposite operator="in" in2="d"/><feComposite in="SourceGraphic"/></filter><filter id="e" x="36.371" y="125.314" width="100.118" height="75.681" filterUnits="userSpaceOnUse"><feOffset dy="5" input="SourceAlpha"/><feGaussianBlur stdDeviation="3" result="f"/><feFlood flood-opacity="0.161"/><feComposite operator="in" in2="f"/><feComposite in="SourceGraphic"/></filter><filter id="g" x="47.742" y="13.973" width="90.637" height="84.637" filterUnits="userSpaceOnUse"><feOffset dx="3" dy="-6" input="SourceAlpha"/><feGaussianBlur stdDeviation="3" result="h"/><feFlood flood-opacity="0.161"/><feComposite operator="in" in2="h"/><feComposite in="SourceGraphic"/></filter><filter id="i" x="0" y="50.992" width="63.906" height="71.503" filterUnits="userSpaceOnUse"><feOffset dx="-3" dy="6" input="SourceAlpha"/><feGaussianBlur stdDeviation="3" result="j"/><feFlood flood-opacity="0.161"/><feComposite operator="in" in2="j"/><feComposite in="SourceGraphic"/></filter><filter id="k" x="93.005" y="130.548" width="59.386" height="92.492" filterUnits="userSpaceOnUse"><feOffset dy="3" input="SourceAlpha"/><feGaussianBlur stdDeviation="3" result="l"/><feFlood flood-opacity="0.161"/><feComposite operator="in" in2="l"/><feComposite in="SourceGraphic"/></filter><filter id="m" x="66.6" y="120.154" width="34.981" height="42.411" filterUnits="userSpaceOnUse"><feOffset dy="3" input="SourceAlpha"/><feGaussianBlur stdDeviation="3" result="n"/><feFlood flood-opacity="0.161"/><feComposite operator="in" in2="n"/><feComposite in="SourceGraphic"/></filter></defs><g transform="translate(-20 -452.721)"><ellipse class="a" cx="74.508" cy="23.105" rx="74.508" ry="23.105" transform="translate(49.992 636.19)"/><g class="m" transform="matrix(1, 0, 0, 1, 20, 452.72)"><path class="b" d="M155.661,319.427a6.39,6.39,0,0,0-4.072-.6,5.382,5.382,0,0,0-4.061,3.871,33.5,33.5,0,0,1-2.5,6.282,14.578,14.578,0,0,0-2.161,4.773,5.82,5.82,0,0,0,.554,3.508c-.632.35-1.385.844-1.471,1.469-.07.506.307,1.086.895.895.378-.123.749-.263,1.124-.4a16.723,16.723,0,0,0-.122,1.838.736.736,0,0,0,1.241.514c.222-.2.46-.385.689-.579a16.5,16.5,0,0,0,.648,1.788c.29.611,1.14.364,1.329-.173q.248-.705.494-1.41c3.29.443,6.307-2.891,7.939-5.928,1.8-3.349,3.386-7.439,2.468-11.288a8.207,8.207,0,0,0-1.914-3.719A4.519,4.519,0,0,0,155.661,319.427Z" transform="translate(-102.92 -191.49)"/></g><path class="b" d="M137.974,378.855c-1.16-9.51-5.111-22.486-16.018-24.721-3.92-.8-8.153-.356-11.015,2.69-7.043,7.494-3.31,18.279.177,26.344,1.97,4.555,5.023,8.591,7.161,13.071a21.8,21.8,0,0,1,2.535,8.639,7.565,7.565,0,0,1-1.036,4.276c-.64,1-1.832,1.719-2.022,2.985-.647,4.312,8.385,3.486,10.611,2.794a8.015,8.015,0,0,0,1.235-.482C141.671,408.362,139.308,389.792,137.974,378.855Z" transform="translate(-32.743 244.796)"/><g transform="translate(32.001 481.693)"><g class="l" transform="matrix(1, 0, 0, 1, -12, -28.97)"><path class="b" d="M474.762,933.7c-.019.006-.033,0-.05.008-11.065,4.518-23.331,6.344-34.959,2.779-10.182-3.123-19.358-9.142-29.473-12.629-22.522-7.768-42.564-15.157-58.022-34.161,4.2-10.221,6.634-20.882,3.8-31.789-2.722-10.47-8.252-20.621-17.118-27.1-11.462-8.37-26.745-8.1-39.236-2.113-16.578-11.487-36.024,1.433-37.448,19.995-14.144,8.976-25.26,26.544-15.774,42.791a19.954,19.954,0,0,0,10.365,8.68c2.375,8.048,10.041,11.753,17.822,12.977a.985.985,0,0,0,.3-.012,129.2,129.2,0,0,0,1.357,16.85,38.074,38.074,0,0,1,24.9-4.908c12.119,1.71,23.062,8.433,32.022,16.771a96.181,96.181,0,0,1,25.2,38.762c22.118-3.4,43.415-10.778,65.18-15.832,10.445-2.427,22.1-3.056,31.737-8.075,9.143-4.761,15.362-13.247,20.812-21.719C476.768,934.043,475.531,933.175,474.762,933.7Z" transform="translate(-230.95 -795.38)"/></g><g class="k" transform="matrix(1, 0, 0, 1, -12, -28.97)"><path class="c" d="M321.2,905.634c-8.96-8.338-19.9-15.061-32.022-16.771a38.073,38.073,0,0,0-24.9,4.908c1.954,12.9,6.324,25.44,15.239,35.092,15.644,16.941,38.836,18.925,60.573,16.4,2.111-.246,4.21-.544,6.305-.867A96.181,96.181,0,0,0,321.2,905.634Z" transform="translate(-218.91 -759.17)"/></g></g><g class="j" transform="matrix(1, 0, 0, 1, 20, 452.72)"><path class="b" d="M342.488,496.35c-2.724-10.47-8.251-20.621-17.118-27.095-16.736-12.221-41.614-6.034-54.062,9.5-.779.973.6,2.366,1.383,1.383.03-.036.061-.07.091-.106l63.895,47.885c-.047.114-.086.232-.133.346-.487,1.159,1.4,1.666,1.885.521C342.794,518.363,345.384,507.485,342.488,496.35Z" transform="translate(-217.34 -433.82)"/></g><path class="d" d="M9.334,7.894A12.609,12.609,0,0,0,7.848,2.15,4.168,4.168,0,0,0,3.781.011a2.939,2.939,0,0,0-2.6,1.443,3.661,3.661,0,0,0-.361.56A9.71,9.71,0,0,0,.237,8.162C.588,9.854,1.3,11.913,2.7,12.571a5.1,5.1,0,0,0,4.617-.3C8.9,11.218,9.5,10.142,9.334,7.894Z" transform="matrix(0.985, 0.174, -0.174, 0.985, 80.811, 517.823)"/><g class="i" transform="matrix(1, 0, 0, 1, 20, 452.72)"><path class="b" d="M186.535,566.635l-24.346-45.987.035-.021c1.044-.651.083-2.309-.967-1.653-13.991,8.735-25.1,26.076-15.741,42.1,4.1,7.025,11,9.57,18.826,10.606,7.475.99,17.142,1.5,23.3-3.558C188.513,567.4,187.447,566.233,186.535,566.635Z" transform="translate(-130.06 -464.83)"/></g><g class="h" transform="matrix(1, 0, 0, 1, 20, 452.72)"><path class="b" d="M261.237,388.921c-1.007-7.826-3.1-16.621-9.885-21.493a13.252,13.252,0,0,0-6.16-2.488,23.54,23.54,0,0,0-4.981-.17,21.983,21.983,0,0,0-9.218,2.758,20.876,20.876,0,0,0-9.35,11.315c-2.243,6.428-.967,13.207,1.435,19.391,2.231,5.744,6.074,10.753,8.5,16.423a22.2,22.2,0,0,1,1.976,7.293,11.539,11.539,0,0,1-.357,3.757,6.732,6.732,0,0,1-1.577,3.236,10.41,10.41,0,0,1-1.581.653,4.925,4.925,0,0,0-1.4,1.139,4.287,4.287,0,0,0-.97,3.5c.514,2.97,3.9,4.22,6.472,4.673,8.3,1.461,19.2-2.687,22.214-11.023a.956.956,0,0,0,.166-.268A81.052,81.052,0,0,0,261.237,388.921Z" transform="translate(-118.47 -228.16)"/></g><g class="g" transform="matrix(1, 0, 0, 1, 20, 452.72)"><path class="b" d="M155.661,319.427a6.39,6.39,0,0,0-4.072-.6,5.382,5.382,0,0,0-4.061,3.871,33.5,33.5,0,0,1-2.5,6.282,14.578,14.578,0,0,0-2.161,4.773,5.82,5.82,0,0,0,.554,3.508c-.632.35-1.385.844-1.471,1.469-.07.506.307,1.086.895.895.378-.123.749-.263,1.124-.4a16.723,16.723,0,0,0-.122,1.838.736.736,0,0,0,1.241.514c.222-.2.46-.385.689-.579a16.5,16.5,0,0,0,.648,1.788c.29.611,1.14.364,1.329-.173q.248-.705.494-1.41c3.29.443,6.307-2.891,7.939-5.928,1.8-3.349,3.386-7.439,2.468-11.288a8.207,8.207,0,0,0-1.914-3.719A4.519,4.519,0,0,0,155.661,319.427Z" transform="translate(-66.34 -192.58)"/></g><g transform="translate(-466.926 102.346)"><path class="e" d="M550.4,404.624a.594.594,0,0,0-.25-.5c-2.87-2.3-6.376-3.785-9.842-5.344q-4.749-2.921-9.4-6.005a.611.611,0,0,0-.739.007c-5.415-4.328-9.574-9.761-11.375-16.706a.675.675,0,0,0-.19-.323.742.742,0,0,0-1.228-.4c-2.586,2.469-5.767,2.517-9.068,3.206-2.8.583-5.572,1.417-8.336,2.159a28.3,28.3,0,0,0-5.067,1.664,7.336,7.336,0,0,0-3.519,3.138c-.808,1.66-.4,3.675.026,5.385a20.128,20.128,0,0,0,1.926,4.776,28.526,28.526,0,0,0,6.922,8.288,18.182,18.182,0,0,0,5.565,3.253c13.766,4.655,30.605.378,44.581-1.137C551.335,405.987,551.346,404.522,550.4,404.624Z" transform="translate(0 4.232)"/><path class="e" d="M587.809,401.291c.093-.85.158-1.7.173-2.547.01-.007.018-.006.027-.013q1.87-1.379,3.691-2.822c.443-.352.945-.706,1.421-1.089C593.818,397.308,591.019,399.6,587.809,401.291Z" transform="translate(16.549 7.592)"/><path class="f" d="M607.574,399.189c-.621-2.984-.582-5.951-1.1-8.917-.9-5.187-4.62-11.438-7.535-15.729-2.927-4.311-3.818-9.007-8.12-12.358-5.4-4.2-12.69-5.6-19.1-7.5a.68.68,0,0,0-.354-.013,41.984,41.984,0,0,0-4.462-1.794.751.751,0,0,0-.558-.371c-5.676-.746-11.33-1.9-17.038-.972a47.972,47.972,0,0,0-15.6,5.159,30.116,30.116,0,0,0-9.392,7.96,64.8,64.8,0,0,0-4,6.834c-1.835,3.134-4.334,5.28-6.7,7.953-.014.015-.015.032-.028.047a.66.66,0,0,0-.223.534c.192,8.757,9.881,14.763,16.3,19.245,8.9,6.21,17.393,13.564,28.748,13.207,6.2-.194,12.311-.609,18.519-.177,5.5.382,11.438,1.934,16.919.607,2.573-.624,4.834-2.058,7.343-2.846,1.405-.442,3.01-.594,4.238-1.5a5.2,5.2,0,0,0,2.141-3.686A11.215,11.215,0,0,0,607.574,399.189Zm-7.06,3.664c-.3-2.2-2.651-7.114-.936-9.053.015-.012.033-.014.048-.027a17.922,17.922,0,0,1,4.086-2.5,7.584,7.584,0,0,0,1.259-.775c.216,1.647.09,3.219.3,4.937.19,1.562.6,2.933.88,4.311-.519,1.074-1.855,1.851-2.769,2.579-.893.711-1.807,1.4-2.722,2.079C600.628,403.891,600.584,403.374,600.514,402.853Zm.011,5.891c.092-.85.158-1.7.173-2.547.009-.007.018-.006.027-.013q1.87-1.379,3.69-2.822c.443-.352.945-.706,1.421-1.089C606.533,404.761,603.735,407.051,600.525,408.744Z" transform="translate(3.833 0.139)"/><path class="e" d="M565.771,353.837a3.84,3.84,0,0,0-2.116-2.157c-1.561-.76-3.562-1.582-5.328-1.216a2.192,2.192,0,0,0-1.948,2.071c.018,2.534,2.782,3.789,4.934,3.925C562.84,356.557,566.619,356.39,565.771,353.837Z" transform="translate(11.18 0)"/></g></g></svg>