<svg xmlns="http://www.w3.org/2000/svg" xmlns:xlink="http://www.w3.org/1999/xlink" width="279.626" height="243.707" viewBox="0 0 279.626 243.707"><defs><style>.a{fill:#bad8b4;}.b{fill:#c9d1e6;}.c{fill:#d73639;}.d{fill:#fafcfb;}.e{fill:#f9fbfa;}.f{fill:#e7e7e7;}.g{fill:none;}.h{fill:#ebebeb;}.i{fill:#ff8686;}.j{fill:#3b3b3b;}.k{fill:#393840;opacity:0.793;}.l{fill:#c2000b;}.m{fill:#ff0;}.n{filter:url(#ao);}.o{filter:url(#am);}.p{filter:url(#ak);}.q{filter:url(#ai);}.r{filter:url(#ag);}.s{filter:url(#ae);}.t{filter:url(#ac);}.u{filter:url(#aa);}.v{filter:url(#y);}.w{filter:url(#w);}.x{filter:url(#u);}.y{filter:url(#s);}.z{filter:url(#q);}.aa{filter:url(#o);}.ab{filter:url(#m);}.ac{filter:url(#k);}.ad{filter:url(#i);}.ae{filter:url(#g);}.af{filter:url(#e);}.ag{filter:url(#c);}.ah{filter:url(#a);}</style><filter id="a" x="82.995" y="120.302" width="90.841" height="79.022" filterUnits="userSpaceOnUse"><feOffset dy="3" input="SourceAlpha"/><feGaussianBlur stdDeviation="3" result="b"/><feFlood flood-opacity="0.161"/><feComposite operator="in" in2="b"/><feComposite in="SourceGraphic"/></filter><filter id="c" x="38.317" y="110.034" width="41.22" height="52.183" filterUnits="userSpaceOnUse"><feOffset dy="6" input="SourceAlpha"/><feGaussianBlur stdDeviation="3" result="d"/><feFlood flood-opacity="0.161"/><feComposite operator="in" in2="d"/><feComposite in="SourceGraphic"/></filter><filter id="e" x="44.356" y="136.414" width="22.582" height="22.906" filterUnits="userSpaceOnUse"><feOffset dy="3" input="SourceAlpha"/><feGaussianBlur stdDeviation="3" result="f"/><feFlood flood-opacity="0.161"/><feComposite operator="in" in2="f"/><feComposite in="SourceGraphic"/></filter><filter id="g" x="40.507" y="135.973" width="22.064" height="22.693" filterUnits="userSpaceOnUse"><feOffset dy="3" input="SourceAlpha"/><feGaussianBlur stdDeviation="3" result="h"/><feFlood flood-opacity="0.161"/><feComposite operator="in" in2="h"/><feComposite in="SourceGraphic"/></filter><filter id="i" x="48.735" y="135.749" width="20.973" height="21.203" filterUnits="userSpaceOnUse"><feOffset dy="3" input="SourceAlpha"/><feGaussianBlur stdDeviation="3" result="j"/><feFlood flood-opacity="0.161"/><feComposite operator="in" in2="j"/><feComposite in="SourceGraphic"/></filter><filter id="k" x="69.58" y="13.869" width="73.591" height="107.416" filterUnits="userSpaceOnUse"><feOffset dy="3" input="SourceAlpha"/><feGaussianBlur stdDeviation="3" result="l"/><feFlood flood-opacity="0.161"/><feComposite operator="in" in2="l"/><feComposite in="SourceGraphic"/></filter><filter id="m" x="101.424" y="27.858" width="44.048" height="56.391" filterUnits="userSpaceOnUse"><feOffset dx="6" dy="3" input="SourceAlpha"/><feGaussianBlur stdDeviation="4.5" result="n"/><feFlood flood-opacity="0.161"/><feComposite operator="in" in2="n"/><feComposite in="SourceGraphic"/></filter><filter id="o" x="89.934" y="8.797" width="42.89" height="49.762" filterUnits="userSpaceOnUse"><feOffset dx="6" dy="-3" input="SourceAlpha"/><feGaussianBlur stdDeviation="3" result="p"/><feFlood flood-opacity="0.161"/><feComposite operator="in" in2="p"/><feComposite in="SourceGraphic"/></filter><filter id="q" x="1.627" y="31.61" width="278" height="155.372" filterUnits="userSpaceOnUse"><feOffset dy="3" input="SourceAlpha"/><feGaussianBlur stdDeviation="3" result="r"/><feFlood flood-opacity="0.161"/><feComposite operator="in" in2="r"/><feComposite in="SourceGraphic"/></filter><filter id="s" x="41.271" y="22.61" width="80.288" height="75.387" filterUnits="userSpaceOnUse"><feOffset dx="3" dy="-6" input="SourceAlpha"/><feGaussianBlur stdDeviation="3" result="t"/><feFlood flood-opacity="0.161"/><feComposite operator="in" in2="t"/><feComposite in="SourceGraphic"/></filter><filter id="u" x="9.842" y="104.138" width="64.009" height="33.72" filterUnits="userSpaceOnUse"><feOffset dx="1" dy="6" input="SourceAlpha"/><feGaussianBlur stdDeviation="3" result="v"/><feFlood flood-opacity="0.161"/><feComposite operator="in" in2="v"/><feComposite in="SourceGraphic"/></filter><filter id="w" x="116.019" y="23.439" width="84.524" height="96.283" filterUnits="userSpaceOnUse"><feOffset dy="3" input="SourceAlpha"/><feGaussianBlur stdDeviation="3" result="x"/><feFlood flood-opacity="0.161"/><feComposite operator="in" in2="x"/><feComposite in="SourceGraphic"/></filter><filter id="y" x="164.507" y="36.831" width="46.535" height="53.021" filterUnits="userSpaceOnUse"><feOffset dx="6" dy="3" input="SourceAlpha"/><feGaussianBlur stdDeviation="4.5" result="z"/><feFlood flood-opacity="0.161"/><feComposite operator="in" in2="z"/><feComposite in="SourceGraphic"/></filter><filter id="aa" x="147.885" y="17.439" width="51.42" height="44.594" filterUnits="userSpaceOnUse"><feOffset dx="6" dy="-3" input="SourceAlpha"/><feGaussianBlur stdDeviation="3" result="ab"/><feFlood flood-opacity="0.161"/><feComposite operator="in" in2="ab"/><feComposite in="SourceGraphic"/></filter><filter id="ac" x="140.532" y="129.661" width="80.356" height="57.035" filterUnits="userSpaceOnUse"><feOffset dy="3" input="SourceAlpha"/><feGaussianBlur stdDeviation="3" result="ad"/><feFlood flood-opacity="0.161"/><feComposite operator="in" in2="ad"/><feComposite in="SourceGraphic"/></filter><filter id="ae" x="77.871" y="110.508" width="36.963" height="51.158" filterUnits="userSpaceOnUse"><feOffset dy="6" input="SourceAlpha"/><feGaussianBlur stdDeviation="3" result="af"/><feFlood flood-opacity="0.161"/><feComposite operator="in" in2="af"/><feComposite in="SourceGraphic"/></filter><filter id="ag" x="84.37" y="136.902" width="22.098" height="22.517" filterUnits="userSpaceOnUse"><feOffset dy="3" input="SourceAlpha"/><feGaussianBlur stdDeviation="3" result="ah"/><feFlood flood-opacity="0.161"/><feComposite operator="in" in2="ah"/><feComposite in="SourceGraphic"/></filter><filter id="ai" x="80.491" y="137.07" width="21.568" height="22.383" filterUnits="userSpaceOnUse"><feOffset dy="3" input="SourceAlpha"/><feGaussianBlur stdDeviation="3" result="aj"/><feFlood flood-opacity="0.161"/><feComposite operator="in" in2="aj"/><feComposite in="SourceGraphic"/></filter><filter id="ak" x="88.385" y="135.627" width="20.655" height="20.953" filterUnits="userSpaceOnUse"><feOffset dy="3" input="SourceAlpha"/><feGaussianBlur stdDeviation="3" result="al"/><feFlood flood-opacity="0.161"/><feComposite operator="in" in2="al"/><feComposite in="SourceGraphic"/></filter><filter id="am" x="0" y="34.013" width="80.083" height="51.964" filterUnits="userSpaceOnUse"><feOffset dy="3" input="SourceAlpha"/><feGaussianBlur stdDeviation="3" result="an"/><feFlood flood-opacity="0.161"/><feComposite operator="in" in2="an"/><feComposite in="SourceGraphic"/></filter><filter id="ao" x="26.139" y="0" width="67.91" height="42.394" filterUnits="userSpaceOnUse"><feOffset dy="3" input="SourceAlpha"/><feGaussianBlur stdDeviation="3" result="ap"/><feFlood flood-opacity="0.161"/><feComposite operator="in" in2="ap"/><feComposite in="SourceGraphic"/></filter></defs><g transform="translate(-537.374 -63)"><ellipse class="a" cx="74.508" cy="23.105" rx="74.508" ry="23.105" transform="translate(602.992 260.497)"/><g transform="translate(546.377 104.172)"><path class="b" d="M317.648,558.952c-8.863-4.55-16.6-10.761-24.229-17.105-6.165-5.129-13.043-12.652-21.306-13.954a.42.42,0,0,0-.061,0,.408.408,0,0,0-.062-.018,15.836,15.836,0,0,0-8.59,1.269c-2.825,1.445-4.664,4.111-4.28,8.391.718,7.995,7.2,13.913,12.943,18.716,11.831,9.9,32.745,14.534,45.48,3.589v.01l.241-.2.5-.405Z" transform="translate(-257.915 -527.771)"/><path class="c" d="M318.13,562.692l-1.426-.751a.423.423,0,0,0-.2-.049.418.418,0,0,0-.271.1c-4.582,3.873-10.648,5.92-17.539,5.92a42.875,42.875,0,0,1-26.3-9.642c-5.713-4.778-11.864-10.5-12.532-17.931-.03-.337-.033-.656-.033-.973a.422.422,0,0,0-.149-.32.416.416,0,0,0-.27-.1.437.437,0,0,0-.07.005l-1.489.25a.419.419,0,0,0-.349.424c.007.3.022.6.05.92.747,8.312,7.285,14.425,13.354,19.5a44.657,44.657,0,0,0,27.8,10.164,29.581,29.581,0,0,0,17.535-5.286.426.426,0,0,0,.151-.078l.639-.519c.2-.157.4-.318.588-.477l.569-.461a.42.42,0,0,0-.068-.7Z" transform="translate(-257.509 -530.678)"/></g><g transform="translate(548 82.87)"><g class="ah" transform="matrix(1, 0, 0, 1, -10.63, -19.87)"><path class="d" d="M44.13,4.855a1.21,1.21,0,0,0-.142-.036.934.934,0,0,0-.1-.067C34.417.91,23.219-1.953,13.206,1.657,5.761,4.342-.473,11.26.028,19.548.522,27.69,6.784,34.209,14.087,37.1A27.69,27.69,0,0,0,28.133,38.76c7.164-1.031,12.912-6.046,20.344-5.713a.947.947,0,0,0,.234-.036c2.742,1.281,2.966,5.388,7.55,4.353,3.59-.809,5.569-4.628,5.983-7.963C63.574,18.667,52.814,8.977,44.13,4.855Z" transform="matrix(0.91, 0.41, -0.41, 0.91, 107.87, 126.3)"/></g><g transform="matrix(0.951, 0.309, -0.309, 0.951, 46.368, 93.165)"><g class="ag" transform="matrix(0.95, -0.31, 0.31, 0.95, -89.13, -89.89)"><path class="e" d="M7.024.366A4.453,4.453,0,0,0,2.689.84a5.864,5.864,0,0,0-2.5,3.683C-.74,8.9,2,13.911,2.2,18.3,2.35,21.5.3,27.281,2.893,29.989c3.9,4.067,8.983-2.195,10.13-5.651a24.15,24.15,0,0,0,.65-12.765A22.814,22.814,0,0,0,11.4,5.508C10.454,3.781,9.216,1.686,7.5.622A4.281,4.281,0,0,0,7.024.366Z" transform="matrix(0.95, 0.31, -0.31, 0.95, 56.99, 113.03)"/></g><g transform="translate(0.458 26.829)"><g class="af" transform="matrix(0.95, -0.31, 0.31, 0.95, -89.59, -116.72)"><path class="f" d="M2.106.1c-.214.083-.438.132-.652.216a3.47,3.47,0,0,0-.67.335A1.624,1.624,0,0,0,.009,1.819,2.123,2.123,0,0,0,1.4,3.87a1.381,1.381,0,0,0,1.958-.721A3.005,3.005,0,0,0,3.435,1.51a3.75,3.75,0,0,0-.278-.8A1.691,1.691,0,0,0,2.738.067C2.555-.063,2.307.023,2.106.1Z" transform="matrix(0.95, 0.31, -0.31, 0.95, 54.6, 142.41)"/></g><g class="ae" transform="matrix(0.95, -0.31, 0.31, 0.95, -89.59, -116.72)"><path class="f" d="M.707.1C.463.2.177.373.118.6A3.244,3.244,0,0,0,.687,3.5c.443.528,1.119.683,1.533.041a5.605,5.605,0,0,0,.549-1.489A2.372,2.372,0,0,0,2.941.777,1.268,1.268,0,0,0,1.815.041a2.559,2.559,0,0,0-.927,0A1.357,1.357,0,0,0,.707.1Z" transform="matrix(0.95, 0.31, -0.31, 0.95, 50.73, 141.97)"/></g><g class="ad" transform="matrix(0.95, -0.31, 0.31, 0.95, -89.59, -116.72)"><path class="f" d="M2.254,2.11a7.58,7.58,0,0,0-.328-1.02C1.781.819,1.229-.251.825.054.3.453-.2.976.085,1.687s1.085.869,1.775.941A.412.412,0,0,0,2.254,2.11Z" transform="matrix(0.95, 0.31, -0.31, 0.95, 58.55, 141.75)"/></g><path class="f" d="M1.6.078A.49.49,0,0,0,1.231.013C.6.189-.165.854.031,1.608s1.2.512,1.731.288a.41.41,0,0,0,.2-.351A4.61,4.61,0,0,0,1.808.353.417.417,0,0,0,1.6.078Z" transform="translate(0 0.254)"/></g></g><g transform="translate(67.954 8.523) rotate(-13)"><g class="ac" transform="matrix(0.97, 0.22, -0.22, 0.97, -70.18, -45.34)"><path class="d" d="M31.867,42.7c3.218-4.648,6.562-11.574,5.945-18.352s-4.046-6.066-7.019-3.659c2.3-5.633,4.128-12.773,2.087-17.783C30-4.159,23.786,3.434,21.185,7.035,14.8,15.884,10.776,29.472,7.028,42.22,3.357,54.7.355,67.6,0,81.988c-.028,1.139.735,1.329,1.038.607,11.441-.289,22.025-9.447,30.922-22.473,2.114-3.1,5.505-8.12,3.574-13.794C34.585,43.538,33.272,42.6,31.867,42.7Z" transform="translate(78.58 28.39) rotate(-13)"/></g><g class="ab" transform="matrix(0.97, 0.22, -0.22, 0.97, -70.18, -45.34)"><path class="d" d="M11.052,5.369C10.108-5,2.614,2.153.19,6.062-.267,6.8.182,7.912.667,7.849L1.788,25.322c-.073.081-.143.168-.217.248-.648.7-.063,2.572.586,1.872C5.744,23.577,11.869,14.341,11.052,5.369Z" transform="translate(108.92 40.86) rotate(-13)"/></g><g class="aa" transform="matrix(0.97, 0.22, -0.22, 0.97, -70.18, -45.34)"><path class="d" d="M18.149,2.9c-2.877-7.061-9.094.532-11.694,4.133A60.53,60.53,0,0,0,0,19.078l1.133.806a5.185,5.185,0,0,1,.85.69.421.421,0,0,0,.2.114q4.865,3.73,9.731,7.463c.2.149.422-.045.566-.279C15.3,23.307,21.281,10.593,18.149,2.9Z" transform="translate(92.93 25.08) rotate(-13)"/></g></g><g transform="translate(0 17.74)"><g transform="translate(0 0)"><path class="g" d="M70.761,57.025a20.172,20.172,0,0,0-4.978,8.148l0,0c-.175,7.764,13.191.2,14.918-.866a44.187,44.187,0,0,0,7.555-5.927A36.729,36.729,0,0,1,70.761,57.025Z" transform="translate(-58.384 1.094)"/><g class="z" transform="matrix(1, 0, 0, 1, -10.63, -37.61)"><path class="d" d="M321.166,60.659a.822.822,0,0,0-.456-1.09,136.089,136.089,0,0,0-74.594-11.462A132.65,132.65,0,0,0,209.54,58.279c-15.528,6.875-31.963,21.279-49.81,13.508a.8.8,0,0,0-.121-.026c2.37-16.929-2.592-37.521-17.907-46.228a30.628,30.628,0,0,0-31.772.763c-17.84-9.48-35.107,3.267-36.475,22.3-8.176,4.9-16.915,15.585-9.238,24.864a19.7,19.7,0,0,0,7.367,5.306,22.316,22.316,0,0,0-4.7,7.908,1,1,0,0,0-.255.58,4.939,4.939,0,0,0,1.863,4.71.888.888,0,0,0,.165.5c6.44,9.189,17.865,14.523,28.93,14.183a111.833,111.833,0,0,0,14.523,20.5C124.115,140.567,139.417,150.908,157,155.8a82.439,82.439,0,0,0,68.943-11.451c1.164-.812,2.314-1.644,3.437-2.522a.954.954,0,0,0,.482-.141c17.8-10.715,22.852-30.984,31.626-48.441,11.189-22.263,33.27-35.72,58.487-31.076A1.1,1.1,0,0,0,321.166,60.659ZM83.57,86.865c-1.727,1.062-15.093,8.63-14.918.866l0,0a20.172,20.172,0,0,1,4.978-8.148,36.729,36.729,0,0,0,17.494,1.358A44.187,44.187,0,0,1,83.57,86.865Z" transform="translate(-50.63 16.15)"/></g><path class="h" d="M165.288,80.221c-16.7-4.911-34.746-4.461-51.563.023-8,2.134-16.138,5.461-21.352,11.871,12.008,13.417,27.311,23.758,44.894,28.647a82.439,82.439,0,0,0,68.943-11.451C196.625,95.195,181.667,85.037,165.288,80.221Z" transform="translate(-41.519 13.576)"/></g><path class="i" d="M88.255,58.383A44.187,44.187,0,0,1,80.7,64.31c-1.727,1.062-15.093,8.63-14.918.866l0,0a20.172,20.172,0,0,1,4.978-8.148A36.729,36.729,0,0,0,88.255,58.383Z" transform="translate(-58.384 1.095)"/><g class="y" transform="matrix(1, 0, 0, 1, -10.63, -37.61)"><path class="d" d="M127.481,25.534C111.411,16.4,91.92,23.308,83.8,39.48c-.58,1.157,1.123,2.17,1.736,1.069l56.695,36.712c-.028.1-.047.216-.075.319a1.022,1.022,0,0,0,1.969.543C148.889,60.372,144.779,35.367,127.481,25.534Z" transform="translate(-36.41 16.15)"/></g><g class="x" transform="matrix(1, 0, 0, 1, -10.63, -37.61)"><path class="d" d="M110.213,72.335c-.3.224-.619.4-.925.611l-41.046-7.69c-.2-.27-.431-.521-.626-.8-.748-1.069-2.52-.049-1.763,1.03C75.7,79.536,97.2,84.667,111.245,74.1,112.282,73.318,111.266,71.545,110.213,72.335Z" transform="translate(-47.83 43.13)"/></g></g><g transform="translate(114.393 9.57)"><g class="w" transform="matrix(1, 0, 0, 1, -125.02, -29.44)"><path class="d" d="M558.9,99.1c5.651-4.383,11.523-10.913,10.439-17.3s-7.1-5.72-12.325-3.45c4.041-5.311,7.248-12.044,3.664-16.768-5.051-6.658-15.968.5-20.534,3.9-11.217,8.344-18.277,21.156-24.859,33.177-6.445,11.768-11.715,23.928-12.338,37.5a1,1,0,0,0,1.822.572c20.089-.273,38.673-8.908,54.294-21.19,3.711-2.919,9.666-7.656,6.275-13.006A6.888,6.888,0,0,0,558.9,99.1Z" transform="translate(-377.92 -29.4)"/></g><g class="v" transform="matrix(1, 0, 0, 1, -125.02, -29.44)"><path class="d" d="M551.1,74.855c-1.657-9.776-14.816-3.033-19.071.654-.8.695-.015,1.744.837,1.685l1.969,16.476c-.127.077-.252.159-.381.234a1.022,1.022,0,0,0,1.03,1.765C541.78,92.024,552.534,83.315,551.1,74.855Z" transform="translate(-359.69 -22.46)"/></g><g class="u" transform="matrix(1, 0, 0, 1, -125.02, -29.44)"><path class="d" d="M550.636,61.58c-5.051-6.658-15.968.5-20.534,3.9a59.346,59.346,0,0,0-11.333,11.356l1.989.76a10.3,10.3,0,0,1,1.492.65,1.026,1.026,0,0,0,.35.108q8.543,3.518,17.087,7.037a1.016,1.016,0,0,0,.994-.263C545.642,80.821,556.136,68.832,550.636,61.58Z" transform="translate(-367.88 -29.4)"/></g></g><path class="j" d="M.5,4.157c.379-1.49,1.461-3.5,2.771-4A3.31,3.31,0,0,1,6.882,1.428c1.607,2.051,1.49,5.055,1.312,7.648,0,.046-.035.063-.044.1a.6.6,0,0,1-.192.556,5.305,5.305,0,0,1-4.441,1.143C2.589,10.725.846,10.492.3,9.4-.323,8.134.161,5.5.5,4.157Z" transform="translate(44.838 53.157) rotate(-8)"/><g class="t" transform="matrix(1, 0, 0, 1, -10.63, -19.87)"><path class="d" d="M458.633,79.225a1.21,1.21,0,0,0-.142-.036.934.934,0,0,0-.1-.067c-9.468-3.842-20.666-6.705-30.679-3.1-7.445,2.685-13.68,9.6-13.178,17.891.494,8.142,6.756,14.66,14.059,17.548a27.69,27.69,0,0,0,14.046,1.664c7.164-1.031,12.912-6.046,20.344-5.713a.947.947,0,0,0,.234-.036c2.742,1.281,2.966,5.388,7.55,4.353,3.59-.809,5.569-4.628,5.983-7.963C478.076,93.037,467.317,83.347,458.633,79.225Z" transform="translate(-264.97 61.29)"/></g><g transform="translate(81.143 93.639) rotate(9)"><g class="s" transform="matrix(0.99, -0.16, 0.16, 0.99, -108.4, -97.76)"><path class="e" d="M7.024.366A4.453,4.453,0,0,0,2.689.84a5.864,5.864,0,0,0-2.5,3.683C-.74,8.9,2,13.911,2.2,18.3,2.35,21.5.3,27.281,2.893,29.989c3.9,4.067,8.983-2.195,10.13-5.651a24.15,24.15,0,0,0,.65-12.765A22.814,22.814,0,0,0,11.4,5.508C10.454,3.781,9.216,1.686,7.5.622A4.281,4.281,0,0,0,7.024.366Z" transform="translate(91.77 113.51) rotate(9)"/></g><g transform="translate(0.458 26.829)"><g class="r" transform="matrix(0.99, -0.16, 0.16, 0.99, -108.85, -124.58)"><path class="h" d="M2.106.1c-.214.083-.438.132-.652.216a3.47,3.47,0,0,0-.67.335A1.624,1.624,0,0,0,.009,1.819,2.123,2.123,0,0,0,1.4,3.87a1.381,1.381,0,0,0,1.958-.721A3.005,3.005,0,0,0,3.435,1.51a3.75,3.75,0,0,0-.278-.8A1.691,1.691,0,0,0,2.738.067C2.555-.063,2.307.023,2.106.1Z" transform="translate(94 142.9) rotate(9)"/></g><g class="q" transform="matrix(0.99, -0.16, 0.16, 0.99, -108.85, -124.58)"><path class="h" d="M.707.1C.463.2.177.373.118.6A3.244,3.244,0,0,0,.687,3.5c.443.528,1.119.683,1.533.041a5.605,5.605,0,0,0,.549-1.489A2.372,2.372,0,0,0,2.941.777,1.268,1.268,0,0,0,1.815.041a2.559,2.559,0,0,0-.927,0A1.357,1.357,0,0,0,.707.1Z" transform="translate(90.11 143.07) rotate(9)"/></g><g class="p" transform="matrix(0.99, -0.16, 0.16, 0.99, -108.85, -124.58)"><path class="h" d="M2.254,2.11a7.58,7.58,0,0,0-.328-1.02C1.781.819,1.229-.251.825.054.3.453-.2.976.085,1.687s1.085.869,1.775.941A.412.412,0,0,0,2.254,2.11Z" transform="translate(97.8 141.63) rotate(9)"/></g><path class="h" d="M1.6.078A.49.49,0,0,0,1.231.013C.6.189-.165.854.031,1.608s1.2.512,1.731.288a.41.41,0,0,0,.2-.351A4.61,4.61,0,0,0,1.808.353.417.417,0,0,0,1.6.078Z" transform="translate(0 0.254)"/></g></g></g><g transform="translate(543.493 91)"><g transform="translate(2.88 3.155)"><path class="k" d="M347.567,547.447c-.024-.367-.055-.734-.093-1.1s-.084-.731-.135-1.1-.109-.724-.172-1.086-.132-.715-.206-1.07-.152-.7-.235-1.05-.169-.684-.261-1.023-.184-.663-.282-.992c-.052-.171-.107-.34-.161-.51-.047-.149-.091-.3-.14-.447-.017-.052-.033-.108-.053-.163a.534.534,0,0,0-.1-.181.483.483,0,0,0-.2-.119c-.282-.118-.565-.23-.846-.351q-.364-.157-.723-.327-.711-.336-1.4-.718t-1.344-.8q-.658-.418-1.292-.875t-1.245-.945q-.614-.491-1.2-1.01t-1.165-1.07q-.192-.183-.383-.371c-1.79-1.754-3.313-3.8-5.322-5.321-5.04-3.8-11.413-6.121-17.179-8.564a.489.489,0,0,0-.55.116c-.258.085-.519.152-.778.229-4.259,1.263-8.716,1.454-13.068,2.317-3.694.513-7.4.035-11.1.357-3.159.275-6.377.562-9.522.954a31.675,31.675,0,0,0-13.341,4.283.472.472,0,0,0-.147.144,15.837,15.837,0,0,1,8.59-1.269.394.394,0,0,1,.062.019.4.4,0,0,1,.061,0c8.263,1.3,15.141,8.825,21.306,13.954,7.626,6.345,15.367,12.556,24.229,17.105l.636.3s3.657,2.5,11.739,4.721c2.941.614,6.058.887,8.621-.046.377-.137.749-.292,1.111-.465a11.092,11.092,0,0,0,1.007-.545,10.611,10.611,0,0,0,.906-.618,9.892,9.892,0,0,0,.808-.687,9.758,9.758,0,0,0,.715-.75,10.154,10.154,0,0,0,.626-.808q.291-.417.541-.86t.459-.909q.211-.467.382-.951t.309-.989c.092-.337.172-.677.24-1.02s.127-.7.174-1.046.085-.711.113-1.068.046-.722.055-1.084.01-.729,0-1.094S347.591,547.813,347.567,547.447Z" transform="translate(-259.434 -515.271)"/><path class="c" d="M352.847,562.168a24.505,24.505,0,0,1-5.012-.583A47.83,47.83,0,0,1,336.175,557a.42.42,0,0,1-.05-.686l1.235-1a.416.416,0,0,1,.468-.04,48.361,48.361,0,0,0,10.551,4.063,22.309,22.309,0,0,0,4.46.519,10.137,10.137,0,0,0,3.458-.536c.349-.127.688-.269,1.009-.423s.615-.313.906-.489a9.5,9.5,0,0,0,.8-.549,9,9,0,0,0,.715-.607,8.7,8.7,0,0,0,.63-.661,8.959,8.959,0,0,0,.556-.718q.259-.371.481-.766c.152-.268.288-.54.414-.818s.243-.57.347-.863.2-.6.282-.9.158-.625.221-.94.118-.648.161-.974.081-.667.106-1,.044-.683.053-1.024.009-.693,0-1.04-.023-.7-.044-1.051-.053-.7-.089-1.055-.081-.7-.131-1.051-.105-.7-.166-1.048-.128-.69-.2-1.034-.148-.68-.229-1.018-.164-.658-.252-.988-.179-.646-.274-.965l-.248-.787s-.43-.177-.6-.249q-.386-.168-.763-.345c-.494-.234-.986-.487-1.464-.751-.461-.255-.934-.536-1.4-.835s-.906-.595-1.347-.91-.871-.645-1.293-.983-.838-.687-1.245-1.045-.807-.727-1.2-1.1l-.391-.38c-.659-.646-1.28-1.327-1.88-1.985a25.011,25.011,0,0,0-3.331-3.239c-4.14-3.122-9.255-5.238-14.2-7.284l-.2-.084q-1.2-.5-2.374-.989l-.947-.5a.421.421,0,0,1-.2-.219.741.741,0,0,1,.053-.611,1.268,1.268,0,0,1,.934-.554,3.314,3.314,0,0,0,.369-.1l.439-.13.485-.138a5.575,5.575,0,0,0,.713-.273c.134-.058.269-.116.4-.17q.566-.221,1.139-.419a20,20,0,0,1,2.578-.711,15.075,15.075,0,0,1,2.695-.3h0a.781.781,0,0,1,.2.025l.04,0c5.683,1.056,11.1,4.113,16.584,9.349.36.343.727.69,1.1,1.041,3.905,3.684,8.332,7.86,9.056,13.39a.813.813,0,0,1-.122.56.914.914,0,0,1-.88.691.95.95,0,0,1-.142-.011l-.168-.027q.061.214.118.427c.1.349.184.7.269,1.054s.168.724.243,1.086.148.735.213,1.1.125.75.178,1.126.1.755.14,1.135.073.764.1,1.145.04.768.049,1.151.009.767,0,1.149-.029.764-.058,1.145-.07.754-.12,1.131-.112.748-.186,1.12-.158.734-.258,1.1-.209.719-.334,1.07-.265.7-.418,1.041-.324.677-.507,1-.386.649-.6.955a11.345,11.345,0,0,1-.7.9,10.892,10.892,0,0,1-.8.836,11.015,11.015,0,0,1-.9.767,11.744,11.744,0,0,1-1,.686c-.363.22-.736.421-1.112.6s-.794.355-1.216.509A12.243,12.243,0,0,1,352.847,562.168Z" transform="translate(-275.961 -514.234)"/><g transform="translate(82.727 16.741)"><path class="l" d="M376.1,540.818c-1.137-2.252-2.832-4.855-5.565-3.657a2.189,2.189,0,0,0-.206.1c-.058.029-.114.049-.172.081-.01.005-.014.013-.024.019a1.875,1.875,0,0,0-.344.277c-.872.9-.364,2.209.084,3.17s1.057,1.811,1.46,2.784a20.9,20.9,0,0,0,1.027,2.781,2.123,2.123,0,0,0,2.528,1.2C377.843,546.687,377.123,542.849,376.1,540.818Z" transform="translate(-369.311 -536.859)"/><path class="c" d="M377.107,545.407a1.8,1.8,0,0,0-1.063-1.184,1.935,1.935,0,0,0-2.394,1.694c.017,1.128.795,2.448,2.068,2.336S377.419,546.449,377.107,545.407Z" transform="translate(-370.439 -538.752)"/></g><g class="o" transform="matrix(1, 0, 0, 1, -9, -31.15)"><path class="c" d="M317.933,560.17a.43.43,0,0,1-.2-.049l-1.427-.751c-.4-.211-.8-.433-1.2-.656l-.522-.292-.477-.26c-.284-.154-.568-.308-.847-.469-.59-.34-1.17-.7-1.749-1.051l-.678-.411c-.252-.151-.5-.3-.75-.457-.618-.391-1.225-.8-1.831-1.2l-.623-.411c-.215-.141-.431-.282-.644-.428-.59-.4-1.174-.821-1.757-1.237l-.661-.469c-.2-.144-.41-.288-.613-.436-.571-.417-1.136-.844-1.7-1.271l-.671-.5c-.2-.151-.4-.3-.6-.453-.574-.441-1.143-.89-1.713-1.339l-1.218-.957c-.709-.566-1.414-1.141-2.119-1.716l-.781-.633q-1.446-1.187-2.888-2.388c-1.181-.982-2.36-2.027-3.609-3.134-.673-.6-1.315-1.166-1.968-1.737-4.337-3.785-9.438-7.9-15.1-8.819l-.161-.015-.073-.015c-.343-.032-.681-.054-1.02-.068l-.5-.013c-.112,0-.223-.007-.332-.007l-.551.013q-.334.011-.661.033l-.325.024c-.263.023-.519.052-.772.087l-.092.012c-.371.053-.663.108-.95.169l-.259.063c-.2.048-.4.1-.59.155-.1.027-.193.057-.288.087-.183.058-.363.121-.54.189l-.243.092c-.248.1-.489.208-.717.325a6.521,6.521,0,0,0-3.686,6.28.42.42,0,0,1-.35.415l-1.489.25a.438.438,0,0,1-.07.006.42.42,0,0,1-.419-.41,8.813,8.813,0,0,1,4.817-8.531l.139-.075a15.627,15.627,0,0,1,7.062-1.5c.711,0,1.441.036,2.172.109l.141.019c7.066,1.112,13.045,6.414,18.322,11.092,1.243,1.1,2.418,2.144,3.593,3.122,2.721,2.263,5.654,4.677,8.674,6.994.119.092.662.5.662.5.757.573,1.513,1.148,2.278,1.706.3.222.613.437.92.653l.969.685c.365.261.73.522,1.1.774s.716.478,1.077.712l1.019.67c.318.212.636.424.958.628.53.335,1.072.656,1.612.977l.4.237.448.272c.22.135.442.271.669.4.72.414,1.455.8,2.191,1.194,0,0,.4.214.525.285.166.092.333.186.5.272l.718.347c.078.047.362.232.9.53a.419.419,0,0,1,.061.692l-1.235,1A.418.418,0,0,1,317.933,560.17Z" transform="translate(-248.5 -486.19)"/></g></g></g><g class="n" transform="matrix(1, 0, 0, 1, 537.37, 63)"><path class="m" d="M-790.682-110.5c-12.4,0-24.955-4.189-24.955-12.2s12.554-12.2,24.955-12.2,24.955,4.189,24.955,12.2S-778.28-110.5-790.682-110.5Zm0-17.777c-12.622,0-18.338,4.28-18.338,5.58s5.716,5.58,18.338,5.58,18.338-4.28,18.338-5.58S-778.06-128.277-790.682-128.277Z" transform="translate(850.78 140.89)"/></g></g></svg>