<svg xmlns="http://www.w3.org/2000/svg" xmlns:xlink="http://www.w3.org/1999/xlink" width="278" height="241.347" viewBox="0 0 278 241.347"><defs><style>.a{fill:#cabbab;}.b{fill:#bad8b4;}.c{fill:#fafcfb;}.d{fill:#f9fbfa;}.e{fill:#e7e7e7;}.f,.l{fill:none;}.g{fill:#ebebeb;}.h{fill:#ff8686;}.i{fill:#3b3b3b;}.j{fill:#ff0;}.k{fill:#bda991;}.l{stroke:#bda991;stroke-miterlimit:10;}.m{fill:#999;}.n{fill:#fcfaac;}.o{filter:url(#am);}.p{filter:url(#ak);}.q{filter:url(#ai);}.r{filter:url(#ag);}.s{filter:url(#ae);}.t{filter:url(#ac);}.u{filter:url(#aa);}.v{filter:url(#y);}.w{filter:url(#w);}.x{filter:url(#u);}.y{filter:url(#s);}.z{filter:url(#q);}.aa{filter:url(#o);}.ab{filter:url(#m);}.ac{filter:url(#k);}.ad{filter:url(#i);}.ae{filter:url(#g);}.af{filter:url(#e);}.ag{filter:url(#c);}.ah{filter:url(#a);}</style><filter id="a" x="81.368" y="117.942" width="90.841" height="79.022" filterUnits="userSpaceOnUse"><feOffset dy="3" input="SourceAlpha"/><feGaussianBlur stdDeviation="3" result="b"/><feFlood flood-opacity="0.161"/><feComposite operator="in" in2="b"/><feComposite in="SourceGraphic"/></filter><filter id="c" x="36.69" y="107.674" width="41.22" height="52.183" filterUnits="userSpaceOnUse"><feOffset dy="6" input="SourceAlpha"/><feGaussianBlur stdDeviation="3" result="d"/><feFlood flood-opacity="0.161"/><feComposite operator="in" in2="d"/><feComposite in="SourceGraphic"/></filter><filter id="e" x="42.729" y="134.054" width="22.583" height="22.906" filterUnits="userSpaceOnUse"><feOffset dy="3" input="SourceAlpha"/><feGaussianBlur stdDeviation="3" result="f"/><feFlood flood-opacity="0.161"/><feComposite operator="in" in2="f"/><feComposite in="SourceGraphic"/></filter><filter id="g" x="38.88" y="133.613" width="22.064" height="22.693" filterUnits="userSpaceOnUse"><feOffset dy="3" input="SourceAlpha"/><feGaussianBlur stdDeviation="3" result="h"/><feFlood flood-opacity="0.161"/><feComposite operator="in" in2="h"/><feComposite in="SourceGraphic"/></filter><filter id="i" x="47.109" y="133.389" width="20.973" height="21.203" filterUnits="userSpaceOnUse"><feOffset dy="3" input="SourceAlpha"/><feGaussianBlur stdDeviation="3" result="j"/><feFlood flood-opacity="0.161"/><feComposite operator="in" in2="j"/><feComposite in="SourceGraphic"/></filter><filter id="k" x="67.954" y="11.51" width="73.591" height="107.416" filterUnits="userSpaceOnUse"><feOffset dy="3" input="SourceAlpha"/><feGaussianBlur stdDeviation="3" result="l"/><feFlood flood-opacity="0.161"/><feComposite operator="in" in2="l"/><feComposite in="SourceGraphic"/></filter><filter id="m" x="99.797" y="25.498" width="44.048" height="56.391" filterUnits="userSpaceOnUse"><feOffset dx="6" dy="3" input="SourceAlpha"/><feGaussianBlur stdDeviation="4.5" result="n"/><feFlood flood-opacity="0.161"/><feComposite operator="in" in2="n"/><feComposite in="SourceGraphic"/></filter><filter id="o" x="88.307" y="6.437" width="42.89" height="49.762" filterUnits="userSpaceOnUse"><feOffset dx="6" dy="-3" input="SourceAlpha"/><feGaussianBlur stdDeviation="3" result="p"/><feFlood flood-opacity="0.161"/><feComposite operator="in" in2="p"/><feComposite in="SourceGraphic"/></filter><filter id="q" x="0" y="29.25" width="278" height="155.372" filterUnits="userSpaceOnUse"><feOffset dy="3" input="SourceAlpha"/><feGaussianBlur stdDeviation="3" result="r"/><feFlood flood-opacity="0.161"/><feComposite operator="in" in2="r"/><feComposite in="SourceGraphic"/></filter><filter id="s" x="39.644" y="20.25" width="80.288" height="75.387" filterUnits="userSpaceOnUse"><feOffset dx="3" dy="-6" input="SourceAlpha"/><feGaussianBlur stdDeviation="3" result="t"/><feFlood flood-opacity="0.161"/><feComposite operator="in" in2="t"/><feComposite in="SourceGraphic"/></filter><filter id="u" x="8.215" y="101.778" width="64.009" height="33.72" filterUnits="userSpaceOnUse"><feOffset dx="1" dy="6" input="SourceAlpha"/><feGaussianBlur stdDeviation="3" result="v"/><feFlood flood-opacity="0.161"/><feComposite operator="in" in2="v"/><feComposite in="SourceGraphic"/></filter><filter id="w" x="114.392" y="21.079" width="84.524" height="96.283" filterUnits="userSpaceOnUse"><feOffset dy="3" input="SourceAlpha"/><feGaussianBlur stdDeviation="3" result="x"/><feFlood flood-opacity="0.161"/><feComposite operator="in" in2="x"/><feComposite in="SourceGraphic"/></filter><filter id="y" x="162.881" y="34.471" width="46.535" height="53.021" filterUnits="userSpaceOnUse"><feOffset dx="6" dy="3" input="SourceAlpha"/><feGaussianBlur stdDeviation="4.5" result="z"/><feFlood flood-opacity="0.161"/><feComposite operator="in" in2="z"/><feComposite in="SourceGraphic"/></filter><filter id="aa" x="146.258" y="15.079" width="51.42" height="44.594" filterUnits="userSpaceOnUse"><feOffset dx="6" dy="-3" input="SourceAlpha"/><feGaussianBlur stdDeviation="3" result="ab"/><feFlood flood-opacity="0.161"/><feComposite operator="in" in2="ab"/><feComposite in="SourceGraphic"/></filter><filter id="ac" x="138.905" y="127.301" width="80.356" height="57.035" filterUnits="userSpaceOnUse"><feOffset dy="3" input="SourceAlpha"/><feGaussianBlur stdDeviation="3" result="ad"/><feFlood flood-opacity="0.161"/><feComposite operator="in" in2="ad"/><feComposite in="SourceGraphic"/></filter><filter id="ae" x="76.244" y="108.149" width="36.963" height="51.158" filterUnits="userSpaceOnUse"><feOffset dy="6" input="SourceAlpha"/><feGaussianBlur stdDeviation="3" result="af"/><feFlood flood-opacity="0.161"/><feComposite operator="in" in2="af"/><feComposite in="SourceGraphic"/></filter><filter id="ag" x="82.743" y="134.542" width="22.098" height="22.517" filterUnits="userSpaceOnUse"><feOffset dy="3" input="SourceAlpha"/><feGaussianBlur stdDeviation="3" result="ah"/><feFlood flood-opacity="0.161"/><feComposite operator="in" in2="ah"/><feComposite in="SourceGraphic"/></filter><filter id="ai" x="78.865" y="134.71" width="21.568" height="22.383" filterUnits="userSpaceOnUse"><feOffset dy="3" input="SourceAlpha"/><feGaussianBlur stdDeviation="3" result="aj"/><feFlood flood-opacity="0.161"/><feComposite operator="in" in2="aj"/><feComposite in="SourceGraphic"/></filter><filter id="ak" x="86.759" y="133.267" width="20.655" height="20.953" filterUnits="userSpaceOnUse"><feOffset dy="3" input="SourceAlpha"/><feGaussianBlur stdDeviation="3" result="al"/><feFlood flood-opacity="0.161"/><feComposite operator="in" in2="al"/><feComposite in="SourceGraphic"/></filter><filter id="am" x="24.512" y="9.64" width="67.91" height="42.394" filterUnits="userSpaceOnUse"><feOffset dy="3" input="SourceAlpha"/><feGaussianBlur stdDeviation="3" result="an"/><feFlood flood-opacity="0.161"/><feComposite operator="in" in2="an"/><feComposite in="SourceGraphic"/></filter></defs><g transform="translate(-539 -65.36)"><path class="a" d="M9.18.54c-3.9,11.79-7.836,23.721-8.9,36.168A65.526,65.526,0,0,0,.991,54.233c.9,4.854,2.561,7.959,6.894,10.483a.782.782,0,0,0,.789-1.349c-5.687-3.313-6.4-8.946-6.9-15.072a72.413,72.413,0,0,1,.57-16C3.854,21.556,7.289,11.215,10.686.956,11,0,9.495-.411,9.18.54Z" transform="matrix(0.978, 0.208, -0.208, 0.978, 562.418, 112.901)"/><ellipse class="b" cx="74.508" cy="23.105" rx="74.508" ry="23.105" transform="translate(602.992 260.497)"/><g transform="translate(548 82.87)"><g class="ah" transform="matrix(1, 0, 0, 1, -9, -17.51)"><path class="c" d="M44.13,4.855a1.21,1.21,0,0,0-.142-.036.934.934,0,0,0-.1-.067C34.417.91,23.219-1.953,13.206,1.657,5.761,4.342-.473,11.26.028,19.548.522,27.69,6.784,34.209,14.087,37.1A27.69,27.69,0,0,0,28.133,38.76c7.164-1.031,12.912-6.046,20.344-5.713a.947.947,0,0,0,.234-.036c2.742,1.281,2.966,5.388,7.55,4.353,3.59-.809,5.569-4.628,5.983-7.963C63.574,18.667,52.814,8.977,44.13,4.855Z" transform="matrix(0.91, 0.41, -0.41, 0.91, 106.25, 123.94)"/></g><g transform="matrix(0.951, 0.309, -0.309, 0.951, 46.368, 93.165)"><g class="ag" transform="matrix(0.95, -0.31, 0.31, 0.95, -86.86, -88.15)"><path class="d" d="M7.024.366A4.453,4.453,0,0,0,2.689.84a5.864,5.864,0,0,0-2.5,3.683C-.74,8.9,2,13.911,2.2,18.3,2.35,21.5.3,27.281,2.893,29.989c3.9,4.067,8.983-2.195,10.13-5.651a24.15,24.15,0,0,0,.65-12.765A22.814,22.814,0,0,0,11.4,5.508C10.454,3.781,9.216,1.686,7.5.622A4.281,4.281,0,0,0,7.024.366Z" transform="matrix(0.95, 0.31, -0.31, 0.95, 55.37, 110.67)"/></g><g transform="translate(0.458 26.829)"><g class="af" transform="matrix(0.95, -0.31, 0.31, 0.95, -87.32, -114.98)"><path class="e" d="M2.106.1c-.214.083-.438.132-.652.216a3.47,3.47,0,0,0-.67.335A1.624,1.624,0,0,0,.009,1.819,2.123,2.123,0,0,0,1.4,3.87a1.381,1.381,0,0,0,1.958-.721A3.005,3.005,0,0,0,3.435,1.51a3.75,3.75,0,0,0-.278-.8A1.691,1.691,0,0,0,2.738.067C2.555-.063,2.307.023,2.106.1Z" transform="matrix(0.95, 0.31, -0.31, 0.95, 52.97, 140.05)"/></g><g class="ae" transform="matrix(0.95, -0.31, 0.31, 0.95, -87.32, -114.98)"><path class="e" d="M.707.1C.463.2.177.373.118.6A3.244,3.244,0,0,0,.687,3.5c.443.528,1.119.683,1.533.041a5.605,5.605,0,0,0,.549-1.489A2.372,2.372,0,0,0,2.941.777,1.268,1.268,0,0,0,1.815.041a2.559,2.559,0,0,0-.927,0A1.357,1.357,0,0,0,.707.1Z" transform="matrix(0.95, 0.31, -0.31, 0.95, 49.11, 139.61)"/></g><g class="ad" transform="matrix(0.95, -0.31, 0.31, 0.95, -87.32, -114.98)"><path class="e" d="M2.254,2.11a7.58,7.58,0,0,0-.328-1.02C1.781.819,1.229-.251.825.054.3.453-.2.976.085,1.687s1.085.869,1.775.941A.412.412,0,0,0,2.254,2.11Z" transform="matrix(0.95, 0.31, -0.31, 0.95, 56.92, 139.39)"/></g><path class="e" d="M1.6.078A.49.49,0,0,0,1.231.013C.6.189-.165.854.031,1.608s1.2.512,1.731.288a.41.41,0,0,0,.2-.351A4.61,4.61,0,0,0,1.808.353.417.417,0,0,0,1.6.078Z" transform="translate(0 0.254)"/></g></g><g transform="translate(67.954 8.523) rotate(-13)"><g class="ac" transform="matrix(0.97, 0.22, -0.22, 0.97, -69.13, -42.68)"><path class="c" d="M31.867,42.7c3.218-4.648,6.562-11.574,5.945-18.352s-4.046-6.066-7.019-3.659c2.3-5.633,4.128-12.773,2.087-17.783C30-4.159,23.786,3.434,21.185,7.035,14.8,15.884,10.776,29.472,7.028,42.22,3.357,54.7.355,67.6,0,81.988c-.028,1.139.735,1.329,1.038.607,11.441-.289,22.025-9.447,30.922-22.473,2.114-3.1,5.505-8.12,3.574-13.794C34.585,43.538,33.272,42.6,31.867,42.7Z" transform="translate(76.95 26.03) rotate(-13)"/></g><g class="ab" transform="matrix(0.97, 0.22, -0.22, 0.97, -69.13, -42.68)"><path class="c" d="M11.052,5.369C10.108-5,2.614,2.153.19,6.062-.267,6.8.182,7.912.667,7.849L1.788,25.322c-.073.081-.143.168-.217.248-.648.7-.063,2.572.586,1.872C5.744,23.577,11.869,14.341,11.052,5.369Z" transform="translate(107.3 38.5) rotate(-13)"/></g><g class="aa" transform="matrix(0.97, 0.22, -0.22, 0.97, -69.13, -42.68)"><path class="c" d="M18.149,2.9c-2.877-7.061-9.094.532-11.694,4.133A60.53,60.53,0,0,0,0,19.078l1.133.806a5.185,5.185,0,0,1,.85.69.421.421,0,0,0,.2.114q4.865,3.73,9.731,7.463c.2.149.422-.045.566-.279C15.3,23.307,21.281,10.593,18.149,2.9Z" transform="translate(91.31 22.72) rotate(-13)"/></g></g><g transform="translate(0 17.74)"><g transform="translate(0 0)"><path class="f" d="M70.761,57.025a20.172,20.172,0,0,0-4.978,8.148l0,0c-.175,7.764,13.191.2,14.918-.866a44.187,44.187,0,0,0,7.555-5.927A36.729,36.729,0,0,1,70.761,57.025Z" transform="translate(-58.384 1.094)"/><g class="z" transform="matrix(1, 0, 0, 1, -9, -35.25)"><path class="c" d="M321.166,60.659a.822.822,0,0,0-.456-1.09,136.089,136.089,0,0,0-74.594-11.462A132.65,132.65,0,0,0,209.54,58.279c-15.528,6.875-31.963,21.279-49.81,13.508a.8.8,0,0,0-.121-.026c2.37-16.929-2.592-37.521-17.907-46.228a30.628,30.628,0,0,0-31.772.763c-17.84-9.48-35.107,3.267-36.475,22.3-8.176,4.9-16.915,15.585-9.238,24.864a19.7,19.7,0,0,0,7.367,5.306,22.316,22.316,0,0,0-4.7,7.908,1,1,0,0,0-.255.58,4.939,4.939,0,0,0,1.863,4.71.888.888,0,0,0,.165.5c6.44,9.189,17.865,14.523,28.93,14.183a111.833,111.833,0,0,0,14.523,20.5C124.115,140.567,139.417,150.908,157,155.8a82.439,82.439,0,0,0,68.943-11.451c1.164-.812,2.314-1.644,3.437-2.522a.954.954,0,0,0,.482-.141c17.8-10.715,22.852-30.984,31.626-48.441,11.189-22.263,33.27-35.72,58.487-31.076A1.1,1.1,0,0,0,321.166,60.659ZM83.57,86.865c-1.727,1.062-15.093,8.63-14.918.866l0,0a20.172,20.172,0,0,1,4.978-8.148,36.729,36.729,0,0,0,17.494,1.358A44.187,44.187,0,0,1,83.57,86.865Z" transform="translate(-52.25 13.79)"/></g><path class="g" d="M165.288,80.221c-16.7-4.911-34.746-4.461-51.563.023-8,2.134-16.138,5.461-21.352,11.871,12.008,13.417,27.311,23.758,44.894,28.647a82.439,82.439,0,0,0,68.943-11.451C196.625,95.195,181.667,85.037,165.288,80.221Z" transform="translate(-41.519 13.576)"/></g><path class="h" d="M88.255,58.383A44.187,44.187,0,0,1,80.7,64.31c-1.727,1.062-15.093,8.63-14.918.866l0,0a20.172,20.172,0,0,1,4.978-8.148A36.729,36.729,0,0,0,88.255,58.383Z" transform="translate(-58.384 1.095)"/><g class="y" transform="matrix(1, 0, 0, 1, -9, -35.25)"><path class="c" d="M127.481,25.534C111.411,16.4,91.92,23.308,83.8,39.48c-.58,1.157,1.123,2.17,1.736,1.069l56.695,36.712c-.028.1-.047.216-.075.319a1.022,1.022,0,0,0,1.969.543C148.889,60.372,144.779,35.367,127.481,25.534Z" transform="translate(-38.03 13.79)"/></g><g class="x" transform="matrix(1, 0, 0, 1, -9, -35.25)"><path class="c" d="M110.213,72.335c-.3.224-.619.4-.925.611l-41.046-7.69c-.2-.27-.431-.521-.626-.8-.748-1.069-2.52-.049-1.763,1.03C75.7,79.536,97.2,84.667,111.245,74.1,112.282,73.318,111.266,71.545,110.213,72.335Z" transform="translate(-49.45 40.77)"/></g></g><g transform="translate(114.393 9.57)"><g class="w" transform="matrix(1, 0, 0, 1, -123.39, -27.08)"><path class="c" d="M558.9,99.1c5.651-4.383,11.523-10.913,10.439-17.3s-7.1-5.72-12.325-3.45c4.041-5.311,7.248-12.044,3.664-16.768-5.051-6.658-15.968.5-20.534,3.9-11.217,8.344-18.277,21.156-24.859,33.177-6.445,11.768-11.715,23.928-12.338,37.5a1,1,0,0,0,1.822.572c20.089-.273,38.673-8.908,54.294-21.19,3.711-2.919,9.666-7.656,6.275-13.006A6.888,6.888,0,0,0,558.9,99.1Z" transform="translate(-379.55 -31.76)"/></g><g class="v" transform="matrix(1, 0, 0, 1, -123.39, -27.08)"><path class="c" d="M551.1,74.855c-1.657-9.776-14.816-3.033-19.071.654-.8.695-.015,1.744.837,1.685l1.969,16.476c-.127.077-.252.159-.381.234a1.022,1.022,0,0,0,1.03,1.765C541.78,92.024,552.534,83.315,551.1,74.855Z" transform="translate(-361.31 -24.82)"/></g><g class="u" transform="matrix(1, 0, 0, 1, -123.39, -27.08)"><path class="c" d="M550.636,61.58c-5.051-6.658-15.968.5-20.534,3.9a59.346,59.346,0,0,0-11.333,11.356l1.989.76a10.3,10.3,0,0,1,1.492.65,1.026,1.026,0,0,0,.35.108q8.543,3.518,17.087,7.037a1.016,1.016,0,0,0,.994-.263C545.642,80.821,556.136,68.832,550.636,61.58Z" transform="translate(-369.51 -31.76)"/></g></g><path class="i" d="M.5,4.157c.379-1.49,1.461-3.5,2.771-4A3.31,3.31,0,0,1,6.882,1.428c1.607,2.051,1.49,5.055,1.312,7.648,0,.046-.035.063-.044.1a.6.6,0,0,1-.192.556,5.305,5.305,0,0,1-4.441,1.143C2.589,10.725.846,10.492.3,9.4-.323,8.134.161,5.5.5,4.157Z" transform="translate(44.838 53.157) rotate(-8)"/><g class="t" transform="matrix(1, 0, 0, 1, -9, -17.51)"><path class="c" d="M458.633,79.225a1.21,1.21,0,0,0-.142-.036.934.934,0,0,0-.1-.067c-9.468-3.842-20.666-6.705-30.679-3.1-7.445,2.685-13.68,9.6-13.178,17.891.494,8.142,6.756,14.66,14.059,17.548a27.69,27.69,0,0,0,14.046,1.664c7.164-1.031,12.912-6.046,20.344-5.713a.947.947,0,0,0,.234-.036c2.742,1.281,2.966,5.388,7.55,4.353,3.59-.809,5.569-4.628,5.983-7.963C478.076,93.037,467.317,83.347,458.633,79.225Z" transform="translate(-266.6 58.93)"/></g><g transform="translate(81.143 93.639) rotate(9)"><g class="s" transform="matrix(0.99, -0.16, 0.16, 0.99, -106.42, -95.68)"><path class="d" d="M7.024.366A4.453,4.453,0,0,0,2.689.84a5.864,5.864,0,0,0-2.5,3.683C-.74,8.9,2,13.911,2.2,18.3,2.35,21.5.3,27.281,2.893,29.989c3.9,4.067,8.983-2.195,10.13-5.651a24.15,24.15,0,0,0,.65-12.765A22.814,22.814,0,0,0,11.4,5.508C10.454,3.781,9.216,1.686,7.5.622A4.281,4.281,0,0,0,7.024.366Z" transform="translate(90.14 111.15) rotate(9)"/></g><g transform="translate(0.458 26.829)"><g class="r" transform="matrix(0.99, -0.16, 0.16, 0.99, -106.88, -122.51)"><path class="g" d="M2.106.1c-.214.083-.438.132-.652.216a3.47,3.47,0,0,0-.67.335A1.624,1.624,0,0,0,.009,1.819,2.123,2.123,0,0,0,1.4,3.87a1.381,1.381,0,0,0,1.958-.721A3.005,3.005,0,0,0,3.435,1.51a3.75,3.75,0,0,0-.278-.8A1.691,1.691,0,0,0,2.738.067C2.555-.063,2.307.023,2.106.1Z" transform="translate(92.37 140.54) rotate(9)"/></g><g class="q" transform="matrix(0.99, -0.16, 0.16, 0.99, -106.88, -122.51)"><path class="g" d="M.707.1C.463.2.177.373.118.6A3.244,3.244,0,0,0,.687,3.5c.443.528,1.119.683,1.533.041a5.605,5.605,0,0,0,.549-1.489A2.372,2.372,0,0,0,2.941.777,1.268,1.268,0,0,0,1.815.041a2.559,2.559,0,0,0-.927,0A1.357,1.357,0,0,0,.707.1Z" transform="translate(88.48 140.71) rotate(9)"/></g><g class="p" transform="matrix(0.99, -0.16, 0.16, 0.99, -106.88, -122.51)"><path class="g" d="M2.254,2.11a7.58,7.58,0,0,0-.328-1.02C1.781.819,1.229-.251.825.054.3.453-.2.976.085,1.687s1.085.869,1.775.941A.412.412,0,0,0,2.254,2.11Z" transform="translate(96.17 139.27) rotate(9)"/></g><path class="g" d="M1.6.078A.49.49,0,0,0,1.231.013C.6.189-.165.854.031,1.608s1.2.512,1.731.288a.41.41,0,0,0,.2-.351A4.61,4.61,0,0,0,1.808.353.417.417,0,0,0,1.6.078Z" transform="translate(0 0.254)"/></g></g></g><g class="o" transform="matrix(1, 0, 0, 1, 539, 65.36)"><path class="j" d="M-790.682-110.5c-12.4,0-24.955-4.189-24.955-12.2s12.554-12.2,24.955-12.2,24.955,4.189,24.955,12.2S-778.28-110.5-790.682-110.5Zm0-17.777c-12.622,0-18.338,4.28-18.338,5.58s5.716,5.58,18.338,5.58,18.338-4.28,18.338-5.58S-778.06-128.277-790.682-128.277Z" transform="translate(849.15 150.53)"/></g><g transform="matrix(0.978, 0.208, -0.208, 0.978, 571.509, 61.257)"><path class="a" d="M59.12.748A71.066,71.066,0,0,1,42.326,40.186c-9.2,10.723-26.4,24.7-41.151,16.652C.292,56.355-.5,57.7.387,58.187c14.922,8.143,32.054-4.722,41.789-15.472A72.883,72.883,0,0,0,60.682.748c.094-1-1.469-.994-1.562,0Z" transform="translate(9.344 58.936)"/><path class="a" d="M88.343,5.138A15.707,15.707,0,0,0,80.829.026.468.468,0,0,0,80.2.489c-.008.009-.017.011-.026.02C77.68,3.335,68.66,2.535,64.924,2.673q-6.676.247-13.36.193A267.5,267.5,0,0,1,24.38,1.332c-3.167-.35-6.711-1.174-9.9-.815-2.994.337-5.7,1.976-8.042,3.539C1.969,7.041-1.917,10.081,1.025,15.082,7.565,26.2,24.9,29.612,37.6,31.52c15.071,2.263,31.582,3.13,44.723-4.933,4.724-2.9,11.712-8.653,11.136-14.419C93.208,9.675,90.082,7.068,88.343,5.138Z" transform="translate(0 32.344)"/><g transform="translate(11.392 1.644)"><path class="a" d="M27.559,33.5a48.666,48.666,0,0,0,29.993-6.99c3.175-2,6.124-4.506,7.734-7.6-.264-.406-.529-.811-.8-1.214-2.584-3.778-5.144-7.613-9.164-10.337a47.268,47.268,0,0,0-8.8-4.737,36.049,36.049,0,0,0-9.873-2.5c-4.143-.414-8.369.335-12.4,1.1a40.115,40.115,0,0,0-5.914,1.564A33.2,33.2,0,0,0,9.053,7.57,27.158,27.158,0,0,0,4.75,11.6,22.012,22.012,0,0,0,0,21.293,46.447,46.447,0,0,0,27.559,33.5Z" transform="translate(0.61 0)"/><path class="k" d="M65.9,0c-.552.64-.906,1.469-1.437,2.143a18.621,18.621,0,0,1-1.818,1.981A28.894,28.894,0,0,1,58.163,7.54a48.666,48.666,0,0,1-29.993,6.99A46.447,46.447,0,0,1,.61,2.321a29.351,29.351,0,0,0,.233,12.91c0,.012.011.018.015.03s.007.015.01.022a.4.4,0,0,0,.189.221C9.716,23.436,24.2,26.483,36.337,26.077a65.733,65.733,0,0,0,20.774-4.145,30.5,30.5,0,0,0,7.363-3.811,20.754,20.754,0,0,0,2.978-2.653c.467-.505.9-1.032,1.313-1.575a5.312,5.312,0,0,0,.846-1.213,3.587,3.587,0,0,0-.034-1.587,27.629,27.629,0,0,0-.695-3.844,28.353,28.353,0,0,0-1.214-3.691q-.367-.906-.8-1.79A6.849,6.849,0,0,0,65.9,0Z" transform="translate(0 18.971)"/></g><path class="k" d="M7.346,1.026A6.52,6.52,0,0,0,4.609.046,4.483,4.483,0,0,0,2.842.138a6.2,6.2,0,0,0-1.608.74,2.948,2.948,0,0,0-1,.951,1.719,1.719,0,0,0-.205.537,1.788,1.788,0,0,0-.025.187,1.915,1.915,0,0,0,.028.5C.445,5.27,4.282,5,6.04,4.6,8.318,4.078,9.511,2.457,7.346,1.026Z" transform="translate(39.86 0)"/><path class="l" d="M14.076,0C4.818,6.709-.543,17.369.044,27.9" transform="translate(26.699 3.891)"/><path class="l" d="M0,0A56.145,56.145,0,0,1,19.266,25.962" transform="translate(46.627 4.072)"/><path class="m" d="M5.853,0c3.311.056,6.059,3.46,6.138,7.6S9.451,15.059,6.14,15,.081,11.544,0,7.4,2.542-.055,5.853,0Z" transform="matrix(0.99, -0.14, 0.14, 0.99, 6.225, 22.069)"/><path class="n" d="M4.009,0C6.284.039,8.179,2.677,8.24,5.893s-1.733,5.792-4.008,5.753S.063,8.969,0,5.754,1.734-.038,4.009,0Z" transform="matrix(0.99, -0.14, 0.14, 0.99, 6.456, 23.7)"/></g></g></svg>