<svg xmlns="http://www.w3.org/2000/svg" xmlns:xlink="http://www.w3.org/1999/xlink" width="254.376" height="236.757" viewBox="0 0 254.376 236.757"><defs><style>.a{fill:#bad8b4;}.b{fill:#ffe87e;}.c{fill:#cabbab;}.d{fill:#ffecaa;}.e{fill:#3b3b3b;}.f{fill:#bda991;}.g{fill:none;stroke:#bda991;stroke-miterlimit:10;}.h{fill:#999;}.i{fill:#fcfaac;}.j{filter:url(#m);}.k{filter:url(#k);}.l{filter:url(#i);}.m{filter:url(#g);}.n{filter:url(#e);}.o{filter:url(#c);}.p{filter:url(#a);}</style><filter id="a" x="30.021" y="128.323" width="34.981" height="42.411" filterUnits="userSpaceOnUse"><feOffset dy="3" input="SourceAlpha"/><feGaussianBlur stdDeviation="3" result="b"/><feFlood flood-opacity="0.161"/><feComposite operator="in" in2="b"/><feComposite in="SourceGraphic"/></filter><filter id="c" x="3" y="30.05" width="251.376" height="174.255" filterUnits="userSpaceOnUse"><feOffset dy="3" input="SourceAlpha"/><feGaussianBlur stdDeviation="3" result="d"/><feFlood flood-opacity="0.161"/><feComposite operator="in" in2="d"/><feComposite in="SourceGraphic"/></filter><filter id="e" x="36.371" y="132.391" width="100.118" height="75.681" filterUnits="userSpaceOnUse"><feOffset dy="5" input="SourceAlpha"/><feGaussianBlur stdDeviation="3" result="f"/><feFlood flood-opacity="0.161"/><feComposite operator="in" in2="f"/><feComposite in="SourceGraphic"/></filter><filter id="g" x="47.742" y="21.05" width="90.637" height="84.637" filterUnits="userSpaceOnUse"><feOffset dx="3" dy="-6" input="SourceAlpha"/><feGaussianBlur stdDeviation="3" result="h"/><feFlood flood-opacity="0.161"/><feComposite operator="in" in2="h"/><feComposite in="SourceGraphic"/></filter><filter id="i" x="0" y="58.069" width="63.906" height="71.503" filterUnits="userSpaceOnUse"><feOffset dx="-3" dy="6" input="SourceAlpha"/><feGaussianBlur stdDeviation="3" result="j"/><feFlood flood-opacity="0.161"/><feComposite operator="in" in2="j"/><feComposite in="SourceGraphic"/></filter><filter id="k" x="93.005" y="137.626" width="59.386" height="92.492" filterUnits="userSpaceOnUse"><feOffset dy="3" input="SourceAlpha"/><feGaussianBlur stdDeviation="3" result="l"/><feFlood flood-opacity="0.161"/><feComposite operator="in" in2="l"/><feComposite in="SourceGraphic"/></filter><filter id="m" x="66.6" y="127.231" width="34.981" height="42.411" filterUnits="userSpaceOnUse"><feOffset dy="3" input="SourceAlpha"/><feGaussianBlur stdDeviation="3" result="n"/><feFlood flood-opacity="0.161"/><feComposite operator="in" in2="n"/><feComposite in="SourceGraphic"/></filter></defs><g transform="translate(-20 -445.643)"><ellipse class="a" cx="74.508" cy="23.105" rx="74.508" ry="23.105" transform="translate(49.992 636.19)"/><g class="p" transform="matrix(1, 0, 0, 1, 20, 445.64)"><path class="b" d="M155.661,319.427a6.39,6.39,0,0,0-4.072-.6,5.382,5.382,0,0,0-4.061,3.871,33.5,33.5,0,0,1-2.5,6.282,14.578,14.578,0,0,0-2.161,4.773,5.82,5.82,0,0,0,.554,3.508c-.632.35-1.385.844-1.471,1.469-.07.506.307,1.086.895.895.378-.123.749-.263,1.124-.4a16.723,16.723,0,0,0-.122,1.838.736.736,0,0,0,1.241.514c.222-.2.46-.385.689-.579a16.5,16.5,0,0,0,.648,1.788c.29.611,1.14.364,1.329-.173q.248-.705.494-1.41c3.29.443,6.307-2.891,7.939-5.928,1.8-3.349,3.386-7.439,2.468-11.288a8.207,8.207,0,0,0-1.914-3.719A4.519,4.519,0,0,0,155.661,319.427Z" transform="translate(-102.92 -184.41)"/></g><path class="b" d="M137.974,378.855c-1.16-9.51-5.111-22.486-16.018-24.721-3.92-.8-8.153-.356-11.015,2.69-7.043,7.494-3.31,18.279.177,26.344,1.97,4.555,5.023,8.591,7.161,13.071a21.8,21.8,0,0,1,2.535,8.639,7.565,7.565,0,0,1-1.036,4.276c-.64,1-1.832,1.719-2.022,2.985-.647,4.312,8.385,3.486,10.611,2.794a8.015,8.015,0,0,0,1.235-.482C141.671,408.362,139.308,389.792,137.974,378.855Z" transform="translate(-32.743 244.796)"/><path class="c" d="M1044.426,293.5c-4.231,12.776-8.492,25.706-9.648,39.193a71.007,71.007,0,0,0,.774,18.992c.975,5.26,2.775,8.625,7.471,11.36a.847.847,0,0,0,.855-1.462c-6.163-3.59-6.937-9.694-7.482-16.333a78.467,78.467,0,0,1,.618-17.339c1.642-11.637,5.364-22.843,9.045-33.961.343-1.037-1.291-1.481-1.632-.45Z" transform="translate(-987.479 209.524)"/><g transform="translate(32.001 481.693)"><g class="o" transform="matrix(1, 0, 0, 1, -12, -36.05)"><path class="b" d="M474.762,933.7c-.019.006-.033,0-.05.008-11.065,4.518-23.331,6.344-34.959,2.779-10.182-3.123-19.358-9.142-29.473-12.629-22.522-7.768-42.564-15.157-58.022-34.161,4.2-10.221,6.634-20.882,3.8-31.789-2.722-10.47-8.252-20.621-17.118-27.1-11.462-8.37-26.745-8.1-39.236-2.113-16.578-11.487-36.024,1.433-37.448,19.995-14.144,8.976-25.26,26.544-15.774,42.791a19.954,19.954,0,0,0,10.365,8.68c2.375,8.048,10.041,11.753,17.822,12.977a.985.985,0,0,0,.3-.012,129.2,129.2,0,0,0,1.357,16.85,38.074,38.074,0,0,1,24.9-4.908c12.119,1.71,23.062,8.433,32.022,16.771a96.181,96.181,0,0,1,25.2,38.762c22.118-3.4,43.415-10.778,65.18-15.832,10.445-2.427,22.1-3.056,31.737-8.075,9.143-4.761,15.362-13.247,20.812-21.719C476.768,934.043,475.531,933.175,474.762,933.7Z" transform="translate(-230.95 -788.3)"/></g><g class="n" transform="matrix(1, 0, 0, 1, -12, -36.05)"><path class="d" d="M321.2,905.634c-8.96-8.338-19.9-15.061-32.022-16.771a38.073,38.073,0,0,0-24.9,4.908c1.954,12.9,6.324,25.44,15.239,35.092,15.644,16.941,38.836,18.925,60.573,16.4,2.111-.246,4.21-.544,6.305-.867A96.181,96.181,0,0,0,321.2,905.634Z" transform="translate(-218.91 -752.09)"/></g></g><g class="m" transform="matrix(1, 0, 0, 1, 20, 445.64)"><path class="b" d="M342.488,496.35c-2.724-10.47-8.251-20.621-17.118-27.095-16.736-12.221-41.614-6.034-54.062,9.5-.779.973.6,2.366,1.383,1.383.03-.036.061-.07.091-.106l63.895,47.885c-.047.114-.086.232-.133.346-.487,1.159,1.4,1.666,1.885.521C342.794,518.363,345.384,507.485,342.488,496.35Z" transform="translate(-217.34 -426.74)"/></g><path class="e" d="M9.334,7.894A12.609,12.609,0,0,0,7.848,2.15,4.168,4.168,0,0,0,3.781.011a2.939,2.939,0,0,0-2.6,1.443,3.661,3.661,0,0,0-.361.56A9.71,9.71,0,0,0,.237,8.162C.588,9.854,1.3,11.913,2.7,12.571a5.1,5.1,0,0,0,4.617-.3C8.9,11.218,9.5,10.142,9.334,7.894Z" transform="matrix(0.985, 0.174, -0.174, 0.985, 80.811, 517.823)"/><g class="l" transform="matrix(1, 0, 0, 1, 20, 445.64)"><path class="b" d="M186.535,566.635l-24.346-45.987.035-.021c1.044-.651.083-2.309-.967-1.653-13.991,8.735-25.1,26.076-15.741,42.1,4.1,7.025,11,9.57,18.826,10.606,7.475.99,17.142,1.5,23.3-3.558C188.513,567.4,187.447,566.233,186.535,566.635Z" transform="translate(-130.06 -457.75)"/></g><g class="k" transform="matrix(1, 0, 0, 1, 20, 445.64)"><path class="b" d="M261.237,388.921c-1.007-7.826-3.1-16.621-9.885-21.493a13.252,13.252,0,0,0-6.16-2.488,23.54,23.54,0,0,0-4.981-.17,21.983,21.983,0,0,0-9.218,2.758,20.876,20.876,0,0,0-9.35,11.315c-2.243,6.428-.967,13.207,1.435,19.391,2.231,5.744,6.074,10.753,8.5,16.423a22.2,22.2,0,0,1,1.976,7.293,11.539,11.539,0,0,1-.357,3.757,6.732,6.732,0,0,1-1.577,3.236,10.41,10.41,0,0,1-1.581.653,4.925,4.925,0,0,0-1.4,1.139,4.287,4.287,0,0,0-.97,3.5c.514,2.97,3.9,4.22,6.472,4.673,8.3,1.461,19.2-2.687,22.214-11.023a.956.956,0,0,0,.166-.268A81.052,81.052,0,0,0,261.237,388.921Z" transform="translate(-118.47 -221.08)"/></g><g class="j" transform="matrix(1, 0, 0, 1, 20, 445.64)"><path class="b" d="M155.661,319.427a6.39,6.39,0,0,0-4.072-.6,5.382,5.382,0,0,0-4.061,3.871,33.5,33.5,0,0,1-2.5,6.282,14.578,14.578,0,0,0-2.161,4.773,5.82,5.82,0,0,0,.554,3.508c-.632.35-1.385.844-1.471,1.469-.07.506.307,1.086.895.895.378-.123.749-.263,1.124-.4a16.723,16.723,0,0,0-.122,1.838.736.736,0,0,0,1.241.514c.222-.2.46-.385.689-.579a16.5,16.5,0,0,0,.648,1.788c.29.611,1.14.364,1.329-.173q.248-.705.494-1.41c3.29.443,6.307-2.891,7.939-5.928,1.8-3.349,3.386-7.439,2.468-11.288a8.207,8.207,0,0,0-1.914-3.719A4.519,4.519,0,0,0,155.661,319.427Z" transform="translate(-66.34 -185.5)"/></g><g transform="translate(-66.314 274.289)"><path class="c" d="M1110.541,304.168a77.011,77.011,0,0,1-18.2,42.737c-9.975,11.62-28.611,26.766-44.594,18.045-.957-.522-1.812.939-.855,1.462,16.171,8.824,34.735-5.117,45.285-16.766a78.98,78.98,0,0,0,20.055-45.478c.1-1.084-1.592-1.078-1.693,0Z" transform="translate(-925.036 -68.136)"/><path class="c" d="M207.049,221.271a17.021,17.021,0,0,0-8.143-5.54.507.507,0,0,0-.686.5c-.009.009-.019.012-.028.021-2.7,3.063-12.474,2.2-16.523,2.346q-7.235.268-14.477.209a289.878,289.878,0,0,1-29.458-1.663c-3.432-.379-7.272-1.272-10.725-.883-3.244.365-6.177,2.141-8.715,3.835-4.846,3.235-9.058,6.53-5.869,11.949,7.087,12.044,25.869,15.745,39.631,17.813,16.331,2.452,34.225,3.392,48.464-5.346,5.119-3.141,12.692-9.377,12.068-15.626C212.32,226.188,208.933,223.362,207.049,221.271Z" transform="translate(0 -9.298)"/><g transform="translate(123.66 173.136)"><path class="c" d="M155.637,209.912a52.737,52.737,0,0,0,32.5-7.575c3.44-2.173,6.636-4.883,8.381-8.238-.286-.439-.573-.879-.871-1.316-2.8-4.094-5.574-8.25-9.93-11.2a51.223,51.223,0,0,0-9.541-5.133,39.065,39.065,0,0,0-10.7-2.712c-4.489-.448-9.069.363-13.442,1.2a43.47,43.47,0,0,0-6.409,1.694,35.975,35.975,0,0,0-10.046,5.185,29.431,29.431,0,0,0-4.663,4.372,23.854,23.854,0,0,0-5.148,10.5A50.333,50.333,0,0,0,155.637,209.912Z" transform="translate(-125.11 -173.608)"/><path class="f" d="M196.447,199.621c-.6.693-.982,1.592-1.557,2.323a20.177,20.177,0,0,1-1.97,2.147,31.312,31.312,0,0,1-4.854,3.7,52.737,52.737,0,0,1-32.5,7.575A50.333,50.333,0,0,1,125.7,202.137a31.807,31.807,0,0,0,.253,13.99c0,.013.012.02.016.032s.007.016.011.024a.432.432,0,0,0,.205.239c9.382,8.6,25.079,11.9,38.231,11.458a71.232,71.232,0,0,0,22.512-4.491,33.046,33.046,0,0,0,7.979-4.13,22.488,22.488,0,0,0,3.227-2.875c.506-.548.98-1.118,1.423-1.706a5.757,5.757,0,0,0,.917-1.314,3.887,3.887,0,0,0-.037-1.72,29.94,29.94,0,0,0-.753-4.165,30.725,30.725,0,0,0-1.315-4q-.4-.982-.865-1.939A7.423,7.423,0,0,0,196.447,199.621Z" transform="translate(-125.037 -179.062)"/></g><path class="f" d="M167.288,172.466a7.066,7.066,0,0,0-2.966-1.062,4.859,4.859,0,0,0-1.915.1,6.722,6.722,0,0,0-1.743.8,3.194,3.194,0,0,0-1.081,1.031,1.862,1.862,0,0,0-.222.582,1.937,1.937,0,0,0-.027.2,2.075,2.075,0,0,0,.031.543c.445,2.4,4.6,2.11,6.509,1.674C168.341,175.774,169.634,174.017,167.288,172.466Z" transform="translate(-4.818 0)"/><path class="g" d="M158.728,176.69c-10.032,7.27-15.842,18.823-15.206,30.233" transform="translate(-3.227 -1.119)"/><path class="g" d="M167.478,176.938a60.843,60.843,0,0,1,20.878,28.133" transform="translate(-5.636 -1.171)"/><path class="h" d="M6.5.11c3.588.061,6.566,3.749,6.652,8.239s-2.753,8.08-6.341,8.019S.241,12.618.155,8.129,2.909.049,6.5.11Z" transform="matrix(0.99, -0.14, 0.14, 0.99, 117.893, 195.184)"/><path class="i" d="M4.464.075c2.465.042,4.518,2.9,4.584,6.385S7.17,12.737,4.705,12.695.187,9.795.121,6.31,2,.034,4.464.075Z" transform="matrix(0.99, -0.14, 0.14, 0.99, 118.182, 196.98)"/></g></g></svg>