<svg xmlns="http://www.w3.org/2000/svg" width="107.574" height="61.489" viewBox="0 0 107.574 61.489"><defs><style>.a{fill:#404653;}.b{fill:#2d3340;}</style></defs><g transform="translate(-249.524 -186.958)"><path class="a" d="M356.858,234.194c-.649-2.236-3.61-3.133-5.75-4.155-4.133-1.973-7.1-4.7-10.225-7.559-2.272-2.081-3.715-3.8-4.266-6.585-.526-2.668-.511-5.347-.914-8.026-.433-2.868-.608-5.653-.824-8.511-.2-2.658-1.647-4.707-4.135-6.362a21.48,21.48,0,0,0-7.786-3.493c-3.786-.762-7.237.222-10.94.346a.485.485,0,0,0-.319-.075c-3.478.285-6.6-1.014-9.969-1.491-1.534-.217-3.114-.3-4.645-.529-4.376-.662-9.391-1.437-13.616.087-4.981,1.8-7.827,3.47-9.237,7.782-.7,2.154-1.449,4.3-2.067,6.467-.743,2.606-2.223,4.915-3.184,7.452-1.264,1.154-3.635,2.006-5.176,2.652-1.974.827-4.172,1.416-6.207,2.148-3.8,1.366-7.336,2.423-8.068,6.025a.376.376,0,0,0,.15.375c.147,7.335,6.655,11.776,13.561,15.779A32.067,32.067,0,0,0,275,240.091c5.177.712,9.934,2.634,14.961,3.839,7.513,1.8,14.622,3.492,22.483,4.129a97.824,97.824,0,0,0,17.242.013c4.491-.428,9.142-.787,13.265-2.426a40.469,40.469,0,0,0,11.938-7.488C356.467,236.685,357.617,235.516,356.858,234.194Z"/><path class="b" d="M274.253,220.27c.037.322-.06.648-.018.926.044.3.089.612.117.911a3.732,3.732,0,0,0,.31.834l.109.213.052.107a.752.752,0,0,1,.049.179.616.616,0,0,0,.11.378l.189.4.093.2a.814.814,0,0,0,.117.144,1.3,1.3,0,0,1,.32.509,1.914,1.914,0,0,0,.072.185c.033.065.069.131.109.2.163.261.353.527.553.79.228.3.259.624.521.839-.388-.1-.578-.463-.832-.633a5.762,5.762,0,0,1-.786-.725c-.059-.068-.117-.138-.172-.211a1.746,1.746,0,0,1-.139-.25.726.726,0,0,0-.24-.3,1.22,1.22,0,0,1-.212-.237l-.121-.231-.239-.464a1.242,1.242,0,0,1-.108-.273,2.2,2.2,0,0,1-.024-.254.217.217,0,0,0-.01-.05l-.049-.112-.1-.224a2.914,2.914,0,0,1-.206-.985c.024-.326.067-.638.117-.962A4.472,4.472,0,0,1,274.253,220.27Z" transform="translate(-4.464 -11.039)"/><path class="b" d="M285.489,234.514c2.347.965,4.842,1.769,7.151,2.715.1.029.268.048.485.12a1.493,1.493,0,0,1,.3.144c.069.041.06.03.068.031-.034-.005.031,0,.158,0a.936.936,0,0,1,.253.039,1.2,1.2,0,0,1,.19.076.668.668,0,0,0,.314.114c.67.11,1.308.311,1.939.393l.934.14.247.039c.112.018.215.042.308.067l.468.136c.252.056.606.1.9.144.362.058.7.147,1.006.219.558.136,1.265.212,1.894.321a4.629,4.629,0,0,1,.533.138c.024.011.248.038.424.066s.4.057.5.08c.113.023.251.039.412.056a5.772,5.772,0,0,1,1.1.2,3.281,3.281,0,0,0,.384.09,3.652,3.652,0,0,1,.569.1c.432.12.72.271.927.324l.891.192c.628.127,1.244.247,1.846.314a13.25,13.25,0,0,1,2.065.324c.117.038.415.026.868.072l1.015.173a2.809,2.809,0,0,0,.36.028l.264.01a2.273,2.273,0,0,1,.415.062c.223.047.056.026.227.029a2.342,2.342,0,0,1,.666.049l.5.106a1.6,1.6,0,0,0,.344.037c.246.007.611-.019.97-.013l1.98.008,3.924.009c.307-.008.609-.026.9-.06.256-.033.687-.1.987-.122a6.712,6.712,0,0,0,.886-.136,5.748,5.748,0,0,1,1.137-.065l1.987-.11c.33-.014.688-.041.992-.031a2.633,2.633,0,0,0,.775-.093c.275-.072.59-.187.966-.273s.662-.107,1-.162c.646-.11,1.315-.174,1.886-.332.6-.169,1.32-.326,1.9-.495l.92-.252a2.887,2.887,0,0,0,.78-.325,3.394,3.394,0,0,1,.988-.392.892.892,0,0,0,.326-.14l.21-.125.208-.107c.109-.06.225-.151.369-.246a2.142,2.142,0,0,1,.485-.231,3.47,3.47,0,0,0,.8-.4c.263-.166.562-.322.824-.455a4.076,4.076,0,0,0,.666-.553c.446-.4.939-.776,1.4-1.159-.4.433-.824.841-1.205,1.284a3.941,3.941,0,0,1-.653.651c-.281.175-.523.329-.764.512a3.822,3.822,0,0,1-.833.5,1.433,1.433,0,0,0-.349.2c-.105.082-.216.189-.369.294l-.2.125-.177.128a1.6,1.6,0,0,1-.52.269,2.439,2.439,0,0,0-.745.374,3.529,3.529,0,0,1-.942.46l-.935.314c-.65.226-1.2.376-1.832.59a16.593,16.593,0,0,1-1.954.441c-.309.063-.671.125-.936.189s-.541.184-.888.293a4.2,4.2,0,0,1-1.164.193c-.356,0-.655.043-.982.07l-1.959.159a5.036,5.036,0,0,0-.832.049,8.655,8.655,0,0,1-1.052.188c-.354.043-.573.083-.966.144-.359.051-.716.08-1.067.1-1.4.039-2.659.02-4,.033l-1.979.008c-.3,0-.595.025-1.008.021a3.622,3.622,0,0,1-.638-.061l-.457-.1a.679.679,0,0,0-.312-.033,2.5,2.5,0,0,1-.745-.084.271.271,0,0,0-.07-.014l-.231-.011a4.506,4.506,0,0,1-.622-.06l-.92-.166a7.715,7.715,0,0,1-1.094-.123,11.433,11.433,0,0,0-1.815-.294,18.638,18.638,0,0,1-2.022-.372l-.482-.113c-.169-.043-.287-.063-.533-.135-.413-.134-.686-.283-.88-.335a2.384,2.384,0,0,0-.4-.069,4.926,4.926,0,0,1-.563-.143,3.831,3.831,0,0,0-.824-.174c-.165-.022-.355-.047-.56-.093-.221-.056-.308-.055-.469-.086a5.25,5.25,0,0,1-.542-.106c-.231-.069-.307-.108-.4-.124-.655-.142-1.26-.221-1.961-.417-.325-.091-.61-.177-.894-.234-.345-.073-.647-.111-1.026-.214l-.457-.153c-.062-.019-.117-.034-.167-.045l-.237-.047-1-.205a21.618,21.618,0,0,1-3.72-1.151c-.634-.351-1.147-.567-1.729-.838s-1.18-.491-1.731-.806c-.141-.07-.285-.158-.4-.2s-.3-.09-.466-.165l-.847-.427c-.281-.14-.547-.3-.843-.423A3.416,3.416,0,0,1,285.489,234.514Z" transform="translate(-6.635 -15.76)"/></g></svg>