<svg xmlns="http://www.w3.org/2000/svg" xmlns:xlink="http://www.w3.org/1999/xlink" width="224" height="223" viewBox="0 0 224 223"><defs><style>.a,.h{fill:#fff;}.a{stroke:#95bb80;stroke-width:3px;}.b,.d{fill:#555;}.b{font-size:12px;}.b,.c,.d{font-family:GenJyuuGothic-P-Bold, Gen Jyuu Gothic P;font-weight:700;letter-spacing:0.05em;}.c{fill:#c1c1c1;}.c,.d{font-size:10px;}.e{fill:#b9d7b4;}.f{fill:#789c8a;}.g{fill:#76c1e2;}.i{stroke:none;}.j{fill:none;}.k{filter:url(#a);}</style><filter id="a" x="0" y="0" width="224" height="223" filterUnits="userSpaceOnUse"><feOffset dy="3" input="SourceAlpha"/><feGaussianBlur stdDeviation="3" result="b"/><feFlood flood-opacity="0.161"/><feComposite operator="in" in2="b"/><feComposite in="SourceGraphic"/></filter></defs><g transform="translate(-76 -319)"><g class="k" transform="matrix(1, 0, 0, 1, 76, 319)"><g class="a" transform="translate(12 9)"><rect class="i" width="200" height="199" rx="17"/><rect class="j" x="-1.5" y="-1.5" width="203" height="202" rx="18.5"/></g></g><text class="b" transform="translate(157 404)"><tspan x="0" y="0">荷葉小雨傘</tspan></text><text class="c" transform="translate(99 438)"><tspan x="0" y="11">可以用來遮雨，可以避免屁頭龍禿頭！？</tspan></text><text class="d" transform="translate(172 420)"><tspan x="0" y="0">$1500</tspan></text><g transform="translate(-277.633 273.634)"><path class="e" d="M494.1,87.1a25.245,25.245,0,0,0-14.3-19.635A34.18,34.18,0,0,0,466.7,64.2a47.78,47.78,0,0,0-7.983.3,4,4,0,0,0-1.239.26.762.762,0,0,0-.387.34.65.65,0,0,0,0,.516.76.76,0,0,0,.368.369c.285.156.542.336.811.517l.983.661q.985.659,1.974,1.31.561.369,1.123.737c.684.447,1.516.85,1.475,1.794-.022.5-.431.753-.851.91-.57.214-1.133.447-1.692.688-1.025.442-2.038.912-3.069,1.34l-1.6.665-1.6.664-1.6.665-1.6.665-.607.252c-.153.064-.3.129-.459.187s-.315.1-.472.156a.89.89,0,0,0-.483.33,1.4,1.4,0,0,0-.157.8,4.215,4.215,0,0,0,.171.947c.082.289.182.573.292.853.02.051.041.1.061.154a15.506,15.506,0,0,0,3.526,5.258c3.145,3.079,7.574,4.49,11.866,5.381a40.929,40.929,0,0,0-2.832,9.45,57.915,57.915,0,0,0-.823,14.554,28.324,28.324,0,0,0,.387,2.917c.021.108.037.209.053.3a1.717,1.717,0,0,0,1.19,1.638,2.185,2.185,0,0,0,.767.15,1.375,1.375,0,0,0,1.084-.48,1.646,1.646,0,0,0,.2-1.635c-.02-.076-.04-.152-.058-.229a46.134,46.134,0,0,1-1.025-13.608,37.422,37.422,0,0,1,2.915-12.7,48.058,48.058,0,0,0,15.734.231c3.5-.536,7.765-1.293,10.67-3.6.118-.094.232-.193.346-.292Q494.132,87.357,494.1,87.1Z" transform="translate(0)"/><path class="f" d="M514.1,81.4l-.029.007a.146.146,0,0,0-.027,0c-.518.111-1.078.236-1.637.4a12.82,12.82,0,0,1-5.012.529,6.031,6.031,0,0,1-4.1-4.087.224.224,0,0,0-.032-.074,20.066,20.066,0,0,0-.669-2.753c-.084-.258-.474-.1-.39.159a23.246,23.246,0,0,1,.681,2.609.181.181,0,0,0-.009.108c.027.124.06.246.1.368.124.694.216,1.392.271,2.085.177,2.233-1.73,2.092-3.467,1.532a11.858,11.858,0,0,0-1.734-.691c-.217-.1-.409-.194-.561-.269a.192.192,0,0,0-.278.147.231.231,0,0,0,.128.349q.255.069.507.147a16.568,16.568,0,0,0,1.993.81c.645.344,1.337.885.557,1.517a7.834,7.834,0,0,1-1.755.771c-.642.273-1.287.535-1.935.792a.2.2,0,0,0-.035.023l-.017.006c-.256.089-.1.479.159.391,1.107-.383,4.227-1.306,4.523.536a6.8,6.8,0,0,1-.176,1.824c-.092.684-.207,1.364-.335,2.042a.181.181,0,0,0,.064.182.2.2,0,0,0,.37-.01c.621-1.769,1.617-3.6,3.535-4.143,2.13-.607,3.749.55,5.26,1.913.066.092.132.181.2.265a.211.211,0,0,0,.365-.194.2.2,0,0,0-.065-.188l-.178-.163c-.96-1.336-1.82-3.134-.639-4.58A6.3,6.3,0,0,1,513.281,82q.434-.091.867-.184C514.41,81.762,514.363,81.343,514.1,81.4Z" transform="translate(-31.075 -7.388)"/><path class="g" d="M579.34,132.207c-.964-1.151-2.709-1.114-4.071-1.278a.164.164,0,0,0-.192.131.173.173,0,0,0,.043.229,5.189,5.189,0,0,1,1.8,3.478,4.052,4.052,0,0,0,.578,2.2c.82.92,1.94.031,2.358-.83A3.866,3.866,0,0,0,579.34,132.207Z" transform="translate(-83.126 -44.535)"/><path class="g" d="M554.255,116.609a.932.932,0,0,0-.233-.189,1.127,1.127,0,0,0-1.231.116c-.327.253-.375.648-.608.957-.963,1.272-1.7.428-2.722.267a1.3,1.3,0,0,0-1.227,2.233c1.091,1.277,3.889,1.554,5.335.867A2.452,2.452,0,0,0,554.8,119.7a2.48,2.48,0,0,0,.116-1.516,4.48,4.48,0,0,0-.266-.838A2.542,2.542,0,0,0,554.255,116.609Z" transform="translate(-65.068 -34.766)"/><path class="h" d="M564.532,123.642a1.241,1.241,0,0,1-.739.982c-.247.1-.139.511.112.406a1.686,1.686,0,0,0,1.049-1.388c.032-.269-.39-.267-.422,0Z" transform="translate(-75.572 -39.522)"/><path class="h" d="M587.279,138.669a2.249,2.249,0,0,1-.112,1.6.211.211,0,0,0,.364.213,2.64,2.64,0,0,0,.154-1.924.211.211,0,0,0-.406.112Z" transform="translate(-91.136 -49.5)"/></g></g></svg>