<svg xmlns="http://www.w3.org/2000/svg" width="56" height="30" viewBox="0 0 56 30"><defs><style>.a{fill:#442626;}.b{fill:#4f2b2b;}</style></defs><g transform="translate(-490.926 -350.375)"><path class="a" d="M519.345,389.234a.284.284,0,0,0-.12-.237,21.426,21.426,0,0,0-4.7-2.553q-2.269-1.4-4.49-2.869a.292.292,0,0,0-.353,0,14.99,14.99,0,0,1-5.435-7.983.322.322,0,0,0-.091-.154.354.354,0,0,0-.587-.191c-1.236,1.18-2.756,1.2-4.333,1.532-1.339.279-2.662.677-3.983,1.032a13.517,13.517,0,0,0-2.421.795,3.505,3.505,0,0,0-1.682,1.5,3.85,3.85,0,0,0,.012,2.573,9.615,9.615,0,0,0,.92,2.282,13.631,13.631,0,0,0,3.307,3.96,8.688,8.688,0,0,0,2.659,1.554c6.578,2.224,14.624.181,21.3-.543C519.79,389.885,519.8,389.185,519.345,389.234Z" transform="translate(0 -11.111)"/><path class="a" d="M587.809,397.912c.044-.406.076-.812.083-1.217,0,0,.008,0,.013-.006q.894-.659,1.763-1.348c.211-.168.451-.337.679-.52C590.68,396.009,589.343,397.1,587.809,397.912Z" transform="translate(-44.428 -19.777)"/><path class="b" d="M558.38,373.973c-.3-1.417-.278-2.825-.525-4.233-.432-2.462-2.207-5.429-3.6-7.466s-1.824-4.275-3.88-5.866c-2.578-2-6.064-2.658-9.125-3.561a.327.327,0,0,0-.169-.006,20.139,20.139,0,0,0-2.132-.851.359.359,0,0,0-.267-.176c-2.712-.354-5.414-.9-8.141-.461a23.027,23.027,0,0,0-7.456,2.449,14.366,14.366,0,0,0-4.488,3.779,30.7,30.7,0,0,0-1.911,3.244,24.45,24.45,0,0,1-3.2,3.775c-.007.007-.007.015-.013.022a.312.312,0,0,0-.106.253c.092,4.157,4.721,7.008,7.79,9.135,4.251,2.948,8.31,6.438,13.736,6.269a87.831,87.831,0,0,1,8.849-.084c2.629.181,5.465.918,8.084.288,1.23-.3,2.31-.977,3.509-1.351a6.558,6.558,0,0,0,2.025-.712,2.463,2.463,0,0,0,1.023-1.75A5.291,5.291,0,0,0,558.38,373.973Zm-3.373,1.739c-.142-1.046-1.267-3.377-.447-4.3.007-.006.016-.007.023-.013a8.575,8.575,0,0,1,1.952-1.185,3.626,3.626,0,0,0,.6-.368c.1.782.043,1.528.142,2.344.091.741.285,1.392.421,2.046a4.4,4.4,0,0,1-1.323,1.224c-.427.337-.863.663-1.3.987C555.061,376.2,555.04,375.959,555.007,375.712Zm.005,2.8c.044-.4.076-.806.083-1.209,0,0,.008,0,.013-.006q.894-.654,1.763-1.339c.212-.167.451-.335.679-.517C557.883,376.618,556.546,377.7,555.012,378.508Z" transform="translate(-11.63 -0.358)"/><path class="a" d="M560.867,352.029A1.835,1.835,0,0,0,559.856,351a4.266,4.266,0,0,0-2.546-.581,1.047,1.047,0,0,0-.931.99c.008,1.211,1.329,1.81,2.357,1.875C559.466,353.329,561.272,353.249,560.867,352.029Z" transform="translate(-30.037 0)"/></g></svg>