<svg xmlns="http://www.w3.org/2000/svg" xmlns:xlink="http://www.w3.org/1999/xlink" width="224" height="223" viewBox="0 0 224 223"><defs><style>.a{fill:#fff;stroke:#95bb80;stroke-width:3px;}.b,.d{fill:#555;}.b{font-size:12px;}.b,.c,.d{font-family:GenJyuuGothic-P-Bold, Gen Jyuu Gothic P;font-weight:700;letter-spacing:0.05em;}.c{fill:#c1c1c1;}.c,.d{font-size:10px;}.e{fill:#404653;}.f{fill:#2d3340;}.g{stroke:none;}.h{fill:none;}.i{filter:url(#a);}</style><filter id="a" x="0" y="0" width="224" height="223" filterUnits="userSpaceOnUse"><feOffset dy="3" input="SourceAlpha"/><feGaussianBlur stdDeviation="3" result="b"/><feFlood flood-opacity="0.161"/><feComposite operator="in" in2="b"/><feComposite in="SourceGraphic"/></filter></defs><g transform="translate(-76 -319)"><g class="i" transform="matrix(1, 0, 0, 1, 76, 319)"><g class="a" transform="translate(12 9)"><rect class="g" width="200" height="199" rx="17"/><rect class="h" x="-1.5" y="-1.5" width="203" height="202" rx="18.5"/></g></g><text class="b" transform="translate(169 404)"><tspan x="0" y="0">漁夫帽</tspan></text><text class="c" transform="translate(99 438)"><tspan x="0" y="11">來自多尼戈爾的漁夫帽，據說可以遮風</tspan><tspan x="0" y="25">擋雨，還有防水的功能。</tspan></text><text class="d" transform="translate(172 420)"><tspan x="0" y="0">$1000</tspan></text><g transform="translate(-101.523 153.714)"><path class="e" d="M328.348,221.647c-.477-1.642-2.651-2.3-4.223-3.051a30.267,30.267,0,0,1-7.509-5.551c-1.668-1.528-2.729-2.788-3.133-4.836-.386-1.96-.375-3.927-.671-5.894-.318-2.106-.447-4.152-.6-6.251a6.049,6.049,0,0,0-3.037-4.672,15.774,15.774,0,0,0-5.718-2.565c-2.78-.559-5.315.163-8.034.254a.356.356,0,0,0-.234-.055c-2.554.209-4.849-.744-7.321-1.095-1.126-.16-2.287-.218-3.411-.388-3.214-.486-6.9-1.056-10,.064-3.658,1.319-5.748,2.548-6.783,5.715-.517,1.582-1.064,3.16-1.518,4.749-.546,1.914-1.633,3.609-2.338,5.472a14.4,14.4,0,0,1-3.8,1.948c-1.449.607-3.064,1.04-4.558,1.578-2.791,1-5.387,1.779-5.925,4.424a.276.276,0,0,0,.11.275c.108,5.387,4.887,8.648,9.958,11.588a23.55,23.55,0,0,0,8.634,2.622c3.8.523,7.3,1.935,10.987,2.819a106.069,106.069,0,0,0,16.511,3.032,71.839,71.839,0,0,0,12.662.009c3.3-.314,6.714-.578,9.742-1.782a29.721,29.721,0,0,0,8.767-5.5C328.06,223.476,328.9,222.618,328.348,221.647Z" transform="translate(0 0)"/><path class="f" d="M274.112,220.27c.027.236-.044.476-.013.68.032.22.065.45.086.669a2.741,2.741,0,0,0,.228.612l.08.157.038.079a.556.556,0,0,1,.036.131.452.452,0,0,0,.081.278l.138.3.068.149a.6.6,0,0,0,.086.106.952.952,0,0,1,.235.374,1.413,1.413,0,0,0,.053.136c.024.048.051.1.08.144.12.192.259.387.406.58.168.219.19.458.383.616-.285-.077-.425-.34-.611-.464a4.239,4.239,0,0,1-.577-.533c-.043-.05-.086-.1-.126-.155a1.281,1.281,0,0,1-.1-.184.533.533,0,0,0-.176-.219.894.894,0,0,1-.156-.174l-.089-.17-.176-.341a.912.912,0,0,1-.079-.2,1.605,1.605,0,0,1-.018-.187.161.161,0,0,0-.007-.037l-.036-.082-.07-.165a2.141,2.141,0,0,1-.151-.723c.018-.24.049-.468.086-.707A3.283,3.283,0,0,1,274.112,220.27Z" transform="translate(-9.705 -16.956)"/><path class="f" d="M285.489,234.514c1.724.709,3.556,1.3,5.252,1.993.073.022.2.035.356.088a1.1,1.1,0,0,1,.22.106c.05.03.044.022.05.023-.025,0,.023,0,.116,0a.687.687,0,0,1,.186.029.885.885,0,0,1,.139.056.49.49,0,0,0,.231.084c.492.081.961.228,1.424.289l.686.1.181.029c.082.013.158.031.226.049l.344.1c.185.041.445.07.664.106.266.043.516.108.739.161.41.1.929.156,1.391.236a3.408,3.408,0,0,1,.392.1c.018.008.182.028.311.049s.3.042.367.058.184.028.3.041a4.237,4.237,0,0,1,.8.15,2.412,2.412,0,0,0,.282.066,2.686,2.686,0,0,1,.418.07c.317.088.529.2.681.238l.654.141c.461.093.913.181,1.355.231a9.728,9.728,0,0,1,1.516.238c.086.028.3.019.637.053l.746.127a2.055,2.055,0,0,0,.265.021l.194.007a1.671,1.671,0,0,1,.3.046c.164.034.041.019.166.021a1.721,1.721,0,0,1,.489.036l.368.078a1.172,1.172,0,0,0,.252.027c.181.005.449-.014.712-.01l1.454.006,2.881.006c.226-.006.447-.019.662-.044.188-.025.5-.07.725-.09a4.924,4.924,0,0,0,.651-.1,4.22,4.22,0,0,1,.835-.048l1.459-.081c.242-.01.505-.03.729-.023a1.932,1.932,0,0,0,.569-.068c.2-.053.433-.138.71-.2s.486-.078.733-.119c.474-.081.966-.128,1.385-.243.443-.124.969-.239,1.395-.363l.676-.185a2.121,2.121,0,0,0,.573-.239,2.492,2.492,0,0,1,.725-.288.656.656,0,0,0,.24-.1l.154-.092.153-.079c.08-.044.165-.111.271-.181a1.573,1.573,0,0,1,.356-.169,2.548,2.548,0,0,0,.591-.293c.193-.122.413-.237.6-.334a2.99,2.99,0,0,0,.489-.406c.328-.294.69-.57,1.028-.851-.3.318-.6.618-.885.943a2.894,2.894,0,0,1-.48.478c-.207.129-.384.242-.561.376a2.808,2.808,0,0,1-.612.369,1.053,1.053,0,0,0-.256.148c-.077.06-.159.139-.271.216l-.146.092-.13.094a1.174,1.174,0,0,1-.382.2,1.792,1.792,0,0,0-.547.275,2.591,2.591,0,0,1-.692.338l-.687.231c-.477.166-.88.276-1.345.434a12.189,12.189,0,0,1-1.435.324c-.227.046-.493.092-.688.139s-.4.135-.652.215a3.081,3.081,0,0,1-.855.141c-.262,0-.481.031-.721.051l-1.439.117a3.692,3.692,0,0,0-.611.036,6.358,6.358,0,0,1-.773.138c-.26.031-.421.061-.709.106-.264.037-.526.059-.783.072-1.028.028-1.953.015-2.935.024l-1.453.006c-.221,0-.437.018-.74.015a2.66,2.66,0,0,1-.468-.045l-.335-.071a.5.5,0,0,0-.229-.025,1.838,1.838,0,0,1-.547-.062.2.2,0,0,0-.051-.01l-.169-.008a3.313,3.313,0,0,1-.457-.044l-.676-.122a5.669,5.669,0,0,1-.8-.09,8.4,8.4,0,0,0-1.333-.216,13.694,13.694,0,0,1-1.485-.273l-.354-.083c-.124-.032-.211-.046-.391-.1-.3-.1-.5-.208-.646-.246a1.759,1.759,0,0,0-.292-.051,3.626,3.626,0,0,1-.414-.105,2.815,2.815,0,0,0-.6-.128c-.122-.016-.261-.034-.411-.068s-.226-.04-.344-.063a3.842,3.842,0,0,1-.4-.078c-.169-.051-.225-.08-.3-.091-.481-.1-.925-.162-1.44-.306-.238-.067-.448-.13-.656-.172-.253-.053-.475-.081-.753-.157l-.335-.112c-.045-.014-.086-.025-.123-.033l-.174-.034-.735-.151a15.875,15.875,0,0,1-2.732-.846c-.465-.258-.842-.416-1.27-.615s-.867-.361-1.271-.592c-.1-.052-.209-.116-.3-.148s-.219-.066-.343-.121l-.622-.314c-.206-.1-.4-.223-.619-.31A2.51,2.51,0,0,1,285.489,234.514Z" transform="translate(-14.426 -24.206)"/></g></g></svg>