<svg xmlns="http://www.w3.org/2000/svg" xmlns:xlink="http://www.w3.org/1999/xlink" width="375" height="217" viewBox="0 0 375 217"><defs><style>.a{fill:#fff;}.b{fill:#70bced;}.c{fill:#a3e5dd;}.d{fill:#719a95;}.e{fill:#545756;font-size:9px;font-family:GenJyuuGothic-P-Medium, Gen Jyuu Gothic P;font-weight:500;}.f{font-size:12px;font-family:GenJyuuGothic-P-Regular, Gen Jyuu Gothic P;letter-spacing:0.05em;}.g{filter:url(#a);}</style><filter id="a" x="248.621" y="56.518" width="103.516" height="102.93" filterUnits="userSpaceOnUse"><feOffset dy="5" input="SourceAlpha"/><feGaussianBlur stdDeviation="3" result="b"/><feFlood flood-opacity="0.161"/><feComposite operator="in" in2="b"/><feComposite in="SourceGraphic"/></filter></defs><g transform="translate(0 -595)"><rect class="a" width="375" height="217" transform="translate(0 595)"/><g transform="translate(255.992 655.518)"><ellipse class="b" cx="49.097" cy="13.474" rx="49.097" ry="13.474" transform="translate(0 62.88)"/><g class="g" transform="matrix(1, 0, 0, 1, -255.99, -60.52)"><path class="c" d="M351.368,552.118a1.68,1.68,0,0,1-.14.2,15.261,15.261,0,0,1-2.288,2.3,19.111,19.111,0,0,1-2.863,1.894,35.4,35.4,0,0,1-6.538,2.639c-1.8.556-3.62,1.031-5.436,1.521a91.251,91.251,0,0,1-20.142,3.1,84.135,84.135,0,0,1-19.531-1.451,78.655,78.655,0,0,1-8.928-2.293,41.8,41.8,0,0,1-5.828-2,8.476,8.476,0,0,1-2.434-1.719,5.533,5.533,0,0,1-1.211-1.809,3.05,3.05,0,0,1,.248-2.224c.51-1.641.895-3.316,1.3-4.984.136-.559,1.28-6.447,1.409-6.447a28.283,28.283,0,0,0,8.727.381c1.277-.164,1.293-2.195,0-2.028-7.065.9-19.578-1.9-21.649-9.9.048-1.819,2.334-2.045,3.7-1.843a11.5,11.5,0,0,1,2.408.823q1.764.675,3.587,1.179c4.815,1.321,10.143,1.753,14.906-.009a15.939,15.939,0,0,0,3.464-1.783,7.445,7.445,0,0,0,3.1-4.107,6.118,6.118,0,0,0-.509-4.42,7.3,7.3,0,0,0-3.592-3.232,11.266,11.266,0,0,0-1.9-.583,18.332,18.332,0,0,0-1.99-.263c-1.4-.174-2.789-.44-4.171-.721l-.413-.084a52.79,52.79,0,0,1-8.818-2.5c-2.1-.828-4.809-1.969-5.928-4.081-1.133-2.136.583-4.331,2.461-5.264a11.339,11.339,0,0,0,2.61-1.66,7.019,7.019,0,0,0,1.749-3.043c.358-.927.754-1.838,1.2-2.725a27.642,27.642,0,0,1,3.065-4.8,28.314,28.314,0,0,1,8.307-7.015,33.257,33.257,0,0,1,10.281-3.65,38.491,38.491,0,0,1,11.143-.372,39.117,39.117,0,0,1,10.893,2.819,35.22,35.22,0,0,1,9.319,5.737c8.408,7.253,11.687,18.126,14.772,28.409.84,2.8,1.619,5.616,2.317,8.454s1.32,5.709,1.837,8.593.93,5.779,1.22,8.69.458,5.853.481,8.787A2.669,2.669,0,0,1,351.368,552.118Z" transform="translate(-8.44 -418.39)"/></g><path class="d" d="M5.279,4.464a7.13,7.13,0,0,0-.841-3.249A2.357,2.357,0,0,0,2.138.006,1.662,1.662,0,0,0,.67.822a2.07,2.07,0,0,0-.2.317A5.491,5.491,0,0,0,.134,4.616,3.524,3.524,0,0,0,1.525,7.109a2.885,2.885,0,0,0,2.611-.172A2.3,2.3,0,0,0,5.279,4.464Z" transform="matrix(0.985, 0.174, -0.174, 0.985, 35.526, 22.228)"/><path class="d" d="M1.628,1.377a2.2,2.2,0,0,0-.259-1A.727.727,0,0,0,.66,0,.513.513,0,0,0,.207.254a.639.639,0,0,0-.063.1,1.694,1.694,0,0,0-.1,1.072,1.087,1.087,0,0,0,.429.769.89.89,0,0,0,.805-.053A.711.711,0,0,0,1.628,1.377Z" transform="matrix(0.985, 0.174, -0.174, 0.985, 10.302, 26.417)"/><g transform="matrix(0.934, 0.358, -0.358, 0.934, 33.538, 14.098)"><path class="d" d="M9.186.141.765,2.938C-1.02,3.531.644,5,2.444,4.4l8.42-2.8c1.786-.593.121-2.059-1.678-1.461Z" transform="translate(0 0)"/></g></g><text class="e" transform="translate(283 758)"><tspan x="0" y="0">尼斯湖水怪</tspan></text><text class="f" transform="translate(60 626)"><tspan x="0" y="13">家長您好，</tspan><tspan x="0" y="43">我鼓勵你也寫信給小孩，</tspan><tspan x="0" y="73">雖然不會有遊戲的獎勵，</tspan><tspan x="0" y="103">但是親子收穫會更豐富喔！</tspan></text></g></svg>