<svg xmlns="http://www.w3.org/2000/svg" width="39.378" height="23.844" viewBox="0 0 39.378 23.844"><defs><style>.a{fill:#fff;}</style></defs><g transform="translate(-1718.051 -575.764)"><rect class="a" width="14.041" height="7.345" transform="translate(1730.719 584.014)"/><path class="a" d="M1.749,0h0A4.869,4.869,0,0,1,6.618,4.869V18.975a4.869,4.869,0,0,1-4.869,4.869h0A1.749,1.749,0,0,1,0,22.1V1.749A1.749,1.749,0,0,1,1.749,0Z" transform="translate(1746.029 575.764)"/><path class="a" d="M0,0H0A3.513,3.513,0,0,1,3.513,3.513v3.03A3.513,3.513,0,0,1,0,10.055H0a0,0,0,0,1,0,0V0A0,0,0,0,1,0,0Z" transform="translate(1753.916 582.659)"/><path class="a" d="M1.749,0h0A4.869,4.869,0,0,1,6.618,4.869V18.975a4.869,4.869,0,0,1-4.869,4.869h0A1.749,1.749,0,0,1,0,22.1V1.749A1.749,1.749,0,0,1,1.749,0Z" transform="translate(1729.45 599.608) rotate(-180)"/><path class="a" d="M0,0H0A3.513,3.513,0,0,1,3.513,3.513v3.03A3.513,3.513,0,0,1,0,10.055H0a0,0,0,0,1,0,0V0A0,0,0,0,1,0,0Z" transform="translate(1721.563 592.714) rotate(180)"/></g></svg>