<svg xmlns="http://www.w3.org/2000/svg" width="165.146" height="184.946" viewBox="0 0 165.146 184.946"><defs><style>.a{fill:#8dac86;}.b,.c{fill:#fff;}.b{font-size:12px;font-family:CP-&-TRANS, 'CP & TRANS';letter-spacing:0.05em;}</style></defs><g transform="translate(0 -627.054)"><path class="a" d="M54.231-332.346c-5.249-1.975-10.857-1.406-16.314-.842s-11.075,1.089-16.3-.967a17.462,17.462,0,0,1-10.77-14.189c-1.2-11.376,8.719-20.69,8.384-32.159-.253-8.661-6.642-15.5-13.37-17.138s-13.64.764-20.1,3.638c-5.645,2.512-11.389,5.446-17.368,5.122a14.58,14.58,0,0,1-10.9-6.216L-50-393.72l6.022-4.037a14.443,14.443,0,0,1-.99-3.6c-1.037-7.5,3.4-14.33,4.727-21.759,1.764-9.891-2.483-20.544-9.162-26.153s-15.29-6.664-23.144-4.625a37.226,37.226,0,0,0-4.385,1.475l.747,7.92-4.661-6.155a78.306,78.306,0,0,0-13.508,9.172v1.291l-.868-1.291v171.2s64.946-.832,99.71-.018l.761.018.078,0c34.147.845,44.077,0,44.077,0,8.633-3.933,20.775-24.616,20.516-36.216S63.026-329.035,54.231-332.346Z" transform="translate(95.22 1081.911)"/><text class="b" transform="translate(30 776)"><tspan x="0" y="0">毎日任務</tspan></text><g transform="translate(-1449.845 184.155)"><path class="c" d="M1530.24,688.11a2.838,2.838,0,0,0,3.042,2.628h2.5c.869,0,1.737,0,2.606,0a2.878,2.878,0,0,0,2.977-2.963c.006-.878.022-1.757.013-2.635H1530.14C1530.182,686.13,1530.121,687.13,1530.24,688.11Z" transform="translate(-29.818 -119.497)"/><path class="c" d="M1518.973,547.973a12.627,12.627,0,0,0-6.83-10.69,12.3,12.3,0,0,0-9.162-1.214,13.058,13.058,0,0,0-7.75,5.328,12.5,12.5,0,0,0-2.25,9.2,12.84,12.84,0,0,0,4.723,8.336,6.24,6.24,0,0,1,2.377,3.5,9.666,9.666,0,0,1,.162,1.288h11.338a7.19,7.19,0,0,1,2.794-5.011A12.12,12.12,0,0,0,1518.973,547.973Zm-14.017-3.957a.952.952,0,0,1,.708-.3h.57a.951.951,0,0,1,.708.3.932.932,0,0,1,.276.716l-.017,1.312-.483,5.783a.735.735,0,0,1-.241.518.8.8,0,0,1-1.071,0,.732.732,0,0,1-.241-.518l-.466-5.783-.017-1.312A.931.931,0,0,1,1504.956,544.016Zm2.124,12.611a1.719,1.719,0,0,1-2.279,0,1.438,1.438,0,0,1-.466-1.1,1.466,1.466,0,0,1,.466-1.113,1.694,1.694,0,0,1,2.279,0,1.465,1.465,0,0,1,.466,1.113A1.437,1.437,0,0,1,1507.079,556.627Z" transform="translate(0 0)"/></g></g></svg>