<svg xmlns="http://www.w3.org/2000/svg" xmlns:xlink="http://www.w3.org/1999/xlink" width="224" height="223" viewBox="0 0 224 223"><defs><style>.a{fill:#fff;stroke:#95bb80;stroke-width:3px;}.b{fill:#999;}.c{fill:#cabbab;}.d{fill:#bda991;}.e,.k{fill:none;}.e{stroke:#bda991;stroke-miterlimit:10;}.f{fill:#fcfaac;}.g,.i{fill:#555;}.g{font-size:12px;}.g,.h,.i{font-family:GenJyuuGothic-P-Bold, Gen Jyuu Gothic P;font-weight:700;letter-spacing:0.05em;}.h{fill:#c1c1c1;}.h,.i{font-size:10px;}.j{stroke:none;}.l{filter:url(#a);}</style><filter id="a" x="0" y="0" width="224" height="223" filterUnits="userSpaceOnUse"><feOffset dy="3" input="SourceAlpha"/><feGaussianBlur stdDeviation="3" result="b"/><feFlood flood-opacity="0.161"/><feComposite operator="in" in2="b"/><feComposite in="SourceGraphic"/></filter></defs><g transform="translate(-76 -319)"><g class="l" transform="matrix(1, 0, 0, 1, 76, 319)"><g class="a" transform="translate(12 9)"><rect class="j" width="200" height="199" rx="17"/><rect class="k" x="-1.5" y="-1.5" width="203" height="202" rx="18.5"/></g></g><g transform="translate(46.686 170.146)"><path class="b" d="M122.83,242.448a52.728,52.728,0,0,0,11.535,22.616c4.53,5.288,11.4,6.871,18.15,6.628,7-.252,13.116-3.286,16.185-9.813,3.289-6.994,2.129-14.311-.975-21.151-.174-.383-.74-.05-.567.332,3.1,6.827,4.19,14.273.644,21.163-3.5,6.8-10.44,9.1-17.7,8.8a25.148,25.148,0,0,1-10.192-2.268,20.084,20.084,0,0,1-6.766-6.294,52.91,52.91,0,0,1-9.683-20.186c-.1-.411-.73-.242-.634.169Z" transform="translate(-5.464 -32.862)"/><path class="c" d="M167.2,219.4a10,10,0,0,0-4.753-3.681.307.307,0,0,0-.4.333c-.005.006-.011.008-.016.014-1.575,2.035-7.281,1.459-9.645,1.559q-4.223.178-8.451.139a148.882,148.882,0,0,1-17.2-1.1c-2-.252-4.245-.845-6.26-.587a11.262,11.262,0,0,0-5.087,2.548c-2.829,2.149-5.287,4.339-3.426,7.94,4.137,8,15.1,10.462,23.134,11.836,9.533,1.63,19.977,2.254,28.289-3.552,2.988-2.087,7.409-6.231,7.044-10.383C170.273,222.669,168.3,220.792,167.2,219.4Z" transform="translate(0 -21.059)"/><g transform="translate(118.521 172.538)"><path class="c" d="M143.2,197.731a27.849,27.849,0,0,0,18.972-5.033,14.484,14.484,0,0,0,4.892-5.474c-.167-.292-.335-.584-.508-.874-1.635-2.72-3.254-5.482-5.8-7.443A28.938,28.938,0,0,0,155.2,175.5a20.6,20.6,0,0,0-6.245-1.8,24.441,24.441,0,0,0-7.846.795,22.948,22.948,0,0,0-3.741,1.126,20.216,20.216,0,0,0-5.864,3.445,18.331,18.331,0,0,0-2.722,2.905,16.822,16.822,0,0,0-3,6.976A27.853,27.853,0,0,0,143.2,197.731Z" transform="translate(-125.386 -173.608)"/><path class="d" d="M166.72,199.621c-.349.461-.573,1.058-.909,1.543a12.939,12.939,0,0,1-1.15,1.426,18.751,18.751,0,0,1-2.833,2.459,27.553,27.553,0,0,1-36.4-3.757,23.988,23.988,0,0,0,.148,9.3c0,.008.007.013.009.022s0,.01.006.016a.279.279,0,0,0,.12.159c5.477,5.711,14.639,7.905,22.316,7.613a37.214,37.214,0,0,0,13.141-2.984,18.573,18.573,0,0,0,4.657-2.744,13.867,13.867,0,0,0,1.884-1.91c.3-.364.572-.743.831-1.134a3.874,3.874,0,0,0,.535-.873,2.931,2.931,0,0,0-.022-1.143,22.518,22.518,0,0,0-1.207-5.425q-.232-.652-.505-1.289A5.171,5.171,0,0,0,166.72,199.621Z" transform="translate(-125.037 -185.961)"/></g><path class="d" d="M163.974,172.093a3.818,3.818,0,0,0-1.731-.706,2.5,2.5,0,0,0-1.118.067,3.722,3.722,0,0,0-1.017.533,2,2,0,0,0-.631.685,1.345,1.345,0,0,0-.13.387c-.007.045-.013.09-.016.135a1.569,1.569,0,0,0,.018.361c.26,1.595,2.687,1.4,3.8,1.112C164.589,174.291,165.344,173.123,163.974,172.093Z" transform="translate(-22.799 0)"/><path class="e" d="M152.378,176.69a24.894,24.894,0,0,0-8.876,20.089" transform="translate(-15.271 -2.534)"/><path class="e" d="M167.478,176.938a40.476,40.476,0,0,1,12.187,18.693" transform="translate(-26.67 -2.651)"/><ellipse class="b" cx="3.801" cy="5.387" rx="3.801" ry="5.387" transform="matrix(0.99, -0.14, 0.14, 0.99, 115.155, 187.188)"/><ellipse class="f" cx="2.612" cy="4.181" rx="2.612" ry="4.181" transform="matrix(0.99, -0.14, 0.14, 0.99, 115.323, 188.381)"/></g><text class="g" transform="translate(163 404)"><tspan x="0" y="0">探險家帽</tspan></text><text class="h" transform="translate(99 438)"><tspan x="0" y="11">探險家常戴的帽子，看起來非常的專業</tspan></text><text class="i" transform="translate(172 420)"><tspan x="0" y="0">$1500</tspan></text></g></svg>