<svg xmlns="http://www.w3.org/2000/svg" xmlns:xlink="http://www.w3.org/1999/xlink" width="224" height="223" viewBox="0 0 224 223"><defs><style>.a,.m{fill:#fff;}.a{stroke:#95bb80;stroke-width:3px;}.b,.e{fill:#555;}.b{font-size:12px;}.b,.c,.e{font-family:GenJyuuGothic-P-Bold, Gen Jyuu Gothic P;font-weight:700;letter-spacing:0.05em;}.c{fill:#c1c1c1;}.c,.e{font-size:10px;}.d{fill:#ffc9a3;text-decoration:underline;}.f{fill:#7fd58e;}.g{fill:#ddd;}.h{fill:#ac53f0;}.i{fill:none;}.j{fill:#e4e8e3;}.k{fill:#4fa0ca;}.l{fill:#83dfff;}.n{fill:#b3b3b3;}.o{fill:#666;}.p{stroke:none;}.q{filter:url(#a);}</style><filter id="a" x="0" y="0" width="224" height="223" filterUnits="userSpaceOnUse"><feOffset dy="3" input="SourceAlpha"/><feGaussianBlur stdDeviation="3" result="b"/><feFlood flood-opacity="0.161"/><feComposite operator="in" in2="b"/><feComposite in="SourceGraphic"/></filter></defs><g transform="translate(-76 -319)"><g class="q" transform="matrix(1, 0, 0, 1, 76, 319)"><g class="a" transform="translate(12 9)"><rect class="p" width="200" height="199" rx="17"/><rect class="i" x="-1.5" y="-1.5" width="203" height="202" rx="18.5"/></g></g><text class="b" transform="translate(150 404)"><tspan x="0" y="0">神奇的油漆桶</tspan></text><text class="c" transform="translate(99 438)"><tspan x="0" y="11">倒下去之後，我會變成什麼顏色呢？</tspan><tspan class="d"><tspan x="0" y="25">※注意，更改顏色為隨機，無法返回</tspan></tspan></text><text class="e" transform="translate(172 420)"><tspan x="0" y="0">$3000</tspan></text><g transform="translate(241.123 -106.775) rotate(45)"><g transform="translate(283.709 362.628)"><path class="f" d="M320.76,395.665q.346-3.992.692-7.984c-1.313,2.513-5.914,4.416-11.806,4.838a.262.262,0,0,1-.077.064q-7.745,4.148-15.113,8.934a27.944,27.944,0,0,0,1.092,7.847c.052.149.12.284.18.425q12.734-6.538,24.909-14.082A.28.28,0,0,1,320.76,395.665Z" transform="translate(-293.442 -387.681)"/><path class="g" d="M307.095,393.653c-.4.014-.81.023-1.223.023-6.345,0-11.627-1.674-13.715-4.087l.82,9.456c.08.928.125,1.9.166,2.883q.014.327.028.658,7.369-4.784,15.113-8.934a.262.262,0,0,0,.077-.064Q307.737,393.631,307.095,393.653Z" transform="translate(-292.156 -388.748)"/><path class="g" d="M322.251,405.84q-12.167,7.542-24.909,14.082c.077.18.153.361.242.528,2.068,3.9,7.416,4.556,11.441,4.556,4.189,0,9.95-.678,11.73-5.172,1.343-3.39,1.071-7.714,1.382-11.3q.089-1.027.178-2.054l.06-.685A.28.28,0,0,0,322.251,405.84Z" transform="translate(-295.056 -397.813)"/></g><g transform="translate(291.903 370.418)"><path class="h" d="M321.683,411.187a3.663,3.663,0,0,1-1.461.874,12.523,12.523,0,0,0-1.478.537,1.1,1.1,0,0,0-.689,1.109v1.613a.267.267,0,0,1-.3.3H315.3c-.185,0-.285-.1-.285-.3V412.95a1.759,1.759,0,0,1,.6-1.6,4.642,4.642,0,0,1,1.243-.571,3.989,3.989,0,0,0,1.075-.5.8.8,0,0,0,.453-.706.939.939,0,0,0-.387-.756,1.926,1.926,0,0,0-1.26-.319,2.52,2.52,0,0,0-1.848.739,2.817,2.817,0,0,0-.739,2.134c0,.2-.1.3-.286.3h-2.806a.287.287,0,0,1-.319-.3,5.925,5.925,0,0,1,1.747-4.216,5.424,5.424,0,0,1,4.049-1.8,6.7,6.7,0,0,1,4.166,1.21,3.455,3.455,0,0,1,1.613,2.789A2.423,2.423,0,0,1,321.683,411.187Z" transform="translate(-310.747 -405.357)"/><circle class="h" cx="1.689" cy="1.689" r="1.689" transform="translate(4.098 11.037)"/></g><g transform="translate(278.358 344.201)"><path class="i" d="M293.584,381.617h-.809a4.542,4.542,0,0,0,1.135,1.234,2,2,0,0,1-.336-1.069A1.607,1.607,0,0,1,293.584,381.617Z" transform="translate(-287.151 -365.863)"/><path class="i" d="M351.2,384c.11-.087.213-.175.312-.264-.045-.023-.092-.045-.138-.068A2.394,2.394,0,0,1,351.2,384Z" transform="translate(-319.826 -367.008)"/><path class="i" d="M305.769,368.622c6.552,0,10.695,1.513,12.1,3.259a9.144,9.144,0,0,1,1.687-.123c-.137-2.953-6.394-5.429-13.79-5.429-7.478,0-13.8,2.531-13.8,5.527a2.392,2.392,0,0,0,.353,1.211h.809C293.348,370.882,297.759,368.622,305.769,368.622Z" transform="translate(-286.702 -357.313)"/><path class="g" d="M307.568,371.531c-7.063,0-11.323,1.757-12.378,3.671.237.236.481.471.729.7.41-1.661,5.077-3.414,11.65-3.414,5.4,0,9.508,1.181,11.036,2.523q.529-.137,1.067-.226C318.263,373.044,314.12,371.531,307.568,371.531Z" transform="translate(-288.501 -360.222)"/><path class="i" d="M294,382.993c.167.132.352.26.544.386q-.838-.746-1.6-1.509A4.687,4.687,0,0,0,294,382.993Z" transform="translate(-287.245 -366.004)"/><path class="i" d="M280.726,347.054c-1.837,2.194.006,7.027,4.107,11.79,1.565-2.81,7.264-4.837,14.248-4.837.183,0,.365,0,.547.006-.538-.5-1.088-1-1.658-1.481C291.017,346.705,283.122,344.2,280.726,347.054Z" transform="translate(-280.014 -345.872)"/><path d="M303.323,390.761a.649.649,0,0,0,.73.026c-.405-.11-.791-.23-1.168-.356C303.031,390.54,303.177,390.654,303.323,390.761Z" transform="translate(-292.805 -370.792)"/><path class="j" d="M307.677,364.418q-.947-.068-1.935-.083c-.182,0-.363-.006-.547-.006-6.984,0-12.683,2.027-14.248,4.837.2.237.415.473.63.709,1.068-2.6,6.87-4.665,13.618-4.665.516,0,1.026.013,1.53.037q.345.016.685.039c6.39.434,11.452,2.7,11.575,5.353a8.253,8.253,0,0,1,.886.069C319.84,367.5,314.663,364.917,307.677,364.418Z" transform="translate(-286.128 -356.194)"/><path class="j" d="M317.27,381c-.1.089-.2.177-.312.264-2.3,1.808-7.006,3.082-12.308,3.082a29.465,29.465,0,0,1-7.578-.945,14.862,14.862,0,0,1-4.186-1.751c-.192-.126-.376-.254-.544-.386a4.687,4.687,0,0,1-1.06-1.123q-.682-.678-1.307-1.365c0,.014,0,.028,0,.042a3.387,3.387,0,0,0,.729,2.03,10.147,10.147,0,0,0,4.962,3.066c.377.126.763.246,1.168.356a30.362,30.362,0,0,0,7.819.957c6.061,0,11.148-1.528,13.412-3.767A9.1,9.1,0,0,0,317.27,381Z" transform="translate(-285.584 -364.273)"/><g transform="translate(5.118 16.573)"><path class="g" d="M318.987,384.086c-2.264,2.24-7.351,3.768-13.412,3.768-6.6,0-12.046-1.81-13.949-4.379l.032.373h.121c0,3,6.318,5.527,13.8,5.527,7.08,0,13.116-2.269,13.74-5.053-.11-.078-.214-.163-.327-.236Z" transform="translate(-291.626 -383.475)"/><g transform="translate(0.032 0.373)"><path class="j" d="M305.616,389.849c-7.478,0-13.8-2.531-13.8-5.527H291.7q.1,1.161.2,2.321c2.088,2.413,7.37,4.087,13.715,4.087.413,0,.82-.009,1.224-.023q.642-.022,1.265-.067c5.893-.422,10.493-2.326,11.806-4.838l.046-.534q-.29-.25-.6-.472C318.732,387.58,312.7,389.849,305.616,389.849Z" transform="translate(-291.699 -384.322)"/><path class="k" d="M354.449,385.1h0a2.212,2.212,0,0,0,.041-.232C354.48,384.949,354.466,385.026,354.449,385.1Z" transform="translate(-326.793 -384.629)"/></g></g></g><g transform="translate(293.17 358.644)"><path class="l" d="M331.663,380.977a5.468,5.468,0,0,1-.374.405h0c.114.073.218.158.327.236q.312.223.6.472a7.2,7.2,0,0,1,1.51,1.794c.919,1.555.975,3.248,1.467,4.932a7.759,7.759,0,0,0,3.66,4.733c4.26,2.305,7.471-1.492,5.888-5.658-1.715-4.514-7.441-8.52-12.136-9.173l-.056-.006a8.253,8.253,0,0,0-.886-.069,9.144,9.144,0,0,0-1.687.123q-.539.088-1.067.226a23.348,23.348,0,0,0-2.795.961c-.307.123-.614.248-.923.373a72.447,72.447,0,0,1-9.841,3.206.248.248,0,0,0-.171.132c-.091-.007-.177-.017-.267-.025q-.65.161-1.294.346a31.848,31.848,0,0,0,4.254.284c5.3,0,10.011-1.274,12.308-3.082a2.4,2.4,0,0,0,.174-.332c.046.022.093.044.138.068a9.107,9.107,0,0,1,.792.46c.134-.133.26-.268.374-.406" transform="translate(-313.622 -378.641)"/><g transform="translate(25.289 5.164)"><path class="m" d="M377.174,404.918a1.048,1.048,0,0,0-.8-.079.231.231,0,0,0-.037.015.9.9,0,0,0-.753,1,1.017,1.017,0,0,0,1.1.871c.634-.049.846-.6.815-1.173A.8.8,0,0,0,377.174,404.918Z" transform="translate(-373.558 -398.433)"/><path class="m" d="M373.637,395.609a.2.2,0,0,0,.141.125c.752.509,1.414-.424,1.4-1.184a5.663,5.663,0,0,0-2.354-3.832c-.409-.277-2.2-.79-1.756.34.11.282.494.505.708.71a13.221,13.221,0,0,1,.915.97,4.9,4.9,0,0,1,.906,2.714A.21.21,0,0,0,373.637,395.609Z" transform="translate(-371.001 -390.358)"/></g></g><g transform="translate(277.052 342.885)"><path class="n" d="M308.236,366.4c-.227-.015-.455-.029-.685-.039-.5-.023-1.014-.037-1.53-.037-6.742,0-12.539,2.057-13.615,4.658.4.434.806.866,1.237,1.295l0,0c1.062-1.911,5.319-3.664,12.374-3.664,6.552,0,10.694,1.513,12.1,3.259a9.143,9.143,0,0,1,1.687-.123C319.688,369.105,314.626,366.839,308.236,366.4Z" transform="translate(-285.639 -355.996)"/><path class="n" d="M308.519,373.713c-6.562,0-11.224,1.747-11.646,3.406l.086.078h-.01c.518.486,1.056.967,1.616,1.436.49.411.992.8,1.5,1.188a23.969,23.969,0,0,0,5.753,1.086.247.247,0,0,1,.171-.132,72.451,72.451,0,0,0,9.841-3.206l.923-.373h.01a23.351,23.351,0,0,1,2.795-.961C318.027,374.894,313.914,373.713,308.519,373.713Z" transform="translate(-288.137 -360.126)"/><path class="o" d="M299.794,352.245c-.828-.829-1.714-1.639-2.632-2.409-7.76-6.5-16.153-8.837-19.105-5.313-2.406,2.872-.35,8.619,4.693,14.168q.623.685,1.307,1.365.766.762,1.6,1.509a14.877,14.877,0,0,0,4.186,1.751.655.655,0,0,0-.194-.227c-.226-.164-.451-.338-.676-.509-.505-.383-1.008-.777-1.5-1.188-.561-.469-1.1-.95-1.616-1.436l-.089-.081c-.247-.234-.491-.468-.729-.7q-.648-.645-1.24-1.3c-.215-.236-.426-.472-.63-.709-4.1-4.763-5.944-9.6-4.106-11.79,2.4-2.856,10.291-.349,17.243,5.477.57.478,1.12.976,1.658,1.48q.987.015,1.935.083A.64.64,0,0,0,299.794,352.245Z" transform="translate(-277.052 -342.885)"/></g></g></g></svg>