<svg xmlns="http://www.w3.org/2000/svg" xmlns:xlink="http://www.w3.org/1999/xlink" width="302" height="410.959" viewBox="0 0 302 410.959"><defs><style>.a{fill:#90af89;}.b{fill:#ffe87e;}.c{fill:#ffecaa;}.d{fill:#3b3b3b;}.e{fill:#fff;font-size:18px;font-family:GenJyuuGothic-P-Heavy, Gen Jyuu Gothic P;font-weight:800;letter-spacing:0.05em;}.f{filter:url(#m);}.g{filter:url(#k);}.h{filter:url(#i);}.i{filter:url(#g);}.j{filter:url(#e);}.k{filter:url(#c);}.l{filter:url(#a);}</style><filter id="a" x="104.378" y="46.605" width="29.172" height="29.675" filterUnits="userSpaceOnUse"><feOffset dy="3" input="SourceAlpha"/><feGaussianBlur stdDeviation="3" result="b"/><feFlood flood-opacity="0.161"/><feComposite operator="in" in2="b"/><feComposite in="SourceGraphic"/></filter><filter id="c" x="96" y="9" width="109.769" height="79.443" filterUnits="userSpaceOnUse"><feOffset dy="3" input="SourceAlpha"/><feGaussianBlur stdDeviation="3" result="d"/><feFlood flood-opacity="0.161"/><feComposite operator="in" in2="d"/><feComposite in="SourceGraphic"/></filter><filter id="e" x="109.122" y="50.457" width="50.291" height="40.682" filterUnits="userSpaceOnUse"><feOffset dy="5" input="SourceAlpha"/><feGaussianBlur stdDeviation="3" result="f"/><feFlood flood-opacity="0.161"/><feComposite operator="in" in2="f"/><feComposite in="SourceGraphic"/></filter><filter id="g" x="115.414" y="0" width="46.563" height="44.204" filterUnits="userSpaceOnUse"><feOffset dx="3" dy="-6" input="SourceAlpha"/><feGaussianBlur stdDeviation="3" result="h"/><feFlood flood-opacity="0.161"/><feComposite operator="in" in2="h"/><feComposite in="SourceGraphic"/></filter><filter id="i" x="93" y="21.838" width="36.052" height="39.039" filterUnits="userSpaceOnUse"><feOffset dx="-3" dy="6" input="SourceAlpha"/><feGaussianBlur stdDeviation="3" result="j"/><feFlood flood-opacity="0.161"/><feComposite operator="in" in2="j"/><feComposite in="SourceGraphic"/></filter><filter id="k" x="131.392" y="51.302" width="34.274" height="47.292" filterUnits="userSpaceOnUse"><feOffset dy="3" input="SourceAlpha"/><feGaussianBlur stdDeviation="3" result="l"/><feFlood flood-opacity="0.161"/><feComposite operator="in" in2="l"/><feComposite in="SourceGraphic"/></filter><filter id="m" x="118.593" y="46.259" width="29.509" height="29.509" filterUnits="userSpaceOnUse"><feOffset dy="3" input="SourceAlpha"/><feGaussianBlur stdDeviation="3" result="n"/><feFlood flood-opacity="0.161"/><feComposite operator="in" in2="n"/><feComposite in="SourceGraphic"/></filter></defs><g transform="translate(-37 -258.041)"><rect class="a" width="302" height="410" rx="20" transform="translate(37 259)"/><g transform="translate(110 -208.653)"><g class="l" transform="matrix(1, 0, 0, 1, -73, 466.69)"><path class="b" d="M5.4.273a2.512,2.512,0,0,0-1.6-.237A2.116,2.116,0,0,0,2.2,1.558a13.172,13.172,0,0,1-.984,2.47,5.733,5.733,0,0,0-.85,1.877A2.289,2.289,0,0,0,.582,7.285c-.248.138-.544.332-.578.578-.027.2.121.427.352.352C.5,8.166.65,8.111.8,8.058a6.577,6.577,0,0,0-.048.723.289.289,0,0,0,.488.2c.087-.079.181-.151.271-.228a6.488,6.488,0,0,0,.255.7c.114.24.448.143.522-.068l.194-.555C3.774,9.01,4.96,7.7,5.6,6.5a6.544,6.544,0,0,0,.97-4.439A3.227,3.227,0,0,0,5.819.6,1.777,1.777,0,0,0,5.4.273Z" transform="matrix(0.79, 0.62, -0.62, 0.79, 119.29, 52.61)"/></g><path class="b" d="M119.15,363.642c-.456-3.739-2.01-8.842-6.3-9.721a4.517,4.517,0,0,0-4.332,1.058c-2.77,2.947-1.3,7.188.07,10.359.774,1.791,1.975,3.378,2.816,5.14a8.57,8.57,0,0,1,1,3.4,2.975,2.975,0,0,1-.407,1.681c-.252.4-.721.676-.8,1.174-.254,1.7,3.3,1.371,4.173,1.1a3.15,3.15,0,0,0,.485-.189C120.6,375.245,119.675,367.943,119.15,363.642Z" transform="translate(-58.354 173.873)"/><g transform="translate(32 481.693)"><g class="k" transform="matrix(1, 0, 0, 1, -105, -15)"><path class="b" d="M334.105,867.348c-.007,0-.013,0-.02,0a20.491,20.491,0,0,1-13.747,1.093c-4-1.228-7.612-3.595-11.59-4.966-8.856-3.055-16.737-5.96-22.816-13.433,1.653-4.019,2.609-8.211,1.493-12.5A18.912,18.912,0,0,0,280.7,826.89c-4.507-3.291-10.517-3.186-15.429-.831-6.519-4.517-14.166.563-14.725,7.863-5.562,3.53-9.933,10.438-6.2,16.826a7.847,7.847,0,0,0,4.076,3.413c.934,3.165,3.949,4.622,7.008,5.1a.387.387,0,0,0,.117,0,50.812,50.812,0,0,0,.533,6.626,14.972,14.972,0,0,1,9.791-1.93c4.766.672,9.068,3.316,12.592,6.595a37.821,37.821,0,0,1,9.908,15.242c8.7-1.337,17.072-4.238,25.63-6.225,4.107-.954,8.691-1.2,12.48-3.175,3.6-1.872,6.041-5.209,8.184-8.541C334.894,867.483,334.407,867.142,334.105,867.348Z" transform="translate(-137.95 -809.35)"/></g><g class="j" transform="matrix(1, 0, 0, 1, -105, -15)"><path class="c" d="M286.663,895.227c-3.523-3.279-7.826-5.922-12.592-6.595a14.972,14.972,0,0,0-9.791,1.93c.768,5.072,2.487,10,5.992,13.8,6.152,6.662,15.271,7.442,23.819,6.449.83-.1,1.656-.214,2.479-.341A37.821,37.821,0,0,0,286.663,895.227Z" transform="translate(-146.16 -834.03)"/></g></g><g class="i" transform="matrix(1, 0, 0, 1, -73, 466.69)"><path class="b" d="M299.158,475.986a18.915,18.915,0,0,0-6.731-10.654c-6.581-4.806-16.364-2.373-21.258,3.735-.306.383.234.93.544.544l.036-.042L296.873,488.4c-.018.045-.034.091-.052.136-.191.456.552.655.741.2C299.278,484.643,300.3,480.365,299.158,475.986Z" transform="translate(-149.66 -447.79)"/></g><path class="d" d="M3.67,3.1A4.958,4.958,0,0,0,3.086.845,1.639,1.639,0,0,0,1.487,0,1.156,1.156,0,0,0,.466.572a1.44,1.44,0,0,0-.142.22A3.818,3.818,0,0,0,.093,3.209a2.451,2.451,0,0,0,.968,1.734,2.006,2.006,0,0,0,1.816-.119A1.6,1.6,0,0,0,3.67,3.1Z" transform="matrix(0.985, 0.174, -0.174, 0.985, 51.194, 495.9)"/><g class="h" transform="matrix(1, 0, 0, 1, -73, 466.69)"><path class="b" d="M159.548,537.624l-9.573-18.083.014-.008c.41-.256.033-.908-.38-.65-5.5,3.435-9.869,10.254-6.19,16.555,1.613,2.762,4.324,3.763,7.4,4.17,2.939.389,6.741.591,9.162-1.4C160.326,537.926,159.906,537.466,159.548,537.624Z" transform="translate(-37.06 -493.98)"/></g><g class="g" transform="matrix(1, 0, 0, 1, -73, 466.69)"><path class="b" d="M236.505,374.229c-.4-3.077-1.221-6.536-3.887-8.452a5.211,5.211,0,0,0-2.422-.978,9.256,9.256,0,0,0-1.959-.067,8.644,8.644,0,0,0-3.625,1.084,8.209,8.209,0,0,0-3.677,4.449,11,11,0,0,0,.564,7.625c.877,2.259,2.388,4.228,3.343,6.458a8.731,8.731,0,0,1,.777,2.868,4.538,4.538,0,0,1-.14,1.478,2.647,2.647,0,0,1-.62,1.273,4.093,4.093,0,0,1-.622.257,1.936,1.936,0,0,0-.55.448,1.686,1.686,0,0,0-.382,1.377c.2,1.168,1.534,1.66,2.545,1.837,3.263.574,7.55-1.057,8.735-4.334a.375.375,0,0,0,.065-.105A31.872,31.872,0,0,0,236.505,374.229Z" transform="translate(-80.09 -307.41)"/></g><g class="f" transform="matrix(1, 0, 0, 1, -73, 466.69)"><path class="b" d="M5.4.273a2.512,2.512,0,0,0-1.6-.237A2.116,2.116,0,0,0,2.2,1.558a13.172,13.172,0,0,1-.984,2.47,5.733,5.733,0,0,0-.85,1.877A2.289,2.289,0,0,0,.582,7.285c-.248.138-.544.332-.578.578-.027.2.121.427.352.352C.5,8.166.65,8.111.8,8.058a6.577,6.577,0,0,0-.048.723.289.289,0,0,0,.488.2c.087-.079.181-.151.271-.228a6.488,6.488,0,0,0,.255.7c.114.24.448.143.522-.068l.194-.555C3.774,9.01,4.96,7.7,5.6,6.5a6.544,6.544,0,0,0,.97-4.439A3.227,3.227,0,0,0,5.819.6,1.777,1.777,0,0,0,5.4.273Z" transform="translate(134.38 52.26) rotate(45)"/></g></g><text class="e" transform="translate(141 339)"><tspan x="0" y="0">給孩子的信</tspan></text></g></svg>