<svg xmlns="http://www.w3.org/2000/svg" xmlns:xlink="http://www.w3.org/1999/xlink" width="224" height="223" viewBox="0 0 224 223"><defs><style>.a{fill:#fff;stroke:#95bb80;stroke-width:3px;}.b,.e{fill:#555;}.b{font-size:12px;}.b,.c,.e{font-family:GenJyuuGothic-P-Bold, Gen Jyuu Gothic P;font-weight:700;letter-spacing:0.05em;}.c{fill:#c1c1c1;}.c,.e{font-size:10px;}.d{fill:#ffc9a3;text-decoration:underline;}.f{fill:#be894a;}.g{fill:#a0642f;}.h{fill:#efe2da;}.i{fill:#f7eae2;}.j{fill:#a06e4b;}.k{stroke:none;}.l{fill:none;}.m{filter:url(#a);}</style><filter id="a" x="0" y="0" width="224" height="223" filterUnits="userSpaceOnUse"><feOffset dy="3" input="SourceAlpha"/><feGaussianBlur stdDeviation="3" result="b"/><feFlood flood-opacity="0.161"/><feComposite operator="in" in2="b"/><feComposite in="SourceGraphic"/></filter></defs><g transform="translate(-76 -319)"><g class="m" transform="matrix(1, 0, 0, 1, 76, 319)"><g class="a" transform="translate(12 9)"><rect class="k" width="200" height="199" rx="17"/><rect class="l" x="-1.5" y="-1.5" width="203" height="202" rx="18.5"/></g></g><text class="b" transform="translate(124 404)"><tspan x="0" y="0">阿爸阿母，帶我去呷冰！</tspan></text><text class="c" transform="translate(99 438)"><tspan x="0" y="11">天氣好熱喔，阿爸阿母會帶我去吃冰嗎</tspan><tspan class="d"><tspan x="0" y="25">※可以向父母請求吃冰一次，請不要點</tspan><tspan x="0" y="39">太貴的～</tspan></tspan></text><text class="e" transform="translate(172 420)"><tspan x="0" y="0">$3000</tspan></text><g transform="translate(110.037 16.489)"><path class="f" d="M90.084,377.776a6.738,6.738,0,0,1-3.3.843l-2.937.22a1.605,1.605,0,0,1-1.174-.228,1.921,1.921,0,0,1-.2-.193c-.117-.127-.194-.2-.275-.205s-.185.094-.289.2a.8.8,0,0,1-.612.3.807.807,0,0,1-.568-.454c-.1-.158-.177-.261-.257-.264-.06,0-.146.077-.256.21a1.078,1.078,0,0,1-.4.341c-.372.154-.787-.067-1.114-.591-.239-.383-.434-.542-.609-.507a.831.831,0,0,0-.362.288.844.844,0,0,1-.744.39.866.866,0,0,1-.537-.418.713.713,0,0,0-.256-.259c-.153-.058-.358.106-.437.293a1.982,1.982,0,0,0-.109.471,3.482,3.482,0,0,1-.071.376.935.935,0,0,1-.769.756h-.041c-.455,0-.791-.432-.9-1.167l-.248-1.637a1.22,1.22,0,0,0-.168-.541c-.074-.1-.229-.166-.316-.109s-.116.229-.128.4L72.9,377.98l4.408,14.986a64.205,64.205,0,0,0,2.436,8c.4.887,1.109,2.308,2.267,2.326s1.881-1.466,2.267-2.326a62.985,62.985,0,0,0,2.436-8l4.831-16.426A8.257,8.257,0,0,1,90.084,377.776Z" transform="translate(-3.991 -34.611)"/><g transform="translate(72.012 341.268)"><path class="g" d="M80.854,382.148l2.019-2.268c.22-.247-.144-.613-.365-.365l-2.019,2.268C80.269,382.03,80.633,382.4,80.854,382.148Z" transform="translate(-80.421 -377.972)"/><path class="g" d="M94.092,379.781q-2.082,2.089-4.167,4.175-.816-.974-1.659-1.927l.86-.863a.258.258,0,0,0-.365-.365l-.839.842c-.215-.241-.426-.485-.644-.724s-.588.12-.365.365.43.483.645.724l-1.711,1.717c-.485-.6-.978-1.189-1.473-1.779.387-.4.772-.805,1.172-1.2.238-.232-.127-.6-.365-.364-.388.378-.761.771-1.137,1.16-.064-.076-.127-.155-.191-.231-.215-.253-.578.113-.365.365.066.078.129.157.194.235-.66.695-1.306,1.4-1.93,2.131-.215.251.149.618.365.365.613-.717,1.248-1.413,1.9-2.1.494.589.986,1.18,1.47,1.776l-2,2.007c-.328-.4-.654-.8-.985-1.2-.213-.255-.576.111-.364.365.333.4.66.8.991,1.2a.258.258,0,0,0,.312.379q.812.991,1.615,1.99l-1.222,1.224a.258.258,0,0,0,.365.365l1.181-1.184q1.01,1.262,2,2.536c-.884.766-1.715,1.593-2.561,2.4-1.2-1.46-2.471-2.868-3.815-4.212a.258.258,0,0,0-.364.365c1.34,1.34,2.6,2.744,3.8,4.2a26.131,26.131,0,0,1-2.034,1.767c-.26.2,0,.647.26.445a26.64,26.64,0,0,0,2.09-1.82c.745.92,1.469,1.858,2.159,2.825-.3.252-.61.5-.922.745-.262.2.106.567.365.365.308-.241.61-.488.911-.737.174.041.371-.1.331-.274q1.35-1.14,2.6-2.394c.094.125.189.248.283.373.2.262.645.006.446-.26-.12-.16-.243-.318-.363-.478.032-.033.065-.064.1-.1.231-.239-.133-.6-.365-.365l-.047.047q-1.073-1.421-2.166-2.826c.413-.34.836-.671,1.283-.972.274-.185.016-.632-.26-.446-.466.314-.906.659-1.336,1.016q-1.009-1.293-2.034-2.574l1.971-1.975q2.029,2.629,3.94,5.347a.26.26,0,0,0,.481-.13q0-.28,0-.56a.259.259,0,0,0-.458-.156q-1.754-2.47-3.6-4.868l1.819-1.823q1.429,1.724,2.779,3.515c.2.262.645,0,.445-.26q-1.389-1.844-2.861-3.619,2.1-2.1,4.2-4.2A.258.258,0,0,0,94.092,379.781Zm-4.2,15.265q-1.238,1.244-2.573,2.379c-.7-.974-1.427-1.921-2.179-2.849.843-.81,1.674-1.633,2.558-2.395Q88.8,393.606,89.888,395.046Zm-4.472-6.573q-.8-.992-1.6-1.975l2-2q.8.993,1.582,2Zm2.339-2.343q-.783-1.006-1.582-2l1.729-1.735q.842.953,1.659,1.926Z" transform="translate(-80.505 -378.132)"/><path class="g" d="M91.653,428.878l.567-.641c.219-.248-.144-.614-.365-.365l-.552.623c-.892-.967-1.8-1.919-2.742-2.838-.238-.232-.6.132-.365.365.95.927,1.865,1.887,2.764,2.862l-.978,1.106c-.22.248.144.614.364.365l.964-1.089c.265.291.536.575.8.87.22.25.584-.116.365-.365C92.2,429.468,91.926,429.176,91.653,428.878Z" transform="translate(-84.942 -405.078)"/><path class="g" d="M117.2,375.918l.009.018.013-.043Z" transform="translate(-102.021 -375.893)"/></g><path class="h" d="M88.22,360.415h0a4.866,4.866,0,0,1-.571.938,5.014,5.014,0,0,1-.438.5l-.013.043-.009-.018a4.979,4.979,0,0,1-.475.411c-2.677,2.04-6.548,1.55-9.644,1.023-2.969-.505-6.043-1.682-7.977-4.047a8.392,8.392,0,0,1-.8-1.16,6.67,6.67,0,0,1-.334-6.114,1.979,1.979,0,0,0-1.792,1.667,5.627,5.627,0,0,0,.1,2.084c.027.153.054.305.077.458a23.5,23.5,0,0,1,.2,3.1,14.321,14.321,0,0,0,.7,5.018c.179.453.539.9,1.02.79.259-.058.579-.291.631-1.072l.005-.082.113-1.686c.012-.175.035-.345.128-.4s.242.012.316.109a1.219,1.219,0,0,1,.168.541l.248,1.637c.11.734.446,1.167.9,1.167h.041a.935.935,0,0,0,.769-.756,3.48,3.48,0,0,0,.071-.375,1.982,1.982,0,0,1,.109-.471c.079-.187.284-.35.437-.293a.712.712,0,0,1,.256.259A.866.866,0,0,0,73,364.1a.844.844,0,0,0,.744-.39.832.832,0,0,1,.362-.288c.175-.035.37.123.609.507.327.524.742.746,1.114.591a1.078,1.078,0,0,0,.4-.341c.111-.133.2-.206.256-.21.081,0,.155.107.257.264a.807.807,0,0,0,.568.454.8.8,0,0,0,.612-.3c.1-.1.195-.191.289-.2s.158.078.275.206a1.925,1.925,0,0,0,.2.193,1.6,1.6,0,0,0,1.174.228l2.937-.22a6.738,6.738,0,0,0,3.3-.843,8.259,8.259,0,0,0,1.46-1.236A2.04,2.04,0,0,0,88.22,360.415Z" transform="translate(0 -20.585)"/><g transform="translate(67.37 316.941)"><path class="i" d="M83.147,327.646a15.713,15.713,0,0,0,2.713,1.87,7.948,7.948,0,0,0,2.96,1.084,6.889,6.889,0,0,0,4.349-.717,2.453,2.453,0,0,0,.679-.709,3.391,3.391,0,0,0,.227-3.282,8.186,8.186,0,0,0-2.78-3.056c-1.907-1.5-3.259-2.847-3.574-5.317.013-.11.028-.22.035-.333.021-.307-.413-.325-.5-.065a.206.206,0,0,0-.08.2c.007.07.019.136.028.205-.467,3.389-4.175,3.056-5.478,5.785a3.014,3.014,0,0,0-.282,1.788c-.018,0-.035,0-.053,0A6.023,6.023,0,0,0,83.147,327.646Z" transform="translate(-76.35 -316.941)"/><path class="j" d="M75.243,344.923a24.549,24.549,0,0,0,6.219,3.107,13.9,13.9,0,0,0,5.242.631,6.1,6.1,0,0,0,4.217-1.7c.059-.067.113-.138.167-.21a.32.32,0,0,0-.039-.021,5.509,5.509,0,0,0-2.347-5.944,2.452,2.452,0,0,1-.679.708,6.889,6.889,0,0,1-4.349.717,7.948,7.948,0,0,1-2.96-1.085A15.716,15.716,0,0,1,78,339.255a6.023,6.023,0,0,1-1.754-2.548c-2.358-.057-3.916,2.662-3.566,4.889C72.6,343.083,74.153,344.2,75.243,344.923Z" transform="translate(-71.204 -328.55)"/><path class="i" d="M89.059,353.712l0,0c-.054.071-.108.143-.167.21a6.1,6.1,0,0,1-4.217,1.7,13.9,13.9,0,0,1-5.242-.631,24.551,24.551,0,0,1-6.219-3.107c-1.09-.722-2.64-1.84-2.562-3.327a6.464,6.464,0,0,0-.889,1.417,6.67,6.67,0,0,0,.334,6.114,8.394,8.394,0,0,0,.8,1.16c1.935,2.365,5.008,3.542,7.977,4.047,3.1.527,6.967,1.018,9.645-1.023a5.043,5.043,0,0,0,.474-.411c.008-.008.014-.017.022-.025a5.016,5.016,0,0,0,.438-.5,4.868,4.868,0,0,0,.571-.938A3.86,3.86,0,0,0,89.059,353.712Z" transform="translate(-69.172 -335.51)"/></g></g></g></svg>