<svg xmlns="http://www.w3.org/2000/svg" width="103" height="29.906" viewBox="0 0 103 29.906"><defs><style>.a,.c{fill:#fff;}.a{stroke:#416545;stroke-width:2px;}.b{fill:#416545;}.c{font-size:18px;font-family:GenJyuuGothic-P-Heavy, Gen Jyuu Gothic P;font-weight:800;letter-spacing:0.05em;}.d{stroke:none;}.e{fill:none;}</style></defs><g transform="translate(-45 -43)"><g class="a" transform="translate(70 46)"><rect class="d" width="78" height="25" rx="12.5"/><rect class="e" x="1" y="1" width="76" height="23" rx="11.5"/></g><path class="b" d="M296.1,504.689a.588.588,0,0,1-.049.071,5.375,5.375,0,0,1-.806.808,6.73,6.73,0,0,1-1.008.667,12.463,12.463,0,0,1-2.3.929c-.633.2-1.275.363-1.914.535a32.133,32.133,0,0,1-7.093,1.091,29.626,29.626,0,0,1-6.877-.511,27.7,27.7,0,0,1-3.144-.807,14.721,14.721,0,0,1-2.052-.7,2.984,2.984,0,0,1-.857-.605,1.948,1.948,0,0,1-.427-.637,1.074,1.074,0,0,1,.087-.783c.18-.578.315-1.168.459-1.755.048-.2.451-2.27.5-2.27a9.959,9.959,0,0,0,3.073.134c.45-.058.455-.773,0-.714-2.488.319-6.894-.669-7.623-3.485.017-.641.822-.72,1.3-.649a4.049,4.049,0,0,1,.848.29q.621.238,1.263.415a8.662,8.662,0,0,0,5.249,0,5.611,5.611,0,0,0,1.22-.628,2.622,2.622,0,0,0,1.092-1.446,2.154,2.154,0,0,0-.179-1.557,2.571,2.571,0,0,0-1.265-1.138,3.969,3.969,0,0,0-.67-.205,6.458,6.458,0,0,0-.7-.093c-.493-.061-.982-.155-1.469-.254l-.145-.029a18.585,18.585,0,0,1-3.1-.879,3.879,3.879,0,0,1-2.087-1.437c-.4-.752.205-1.525.867-1.854a3.993,3.993,0,0,0,.919-.585,2.472,2.472,0,0,0,.616-1.071c.126-.327.265-.647.423-.96a9.731,9.731,0,0,1,1.079-1.689,9.97,9.97,0,0,1,2.925-2.47,11.71,11.71,0,0,1,3.62-1.285,13.553,13.553,0,0,1,3.924-.131,13.773,13.773,0,0,1,3.836.993,12.4,12.4,0,0,1,3.281,2.02c2.961,2.554,4.115,6.383,5.2,10,.3.986.57,1.978.816,2.977s.465,2.01.647,3.026.327,2.035.43,3.06.161,2.061.169,3.094A.939.939,0,0,1,296.1,504.689Z" transform="translate(-221.065 -435.91)"/><text class="c" transform="translate(58 66)"><tspan x="0" y="0">1</tspan></text><rect class="b" width="26" height="11" rx="5.5" transform="translate(76 53)"/></g></svg>