<svg xmlns="http://www.w3.org/2000/svg" xmlns:xlink="http://www.w3.org/1999/xlink" width="127.255" height="77.993" viewBox="0 0 127.255 77.993"><defs><style>.a{fill:red;}.b{fill:#b2804d;}.c{fill:#ba9264;}.d{fill:#fff;}.e{fill:url(#e);}.f{filter:url(#c);}.g{filter:url(#a);}</style><filter id="a" x="0" y="0" width="127.255" height="77.993" filterUnits="userSpaceOnUse"><feOffset dy="3" input="SourceAlpha"/><feGaussianBlur stdDeviation="3" result="b"/><feFlood flood-color="#fff" flood-opacity="0.161"/><feComposite operator="in" in2="b"/><feComposite in="SourceGraphic"/></filter><filter id="c" x="8.976" y="5.976" width="109.302" height="60.041" filterUnits="userSpaceOnUse"><feOffset input="SourceAlpha"/><feGaussianBlur stdDeviation="1.417" result="d"/><feFlood flood-opacity="0.702"/><feComposite operator="in" in2="d"/><feComposite in="SourceGraphic"/></filter><linearGradient id="e" x1="0.5" x2="0.5" y2="1" gradientUnits="objectBoundingBox"><stop offset="0" stop-color="#c4e2bd"/><stop offset="0.12" stop-color="#a8c4a2"/><stop offset="0.296" stop-color="#87a081"/><stop offset="0.473" stop-color="#6d8467"/><stop offset="0.65" stop-color="#5a7054"/><stop offset="0.825" stop-color="#4f6449"/><stop offset="1" stop-color="#4c6046"/></linearGradient></defs><g transform="translate(-507.891 -91.568)"><g transform="translate(516.891 97.568)"><rect class="a" width="8.451" height="2.366" transform="translate(26.181 27.388)"/><path class="a" d="M538.028,133.289l1.3-.531a1.935,1.935,0,0,0,.677-.725,3.791,3.791,0,0,0,.193-1.594v-.483h-2.173Z" transform="translate(-520.154 -102.569)"/><rect class="a" width="4.491" height="2.173" transform="translate(28.257 38.061)"/><path class="a" d="M548.4,122h7.341l.773-1.642h-8.886Z" transform="translate(-521.636 -101.087)"/><path class="a" d="M565.1,131.454c-.048.676.241,1.014.917,1.014h1.208v-2.511H565.1Z" transform="translate(-524.333 -102.569)"/><rect class="a" width="2.318" height="6.665" transform="translate(40.573 37.191)"/><g class="g" transform="matrix(1, 0, 0, 1, -9, -6)"><path class="b" d="M626.146,111.433a10.539,10.539,0,0,0-2.916-7.77,10.4,10.4,0,0,0-7.617-2.907h-6.489c-.108-.109-.219-.217-.332-.322a10.429,10.429,0,0,0-7.232-2.865H596a10.205,10.205,0,0,0-7.567,3.187h-7.984a10.516,10.516,0,0,0-6.98,2.371,10.849,10.849,0,0,0-6.253-1.792H557.081l-.336-.384-.426-.373a10.564,10.564,0,0,0-7.065-2.623H545.39a10.353,10.353,0,0,0-7.189,2.822c-.194.18-.381.367-.56.558H527.327a10.29,10.29,0,0,0-7.525,2.911,10.542,10.542,0,0,0-2.911,7.767v2.8a10.938,10.938,0,0,0,1.449,5.612V147.51l.035.385a10.523,10.523,0,0,0,2.919,6.406,10.178,10.178,0,0,0,7.578,3.162h3.864a10.534,10.534,0,0,0,7.118-2.67l.256-.227h9.39a10.523,10.523,0,0,0,7.48,2.9h7.873a12.826,12.826,0,0,0,5.589-1.158,10.771,10.771,0,0,0,4.174,1.22l.316.029.317.005.333,0a18.88,18.88,0,0,0,8.8-2.116q.162.112.322.213a12.115,12.115,0,0,0,6.615,1.8h21.443a11.237,11.237,0,0,0,7.742-2.576l.025-.021.024-.022a11.06,11.06,0,0,0,3.514-8.445V131.138a13.431,13.431,0,0,0-.1-1.609,10.947,10.947,0,0,0,1.3-5.394v-2.511a14.315,14.315,0,0,0-.126-2.067,11.192,11.192,0,0,0,1-4.743Z" transform="translate(-507.89 -91.57)"/></g><rect class="a" width="8.5" height="4.54" transform="translate(80.901 38.882)"/></g><g class="f" transform="matrix(1, 0, 0, 1, 507.89, 91.57)"><path class="c" d="M622.69,112.2a6.406,6.406,0,0,0-1.675-4.778,6.288,6.288,0,0,0-4.63-1.671h-8.544a5.941,5.941,0,0,0-1.174-1.469,6.228,6.228,0,0,0-4.336-1.718h-5.554a6.379,6.379,0,0,0-5.507,3.187H581.225a6.219,6.219,0,0,0-4.583,1.673,6.412,6.412,0,0,0-1.625,4.776v23.037a14.018,14.018,0,0,1-.166,2.453,6,6,0,0,0-2.052.891v-17.4a9.017,9.017,0,0,0-.074-1.173c.041-.044.079-.088.117-.133a6.394,6.394,0,0,0,1.454-4.3v-2.8a6.642,6.642,0,0,0-1.673-4.777,6.287,6.287,0,0,0-4.631-1.673H555.653a6.7,6.7,0,0,0-.946-1.4l-.186-.213-.213-.186a6.4,6.4,0,0,0-4.281-1.577h-3.864a6.334,6.334,0,0,0-5.606,3.38H528.1a6.156,6.156,0,0,0-4.536,1.673,6.644,6.644,0,0,0-1.673,4.777v2.8a6.4,6.4,0,0,0,1.453,4.3q.057.067.117.132c-.044.214-.077.432-.1.653l-.021.211v27.21l.018.193a6.341,6.341,0,0,0,1.759,3.864,5.926,5.926,0,0,0,4.528,1.862h3.864a6.285,6.285,0,0,0,4.307-1.6l.2-.176.174-.2a6.5,6.5,0,0,0,.745-1.036,12.27,12.27,0,0,0,1.772.114H552.33a6.044,6.044,0,0,0,5.422,2.9h7.873c.917,0,3.707,0,5.527-2.047.068-.076.126-.16.189-.239a6.353,6.353,0,0,0,.57.663,5.962,5.962,0,0,0,3.86,1.7l.158.014.159,0,.266,0a14.421,14.421,0,0,0,9.463-3.376,5.316,5.316,0,0,0,1.928,2.134,7.866,7.866,0,0,0,4.346,1.144h21.443a7.342,7.342,0,0,0,4.958-1.53,6.734,6.734,0,0,0,2.12-5.306V131.91a8.555,8.555,0,0,0-.37-2.563c.061-.064.118-.129.173-.191a6.394,6.394,0,0,0,1.4-4.249v-2.511a8.546,8.546,0,0,0-.383-2.76,6.494,6.494,0,0,0,1.252-4.05Z" transform="translate(-508.66 -92.34)"/></g><path class="d" d="M553,118.148h-8.886l.772,1.642h7.341l.773-1.642m6.81,10.625h1.207v-2.511h-2.125v1.5c-.048.676.241,1.014.918,1.014m-15.5-.145h8.451v-2.367h-8.451v2.367m-8.307.966,1.3-.531a1.935,1.935,0,0,0,.676-.725,3.79,3.79,0,0,0,.193-1.594v-.483H536v3.333m22.7,13.136h2.318v-6.665H558.7v6.665m-12.316-3.623h4.492v-2.173h-4.492v2.173m4.106-33.083h-3.864a3.636,3.636,0,0,0-2.559.989,3.372,3.372,0,0,0-1.158,2.391H528.563a3.847,3.847,0,0,0-2.741.93,4.16,4.16,0,0,0-.93,2.983v2.8a3.9,3.9,0,0,0,.841,2.646,2.872,2.872,0,0,0,1.3.862,3.724,3.724,0,0,0-.687,1.829l-.008.085v26.966l.007.077a3.79,3.79,0,0,0,1.08,2.356A3.453,3.453,0,0,0,530.108,152h3.864a3.767,3.767,0,0,0,2.621-.96l.079-.07.069-.079a3.656,3.656,0,0,0,.95-2.466v-.31a4.9,4.9,0,0,0,3.476.987h13.383a3.371,3.371,0,0,0,3.665,2.9h7.873a4.77,4.77,0,0,0,3.631-1.2,5.176,5.176,0,0,0,1.006-3.538V121.722a4.706,4.706,0,0,0-.447-2.177,2.8,2.8,0,0,0,1.1-.78,3.9,3.9,0,0,0,.842-2.646v-2.8a4.158,4.158,0,0,0-.931-2.983,3.9,3.9,0,0,0-2.837-.93H554.25l0-.021a3.959,3.959,0,0,0-.988-2.25l-.074-.085-.085-.075a3.845,3.845,0,0,0-2.61-.949Z" transform="translate(-1.235 -1.306)"/><path class="d" d="M607.836,142.225h8.5v-4.54h-8.5v4.54m3.767-36.657H606.05a3.431,3.431,0,0,0-2.685,1.109,3.532,3.532,0,0,0-1.054,2.078H590.5a3.756,3.756,0,0,0-2.79.93,4.086,4.086,0,0,0-.882,2.982V135.7c0,2.645-.353,3.68-.563,4.062l-.016.03-.015.03c-.315.631-.6.7-.885.709l-.036,0-.036,0a3.548,3.548,0,0,0-2.3,1.021,3.357,3.357,0,0,0-1.027,2.451V148.6a3.362,3.362,0,0,0,1.027,2.452,3.474,3.474,0,0,0,2.3.971l.063.005.063,0,.227,0a12.1,12.1,0,0,0,8.929-3.794,11.279,11.279,0,0,0,2.316-3.394v2.694c0,1.155.156,2.789,1.508,3.649a5.42,5.42,0,0,0,2.985.748h21.443a4.818,4.818,0,0,0,3.287-.9,4.29,4.29,0,0,0,1.254-3.4V132.373A4.643,4.643,0,0,0,626.177,129l-.035-.036-.036-.031a3.124,3.124,0,0,0,1.655-.97,3.83,3.83,0,0,0,.794-2.6v-2.511a4.089,4.089,0,0,0-.882-2.982,2.608,2.608,0,0,0-.4-.326,2.859,2.859,0,0,0,1.307-.855,3.9,3.9,0,0,0,.842-2.646v-3.381a4.048,4.048,0,0,0-.931-2.983,3.9,3.9,0,0,0-2.837-.929H615.306a3.317,3.317,0,0,0-1.1-2.152,3.659,3.659,0,0,0-2.6-1.035Zm-13.28,14.2h7.629v8.16h-4.636a4.909,4.909,0,0,0-2.993.927v-9.087Zm11.2,19.608h5.118v1.158h-5.118v-1.158Z" transform="translate(-10.045 -1.235)"/><path class="e" d="M568.764,149.993a3.159,3.159,0,0,1-2.367.628h-7.873c-1.351,0-2.028-.628-2.028-1.932v-.966h-15.02c-1.3,0-2.028-.194-2.318-.532a2.129,2.129,0,0,1-.436-1.5V136.47l-2.414.967v11.3a1.983,1.983,0,0,1-.531,1.352,2.117,2.117,0,0,1-1.5.532h-3.864a1.8,1.8,0,0,1-1.449-.532,2.084,2.084,0,0,1-.628-1.352v-26.8a2.082,2.082,0,0,1,.628-1.3,1.97,1.97,0,0,1,1.449-.531h6.279l-.725-1.642h-7.1a1.913,1.913,0,0,1-1.546-.483,2.271,2.271,0,0,1-.435-1.546v-2.8a2.584,2.584,0,0,1,.435-1.788,2.114,2.114,0,0,1,1.546-.435H544.9V109.86a1.686,1.686,0,0,1,.628-1.3,1.93,1.93,0,0,1,1.4-.531H550.8a2.174,2.174,0,0,1,1.5.531,2.287,2.287,0,0,1,.579,1.3V111.4h15.89a2.311,2.311,0,0,1,1.641.435,2.583,2.583,0,0,1,.435,1.788v2.8a2.272,2.272,0,0,1-.435,1.546,2.085,2.085,0,0,1-1.641.483h-7l-.725,1.642h6.182a3.364,3.364,0,0,1,1.739.338,2.554,2.554,0,0,1,.386,1.594v25.547A3.753,3.753,0,0,1,568.764,149.993Zm-30.475-21.346a3.79,3.79,0,0,0,.193-1.594v-.483h-2.173V129.9l1.3-.531A1.935,1.935,0,0,0,538.289,128.647Zm14.247-8.548.773-1.642h-8.886l.772,1.642Zm.531,6.471h-8.451v2.367h8.451Zm-1.883,12.846v-2.173h-4.492v2.173Zm10.142-3.042h-2.318v6.665h2.318Zm-2.125-9.8v1.5c-.048.676.241,1.014.918,1.014h1.207V126.57Z" transform="translate(-1.544 -1.615)"/><path class="e" d="M593.657,147.363a10.368,10.368,0,0,1-7.921,3.284,1.832,1.832,0,0,1-1.255-.483,1.672,1.672,0,0,1-.532-1.256V144.32a1.672,1.672,0,0,1,.532-1.256,1.869,1.869,0,0,1,1.255-.531,2.632,2.632,0,0,0,2.318-1.642,10.919,10.919,0,0,0,.773-4.878V112.976a2.714,2.714,0,0,1,.386-1.787,2.252,2.252,0,0,1,1.594-.435h13.475V109.4a1.859,1.859,0,0,1,.628-1.256,1.756,1.756,0,0,1,1.449-.579h5.554a1.964,1.964,0,0,1,1.449.579,1.627,1.627,0,0,1,.58,1.256v1.352h12.025a2.312,2.312,0,0,1,1.642.435,2.672,2.672,0,0,1,.435,1.787v3.381a2.276,2.276,0,0,1-.435,1.546,2.086,2.086,0,0,1-1.642.483h-9.128v2.56H625.1a2.452,2.452,0,0,1,1.69.435,2.709,2.709,0,0,1,.386,1.787v2.511a1.71,1.71,0,0,1-2.077,2.029h-8.259v2.221h6.23a3.4,3.4,0,0,1,2.221.579,3.081,3.081,0,0,1,.677,2.174v15.261a2.79,2.79,0,0,1-.677,2.124,3.519,3.519,0,0,1-2.173.484H601.674a3.78,3.78,0,0,1-2.077-.484c-.531-.337-.725-1.11-.725-2.221V132.73a2.7,2.7,0,0,1,.725-2.173,3.177,3.177,0,0,1,2.029-.628h6.327V118.386H596.941v18.739C596.941,141.761,595.878,145.142,593.657,147.363Zm22.989-4.829v-4.54h-8.5v4.54Z" transform="translate(-10.354 -1.544)"/></g></svg>