<svg xmlns="http://www.w3.org/2000/svg" width="17" height="20" viewBox="0 0 17 20"><defs><style>.a{fill:#416545;}</style></defs><g transform="translate(-2450.912 -324.176)"><path class="a" d="M2450.912,339.462v-.176a1.748,1.748,0,0,1,.621-1.1,5.494,5.494,0,0,0,1.941-4.3c0-.786-.007-1.571,0-2.356a5.006,5.006,0,0,1,.077-.843,5.883,5.883,0,0,1,4.893-4.754c.094-.016.124-.052.122-.142,0-.259,0-.517,0-.776a.778.778,0,0,1,.257-.6.822.822,0,0,1,.883-.182.778.778,0,0,1,.549.73c.016.272.011.546.005.819,0,.107.037.139.14.156a5.486,5.486,0,0,1,1.9.654,5.758,5.758,0,0,1,3.056,5.184c.011.727,0,1.454,0,2.181a5.536,5.536,0,0,0,.917,3.086,6.467,6.467,0,0,0,1.165,1.286,1.4,1.4,0,0,1,.337,1.637,1.468,1.468,0,0,1-1.442.876q-6.924,0-13.847,0c-.054,0-.109,0-.164-.005a1.41,1.41,0,0,1-1.183-.707A3.748,3.748,0,0,1,2450.912,339.462Z" transform="translate(0 0)"/><path class="a" d="M2492.919,456.626c-.23-.058-.466-.1-.688-.177a3.089,3.089,0,0,1-2.042-2.178c-.01-.037-.015-.076-.025-.127h6.24c-.066.2-.113.388-.194.566a3.147,3.147,0,0,1-2.506,1.891.408.408,0,0,0-.068.024Z" transform="translate(-33.858 -112.45)"/></g></svg>