<svg xmlns="http://www.w3.org/2000/svg" width="160.006" height="184" viewBox="0 0 160.006 184"><defs><style>.a{fill:#90af89;}.b,.c{fill:#fff;}.b{font-size:12px;font-family:CP&U-Fo, 'CP & U-Fo';letter-spacing:0.05em;}</style></defs><g transform="translate(-215.37 -628)"><path class="a" d="M286.815-311.086V-437.853c2.556-10.1-9.8-16.884-17.881-19.4-11.351-3.531-31.067-1.782-38.79,8.591-.111.149-.2.312-.3.465l7.6,3.814-9.724.086a27.119,27.119,0,0,0-1.7,12.8c.581,6,2.732,11.727,5.182,17.221,1.653,3.709,3.477,7.43,4,11.466s-.526,8.549-3.7,11.039c-4.16,3.262-9.636,1.92-15.034.707q-.163,7.823-.326,15.644l-2.559-16.252c-.69-.131-1.376-.251-2.052-.34a24.189,24.189,0,0,0-18.614,5.557,24.889,24.889,0,0,0-8.54,17.664c-.173,4.242.743,8.447.953,12.686s-.414,8.8-3.168,11.993c0,0-4.822,3.762-7.262,3.987l-1.14,10.22-7.252-9.622c-2.889-.149-5.778-.441-8.668-.339a32.227,32.227,0,0,0-24.8,13.5,33.174,33.174,0,0,0-4.543,28.165s3.317,16.982,25.938,23.279H287.157v-36.2Z" transform="translate(88.22 1086.911)"/><text class="b" transform="translate(288 776)"><tspan x="0" y="0">恐龍訓練場</tspan></text><g transform="translate(-1418.051 153.498)"><rect class="c" width="14.041" height="7.345" transform="translate(1730.719 584.014)"/><path class="c" d="M1.749,0h0A4.869,4.869,0,0,1,6.618,4.869V18.975a4.869,4.869,0,0,1-4.869,4.869h0A1.749,1.749,0,0,1,0,22.1V1.749A1.749,1.749,0,0,1,1.749,0Z" transform="translate(1746.029 575.764)"/><path class="c" d="M0,0H0A3.513,3.513,0,0,1,3.513,3.513v3.03A3.513,3.513,0,0,1,0,10.055H0a0,0,0,0,1,0,0V0A0,0,0,0,1,0,0Z" transform="translate(1753.916 582.659)"/><path class="c" d="M1.749,0h0A4.869,4.869,0,0,1,6.618,4.869V18.975a4.869,4.869,0,0,1-4.869,4.869h0A1.749,1.749,0,0,1,0,22.1V1.749A1.749,1.749,0,0,1,1.749,0Z" transform="translate(1729.45 599.608) rotate(-180)"/><path class="c" d="M0,0H0A3.513,3.513,0,0,1,3.513,3.513v3.03A3.513,3.513,0,0,1,0,10.055H0a0,0,0,0,1,0,0V0A0,0,0,0,1,0,0Z" transform="translate(1721.563 592.714) rotate(180)"/></g></g></svg>