<svg xmlns="http://www.w3.org/2000/svg" xmlns:xlink="http://www.w3.org/1999/xlink" width="224" height="223" viewBox="0 0 224 223"><defs><style>.a{fill:#fff;stroke:#95bb80;stroke-width:3px;}.b,.e{fill:#555;}.b{font-size:12px;}.b,.c,.e{font-family:GenJyuuGothic-P-Bold, Gen Jyuu Gothic P;font-weight:700;letter-spacing:0.05em;}.c{fill:#c1c1c1;}.c,.e{font-size:10px;}.d{font-family:PingFangTC-Semibold, PingFang TC;font-weight:600;}.f{fill:#606060;}.g{stroke:none;}.h{fill:none;}.i{filter:url(#a);}</style><filter id="a" x="0" y="0" width="224" height="223" filterUnits="userSpaceOnUse"><feOffset dy="3" input="SourceAlpha"/><feGaussianBlur stdDeviation="3" result="b"/><feFlood flood-opacity="0.161"/><feComposite operator="in" in2="b"/><feComposite in="SourceGraphic"/></filter></defs><g transform="translate(-76 -319)"><g class="i" transform="matrix(1, 0, 0, 1, 76, 319)"><g class="a" transform="translate(12 9)"><rect class="g" width="200" height="199" rx="17"/><rect class="h" x="-1.5" y="-1.5" width="203" height="202" rx="18.5"/></g></g><text class="b" transform="translate(175 404)"><tspan x="0" y="0">烏雲</tspan></text><text class="c" transform="translate(99 433)"><tspan x="0" y="11">可以隨著手機的晃動而跟隨著屁頭龍</tspan><tspan x="0" y="25">的烏雲，撐著荷葉小雨傘可以防止淋到</tspan><tspan x="0" y="39">雨</tspan><tspan class="d" y="39">唷</tspan><tspan y="39">！</tspan></text><text class="e" transform="translate(172 420)"><tspan x="0" y="0">$1500</tspan></text><path class="f" d="M1019.693,61.859a7.687,7.687,0,0,1-4,.718,9.962,9.962,0,0,1-4.444-1.113,16.306,16.306,0,0,0,.224-1.72,9.106,9.106,0,0,0-.465-4.186c-.182-.455-.928-.257-.743.2a10.165,10.165,0,0,1-.289,7.284,9.58,9.58,0,0,1-4.5,4.5,18.658,18.658,0,0,1-7.224,1.78,8.291,8.291,0,0,1-6.731-2.283c-.319-.323-.531.069-.714.309a7.873,7.873,0,0,1-.829.9,10.325,10.325,0,0,1-2.117,1.546,12.744,12.744,0,0,1-8.231,1.353c-4.013-.717-7.762-4.208-6.914-8.586.094-.485-.649-.692-.743-.205a7.17,7.17,0,0,0,.142,3.363.384.384,0,0,0-.073.1c-1.189,2.393-4.06,2.756-6.389,2.015-2.456-.782-4.589-2.775-4.585-5.495a.386.386,0,0,0-.771,0,5.705,5.705,0,0,0,.246,1.674c-2.559,1.172-5.848.709-8.419-.22a10.145,10.145,0,0,1-5.978-5.3c-2.472-5.5-.945-12.639,4.109-16.129a11.534,11.534,0,0,1,9.971-1.586c.225.077.348-.041.416-.247s.146-.422.218-.633q.091-.261.182-.522c.122-.348.247-.695.377-1.04.259-.69.538-1.372.86-2.035q.242-.5.517-.977a13.657,13.657,0,0,1,3.494-4.093,15.931,15.931,0,0,1,4.875-2.674,23.87,23.87,0,0,1,5.859-.954,17.652,17.652,0,0,1,10.28,2.361,19.482,19.482,0,0,1,6.919,7.219A20.513,20.513,0,0,1,996.8,47.944c-.019.5.752.5.771,0a21.248,21.248,0,0,0-1.89-9.54,13.712,13.712,0,0,1,8.447,1.924,14.438,14.438,0,0,1,6.064,6.2c.239.514.8-.166,1.005-.368a4.98,4.98,0,0,1,1.725-.97,7.36,7.36,0,0,1,4.164-.341,9.345,9.345,0,0,1,5.629,4.308C1025.383,53.407,1024.452,59.541,1019.693,61.859Z" transform="translate(-796.188 308.252)"/></g></svg>