<svg xmlns="http://www.w3.org/2000/svg" width="26.168" height="35.566" viewBox="0 0 26.168 35.566"><defs><style>.a{fill:#fff;}</style></defs><g transform="translate(-1492.845 -535.677)"><path class="a" d="M1530.24,688.11a2.838,2.838,0,0,0,3.042,2.628h2.5c.869,0,1.737,0,2.606,0a2.878,2.878,0,0,0,2.977-2.963c.006-.878.022-1.757.013-2.635H1530.14C1530.182,686.13,1530.121,687.13,1530.24,688.11Z" transform="translate(-29.818 -119.497)"/><path class="a" d="M1518.973,547.973a12.627,12.627,0,0,0-6.83-10.69,12.3,12.3,0,0,0-9.162-1.214,13.058,13.058,0,0,0-7.75,5.328,12.5,12.5,0,0,0-2.25,9.2,12.84,12.84,0,0,0,4.723,8.336,6.24,6.24,0,0,1,2.377,3.5,9.666,9.666,0,0,1,.162,1.288h11.338a7.19,7.19,0,0,1,2.794-5.011A12.12,12.12,0,0,0,1518.973,547.973Zm-14.017-3.957a.952.952,0,0,1,.708-.3h.57a.951.951,0,0,1,.708.3.932.932,0,0,1,.276.716l-.017,1.312-.483,5.783a.735.735,0,0,1-.241.518.8.8,0,0,1-1.071,0,.732.732,0,0,1-.241-.518l-.466-5.783-.017-1.312A.931.931,0,0,1,1504.956,544.016Zm2.124,12.611a1.719,1.719,0,0,1-2.279,0,1.438,1.438,0,0,1-.466-1.1,1.466,1.466,0,0,1,.466-1.113,1.694,1.694,0,0,1,2.279,0,1.465,1.465,0,0,1,.466,1.113A1.437,1.437,0,0,1,1507.079,556.627Z" transform="translate(0 0)"/></g></svg>