<svg xmlns="http://www.w3.org/2000/svg" width="20" height="20" viewBox="0 0 20 20"><defs><style>.a{fill:#416545;}</style></defs><g transform="translate(-2235.719 -323.126)"><path class="a" d="M2247.183,343.126h-2.933c-.3-.777-.608-1.55-.9-2.331a.89.89,0,0,0-1.387-.574c-.536.262-1.073.525-1.6.8a.755.755,0,0,1-1.01-.168q-.66-.7-1.363-1.361a.753.753,0,0,1-.168-1.009c.277-.528.541-1.064.8-1.6a.891.891,0,0,0-.576-1.385c-.781-.288-1.556-.6-2.333-.895v-2.929c.779-.3,1.555-.607,2.338-.9a.893.893,0,0,0,.569-1.391,13.711,13.711,0,0,1-.778-1.611,1.149,1.149,0,0,1,.134-.93,19.353,19.353,0,0,1,1.388-1.43.764.764,0,0,1,1.017-.149c.529.279,1.067.541,1.6.8a.883.883,0,0,0,1.347-.55,18.465,18.465,0,0,1,.633-1.815,1.052,1.052,0,0,1,.708-.525,9.156,9.156,0,0,1,2.058,0,1.138,1.138,0,0,1,.743.571,15.616,15.616,0,0,1,.611,1.752.878.878,0,0,0,1.336.571c.538-.26,1.077-.52,1.6-.8a.8.8,0,0,1,1.07.177c.427.45.863.894,1.319,1.315a.788.788,0,0,1,.171,1.068c-.279.528-.542,1.065-.8,1.6a.875.875,0,0,0,.574,1.334c.586.2,1.172.407,1.766.583a.741.741,0,0,1,.589.833q-.026.964,0,1.928a.744.744,0,0,1-.608.821c-.594.178-1.18.38-1.767.581a.878.878,0,0,0-.547,1.346c.243.5.484,1,.75,1.48a.874.874,0,0,1-.187,1.234,13.591,13.591,0,0,0-1.223,1.221.846.846,0,0,1-1.181.174c-.485-.266-.985-.506-1.482-.75a.893.893,0,0,0-1.393.566C2247.792,341.572,2247.483,342.347,2247.183,343.126Zm-1.46-14.088a4.1,4.1,0,1,0,4.1,4.127A4.155,4.155,0,0,0,2245.723,329.037Z"/><path class="a" d="M2301.141,387.025a1.741,1.741,0,1,1-1.724-1.723A1.717,1.717,0,0,1,2301.141,387.025Z" transform="translate(-53.684 -53.9)"/></g></svg>