<svg xmlns="http://www.w3.org/2000/svg" xmlns:xlink="http://www.w3.org/1999/xlink" width="224" height="223" viewBox="0 0 224 223"><defs><style>.a{fill:#fff;stroke:#95bb80;stroke-width:3px;}.b,.d{fill:#555;}.b{font-size:12px;}.b,.c,.d{font-family:GenJyuuGothic-P-Bold, Gen Jyuu Gothic P;font-weight:700;letter-spacing:0.05em;}.c{fill:#c1c1c1;}.c,.d{font-size:10px;}.e{fill:#442626;}.f{fill:#4f2b2b;}.g{stroke:none;}.h{fill:none;}.i{filter:url(#a);}</style><filter id="a" x="0" y="0" width="224" height="223" filterUnits="userSpaceOnUse"><feOffset dy="3" input="SourceAlpha"/><feGaussianBlur stdDeviation="3" result="b"/><feFlood flood-opacity="0.161"/><feComposite operator="in" in2="b"/><feComposite in="SourceGraphic"/></filter></defs><g transform="translate(-76 -319)"><g class="i" transform="matrix(1, 0, 0, 1, 76, 319)"><g class="a" transform="translate(12 9)"><rect class="g" width="200" height="199" rx="17"/><rect class="h" x="-1.5" y="-1.5" width="203" height="202" rx="18.5"/></g></g><text class="b" transform="translate(150 404)"><tspan x="0" y="0">酒紅色鴨舌帽</tspan></text><text class="c" transform="translate(99 438)"><tspan x="0" y="11">YO</tspan><tspan y="11">屁頭龍～嘻哈鴨舌帽～</tspan></text><text class="d" transform="translate(172 420)"><tspan x="0" y="0">$1200</tspan></text><g transform="translate(-344.926 -8.851)"><path class="e" d="M531.235,395.126a.4.4,0,0,0-.17-.336,30.39,30.39,0,0,0-6.67-3.622q-3.219-1.979-6.369-4.07a.414.414,0,0,0-.5,0,21.261,21.261,0,0,1-7.71-11.322.457.457,0,0,0-.129-.219.5.5,0,0,0-.832-.271c-1.753,1.674-3.909,1.706-6.146,2.173-1.9.4-3.776.96-5.65,1.463a19.173,19.173,0,0,0-3.434,1.128,4.972,4.972,0,0,0-2.385,2.127,5.46,5.46,0,0,0,.017,3.649,13.636,13.636,0,0,0,1.305,3.237,19.334,19.334,0,0,0,4.691,5.617,12.324,12.324,0,0,0,3.772,2.2c9.33,3.155,20.742.256,30.214-.771C531.867,396.049,531.874,395.057,531.235,395.126Z" transform="translate(0 -5.393)"/><path class="e" d="M587.809,399.206c.063-.576.107-1.151.117-1.726.006,0,.012,0,.018-.009q1.267-.934,2.5-1.912c.3-.239.64-.479.963-.738C591.881,396.506,589.985,398.059,587.809,399.206Z" transform="translate(-22.481 -9.455)"/><path class="f" d="M577.214,383.506c-.421-2.009-.394-4.007-.745-6-.612-3.492-3.131-7.7-5.107-10.59s-2.588-6.064-5.5-8.32c-3.656-2.831-8.6-3.77-12.943-5.051a.465.465,0,0,0-.24-.009,28.567,28.567,0,0,0-3.024-1.208.509.509,0,0,0-.378-.25c-3.847-.5-7.679-1.282-11.547-.654a32.662,32.662,0,0,0-10.576,3.473,20.377,20.377,0,0,0-6.365,5.36,43.543,43.543,0,0,0-2.71,4.6c-1.244,2.11-2.937,3.555-4.54,5.355-.01.01-.01.021-.019.032a.443.443,0,0,0-.151.359c.13,5.9,6.7,9.94,11.049,12.957,6.03,4.181,11.787,9.132,19.484,8.892a124.573,124.573,0,0,1,12.551-.119c3.729.257,7.752,1.3,11.467.408,1.744-.42,3.276-1.386,4.977-1.916a9.3,9.3,0,0,0,2.872-1.01,3.494,3.494,0,0,0,1.451-2.482A7.5,7.5,0,0,0,577.214,383.506Zm-4.785,2.467c-.2-1.484-1.8-4.79-.634-6.1.01-.008.022-.01.033-.018a12.161,12.161,0,0,1,2.769-1.681,5.146,5.146,0,0,0,.853-.522c.146,1.109.061,2.167.2,3.324.129,1.052.4,1.975.6,2.9a6.244,6.244,0,0,1-1.877,1.737c-.606.478-1.224.94-1.845,1.4C572.506,386.672,572.477,386.323,572.429,385.973Zm.007,3.967c.063-.572.107-1.144.117-1.715.006,0,.012,0,.018-.009q1.268-.928,2.5-1.9c.3-.237.64-.475.963-.733C576.508,387.258,574.612,388.8,572.436,389.939Z" transform="translate(-7.108 -0.168)"/><path class="e" d="M562.745,352.721a2.6,2.6,0,0,0-1.434-1.462,6.051,6.051,0,0,0-3.611-.824,1.486,1.486,0,0,0-1.32,1.4c.012,1.717,1.885,2.568,3.344,2.66C560.758,354.565,563.319,354.451,562.745,352.721Z" transform="translate(-15.219 0)"/></g></g></svg>