<svg xmlns="http://www.w3.org/2000/svg" width="54.504" height="31.154" viewBox="0 0 54.504 31.154"><defs><style>.a{fill:#404653;}.b{fill:#2d3340;}</style></defs><g transform="translate(-249.524 -186.958)"><path class="a" d="M303.906,210.891c-.329-1.133-1.829-1.587-2.913-2.105a20.882,20.882,0,0,1-5.181-3.83,5.85,5.85,0,0,1-2.161-3.336c-.267-1.352-.259-2.709-.463-4.066-.219-1.453-.308-2.864-.417-4.312a4.173,4.173,0,0,0-2.1-3.223,10.883,10.883,0,0,0-3.945-1.77c-1.918-.386-3.667.112-5.543.175a.246.246,0,0,0-.162-.038c-1.762.144-3.346-.514-5.051-.755-.777-.11-1.578-.15-2.354-.268-2.217-.335-4.758-.728-6.9.044-2.524.91-3.966,1.758-4.68,3.943-.357,1.091-.734,2.18-1.047,3.276-.376,1.32-1.126,2.49-1.613,3.775a9.936,9.936,0,0,1-2.623,1.344c-1,.419-2.114.717-3.145,1.088-1.925.692-3.717,1.228-4.088,3.053a.19.19,0,0,0,.076.19c.074,3.717,3.372,5.967,6.871,7.995a16.247,16.247,0,0,0,5.957,1.809c2.623.361,5.033,1.335,7.58,1.945a73.178,73.178,0,0,0,11.391,2.092,49.564,49.564,0,0,0,8.736.006,24.533,24.533,0,0,0,6.721-1.229,20.5,20.5,0,0,0,6.049-3.794C303.708,212.153,304.29,211.56,303.906,210.891Z" transform="translate(0 0)"/><path class="b" d="M273.99,220.27c.019.163-.031.328-.009.469s.045.31.059.461a1.889,1.889,0,0,0,.157.422l.055.108.026.054a.38.38,0,0,1,.025.09.312.312,0,0,0,.056.192l.1.2.047.1a.412.412,0,0,0,.059.073.657.657,0,0,1,.162.258.966.966,0,0,0,.036.094c.017.033.035.066.055.1.083.132.179.267.28.4.116.151.131.316.264.425-.2-.053-.293-.235-.421-.32a2.923,2.923,0,0,1-.4-.368c-.03-.035-.06-.07-.087-.107a.887.887,0,0,1-.071-.127.367.367,0,0,0-.122-.151.617.617,0,0,1-.107-.12l-.061-.117-.121-.235a.63.63,0,0,1-.055-.139,1.109,1.109,0,0,1-.012-.129.11.11,0,0,0,0-.025l-.025-.057-.048-.113a1.477,1.477,0,0,1-.1-.5c.012-.165.034-.323.06-.487A2.265,2.265,0,0,1,273.99,220.27Z" transform="translate(-14.199 -22.027)"/><path class="b" d="M285.489,234.514c1.189.489,2.453.9,3.623,1.375.05.015.136.024.246.061a.756.756,0,0,1,.152.073c.035.021.031.015.034.016-.017,0,.016,0,.08,0a.474.474,0,0,1,.128.02.609.609,0,0,1,.1.039.338.338,0,0,0,.159.058c.34.056.663.158.983.2l.473.071.125.02c.057.009.109.021.156.034l.237.069c.128.028.307.048.458.073.183.029.356.075.51.111.283.069.641.107.96.163a2.347,2.347,0,0,1,.27.07c.012.006.126.019.215.034s.2.029.253.04.127.02.209.028a2.925,2.925,0,0,1,.555.1,1.665,1.665,0,0,0,.195.046,1.852,1.852,0,0,1,.288.048c.219.061.365.137.47.164l.451.1c.318.064.63.125.935.159a6.713,6.713,0,0,1,1.046.164c.059.019.21.013.44.037l.514.088a1.418,1.418,0,0,0,.183.014l.134.005a1.153,1.153,0,0,1,.21.031c.113.024.029.013.115.015a1.187,1.187,0,0,1,.337.025l.254.054a.809.809,0,0,0,.174.019c.125,0,.309-.01.491-.007l1,0,1.988,0c.156,0,.309-.013.457-.03.13-.017.348-.048.5-.062a3.4,3.4,0,0,0,.449-.069,2.913,2.913,0,0,1,.576-.033l1.007-.056c.167-.007.349-.021.5-.016a1.334,1.334,0,0,0,.393-.047c.139-.037.3-.095.49-.138s.336-.054.505-.082c.327-.056.666-.088.956-.168.305-.086.669-.165.962-.251l.466-.128a1.463,1.463,0,0,0,.395-.165,1.719,1.719,0,0,1,.5-.2.452.452,0,0,0,.165-.071l.106-.063.105-.054c.055-.03.114-.077.187-.125a1.086,1.086,0,0,1,.246-.117,1.758,1.758,0,0,0,.408-.2c.133-.084.285-.163.417-.231a2.065,2.065,0,0,0,.337-.28c.226-.2.476-.393.709-.587-.205.219-.417.426-.611.65a2,2,0,0,1-.331.33c-.143.089-.265.167-.387.259a1.937,1.937,0,0,1-.422.255.726.726,0,0,0-.177.1c-.053.042-.11.1-.187.149l-.1.063-.09.065a.81.81,0,0,1-.264.136,1.236,1.236,0,0,0-.377.19,1.788,1.788,0,0,1-.477.233l-.474.159c-.329.114-.607.19-.928.3a8.409,8.409,0,0,1-.99.224c-.157.032-.34.063-.474.1s-.274.093-.45.148a2.126,2.126,0,0,1-.59.1c-.181,0-.332.022-.5.035l-.993.081a2.55,2.55,0,0,0-.421.025,4.389,4.389,0,0,1-.533.1c-.179.022-.29.042-.489.073-.182.026-.363.041-.54.049-.709.02-1.347.01-2.025.017l-1,0c-.152,0-.3.012-.511.01a1.836,1.836,0,0,1-.323-.031l-.231-.049a.344.344,0,0,0-.158-.017,1.268,1.268,0,0,1-.378-.043.136.136,0,0,0-.035-.007l-.117-.005a2.286,2.286,0,0,1-.315-.03l-.466-.084a3.911,3.911,0,0,1-.554-.062,5.792,5.792,0,0,0-.92-.149,9.452,9.452,0,0,1-1.024-.188l-.244-.057c-.086-.022-.145-.032-.27-.068-.209-.068-.347-.143-.446-.17a1.21,1.21,0,0,0-.2-.035,2.5,2.5,0,0,1-.286-.073,1.941,1.941,0,0,0-.417-.088c-.084-.011-.18-.024-.284-.047s-.156-.028-.238-.043a2.66,2.66,0,0,1-.275-.053c-.117-.035-.155-.055-.2-.063-.332-.072-.638-.112-.993-.211-.164-.046-.309-.09-.453-.119-.175-.037-.328-.056-.52-.108l-.231-.078c-.031-.01-.059-.017-.085-.023l-.12-.024-.507-.1a10.953,10.953,0,0,1-1.885-.583c-.321-.178-.581-.287-.876-.424s-.6-.249-.877-.408c-.071-.036-.144-.08-.2-.1s-.151-.046-.236-.084l-.429-.216c-.142-.071-.277-.154-.427-.214A1.731,1.731,0,0,1,285.489,234.514Z" transform="translate(-21.105 -31.446)"/></g></svg>