<svg xmlns="http://www.w3.org/2000/svg" width="53.474" height="61.037" viewBox="0 0 53.474 61.037"><defs><style>.a{fill:#999;}.b{fill:#cabbab;}.c{fill:#bda991;}.d{fill:none;stroke:#bda991;stroke-miterlimit:10;}.e{fill:#fcfaac;}</style></defs><g transform="translate(-111.315 -171.354)"><path class="a" d="M122.829,242.267a47.679,47.679,0,0,0,10.431,20.451c4.1,4.782,10.307,6.214,16.413,5.994,6.326-.227,11.86-2.972,14.636-8.874,2.975-6.325,1.925-12.94-.882-19.126-.157-.347-.669-.046-.512.3,2.8,6.173,3.789,12.906.582,19.136-3.164,6.147-9.44,8.225-16,7.961a22.74,22.74,0,0,1-9.216-2.05,18.161,18.161,0,0,1-6.118-5.692,47.844,47.844,0,0,1-8.755-18.254c-.087-.372-.661-.219-.574.153Z" transform="translate(-6.042 -36.342)"/><path class="b" d="M161.845,219.048a9.043,9.043,0,0,0-4.3-3.329.277.277,0,0,0-.362.3c0,.006-.01.007-.015.013-1.425,1.841-6.584,1.32-8.721,1.409q-3.819.161-7.641.126a134.628,134.628,0,0,1-15.549-1c-1.812-.228-3.838-.765-5.661-.53a10.183,10.183,0,0,0-4.6,2.3c-2.558,1.944-4.781,3.923-3.1,7.179,3.741,7.236,13.655,9.46,20.918,10.7,8.62,1.473,18.065,2.038,25.581-3.212,2.7-1.887,6.7-5.634,6.37-9.388C164.628,222,162.84,220.3,161.845,219.048Z" transform="translate(0 -23.289)"/><g transform="translate(117.831 172.425)"><path class="b" d="M141.535,195.421a25.182,25.182,0,0,0,17.156-4.551,13.1,13.1,0,0,0,4.424-4.949c-.151-.264-.3-.528-.46-.791-1.478-2.46-2.942-4.957-5.241-6.731a26.168,26.168,0,0,0-5.036-3.084,18.625,18.625,0,0,0-5.647-1.63,22.1,22.1,0,0,0-7.095.718,20.749,20.749,0,0,0-3.383,1.018,18.281,18.281,0,0,0-5.3,3.116,16.576,16.576,0,0,0-2.461,2.627,15.211,15.211,0,0,0-2.717,6.308A25.186,25.186,0,0,0,141.535,195.421Z" transform="translate(-125.423 -173.608)"/><path class="c" d="M162.729,199.621c-.316.416-.518.956-.822,1.4a11.7,11.7,0,0,1-1.04,1.29,16.955,16.955,0,0,1-2.562,2.224,24.915,24.915,0,0,1-32.919-3.4,21.691,21.691,0,0,0,.133,8.405.173.173,0,0,0,.009.019s0,.009.006.014a.253.253,0,0,0,.108.144c4.952,5.165,13.237,7.149,20.179,6.884a33.651,33.651,0,0,0,11.882-2.7,16.794,16.794,0,0,0,4.212-2.482,12.54,12.54,0,0,0,1.7-1.728c.267-.329.517-.672.751-1.025a3.5,3.5,0,0,0,.484-.79,2.651,2.651,0,0,0-.019-1.033,20.363,20.363,0,0,0-1.092-4.906q-.21-.59-.457-1.165A4.676,4.676,0,0,0,162.729,199.621Z" transform="translate(-125.037 -187.269)"/></g><path class="c" d="M163.529,172.022a3.452,3.452,0,0,0-1.566-.638,2.262,2.262,0,0,0-1.011.06,3.365,3.365,0,0,0-.92.482,1.8,1.8,0,0,0-.571.619,1.216,1.216,0,0,0-.117.35c-.007.04-.011.081-.014.122a1.417,1.417,0,0,0,.016.326c.235,1.442,2.43,1.268,3.436,1.006C164.085,174.01,164.768,172.954,163.529,172.022Z" transform="translate(-25.213)"/><path class="d" d="M151.525,176.69a22.51,22.51,0,0,0-8.026,18.165" transform="translate(-16.888 -2.802)"/><path class="d" d="M167.478,176.938a36.6,36.6,0,0,1,11.02,16.9" transform="translate(-29.494 -2.932)"/><ellipse class="a" cx="3.437" cy="4.871" rx="3.437" ry="4.871" transform="matrix(0.99, -0.14, 0.14, 0.99, 114.787, 185.672)"/><ellipse class="e" cx="2.362" cy="3.781" rx="2.362" ry="3.781" transform="matrix(0.99, -0.14, 0.14, 0.99, 114.939, 186.751)"/></g></svg>