<svg xmlns="http://www.w3.org/2000/svg" width="38.885" height="45.747" viewBox="0 0 38.885 45.747"><defs><style>.a{fill:#b9d7b4;}.b{fill:#789c8a;}.c{fill:#76c1e2;}.d{fill:#fff;}</style></defs><g transform="translate(-449.632 -64.142)"><path class="a" d="M486.1,82.972a20.7,20.7,0,0,0-11.728-16.1,28.03,28.03,0,0,0-10.745-2.68,39.183,39.183,0,0,0-6.547.246,3.278,3.278,0,0,0-1.016.213.625.625,0,0,0-.317.279.533.533,0,0,0,0,.423.623.623,0,0,0,.3.3c.233.128.444.276.665.424l.806.542q.808.54,1.619,1.075l.921.6c.561.367,1.243.7,1.21,1.471-.018.406-.353.618-.7.747-.468.175-.929.366-1.387.564-.841.363-1.671.748-2.517,1.1l-1.311.545-1.311.545-1.311.545-1.311.545-.5.207c-.125.052-.25.106-.377.153s-.259.083-.387.128a.73.73,0,0,0-.4.271,1.146,1.146,0,0,0-.129.652,3.456,3.456,0,0,0,.14.777c.067.237.15.47.24.7.016.042.033.084.05.126a12.717,12.717,0,0,0,2.892,4.312c2.579,2.525,6.211,3.682,9.731,4.413a33.567,33.567,0,0,0-2.322,7.75,47.5,47.5,0,0,0-.675,11.936,23.231,23.231,0,0,0,.317,2.392c.017.088.031.171.043.249a1.408,1.408,0,0,0,.976,1.344,1.792,1.792,0,0,0,.629.123,1.128,1.128,0,0,0,.889-.393,1.35,1.35,0,0,0,.165-1.341c-.017-.062-.033-.124-.048-.188a37.832,37.832,0,0,1-.84-11.16,30.689,30.689,0,0,1,2.39-10.417,39.411,39.411,0,0,0,12.9.189c2.873-.44,6.368-1.061,8.75-2.951.1-.077.19-.158.283-.239Q486.125,83.18,486.1,82.972Z" transform="translate(0)"/><path class="b" d="M510.935,80.3l-.024.006a.12.12,0,0,0-.022,0c-.425.091-.884.193-1.342.325a10.514,10.514,0,0,1-4.111.434,4.946,4.946,0,0,1-3.361-3.352.184.184,0,0,0-.026-.061A16.462,16.462,0,0,0,501.5,75.4c-.069-.211-.389-.08-.32.131a19.06,19.06,0,0,1,.559,2.14.149.149,0,0,0-.007.089c.022.1.049.2.081.3.1.569.177,1.142.222,1.71.145,1.831-1.418,1.716-2.843,1.256a9.725,9.725,0,0,0-1.422-.567c-.178-.083-.335-.159-.46-.221a.157.157,0,0,0-.228.12.189.189,0,0,0,.1.287q.209.056.416.12a13.589,13.589,0,0,0,1.634.665c.529.282,1.1.725.457,1.244a6.425,6.425,0,0,1-1.439.632c-.526.224-1.056.439-1.587.65a.162.162,0,0,0-.029.019l-.014,0c-.21.073-.08.393.13.32.908-.314,3.466-1.071,3.709.439a5.575,5.575,0,0,1-.144,1.5c-.075.561-.17,1.118-.275,1.674a.148.148,0,0,0,.053.15.165.165,0,0,0,.3-.008c.509-1.451,1.326-2.949,2.9-3.4,1.747-.5,3.074.451,4.314,1.569.054.075.108.148.161.217a.173.173,0,0,0,.3-.159.167.167,0,0,0-.054-.154l-.146-.134c-.787-1.1-1.493-2.57-.524-3.756a5.166,5.166,0,0,1,2.913-1.438l.711-.151C511.191,80.6,511.153,80.254,510.935,80.3Z" transform="translate(-33.92 -8.064)"/><path class="c" d="M578.568,131.976c-.791-.944-2.222-.914-3.338-1.048a.134.134,0,0,0-.157.107.142.142,0,0,0,.035.188,4.255,4.255,0,0,1,1.474,2.852,3.323,3.323,0,0,0,.474,1.8c.673.754,1.591.025,1.934-.681A3.17,3.17,0,0,0,578.568,131.976Z" transform="translate(-90.736 -48.538)"/><path class="c" d="M553.1,116.551a.763.763,0,0,0-.191-.155.924.924,0,0,0-1.009.095c-.268.208-.307.532-.5.785-.79,1.043-1.394.351-2.233.219a1.068,1.068,0,0,0-1.006,1.831,4.31,4.31,0,0,0,4.375.711,2.011,2.011,0,0,0,1.011-.952,2.034,2.034,0,0,0,.1-1.244,3.673,3.673,0,0,0-.219-.687A2.085,2.085,0,0,0,553.1,116.551Z" transform="translate(-71.025 -37.893)"/><path class="d" d="M564.374,123.606a1.018,1.018,0,0,1-.606.805c-.2.085-.114.419.092.333a1.382,1.382,0,0,0,.86-1.138c.026-.221-.32-.219-.346,0Z" transform="translate(-82.49 -43.08)"/><path class="d" d="M587.253,138.622a1.845,1.845,0,0,1-.092,1.311.173.173,0,0,0,.3.174,2.165,2.165,0,0,0,.127-1.578.173.173,0,0,0-.333.092Z" transform="translate(-99.479 -53.956)"/></g></svg>