<svg xmlns="http://www.w3.org/2000/svg" width="60" height="60" viewBox="0 0 60 60"><defs><style>.a{fill:#fff;}.b{fill:#b9d7b4;}.c{fill:#789c8a;}.d{fill:#76c1e2;}</style></defs><g transform="translate(-122 -442)"><path class="a" d="M15,0H45c8.284,0,15,5.689,15,12.706V47.294C60,54.311,53.284,60,45,60H15C6.716,60,0,54.311,0,47.294V12.706C0,5.689,6.716,0,15,0Z" transform="translate(122 442)"/><g transform="translate(-313.633 387.579)"><path class="b" d="M482.985,81.363a18.934,18.934,0,0,0-10.726-14.726,25.636,25.636,0,0,0-9.827-2.451,35.835,35.835,0,0,0-5.987.225,3,3,0,0,0-.929.195.572.572,0,0,0-.29.255.488.488,0,0,0,0,.387.57.57,0,0,0,.276.277c.213.117.406.252.608.388l.738.5q.739.494,1.481.983l.842.553c.513.335,1.137.638,1.107,1.346-.016.371-.323.565-.638.683-.428.16-.85.335-1.269.516-.769.332-1.528.684-2.3,1.005l-1.2.5-1.2.5-1.2.5-1.2.5-.455.189c-.115.048-.229.1-.344.14s-.236.076-.354.117a.667.667,0,0,0-.362.247,1.048,1.048,0,0,0-.118.6,3.16,3.16,0,0,0,.128.71c.061.217.137.43.219.64l.046.115a11.631,11.631,0,0,0,2.645,3.943c2.359,2.309,5.681,3.367,8.9,4.036a30.7,30.7,0,0,0-2.124,7.088,43.438,43.438,0,0,0-.617,10.916,21.248,21.248,0,0,0,.29,2.188c.015.081.028.157.04.228a1.288,1.288,0,0,0,.893,1.229,1.639,1.639,0,0,0,.575.112,1.031,1.031,0,0,0,.813-.36,1.234,1.234,0,0,0,.15-1.227c-.015-.057-.03-.114-.044-.172a34.6,34.6,0,0,1-.769-10.206,28.067,28.067,0,0,1,2.186-9.527,36.044,36.044,0,0,0,11.8.173c2.627-.4,5.824-.97,8-2.7.089-.07.174-.144.259-.219Q483.007,81.554,482.985,81.363Z" transform="translate(0)"/><path class="c" d="M509.7,79.872l-.022.005a.11.11,0,0,0-.02,0c-.388.083-.809.177-1.228.3a9.616,9.616,0,0,1-3.759.4,4.523,4.523,0,0,1-3.074-3.065.168.168,0,0,0-.024-.055,15.059,15.059,0,0,0-.5-2.065c-.063-.193-.356-.074-.293.119a17.438,17.438,0,0,1,.511,1.957.136.136,0,0,0-.007.081c.02.093.045.184.074.276.093.521.162,1.044.2,1.564.133,1.675-1.3,1.569-2.6,1.149a8.9,8.9,0,0,0-1.3-.518c-.163-.076-.307-.145-.421-.2a.144.144,0,0,0-.208.11.173.173,0,0,0,.1.262q.192.052.38.11A12.425,12.425,0,0,0,499,80.9c.484.258,1,.663.418,1.138a5.877,5.877,0,0,1-1.316.578c-.481.2-.965.4-1.451.594a.149.149,0,0,0-.026.017l-.013,0c-.192.067-.073.359.119.293.83-.288,3.17-.98,3.392.4A5.1,5.1,0,0,1,500,85.3c-.069.513-.155,1.023-.251,1.531a.136.136,0,0,0,.048.137.151.151,0,0,0,.278-.007,4.416,4.416,0,0,1,2.652-3.108c1.6-.456,2.812.413,3.945,1.435.05.069.1.136.147.2a.158.158,0,0,0,.274-.145.153.153,0,0,0-.049-.141l-.134-.122c-.72-1-1.365-2.35-.479-3.435a4.725,4.725,0,0,1,2.664-1.315l.65-.138C509.937,80.144,509.9,79.829,509.7,79.872Z" transform="translate(-35.028 -8.327)"/><path class="d" d="M578.268,131.887c-.723-.863-2.032-.836-3.053-.959a.123.123,0,0,0-.144.1.13.13,0,0,0,.032.172,3.892,3.892,0,0,1,1.348,2.608,3.039,3.039,0,0,0,.434,1.65c.615.69,1.455.023,1.769-.623A2.9,2.9,0,0,0,578.268,131.887Z" transform="translate(-93.699 -50.097)"/><path class="d" d="M552.643,116.528a.7.7,0,0,0-.174-.142.845.845,0,0,0-.923.087c-.245.19-.281.486-.456.718-.723.954-1.275.321-2.042.2a.977.977,0,0,0-.92,1.675,3.942,3.942,0,0,0,4,.65,1.839,1.839,0,0,0,.925-.871,1.861,1.861,0,0,0,.087-1.137,3.359,3.359,0,0,0-.2-.629A1.9,1.9,0,0,0,552.643,116.528Z" transform="translate(-73.344 -39.11)"/><path class="a" d="M564.313,123.592a.931.931,0,0,1-.554.736c-.185.077-.1.383.084.3a1.264,1.264,0,0,0,.787-1.041c.024-.2-.292-.2-.316,0Z" transform="translate(-85.184 -44.466)"/><path class="a" d="M587.243,138.6a1.687,1.687,0,0,1-.084,1.2.158.158,0,0,0,.273.16,1.98,1.98,0,0,0,.116-1.443.158.158,0,0,0-.3.084Z" transform="translate(-102.727 -55.691)"/></g></g></svg>