<svg xmlns="http://www.w3.org/2000/svg" width="60" height="60" viewBox="0 0 60 60"><defs><style>.a{fill:#fff;}.b{fill:#c2c8d9;}.c{fill:#d73639;}.d{fill:#393840;}.e{fill:#c2000b;}</style></defs><g transform="translate(-50 -373)"><path class="a" d="M15,0H45c8.284,0,15,5.689,15,12.706V47.294C60,54.311,53.284,60,45,60H15C6.716,60,0,54.311,0,47.294V12.706C0,5.689,6.716,0,15,0Z" transform="translate(50 373)"/><g transform="translate(-28 -41.59)"><g transform="translate(84.002 437.826)"><path class="b" d="M288.306,543.334a67.35,67.35,0,0,1-12.093-8.537c-3.077-2.56-6.51-6.315-10.634-6.964a.2.2,0,0,0-.03,0,.2.2,0,0,0-.031-.009,7.9,7.9,0,0,0-4.287.633,3.927,3.927,0,0,0-2.136,4.188c.358,3.99,3.593,6.944,6.46,9.341,5.9,4.939,16.343,7.254,22.7,1.791v0l.12-.1.25-.2Z" transform="translate(-258.493 -527.771)"/><path class="c" d="M287.765,550.8l-.712-.375a.211.211,0,0,0-.1-.024.208.208,0,0,0-.135.05,13.329,13.329,0,0,1-8.754,2.955,21.4,21.4,0,0,1-13.125-4.812c-2.851-2.385-5.921-5.24-6.255-8.949-.015-.168-.016-.327-.016-.486a.21.21,0,0,0-.075-.16.208.208,0,0,0-.135-.049l-.035,0-.743.125a.209.209,0,0,0-.174.212c0,.149.011.3.025.459.373,4.149,3.636,7.2,6.665,9.733a22.289,22.289,0,0,0,13.876,5.073,14.763,14.763,0,0,0,8.752-2.638.213.213,0,0,0,.075-.039l.319-.259c.1-.078.2-.158.294-.238l.284-.23a.209.209,0,0,0-.034-.348Z" transform="translate(-257.509 -534.82)"/></g><g transform="translate(84 432.826)"><g transform="translate(0 0)"><path class="d" d="M306.17,532.807c-.012-.183-.028-.366-.047-.549s-.042-.365-.067-.547-.054-.362-.086-.542-.066-.357-.1-.534-.076-.35-.117-.524-.085-.341-.13-.511-.092-.331-.141-.5c-.026-.085-.054-.17-.08-.254s-.045-.149-.07-.223c-.009-.026-.017-.054-.027-.081a.266.266,0,0,0-.052-.09.24.24,0,0,0-.1-.06c-.141-.059-.282-.115-.422-.175q-.182-.079-.361-.163-.355-.168-.7-.358t-.671-.4q-.329-.209-.645-.437t-.621-.472q-.306-.245-.6-.5t-.582-.534l-.191-.185a29.127,29.127,0,0,0-2.656-2.656c-2.516-1.9-5.7-3.055-8.574-4.274a.244.244,0,0,0-.275.058c-.129.042-.259.076-.388.115-2.126.63-4.35.726-6.523,1.156-1.844.256-3.691.017-5.539.178-1.577.137-3.183.28-4.752.476A15.811,15.811,0,0,0,265,522.361a.236.236,0,0,0-.073.072,7.9,7.9,0,0,1,4.287-.633.2.2,0,0,1,.031.009.207.207,0,0,1,.03,0c4.124.65,7.557,4.4,10.634,6.965A67.357,67.357,0,0,0,292,537.31l.318.148a21.261,21.261,0,0,0,5.859,2.357,8.12,8.12,0,0,0,4.3-.023c.188-.068.374-.146.555-.232a5.55,5.55,0,0,0,.5-.272,5.3,5.3,0,0,0,.452-.308,4.94,4.94,0,0,0,.4-.343,4.879,4.879,0,0,0,.357-.374,5.073,5.073,0,0,0,.312-.4q.145-.208.27-.43t.229-.453q.105-.233.191-.474t.154-.493c.046-.168.086-.338.12-.509s.063-.347.087-.522.042-.355.057-.533.023-.36.027-.541.005-.364,0-.546S306.182,532.99,306.17,532.807Z" transform="translate(-262.183 -516.748)"/><path class="c" d="M340.637,538.158a12.234,12.234,0,0,1-2.5-.291,23.868,23.868,0,0,1-5.82-2.29.209.209,0,0,1-.025-.342l.616-.5a.208.208,0,0,1,.234-.02,24.142,24.142,0,0,0,5.266,2.028,11.132,11.132,0,0,0,2.226.259,5.06,5.06,0,0,0,1.726-.268c.174-.063.343-.135.5-.211s.307-.156.452-.244a4.717,4.717,0,0,0,.4-.274,4.507,4.507,0,0,0,.357-.3,4.331,4.331,0,0,0,.315-.33,4.457,4.457,0,0,0,.278-.358q.129-.185.24-.382c.076-.134.144-.27.206-.408s.121-.285.173-.431.1-.3.141-.451.079-.312.11-.469.059-.323.081-.486.04-.333.053-.5.022-.341.026-.511,0-.346,0-.519-.011-.351-.022-.524-.027-.352-.044-.527-.041-.35-.065-.525-.052-.35-.083-.523-.064-.345-.1-.516-.074-.339-.114-.508-.082-.329-.126-.493-.089-.322-.137-.482l-.124-.393-.3-.124q-.193-.084-.381-.172c-.246-.117-.492-.243-.731-.375s-.466-.268-.7-.417-.452-.3-.672-.454-.435-.322-.645-.49-.418-.343-.621-.521-.4-.363-.6-.55l-.2-.189c-.329-.322-.639-.662-.938-.991a12.48,12.48,0,0,0-1.663-1.617,32.079,32.079,0,0,0-7.088-3.635l-.1-.042q-.6-.248-1.185-.494l-.473-.248a.21.21,0,0,1-.1-.109.37.37,0,0,1,.027-.3.633.633,0,0,1,.466-.277,1.657,1.657,0,0,0,.184-.051l.219-.065.242-.069a2.786,2.786,0,0,0,.356-.136c.067-.029.134-.058.2-.085q.283-.11.569-.209a9.993,9.993,0,0,1,1.287-.355,7.529,7.529,0,0,1,1.345-.15h0a.388.388,0,0,1,.1.013l.02,0a16.387,16.387,0,0,1,8.277,4.666c.179.171.363.345.549.52,1.949,1.839,4.159,3.923,4.52,6.683a.406.406,0,0,1-.061.28.456.456,0,0,1-.439.345.476.476,0,0,1-.071-.005l-.084-.013q.03.107.059.213.071.261.134.526c.043.181.084.361.121.542s.074.367.106.551.062.374.089.562.05.377.07.566.036.381.049.572.02.383.024.574,0,.383,0,.573-.014.381-.029.572-.035.376-.06.564-.056.373-.093.559-.079.366-.129.547-.1.359-.167.534-.132.35-.209.52-.162.338-.253.5-.193.324-.3.476a5.65,5.65,0,0,1-.349.45,5.449,5.449,0,0,1-.4.417,5.517,5.517,0,0,1-.45.383,5.841,5.841,0,0,1-.5.342c-.181.11-.367.21-.555.3s-.4.177-.607.254A6.11,6.11,0,0,1,340.637,538.158Z" transform="translate(-302.263 -514.234)"/><g transform="translate(41.29 8.355)"><path class="e" d="M372.7,538.835c-.567-1.124-1.413-2.423-2.777-1.825a1.088,1.088,0,0,0-.1.048c-.029.014-.057.024-.086.041,0,0-.007.007-.012.01a.938.938,0,0,0-.172.138c-.435.449-.182,1.1.042,1.582s.528.9.729,1.389a10.437,10.437,0,0,0,.513,1.388,1.06,1.06,0,0,0,1.262.6C373.569,541.764,373.21,539.848,372.7,538.835Z" transform="translate(-369.311 -536.859)"/><path class="c" d="M375.374,544.772a.9.9,0,0,0-.531-.591.966.966,0,0,0-1.2.845c.008.563.4,1.222,1.032,1.166S375.531,545.292,375.374,544.772Z" transform="translate(-372.047 -541.451)"/></g><path class="c" d="M287.665,543.157a.215.215,0,0,1-.1-.024l-.712-.375c-.2-.105-.4-.216-.6-.327l-.261-.146-.238-.13c-.142-.077-.284-.154-.423-.234-.295-.17-.584-.347-.873-.525l-.338-.205c-.126-.075-.251-.15-.374-.228-.308-.195-.611-.4-.914-.6l-.311-.205c-.107-.071-.215-.141-.322-.214-.295-.2-.586-.41-.877-.617l-.33-.234c-.1-.072-.2-.144-.306-.217-.285-.208-.567-.421-.849-.635l-.335-.251c-.1-.075-.2-.15-.3-.226-.287-.22-.571-.444-.855-.668l-.608-.477c-.354-.283-.706-.569-1.058-.856l-.39-.316q-.722-.592-1.441-1.192c-.589-.49-1.178-1.012-1.8-1.564-.336-.3-.656-.582-.982-.867-2.164-1.889-4.711-3.943-7.536-4.4l-.08-.007-.036-.007c-.171-.016-.34-.027-.509-.034l-.25-.007c-.056,0-.111,0-.166,0l-.275.006q-.167.005-.33.017l-.162.012c-.131.011-.259.026-.386.044l-.046.006c-.185.027-.331.054-.474.085l-.129.031c-.1.024-.2.049-.295.077-.049.014-.1.028-.144.044-.091.029-.181.061-.27.094l-.121.046c-.124.051-.244.1-.358.162a3.255,3.255,0,0,0-1.839,3.135.21.21,0,0,1-.175.207l-.743.125a.21.21,0,0,1-.244-.2,4.4,4.4,0,0,1,2.4-4.258l.069-.037a7.8,7.8,0,0,1,3.525-.749c.355,0,.719.018,1.084.054l.07.01c3.527.555,6.511,3.2,9.145,5.536.62.551,1.207,1.07,1.793,1.558,1.358,1.13,2.822,2.334,4.329,3.491.059.046.331.248.331.248.378.286.755.573,1.137.852.152.111.306.218.459.326l.484.342c.182.13.364.26.549.386s.357.239.538.355l.509.335c.159.106.318.212.478.313.265.167.535.328.8.487l.2.118.224.136c.11.068.221.136.334.2.359.206.726.4,1.093.6l.262.142c.083.046.166.093.251.136l.359.173c.039.023.181.116.447.264a.209.209,0,0,1,.03.345l-.616.5A.209.209,0,0,1,287.665,543.157Z" transform="translate(-257.504 -521.785)"/></g></g></g></g></svg>