<svg xmlns="http://www.w3.org/2000/svg" width="60" height="60" viewBox="0 0 60 60"><defs><style>.a{fill:#fff;}.b{fill:#606060;}</style></defs><g transform="translate(-50 -442)"><path class="a" d="M15,0H45c8.284,0,15,5.689,15,12.706V47.294C60,54.311,53.284,60,45,60H15C6.716,60,0,54.311,0,47.294V12.706C0,5.689,6.716,0,15,0Z" transform="translate(50 442)"/><path class="b" d="M991.631,48.981a4.8,4.8,0,0,1-2.5.448,6.22,6.22,0,0,1-2.775-.7,10.2,10.2,0,0,0,.14-1.074,5.686,5.686,0,0,0-.29-2.614c-.114-.284-.579-.16-.464.128a6.347,6.347,0,0,1-.18,4.548,5.982,5.982,0,0,1-2.81,2.807,11.651,11.651,0,0,1-4.511,1.111,5.177,5.177,0,0,1-4.2-1.425c-.2-.2-.331.043-.446.193a4.919,4.919,0,0,1-.517.562,6.447,6.447,0,0,1-1.322.965,7.957,7.957,0,0,1-5.139.845c-2.506-.448-4.846-2.627-4.317-5.361.059-.3-.405-.432-.464-.128a4.477,4.477,0,0,0,.089,2.1.239.239,0,0,0-.045.063c-.743,1.494-2.535,1.721-3.989,1.258a3.771,3.771,0,0,1-2.863-3.431.241.241,0,0,0-.481,0,3.563,3.563,0,0,0,.154,1.045,7.278,7.278,0,0,1-5.257-.137,6.334,6.334,0,0,1-3.733-3.308,8.314,8.314,0,0,1,2.565-10.071,7.2,7.2,0,0,1,6.226-.99c.141.048.218-.026.26-.154s.091-.264.136-.4l.114-.326c.076-.217.154-.434.235-.649.162-.431.336-.857.537-1.271q.151-.311.323-.61a8.526,8.526,0,0,1,2.182-2.556,9.947,9.947,0,0,1,3.044-1.67,14.9,14.9,0,0,1,3.658-.6,11.022,11.022,0,0,1,6.419,1.474,12.164,12.164,0,0,1,4.32,4.508,12.807,12.807,0,0,1,1.612,6.718c-.012.31.469.309.481,0a13.267,13.267,0,0,0-1.18-5.957,8.561,8.561,0,0,1,5.274,1.2,9.015,9.015,0,0,1,3.787,3.874c.149.321.5-.1.628-.23a3.108,3.108,0,0,1,1.077-.606,4.6,4.6,0,0,1,2.6-.213,5.835,5.835,0,0,1,3.514,2.69C995.183,43.7,994.6,47.534,991.631,48.981Z" transform="translate(-889.982 428.946)"/></g></svg>