<svg xmlns="http://www.w3.org/2000/svg" width="60" height="60" viewBox="0 0 60 60"><defs><style>.a{fill:#fff;}.b{fill:#404653;}.c{fill:#2d3340;}</style></defs><g transform="translate(-194 -373)"><path class="a" d="M15,0H45c8.284,0,15,5.689,15,12.706V47.294C60,54.311,53.284,60,45,60H15C6.716,60,0,54.311,0,47.294V12.706C0,5.689,6.716,0,15,0Z" transform="translate(194 373)"/><g transform="translate(-46.523 202.561)"><path class="b" d="M293.7,206.4c-.267-.92-1.486-1.29-2.367-1.71a16.964,16.964,0,0,1-4.208-3.111,4.752,4.752,0,0,1-1.756-2.71c-.217-1.1-.21-2.2-.376-3.3-.178-1.181-.25-2.327-.339-3.5a3.39,3.39,0,0,0-1.7-2.618,8.841,8.841,0,0,0-3.2-1.438c-1.558-.313-2.979.091-4.5.142a.2.2,0,0,0-.131-.031,18.151,18.151,0,0,1-4.1-.614c-.631-.089-1.282-.122-1.912-.218-1.8-.272-3.865-.592-5.6.036-2.05.739-3.222,1.428-3.8,3.2-.29.887-.6,1.771-.851,2.662-.306,1.073-.915,2.023-1.31,3.067a8.071,8.071,0,0,1-2.13,1.092c-.812.34-1.717.583-2.555.884-1.564.562-3.019,1-3.321,2.48a.155.155,0,0,0,.062.154c.06,3.019,2.739,4.847,5.581,6.494a13.2,13.2,0,0,0,4.839,1.47c2.131.293,4.089,1.084,6.158,1.58a59.445,59.445,0,0,0,9.254,1.7,40.261,40.261,0,0,0,7.1.005,19.929,19.929,0,0,0,5.46-1,16.656,16.656,0,0,0,4.914-3.082C293.54,207.425,294.013,206.943,293.7,206.4Z" transform="translate(0 0)"/><path class="c" d="M273.94,220.27c.015.132-.025.267-.007.381s.037.252.048.375a1.536,1.536,0,0,0,.128.343l.045.088.021.044a.308.308,0,0,1,.02.073.253.253,0,0,0,.045.156l.078.166.038.084a.333.333,0,0,0,.048.059.534.534,0,0,1,.132.21.785.785,0,0,0,.03.076c.013.027.029.054.045.081.067.108.145.217.228.325s.107.257.214.345c-.16-.043-.238-.191-.342-.26a2.373,2.373,0,0,1-.324-.3c-.024-.028-.048-.057-.071-.087a.719.719,0,0,1-.057-.1.3.3,0,0,0-.1-.122.5.5,0,0,1-.087-.1l-.05-.1-.1-.191a.512.512,0,0,1-.044-.113.9.9,0,0,1-.01-.1.091.091,0,0,0,0-.021l-.02-.046-.039-.092a1.2,1.2,0,0,1-.085-.405c.01-.134.028-.263.048-.4A1.84,1.84,0,0,1,273.94,220.27Z" transform="translate(-16.075 -24.145)"/><path class="c" d="M285.489,234.514c.966.4,1.993.728,2.943,1.117.041.012.11.02.2.05a.614.614,0,0,1,.124.059c.028.017.025.012.028.013-.014,0,.013,0,.065,0a.385.385,0,0,1,.1.016.5.5,0,0,1,.078.031.275.275,0,0,0,.129.047c.276.045.538.128.8.162l.384.058.1.016c.046.007.088.017.127.028l.193.056c.1.023.249.039.372.059.149.024.289.061.414.09.23.056.521.087.779.132a1.906,1.906,0,0,1,.22.057c.01,0,.1.016.174.027s.166.023.206.033.1.016.169.023a2.377,2.377,0,0,1,.451.084,1.35,1.35,0,0,0,.158.037,1.5,1.5,0,0,1,.234.039c.178.05.3.111.382.133l.367.079c.258.052.512.1.76.129a5.452,5.452,0,0,1,.85.133c.048.016.171.011.357.03l.418.071a1.15,1.15,0,0,0,.148.012l.108,0a.937.937,0,0,1,.171.026c.092.019.023.011.093.012a.964.964,0,0,1,.274.02l.206.044a.656.656,0,0,0,.141.015c.1,0,.251-.008.4-.006l.815,0,1.615,0c.126,0,.251-.011.371-.025.105-.014.283-.039.406-.05a2.763,2.763,0,0,0,.365-.056,2.366,2.366,0,0,1,.468-.027l.818-.045c.136-.006.283-.017.408-.013a1.083,1.083,0,0,0,.319-.038c.113-.03.243-.077.4-.112s.273-.044.411-.067c.266-.045.541-.072.776-.136s.543-.134.782-.2l.379-.1a1.188,1.188,0,0,0,.321-.134,1.4,1.4,0,0,1,.406-.161.367.367,0,0,0,.134-.058l.086-.051.086-.044c.045-.025.093-.062.152-.1a.883.883,0,0,1,.2-.095,1.428,1.428,0,0,0,.331-.164c.108-.068.231-.133.339-.187a1.678,1.678,0,0,0,.274-.228c.184-.165.387-.319.576-.477-.167.178-.339.346-.5.528a1.623,1.623,0,0,1-.269.268c-.116.072-.215.135-.314.211a1.574,1.574,0,0,1-.343.207.589.589,0,0,0-.144.083c-.043.034-.089.078-.152.121l-.082.051-.073.053a.658.658,0,0,1-.214.111,1,1,0,0,0-.306.154,1.452,1.452,0,0,1-.388.189l-.385.129c-.267.093-.493.155-.754.243a6.828,6.828,0,0,1-.8.182c-.127.026-.276.051-.385.078s-.223.076-.366.121a1.728,1.728,0,0,1-.479.079c-.147,0-.27.018-.4.029l-.806.066a2.07,2.07,0,0,0-.342.02,3.568,3.568,0,0,1-.433.077c-.146.018-.236.034-.4.059s-.295.033-.439.04c-.576.016-1.095.008-1.645.013l-.815,0c-.124,0-.245.01-.415.009a1.493,1.493,0,0,1-.262-.025l-.188-.04a.279.279,0,0,0-.129-.014,1.03,1.03,0,0,1-.307-.035.111.111,0,0,0-.029-.006l-.095,0a1.855,1.855,0,0,1-.256-.025l-.379-.069a3.177,3.177,0,0,1-.45-.051,4.7,4.7,0,0,0-.747-.121,7.68,7.68,0,0,1-.832-.153l-.2-.047c-.069-.018-.118-.026-.219-.056-.17-.055-.282-.116-.362-.138a.982.982,0,0,0-.164-.029,2.032,2.032,0,0,1-.232-.059,1.576,1.576,0,0,0-.339-.072c-.068-.009-.146-.019-.231-.038s-.127-.023-.193-.035a2.156,2.156,0,0,1-.223-.043c-.095-.028-.126-.045-.165-.051-.27-.058-.519-.091-.807-.171-.134-.037-.251-.073-.368-.1-.142-.03-.266-.046-.422-.088l-.188-.063c-.025-.008-.048-.014-.069-.018l-.1-.019-.412-.084a8.9,8.9,0,0,1-1.531-.474c-.261-.144-.472-.233-.712-.345s-.486-.2-.712-.332c-.058-.029-.117-.065-.166-.083s-.123-.037-.192-.068l-.349-.176c-.115-.058-.225-.125-.347-.174A1.406,1.406,0,0,1,285.489,234.514Z" transform="translate(-23.893 -34.469)"/></g></g></svg>