<svg xmlns="http://www.w3.org/2000/svg" width="60" height="60" viewBox="0 0 60 60"><defs><style>.a{fill:#fff;}.b{fill:#442626;}.c{fill:#4f2b2b;}</style></defs><g transform="translate(-122 -373)"><path class="a" d="M15,0H45c8.284,0,15,5.689,15,12.706V47.294C60,54.311,53.284,60,45,60H15C6.716,60,0,54.311,0,47.294V12.706C0,5.689,6.716,0,15,0Z" transform="translate(122 373)"/><g transform="translate(-361.926 38.12)"><path class="b" d="M514.211,386.69a.232.232,0,0,0-.1-.194,17.557,17.557,0,0,0-3.853-2.092q-1.859-1.143-3.679-2.351a.239.239,0,0,0-.289,0,12.282,12.282,0,0,1-4.454-6.541.265.265,0,0,0-.074-.127.29.29,0,0,0-.481-.156c-1.013.967-2.258.985-3.55,1.255-1.1.228-2.181.555-3.264.845a11.074,11.074,0,0,0-1.984.651,2.872,2.872,0,0,0-1.378,1.228,3.154,3.154,0,0,0,.01,2.108,7.876,7.876,0,0,0,.754,1.87,11.168,11.168,0,0,0,2.71,3.245,7.119,7.119,0,0,0,2.179,1.273c5.39,1.823,11.982.148,17.454-.445C514.577,387.223,514.581,386.65,514.211,386.69Z" transform="translate(0 -13.579)"/><path class="b" d="M587.809,397.354c.036-.333.062-.665.068-1l.011-.005q.732-.54,1.445-1.1c.173-.138.37-.276.556-.426C590.161,395.795,589.066,396.691,587.809,397.354Z" transform="translate(-53.903 -24.233)"/><path class="c" d="M550.249,369.857c-.243-1.161-.228-2.315-.43-3.468a18.025,18.025,0,0,0-2.95-6.117c-1.146-1.677-1.495-3.5-3.179-4.806-2.112-1.635-4.968-2.178-7.477-2.918a.268.268,0,0,0-.138-.005,16.51,16.51,0,0,0-1.747-.7.294.294,0,0,0-.219-.144,22.938,22.938,0,0,0-6.67-.378,18.867,18.867,0,0,0-6.109,2.006,11.771,11.771,0,0,0-3.677,3.1,25.156,25.156,0,0,0-1.565,2.658,20.031,20.031,0,0,1-2.623,3.093c-.005.006-.006.012-.011.018a.256.256,0,0,0-.087.208c.075,3.406,3.868,5.742,6.383,7.485,3.483,2.415,6.809,5.275,11.255,5.137a71.977,71.977,0,0,1,7.25-.069c2.154.148,4.478.752,6.624.236,1.008-.243,1.893-.8,2.875-1.107a5.374,5.374,0,0,0,1.659-.583,2.018,2.018,0,0,0,.838-1.433A4.334,4.334,0,0,0,550.249,369.857Zm-2.764,1.425c-.116-.857-1.038-2.767-.366-3.521.006,0,.013-.006.019-.011a7.025,7.025,0,0,1,1.6-.971,2.968,2.968,0,0,0,.493-.3c.084.641.035,1.252.117,1.92.074.608.234,1.141.345,1.677a3.607,3.607,0,0,1-1.084,1c-.35.276-.707.543-1.066.809C547.53,371.686,547.513,371.485,547.485,371.282Zm0,2.291c.036-.331.062-.661.068-.99,0,0,.007,0,.01-.005q.732-.536,1.445-1.1c.173-.137.37-.275.557-.423C549.842,372.024,548.746,372.915,547.489,373.573Z" transform="translate(-13.583 -0.44)"/><path class="b" d="M560.056,351.73a1.5,1.5,0,0,0-.828-.844,3.5,3.5,0,0,0-2.086-.476.858.858,0,0,0-.763.811c.007.992,1.089,1.483,1.932,1.537C558.909,352.8,560.388,352.729,560.056,351.73Z" transform="translate(-36.434 0)"/></g></g></svg>