<svg xmlns="http://www.w3.org/2000/svg" width="60" height="60" viewBox="0 0 60 60"><defs><style>.a{fill:#fff;}.b{fill:#999;}.c{fill:#cabbab;}.d{fill:#bda991;}.e{fill:none;stroke:#bda991;stroke-miterlimit:10;}.f{fill:#fcfaac;}</style></defs><g transform="translate(-266 -373)"><path class="a" d="M15,0H45c8.284,0,15,5.689,15,12.706V47.294C60,54.311,53.284,60,45,60H15C6.716,60,0,54.311,0,47.294V12.706C0,5.689,6.716,0,15,0Z" transform="translate(266 373)"/><g transform="translate(165.686 212.121)"><path class="b" d="M122.827,241.792a34.419,34.419,0,0,0,7.53,14.763c2.957,3.452,7.44,4.485,11.848,4.327,4.566-.164,8.562-2.145,10.565-6.406,2.147-4.566,1.39-9.341-.637-13.807-.113-.25-.483-.033-.37.217,2.022,4.456,2.735,9.317.42,13.814-2.284,4.437-6.815,5.938-11.553,5.747a16.415,16.415,0,0,1-6.653-1.48,13.111,13.111,0,0,1-4.417-4.109,34.537,34.537,0,0,1-6.32-13.177c-.063-.268-.477-.158-.414.11Z" transform="translate(-7.562 -45.481)"/><path class="c" d="M147.792,218.118a6.528,6.528,0,0,0-3.1-2.4.2.2,0,0,0-.261.218s-.007.005-.011.009c-1.028,1.329-4.753.953-6.3,1.017q-2.757.116-5.516.091a97.18,97.18,0,0,1-11.224-.721,16.934,16.934,0,0,0-4.086-.383,7.351,7.351,0,0,0-3.321,1.663c-1.847,1.4-3.451,2.832-2.236,5.183,2.7,5.224,9.857,6.829,15.1,7.726,6.223,1.064,13.041,1.471,18.466-2.319,1.951-1.362,4.836-4.067,4.6-6.777C149.8,220.25,148.51,219.025,147.792,218.118Z" transform="translate(0 -29.146)"/><g transform="translate(116.018 172.127)"><path class="c" d="M137.151,189.354a18.179,18.179,0,0,0,12.384-3.285,9.454,9.454,0,0,0,3.193-3.573c-.109-.191-.218-.381-.332-.571a16.521,16.521,0,0,0-3.784-4.859,18.89,18.89,0,0,0-3.635-2.226,13.445,13.445,0,0,0-4.076-1.176,15.953,15.953,0,0,0-5.122.519,14.977,14.977,0,0,0-2.442.735,13.2,13.2,0,0,0-3.828,2.249,11.966,11.966,0,0,0-1.777,1.9,10.98,10.98,0,0,0-1.961,4.554A18.181,18.181,0,0,0,137.151,189.354Z" transform="translate(-125.52 -173.608)"/><path class="d" d="M152.246,199.621c-.228.3-.374.69-.593,1.007a8.443,8.443,0,0,1-.751.931,12.239,12.239,0,0,1-1.849,1.605,17.986,17.986,0,0,1-23.764-2.453,15.658,15.658,0,0,0,.1,6.068c0,.005,0,.009.006.014l0,.01a.182.182,0,0,0,.078.1c3.575,3.728,9.556,5.16,14.567,4.97a24.292,24.292,0,0,0,8.578-1.948,12.123,12.123,0,0,0,3.04-1.791,9.049,9.049,0,0,0,1.23-1.247c.193-.238.373-.485.542-.74a2.529,2.529,0,0,0,.349-.57,1.913,1.913,0,0,0-.014-.746,14.7,14.7,0,0,0-.788-3.541q-.152-.426-.33-.841A3.375,3.375,0,0,0,152.246,199.621Z" transform="translate(-125.037 -190.704)"/></g><path class="d" d="M162.361,171.837a2.493,2.493,0,0,0-1.13-.461,1.633,1.633,0,0,0-.73.044,2.428,2.428,0,0,0-.664.348,1.3,1.3,0,0,0-.412.447.877.877,0,0,0-.085.253c0,.029-.008.059-.01.088a1.023,1.023,0,0,0,.012.236c.17,1.041,1.754.915,2.48.726C162.762,173.271,163.255,172.509,162.361,171.837Z" transform="translate(-31.554 0)"/><path class="e" d="M149.286,176.69a16.249,16.249,0,0,0-5.794,13.113" transform="translate(-21.136 -3.507)"/><path class="e" d="M167.478,176.938a26.422,26.422,0,0,1,7.955,12.2" transform="translate(-36.911 -3.67)"/><ellipse class="b" cx="2.481" cy="3.516" rx="2.481" ry="3.516" transform="matrix(0.99, -0.14, 0.14, 0.99, 113.821, 181.69)"/><ellipse class="f" cx="1.705" cy="2.729" rx="1.705" ry="2.729" transform="matrix(0.99, -0.14, 0.14, 0.99, 113.931, 182.469)"/></g></g></svg>