<svg xmlns="http://www.w3.org/2000/svg" xmlns:xlink="http://www.w3.org/1999/xlink" width="64.998" height="60" viewBox="0 0 64.998 60"><defs><style>.a{fill:#fff;}.b{fill:#689f5f;}.c{fill:#c3a07b;}.d{fill:#af7d52;}.e{fill:#77b56c;}.f{fill:#9a6b42;}.g{fill:#84c778;}.h{filter:url(#g);}.i{filter:url(#e);}.j{filter:url(#c);}.k{filter:url(#a);}</style><filter id="a" x="0" y="9.217" width="26.747" height="31.615" filterUnits="userSpaceOnUse"><feOffset dx="-6" dy="3" input="SourceAlpha"/><feGaussianBlur stdDeviation="3" result="b"/><feFlood flood-opacity="0.161"/><feComposite operator="in" in2="b"/><feComposite in="SourceGraphic"/></filter><filter id="c" x="18.383" y="23.802" width="29.088" height="19.432" filterUnits="userSpaceOnUse"><feOffset dy="6" input="SourceAlpha"/><feGaussianBlur stdDeviation="3" result="d"/><feFlood flood-opacity="0.161"/><feComposite operator="in" in2="d"/><feComposite in="SourceGraphic"/></filter><filter id="e" x="19.004" y="31.58" width="27.778" height="20.438" filterUnits="userSpaceOnUse"><feOffset dx="3" dy="6" input="SourceAlpha"/><feGaussianBlur stdDeviation="3" result="f"/><feFlood flood-opacity="0.161"/><feComposite operator="in" in2="f"/><feComposite in="SourceGraphic"/></filter><filter id="g" x="28.375" y="19.938" width="36.622" height="30.693" filterUnits="userSpaceOnUse"><feOffset dy="3" input="SourceAlpha"/><feGaussianBlur stdDeviation="3" result="h"/><feFlood flood-opacity="0.161"/><feComposite operator="in" in2="h"/><feComposite in="SourceGraphic"/></filter></defs><g transform="translate(-191.735 -442)"><path class="a" d="M15,0H45c8.284,0,15,5.689,15,12.706V47.294C60,54.311,53.284,60,45,60H15C6.716,60,0,54.311,0,47.294V12.706C0,5.689,6.716,0,15,0Z" transform="translate(194 442)"/><g transform="translate(-276.783 346.643)"><path class="b" d="M497.7,173.167a29.424,29.424,0,0,0-.771-3.916,35.788,35.788,0,0,0-2.766-7.347c-1.022-2.009-2.215-3.817-4.43-4.61a11.923,11.923,0,0,0-5.928-.458,5.106,5.106,0,0,0-2.341,1.049,10.607,10.607,0,0,0-1.67,2.354c-.657.939-1.9,1.05-2.535,2a2.721,2.721,0,0,0-.353,2.324,4.164,4.164,0,0,0,.7,1.172,2.954,2.954,0,0,1,.655,2.35,3.663,3.663,0,0,0,.117,2.588c.518.784,1.463.616,2.254.831,1.024.279,1.3,1.546,2.406,1.658,1.294.131,2.328-.72,3.559.132.809.56,1.411,1.226,2.479,1.058.629-.1,1.207-.419,1.846-.462.856-.057,1.425.507,2.17.805,1.252.5,2.8-.9,3.877-.045a.1.1,0,0,0,.013.007.1.1,0,0,0,.086.019C497.709,174.523,497.758,173.7,497.7,173.167Z" transform="translate(0 -39.72)"/><ellipse class="c" cx="16.232" cy="2.503" rx="16.232" ry="2.503" transform="translate(483.864 136.35)"/><path class="b" d="M647.482,247.036l-1.512-.116a3.192,3.192,0,0,0-2.114-.621,5.486,5.486,0,0,0-.6.085c.035.239-.075.474-.415.68a.092.092,0,0,1-.076.011q-1.816.738-3.573,1.6c-.02.172-.032.344-.041.517.427-.117.852-.244,1.29-.331a2.964,2.964,0,0,1,1.955.168c.373.2.666.514,1.043.7a1.349,1.349,0,0,0,1.466-.164c.325-.229.581-.538.9-.77a2.492,2.492,0,0,1,1.9-.449.985.985,0,0,0,.215.1Z" transform="translate(-135.883 -114.753)"/><path class="d" d="M582.813,234.113c-.1-.693-1.421-1.421-1.909-1.6a10.663,10.663,0,0,0-3-.487c-1.148-.077-2.291-.2-3.438-.3a12.927,12.927,0,0,0-6.193.634c-.5.215-1.319.545-1.345,1.2a.638.638,0,0,0,.532.682.1.1,0,0,0,.071.1q2.338.716,4.595,1.659a.1.1,0,0,0,.025,0,5.614,5.614,0,0,1,.12,2.826,6.09,6.09,0,0,1-.558,1.466c-.064.127-.192.275-.175.43.048.421.769.618,1.087.735a8.721,8.721,0,0,0,2.648.471,10.925,10.925,0,0,0,2.7-.245,12.186,12.186,0,0,0,1.451-.407c.1-.035.407-.1.454-.263a.591.591,0,0,0-.021-.258,4.44,4.44,0,0,0-.431-.528,3.639,3.639,0,0,1-.317-.642,6.291,6.291,0,0,1-.4-2.664c.009-.173.021-.345.041-.517q1.758-.866,3.573-1.6a.092.092,0,0,0,.076-.011C582.738,234.586,582.848,234.352,582.813,234.113Z" transform="translate(-75.443 -102.482)"/><path class="e" d="M544.273,127.9c.355-.45.818-.881.694-1.507s-.514-.995-.442-1.711a2.188,2.188,0,0,0,.013-1.073,2.139,2.139,0,0,0-1.588-1.186,13.941,13.941,0,0,0-1.576-.171c-.08-.009-.159-.02-.237-.033a2.111,2.111,0,0,0,.309-2.114c-.5-1.348-2.044-1.264-2.772-2.344a8.847,8.847,0,0,0-.751-1.343,2.673,2.673,0,0,0-1.2-.55,1.632,1.632,0,0,1-1.1-1.035,3.5,3.5,0,0,0-.3-.615,2.906,2.906,0,0,0-1.184-.933,17.326,17.326,0,0,0-4.009-1.182,12.244,12.244,0,0,0-1.965-.224,2.115,2.115,0,0,1-1.572-.485,6.134,6.134,0,0,0-.631-.689c-1.035-.769-2.336.578-3.307-.348-.346-.329-.5-.736-.988-.885a2.482,2.482,0,0,0-1.6.311,2.955,2.955,0,0,1-.7.217c-.5.071-.675-.09-1.06-.38a1.908,1.908,0,0,0-.381-.288,1.786,1.786,0,0,0-1.394.033,7.134,7.134,0,0,1-2.5.86,2.33,2.33,0,0,0-1.437.358.1.1,0,0,0-.039.026l-.005.005-.021.015a.093.093,0,0,0-.028.035,10.109,10.109,0,0,1-3.052,2.228c-1.131.528-2.39.682-3.513,1.215a3.121,3.121,0,0,0-1.687,1.694,2.168,2.168,0,0,0-.085.973,3.515,3.515,0,0,1,.057,1.434,3.561,3.561,0,0,0-.238.756,1.038,1.038,0,0,0,.229.707c.22.309.487.423.611.842a4.306,4.306,0,0,1,.044.933,1.421,1.421,0,0,0,.795,1.154,2,2,0,0,0-1.308.032,1.671,1.671,0,0,0-.616.634,5.18,5.18,0,0,1-1.667,1.281,1.381,1.381,0,0,0-.656,1.54c.132.591.512,1.127.332,1.757-.119.417-.447.759-.5,1.2a1.234,1.234,0,0,0,.826,1.24,6.416,6.416,0,0,0,1.541.3,6.637,6.637,0,0,1,1.69.77,1.732,1.732,0,0,0,1.847-.218,1.534,1.534,0,0,1,1.81-.059,10.107,10.107,0,0,0,1.1.759c.952.442,1.763-.219,2.7-.311.718-.07,1.713.827,2.332.321a2.129,2.129,0,0,0,.586.375,1.713,1.713,0,0,0,1,.129,6.658,6.658,0,0,0,.7-.32,1.6,1.6,0,0,1,1.378.132c.808.44,1.3.022,2.027-.376.807-.445,1.418-.017,2.211-.12a1.147,1.147,0,0,0,.419-.132l.1-.143a1.406,1.406,0,0,1,1.869-.272c.189.127.346.3.539.421a1.918,1.918,0,0,0,1.24.2c.424-.049.839-.165,1.266-.2a3.193,3.193,0,0,1,2.114.621l1.512.116.444,1.418a3.013,3.013,0,0,0,1.637-.267c1.144-.313,1.966.527,3.062.553.833.02,1.365-.576,1.956-1.072,1.064-.894,2.224-.587,3.477-.825a1.954,1.954,0,0,0,1.607-1.211,1.536,1.536,0,0,0-.064-.964C543.933,129.155,543.715,128.606,544.273,127.9Z" transform="translate(-20.472 0)"/><g transform="translate(492.018 131.659)"><path class="f" d="M594.281,250.682l1.239,1.391c.087.1.231-.046.144-.144l-1.239-1.391c-.087-.1-.231.046-.144.144Z" transform="translate(-590.329 -249.94)"/><path class="f" d="M641.5,249.818q-1.912.776-3.76,1.691c-.118.058-.014.234.1.176q1.825-.9,3.712-1.671c.12-.049.067-.246-.054-.2Z" transform="translate(-626.678 -249.357)"/><path class="f" d="M570.261,247.233q2.339.716,4.595,1.659c.121.05.174-.147.054-.2q-2.257-.943-4.595-1.659c-.126-.038-.179.158-.054.2Z" transform="translate(-570.19 -247.031)"/><path class="f" d="M606.572,248.676l1.277,1.759c.076.105.253,0,.176-.1l-1.277-1.759c-.076-.105-.253,0-.176.1Z" transform="translate(-600.622 -248.285)"/></g><g transform="translate(483.519 110.573)"><g class="k" transform="matrix(1, 0, 0, 1, -15, -15.22)"><path class="e" d="M526.654,117.663a10.126,10.126,0,0,1-3.106,2.283c-1.131.528-2.39.682-3.513,1.215a3.121,3.121,0,0,0-1.687,1.694,2.168,2.168,0,0,0-.085.973,3.518,3.518,0,0,1,.057,1.434,3.563,3.563,0,0,0-.238.756,1.039,1.039,0,0,0,.229.707c.22.309.487.423.611.842a4.31,4.31,0,0,1,.044.933c.073,1.068,1.055,1.05,1.538,1.862.37.623.6,1.039,1.392.826.537-.144.788-.4,1.437-.319.272.032.53.158.8.2a1.487,1.487,0,0,0,.974-.143c.094-.048.045-.17-.039-.185L526.7,117.9c.031-.032.063-.064.094-.1C526.888,117.711,526.744,117.567,526.654,117.663Z" transform="translate(-503.08 -102.41)"/></g><g class="j" transform="matrix(1, 0, 0, 1, -15, -15.22)"><path class="e" d="M605.063,189.011c.09-.1-.054-.24-.144-.144l-.067.071-10.629-.108-.03-.053c-.063-.115-.239-.012-.176.1a2.022,2.022,0,0,0,1.937,1.235,6.758,6.758,0,0,0,1.407-.4,2.14,2.14,0,0,1,1.723.064,4.483,4.483,0,0,0,.592.3,1.638,1.638,0,0,0,.933.012,3.029,3.029,0,0,1,1.386-.2c.284.051.54.2.829.234A2.7,2.7,0,0,0,605.063,189.011Z" transform="translate(-566.62 -161.93)"/></g><g class="i" transform="matrix(1, 0, 0, 1, -15, -15.22)"><path class="e" d="M589.027,237.64c-.017.022-.036.038-.054.057l-9.34-1.116-.029-.065c-.054-.119-.229-.016-.176.1a3.716,3.716,0,0,0,1.687,2.126,1.713,1.713,0,0,0,1,.129,6.664,6.664,0,0,0,.7-.319,1.6,1.6,0,0,1,1.378.132c.808.44,1.3.022,2.027-.376.807-.445,1.418-.017,2.211-.12a1.041,1.041,0,0,0,.738-.406C589.252,237.683,589.109,237.538,589.027,237.64Z" transform="translate(-554.41 -201.88)"/></g><g class="h" transform="matrix(1, 0, 0, 1, -15, -15.22)"><path class="e" d="M673.17,190.033c.355-.45.818-.881.694-1.507s-.514-.995-.442-1.711a2.186,2.186,0,0,0,.013-1.073,2.139,2.139,0,0,0-1.588-1.186,13.934,13.934,0,0,0-1.575-.171,10.054,10.054,0,0,1-1.94-.518,3.1,3.1,0,0,0-1.276-.179,5.494,5.494,0,0,1-1.917.111c-.781-.177-1.6-.591-2.4-.216-1.063.5-.75,1.964-2.233,1.986-.822.012-1.775-.383-2.5.194a1.06,1.06,0,0,0-.4.647,1.725,1.725,0,0,0,0,.489c0,.049.014.1.019.144a1.31,1.31,0,0,1-.574,1.252c-.563.355-1.634.107-1.781,1.012a1.087,1.087,0,0,0,.253.768,5.9,5.9,0,0,1,.388.508,1.139,1.139,0,0,1-.252,1.269c-1.161,1.57,1.42,2.563,2.643,2.527a4.463,4.463,0,0,1,1.533.088c.637.2.765.763,1.2,1.155.6.54,1.35.128,2.008-.052,1.144-.313,1.966.527,3.062.553.833.02,1.365-.576,1.955-1.072,1.064-.894,2.224-.587,3.477-.825a1.954,1.954,0,0,0,1.607-1.211,1.536,1.536,0,0,0-.064-.964C672.831,191.29,672.613,190.741,673.17,190.033Z" transform="translate(-617.89 -157.49)"/></g></g><g transform="translate(488.278 112.882)"><path class="g" d="M696.524,196.575a2.877,2.877,0,0,0-3.419.242c-.693.6-.407,1.432.528,1.471a3.119,3.119,0,0,0,.863-.142,1.5,1.5,0,0,1,1.606.276c.261.2.488.339.812.148C697.714,198.1,697.046,196.952,696.524,196.575Z" transform="translate(-668.995 -185.639)"/><path class="g" d="M610.346,134.475c-.686-.279-1.452-.256-2.155-.476a8.412,8.412,0,0,1-2.346-1.347c-2.02-1.272-5.142-.966-7.246-.09a4.065,4.065,0,0,0-2.224,1.888,1.413,1.413,0,0,0,.637,2.022c1.174.546,2.657.092,3.878-.009a11.051,11.051,0,0,1,4.627.547,8.543,8.543,0,0,0,3.74.826,2.528,2.528,0,0,0,2.19-1.448A1.566,1.566,0,0,0,610.346,134.475Z" transform="translate(-588.209 -131.799)"/><path class="g" d="M4.166.063A3.645,3.645,0,0,0,2.322.2a6.5,6.5,0,0,0-1.94.876c-.254.195-.505.519-.314.849.259.447,1.184.3,1.565.26s.748-.118,1.124-.16a3,3,0,0,1,1.428.315.825.825,0,0,0,.992-.19C5.741,1.388,4.929.267,4.166.063Z" transform="matrix(-0.259, -0.966, 0.966, -0.259, 1.389, 9.009)"/></g></g></g></svg>