<svg xmlns="http://www.w3.org/2000/svg" xmlns:xlink="http://www.w3.org/1999/xlink" width="320" height="513" viewBox="0 0 320 513"><defs><style>.a{fill:#789372;}.b,.d{fill:#90af89;}.c{fill:#fff;}.c,.d{font-size:18px;font-family:GenJyuuGothic-P-Heavy, Gen Jyuu Gothic P;font-weight:800;letter-spacing:0.05em;}.e{filter:url(#c);}.f{filter:url(#a);}</style><filter id="a" x="0" y="0" width="169" height="78" filterUnits="userSpaceOnUse"><feOffset dy="3" input="SourceAlpha"/><feGaussianBlur stdDeviation="3" result="b"/><feFlood flood-opacity="0.161"/><feComposite operator="in" in2="b"/><feComposite in="SourceGraphic"/></filter><filter id="c" x="0" y="0" width="320" height="513" filterUnits="userSpaceOnUse"><feOffset dy="3" input="SourceAlpha"/><feGaussianBlur stdDeviation="3" result="d"/><feFlood flood-opacity="0.161"/><feComposite operator="in" in2="d"/><feComposite in="SourceGraphic"/></filter></defs><g transform="translate(-28 -164)"><g class="f" transform="matrix(1, 0, 0, 1, 28, 164)"><path class="a" d="M2940.464,352.358a22.528,22.528,0,0,1-20.419,22.542c-.644.057-1.292.1-1.951.1h-128.63V337.642A22.507,22.507,0,0,1,2811.834,315h106.26a22.507,22.507,0,0,1,22.37,22.639v14.719Z" transform="translate(-2780.46 -309)"/></g><g class="e" transform="matrix(1, 0, 0, 1, 28, 164)"><path class="b" d="M2654.464,374.355h130.581v-.1a22.379,22.379,0,0,0,20.419-22.3V337.4a22.385,22.385,0,0,1,22.371-22.4h106.259a22.384,22.384,0,0,1,22.37,22.4V787.6a22.384,22.384,0,0,1-22.37,22.4H2676.834a22.384,22.384,0,0,1-22.37-22.4V374.355Z" transform="translate(-2645.46 -309)"/></g><text class="c" transform="translate(236 206)"><tspan x="0" y="0"></tspan></text><text class="d" transform="translate(75 206)"><tspan x="0" y="0"></tspan></text></g></svg>