<svg xmlns="http://www.w3.org/2000/svg" width="52" height="28" viewBox="0 0 52 28"><defs><style>.a{fill:#789372;}.b,.c{fill:#fff;}.c{font-size:12px;font-family:GenJyuuGothic-P-Normal, Gen Jyuu Gothic P;letter-spacing:0.05em;}</style></defs><g transform="translate(-219 -385)"><rect class="a" width="52" height="28" rx="14" transform="translate(219 385)"/><g transform="translate(-2)"><path class="b" d="M3.417,7.36H.789A.789.789,0,0,0,0,8.149v7.886a.789.789,0,0,0,.789.789H3.417a.789.789,0,0,0,.789-.789V8.149A.789.789,0,0,0,3.417,7.36ZM2.1,15.509a.789.789,0,1,1,.789-.789A.789.789,0,0,1,2.1,15.509ZM12.618,2.676c0,1.394-.853,2.176-1.093,3.107h3.343a1.963,1.963,0,0,1,1.957,1.909,2.379,2.379,0,0,1-.639,1.617l0,0a2.745,2.745,0,0,1-.306,2.611,2.6,2.6,0,0,1-.538,2.456,1.744,1.744,0,0,1-.2,1.467c-.671.964-2.333.977-3.738.977H11.3a9.433,9.433,0,0,1-3.929-1.042,5.171,5.171,0,0,0-1.73-.532.394.394,0,0,1-.387-.394V7.831a.394.394,0,0,1,.117-.28C6.676,6.265,7.236,4.9,8.3,3.834A3.979,3.979,0,0,0,9.137,1.9c.146-.608.452-1.9,1.115-1.9C11.041,0,12.618.263,12.618,2.676Z" transform="translate(231 389)"/><text class="c" transform="translate(251 404)"><tspan x="0" y="0">讚</tspan></text></g></g></svg>