<svg xmlns="http://www.w3.org/2000/svg" width="215.739" height="119.194" viewBox="0 0 215.739 119.194"><defs><style>.a{fill:#606060;}</style></defs><path class="a" d="M1148.478,120.959a20.936,20.936,0,0,1-10.9,1.956c-3.991-.3-8.641-.863-12.105-3.032a44.492,44.492,0,0,0,.609-4.685,24.8,24.8,0,0,0-1.266-11.4c-.5-1.24-2.527-.7-2.025.558,2.354,5.89,1.768,14.068-.787,19.84-2.4,5.421-7.043,9.589-12.259,12.244-6.021,3.064-12.978,4.418-19.677,4.848-6.921.444-13.363-1.185-18.334-6.217-.868-.878-1.445.188-1.945.843a21.4,21.4,0,0,1-2.258,2.453,28.112,28.112,0,0,1-5.766,4.211,34.713,34.713,0,0,1-22.42,3.686c-10.93-1.954-21.141-11.461-18.833-23.387.256-1.32-1.768-1.886-2.025-.559a19.527,19.527,0,0,0,.386,9.161,1.052,1.052,0,0,0-.2.273c-3.239,6.517-11.06,7.506-17.4,5.488-6.691-2.129-12.5-7.559-12.489-14.967a1.05,1.05,0,0,0-2.1,0,15.551,15.551,0,0,0,.671,4.559c-6.971,3.191-15.928,1.931-22.931-.6-7.13-2.575-13.14-7.439-16.284-14.432-6.734-14.984-2.574-34.426,11.191-43.932,7.7-5.318,18.214-7.362,27.16-4.321.614.209.949-.112,1.134-.672.191-.578.4-1.15.594-1.725q.247-.711.5-1.421c.333-.947.673-1.893,1.026-2.833.705-1.879,1.467-3.738,2.344-5.544q.658-1.355,1.408-2.662a37.2,37.2,0,0,1,9.517-11.149,43.393,43.393,0,0,1,13.277-7.284,65.019,65.019,0,0,1,15.959-2.6c9.985-.51,19.361,1.24,28,6.43A53.063,53.063,0,0,1,1079.1,53.752a55.874,55.874,0,0,1,7.034,29.306c-.052,1.351,2.048,1.349,2.1,0a57.874,57.874,0,0,0-5.149-25.986c8.016-.994,16.061,1.247,23.007,5.241,6.9,3.967,13.132,9.595,16.518,16.9.649,1.4,2.179-.453,2.739-1a13.563,13.563,0,0,1,4.7-2.643,20.046,20.046,0,0,1,11.343-.93c6.432,1.377,11.905,6.272,15.331,11.733C1163.976,97.939,1161.441,114.647,1148.478,120.959Z" transform="translate(-944.982 -27.573)"/></svg>