<svg xmlns="http://www.w3.org/2000/svg" width="165.146" height="184.946" viewBox="0 0 165.146 184.946"><defs><style>.a{fill:#8dac86;}</style></defs><path class="a" d="M54.231-332.346c-5.249-1.975-10.857-1.406-16.314-.842s-11.075,1.089-16.3-.967a17.462,17.462,0,0,1-10.77-14.189c-1.2-11.376,8.719-20.69,8.384-32.159-.253-8.661-6.642-15.5-13.37-17.138s-13.64.764-20.1,3.638c-5.645,2.512-11.389,5.446-17.368,5.122a14.58,14.58,0,0,1-10.9-6.216L-50-393.72l6.022-4.037a14.443,14.443,0,0,1-.99-3.6c-1.037-7.5,3.4-14.33,4.727-21.759,1.764-9.891-2.483-20.544-9.162-26.153s-15.29-6.664-23.144-4.625a37.226,37.226,0,0,0-4.385,1.475l.747,7.92-4.661-6.155a78.306,78.306,0,0,0-13.508,9.172v1.291l-.868-1.291v171.2s64.946-.832,99.71-.018l.761.018.078,0c34.147.845,44.077,0,44.077,0,8.633-3.933,20.775-24.616,20.516-36.216S63.026-329.035,54.231-332.346Z" transform="translate(95.22 454.857)"/></svg>