<svg xmlns="http://www.w3.org/2000/svg" width="160.006" height="184" viewBox="0 0 160.006 184"><defs><style>.a{fill:#90af89;}</style></defs><path class="a" d="M286.815-311.086V-437.853c2.556-10.1-9.8-16.884-17.881-19.4-11.351-3.531-31.067-1.782-38.79,8.591-.111.149-.2.312-.3.465l7.6,3.814-9.724.086a27.119,27.119,0,0,0-1.7,12.8c.581,6,2.732,11.727,5.182,17.221,1.653,3.709,3.477,7.43,4,11.466s-.526,8.549-3.7,11.039c-4.16,3.262-9.636,1.92-15.034.707q-.163,7.823-.326,15.644l-2.559-16.252c-.69-.131-1.376-.251-2.052-.34a24.189,24.189,0,0,0-18.614,5.557,24.889,24.889,0,0,0-8.54,17.664c-.173,4.242.743,8.447.953,12.686s-.414,8.8-3.168,11.993c0,0-4.822,3.762-7.262,3.987l-1.14,10.22-7.252-9.622c-2.889-.149-5.778-.441-8.668-.339a32.227,32.227,0,0,0-24.8,13.5,33.174,33.174,0,0,0-4.543,28.165s3.317,16.982,25.938,23.279H287.157v-36.2Z" transform="translate(-127.151 458.911)"/></svg>