<svg xmlns="http://www.w3.org/2000/svg" width="54.795" height="30.274" viewBox="0 0 54.795 30.274"><defs><style>.a{fill:#606060;}</style></defs><path class="a" d="M996.668,51.292a5.318,5.318,0,0,1-2.768.5,6.892,6.892,0,0,1-3.075-.77,11.3,11.3,0,0,0,.155-1.19,6.3,6.3,0,0,0-.321-2.9c-.126-.315-.642-.177-.514.142a7.032,7.032,0,0,1-.2,5.039,6.628,6.628,0,0,1-3.114,3.11,12.908,12.908,0,0,1-5,1.231,5.736,5.736,0,0,1-4.657-1.579c-.22-.223-.367.048-.494.214a5.448,5.448,0,0,1-.573.623,7.142,7.142,0,0,1-1.465,1.07,8.817,8.817,0,0,1-5.694.936c-2.776-.5-5.37-2.911-4.783-5.94.065-.335-.449-.479-.514-.142a4.96,4.96,0,0,0,.1,2.327.265.265,0,0,0-.05.069c-.823,1.655-2.809,1.907-4.42,1.394a4.178,4.178,0,0,1-3.172-3.8.267.267,0,0,0-.533,0,3.947,3.947,0,0,0,.17,1.158,8.063,8.063,0,0,1-5.824-.152,7.018,7.018,0,0,1-4.136-3.666,9.211,9.211,0,0,1,2.842-11.158,7.98,7.98,0,0,1,6.9-1.1c.156.053.241-.028.288-.171s.1-.292.151-.438l.126-.361c.085-.241.171-.481.261-.72.179-.477.372-.949.6-1.408q.167-.344.358-.676a9.448,9.448,0,0,1,2.417-2.832,11.021,11.021,0,0,1,3.372-1.85,16.514,16.514,0,0,1,4.053-.66,12.212,12.212,0,0,1,7.112,1.633,13.477,13.477,0,0,1,4.787,4.994,14.191,14.191,0,0,1,1.787,7.443c-.013.343.52.343.533,0a14.7,14.7,0,0,0-1.308-6.6A9.486,9.486,0,0,1,985.9,36.4a9.988,9.988,0,0,1,4.2,4.292c.165.355.553-.115.7-.255a3.444,3.444,0,0,1,1.194-.671,5.091,5.091,0,0,1,2.881-.236,6.465,6.465,0,0,1,3.894,2.98C1000.6,45.446,999.96,49.689,996.668,51.292Z" transform="translate(-944.982 -27.573)"/></svg>