<svg xmlns="http://www.w3.org/2000/svg" xmlns:xlink="http://www.w3.org/1999/xlink" width="320" height="513" viewBox="0 0 320 513"><defs><style>.a{fill:#789372;}.b,.c{fill:#90af89;}.c,.d{font-size:18px;font-family:GenJyuuGothic-P-Heavy, Gen Jyuu Gothic P;font-weight:800;letter-spacing:0.05em;}.d{fill:#fff;}.e{filter:url(#c);}.f{filter:url(#a);}</style><filter id="a" x="150.898" y="0" width="169" height="78" filterUnits="userSpaceOnUse"><feOffset dy="3" input="SourceAlpha"/><feGaussianBlur stdDeviation="3" result="b"/><feFlood flood-opacity="0.161"/><feComposite operator="in" in2="b"/><feComposite in="SourceGraphic"/></filter><filter id="c" x="0" y="0" width="320" height="513" filterUnits="userSpaceOnUse"><feOffset dy="3" input="SourceAlpha"/><feGaussianBlur stdDeviation="3" result="d"/><feFlood flood-opacity="0.161"/><feComposite operator="in" in2="d"/><feComposite in="SourceGraphic"/></filter></defs><g transform="translate(-27 -164)"><g class="f" transform="matrix(1, 0, 0, 1, 27, 164)"><path class="a" d="M2789.464,352.358a22.528,22.528,0,0,0,20.419,22.542c.644.057,1.292.1,1.951.1h128.63V337.642A22.507,22.507,0,0,0,2918.094,315h-106.26a22.507,22.507,0,0,0-22.37,22.639v14.719Z" transform="translate(-2629.57 -309)"/></g><g class="e" transform="matrix(1, 0, 0, 1, 27, 164)"><path class="b" d="M2956.464,374.355h-130.58v-.1a22.379,22.379,0,0,1-20.42-22.3V337.4a22.384,22.384,0,0,0-22.37-22.4H2676.835a22.384,22.384,0,0,0-22.371,22.4V787.6a22.384,22.384,0,0,0,22.371,22.4h257.259a22.384,22.384,0,0,0,22.37-22.4V374.355Z" transform="translate(-2645.46 -309)"/></g><text class="c" transform="translate(234.835 206)"><tspan x="0" y="0"></tspan></text><text class="d" transform="translate(74 206)"><tspan x="0" y="0"></tspan></text></g></svg>