<svg xmlns="http://www.w3.org/2000/svg" width="158.738" height="87.664" viewBox="0 0 158.738 87.664"><defs><style>.a{fill:#6a6561;}.b{fill:#a08469;}</style></defs><g transform="translate(-166.122 -160.382)"><path class="a" d="M185.867,182c-.55-2.276.084-4.42.225-6.69.16-2.566-.065-5.166-.085-7.734a.625.625,0,0,0-1.25,0,80.567,80.567,0,0,1,0,8.583c-.209,2.111-.6,4.075-.1,6.173.189.781,1.4.45,1.205-.332Z"/><path class="a" d="M226.6,179.339c-.02-4.22-.471-8.866.448-13.012.174-.784-1.031-1.119-1.205-.333-.952,4.29-.514,8.984-.493,13.345a.625.625,0,0,0,1.25,0Z"/><path class="a" d="M267.43,178.75c-.144-5.933-1.884-11.828-1.53-17.767.048-.8-1.2-.8-1.25,0-.354,5.941,1.386,11.833,1.53,17.767a.625.625,0,0,0,1.25,0Z"/><path class="a" d="M307.317,178.986c.022-4-.273-7.788-.588-11.766-.063-.8-1.314-.8-1.25,0,.315,3.971.61,7.771.588,11.766a.625.625,0,0,0,1.25,0Z"/><path class="b" d="M201.788,181.684c-.287-1-2.2-1.148-3.046-1.267a32.817,32.817,0,0,0-3.749-.2c-2.619-.063-5.247-.046-7.853-.342a24.788,24.788,0,0,0-7.216-.2c-2.192.356-4.4.624-6.6.952-1.449.216-5.384.168-5.733,1.9a75.084,75.084,0,0,0-1.474,14.812c0,5.135.6,10.182.967,15.291.6,5.474,1.237,10.954,1.685,16.443.4,4.89-.426,9.774.4,14.63a.553.553,0,0,0,.294.576,27.592,27.592,0,0,0,8.764,3.492,17.059,17.059,0,0,0,3.956.164c1.015-.065,2-.426,3.016-.406,2,.039,3.847.693,5.866.464a8.712,8.712,0,0,0,4.832-2.185,18.226,18.226,0,0,1,4.315-2.686c1.521-.681,1.977-1.833,2.155-3.467.141-1.283.495-2.524.657-3.8a55.81,55.81,0,0,0,.13-8.4,105.691,105.691,0,0,1,.935-15.529c1.108-9.1-.894-18.071-1.966-27.064A21.581,21.581,0,0,0,201.788,181.684Z"/><path class="b" d="M245.213,191.739c-.571-4.144-2.121-9.591-5.473-12.437-3.391-2.88-9.373-2.846-13.681-2.022a.627.627,0,0,0-.329-.031c-4.824.88-12.544.358-15.785,4.78-2.77,3.78-2.214,9.874-2.159,14.208.1,7.6,1.717,15.026,2.565,22.551.826,7.328.586,14.825,1.64,22.1a.662.662,0,0,0,.066.274c2.533,5.288,9.194,5.745,14.378,5.419,4.669-.294,14.08-.949,17.364-5.137a.592.592,0,0,0,.662-.6c.027-8.536.249-17.051.037-25.587C244.3,207.483,246.275,199.441,245.213,191.739Z"/><path class="b" d="M283.137,216.459c.139-5.042-.7-10.156-.744-15.224-.051-6.47.728-15.47-2.441-21.422-3.367-6.325-10.237-3.368-15.687-2.649a.682.682,0,0,0-.284-.018c-3.745.564-11.124.268-13.751,3.658-1.216,1.57-.884,4.164-.912,5.978-.049,3.275.267,6.512.313,9.783.1,7.4.262,14.775.434,22.169.091,3.892.315,7.772.424,11.661.094,3.4-.323,6.745.258,10.111a.485.485,0,0,0,.174.577c2.384,1.91,4.682,2.107,7.663,2.446a82.442,82.442,0,0,0,11.661.916,15.833,15.833,0,0,0,5.69-1.1c1.892-.8,2.813-2.026,4.145-3.443.618-.656,1.58-.633,2.2-1.39a5.375,5.375,0,0,0,.991-2.517,23.307,23.307,0,0,0,.006-5.593C282.949,225.7,283.008,221.155,283.137,216.459Z"/><path class="b" d="M324.711,203.222a25.134,25.134,0,0,0-1.371-11.008,16.006,16.006,0,0,1-.582-8.237c.232-1.311.838-2.539.51-3.9-.614-2.557-3.493-4.034-5.858-4.55-3.393-.74-6.855.226-10.276-.049a14.4,14.4,0,0,0-5.225.652c-1.222.368-1.891-.008-3.081-.153-2.317-.282-4.32-.3-6.408.845a8.747,8.747,0,0,0-3.334,3.332c-1.757,3.043-2.044,6.788-2.077,10.227-.035,3.706.4,7.392.432,11.1.067,6.989.043,13.981.369,20.965.157,3.379.536,6.8.457,10.186-.069,2.956-.65,5.683-.206,8.622a.537.537,0,0,0,.085.433c2.605,3.925,10.015,5.069,14.334,5.566,2.479.285,5.011.65,7.383-.147,1.726-.581,3.488-2.123,5.263-2.926,1.045-.473,3.613-1.126,4.1-2.318a2.616,2.616,0,0,0,.117-.708c.175-1.558,1.187-3.236,1.673-4.732a29.026,29.026,0,0,0,1.4-6.409c.4-4.552-.036-9.219.1-13.794C322.66,211.679,324.183,207.646,324.711,203.222Z"/></g></svg>