<svg xmlns="http://www.w3.org/2000/svg" width="19" height="19" viewBox="0 0 19 19"><defs><style>.a{fill:#416545;}</style></defs><g transform="translate(-255.563 -642.505)"><path class="a" d="M274.289,647.52l-2.865-4.291a1.628,1.628,0,0,0-1.354-.724H260.056a1.628,1.628,0,0,0-1.354.724l-2.865,4.291a1.629,1.629,0,0,0-.274.9v.284a1.616,1.616,0,0,0,1.569,1.633,1.578,1.578,0,0,0,.524-.085h0a1.58,1.58,0,0,0,.4-.2l.008-.006q.042-.03.081-.062l.017-.014a1.59,1.59,0,0,0,.205-.207l.028-.034c.015-.019.029-.039.043-.059l.034-.05c.012-.019.024-.037.035-.056s.025-.045.037-.067.017-.031.025-.047q.028-.057.051-.116c.005-.013.009-.027.014-.04.011-.03.02-.059.029-.089s.009-.031.013-.047.015-.061.021-.093c0-.014.006-.028.008-.043.008-.045.014-.091.017-.138a0,0,0,0,1,.01,0,1.574,1.574,0,0,0,.02.157c0,.014.007.028.01.042.008.037.016.075.026.111,0,.014.009.028.014.043.011.036.023.071.037.106,0,.012.011.024.016.036.016.036.032.072.05.107l.016.028q.03.055.064.108l.013.019q.038.056.08.109l.009.011q.046.056.1.108l0,0q.054.054.113.1h0a1.582,1.582,0,0,0,2.587-1.094,0,0,0,0,1,.01,0,1.583,1.583,0,0,0,3.157,0,0,0,0,0,1,.01,0,1.583,1.583,0,0,0,3.157,0,0,0,0,0,1,.01,0,1.582,1.582,0,0,0,2.587,1.094h0q.059-.049.113-.1l0,0q.051-.052.1-.108l.009-.011q.042-.053.08-.109l.013-.019c.023-.035.044-.071.064-.108l.016-.028c.018-.035.034-.07.05-.107l.016-.036c.014-.035.026-.07.037-.106,0-.014.01-.028.014-.043.01-.036.018-.074.026-.111,0-.014.007-.028.01-.042a1.574,1.574,0,0,0,.02-.157,0,0,0,1,1,.01,0c0,.047.01.092.017.138,0,.014.006.029.008.043.006.031.013.062.021.092s.008.031.013.047.019.06.029.089c0,.014.009.027.014.041q.023.059.051.116c.008.016.017.032.025.048s.024.044.036.066.024.038.036.057l.033.049c.014.02.029.041.044.06l.026.031a1.591,1.591,0,0,0,.207.21l.015.013q.04.033.082.063l.007,0a1.572,1.572,0,0,0,.4.205h0a1.579,1.579,0,0,0,.524.085,1.616,1.616,0,0,0,1.569-1.633v-.284A1.628,1.628,0,0,0,274.289,647.52Z"/><path class="a" d="M284.352,720.144h-.185v-5.873a2.507,2.507,0,0,1-1.074-.515,2.527,2.527,0,0,1-.575.353v6.034H271v-6.034a2.526,2.526,0,0,1-.575-.353,2.508,2.508,0,0,1-1.074.515v5.873h-.185a.391.391,0,0,0-.39.39v3.647a.391.391,0,0,0,.39.39h15.184a.391.391,0,0,0,.39-.39v-3.647A.391.391,0,0,0,284.352,720.144Z" transform="translate(-11.697 -63.065)"/></g></svg>