<svg xmlns="http://www.w3.org/2000/svg" width="54.994" height="30.14" viewBox="0 0 54.994 30.14"><defs><style>.a{fill:#c2c8d9;}.b{fill:#d73639;}.c{fill:#393840;}.d{fill:#c2000b;}</style></defs><g transform="translate(-84 -432.826)"><g transform="translate(84.002 438.919)"><path class="a" d="M294.7,546.738c-5.391-2.768-10.1-6.546-14.738-10.405-3.75-3.12-7.934-7.7-12.96-8.488a.257.257,0,0,0-.037,0,.243.243,0,0,0-.038-.011,9.633,9.633,0,0,0-5.225.772,4.786,4.786,0,0,0-2.6,5.1c.437,4.863,4.379,8.463,7.873,11.385,7.2,6.019,19.918,8.841,27.665,2.183v.006l.147-.119.3-.247Z" transform="translate(-258.367 -527.771)"/><path class="b" d="M294.384,553.391l-.867-.457a.257.257,0,0,0-.119-.03.254.254,0,0,0-.165.061,16.244,16.244,0,0,1-10.669,3.6,26.081,26.081,0,0,1-16-5.865c-3.475-2.907-7.217-6.387-7.623-10.907-.018-.2-.02-.4-.02-.592a.256.256,0,0,0-.091-.195.253.253,0,0,0-.164-.06.267.267,0,0,0-.042,0l-.906.152a.255.255,0,0,0-.212.258c0,.181.013.367.031.56.455,5.056,4.431,8.774,8.123,11.862a27.165,27.165,0,0,0,16.912,6.182,17.993,17.993,0,0,0,10.667-3.215.26.26,0,0,0,.092-.048l.388-.315c.122-.1.242-.193.358-.29l.346-.28a.255.255,0,0,0-.041-.424Z" transform="translate(-257.509 -533.917)"/></g><g transform="translate(84 432.826)"><g transform="translate(0 0)"><path class="c" d="M315.194,536c-.014-.223-.034-.446-.057-.669s-.051-.445-.082-.667-.066-.441-.1-.66-.08-.435-.125-.651-.092-.426-.143-.639-.1-.416-.159-.622-.112-.4-.171-.6c-.032-.1-.065-.207-.1-.31s-.055-.181-.085-.272c-.01-.031-.02-.066-.032-.1a.325.325,0,0,0-.063-.11.293.293,0,0,0-.12-.073c-.171-.072-.344-.14-.514-.213q-.221-.1-.44-.2-.433-.2-.852-.437t-.817-.486q-.4-.255-.786-.532t-.757-.575q-.373-.3-.732-.614t-.709-.651q-.117-.111-.233-.225a35.5,35.5,0,0,0-3.237-3.237c-3.066-2.312-6.943-3.724-10.45-5.209a.3.3,0,0,0-.335.071c-.157.052-.316.093-.473.14-2.591.768-5.3.884-7.949,1.409-2.247.312-4.5.021-6.751.217-1.921.167-3.879.342-5.792.581a19.269,19.269,0,0,0-8.115,2.6.288.288,0,0,0-.089.088,9.633,9.633,0,0,1,5.225-.772.249.249,0,0,1,.038.011.255.255,0,0,1,.037,0c5.027.793,9.21,5.368,12.96,8.488,4.639,3.859,9.347,7.637,14.738,10.4l.387.181a25.912,25.912,0,0,0,7.141,2.872,9.9,9.9,0,0,0,5.244-.028c.23-.083.456-.178.676-.283a6.756,6.756,0,0,0,.613-.331,6.453,6.453,0,0,0,.551-.376,6.034,6.034,0,0,0,.491-.418,5.95,5.95,0,0,0,.435-.456,6.184,6.184,0,0,0,.381-.491q.177-.254.329-.523t.28-.553q.128-.284.232-.578t.188-.6c.056-.2.1-.412.146-.62s.077-.423.106-.636.052-.432.069-.649.028-.439.033-.659.006-.444,0-.666S315.208,536.221,315.194,536Z" transform="translate(-261.583 -516.426)"/><path class="b" d="M343.3,543.391a14.907,14.907,0,0,1-3.049-.355,29.09,29.09,0,0,1-7.093-2.791.255.255,0,0,1-.03-.417l.751-.609a.253.253,0,0,1,.285-.024,29.422,29.422,0,0,0,6.418,2.471,13.571,13.571,0,0,0,2.713.316,6.166,6.166,0,0,0,2.1-.326c.212-.077.419-.164.613-.257s.374-.19.551-.3a5.754,5.754,0,0,0,.489-.334,5.485,5.485,0,0,0,.435-.37,5.287,5.287,0,0,0,.383-.4,5.449,5.449,0,0,0,.338-.437q.157-.226.293-.466c.092-.163.175-.329.252-.5s.148-.347.211-.525.121-.364.171-.55.1-.38.135-.572.072-.394.1-.592.049-.406.064-.61.027-.415.032-.623.005-.422,0-.633-.014-.427-.027-.639-.032-.428-.054-.642-.049-.427-.08-.64-.064-.427-.1-.638-.078-.42-.121-.629-.09-.414-.139-.619-.1-.4-.153-.6-.109-.393-.167-.587l-.151-.479s-.262-.108-.365-.152q-.235-.1-.464-.21c-.3-.142-.6-.3-.891-.457s-.568-.326-.854-.508-.551-.362-.819-.554-.53-.393-.786-.6-.51-.418-.757-.635-.491-.442-.73-.67l-.238-.231c-.4-.393-.779-.807-1.144-1.208a15.214,15.214,0,0,0-2.026-1.97,39.1,39.1,0,0,0-8.638-4.431l-.124-.051q-.729-.3-1.444-.6l-.576-.3a.256.256,0,0,1-.119-.133.45.45,0,0,1,.032-.372.771.771,0,0,1,.568-.337,2.01,2.01,0,0,0,.225-.062l.267-.079.3-.084a3.394,3.394,0,0,0,.434-.166c.081-.035.163-.071.246-.1q.344-.134.693-.255a12.172,12.172,0,0,1,1.568-.432,9.17,9.17,0,0,1,1.639-.183h0a.474.474,0,0,1,.123.015l.024,0c3.457.642,6.754,2.5,10.088,5.687.219.209.442.42.669.633,2.376,2.241,5.068,4.781,5.509,8.145a.5.5,0,0,1-.074.341.556.556,0,0,1-.535.42.575.575,0,0,1-.086-.007l-.1-.016q.037.13.072.26c.058.212.112.427.163.641s.1.44.148.661.09.447.13.672.076.456.108.685.061.459.085.69.044.464.059.7.024.467.03.7.005.466,0,.7-.018.464-.036.7-.042.459-.073.688-.068.455-.113.681-.1.446-.157.667-.127.438-.2.651-.161.427-.254.633-.2.412-.308.609-.235.395-.365.581a6.9,6.9,0,0,1-.425.549,6.637,6.637,0,0,1-.485.509,6.723,6.723,0,0,1-.548.466,7.131,7.131,0,0,1-.61.417c-.221.134-.448.256-.676.365s-.483.216-.74.31A7.446,7.446,0,0,1,343.3,543.391Z" transform="translate(-296.53 -514.234)"/><g transform="translate(50.322 10.183)"><path class="d" d="M373.439,539.267c-.691-1.37-1.722-2.953-3.385-2.225a1.341,1.341,0,0,0-.126.059c-.036.018-.069.03-.1.049-.006,0-.009.008-.014.012a1.14,1.14,0,0,0-.209.168c-.53.548-.221,1.344.051,1.928s.643,1.1.888,1.693a12.717,12.717,0,0,0,.625,1.691,1.291,1.291,0,0,0,1.538.73C374.5,542.837,374.063,540.5,373.439,539.267Z" transform="translate(-369.311 -536.859)"/><path class="b" d="M375.752,544.91a1.1,1.1,0,0,0-.647-.72,1.177,1.177,0,0,0-1.456,1.03c.01.686.483,1.489,1.258,1.421S375.942,545.544,375.752,544.91Z" transform="translate(-371.696 -540.862)"/></g><path class="b" d="M294.263,546.866a.262.262,0,0,1-.119-.03l-.868-.457c-.245-.128-.487-.263-.728-.4l-.318-.177-.29-.158c-.173-.094-.346-.187-.515-.285-.359-.207-.712-.423-1.064-.64l-.412-.25c-.153-.092-.306-.183-.456-.278-.376-.238-.745-.484-1.114-.73l-.379-.25c-.131-.086-.262-.171-.392-.261-.359-.245-.714-.5-1.068-.753l-.4-.285c-.124-.088-.249-.175-.373-.265-.347-.254-.691-.514-1.035-.773l-.408-.306c-.123-.092-.245-.183-.366-.275-.349-.268-.7-.541-1.042-.815l-.741-.582c-.431-.344-.86-.694-1.289-1.044l-.475-.385q-.88-.722-1.757-1.452c-.718-.6-1.435-1.233-2.2-1.906-.409-.363-.8-.709-1.2-1.056-2.638-2.3-5.741-4.805-9.184-5.365l-.1-.009-.044-.009c-.208-.02-.415-.033-.62-.041l-.3-.008c-.068,0-.135,0-.2,0l-.335.008q-.2.007-.4.02l-.2.014c-.16.014-.316.032-.47.053l-.056.007c-.226.032-.4.066-.578.1l-.158.038c-.122.029-.242.06-.359.094-.06.017-.117.035-.175.053-.111.036-.221.074-.329.115l-.148.056c-.151.062-.3.126-.436.2a3.967,3.967,0,0,0-2.242,3.82.256.256,0,0,1-.213.253l-.906.152a.26.26,0,0,1-.042,0,.254.254,0,0,1-.162-.059.252.252,0,0,1-.092-.19,5.361,5.361,0,0,1,2.93-5.189l.085-.045a9.506,9.506,0,0,1,4.3-.913c.433,0,.877.022,1.321.066l.086.012c4.3.676,7.935,3.9,11.145,6.747.756.671,1.471,1.3,2.186,1.9,1.655,1.377,3.44,2.845,5.276,4.255.072.056.4.3.4.3.46.349.92.7,1.386,1.038.185.135.373.266.56.4l.59.417c.222.159.444.317.669.471s.436.291.655.433l.62.408c.194.129.387.258.583.382.323.2.652.4.981.594l.243.144.273.166c.134.082.269.165.407.244.438.252.885.489,1.333.726l.319.173c.1.056.2.113.306.166l.437.211c.048.028.22.141.545.322a.255.255,0,0,1,.037.421l-.751.609A.254.254,0,0,1,294.263,546.866Z" transform="translate(-257.504 -520.818)"/></g></g></g></svg>