<svg xmlns="http://www.w3.org/2000/svg" xmlns:xlink="http://www.w3.org/1999/xlink" width="346.856" height="470.492" viewBox="0 0 346.856 470.492"><defs><style>.a{fill:#727272;}.b{fill:gray;}.c{fill:#999;}.d{fill:#b3b3b3;}.e{fill:#a5a5a5;}.f{fill:#939292;}.g{fill:#95bb80;}.h,.k{fill:#fff;}.h{opacity:0.8;}.i{opacity:0.75;}.j{fill:#f48282;}.l{fill:#f0c352;}.m{fill:#86a86f;}.n{filter:url(#w);}.o{filter:url(#u);}.p{filter:url(#s);}.q{filter:url(#q);}.r{filter:url(#o);}.s{filter:url(#m);}.t{filter:url(#k);}.u{filter:url(#i);}.v{filter:url(#g);}.w{filter:url(#e);}.x{filter:url(#c);}.y{filter:url(#a);}</style><filter id="a" x="28.679" y="391.148" width="33.729" height="79.343" filterUnits="userSpaceOnUse"><feOffset dy="-3" input="SourceAlpha"/><feGaussianBlur stdDeviation="3" result="b"/><feFlood flood-opacity="0.161"/><feComposite operator="in" in2="b"/><feComposite in="SourceGraphic"/></filter><filter id="c" x="24.717" y="384.115" width="297.423" height="31.033" filterUnits="userSpaceOnUse"><feOffset dy="3" input="SourceAlpha"/><feGaussianBlur stdDeviation="3" result="d"/><feFlood flood-opacity="0.161"/><feComposite operator="in" in2="d"/><feComposite in="SourceGraphic"/></filter><filter id="e" x="19.789" y="373.365" width="307.277" height="31.381" filterUnits="userSpaceOnUse"><feOffset dy="3" input="SourceAlpha"/><feGaussianBlur stdDeviation="3" result="f"/><feFlood flood-opacity="0.161"/><feComposite operator="in" in2="f"/><feComposite in="SourceGraphic"/></filter><filter id="g" x="284.448" y="391.148" width="33.729" height="79.343" filterUnits="userSpaceOnUse"><feOffset dy="-3" input="SourceAlpha"/><feGaussianBlur stdDeviation="3" result="h"/><feFlood flood-opacity="0.161"/><feComposite operator="in" in2="h"/><feComposite in="SourceGraphic"/></filter><filter id="i" x="28.679" y="436.763" width="289.499" height="33.729" filterUnits="userSpaceOnUse"><feOffset dy="-3" input="SourceAlpha"/><feGaussianBlur stdDeviation="3" result="j"/><feFlood flood-opacity="0.161"/><feComposite operator="in" in2="j"/><feComposite in="SourceGraphic"/></filter><filter id="k" x="38.394" y="50.313" width="72.715" height="77.941" filterUnits="userSpaceOnUse"><feOffset dy="3" input="SourceAlpha"/><feGaussianBlur stdDeviation="3" result="l"/><feFlood flood-opacity="0.161"/><feComposite operator="in" in2="l"/><feComposite in="SourceGraphic"/></filter><filter id="m" x="43.198" y="58.459" width="27.455" height="58.078" filterUnits="userSpaceOnUse"><feOffset dy="3" input="SourceAlpha"/><feGaussianBlur stdDeviation="3" result="n"/><feFlood flood-opacity="0.161"/><feComposite operator="in" in2="n"/><feComposite in="SourceGraphic"/></filter><filter id="o" x="50.836" y="53.577" width="27.911" height="64.134" filterUnits="userSpaceOnUse"><feOffset dy="3" input="SourceAlpha"/><feGaussianBlur stdDeviation="3" result="p"/><feFlood flood-opacity="0.161"/><feComposite operator="in" in2="p"/><feComposite in="SourceGraphic"/></filter><filter id="q" x="66.71" y="52.491" width="27.414" height="67.046" filterUnits="userSpaceOnUse"><feOffset dy="3" input="SourceAlpha"/><feGaussianBlur stdDeviation="3" result="r"/><feFlood flood-opacity="0.161"/><feComposite operator="in" in2="r"/><feComposite in="SourceGraphic"/></filter><filter id="s" x="74.346" y="58.465" width="27.617" height="60.508" filterUnits="userSpaceOnUse"><feOffset dy="3" input="SourceAlpha"/><feGaussianBlur stdDeviation="3" result="t"/><feFlood flood-opacity="0.161"/><feComposite operator="in" in2="t"/><feComposite in="SourceGraphic"/></filter><filter id="u" x="58.164" y="51.778" width="28.953" height="67.273" filterUnits="userSpaceOnUse"><feOffset dy="3" input="SourceAlpha"/><feGaussianBlur stdDeviation="3" result="v"/><feFlood flood-opacity="0.161"/><feComposite operator="in" in2="v"/><feComposite in="SourceGraphic"/></filter><filter id="w" x="0" y="41.481" width="346.856" height="51.198" filterUnits="userSpaceOnUse"><feOffset dy="3" input="SourceAlpha"/><feGaussianBlur stdDeviation="3" result="x"/><feFlood flood-opacity="0.161"/><feComposite operator="in" in2="x"/><feComposite in="SourceGraphic"/></filter></defs><g transform="translate(-41.899 -99.508)"><path class="a" d="M215.327,502.656H79.578V564h271.5V502.656Z"/><g class="y" transform="matrix(1, 0, 0, 1, 41.9, 99.51)"><rect class="b" width="15.729" height="61.343" transform="translate(37.68 403.15)"/></g><g class="x" transform="matrix(1, 0, 0, 1, 41.9, 99.51)"><path class="b" d="M353.04,489.623H77.615a2,2,0,0,0-2,2v9.034a2,2,0,0,0,2,2H353.04a2,2,0,0,0,2-2v-9.034A2,2,0,0,0,353.04,489.623Z" transform="translate(-41.9 -99.51)"/></g><g class="w" transform="matrix(1, 0, 0, 1, 41.9, 99.51)"><path class="c" d="M356.912,479.682l-141.585-.809-141.584.809a3.071,3.071,0,0,0-3.054,3.115l.056,3.834a5.7,5.7,0,0,0,5.7,5.623H354.2a5.706,5.706,0,0,0,5.705-5.623l.055-3.834A3.07,3.07,0,0,0,356.912,479.682Z" transform="translate(-41.9 -99.51)"/></g><path class="d" d="M358.885,480.128l-5.007-5.008-15.427-13.941a2.685,2.685,0,0,0-1.8-.692H94a2.685,2.685,0,0,0-1.8.692L76.777,475.12l-5.008,5.008a3.594,3.594,0,0,0,2.541,6.135H356.344A3.593,3.593,0,0,0,358.885,480.128Z"/><g class="v" transform="matrix(1, 0, 0, 1, 41.9, 99.51)"><rect class="b" width="15.729" height="61.343" transform="translate(309.18 464.49) rotate(-180)"/></g><g class="u" transform="matrix(1, 0, 0, 1, 41.9, 99.51)"><path class="b" d="M215.327,548.271H79.578V564h271.5V548.271Z" transform="translate(-41.9 -99.51)"/></g><rect class="e" width="10.27" height="313.032" transform="translate(343.608 162.088)"/><path class="f" d="M343.608,475.12l-5.035-5.035v-308h5.035Z"/><rect class="e" width="10.27" height="313.032" transform="translate(76.777 162.088)"/><path class="f" d="M87.047,475.12l5.035-5.035v-308H87.047Z"/><path class="g" d="M377.408,146.706a.632.632,0,0,0-.026-.067c-9.915-15.63-19.94-31.191-29.856-46.821a.5.5,0,0,0-.055-.057.505.505,0,0,0-.113-.118.308.308,0,0,0-.036-.027.562.562,0,0,0-.207-.082.578.578,0,0,0-.129-.026H215.952a.569.569,0,0,0-.4.156c-.013.01-.026.018-.039.029a.482.482,0,0,0-.032.043.228.228,0,1,1-.307,0,.35.35,0,0,0-.033-.043.4.4,0,0,0-.039-.029.566.566,0,0,0-.4-.156H83.668a.59.59,0,0,0-.129.026.569.569,0,0,0-.207.082c-.012.007-.023.018-.036.027a.55.55,0,0,0-.113.118c-.017.021-.039.032-.054.057-9.916,15.63-19.941,31.191-29.857,46.821-.01.016-.009.031-.025.067a.543.543,0,0,0-.061.283H377.469A.563.563,0,0,0,377.408,146.706Z"/><g class="t" transform="matrix(1, 0, 0, 1, 41.9, 99.51)"><path class="h" d="M146.949,168.609a.676.676,0,0,0-.364-.891c-2.7-3.777-8.011-3.266-11.937-5.256-4.6-2.329-8.7-6.388-14.129-6.632-6.024-.271-9.481,5.356-15.229,6.275-5.113.817-9.118,2.5-12.754,6.3a.6.6,0,0,0-.021.82c-.652,5.014.265,9.7,1.053,14.629.148.921.264,1.846.361,2.773.063.6.221,1.189.26,1.791a4.792,4.792,0,0,1-.354,1.8,38.929,38.929,0,0,0-1.349,10.015,47.709,47.709,0,0,0,.695,10.5.567.567,0,0,0,.122.265.6.6,0,0,0,.165.21c3.852,3.217,8.2,1.37,12.81,2.01,4.637.645,8.6,2.757,13.211,1.2a.625.625,0,0,0,.562.186c3.643-.6,6.741-.844,10.284.339,1.89.632,3.225,1.171,5.237.534,2.425-.768,5.4-2.331,4.83-5.3-.161-.847.293-1.31.519-2.076a15.537,15.537,0,0,0,.458-2.1,25.141,25.141,0,0,0,.217-4.319c-.068-2.846-.424-5.684-.339-8.534A65.577,65.577,0,0,1,146.949,168.609Z" transform="translate(-44.9 -99.51)"/></g><g class="i" transform="translate(-4)"><g class="s" transform="matrix(1, 0, 0, 1, 45.9, 99.51)"><path class="j" d="M107.552,163.967c-.92.123-1.849.181-2.775.218a30.764,30.764,0,0,1-4.013.1,1.4,1.4,0,0,0-.539.006c-.877.263-1.055,2.73-1.158,3.486-.192,1.408-.231,2.83-.3,4.248-.129,2.541-.4,5.03-.379,7.584.033,3.474.312,6.942.3,10.418a42.748,42.748,0,0,1-.3,5.268c-.3,2.339-.8,4.585,1.149,6.413a5.236,5.236,0,0,0,2.725,1.453c1.147.352,2.33.637,3.532.881A321.809,321.809,0,0,1,107.552,163.967Z" transform="translate(-45.9 -99.51)"/></g><g class="r" transform="matrix(1, 0, 0, 1, 45.9, 99.51)"><path class="k" d="M113.115,183.8c-.339-8.293,1.054-16.542,2.532-24.718-.145.111-.294.218-.431.337-2.1,1.832-3.371,3.662-6.374,4.325-.427.1-.857.162-1.29.22a321.809,321.809,0,0,0-1.762,40.078c2.54.518,5.168.846,7.752,1.174C114.955,198.289,113.408,190.957,113.115,183.8Z" transform="translate(-45.9 -99.51)"/></g><g class="q" transform="matrix(1, 0, 0, 1, 45.9, 99.51)"><path class="k" d="M129.505,179.929c.308-5.335.894-10.648,1.519-15.956a10.247,10.247,0,0,1-3.29-2.871,10.854,10.854,0,0,0-3.717-3.1,246.055,246.055,0,0,0-2,48.56,23.823,23.823,0,0,0,6.126.425,9.995,9.995,0,0,0,2.253-.5,22.478,22.478,0,0,1-.5-3.345A155.535,155.535,0,0,1,129.505,179.929Z" transform="translate(-45.9 -99.51)"/></g><g class="p" transform="matrix(1, 0, 0, 1, 45.9, 99.51)"><path class="j" d="M138.642,166.635c-.53-.732-1.716-.908-2.534-1.126-.971-.259-1.956-.462-2.927-.723a10.757,10.757,0,0,1-2.157-.813c-.625,5.308-1.211,10.621-1.519,15.956a155.535,155.535,0,0,0,.393,23.207,22.478,22.478,0,0,0,.5,3.345,12.211,12.211,0,0,0,2.835-1.385,20.4,20.4,0,0,0,2.248-1.758,8.879,8.879,0,0,1,1.877-1.674c1.214-.6.87-2.153.918-3.306.054-1.295.021-2.592-.034-3.886-.11-2.591-.338-5.184-.231-7.779q.209-5.068.42-10.136l.21-5.067q.053-1.268.106-2.534C138.775,168.3,139.049,167.2,138.642,166.635Z" transform="translate(-45.9 -99.51)"/></g><g class="o" transform="matrix(1, 0, 0, 1, 45.9, 99.51)"><path class="j" d="M124.017,158a7.47,7.47,0,0,0-2.19-.648,8.5,8.5,0,0,0-6.18,1.734c-1.478,8.176-2.871,16.425-2.532,24.718.293,7.154,1.84,14.486.427,21.416,1.326.168,2.641.338,3.924.535,1.467.225,3,.54,4.554.805A246.055,246.055,0,0,1,124.017,158Z" transform="translate(-45.9 -99.51)"/></g></g><g class="n" transform="matrix(1, 0, 0, 1, 41.9, 99.51)"><path class="l" d="M377.469,146.989c.342,9.3-.928,20.185-9.572,25.6a15.779,15.779,0,0,1-1.713.914c-.172.081-.343.163-.518.237h0a15.471,15.471,0,0,1-1.564.572h0q-.6.179-1.2.31h0c-.156.034-.314.055-.471.084-.255.047-.51.092-.766.125h0c-.137.018-.273.032-.409.046h0c-.3.03-.593.049-.891.061h0c-.125.005-.25.013-.375.014h0c-.056,0-.111.006-.167.006-.239,0-.478-.019-.717-.032-.146-.007-.291-.007-.437-.019h0c-.435-.037-.869-.091-1.3-.171a10.508,10.508,0,0,1-5.344-3.314c-1.379-1.362-3.065-3.293-5.1-3.587a3.306,3.306,0,0,0-.628-.02c-.1.005-.209.017-.313.031a3.888,3.888,0,0,0-.4.07c-.1.025-.205.052-.307.084-.132.041-.263.088-.392.14-.1.04-.2.08-.3.126-.129.061-.257.127-.384.2-.094.051-.188.1-.281.156-.128.077-.254.158-.379.241-.086.058-.173.113-.258.172-.025.017-.048.036-.072.053-.1.075-.207.15-.31.227-.075.057-.152.112-.226.17-.14.109-.275.219-.409.328-.055.045-.112.089-.165.134-.182.15-.358.3-.527.441a31,31,0,0,1-4.531,3.66,14.35,14.35,0,0,1-6.408,1.95c-.164.007-.329.01-.495.01s-.341-.02-.511-.027h0c-.189-.008-.377-.013-.566-.03h0c-.117-.011-.233-.032-.349-.048a10.954,10.954,0,0,1-1.705-.342c-.051-.015-.1-.026-.154-.041h0c-.145-.044-.294-.077-.437-.127h0a9.088,9.088,0,0,1-1.231-.532,12.774,12.774,0,0,1-3.54-3.363c-1-1.184-2.329-2.825-3.971-3.07a1.3,1.3,0,0,0-.34.011,1.693,1.693,0,0,0-.208.032,2.07,2.07,0,0,0-.259.086c-.07.027-.139.052-.21.087-.036.018-.073.041-.11.061s-.1.056-.154.087c-.068.041-.136.079-.2.125-.09.061-.177.128-.265.2-.065.05-.13.1-.194.149-.084.069-.164.14-.245.212l-.016.015c-.06.052-.119.1-.177.156-.076.071-.147.141-.218.211l-.044.042c-.048.047-.1.093-.143.139l-.012.012c-.1.1-.185.188-.271.277-.14.144-.271.28-.382.393a15.7,15.7,0,0,1-3.345,2.949,13,13,0,0,1-1.205.587,12.054,12.054,0,0,1-2.552.764,11.342,11.342,0,0,1-1.329.16q-.37.022-.741.023c-.113,0-.225-.014-.339-.017a10.673,10.673,0,0,1-4.146-.928c-1.705-.779-2.981-2.281-4.378-3.482-.106-.091-.214-.183-.323-.274l-.008-.007-.083-.068c-.1-.084-.2-.167-.305-.249l-.011-.009-.041-.032c-.116-.091-.233-.178-.351-.263l-.087-.061c-.1-.069-.2-.134-.3-.2-.028-.017-.055-.036-.082-.052q-.183-.111-.37-.2l-.078-.036c-.1-.049-.208-.092-.313-.131l-.1-.035a2.835,2.835,0,0,0-.387-.1c-.018,0-.036,0-.054-.008a2.473,2.473,0,0,0-.343-.032c-.04,0-.08,0-.121,0-.064,0-.129.007-.194.014l-.045.006c-.031,0-.062.007-.093.013-.067.012-.135.029-.2.048-.044.012-.088.022-.132.037-.074.025-.148.058-.223.091-.038.018-.077.031-.115.051a2.846,2.846,0,0,0-.34.2c-1.753,1.214-3.03,3.121-4.9,4.163a12.5,12.5,0,0,1-5.387,1.585q-.339.018-.678.018c-.171,0-.341-.021-.513-.028h0c-.337-.014-.672-.045-1.006-.085-.17-.022-.34-.04-.51-.067h0c-.191-.031-.382-.055-.571-.094h0c-.327-.068-.648-.156-.969-.248h0c-.157-.046-.316-.08-.472-.131h0a13.518,13.518,0,0,1-1.392-.539h0a5.991,5.991,0,0,1-.739-.411c-.084-.054-.164-.116-.246-.173-.153-.108-.305-.215-.453-.332-.02-.016-.042-.029-.062-.046q-.234-.189-.462-.389c-.278-.242-.55-.491-.822-.738-.17-.155-.34-.3-.511-.454-.084-.073-.17-.144-.255-.215-.16-.133-.323-.257-.487-.377-.077-.057-.154-.116-.233-.17a5.382,5.382,0,0,0-.738-.427,2.76,2.76,0,0,0-.463-.162l-.1-.021-.027-.006a2.221,2.221,0,0,0-.336-.039c-.032,0-.065-.005-.1-.005a2.037,2.037,0,0,0-.465.064c-.032.007-.063.017-.093.026a2.534,2.534,0,0,0-.44.175c-.012.006-.024.014-.036.021a4,4,0,0,0-.4.254l-.073.052q-.2.15-.4.323l-.061.054-.031.027c-.131.115-.262.235-.393.358l0,0-.359.338-.128.119h0c-.138.128-.277.253-.42.375h0l-.006,0c-.175.15-.355.3-.542.427a13.629,13.629,0,0,1-5.936,2.341,12.6,12.6,0,0,1-1.626.116c-.041,0-.082,0-.124,0-.427,0-.855-.027-1.281-.068-.112-.011-.223-.029-.336-.042h0q-.549-.067-1.091-.178h0c-.129-.027-.257-.052-.386-.082h0a13.376,13.376,0,0,1-1.347-.382,8.576,8.576,0,0,1-.888-.373c-.071-.035-.143-.069-.214-.1-.277-.141-.551-.289-.819-.45-.406-.245-.8-.508-1.2-.777-.59-.4-1.173-.817-1.772-1.2a15.673,15.673,0,0,0-1.462-.841,6.454,6.454,0,0,0-1.585-.561,3.053,3.053,0,0,0-.543-.056h-.134a2.929,2.929,0,0,0-.589.069c-.01,0-.02.006-.03.009a3.405,3.405,0,0,0-.543.184c-.033.014-.067.027-.1.042a5.238,5.238,0,0,0-.522.276c-.033.019-.066.041-.1.061l-.012.007c-.172.108-.345.221-.518.344h0a13.34,13.34,0,0,0-1.422,1.186c-.225.212-.446.429-.665.647-.264.263-.528.527-.793.789-.09.089-.181.177-.272.265-.307.3-.619.59-.945.865a9.5,9.5,0,0,1-1.521,1.061,8.605,8.605,0,0,1-.8.388c-.086.036-.173.068-.26.1-.19.075-.382.145-.576.207-.1.031-.2.061-.294.089-.2.056-.395.106-.594.152-.087.02-.174.042-.262.06-.284.058-.569.109-.857.148-.507.07-1.02.115-1.535.142-.258.014-.516.023-.775.03-.275.006-.554.011-.836.011h0c-.208,0-.418,0-.628-.01l-.422-.014h0c-.149-.007-.3-.015-.446-.024q-.717-.045-1.427-.152c-.1-.016-.208-.03-.311-.048h0c-.108-.019-.216-.039-.324-.061h0c-.164-.032-.326-.07-.487-.11h0c-.1-.025-.2-.049-.3-.076h0c-.049-.014-.1-.031-.143-.045a8.863,8.863,0,0,1-1.36-.506c-2.944-1.409-4.024-4.755-7.828-5.014H214.7c-3.8.259-4.883,3.6-7.827,5.014a8.9,8.9,0,0,1-1.36.506c-.048.014-.1.031-.143.045h0c-.1.027-.2.051-.3.076h0c-.162.04-.324.078-.487.11h0c-.108.022-.216.042-.325.061h0c-.1.018-.207.032-.311.048-.473.071-.95.122-1.427.152l-.446.024h0l-.421.014c-.211.005-.421.01-.628.01h0c-.282,0-.561,0-.836-.011-.259-.007-.517-.016-.775-.03-.516-.027-1.028-.072-1.535-.142-.288-.039-.573-.09-.857-.148-.088-.018-.175-.04-.263-.06-.2-.046-.4-.1-.593-.152-.1-.028-.2-.058-.294-.089-.194-.062-.386-.132-.577-.207-.086-.033-.174-.065-.26-.1a8.731,8.731,0,0,1-.805-.388,9.541,9.541,0,0,1-1.52-1.061c-.327-.275-.638-.568-.945-.865-.091-.088-.183-.176-.273-.265-.265-.262-.528-.526-.792-.789-.219-.218-.44-.435-.665-.647a13.441,13.441,0,0,0-1.422-1.186h0c-.173-.123-.345-.236-.518-.344l-.011-.007c-.033-.02-.066-.042-.1-.061a5.238,5.238,0,0,0-.522-.276c-.033-.015-.067-.028-.1-.042a3.474,3.474,0,0,0-.543-.184.283.283,0,0,0-.031-.009,2.911,2.911,0,0,0-.588-.069h-.134a3.073,3.073,0,0,0-.544.056,6.461,6.461,0,0,0-1.584.561,15.546,15.546,0,0,0-1.462.841c-.6.379-1.183.793-1.773,1.2-.393.269-.789.532-1.2.777-.267.161-.541.309-.819.45-.071.036-.142.07-.214.1a8.56,8.56,0,0,1-.887.373,13.526,13.526,0,0,1-1.347.382h0c-.128.03-.256.055-.385.082h0c-.276.056-.555.1-.835.136-.2.028-.394.065-.593.084-.426.042-.853.068-1.281.068-.041,0-.082,0-.124,0a12.58,12.58,0,0,1-1.625-.116,13.628,13.628,0,0,1-5.937-2.341c-.187-.132-.366-.277-.541-.427l-.006,0h0q-.215-.183-.42-.375h0l-.128-.119-.359-.338,0,0c-.132-.123-.262-.243-.393-.358l-.031-.027-.061-.054q-.2-.172-.4-.323l-.073-.052a4,4,0,0,0-.4-.254c-.013-.007-.024-.015-.037-.021a2.5,2.5,0,0,0-.439-.175c-.031-.009-.062-.019-.093-.026a2.045,2.045,0,0,0-.465-.064c-.032,0-.065,0-.1.005a2.194,2.194,0,0,0-.335.039l-.027.006-.1.021a2.7,2.7,0,0,0-.463.162,5.264,5.264,0,0,0-.738.427c-.079.054-.156.113-.234.17-.163.12-.326.244-.486.377-.086.071-.171.142-.256.215-.17.149-.341.3-.511.454-.271.247-.543.5-.821.738q-.228.2-.463.389c-.02.017-.041.03-.062.046-.147.117-.3.224-.453.332-.082.057-.161.119-.245.173a6.067,6.067,0,0,1-.739.411h0a13.445,13.445,0,0,1-1.393.539h0c-.155.051-.314.085-.471.131h0c-.32.092-.642.18-.968.248h0c-.189.039-.38.063-.571.094h0c-.169.027-.339.045-.509.067-.335.04-.669.071-1.006.085h0c-.171.007-.341.028-.513.028q-.339,0-.678-.018a12.5,12.5,0,0,1-5.387-1.585c-1.867-1.042-3.144-2.949-4.9-4.163a2.848,2.848,0,0,0-.34-.2c-.039-.02-.077-.033-.115-.051-.075-.033-.149-.066-.223-.091-.045-.015-.089-.025-.133-.037-.067-.019-.135-.036-.2-.048-.031-.006-.062-.009-.093-.013l-.046-.006c-.064-.007-.129-.013-.194-.014q-.06,0-.12,0a2.473,2.473,0,0,0-.343.032c-.018,0-.036,0-.055.008a2.821,2.821,0,0,0-.386.1l-.1.035c-.1.039-.209.082-.313.131l-.078.036q-.186.093-.369.2c-.028.016-.055.035-.082.052-.1.063-.2.128-.3.2l-.087.061c-.119.085-.236.172-.351.263l-.041.032-.011.009q-.154.123-.306.249l-.082.068-.008.007c-.109.091-.217.183-.323.274-1.4,1.2-2.673,2.7-4.378,3.482a10.682,10.682,0,0,1-4.147.928c-.113,0-.225.017-.338.017q-.371,0-.741-.023a11.317,11.317,0,0,1-1.329-.16,12.037,12.037,0,0,1-2.552-.764,12.753,12.753,0,0,1-1.205-.587,15.727,15.727,0,0,1-3.346-2.949c-.111-.113-.242-.249-.381-.393-.087-.089-.176-.181-.272-.277l-.011-.012c-.046-.046-.1-.092-.143-.139l-.044-.042c-.072-.07-.143-.14-.218-.211-.058-.053-.118-.1-.177-.156l-.017-.015c-.08-.072-.16-.143-.244-.212-.064-.053-.129-.1-.194-.149-.088-.067-.176-.134-.265-.2-.068-.046-.136-.084-.205-.125-.051-.031-.1-.059-.154-.087-.036-.02-.073-.043-.11-.061a2.218,2.218,0,0,0-.21-.087,2,2,0,0,0-.258-.086,1.679,1.679,0,0,0-.209-.032,1.3,1.3,0,0,0-.34-.011c-1.641.245-2.975,1.886-3.97,3.07a12.788,12.788,0,0,1-3.54,3.363,9.086,9.086,0,0,1-1.231.532h0c-.142.05-.291.083-.436.127h0c-.051.015-.1.026-.153.041a10.953,10.953,0,0,1-1.705.342c-.116.016-.232.037-.349.048h0c-.19.017-.377.022-.566.03h0c-.171.007-.342.027-.512.027s-.33,0-.494-.01a14.35,14.35,0,0,1-6.408-1.95,31.005,31.005,0,0,1-4.531-3.66c-.169-.142-.346-.291-.527-.441-.054-.045-.11-.089-.165-.134-.134-.109-.269-.219-.409-.328-.074-.058-.151-.113-.227-.17-.1-.077-.2-.152-.31-.227l-.071-.053c-.085-.059-.172-.115-.259-.172l-.1-.065c-.092-.06-.183-.12-.276-.176s-.187-.1-.282-.156c-.127-.069-.254-.135-.384-.2-.1-.046-.2-.086-.295-.126-.13-.052-.261-.1-.393-.14-.1-.032-.2-.059-.306-.084a3.938,3.938,0,0,0-.4-.07c-.105-.014-.209-.026-.314-.031a3.3,3.3,0,0,0-.627.02c-2.035.294-3.721,2.225-5.1,3.587a10.512,10.512,0,0,1-5.344,3.314c-.431.08-.865.134-1.3.171h0c-.145.012-.29.012-.436.019-.239.013-.478.032-.717.032-.056,0-.112-.005-.167-.006h0c-.125,0-.249-.009-.374-.014h0c-.3-.012-.595-.031-.892-.061h0c-.137-.014-.273-.028-.409-.046h0c-.257-.033-.512-.078-.766-.125-.157-.029-.316-.05-.472-.084h0q-.608-.13-1.2-.31h0a15.575,15.575,0,0,1-1.565-.572h0c-.175-.074-.346-.156-.518-.237a15.6,15.6,0,0,1-1.713-.914c-8.645-5.417-9.914-16.306-9.572-25.6a22.373,22.373,0,0,0-2.116,12.4c1.5,7.245,4.838,12.449,10.1,15.743a18.48,18.48,0,0,0,9.675,2.827,16.583,16.583,0,0,0,3-.271c2.949-.545,5.063-2.308,6.908-4.131.165-.163.335-.335.509-.511.888-.9,2.1-2.124,2.911-2.241h0c.754,0,2.157,1.18,2.91,1.815l.072.06c.394.332.78.682,1.168,1.034a21.15,21.15,0,0,0,3.832,2.95,17.327,17.327,0,0,0,7.749,2.328c.2.009.41.013.616.013a13.631,13.631,0,0,0,6.357-1.495,13.911,13.911,0,0,0,4.134-3.727l.3-.358.092-.109a12.771,12.771,0,0,1,1.65-1.723c.342.291.758.722.971.943l.28.288q.262.266.523.539a13.807,13.807,0,0,0,9.86,4.806c.308.019.615.029.923.029a13.692,13.692,0,0,0,5.731-1.216,15.234,15.234,0,0,0,4.072-3.008c.354-.333.689-.647,1.015-.927a10.668,10.668,0,0,1,1.241-.958,16.994,16.994,0,0,1,1.547,1.415,15.811,15.811,0,0,0,3.39,2.752,15.528,15.528,0,0,0,6.689,1.961q.42.022.838.022a16,16,0,0,0,6.679-1.462,13.153,13.153,0,0,0,3.4-2.456,13.086,13.086,0,0,1,1.3-1.093c.193.165.426.385.6.552a14.358,14.358,0,0,0,1.614,1.373,16.613,16.613,0,0,0,7.252,2.861,15.818,15.818,0,0,0,2.162.148,16.486,16.486,0,0,0,5.428-.919,17.9,17.9,0,0,0,4.291-2.383c.4-.278.805-.557,1.216-.817a7.01,7.01,0,0,1,2.031-1,2.414,2.414,0,0,1,.77.446,16.633,16.633,0,0,1,2.021,1.828,17.392,17.392,0,0,0,3.882,3.164,15.735,15.735,0,0,0,7.334,1.689c.3.007.605.012.913.012a16.206,16.206,0,0,0,7.148-1.34,13.552,13.552,0,0,0,3.712-2.838c1.239-1.221,1.885-1.811,3.024-1.889a1.442,1.442,0,0,1,.843,0c1.139.078,1.785.668,3.024,1.889a13.552,13.552,0,0,0,3.712,2.838,16.2,16.2,0,0,0,7.148,1.34c.308,0,.613,0,.913-.012a15.731,15.731,0,0,0,7.333-1.689,17.347,17.347,0,0,0,3.882-3.164,16.783,16.783,0,0,1,2.021-1.828,2.426,2.426,0,0,1,.77-.446,6.985,6.985,0,0,1,2.031,1c.411.26.814.539,1.217.817a17.913,17.913,0,0,0,4.29,2.383,16.5,16.5,0,0,0,5.428.919,15.833,15.833,0,0,0,2.163-.148,16.613,16.613,0,0,0,7.252-2.861,14.448,14.448,0,0,0,1.614-1.373c.177-.167.41-.387.6-.552a13.2,13.2,0,0,1,1.3,1.093,13.153,13.153,0,0,0,3.4,2.456,16,16,0,0,0,6.679,1.462q.418,0,.837-.022a15.524,15.524,0,0,0,6.689-1.961,15.843,15.843,0,0,0,3.391-2.752,17,17,0,0,1,1.547-1.415,10.565,10.565,0,0,1,1.24.958c.327.28.661.594,1.016.927a15.217,15.217,0,0,0,4.072,3.008,13.689,13.689,0,0,0,5.731,1.216q.461,0,.923-.029a13.813,13.813,0,0,0,9.86-4.806q.261-.273.523-.539l.279-.288c.214-.221.63-.652.972-.943a12.771,12.771,0,0,1,1.65,1.723l.092.109.3.358a13.927,13.927,0,0,0,4.135,3.727,13.63,13.63,0,0,0,6.356,1.495c.207,0,.412,0,.617-.013a17.327,17.327,0,0,0,7.749-2.328,21.105,21.105,0,0,0,3.831-2.95c.389-.352.775-.7,1.168-1.034l.072-.06c.754-.635,2.156-1.815,2.911-1.815h0c.806.117,2.022,1.345,2.91,2.241.174.176.344.348.51.511,1.845,1.823,3.958,3.586,6.908,4.131a16.575,16.575,0,0,0,3,.271,18.48,18.48,0,0,0,9.675-2.827c5.257-3.294,8.594-8.5,10.094-15.743A22.368,22.368,0,0,0,377.469,146.989Z" transform="translate(-41.9 -99.51)"/></g><path class="m" d="M377.469,146.989H53.186c-.342,9.3.927,20.185,9.572,25.6.35.22.712.421,1.08.613.112.059.227.112.342.168.1.047.194.088.291.133.172.081.343.163.518.237.126.054.253.107.38.156q.451.177.914.325c.09.029.18.063.271.091q.6.179,1.2.31c.1.022.2.036.3.055.058.012.117.018.175.029.255.046.51.092.766.125.136.018.273.032.409.046q.446.045.893.061c.124.005.249.013.374.014s.272-.009.408-.012c.159-.005.319-.005.479-.014.144-.007.29-.007.434-.019.435-.037.869-.091,1.3-.171a10.512,10.512,0,0,0,5.344-3.314c1.378-1.362,3.064-3.293,5.1-3.587a3.322,3.322,0,0,1,.476-.034c.051,0,.1.012.151.014a4.053,4.053,0,0,1,1.02.185c.132.041.263.087.393.14h0c.1.04.2.08.295.126h0c.129.061.256.126.383.195h0c.19.1.375.214.558.332l.1.065h0c.087.057.174.113.259.172h0l.071.052c.183.13.363.261.537.4h0c.139.109.272.217.406.326l0,0c.055.045.111.089.165.134h0c.182.15.358.3.527.441a31.005,31.005,0,0,0,4.531,3.66,14.35,14.35,0,0,0,6.408,1.95c.332.013.669,0,1.006-.017.188-.008.377-.013.566-.03.117-.011.232-.034.349-.048.153-.021.307-.038.46-.062.178-.029.356-.051.532-.088.242-.051.477-.122.713-.192.051-.014.1-.026.154-.041.145-.044.294-.077.436-.127a9.1,9.1,0,0,0,1.232-.532,12.788,12.788,0,0,0,3.54-3.363c.995-1.184,2.329-2.825,3.97-3.07a1.23,1.23,0,0,1,.182-.013,1.437,1.437,0,0,1,.158.024,1.679,1.679,0,0,1,.209.032h0a2,2,0,0,1,.258.086h0a3.046,3.046,0,0,1,.32.148c.051.029.1.055.154.086h0c.069.041.137.079.205.125h0c.089.061.176.127.264.194h0q.225.173.438.361l.017.015h0c.137.122.268.243.4.367l.044.042h0c.052.051.105.1.154.151.094.094.181.184.266.272l.006.005c.139.144.27.28.381.393a15.727,15.727,0,0,0,3.346,2.949,12.753,12.753,0,0,0,1.205.587,12.037,12.037,0,0,0,2.552.764,11.317,11.317,0,0,0,1.329.16c.36.022.72.016,1.079.006.166-.005.332-.013.5-.024.26-.019.519-.049.777-.086.158-.023.316-.043.473-.072.277-.052.551-.121.824-.2.132-.036.265-.064.395-.1a10.289,10.289,0,0,0,1.181-.447c1.705-.779,2.98-2.281,4.378-3.482.106-.091.214-.183.323-.274h0l.008-.007q.2-.165.4-.326l.04-.032h0a8.282,8.282,0,0,1,.737-.521h0c.027-.017.053-.035.081-.051h0a4.44,4.44,0,0,1,.76-.371h0l.1-.035h0a2.689,2.689,0,0,1,.784-.143h0c.02,0,.039-.005.059-.005s.041,0,.061.005h0c.065,0,.13.007.194.014h0l.045.006a2.361,2.361,0,0,1,.651.189h0c.038.017.076.03.115.05h0a2.848,2.848,0,0,1,.34.2c1.753,1.214,3.03,3.121,4.9,4.163a12.5,12.5,0,0,0,5.387,1.585c.4.021.795.006,1.192-.01.2-.008.409-.016.612-.034.132-.011.263-.034.394-.051.17-.021.341-.04.51-.067.191-.031.382-.055.571-.094.326-.068.648-.157.969-.248.157-.045.316-.08.471-.131a13.445,13.445,0,0,0,1.393-.539,5.853,5.853,0,0,0,.742-.412c.083-.054.162-.115.244-.172.153-.108.307-.216.454-.333.178-.141.353-.285.525-.435.278-.242.55-.492.821-.738.17-.155.341-.306.511-.454.085-.073.171-.144.256-.215.16-.133.323-.257.486-.377.078-.057.155-.116.234-.17a5.264,5.264,0,0,1,.738-.427,2.621,2.621,0,0,1,.562-.183l.027-.006h0a2.194,2.194,0,0,1,.335-.039h0c.022,0,.047-.008.069-.008s.018,0,.028,0h0a3.066,3.066,0,0,1,1.914.915h0l.06.053q.213.186.426.387c.119.111.239.225.359.338l.128.119q.205.192.42.375l.006,0,.077.065c.151.126.305.249.464.362a13.628,13.628,0,0,0,5.937,2.341,12.616,12.616,0,0,0,1.443.11c.061,0,.121.005.182.006a13.507,13.507,0,0,0,1.407-.064c.112-.011.223-.029.334-.042.087-.011.171-.03.257-.042.28-.04.559-.08.836-.136.128-.027.257-.052.385-.082a13.744,13.744,0,0,0,1.348-.383,8.56,8.56,0,0,0,.887-.373c.072-.035.143-.069.214-.1.278-.141.552-.289.819-.45.407-.245.8-.508,1.2-.777.59-.4,1.173-.817,1.773-1.2a15.546,15.546,0,0,1,1.462-.841,6.461,6.461,0,0,1,1.584-.561,3.073,3.073,0,0,1,.544-.056h0c.02,0,.042-.006.062-.006s.047.008.071.008a2.921,2.921,0,0,1,.589.069c.011,0,.02.006.031.009h0a3.474,3.474,0,0,1,.543.184h0c.033.014.067.027.1.042h0a5.238,5.238,0,0,1,.522.276h0c.033.019.066.04.1.061.177.11.353.225.529.351h0a13.34,13.34,0,0,1,1.422,1.186c.225.212.446.429.665.647.264.263.527.527.792.789.09.089.182.177.273.265.307.3.618.59.945.865a9.541,9.541,0,0,0,1.52,1.061,8.731,8.731,0,0,0,.805.388c.086.036.174.068.26.1.191.075.383.145.577.207.1.031.2.061.294.089.2.056.394.106.593.152.088.02.175.042.263.06.283.058.569.109.857.148.507.07,1.019.115,1.535.142.258.014.516.023.775.03.275.006.554.011.836.011.165,0,.332,0,.5-.008.1,0,.2,0,.3-.005l.252-.011q.224-.01.447-.024c.037,0,.074,0,.111-.006.1-.007.205-.017.307-.026.169-.014.338-.03.507-.05.109-.013.217-.027.326-.042.059-.008.117-.019.176-.028.1-.015.208-.031.311-.048s.217-.039.325-.061c.164-.032.326-.071.488-.11.1-.025.2-.049.3-.076.048-.014.1-.031.143-.045.124-.037.249-.075.372-.116.084-.028.169-.053.252-.083.25-.092.5-.192.736-.307,2.944-1.409,4.024-4.755,7.827-5.014h1.25c3.8.259,4.884,3.6,7.828,5.014.239.115.485.215.736.307.083.03.168.055.252.083.123.041.247.079.372.116.048.014.094.031.143.045.1.027.2.051.3.076.161.039.324.078.488.11.108.022.216.042.324.061s.208.033.312.048c.058.009.117.02.176.028.108.015.217.029.325.042.169.02.338.036.508.05.1.009.2.019.307.026.037,0,.074,0,.111.006l.446.024.253.011c.1,0,.2,0,.3.005.166,0,.334.008.5.008.282,0,.561,0,.836-.011.259-.007.517-.016.775-.03.515-.027,1.028-.072,1.535-.142.288-.039.573-.09.857-.148.088-.018.175-.04.262-.06.2-.046.4-.1.594-.152.1-.028.2-.058.294-.089.194-.062.386-.132.576-.207.087-.033.174-.065.26-.1a8.605,8.605,0,0,0,.8-.388,9.5,9.5,0,0,0,1.521-1.061c.326-.275.638-.568.945-.865.091-.088.182-.176.272-.265.265-.262.529-.526.793-.789.219-.218.44-.435.665-.647a13.34,13.34,0,0,1,1.422-1.186h0c.177-.126.353-.241.53-.351.032-.021.066-.042.1-.061h0a5.238,5.238,0,0,1,.522-.276h0c.033-.015.067-.028.1-.042h0a3.405,3.405,0,0,1,.543-.184h0c.01,0,.02-.007.03-.009a2.929,2.929,0,0,1,.589-.069c.025,0,.047-.008.071-.008s.042.006.062.006h0a3.053,3.053,0,0,1,.543.056,6.468,6.468,0,0,1,1.585.561,15.673,15.673,0,0,1,1.462.841c.6.379,1.182.793,1.772,1.2.393.269.79.532,1.2.777.268.161.542.309.819.45.071.036.143.07.214.1a8.576,8.576,0,0,0,.888.373,13.646,13.646,0,0,0,1.347.383c.128.03.257.055.386.082.361.074.726.133,1.092.178.112.013.223.031.334.042a13.507,13.507,0,0,0,1.407.064c.061,0,.122,0,.183-.006a12.634,12.634,0,0,0,1.443-.11A13.629,13.629,0,0,0,265.2,172.7c.16-.113.313-.236.464-.362l.078-.065.006,0q.214-.183.42-.375l.128-.119c.12-.113.24-.227.359-.338q.213-.2.426-.387l.06-.053h0a3.063,3.063,0,0,1,1.914-.915h0c.009,0,.018,0,.027,0s.047.007.07.008h0a2.221,2.221,0,0,1,.336.039h0l.027.006a2.639,2.639,0,0,1,.562.183,5.382,5.382,0,0,1,.738.427c.079.054.156.113.233.17.164.12.327.244.487.377.085.071.171.142.255.215q.256.222.511.454c.272.246.544.5.822.738.171.15.347.294.524.435.148.117.3.225.455.333.081.057.16.118.244.172a5.784,5.784,0,0,0,.742.412,13.518,13.518,0,0,0,1.392.539c.156.051.315.086.472.131.321.091.642.18.969.248.189.039.38.063.571.094.169.027.339.046.51.067.131.017.261.04.394.051.2.018.408.026.612.034.4.016.793.031,1.191.01a12.5,12.5,0,0,0,5.387-1.585c1.868-1.042,3.145-2.949,4.9-4.163a2.846,2.846,0,0,1,.34-.2h0c.038-.02.076-.033.115-.05h0a2.361,2.361,0,0,1,.651-.189l.045-.006h0c.065-.007.13-.013.194-.014h0c.021,0,.041-.005.062-.005s.039.005.058.005h0a2.689,2.689,0,0,1,.784.143h0l.1.035h0a4.485,4.485,0,0,1,.761.371h0l.081.051h0a8.581,8.581,0,0,1,.737.521h0l.041.032q.2.161.4.326l.007.007h0c.109.091.217.183.323.274,1.4,1.2,2.673,2.7,4.378,3.482a10.205,10.205,0,0,0,1.18.447c.131.04.264.068.4.1.272.074.546.143.824.2.157.029.315.049.473.072.258.037.517.067.777.086.165.011.33.019.5.024.359.01.719.016,1.08-.006a11.342,11.342,0,0,0,1.329-.16,12.054,12.054,0,0,0,2.552-.764,13,13,0,0,0,1.205-.587,15.7,15.7,0,0,0,3.345-2.949c.111-.113.242-.249.382-.393l.005-.005c.086-.088.173-.178.266-.272.05-.05.1-.1.155-.151h0l.044-.042c.127-.124.258-.245.395-.367h0l.016-.015q.215-.189.439-.361h0c.088-.067.175-.133.265-.194h0c.068-.046.136-.084.2-.125h0c.051-.031.1-.057.153-.086a3.046,3.046,0,0,1,.32-.148h0a2.112,2.112,0,0,1,.258-.086h0a1.693,1.693,0,0,1,.208-.032,1.491,1.491,0,0,1,.159-.024,1.217,1.217,0,0,1,.181.013c1.642.245,2.975,1.886,3.971,3.07a12.774,12.774,0,0,0,3.54,3.363,9.088,9.088,0,0,0,1.231.532c.143.05.292.083.437.127.051.015.1.027.154.041.236.07.471.141.713.192.176.037.354.059.532.088.153.024.306.041.46.062.116.014.232.037.349.048.189.017.377.022.566.03.336.014.674.03,1.006.017a14.35,14.35,0,0,0,6.408-1.95,31,31,0,0,0,4.531-3.66c.169-.142.345-.291.527-.441h0c.053-.045.11-.089.165-.134l0,0c.133-.109.267-.217.406-.326h0c.174-.136.354-.267.536-.4.024-.017.047-.035.072-.052h0c.085-.059.172-.114.258-.172h0c.125-.083.25-.164.378-.241h0c.093-.055.187-.1.281-.156h0c.127-.069.254-.134.383-.195h0c.1-.046.2-.086.3-.126h0c.13-.053.26-.1.392-.14a4.069,4.069,0,0,1,1.02-.185c.051,0,.1-.014.151-.014a3.346,3.346,0,0,1,.477.034c2.034.294,3.72,2.225,5.1,3.587a10.508,10.508,0,0,0,5.344,3.314c.43.08.864.134,1.3.171.145.012.29.012.435.019s.319.009.479.014c.136,0,.271.014.407.012s.25-.009.375-.014q.447-.017.893-.061c.136-.014.272-.028.409-.046.256-.033.511-.079.766-.125.058-.011.116-.017.174-.029.1-.019.2-.033.3-.055q.609-.13,1.205-.31c.091-.028.18-.062.271-.091q.462-.149.914-.325c.127-.049.253-.1.379-.156.176-.074.347-.156.519-.237.1-.045.2-.086.291-.133.114-.056.229-.109.342-.168.368-.192.73-.393,1.08-.613C376.541,167.174,377.811,156.285,377.469,146.989Z"/></g></svg>