<svg xmlns="http://www.w3.org/2000/svg" xmlns:xlink="http://www.w3.org/1999/xlink" width="333.837" height="387.786" viewBox="0 0 333.837 387.786"><defs><style>.a{fill:#bad8b4;}.b,.m{fill:#c79c5f;}.c,.d{fill:#f2cd79;}.d{stroke-miterlimit:10;}.e{fill:#ffe9b7;}.f{fill:#f2f2f2;}.g{fill:#cc8258;}.h{fill:#b2804d;}.i{fill:#ba9264;}.j{fill:#fff;}.k{fill:url(#k);}.l,.m{stroke:none;}.n{filter:url(#i);}.o{filter:url(#g);}.p{filter:url(#e);}.q{filter:url(#c);}.r{filter:url(#a);}</style><filter id="a" x="24.84" y="41.735" width="282.102" height="84.536" filterUnits="userSpaceOnUse"><feOffset dy="3" input="SourceAlpha"/><feGaussianBlur stdDeviation="3" result="b"/><feFlood flood-opacity="0.161"/><feComposite operator="in" in2="b"/><feComposite in="SourceGraphic"/></filter><filter id="c" x="134.265" y="85.619" width="64.001" height="81.696" filterUnits="userSpaceOnUse"><feOffset dy="3" input="SourceAlpha"/><feGaussianBlur stdDeviation="3" result="d"/><feFlood flood-opacity="0.161"/><feComposite operator="in" in2="d"/><feComposite in="SourceGraphic"/></filter><filter id="e" x="132.532" y="104.267" width="68.455" height="48.95" filterUnits="userSpaceOnUse"><feOffset dy="3" input="SourceAlpha"/><feGaussianBlur stdDeviation="3" result="f"/><feFlood flood-opacity="0.161"/><feComposite operator="in" in2="f"/><feComposite in="SourceGraphic"/></filter><filter id="g" x="160.896" y="108.103" width="12.105" height="19.741" filterUnits="userSpaceOnUse"><feOffset dy="1" input="SourceAlpha"/><feGaussianBlur stdDeviation="1" result="h"/><feFlood flood-opacity="0.161"/><feComposite operator="in" in2="h"/><feComposite in="SourceGraphic"/></filter><filter id="i" x="112.971" y="25.003" width="106.595" height="59.555" filterUnits="userSpaceOnUse"><feOffset input="SourceAlpha"/><feGaussianBlur stdDeviation="1.417" result="j"/><feFlood flood-opacity="0.702"/><feComposite operator="in" in2="j"/><feComposite in="SourceGraphic"/></filter><linearGradient id="k" x1="0.5" x2="0.5" y2="1" gradientUnits="objectBoundingBox"><stop offset="0" stop-color="#c4e2bd"/><stop offset="0.12" stop-color="#a8c4a2"/><stop offset="0.296" stop-color="#87a081"/><stop offset="0.473" stop-color="#6d8467"/><stop offset="0.65" stop-color="#5a7054"/><stop offset="0.825" stop-color="#4f6449"/><stop offset="1" stop-color="#4c6046"/></linearGradient></defs><g transform="translate(-209.979 -133.377)"><ellipse class="a" cx="120.615" cy="23.105" rx="120.615" ry="23.105" transform="translate(255.979 474.952)"/><g transform="translate(315.336 133.377)"><path class="b" d="M398.055,138.842c-11.934-5.8-26.788-5.453-39.7-5.464-12.9.009-27.736-.334-39.655,5.464-15.811,7.691-19.971,28.811-20.121,44.581-.072,7.641,11.8,7.647,11.87,0,.116-12.279,2.722-30.973,16.618-35.123,10.225-3.054,20.738-3.04,31.309-3.052,10.57.012,21.087,0,31.309,3.052,13.893,4.15,16.5,22.858,16.618,35.123.072,7.635,11.942,7.654,11.87,0C418.027,167.642,413.87,146.535,398.055,138.842Z" transform="translate(-298.581 -133.377)"/></g><g transform="translate(208.979 208.937)"><g transform="translate(1 -1)"><path class="b" d="M493.249,385.817a25.842,25.842,0,0,1-9.767-.925c-5.011-1.625-9.348-5.441-14.6-5.779-4.927-.317-9.54,2.56-13,6.079s-6.149,7.743-9.634,11.241c-5.66,5.681-13.151,9.172-20.736,11.779-16.582,5.7-29.446,9.679-51.423,9.679s-34.839-3.978-51.423-9.679c-7.584-2.607-15.075-6.1-20.736-11.779-3.484-3.5-6.17-7.723-9.634-11.241s-8.076-6.4-13-6.079c-5.257.338-9.593,4.154-14.6,5.779a25.846,25.846,0,0,1-9.768.925c-10.278-.717-29.255-12.238-36.385-21.539a103.379,103.379,0,0,0,12.183,20.916c14.948,19.714,36.721,28.351,59.041,37.171,27.011,10.673,55.215,17.5,84.382,17.66a219.069,219.069,0,0,0,74.093-13.715c23.235-8.555,48.565-17.026,65.327-36.187a101.813,101.813,0,0,0,16.83-26.887C523.95,372.7,503.916,385.073,493.249,385.817Z" transform="translate(-207.193 -165.955)"/><path class="c" d="M536.443,285.452c-7.182-30.548-19.409-59.639-32.521-88.051a.731.731,0,0,0-.641-.367H248.572a.731.731,0,0,0-.641.367c-22.62,49.012-43.83,102.709-37.964,157.771a135.965,135.965,0,0,0,10.352,40.184c7.13,9.3,26.107,20.822,36.385,21.539a25.846,25.846,0,0,0,9.768-.925c5.01-1.625,9.346-5.441,14.6-5.779,4.926-.317,9.54,2.56,13,6.079s6.15,7.743,9.634,11.241c5.661,5.681,13.152,9.172,20.736,11.779,16.583,5.7,29.447,9.679,51.423,9.679s34.841-3.978,51.423-9.679c7.585-2.607,15.076-6.1,20.736-11.779,3.485-3.5,6.17-7.723,9.634-11.241s8.076-6.4,13-6.079c5.256.338,9.592,4.154,14.6,5.779a25.842,25.842,0,0,0,9.767.925c10.666-.744,30.7-13.121,37.141-22.58C546.652,360.762,544.6,320.139,536.443,285.452Z" transform="translate(-208.979 -197.034)"/></g></g><g transform="translate(243.819 181.112)"><g class="r" transform="matrix(1, 0, 0, 1, -33.84, -47.73)"><path class="b" d="M501.245,196.231c-3.016-6.583-9.184-14.017-14.746-18.586a15.47,15.47,0,0,0-11.285-4.054q-17.461.016-34.921,0H369.717v.01c-.017,0-.026-.01-.043-.01h-69.2q-17.461,0-34.921,0a15.468,15.468,0,0,0-11.285,4.054c-5.562,4.569-11.731,12-14.747,18.586-2.578,5.63-.834,10.69,4.041,14.262,7.409,5.429,17.4,8.524,25.933,11.671a292.663,292.663,0,0,0,30.769,9.463,292.5,292.5,0,0,0,69.354,8.5.581.581,0,0,0,.1-.023v.023h1.372v-.013c.023,0,.037.014.061.013a292.511,292.511,0,0,0,69.354-8.5,292.747,292.747,0,0,0,30.769-9.463c8.537-3.147,18.524-6.241,25.933-11.671C502.081,206.922,503.824,201.861,501.245,196.231Z" transform="translate(-204.49 -125.86)"/></g><path class="c" d="M488.4,193.7c-2.889-5.847-8.8-12.45-14.125-16.509a15.526,15.526,0,0,0-10.809-3.6q-16.724.014-33.448,0H307.234q-16.724,0-33.448,0a15.525,15.525,0,0,0-10.809,3.6c-5.327,4.058-11.236,10.662-14.124,16.509-2.47,5-.8,9.495,3.87,12.668,7.1,4.822,16.662,7.571,24.839,10.366a296.758,296.758,0,0,0,29.472,8.4,300.109,300.109,0,0,0,61.593,7.47,300.11,300.11,0,0,0,61.594-7.47,296.848,296.848,0,0,0,29.472-8.4c8.177-2.8,17.742-5.544,24.839-10.366C489.2,203.2,490.871,198.7,488.4,193.7Z" transform="translate(-236.576 -173.592)"/></g><g transform="translate(225.756 182.796)"><g class="q" transform="matrix(1, 0, 0, 1, -15.78, -49.42)"><g class="d" transform="translate(-187.25 -118.94)"><path class="l" d="M 354.3201293945312 271.7591247558594 C 354.3197326660156 271.7591247558594 354.3197937011719 271.7591247558594 354.3193969726562 271.7591247558594 C 349.6480407714844 271.7589111328125 344.7028503417969 269.6484985351562 340.3948059082031 265.816650390625 C 338.0008239746094 263.6868591308594 336.3747253417969 261.5077819824219 335.277587890625 258.9590454101562 C 334.25830078125 256.5911865234375 333.6600952148438 253.7954864501953 333.3949279785156 250.1607818603516 C 332.6906433105469 240.5156860351562 332.9693603515625 230.6720581054688 334.1797485351562 222.4430236816406 C 334.7423706054688 218.6144561767578 336.0330505371094 216.2304992675781 338.2415466308594 214.9402313232422 C 340.5185241699219 213.6099548339844 343.8171081542969 213.4305877685547 346.7434997558594 213.4305877685547 C 347.9049987792969 213.4305877685547 349.0914611816406 213.4609222412109 350.3475646972656 213.4930267333984 C 351.3892517089844 213.5196533203125 352.4664001464844 213.5471801757812 353.5487060546875 213.5567016601562 L 353.5707397460938 213.5569000244141 L 353.5927429199219 213.5567016601562 C 354.9278564453125 213.544921875 356.3218688964844 213.4344940185547 357.7976989746094 213.3175659179688 C 359.3779296875 213.1923828125 361.0119323730469 213.0629272460938 362.5745849609375 213.0629272460938 C 365.4753112792969 213.0629272460938 367.4998168945312 213.5207214355469 368.94580078125 214.5036468505859 C 370.7205200195312 215.7102355957031 371.8661193847656 217.5253448486328 372.5508728027344 220.2157592773438 C 373.2091674804688 222.8022613525391 373.3106384277344 225.6834869384766 373.4087524414062 228.4698333740234 C 373.4206237792969 228.8075561523438 373.432373046875 229.1410217285156 373.4450073242188 229.4692993164062 C 373.508056640625 231.1046447753906 373.5946044921875 232.7797088623047 373.6783142089844 234.3996124267578 C 374.0456237792969 241.5074005126953 374.4254150390625 248.8571929931641 373.0004577636719 255.6350860595703 C 372.4388732910156 258.3077087402344 371.4156494140625 260.54541015625 369.7802124023438 262.6774597167969 C 368.4018249511719 264.4744567871094 366.5483703613281 266.24169921875 363.7705078125 268.4075317382812 C 360.9183044433594 270.6313781738281 357.7384033203125 271.7591247558594 354.3201293945312 271.7591247558594 Z"/><path class="m" d="M 362.5740051269531 215.5629272460938 C 361.1104431152344 215.5629272460938 359.5266418457031 215.6884155273438 357.9949645996094 215.8097534179688 C 356.5410461425781 215.9249572753906 355.0376281738281 216.0440979003906 353.6147766113281 216.056640625 L 353.5707702636719 216.0570068359375 L 353.5267333984375 216.056640625 C 352.4234008789062 216.0469360351562 351.3355102539062 216.0191040039062 350.283447265625 215.9922485351562 C 349.0437927246094 215.9605407714844 347.8729248046875 215.9306030273438 346.7434387207031 215.9306030273438 C 344.1517028808594 215.9306030273438 341.2646484375 216.0693969726562 339.5026245117188 217.0988464355469 C 338.8470458984375 217.4818420410156 338.3455200195312 217.9907531738281 337.9243469238281 218.7004089355469 C 337.33544921875 219.6926879882812 336.9077758789062 221.0740661621094 336.6531372070312 222.8068237304688 C 335.4685363769531 230.860595703125 335.1968994140625 240.5103454589844 335.8883056640625 249.9788818359375 C 336.132568359375 253.3271179199219 336.6681518554688 255.8665466308594 337.5738830566406 257.9705810546875 C 338.5211791992188 260.1712341308594 339.9456176757812 262.0709228515625 342.0563049316406 263.9486694335938 C 343.9585876464844 265.640625 345.9953002929688 266.9635620117188 348.1099243164062 267.8806762695312 C 350.2188415527344 268.7953491210938 352.3079833984375 269.2591552734375 354.3192749023438 269.2591552734375 C 357.1679992675781 269.2591552734375 359.8306884765625 268.3092956542969 362.2333374023438 266.4359741210938 C 364.8369140625 264.406005859375 366.5526733398438 262.777587890625 367.7965698242188 261.1558837890625 C 369.1959228515625 259.3316040039062 370.0720520019531 257.4140625 370.5539245605469 255.1207427978516 C 371.9119567871094 248.6612548828125 371.5406799316406 241.4766693115234 371.181640625 234.5286407470703 C 371.0975036621094 232.9006805419922 371.0105285644531 231.2173156738281 370.9468383789062 229.5652770996094 C 370.9341125488281 229.2343444824219 370.9222717285156 228.898193359375 370.9102783203125 228.5577697753906 C 370.8168029785156 225.9033508300781 370.7201538085938 223.1585998535156 370.1280822753906 220.8323669433594 C 369.4378967285156 218.1206359863281 368.3204956054688 217.1015930175781 367.5403747558594 216.5711975097656 C 366.5423583984375 215.8927917480469 364.9179992675781 215.56298828125 362.5744018554688 215.5629272460938 L 362.5740051269531 215.5629272460938 M 362.5746459960938 210.5629272460938 C 365.4161071777344 210.56298828125 368.1723022460938 210.9549560546875 370.3512268066406 212.4360961914062 C 375.772216796875 216.1217041015625 375.7200012207031 223.5665283203125 375.9431457519531 229.373291015625 C 376.2826232910156 238.1783905029297 377.2749328613281 247.4547424316406 375.4469604492188 256.1494445800781 C 374.0961608886719 262.5781860351562 370.35595703125 266.4430541992188 365.3077087402344 270.3790893554688 C 361.8355407714844 273.0863037109375 358.0700073242188 274.2591247558594 354.3192443847656 274.2591247558594 C 348.7519836425781 274.2591247558594 343.21826171875 271.673828125 338.7333068847656 267.6846313476562 C 333.3028564453125 262.8535766601562 331.4356689453125 257.6640319824219 330.9015502929688 250.3426818847656 C 330.2403869628906 241.2882995605469 330.3852233886719 231.0612030029297 331.7063598632812 222.0792236328125 C 333.1654663085938 212.1504211425781 339.2989807128906 210.9306030273438 346.7434387207031 210.9306030273438 C 348.9340209960938 210.9306030273438 351.2390441894531 211.0363159179688 353.5707092285156 211.0568237304688 C 356.2454528808594 211.0332336425781 359.4613037109375 210.5628662109375 362.5746459960938 210.5629272460938 Z"/></g></g><path class="e" d="M259.551,175.126c-1.72,1.291-3.747,2.49-5,4.279-.438.627.59,1.221,1.026.6,1.122-1.606,3.026-2.693,4.571-3.854.6-.453.012-1.484-.6-1.024Z" transform="translate(-217.253 -175.011)"/><path class="e" d="M252.4,182.4a32.02,32.02,0,0,0-4.408,5.451c-.413.645.614,1.24,1.026.6a30.568,30.568,0,0,1,4.222-5.211c.544-.538-.3-1.377-.839-.839Z" transform="translate(-218.478 -173.662)"/><path class="e" d="M245.379,192.337c-.9,2.8-.832,5.853,1.339,8.048.538.544,1.377-.3.839-.839-1.875-1.9-1.8-4.506-1.033-6.893.233-.729-.913-1.041-1.145-.316Z" transform="translate(-219.05 -171.848)"/><path class="e" d="M250.64,202.855a21.637,21.637,0,0,0,6.207,3.646c.715.273,1.023-.874.316-1.144a19.868,19.868,0,0,1-5.683-3.341c-.583-.487-1.427.348-.839.839Z" transform="translate(-218.003 -169.989)"/><path class="e" d="M260.411,207.883a21.371,21.371,0,0,0,6.551,2.6c.744.161,1.064-.983.316-1.144a20.324,20.324,0,0,1-6.267-2.486.594.594,0,0,0-.6,1.026Z" transform="translate(-216.191 -169.072)"/><path class="e" d="M271.393,212.11a61.791,61.791,0,0,0,6.75,2.4.594.594,0,0,0,.316-1.144,61.7,61.7,0,0,1-6.75-2.4c-.7-.3-1.01.851-.316,1.144Z" transform="translate(-214.158 -168.297)"/><path class="e" d="M282.229,215.5c2.728.693,5.36,1.859,8.072,2.645a.594.594,0,0,0,.316-1.145c-2.711-.785-5.345-1.951-8.072-2.643a.594.594,0,0,0-.316,1.144Z" transform="translate(-212.138 -167.658)"/><path class="e" d="M294.364,218.519a55,55,0,0,0,9.24,2.463c.747.147,1.066-1,.316-1.144a54.834,54.834,0,0,1-9.24-2.464c-.713-.275-1.022.872-.316,1.145Z" transform="translate(-209.864 -167.097)"/><path class="e" d="M308.017,221.683a33.391,33.391,0,0,0,9.995,1.611.594.594,0,0,0,0-1.187,32.367,32.367,0,0,1-9.679-1.568c-.729-.234-1.041.912-.316,1.144Z" transform="translate(-207.313 -166.503)"/><path class="e" d="M322.579,223.788a40.181,40.181,0,0,0,8.961.781.594.594,0,0,0,0-1.187,38.587,38.587,0,0,1-8.646-.738c-.745-.15-1.065.995-.315,1.144Z" transform="translate(-204.593 -166.106)"/><path class="e" d="M439.9,176.151c1.544,1.161,3.448,2.248,4.571,3.854.434.621,1.464.029,1.024-.6-1.25-1.789-3.277-2.988-5-4.279-.611-.459-1.2.571-.6,1.024Z" transform="translate(-182.622 -175.011)"/><path class="e" d="M446.741,183.236a30.57,30.57,0,0,1,4.223,5.211c.411.64,1.439.046,1.024-.6a31.966,31.966,0,0,0-4.409-5.451c-.542-.538-1.383.3-.839.839Z" transform="translate(-181.329 -173.662)"/><path class="e" d="M453.045,192.653c.764,2.391.843,5-1.034,6.893-.538.544.3,1.384.839.839,2.171-2.194,2.235-5.248,1.339-8.048-.232-.724-1.378-.414-1.144.316Z" transform="translate(-180.343 -171.848)"/><path class="e" d="M448.756,202.016a19.89,19.89,0,0,1-5.685,3.341c-.705.271-.4,1.418.316,1.144a21.643,21.643,0,0,0,6.208-3.646c.586-.49-.258-1.327-.839-.839Z" transform="translate(-182.057 -169.989)"/><path class="e" d="M439.3,206.857a20.336,20.336,0,0,1-6.267,2.486c-.747.161-.431,1.306.315,1.144a21.359,21.359,0,0,0,6.551-2.6.594.594,0,0,0-.6-1.026Z" transform="translate(-183.94 -169.073)"/><path class="e" d="M428.646,210.966a61.806,61.806,0,0,1-6.752,2.4.594.594,0,0,0,.316,1.144,61.81,61.81,0,0,0,6.752-2.4c.692-.292.388-1.441-.316-1.144Z" transform="translate(-186.02 -168.297)"/><path class="e" d="M418.023,214.354c-2.728.692-5.362,1.859-8.073,2.643a.594.594,0,0,0,.316,1.145c2.711-.786,5.345-1.951,8.073-2.645a.594.594,0,0,0-.316-1.144Z" transform="translate(-188.254 -167.658)"/><path class="e" d="M406.07,217.374a54.892,54.892,0,0,1-9.24,2.464c-.749.147-.432,1.291.316,1.144a54.959,54.959,0,0,0,9.238-2.463c.705-.273.4-1.421-.315-1.145Z" transform="translate(-190.709 -167.097)"/><path class="e" d="M392.511,220.539a32.374,32.374,0,0,1-9.68,1.568.594.594,0,0,0,0,1.187,33.385,33.385,0,0,0,9.994-1.611c.725-.233.415-1.379-.315-1.144Z" transform="translate(-193.354 -166.503)"/><path class="e" d="M377.747,222.644a37.346,37.346,0,0,1-8.386.906.594.594,0,0,0,0,1.187,38.82,38.82,0,0,0,8.7-.948c.748-.152.431-1.3-.316-1.144Z" transform="translate(-195.873 -166.106)"/><path class="e" d="M231.326,379.535a58.735,58.735,0,0,0,5.616,3.071c.686.328,1.289-.7.6-1.026a58.462,58.462,0,0,1-5.616-3.071c-.65-.4-1.248.623-.6,1.026Z" transform="translate(-221.629 -136.975)"/><path class="e" d="M239.891,383.928c2.237,1.258,4.651,1.557,7.114,2.145.743.178,1.06-.966.316-1.144-2.351-.561-4.692-.824-6.83-2.025a.594.594,0,0,0-.6,1.024Z" transform="translate(-220.03 -136.152)"/><path class="e" d="M250,386.278a20.943,20.943,0,0,0,7.679-.292c.744-.169.43-1.313-.316-1.144a19.311,19.311,0,0,1-7.047.292c-.747-.107-1.069,1.036-.316,1.144Z" transform="translate(-218.166 -135.777)"/><path class="e" d="M260.848,384.891c1.942-.9,3.789-1.894,5.809-2.607.716-.252.407-1.4-.316-1.144-2.12.747-4.056,1.784-6.093,2.725-.692.321-.09,1.344.6,1.026Z" transform="translate(-216.226 -136.473)"/><path class="e" d="M269.506,381.329c1.872-.19,4.666.288,6.049,1.668a.594.594,0,0,0,.84-.839c-1.636-1.631-4.658-2.242-6.889-2.016-.753.076-.76,1.264,0,1.187Z" transform="translate(-214.544 -136.661)"/><path class="e" d="M277.332,384.721a17.053,17.053,0,0,1,4.585,4.262c.415.637,1.443.043,1.024-.6a18.408,18.408,0,0,0-5.01-4.687c-.63-.436-1.225.592-.6,1.024Z" transform="translate(-213.024 -136.008)"/><path class="e" d="M283.75,390.99a18.734,18.734,0,0,0,5.414,5.427c.64.421,1.236-.607.6-1.026a17.273,17.273,0,0,1-4.988-5c-.417-.637-1.446-.043-1.026.6Z" transform="translate(-211.793 -134.787)"/><path class="e" d="M291.411,397.906a21.885,21.885,0,0,0,6.407,3.8c.713.274,1.022-.872.316-1.144a20.182,20.182,0,0,1-5.884-3.5c-.579-.493-1.422.343-.839.839Z" transform="translate(-210.378 -133.516)"/><path class="e" d="M300.905,402.716a29.752,29.752,0,0,0,8.457,3.7.594.594,0,0,0,.316-1.144,28.718,28.718,0,0,1-8.175-3.578c-.652-.4-1.248.624-.6,1.026Z" transform="translate(-208.619 -132.641)"/><path class="e" d="M313.352,406.869a33.289,33.289,0,0,0,7.948,2.579c.747.142,1.066-1,.316-1.144a32.023,32.023,0,0,1-7.664-2.461c-.687-.322-1.291.7-.6,1.026Z" transform="translate(-206.296 -131.858)"/><path class="e" d="M324.03,409.974a47.709,47.709,0,0,0,7.725,1.556c.757.089.75-1.1,0-1.187a45.8,45.8,0,0,1-7.409-1.513.594.594,0,0,0-.316,1.144Z" transform="translate(-204.32 -131.293)"/><path class="e" d="M334.014,411.544c3.042.724,6.017,1.526,9.167,1.167.75-.085.758-1.274,0-1.187-3.042.348-5.914-.426-8.851-1.124-.743-.177-1.06.967-.316,1.144Z" transform="translate(-202.455 -130.998)"/><path class="e" d="M476.154,372.715a23.242,23.242,0,0,1-5.117,3.905.593.593,0,0,0,.6,1.024,24.349,24.349,0,0,0,5.358-4.09c.538-.544-.3-1.384-.839-.839Z" transform="translate(-176.807 -138.075)"/><path class="e" d="M468.413,378.51a58.447,58.447,0,0,1-5.615,3.071c-.69.33-.088,1.353.6,1.026a58.734,58.734,0,0,0,5.616-3.071c.648-.4.052-1.429-.6-1.026Z" transform="translate(-178.351 -136.975)"/><path class="e" d="M460.06,382.9c-2.137,1.2-4.48,1.464-6.83,2.025-.742.178-.427,1.322.316,1.144,2.464-.589,4.876-.887,7.114-2.145a.594.594,0,0,0-.6-1.024Z" transform="translate(-180.162 -136.152)"/><path class="e" d="M450.3,385.134a19.311,19.311,0,0,1-7.047-.292c-.743-.169-1.061.976-.315,1.144a20.935,20.935,0,0,0,7.677.292c.754-.108.433-1.251-.316-1.144Z" transform="translate(-182.087 -135.777)"/><path class="e" d="M440.141,383.865c-2.038-.941-3.97-1.978-6.093-2.725-.722-.255-1.031.891-.316,1.144,2.021.712,3.868,1.709,5.809,2.607.69.318,1.293-.705.6-1.026Z" transform="translate(-183.805 -136.473)"/><path class="e" d="M430.963,380.142c-2.232-.227-5.254.385-6.888,2.016a.594.594,0,0,0,.839.839c1.383-1.379,4.177-1.858,6.049-1.668.76.077.754-1.111,0-1.187Z" transform="translate(-185.567 -136.661)"/><path class="e" d="M422.278,383.7a18.4,18.4,0,0,0-5.011,4.687c-.418.642.609,1.238,1.026.6a17.048,17.048,0,0,1,4.584-4.263c.624-.431.032-1.46-.6-1.024Z" transform="translate(-186.826 -136.008)"/><path class="e" d="M415.5,390.392a17.262,17.262,0,0,1-4.989,5c-.635.419-.042,1.447.6,1.026a18.733,18.733,0,0,0,5.414-5.427c.419-.641-.608-1.236-1.024-.6Z" transform="translate(-188.122 -134.787)"/><path class="e" d="M408.171,397.067a20.214,20.214,0,0,1-5.884,3.5c-.706.271-.4,1.418.316,1.144a21.9,21.9,0,0,0,6.407-3.8c.583-.5-.261-1.332-.839-.839Z" transform="translate(-189.683 -133.516)"/><path class="e" d="M399.256,401.691a28.7,28.7,0,0,1-8.175,3.578.594.594,0,0,0,.316,1.144,29.759,29.759,0,0,0,8.459-3.7c.648-.4.052-1.429-.6-1.026Z" transform="translate(-191.783 -132.641)"/><path class="e" d="M386.733,405.844a32.032,32.032,0,0,1-7.663,2.461c-.75.142-.432,1.287.316,1.144a33.3,33.3,0,0,0,7.947-2.579c.691-.324.089-1.347-.6-1.026Z" transform="translate(-194.03 -131.858)"/><path class="e" d="M376.294,408.83a45.716,45.716,0,0,1-7.41,1.513c-.749.089-.757,1.277,0,1.187a47.7,47.7,0,0,0,7.726-1.556.594.594,0,0,0-.316-1.144Z" transform="translate(-195.96 -131.293)"/><path class="e" d="M366.538,410.4c-2.938.7-5.807,1.472-8.851,1.124-.757-.087-.751,1.1,0,1.187,3.15.36,6.125-.443,9.167-1.167.743-.176.428-1.321-.316-1.144Z" transform="translate(-198.054 -130.998)"/><path class="e" d="M344.617,412.685c4.013.578,8.184,1.566,12.161.328.726-.227.417-1.373-.316-1.144-3.765,1.173-7.731.22-11.53-.329-.747-.107-1.069,1.036-.315,1.145Z" transform="translate(-200.473 -130.783)"/><path class="e" d="M341.131,215.593a14.282,14.282,0,0,1,3.023-.122l2.794-.031a.594.594,0,0,0,0-1.187c-1.96.023-4.222-.253-6.133.2-.743.174-.428,1.32.316,1.144Z" transform="translate(-201.183 -167.685)"/><path class="e" d="M350.4,215.445a26.356,26.356,0,0,1,4.9.011c.76.071.755-1.116,0-1.187a26.46,26.46,0,0,0-4.9-.011c-.755.069-.762,1.256,0,1.187Z" transform="translate(-199.417 -167.692)"/><path class="e" d="M337.878,215.788a6.087,6.087,0,0,0-3.623,5.766.594.594,0,0,0,1.187,0,4.874,4.874,0,0,1,2.751-4.622c.694-.291.389-1.44-.316-1.144Z" transform="translate(-202.33 -167.395)"/><path class="e" d="M333.8,224.555a27.245,27.245,0,0,0-.506,6.271c.027.762,1.214.766,1.187,0a25.9,25.9,0,0,1,.463-5.955c.146-.747-1-1.066-1.144-.316Z" transform="translate(-202.514 -165.826)"/><path class="e" d="M333.006,233.367l-.117,5.874a.594.594,0,0,0,1.187,0l.118-5.874a.594.594,0,0,0-1.187,0Z" transform="translate(-202.586 -164.206)"/><path class="e" d="M333.055,242.648a37.614,37.614,0,0,0,.921,6.538c.172.744,1.318.43,1.144-.315a35.853,35.853,0,0,1-.878-6.223c-.04-.761-1.227-.766-1.187,0Z" transform="translate(-202.555 -162.47)"/><path class="e" d="M334.825,251.727a14.242,14.242,0,0,0,3.51,5.28c.554.526,1.4-.312.84-.839a12.9,12.9,0,0,1-3.206-4.756c-.272-.705-1.42-.4-1.144.316Z" transform="translate(-202.231 -160.799)"/><path class="e" d="M340.115,257.959c1.547,1.308,3.064,2.867,5.042,3.481.731.228,1.043-.918.316-1.144-1.764-.548-3.14-2.011-4.519-3.176-.579-.49-1.423.345-.839.839Z" transform="translate(-201.271 -159.685)"/><path class="e" d="M347.291,261.927a13.481,13.481,0,0,0,7.823.17.594.594,0,0,0-.316-1.145,12.615,12.615,0,0,1-7.192-.169c-.713-.274-1.023.872-.316,1.144Z" transform="translate(-199.967 -158.98)"/><path class="e" d="M357.225,261.293c1.944-1.282,4.182-2.452,5.455-4.475.408-.648-.618-1.245-1.024-.6-1.151,1.829-3.271,2.89-5.031,4.049-.635.419-.042,1.447.6,1.026Z" transform="translate(-198.198 -159.878)"/><path class="e" d="M364.025,255.079a18.171,18.171,0,0,0,3.1-7.46c.117-.748-1.026-1.069-1.145-.316A17.364,17.364,0,0,1,363,254.479c-.421.64.607,1.236,1.024.6Z" transform="translate(-196.973 -161.573)"/><path class="e" d="M358.452,215.484c1.64.064,4.379-.229,5.58,1.191.494.584,1.331-.259.839-.839-1.442-1.7-4.445-1.461-6.419-1.538-.764-.028-.763,1.159,0,1.187Z" transform="translate(-197.912 -167.665)"/><path class="e" d="M364.249,219.131a15.6,15.6,0,0,1,1.225,7.375c-.058.761,1.13.757,1.187,0a16.344,16.344,0,0,0-1.268-7.691c-.292-.693-1.441-.388-1.144.316Z" transform="translate(-196.731 -166.893)"/><path class="e" d="M365.509,228.691q-.036,3.431-.18,6.857c-.032.764,1.155.763,1.187,0q.144-3.427.18-6.857a.594.594,0,0,0-1.187,0Z" transform="translate(-196.52 -165.08)"/><path class="e" d="M365.376,237.486a40.982,40.982,0,0,1,.165,6.858c-.045.763,1.142.761,1.187,0a40.976,40.976,0,0,0-.165-6.858c-.081-.751-1.269-.76-1.187,0Z" transform="translate(-196.512 -163.434)"/><path class="f" d="M2.448,0A2.448,2.448,0,1,1,0,2.448,2.448,2.448,0,0,1,2.448,0Z" transform="translate(148.536 55.449)"/><circle class="f" cx="3.365" cy="3.365" r="3.365" transform="translate(52.791 252.139)"/><circle class="f" cx="3.365" cy="3.365" r="3.365" transform="translate(239.871 252.139)"/><g class="p" transform="matrix(1, 0, 0, 1, -15.78, -49.42)"><path class="f" d="M378.191,230.511a1.807,1.807,0,0,0-1.315-1.688,2.251,2.251,0,0,0-.216-.064c-.024-.006-.043-.015-.068-.02A119.056,119.056,0,0,0,355.2,226.3c-.082-.007-.158-.024-.245-.024h-1.334c-.087,0-.163.017-.245.024a119.081,119.081,0,0,0-21.394,2.442,2.181,2.181,0,0,0-1.555,1.554,48.654,48.654,0,0,0,0,22.911,2.188,2.188,0,0,0,1.555,1.554,118.952,118.952,0,0,0,21.394,2.44,2.314,2.314,0,0,0,.245.025h1.334a2.261,2.261,0,0,0,.243-.025,118.977,118.977,0,0,0,21.4-2.44,2.192,2.192,0,0,0,1.555-1.554A48.62,48.62,0,0,0,378.191,230.511Zm-3.138,13.031c-.191,5.69.066,6.988-5.327,8.05a82.042,82.042,0,0,1-16.106,1.18h-.014a71.143,71.143,0,0,1-11.96-.637c-1.573-.264-5.293-.414-6.564-1.3-2.048-1.422-1.6-6.786-1.583-9.222.02-2.589-.509-7.463,1.583-8.958,1.27-.908,4.489-.925,6.051-1.2a70.69,70.69,0,0,1,12.482-.731h0a108.9,108.9,0,0,1,20.5,2.065A45.82,45.82,0,0,1,375.053,243.541Z" transform="translate(-187.53 -116.01)"/></g><g transform="translate(148.119 60.684)"><g class="o" transform="matrix(1, 0, 0, 1, -163.9, -110.1)"><path class="f" d="M348.068,229q.009,4.008-.166,8.013c-.166,3.819,5.769,3.81,5.935,0q.174-4.006.166-8.013c-.007-3.819-5.942-3.826-5.935,0Z" transform="translate(-184 -116.03)"/></g></g></g><g transform="translate(-331.79 59.458)"><g transform="translate(654.77 98.952)"><rect class="g" width="14.202" height="1.252" transform="translate(21.886 32.949)"/><rect class="g" width="14.202" height="1.252" transform="translate(21.886 38.919)"/><path class="h" d="M761.306,113.318a10.526,10.526,0,0,0-2.906-7.753,10.394,10.394,0,0,0-7.609-2.907H730.577l-.261-.334-.369-.369a10.155,10.155,0,0,0-7.224-3h-6.113a10.152,10.152,0,0,0-7.231,3.01l-.366.367-.318.408a11.262,11.262,0,0,0-1.018,1.568,11.374,11.374,0,0,0-5.409-1.261h-2.675c-.083-.114-.169-.226-.257-.337l-.592-.742-.742-.591A10.728,10.728,0,0,0,691.2,99.24h-4.381a12.68,12.68,0,0,0-3.29.415,10.839,10.839,0,0,0-2.823-.367h-4.189a10.228,10.228,0,0,0-7.852,3.418l-.124.144h-3.241a10.486,10.486,0,0,0-7.307,2.618,10.288,10.288,0,0,0-3.208,8.041v1.444a11.651,11.651,0,0,0,.4,3.106,11.282,11.282,0,0,0-.4,3.548v1.925a10.018,10.018,0,0,0,3.234,7.778q.367.35.763.657v16.59a9.973,9.973,0,0,0,2.859,7.128,9.632,9.632,0,0,0,7.079,2.762h6.547a9.749,9.749,0,0,0,6.674-2.328,9.876,9.876,0,0,0,6.71,2.328H698.8a9.689,9.689,0,0,0,7.122-2.756,9.482,9.482,0,0,0,2.045-3.1,9.407,9.407,0,0,0,2.653,3.6,10.527,10.527,0,0,0,7.047,2.249h33.122a10.492,10.492,0,0,0,6.945-2.245,9.857,9.857,0,0,0,3.474-7.741v-5.344a11.987,11.987,0,0,0-.382-3.079,10.792,10.792,0,0,0,.478-3.227Z" transform="translate(-654.77 -98.952)"/></g><g class="n" transform="matrix(1, 0, 0, 1, 541.77, 73.92)"><path class="i" d="M757.861,114.1a6.631,6.631,0,0,0-1.67-4.767,6.285,6.285,0,0,0-4.623-1.67H729.006a6.958,6.958,0,0,0-.923-1.55l-.16-.206-.185-.185a5.956,5.956,0,0,0-4.238-1.766h-6.113a5.957,5.957,0,0,0-4.241,1.769l-.182.183-.16.2a6.383,6.383,0,0,0-1.42,3.991v5.443a5.892,5.892,0,0,0-2.084,1.1c.02-.236.04-.473.04-.723v-1.444a6.716,6.716,0,0,0-1.668-4.813l-.138-.139-.151-.126a6.6,6.6,0,0,0-4.335-1.359H697.78a5.423,5.423,0,0,0-.965-1.925l-.3-.372-.371-.3a6.554,6.554,0,0,0-4.174-1.211h-4.381a7.407,7.407,0,0,0-3.305.679,6.4,6.4,0,0,0-2.808-.63h-4.189a5.944,5.944,0,0,0-4.672,1.974,6.643,6.643,0,0,0-1.035,1.589h-5.51a6.344,6.344,0,0,0-4.5,1.55,6.463,6.463,0,0,0-1.795,4.887v1.444a6.675,6.675,0,0,0,.7,3.135,6.4,6.4,0,0,0-.7,3.43v2.11a6.093,6.093,0,0,0,4,5.9v19.029a5.785,5.785,0,0,0,1.621,4.141A5.533,5.533,0,0,0,669.49,155h6.547a5.473,5.473,0,0,0,4.449-1.867l.181-.225.149-.247a6.374,6.374,0,0,0,.841-3.327v-.544h2v.688a5.487,5.487,0,0,0,1.567,3.992,5.7,5.7,0,0,0,4.2,1.53h10.158a5.335,5.335,0,0,0,5.716-5.667V130.383a5.585,5.585,0,0,0,2-1.058,5.347,5.347,0,0,0,.793-.831,6.45,6.45,0,0,0,.559.769l.211.247.247.211a6.306,6.306,0,0,0,3.353,1.447,7.483,7.483,0,0,0-.3,2.184V149.24a5.657,5.657,0,0,0,1.95,4.494A6.471,6.471,0,0,0,718.446,155h33.122a6.371,6.371,0,0,0,4.243-1.266,5.657,5.657,0,0,0,1.953-4.5V143.9a6.783,6.783,0,0,0-.707-3.2,5.941,5.941,0,0,0,.8-3.108Z" transform="translate(-542.55 -74.7)"/></g><path class="j" d="M732.689,106.952h-6.113a3.438,3.438,0,0,0-2.447,1.025l-.073.073-.063.082a3.855,3.855,0,0,0-.886,2.434v6.6a2.593,2.593,0,0,1-.109.9.914.914,0,0,1-.427.2h-.307l-.075.007a3.63,3.63,0,0,0-2.343,1.017l-.046.046-.042.05a3.4,3.4,0,0,0-.888,2.3v4.044a3.529,3.529,0,0,0,.888,2.35l.084.1.1.085a3.864,3.864,0,0,0,2.246.881l.077.007h1.742a3.057,3.057,0,0,0,.753,1.433,2.8,2.8,0,0,0,.328.312c-.059.041-.116.085-.17.131a3.449,3.449,0,0,0-1.041,2.79v15.887a3.141,3.141,0,0,0,1.04,2.549,4.031,4.031,0,0,0,2.719.681h33.122a3.954,3.954,0,0,0,2.621-.68,3.139,3.139,0,0,0,1.041-2.55v-5.344a3.571,3.571,0,0,0-1.041-2.789,3,3,0,0,0-.906-.511,3.045,3.045,0,0,0,1.051-.553,2.972,2.972,0,0,0,.992-2.452V114.562a4.148,4.148,0,0,0-.928-2.975,3.872,3.872,0,0,0-2.831-.928h-24.6v-.092a3.855,3.855,0,0,0-.886-2.434l-.064-.083-.074-.074a3.443,3.443,0,0,0-2.447-1.024Zm17.4,33.844.038-.057.1.057Z" transform="translate(-9.967 -1.244)"/><path class="j" d="M692.439,107.293h-4.381a4.392,4.392,0,0,0-2.643.707,2.609,2.609,0,0,0-.566.659c-.083-.1-.171-.2-.266-.293l-.035-.035-.036-.033a3.75,3.75,0,0,0-2.566-.956h-4.189a3.488,3.488,0,0,0-2.764,1.107,3.943,3.943,0,0,0-.987,2.244l-.008.083v.128h-7.458a3.928,3.928,0,0,0-2.78.878,4,4,0,0,0-.979,3.025v1.444a3.835,3.835,0,0,0,.839,2.592,2.856,2.856,0,0,0,.792.638,2.43,2.43,0,0,0-.612.361,3.291,3.291,0,0,0-1.019,2.909V125a3.286,3.286,0,0,0,1.108,2.691,3.32,3.32,0,0,0,2.362.95c.113,0,.229-.006.345-.016l.407-.043a3.565,3.565,0,0,0-.226,1.3v19.979a3.2,3.2,0,0,0,.88,2.35,3.091,3.091,0,0,0,2.3.783H676.5a3,3,0,0,0,2.474-.92l.073-.09.059-.1a3.906,3.906,0,0,0,.48-2.024v-3.077h7.257a4.481,4.481,0,0,0-.187,1.393V150a3,3,0,0,0,.828,2.2,3.215,3.215,0,0,0,2.4.785h10.158a3.173,3.173,0,0,0,2.349-.782,3.257,3.257,0,0,0,.834-2.351V129.877a3.92,3.92,0,0,0-.165-1.2h.449a4,4,0,0,0,2.622-.778,3.081,3.081,0,0,0,1.04-2.5v-2.311a3.468,3.468,0,0,0-1.04-2.838,2.936,2.936,0,0,0-.75-.45,2.932,2.932,0,0,0,1.046-.763,3.838,3.838,0,0,0,.841-2.593V115a4.064,4.064,0,0,0-.927-3.023l-.055-.056-.061-.051a4.177,4.177,0,0,0-2.716-.774h-7.507v-.236a4.2,4.2,0,0,0-.705-2.642l-.118-.149-.149-.118a4,4,0,0,0-2.594-.658Z" transform="translate(-1.244 -1.297)"/><path class="k" d="M733,108.952a1.746,1.746,0,0,1,1.252.53,2.189,2.189,0,0,1,.529,1.4v1.781h26.286a2.385,2.385,0,0,1,1.637.433,2.574,2.574,0,0,1,.433,1.781v23.494a1.437,1.437,0,0,1-.385,1.155,2.714,2.714,0,0,1-1.638.385h-8.329a2.543,2.543,0,0,1-1.589-.385,1.437,1.437,0,0,1-.385-1.155v-4.429a2.224,2.224,0,0,1,.385-1.492,2.543,2.543,0,0,1,1.589-.385h.385c.578,0,.915-.337.915-1.011V120.313H734.012a6.452,6.452,0,0,1-.578,1.54h13.721a2.447,2.447,0,0,1,1.685.433,2.7,2.7,0,0,1,.385,1.782v15.069a1.582,1.582,0,0,1-.337,1.155,2.781,2.781,0,0,1-1.685.385H734.927v1.059c0,.722.288,1.059.915,1.059h25.227a2.477,2.477,0,0,1,1.54.385,1.9,1.9,0,0,1,.433,1.492v5.344a1.579,1.579,0,0,1-.433,1.252,2.572,2.572,0,0,1-1.54.288H727.946a2.741,2.741,0,0,1-1.637-.288,1.579,1.579,0,0,1-.433-1.252V134.13a1.972,1.972,0,0,1,.433-1.492,2.475,2.475,0,0,1,1.54-.386h12.421v-1.973H727.85a1.976,1.976,0,0,1-1.54-.53,2.049,2.049,0,0,1-.433-1.493v-.578a11.832,11.832,0,0,1-1.3.1h-1.925a2.243,2.243,0,0,1-1.3-.481,1.833,1.833,0,0,1-.481-1.252V122a1.713,1.713,0,0,1,.481-1.2,2,2,0,0,1,1.3-.53h.336a2.6,2.6,0,0,0,1.493-.674,2.791,2.791,0,0,0,.626-2.118v-6.6a2.185,2.185,0,0,1,.53-1.4,1.743,1.743,0,0,1,1.252-.53Z" transform="translate(-10.278 -1.555)"/><path class="k" d="M683.7,126.721a2.123,2.123,0,0,1-1.444.578h-4.189a1.739,1.739,0,0,1-1.348-.433,2.14,2.14,0,0,1-.481-.626l-9.485,1.011a1.677,1.677,0,0,1-1.4-.481,1.615,1.615,0,0,1-.578-1.4v-2.358a1.865,1.865,0,0,1,.385-1.541,3.251,3.251,0,0,1,1.589-.385L676,120.077v-1.492h-9.147a1.748,1.748,0,0,1-2.07-2.023v-1.444a2.491,2.491,0,0,1,.433-1.781,2.383,2.383,0,0,1,1.637-.433H676v-1.733a2.283,2.283,0,0,1,.578-1.3,1.892,1.892,0,0,1,1.492-.53h4.189a2.067,2.067,0,0,1,1.444.53,1.8,1.8,0,0,1,.578,1.3v14.25A1.8,1.8,0,0,1,683.7,126.721Zm17.812,2.359a1.457,1.457,0,0,1,.338,1.108v19.979a1.2,1.2,0,0,1-1.493,1.444H690.2a1.656,1.656,0,0,1-1.2-.288,1.362,1.362,0,0,1-.336-1.012v-1.829a1.917,1.917,0,0,1,.336-1.3,1.465,1.465,0,0,1,1.2-.433h2.214V145.4h-14.2v4.766a2.3,2.3,0,0,1-.241,1.156c-.193.24-.578.288-1.156.288h-6.547a1.46,1.46,0,0,1-1.107-.288,1.589,1.589,0,0,1-.385-1.156V130.188a1.346,1.346,0,0,1,1.492-1.493h30.089A1.585,1.585,0,0,1,701.512,129.08Zm-9.1,5.681v-1.252h-14.2v1.252Zm0,5.97v-1.252h-14.2v1.252Zm-5.633-13.817a1.464,1.464,0,0,1-.433-1.2V111.171a2.03,2.03,0,0,1,.433-1.541,2.865,2.865,0,0,1,1.589-.337h4.381a2.773,2.773,0,0,1,1.541.289,2.759,2.759,0,0,1,.336,1.589V113.1h9.2a1.694,1.694,0,0,1,2.07,2.214v1.444a1.748,1.748,0,0,1-2.07,2.023h-9.2v1.733a.845.845,0,0,0,.964.963h8.232a2.479,2.479,0,0,1,1.54.385,2.031,2.031,0,0,1,.433,1.541v2.311a1.465,1.465,0,0,1-.433,1.2,2.479,2.479,0,0,1-1.54.385H688.369A2.447,2.447,0,0,1,686.781,126.914Z" transform="translate(-1.555 -1.608)"/></g></g></svg>