<svg xmlns="http://www.w3.org/2000/svg" xmlns:xlink="http://www.w3.org/1999/xlink" width="177.1" height="125.902" viewBox="0 0 177.1 125.902"><defs><style>.a{fill:#fafcfb;}.b{fill:#f9fbfa;}.c{fill:#e7e7e7;}.d{fill:none;}.e{fill:#ebebeb;}.f{fill:#ff8686;}.g{fill:#3b3b3b;}.h{filter:url(#ak);}.i{filter:url(#ai);}.j{filter:url(#ag);}.k{filter:url(#ae);}.l{filter:url(#ac);}.m{filter:url(#aa);}.n{filter:url(#y);}.o{filter:url(#w);}.p{filter:url(#u);}.q{filter:url(#s);}.r{filter:url(#q);}.s{filter:url(#o);}.t{filter:url(#m);}.u{filter:url(#k);}.v{filter:url(#i);}.w{filter:url(#g);}.x{filter:url(#e);}.y{filter:url(#c);}.z{filter:url(#a);}</style><filter id="a" x="49.791" y="70.561" width="62.574" height="55.341" filterUnits="userSpaceOnUse"><feOffset dy="3" input="SourceAlpha"/><feGaussianBlur stdDeviation="3" result="b"/><feFlood flood-opacity="0.161"/><feComposite operator="in" in2="b"/><feComposite in="SourceGraphic"/></filter><filter id="c" x="22.452" y="65.442" width="32.209" height="38.918" filterUnits="userSpaceOnUse"><feOffset dy="6" input="SourceAlpha"/><feGaussianBlur stdDeviation="3" result="d"/><feFlood flood-opacity="0.161"/><feComposite operator="in" in2="d"/><feComposite in="SourceGraphic"/></filter><filter id="e" x="26.147" y="80.421" width="20.804" height="21.002" filterUnits="userSpaceOnUse"><feOffset dy="3" input="SourceAlpha"/><feGaussianBlur stdDeviation="3" result="f"/><feFlood flood-opacity="0.161"/><feComposite operator="in" in2="f"/><feComposite in="SourceGraphic"/></filter><filter id="g" x="23.792" y="80.151" width="20.487" height="20.872" filterUnits="userSpaceOnUse"><feOffset dy="3" input="SourceAlpha"/><feGaussianBlur stdDeviation="3" result="h"/><feFlood flood-opacity="0.161"/><feComposite operator="in" in2="h"/><feComposite in="SourceGraphic"/></filter><filter id="i" x="28.827" y="80.014" width="19.819" height="19.96" filterUnits="userSpaceOnUse"><feOffset dy="3" input="SourceAlpha"/><feGaussianBlur stdDeviation="3" result="j"/><feFlood flood-opacity="0.161"/><feComposite operator="in" in2="j"/><feComposite in="SourceGraphic"/></filter><filter id="k" x="41.583" y="5.433" width="52.018" height="72.716" filterUnits="userSpaceOnUse"><feOffset dy="3" input="SourceAlpha"/><feGaussianBlur stdDeviation="3" result="l"/><feFlood flood-opacity="0.161"/><feComposite operator="in" in2="l"/><feComposite in="SourceGraphic"/></filter><filter id="m" x="61.65" y="12.246" width="37.432" height="44.985" filterUnits="userSpaceOnUse"><feOffset dx="6" dy="3" input="SourceAlpha"/><feGaussianBlur stdDeviation="4.5" result="n"/><feFlood flood-opacity="0.161"/><feComposite operator="in" in2="n"/><feComposite in="SourceGraphic"/></filter><filter id="o" x="56.366" y="0" width="33.231" height="37.436" filterUnits="userSpaceOnUse"><feOffset dx="6" dy="-3" input="SourceAlpha"/><feGaussianBlur stdDeviation="3" result="p"/><feFlood flood-opacity="0.161"/><feComposite operator="in" in2="p"/><feComposite in="SourceGraphic"/></filter><filter id="q" x="0" y="16.288" width="177.1" height="102.061" filterUnits="userSpaceOnUse"><feOffset dy="3" input="SourceAlpha"/><feGaussianBlur stdDeviation="3" result="r"/><feFlood flood-opacity="0.161"/><feComposite operator="in" in2="r"/><feComposite in="SourceGraphic"/></filter><filter id="s" x="25.423" y="7.288" width="56.115" height="53.116" filterUnits="userSpaceOnUse"><feOffset dx="3" dy="-6" input="SourceAlpha"/><feGaussianBlur stdDeviation="3" result="t"/><feFlood flood-opacity="0.161"/><feComposite operator="in" in2="t"/><feComposite in="SourceGraphic"/></filter><filter id="u" x="5.415" y="61.834" width="46.154" height="27.62" filterUnits="userSpaceOnUse"><feOffset dx="1" dy="6" input="SourceAlpha"/><feGaussianBlur stdDeviation="3" result="v"/><feFlood flood-opacity="0.161"/><feComposite operator="in" in2="v"/><feComposite in="SourceGraphic"/></filter><filter id="w" x="70" y="11.288" width="58.707" height="65.904" filterUnits="userSpaceOnUse"><feOffset dy="3" input="SourceAlpha"/><feGaussianBlur stdDeviation="3" result="x"/><feFlood flood-opacity="0.161"/><feComposite operator="in" in2="x"/><feComposite in="SourceGraphic"/></filter><filter id="y" x="100.253" y="17.737" width="38.954" height="42.923" filterUnits="userSpaceOnUse"><feOffset dx="6" dy="3" input="SourceAlpha"/><feGaussianBlur stdDeviation="4.5" result="z"/><feFlood flood-opacity="0.161"/><feComposite operator="in" in2="z"/><feComposite in="SourceGraphic"/></filter><filter id="aa" x="91.827" y="5.288" width="38.451" height="34.273" filterUnits="userSpaceOnUse"><feOffset dx="6" dy="-3" input="SourceAlpha"/><feGaussianBlur stdDeviation="3" result="ab"/><feFlood flood-opacity="0.161"/><feComposite operator="in" in2="ab"/><feComposite in="SourceGraphic"/></filter><filter id="ac" x="85" y="76.289" width="56.157" height="41.886" filterUnits="userSpaceOnUse"><feOffset dy="3" input="SourceAlpha"/><feGaussianBlur stdDeviation="3" result="ad"/><feFlood flood-opacity="0.161"/><feComposite operator="in" in2="ad"/><feComposite in="SourceGraphic"/></filter><filter id="ae" x="46.656" y="65.733" width="29.604" height="38.29" filterUnits="userSpaceOnUse"><feOffset dy="6" input="SourceAlpha"/><feGaussianBlur stdDeviation="3" result="af"/><feFlood flood-opacity="0.161"/><feComposite operator="in" in2="af"/><feComposite in="SourceGraphic"/></filter><filter id="ag" x="50.633" y="80.719" width="20.508" height="20.764" filterUnits="userSpaceOnUse"><feOffset dy="3" input="SourceAlpha"/><feGaussianBlur stdDeviation="3" result="ah"/><feFlood flood-opacity="0.161"/><feComposite operator="in" in2="ah"/><feComposite in="SourceGraphic"/></filter><filter id="ai" x="48.259" y="80.822" width="20.183" height="20.682" filterUnits="userSpaceOnUse"><feOffset dy="3" input="SourceAlpha"/><feGaussianBlur stdDeviation="3" result="aj"/><feFlood flood-opacity="0.161"/><feComposite operator="in" in2="aj"/><feComposite in="SourceGraphic"/></filter><filter id="ak" x="53.09" y="79.939" width="19.625" height="19.807" filterUnits="userSpaceOnUse"><feOffset dy="3" input="SourceAlpha"/><feGaussianBlur stdDeviation="3" result="al"/><feFlood flood-opacity="0.161"/><feComposite operator="in" in2="al"/><feComposite in="SourceGraphic"/></filter></defs><g transform="translate(-14522 -2205.711)"><g class="z" transform="matrix(1, 0, 0, 1, 14522, 2205.71)"><path class="a" d="M441.507,77.341a.74.74,0,0,0-.087-.022.57.57,0,0,0-.063-.041c-5.794-2.351-12.646-4.1-18.773-1.894-4.556,1.643-8.371,5.876-8.064,10.948.3,4.982,4.134,8.971,8.6,10.738a16.945,16.945,0,0,0,8.6,1.018c4.384-.631,7.9-3.7,12.449-3.5a.579.579,0,0,0,.143-.022c1.678.784,1.815,3.3,4.62,2.664,2.2-.5,3.408-2.832,3.661-4.873C453.4,85.793,446.821,79.863,441.507,77.341Z" transform="matrix(0.91, 0.41, -0.41, 0.91, -279.91, -159.97)"/></g><g transform="matrix(0.951, 0.309, -0.309, 0.951, 14216.157, 2096.365)"><g class="y" transform="matrix(0.95, -0.31, 0.31, 0.95, 324.66, 9.48)"><path class="b" d="M385.656,63.251a2.725,2.725,0,0,0-2.653.29,3.588,3.588,0,0,0-1.527,2.254c-.571,2.681,1.1,5.745,1.229,8.429.091,1.961-1.166,5.5.423,7.154,2.387,2.489,5.5-1.343,6.2-3.458a14.778,14.778,0,0,0,.4-7.811,13.96,13.96,0,0,0-1.39-3.711,8,8,0,0,0-2.385-2.99A2.616,2.616,0,0,0,385.656,63.251Z" transform="matrix(0.95, 0.31, -0.31, 0.95, -305.84, -109.35)"/></g><g class="x" transform="matrix(0.95, -0.31, 0.31, 0.95, 324.66, 9.48)"><path class="c" d="M386.807,80.64c-.131.051-.268.081-.4.132a2.123,2.123,0,0,0-.41.2.994.994,0,0,0-.474.715,1.3,1.3,0,0,0,.852,1.255.845.845,0,0,0,1.2-.441,1.839,1.839,0,0,0,.046-1,2.294,2.294,0,0,0-.17-.49,1.035,1.035,0,0,0-.256-.393C387.082,80.54,386.93,80.593,386.807,80.64Z" transform="matrix(0.95, 0.31, -0.31, 0.95, -305.84, -109.35)"/></g><g class="w" transform="matrix(0.95, -0.31, 0.31, 0.95, 324.66, 9.48)"><path class="c" d="M383.618,81.116c-.149.057-.324.165-.36.3a1.985,1.985,0,0,0,.348,1.778c.271.323.685.418.938.025a3.429,3.429,0,0,0,.336-.911,1.451,1.451,0,0,0,.1-.782.776.776,0,0,0-.689-.45,1.566,1.566,0,0,0-.567,0A.83.83,0,0,0,383.618,81.116Z" transform="matrix(0.95, 0.31, -0.31, 0.95, -305.84, -109.35)"/></g><g class="v" transform="matrix(0.95, -0.31, 0.31, 0.95, 324.66, 9.48)"><path class="c" d="M389.071,80.736a4.632,4.632,0,0,0-.2-.624c-.088-.166-.426-.821-.673-.634-.324.244-.63.564-.453,1s.664.532,1.086.576A.252.252,0,0,0,389.071,80.736Z" transform="matrix(0.95, 0.31, -0.31, 0.95, -305.84, -109.35)"/></g><path class="c" d="M382.616,79.648a.3.3,0,0,0-.225-.04c-.389.108-.854.515-.734.976s.737.313,1.059.176a.251.251,0,0,0,.124-.215,2.822,2.822,0,0,0-.1-.729A.255.255,0,0,0,382.616,79.648Z"/></g><g transform="translate(14069.295 2278.161) rotate(-13)"><g class="u" transform="matrix(0.97, 0.22, -0.22, 0.97, 457.4, 31.24)"><path class="a" d="M522.442,84.97c1.969-2.844,4.016-7.082,3.638-11.23s-2.476-3.712-4.3-2.239c1.408-3.447,2.526-7.816,1.277-10.882-1.76-4.321-5.565.326-7.156,2.529-3.909,5.415-6.37,13.73-8.664,21.531a92.81,92.81,0,0,0-4.3,24.335c-.017.7.45.813.635.371,7-.177,13.478-5.781,18.922-13.752,1.293-1.894,3.369-4.969,2.187-8.441C524.1,85.485,523.3,84.913,522.442,84.97Z" transform="translate(-452.71 72.45) rotate(-13)"/></g><g class="t" transform="matrix(0.97, 0.22, -0.22, 0.97, 457.4, 31.24)"><path class="a" d="M538.457,73.078c-.578-6.344-5.163-1.968-6.646.424-.28.451-.005,1.132.292,1.093l.686,10.692c-.044.05-.088.1-.133.152-.4.427-.039,1.574.359,1.145C535.209,84.219,538.957,78.568,538.457,73.078Z" transform="translate(-464.62 75.88) rotate(-13)"/></g><g class="s" transform="matrix(0.97, 0.22, -0.22, 0.97, 457.4, 31.24)"><path class="a" d="M529.875,60.619c-1.76-4.321-5.565.326-7.156,2.529a37.039,37.039,0,0,0-3.95,7.37l.693.493a3.172,3.172,0,0,1,.52.422.258.258,0,0,0,.122.07l5.955,4.567c.12.091.258-.028.346-.171C528.134,73.106,531.792,65.326,529.875,60.619Z" transform="translate(-459.34 73.98) rotate(-13)"/></g></g><g transform="translate(14469.746 2206.54)"><g transform="translate(0 -0.001)"><path class="d" d="M68.828,57.025a12.344,12.344,0,0,0-3.046,4.986v0c-.107,4.751,8.072.12,9.129-.53a27.04,27.04,0,0,0,4.623-3.627A22.475,22.475,0,0,1,68.828,57.025Z"/><g class="r" transform="matrix(1, 0, 0, 1, 52.25, -0.83)"><path class="a" d="M220.3,45.447a.5.5,0,0,0-.279-.667,83.276,83.276,0,0,0-45.646-7.014,81.172,81.172,0,0,0-22.382,6.225c-9.5,4.207-19.559,13.021-30.48,8.266a.489.489,0,0,0-.074-.016c1.45-10.359-1.586-22.96-10.958-28.288a18.742,18.742,0,0,0-19.442.467c-10.917-5.8-21.483,2-22.32,13.648-5,3-10.351,9.537-5.653,15.215a12.055,12.055,0,0,0,4.508,3.247A13.656,13.656,0,0,0,64.7,61.369a.615.615,0,0,0-.156.355,3.022,3.022,0,0,0,1.14,2.882.544.544,0,0,0,.1.307,21.207,21.207,0,0,0,17.7,8.679,68.434,68.434,0,0,0,8.887,12.543,57.954,57.954,0,0,0,27.472,17.53,50.447,50.447,0,0,0,42.188-7.007c.712-.5,1.416-1.006,2.1-1.543a.584.584,0,0,0,.295-.086c10.893-6.557,13.984-18.96,19.353-29.642,6.847-13.623,20.359-21.858,35.79-19.016A.674.674,0,0,0,220.3,45.447ZM74.91,61.483c-1.057.65-9.236,5.281-9.129.53v0a12.344,12.344,0,0,1,3.046-4.986,22.475,22.475,0,0,0,10.7.831A27.04,27.04,0,0,1,74.91,61.483Z" transform="translate(-52.25 0.83)"/></g><path class="e" d="M136.991,78.857a58.8,58.8,0,0,0-31.553.014c-4.9,1.306-9.875,3.342-13.066,7.264a57.954,57.954,0,0,0,27.472,17.53,50.447,50.447,0,0,0,42.188-7.007A45.967,45.967,0,0,0,136.991,78.857Z"/></g><path class="f" d="M79.533,57.856a27.04,27.04,0,0,1-4.623,3.627c-1.057.65-9.236,5.281-9.129.53v0a12.344,12.344,0,0,1,3.046-4.986A22.475,22.475,0,0,0,79.533,57.856Z"/><g class="q" transform="matrix(1, 0, 0, 1, 52.25, -0.83)"><path class="a" d="M110.482,23.953c-9.834-5.591-21.761-1.362-26.732,8.534-.355.708.687,1.328,1.062.654L119.5,55.606c-.017.064-.029.132-.046.195a.625.625,0,0,0,1.205.332C123.582,45.271,121.067,29.97,110.482,23.953Z" transform="translate(-52.25 0.83)"/></g><g class="p" transform="matrix(1, 0, 0, 1, 52.25, -0.83)"><path class="a" d="M92.927,69.1c-.182.137-.379.246-.566.374L67.244,64.771c-.125-.165-.264-.319-.383-.488-.458-.654-1.542-.03-1.079.63,6.025,8.6,19.18,11.736,27.776,5.269C94.193,69.7,93.571,68.619,92.927,69.1Z" transform="translate(-52.25 0.83)"/></g></g><g transform="translate(14098.059 2164.156)"><g class="o" transform="matrix(1, 0, 0, 1, 423.94, 41.56)"><path class="a" d="M537.181,83.479c3.458-2.682,7.051-6.678,6.388-10.589s-4.347-3.5-7.542-2.111c2.473-3.25,4.435-7.37,2.242-10.261-3.091-4.074-9.771.307-12.565,2.385-6.864,5.106-11.184,12.946-15.212,20.3-3.944,7.2-7.169,14.642-7.55,22.946a.615.615,0,0,0,1.115.35c12.293-.167,23.665-5.451,33.224-12.967,2.271-1.786,5.915-4.685,3.84-7.959A4.215,4.215,0,0,0,537.181,83.479Z" transform="translate(-423.94 -41.56)"/></g><g class="n" transform="matrix(1, 0, 0, 1, 423.94, 41.56)"><path class="a" d="M543.569,72.89c-1.014-5.982-9.066-1.856-11.67.4-.491.425-.009,1.067.512,1.031L533.616,84.4c-.078.047-.154.1-.233.143a.626.626,0,0,0,.63,1.08C537.866,83.4,544.447,78.067,543.569,72.89Z" transform="translate(-423.94 -41.56)"/></g><g class="m" transform="matrix(1, 0, 0, 1, 423.94, 41.56)"><path class="a" d="M538.269,60.518c-3.091-4.074-9.771.307-12.565,2.385a36.315,36.315,0,0,0-6.935,6.949l1.217.465a6.3,6.3,0,0,1,.913.4.628.628,0,0,0,.214.066l10.456,4.306a.622.622,0,0,0,.608-.161C535.213,72.292,541.635,64.956,538.269,60.518Z" transform="translate(-423.94 -41.56)"/></g></g><path class="g" d="M359.753,40.3a3.775,3.775,0,0,1,1.7-2.446,2.025,2.025,0,0,1,2.209.776c.984,1.255.912,3.093.8,4.68,0,.028-.021.039-.027.063a.368.368,0,0,1-.118.34,3.246,3.246,0,0,1-2.718.7c-.568-.093-1.634-.236-1.966-.905A5.942,5.942,0,0,1,359.753,40.3Z" transform="translate(14197.233 2262.306) rotate(-8)"/><g class="l" transform="matrix(1, 0, 0, 1, 14522, 2205.71)"><path class="a" d="M441.507,77.341a.74.74,0,0,0-.087-.022.57.57,0,0,0-.063-.041c-5.794-2.351-12.646-4.1-18.773-1.894-4.556,1.643-8.371,5.876-8.064,10.948.3,4.982,4.134,8.971,8.6,10.738a16.945,16.945,0,0,0,8.6,1.018c4.384-.631,7.9-3.7,12.449-3.5a.579.579,0,0,0,.143-.022c1.678.784,1.815,3.3,4.62,2.664,2.2-.5,3.408-2.832,3.661-4.873C453.4,85.793,446.821,79.863,441.507,77.341Z" transform="translate(-320.5 7.92)"/></g><g transform="translate(14213.851 2152.535) rotate(9)"><g class="k" transform="matrix(0.99, -0.16, 0.16, 0.99, 312.67, 4.32)"><path class="b" d="M385.656,63.251a2.725,2.725,0,0,0-2.653.29,3.588,3.588,0,0,0-1.527,2.254c-.571,2.681,1.1,5.745,1.229,8.429.091,1.961-1.166,5.5.423,7.154,2.387,2.489,5.5-1.343,6.2-3.458a14.778,14.778,0,0,0,.4-7.811,13.96,13.96,0,0,0-1.39-3.711,8,8,0,0,0-2.385-2.99A2.616,2.616,0,0,0,385.656,63.251Z" transform="translate(-308.15 -53.18) rotate(9)"/></g><g class="j" transform="matrix(0.99, -0.16, 0.16, 0.99, 312.67, 4.32)"><path class="e" d="M386.807,80.64c-.131.051-.268.081-.4.132a2.123,2.123,0,0,0-.41.2.994.994,0,0,0-.474.715,1.3,1.3,0,0,0,.852,1.255.845.845,0,0,0,1.2-.441,1.839,1.839,0,0,0,.046-1,2.294,2.294,0,0,0-.17-.49,1.035,1.035,0,0,0-.256-.393C387.082,80.54,386.93,80.593,386.807,80.64Z" transform="translate(-308.15 -53.18) rotate(9)"/></g><g class="i" transform="matrix(0.99, -0.16, 0.16, 0.99, 312.67, 4.32)"><path class="e" d="M383.618,81.116c-.149.057-.324.165-.36.3a1.985,1.985,0,0,0,.348,1.778c.271.323.685.418.938.025a3.429,3.429,0,0,0,.336-.911,1.451,1.451,0,0,0,.1-.782.776.776,0,0,0-.689-.45,1.566,1.566,0,0,0-.567,0A.83.83,0,0,0,383.618,81.116Z" transform="translate(-308.15 -53.18) rotate(9)"/></g><g class="h" transform="matrix(0.99, -0.16, 0.16, 0.99, 312.67, 4.32)"><path class="e" d="M389.071,80.736a4.632,4.632,0,0,0-.2-.624c-.088-.166-.426-.821-.673-.634-.324.244-.63.564-.453,1s.664.532,1.086.576A.252.252,0,0,0,389.071,80.736Z" transform="translate(-308.15 -53.18) rotate(9)"/></g><path class="e" d="M382.616,79.648a.3.3,0,0,0-.225-.04c-.389.108-.854.515-.734.976s.737.313,1.059.176a.251.251,0,0,0,.124-.215,2.822,2.822,0,0,0-.1-.729A.255.255,0,0,0,382.616,79.648Z"/></g></g></svg>