<svg xmlns="http://www.w3.org/2000/svg" width="101.31" height="129.707" viewBox="0 0 101.31 129.707"><defs><style>.a{fill:#cabbab;}.b{fill:#bda991;}.c{fill:none;stroke:#bda991;stroke-miterlimit:10;}.d{fill:#999;}.e{fill:#fcfaac;}</style></defs><g transform="translate(-111.315 -171.354)"><path class="a" d="M1110.541,304.168a77.011,77.011,0,0,1-18.2,42.737c-9.975,11.62-28.611,26.766-44.594,18.045-.957-.522-1.812.939-.855,1.462,16.171,8.824,34.735-5.117,45.285-16.766a78.98,78.98,0,0,0,20.055-45.478c.1-1.084-1.592-1.078-1.693,0Z" transform="translate(-925.036 -68.136)"/><path class="a" d="M207.049,221.271a17.021,17.021,0,0,0-8.143-5.54.507.507,0,0,0-.686.5c-.009.009-.019.012-.028.021-2.7,3.063-12.474,2.2-16.523,2.346q-7.235.268-14.477.209a289.878,289.878,0,0,1-29.458-1.663c-3.432-.379-7.272-1.272-10.725-.883-3.244.365-6.177,2.141-8.715,3.835-4.846,3.235-9.058,6.53-5.869,11.949,7.087,12.044,25.869,15.745,39.631,17.813,16.331,2.452,34.225,3.392,48.464-5.346,5.119-3.141,12.692-9.377,12.068-15.626C212.32,226.188,208.933,223.362,207.049,221.271Z" transform="translate(0 -9.298)"/><g transform="translate(123.66 173.136)"><path class="a" d="M155.637,209.912a52.737,52.737,0,0,0,32.5-7.575c3.44-2.173,6.636-4.883,8.381-8.238-.286-.439-.573-.879-.871-1.316-2.8-4.094-5.574-8.25-9.93-11.2a51.223,51.223,0,0,0-9.541-5.133,39.065,39.065,0,0,0-10.7-2.712c-4.489-.448-9.069.363-13.442,1.2a43.47,43.47,0,0,0-6.409,1.694,35.975,35.975,0,0,0-10.046,5.185,29.431,29.431,0,0,0-4.663,4.372,23.854,23.854,0,0,0-5.148,10.5A50.333,50.333,0,0,0,155.637,209.912Z" transform="translate(-125.11 -173.608)"/><path class="b" d="M196.447,199.621c-.6.693-.982,1.592-1.557,2.323a20.177,20.177,0,0,1-1.97,2.147,31.312,31.312,0,0,1-4.854,3.7,52.737,52.737,0,0,1-32.5,7.575A50.333,50.333,0,0,1,125.7,202.137a31.807,31.807,0,0,0,.253,13.99c0,.013.012.02.016.032s.007.016.011.024a.432.432,0,0,0,.205.239c9.382,8.6,25.079,11.9,38.231,11.458a71.232,71.232,0,0,0,22.512-4.491,33.046,33.046,0,0,0,7.979-4.13,22.488,22.488,0,0,0,3.227-2.875c.506-.548.98-1.118,1.423-1.706a5.757,5.757,0,0,0,.917-1.314,3.887,3.887,0,0,0-.037-1.72,29.94,29.94,0,0,0-.753-4.165,30.725,30.725,0,0,0-1.315-4q-.4-.982-.865-1.939A7.423,7.423,0,0,0,196.447,199.621Z" transform="translate(-125.037 -179.062)"/></g><path class="b" d="M167.288,172.466a7.066,7.066,0,0,0-2.966-1.062,4.859,4.859,0,0,0-1.915.1,6.722,6.722,0,0,0-1.743.8,3.194,3.194,0,0,0-1.081,1.031,1.862,1.862,0,0,0-.222.582,1.937,1.937,0,0,0-.027.2,2.075,2.075,0,0,0,.031.543c.445,2.4,4.6,2.11,6.509,1.674C168.341,175.774,169.634,174.017,167.288,172.466Z" transform="translate(-4.818 0)"/><path class="c" d="M158.728,176.69c-10.032,7.27-15.842,18.823-15.206,30.233" transform="translate(-3.227 -1.119)"/><path class="c" d="M167.478,176.938a60.843,60.843,0,0,1,20.878,28.133" transform="translate(-5.636 -1.171)"/><path class="d" d="M6.5.11c3.588.061,6.566,3.749,6.652,8.239s-2.753,8.08-6.341,8.019S.241,12.618.155,8.129,2.909.049,6.5.11Z" transform="matrix(0.99, -0.14, 0.14, 0.99, 117.893, 195.184)"/><path class="e" d="M4.464.075c2.465.042,4.518,2.9,4.584,6.385S7.17,12.737,4.705,12.695.187,9.795.121,6.31,2,.034,4.464.075Z" transform="matrix(0.99, -0.14, 0.14, 0.99, 118.182, 196.98)"/></g></svg>