<svg xmlns="http://www.w3.org/2000/svg" xmlns:xlink="http://www.w3.org/1999/xlink" width="71.898" height="46.471" viewBox="0 0 71.898 46.471"><defs><style>.a{fill:#689f5f;}.b{fill:#c3a07b;}.c{fill:#af7d52;}.d{fill:#77b56c;}.e{fill:#9a6b42;}.f{fill:#84c778;}.g{filter:url(#g);}.h{filter:url(#e);}.i{filter:url(#c);}.j{filter:url(#a);}</style><filter id="a" x="0" y="0" width="28.219" height="33.906" filterUnits="userSpaceOnUse"><feOffset dx="-6" dy="3" input="SourceAlpha"/><feGaussianBlur stdDeviation="3" result="b"/><feFlood flood-opacity="0.161"/><feComposite operator="in" in2="b"/><feComposite in="SourceGraphic"/></filter><filter id="c" x="20.468" y="16.535" width="30.955" height="19.673" filterUnits="userSpaceOnUse"><feOffset dy="6" input="SourceAlpha"/><feGaussianBlur stdDeviation="3" result="d"/><feFlood flood-opacity="0.161"/><feComposite operator="in" in2="d"/><feComposite in="SourceGraphic"/></filter><filter id="e" x="20.688" y="25.623" width="29.424" height="20.848" filterUnits="userSpaceOnUse"><feOffset dx="3" dy="6" input="SourceAlpha"/><feGaussianBlur stdDeviation="3" result="f"/><feFlood flood-opacity="0.161"/><feComposite operator="in" in2="f"/><feComposite in="SourceGraphic"/></filter><filter id="g" x="32.142" y="12.526" width="39.757" height="32.829" filterUnits="userSpaceOnUse"><feOffset dy="3" input="SourceAlpha"/><feGaussianBlur stdDeviation="3" result="h"/><feFlood flood-opacity="0.161"/><feComposite operator="in" in2="h"/><feComposite in="SourceGraphic"/></filter></defs><g transform="translate(-469.652 -104.805)"><path class="a" d="M501.217,175.947a34.37,34.37,0,0,0-.9-4.576,41.814,41.814,0,0,0-3.232-8.584c-1.194-2.348-2.588-4.46-5.175-5.386a13.93,13.93,0,0,0-6.926-.535,5.966,5.966,0,0,0-2.735,1.226,12.393,12.393,0,0,0-1.951,2.75c-.768,1.1-2.215,1.226-2.962,2.333a3.18,3.18,0,0,0-.412,2.716,4.865,4.865,0,0,0,.817,1.369,3.451,3.451,0,0,1,.765,2.746c-.137.982-.461,2.119.137,3.024s1.71.72,2.633.971c1.2.325,1.514,1.806,2.811,1.937,1.512.152,2.72-.841,4.158.155.945.655,1.649,1.432,2.9,1.236.735-.115,1.41-.49,2.157-.539,1-.067,1.665.593,2.535.941,1.463.586,3.269-1.05,4.529-.052a.126.126,0,0,0,.016.008.111.111,0,0,0,.1.023C501.232,177.531,501.288,176.569,501.217,175.947Z" transform="translate(0 -38.418)"/><ellipse class="b" cx="18.964" cy="2.924" rx="18.964" ry="2.924" transform="translate(485.056 140.921)"/><path class="a" d="M648.884,247.161l-1.767-.136a3.73,3.73,0,0,0-2.47-.726,6.412,6.412,0,0,0-.7.1c.041.279-.087.553-.485.795a.107.107,0,0,1-.089.013q-2.122.862-4.174,1.875c-.023.2-.037.4-.047.6.5-.136,1-.285,1.508-.386a3.463,3.463,0,0,1,2.284.2c.435.229.778.6,1.219.821a1.576,1.576,0,0,0,1.713-.191c.38-.267.679-.628,1.056-.9a2.911,2.911,0,0,1,2.224-.524,1.151,1.151,0,0,0,.251.116Z" transform="translate(-131.425 -110.992)"/><path class="c" d="M585.487,234.53c-.117-.809-1.66-1.661-2.23-1.871a12.458,12.458,0,0,0-3.5-.569c-1.341-.089-2.677-.234-4.016-.345a15.1,15.1,0,0,0-7.236.741c-.586.251-1.541.636-1.571,1.4a.745.745,0,0,0,.622.8.112.112,0,0,0,.082.112q2.732.836,5.368,1.938a.111.111,0,0,0,.029.006,6.56,6.56,0,0,1,.14,3.3,7.116,7.116,0,0,1-.652,1.713c-.075.148-.225.321-.2.5.056.492.9.722,1.27.859a10.189,10.189,0,0,0,3.094.55,12.763,12.763,0,0,0,3.155-.287,14.236,14.236,0,0,0,1.7-.476c.118-.041.475-.118.53-.308a.691.691,0,0,0-.024-.3,5.2,5.2,0,0,0-.5-.617,4.251,4.251,0,0,1-.371-.75,7.351,7.351,0,0,1-.469-3.113c.01-.2.025-.4.047-.6q2.054-1.012,4.174-1.875a.107.107,0,0,0,.089-.013C585.4,235.084,585.527,234.81,585.487,234.53Z" transform="translate(-72.968 -99.124)"/><path class="d" d="M551.516,131.046c.414-.526.956-1.03.811-1.76s-.6-1.162-.516-2a2.557,2.557,0,0,0,.015-1.254,2.5,2.5,0,0,0-1.855-1.386,16.286,16.286,0,0,0-1.841-.2c-.093-.01-.185-.024-.277-.039a2.466,2.466,0,0,0,.361-2.47c-.581-1.574-2.388-1.477-3.238-2.739a10.333,10.333,0,0,0-.877-1.569,3.122,3.122,0,0,0-1.4-.642,1.906,1.906,0,0,1-1.281-1.209,4.1,4.1,0,0,0-.354-.719,3.4,3.4,0,0,0-1.384-1.09,20.243,20.243,0,0,0-4.684-1.381,14.3,14.3,0,0,0-2.3-.262,2.471,2.471,0,0,1-1.836-.567,7.168,7.168,0,0,0-.737-.8c-1.209-.9-2.729.675-3.864-.407-.4-.385-.582-.86-1.155-1.034a2.9,2.9,0,0,0-1.872.364,3.453,3.453,0,0,1-.812.253c-.588.083-.789-.105-1.238-.444a2.229,2.229,0,0,0-.445-.336,2.087,2.087,0,0,0-1.629.038,8.335,8.335,0,0,1-2.916,1.005,2.722,2.722,0,0,0-1.679.419.114.114,0,0,0-.046.03l-.006.006-.025.018a.109.109,0,0,0-.033.041,11.809,11.809,0,0,1-3.566,2.6c-1.321.617-2.792.8-4.1,1.42a3.646,3.646,0,0,0-1.971,1.98,2.533,2.533,0,0,0-.1,1.137,4.107,4.107,0,0,1,.067,1.675,4.159,4.159,0,0,0-.278.883,1.213,1.213,0,0,0,.268.826c.257.362.569.494.714.984a5.032,5.032,0,0,1,.051,1.09,1.66,1.66,0,0,0,.929,1.348,2.332,2.332,0,0,0-1.528.037,1.952,1.952,0,0,0-.72.74,6.052,6.052,0,0,1-1.947,1.5,1.614,1.614,0,0,0-.766,1.8c.155.69.6,1.316.388,2.053-.139.487-.522.886-.588,1.4a1.441,1.441,0,0,0,.965,1.449,7.5,7.5,0,0,0,1.8.351,7.754,7.754,0,0,1,1.975.9,2.023,2.023,0,0,0,2.158-.254,1.792,1.792,0,0,1,2.115-.069,11.805,11.805,0,0,0,1.289.887c1.112.517,2.06-.256,3.158-.363.839-.081,2,.967,2.725.375a2.487,2.487,0,0,0,.684.438,2,2,0,0,0,1.17.151,7.782,7.782,0,0,0,.82-.373,1.869,1.869,0,0,1,1.609.155c.944.514,1.524.026,2.368-.439.943-.52,1.656-.02,2.583-.14a1.34,1.34,0,0,0,.49-.154l.117-.167a1.642,1.642,0,0,1,2.184-.318c.221.149.4.35.63.492a2.24,2.24,0,0,0,1.449.236c.5-.058.981-.193,1.479-.228a3.73,3.73,0,0,1,2.47.726l1.767.136.518,1.657a3.52,3.52,0,0,0,1.912-.311c1.337-.365,2.3.616,3.578.646.974.023,1.6-.673,2.285-1.252,1.243-1.044,2.6-.685,4.063-.964a2.283,2.283,0,0,0,1.877-1.415,1.8,1.8,0,0,0-.075-1.126C551.119,132.514,550.864,131.872,551.516,131.046Z" transform="translate(-19.8 0)"/><g transform="translate(494.582 135.439)"><path class="e" d="M594.286,250.712l1.447,1.625c.1.115.27-.054.168-.168l-1.447-1.625c-.1-.115-.27.054-.169.168Z" transform="translate(-589.669 -249.844)"/><path class="e" d="M642.141,249.82q-2.234.906-4.393,1.976c-.137.068-.017.273.12.206q2.132-1.057,4.336-1.952c.14-.057.079-.287-.063-.229Z" transform="translate(-624.825 -249.281)"/><path class="e" d="M570.273,247.267q2.732.837,5.368,1.938c.141.059.2-.171.063-.229q-2.637-1.1-5.368-1.938c-.147-.045-.21.185-.063.23Z" transform="translate(-570.19 -247.031)"/><path class="e" d="M606.575,248.7l1.492,2.055c.089.123.3,0,.206-.12l-1.492-2.055c-.089-.123-.3,0-.206.12Z" transform="translate(-599.624 -248.244)"/></g><g transform="translate(484.652 110.805)"><g class="j" transform="matrix(1, 0, 0, 1, -15, -6)"><path class="d" d="M528.1,117.668a11.831,11.831,0,0,1-3.629,2.668c-1.321.617-2.792.8-4.1,1.42a3.646,3.646,0,0,0-1.971,1.98,2.533,2.533,0,0,0-.1,1.137,4.109,4.109,0,0,1,.066,1.675,4.162,4.162,0,0,0-.278.883,1.214,1.214,0,0,0,.268.826c.257.362.569.494.714.984a5.032,5.032,0,0,1,.051,1.09c.086,1.248,1.233,1.227,1.8,2.175.433.728.7,1.214,1.627.965.628-.168.921-.463,1.679-.373.318.038.619.185.936.23a1.738,1.738,0,0,0,1.138-.167c.11-.056.052-.2-.046-.216l1.911-15c.036-.038.074-.075.109-.113C528.371,117.725,528.2,117.556,528.1,117.668Z" transform="translate(-503.08 -111.63)"/></g><g class="i" transform="matrix(1, 0, 0, 1, -15, -6)"><path class="d" d="M606.924,189.059c.1-.112-.063-.28-.168-.168l-.078.083-12.418-.126-.035-.061c-.074-.134-.279-.014-.206.12a2.362,2.362,0,0,0,2.263,1.443,7.9,7.9,0,0,0,1.644-.465,2.5,2.5,0,0,1,2.013.075,5.243,5.243,0,0,0,.692.354,1.914,1.914,0,0,0,1.09.014,3.539,3.539,0,0,1,1.619-.233c.332.06.631.228.968.274A3.151,3.151,0,0,0,606.924,189.059Z" transform="translate(-564.53 -169.19)"/></g><g class="h" transform="matrix(1, 0, 0, 1, -15, -6)"><path class="d" d="M590.644,237.838c-.02.025-.042.044-.063.066l-10.912-1.3-.034-.077c-.063-.14-.268-.019-.206.12a4.341,4.341,0,0,0,1.971,2.483,2,2,0,0,0,1.17.151,7.789,7.789,0,0,0,.82-.373,1.869,1.869,0,0,1,1.609.155c.944.514,1.524.026,2.368-.439.943-.52,1.656-.02,2.583-.14a1.216,1.216,0,0,0,.862-.474C590.908,237.888,590.74,237.719,590.644,237.838Z" transform="translate(-552.73 -207.84)"/></g><g class="g" transform="matrix(1, 0, 0, 1, -15, -6)"><path class="d" d="M676.185,191.145c.415-.526.956-1.03.811-1.76s-.6-1.162-.516-2a2.554,2.554,0,0,0,.015-1.254,2.5,2.5,0,0,0-1.855-1.386,16.281,16.281,0,0,0-1.841-.2,11.746,11.746,0,0,1-2.266-.606,3.625,3.625,0,0,0-1.491-.209,6.419,6.419,0,0,1-2.24.13c-.913-.207-1.872-.69-2.805-.252-1.242.583-.877,2.294-2.609,2.32-.96.014-2.074-.447-2.921.227a1.238,1.238,0,0,0-.465.756,2.015,2.015,0,0,0,0,.571c.005.058.016.112.022.168a1.531,1.531,0,0,1-.67,1.462c-.658.415-1.909.124-2.08,1.183a1.27,1.27,0,0,0,.3.9,6.878,6.878,0,0,1,.454.593,1.33,1.33,0,0,1-.294,1.483c-1.356,1.835,1.659,2.995,3.087,2.953a5.214,5.214,0,0,1,1.791.1c.744.23.894.891,1.406,1.349.706.631,1.578.149,2.346-.061,1.337-.365,2.3.616,3.578.646.974.023,1.6-.673,2.285-1.252,1.243-1.044,2.6-.685,4.063-.964a2.283,2.283,0,0,0,1.877-1.415,1.8,1.8,0,0,0-.075-1.126C675.788,192.613,675.533,191.971,676.185,191.145Z" transform="translate(-614.12 -164.9)"/></g></g><g transform="translate(490.212 113.502)"><path class="f" d="M697.164,196.652a3.361,3.361,0,0,0-3.994.283c-.81.7-.476,1.674.616,1.719a3.645,3.645,0,0,0,1.008-.166,1.753,1.753,0,0,1,1.877.322c.3.232.57.4.949.173C698.555,198.43,697.773,197.092,697.164,196.652Z" transform="translate(-665.001 -183.875)"/><path class="f" d="M612.729,134.925c-.8-.326-1.7-.3-2.518-.557a9.828,9.828,0,0,1-2.741-1.573c-2.36-1.486-6.007-1.128-8.466-.105a4.749,4.749,0,0,0-2.6,2.206,1.651,1.651,0,0,0,.744,2.362c1.372.638,3.1.107,4.531-.011a12.911,12.911,0,0,1,5.405.639,9.98,9.98,0,0,0,4.37.965,2.953,2.953,0,0,0,2.559-1.692A1.829,1.829,0,0,0,612.729,134.925Z" transform="translate(-586.865 -131.799)"/><path class="f" d="M4.867.073A4.259,4.259,0,0,0,2.712.235,7.591,7.591,0,0,0,.446,1.259c-.3.227-.59.607-.367.992.3.522,1.383.349,1.829.3s.873-.138,1.313-.187a3.507,3.507,0,0,1,1.669.368.964.964,0,0,0,1.159-.222C6.708,1.621,5.759.312,4.867.073Z" transform="matrix(-0.259, -0.966, 0.966, -0.259, 1.622, 10.526)"/></g></g></svg>