<svg xmlns="http://www.w3.org/2000/svg" xmlns:xlink="http://www.w3.org/1999/xlink" width="294" height="192" viewBox="0 0 294 192"><defs><style>.a{fill:#689f5f;}.b{fill:none;stroke:#ff0001;stroke-miterlimit:10;stroke-width:0.25px;}.c{fill:#c3a07b;}.d{fill:#af7d52;}.e{fill:#77b56c;}.f{fill:#9a6b42;}.g{fill:#84c778;}.h{filter:url(#g);}.i{filter:url(#e);}.j{filter:url(#c);}.k{filter:url(#a);}</style><filter id="a" x="25.217" y="2.203" width="70.226" height="99.289" filterUnits="userSpaceOnUse"><feOffset dx="-6" dy="3" input="SourceAlpha"/><feGaussianBlur stdDeviation="3" result="b"/><feFlood flood-opacity="0.161"/><feComposite operator="in" in2="b"/><feComposite in="SourceGraphic"/></filter><filter id="c" x="105.154" y="74.373" width="84.204" height="26.55" filterUnits="userSpaceOnUse"><feOffset dy="6" input="SourceAlpha"/><feGaussianBlur stdDeviation="3" result="d"/><feFlood flood-opacity="0.161"/><feComposite operator="in" in2="d"/><feComposite in="SourceGraphic"/></filter><filter id="e" x="93.95" y="120.815" width="76.382" height="32.556" filterUnits="userSpaceOnUse"><feOffset dx="3" dy="6" input="SourceAlpha"/><feGaussianBlur stdDeviation="3" result="f"/><feFlood flood-opacity="0.161"/><feComposite operator="in" in2="f"/><feComposite in="SourceGraphic"/></filter><filter id="g" x="164.812" y="66.219" width="129.188" height="93.785" filterUnits="userSpaceOnUse"><feOffset dy="3" input="SourceAlpha"/><feGaussianBlur stdDeviation="3" result="h"/><feFlood flood-opacity="0.161"/><feComposite operator="in" in2="h"/><feComposite in="SourceGraphic"/></filter></defs><g transform="translate(-476.783 -109.199)"><path class="a" d="M601.653,255.263a175.63,175.63,0,0,0-4.6-23.384,213.663,213.663,0,0,0-16.517-43.867c-6.1-12-13.227-22.791-26.448-27.527a71.187,71.187,0,0,0-35.393-2.736,30.49,30.49,0,0,0-13.978,6.265c-4.641,3.9-6.587,9.217-9.971,14.054-3.923,5.6-11.321,6.266-15.136,11.924a16.25,16.25,0,0,0-2.105,13.878,24.871,24.871,0,0,0,4.174,7c3.275,4.409,4.682,8.507,3.91,14.032-.7,5.016-2.356,10.83.7,15.452,3.094,4.682,8.737,3.679,13.458,4.962,6.116,1.663,7.739,9.231,14.365,9.9,7.726.779,13.9-4.3,21.251.791,4.829,3.345,8.428,7.318,14.8,6.318,3.757-.589,7.206-2.5,11.024-2.756,5.113-.341,8.509,3.029,12.956,4.809,7.478,2.993,16.7-5.367,23.146-.267a.629.629,0,0,0,.08.041.569.569,0,0,0,.512.116C601.728,263.354,602.018,258.441,601.653,255.263Z" transform="translate(0 -1.286)"/><path class="b" d="M569.722,118.267a59.279,59.279,0,0,1-25.4,16.39c-5.277,1.714-10.85,2.7-15.734,5.336s-9.115,7.471-8.951,13.013c.089,2.973,1.423,5.909.893,8.837-.466,2.581-2.358,5.014-1.741,7.564.6,2.467,3.284,3.837,4.436,6.1,1.711,3.363-.314,7.9,1.847,11,1.567,2.243,4.73,2.777,6.6,4.77,1.985,2.112,2.415,5.723,5.076,6.875,3.039,1.317,6.164-1.649,9.432-2.2,2.292-.385,4.585.453,6.836,1.032s4.832.847,6.731-.492" transform="translate(-1.095 -0.246)"/><path class="b" d="M594.625,189.352c1.586,3.181,4.229,6.077,7.694,6.888,3.321.778,6.743-.453,9.954-1.606s6.717-2.25,9.968-1.22c2.526.8,4.6,2.818,7.217,3.249,3.615.6,7.1-2,10.754-1.784,2.281.132,4.369,1.345,6.63,1.67a11.167,11.167,0,0,0,7.152-1.654,25.1,25.1,0,0,0,5.629-4.885" transform="translate(-3.082 -2.172)"/><ellipse class="c" cx="96.913" cy="14.945" rx="96.913" ry="14.945" transform="translate(519.064 271.309)"/><path class="a" d="M688.906,250.738l-9.029-.694a19.062,19.062,0,0,0-12.623-3.709,32.782,32.782,0,0,0-3.6.508c.208,1.427-.447,2.828-2.479,4.061a.549.549,0,0,1-.456.066q-10.843,4.4-21.331,9.581c-.117,1.024-.19,2.055-.242,3.086,2.551-.7,5.089-1.458,7.7-1.974,3.857-.761,8.094-.882,11.67,1,2.224,1.171,3.977,3.069,6.229,4.194,3.09,1.543,6,.962,8.756-.977,1.943-1.365,3.469-3.212,5.4-4.6a14.875,14.875,0,0,1,11.367-2.679,5.881,5.881,0,0,0,1.282.6Z" transform="translate(-4.247 -3.715)"/><path class="d" d="M661.768,246.446c-.6-4.137-8.485-8.487-11.4-9.56-5.719-2.106-11.88-2.506-17.905-2.908-6.856-.457-13.68-1.2-20.525-1.765-12.359-1.025-25.362-1.2-36.978,3.787-2.994,1.285-7.876,3.251-8.029,7.174a3.808,3.808,0,0,0,3.177,4.071.573.573,0,0,0,.421.572q13.963,4.274,27.433,9.905a.555.555,0,0,0,.147.029,33.52,33.52,0,0,1,.715,16.87,36.37,36.37,0,0,1-3.332,8.755c-.385.756-1.148,1.642-1.044,2.565.284,2.513,4.591,3.692,6.491,4.389a52.066,52.066,0,0,0,15.812,2.812,65.215,65.215,0,0,0,16.124-1.464,72.789,72.789,0,0,0,8.663-2.43c.6-.21,2.429-.6,2.709-1.572a3.536,3.536,0,0,0-.124-1.541,26.622,26.622,0,0,0-2.572-3.155,21.722,21.722,0,0,1-1.9-3.831,37.564,37.564,0,0,1-2.4-15.907c.053-1.031.126-2.062.242-3.086q10.5-5.17,21.331-9.581a.548.548,0,0,0,.456-.066C661.321,249.275,661.975,247.874,661.768,246.446Z" transform="translate(-2.358 -3.317)"/><path class="e" d="M758.155,220.844c2.118-2.686,4.885-5.261,4.145-9s-3.067-5.94-2.638-10.216c.226-2.258.915-4.15.076-6.409-1.46-3.922-5.619-6.205-9.479-7.084-3.09-.7-6.271-.676-9.406-1.023-.477-.053-.947-.122-1.414-.2a12.6,12.6,0,0,0,1.843-12.624c-2.968-8.046-12.2-7.547-16.55-14-1.71-2.538-2.322-5.769-4.484-8.021-1.993-2.076-4.578-2.384-7.162-3.282-3.472-1.205-5.093-2.838-6.546-6.179a20.894,20.894,0,0,0-1.811-3.674,17.346,17.346,0,0,0-7.071-5.573c-7.33-3.478-16.012-5.5-23.937-7.056a73.1,73.1,0,0,0-11.73-1.34c-3.461-.112-6.787-.276-9.384-2.9-1.31-1.321-2.254-2.987-3.769-4.111-6.18-4.589-13.946,3.45-19.745-2.078-2.064-1.966-2.974-4.394-5.9-5.287-3.277-1-6.6.682-9.565,1.859a17.646,17.646,0,0,1-4.15,1.293c-3.005.424-4.032-.538-6.327-2.271a11.407,11.407,0,0,0-2.277-1.717c-2.653-1.262-5.683-.8-8.325.2-5.246,1.975-8.978,5-14.9,5.137-3.245.074-5.968.242-8.579,2.139a.585.585,0,0,0-.233.154l-.031.032c-.042.033-.085.056-.126.089a.559.559,0,0,0-.167.211,60.355,60.355,0,0,1-18.223,13.3c-6.753,3.154-14.269,4.074-20.977,7.256-4.336,2.056-8.474,5.439-10.073,10.117a12.949,12.949,0,0,0-.508,5.808c.333,3.034,1.183,5.451.34,8.563-.412,1.519-1.349,2.9-1.423,4.513a6.2,6.2,0,0,0,1.368,4.223c1.316,1.848,2.91,2.524,3.65,5.03.528,1.787.136,3.748.261,5.573.259,3.78,2.425,5.282,4.746,6.887-2.676-.668-5.617-.882-7.811.191-1.7.831-2.637,2.272-3.677,3.784-2.679,3.9-6.235,5.118-9.951,7.648-3.278,2.231-4.8,5.256-3.917,9.195.791,3.527,3.056,6.728,1.984,10.49-.709,2.489-2.667,4.529-3,7.155-.442,3.452,1.975,6.039,4.931,7.4,2.886,1.334,6.136,1.206,9.2,1.793,3.959.759,6.586,2.9,10.092,4.6,4.151,2.006,7.265.993,11.031-1.3,3.75-2.284,7-2.777,10.807-.352,2.249,1.43,4.148,3.4,6.59,4.535,5.684,2.641,10.525-1.311,16.138-1.854,4.29-.415,10.229,4.939,13.925,1.917a12.713,12.713,0,0,0,3.5,2.24,10.23,10.23,0,0,0,5.98.772c1.6-.32,2.7-1.443,4.189-1.908a9.551,9.551,0,0,1,8.225.79c4.824,2.626,7.791.133,12.1-2.245,4.819-2.659,8.465-.1,13.2-.716a6.85,6.85,0,0,0,2.5-.785l.6-.851a8.393,8.393,0,0,1,11.161-1.623c1.13.761,2.065,1.789,3.219,2.512a11.45,11.45,0,0,0,7.4,1.205c2.533-.295,5.012-.987,7.556-1.166a19.062,19.062,0,0,1,12.623,3.709l9.03.694,2.649,8.466c3.125,1.019,6.618-.73,9.773-1.592,6.831-1.866,11.736,3.147,18.284,3.3,4.975.118,8.152-3.44,11.675-6.4,6.351-5.336,13.277-3.5,20.761-4.928,4.072-.775,8.309-3,9.592-7.231a9.173,9.173,0,0,0-.383-5.755C756.128,228.349,754.825,225.068,758.155,220.844Z" transform="translate(-0.64 0)"/><g transform="translate(567.747 243.297)"><path class="f" d="M594.416,251.562l7.4,8.3c.522.586,1.381-.276.861-.86l-7.4-8.3c-.522-.587-1.38.276-.861.86Z" transform="translate(-570.819 -247.126)"/><path class="f" d="M660.448,249.858q-11.415,4.632-22.451,10.1c-.7.348-.086,1.4.615,1.051q10.9-5.4,22.161-9.977c.716-.291.4-1.468-.324-1.172Z" transform="translate(-571.955 -247.107)"/><path class="f" d="M570.616,248.235q13.963,4.276,27.433,9.905c.722.3,1.036-.875.323-1.172q-13.474-5.632-27.433-9.906c-.751-.23-1.071.944-.323,1.173Z" transform="translate(-570.19 -247.032)"/><path class="f" d="M606.667,249.408l7.622,10.5c.456.628,1.513.021,1.051-.614l-7.622-10.5c-.456-.628-1.512-.021-1.051.614Z" transform="translate(-571.141 -247.072)"/></g><g transform="translate(517 117.403)"><g class="k" transform="matrix(1, 0, 0, 1, -40.22, -8.2)"><path class="e" d="M569.276,117.82a60.466,60.466,0,0,1-18.547,13.633c-6.753,3.154-14.269,4.074-20.978,7.256-4.336,2.056-8.474,5.439-10.072,10.117a12.946,12.946,0,0,0-.508,5.808c.333,3.034,1.183,5.451.34,8.563-.412,1.519-1.349,2.9-1.423,4.513a6.2,6.2,0,0,0,1.368,4.223c1.316,1.848,2.91,2.524,3.65,5.03.528,1.787.136,3.748.261,5.573.437,6.376,6.3,6.268,9.18,11.116,2.211,3.722,3.562,6.2,8.314,4.931,3.209-.86,4.707-2.365,8.581-1.907,1.623.193,3.163.944,4.786,1.177a8.881,8.881,0,0,0,5.818-.853c.564-.288.267-1.017-.233-1.1l9.766-76.639c.186-.194.376-.383.559-.58C570.672,118.109,569.813,117.247,569.276,117.82Z" transform="translate(-477.86 -109.43)"/></g><g class="j" transform="matrix(1, 0, 0, 1, -40.22, -8.2)"><path class="e" d="M660.038,190.423c.535-.571-.324-1.433-.861-.86-.132.141-.267.281-.4.422l-63.464-.643c-.059-.105-.12-.207-.178-.314-.377-.687-1.428-.074-1.052.614,2.467,4.506,6.159,7.754,11.563,7.376,2.952-.206,5.607-1.559,8.4-2.376,3.725-1.089,6.731-1.41,10.285.383a26.742,26.742,0,0,0,3.538,1.812,9.78,9.78,0,0,0,5.571.071c2.934-.676,4.986-1.78,8.275-1.189,1.7.306,3.224,1.167,4.949,1.4C652.174,197.858,656.533,194.169,660.038,190.423Z" transform="translate(-479.85 -111.35)"/></g><g class="i" transform="matrix(1, 0, 0, 1, -40.22, -8.2)"><path class="e" d="M636.794,243.494c-.1.128-.217.225-.324.34L580.7,237.17c-.059-.131-.119-.263-.176-.391-.32-.713-1.369-.1-1.052.614,2.214,4.939,4.773,10.432,10.074,12.691a10.229,10.229,0,0,0,5.98.771c1.6-.32,2.7-1.443,4.19-1.908a9.551,9.551,0,0,1,8.225.79c4.824,2.626,7.791.133,12.1-2.244,4.819-2.659,8.465-.1,13.2-.716a6.217,6.217,0,0,0,4.408-2.423C638.141,243.749,637.285,242.883,636.794,243.494Z" transform="translate(-479.47 -112.65)"/></g><g class="h" transform="matrix(1, 0, 0, 1, -40.22, -8.2)"><path class="e" d="M762.183,222.855c2.118-2.686,4.885-5.261,4.145-9s-3.067-5.94-2.638-10.216c.226-2.258.915-4.15.076-6.408-1.46-3.922-5.619-6.205-9.479-7.084-3.09-.7-6.271-.676-9.407-1.023-4.082-.452-7.7-1.869-11.582-3.095a18.526,18.526,0,0,0-7.617-1.068c-3.994.4-7.3,1.6-11.447.665-4.665-1.059-9.568-3.528-14.336-1.29-6.346,2.978-4.481,11.724-13.332,11.858-4.907.074-10.6-2.285-14.926,1.16a6.329,6.329,0,0,0-2.374,3.861,10.314,10.314,0,0,0,0,2.918c.026.294.081.572.111.861a7.826,7.826,0,0,1-3.426,7.474c-3.363,2.119-9.754.636-10.631,6.044-.279,1.724.6,3.21,1.513,4.583a35.157,35.157,0,0,1,2.319,3.033c1.461,2.858.2,5.275-1.5,7.578-6.932,9.377,8.48,15.3,15.778,15.09,3.011-.151,6.232-.376,9.151.528,3.8,1.177,4.568,4.554,7.188,6.895,3.61,3.224,8.063.762,11.988-.311,6.831-1.866,11.736,3.147,18.284,3.3,4.975.118,8.152-3.44,11.675-6.4,6.35-5.336,13.277-3.5,20.761-4.928,4.072-.775,8.309-3,9.592-7.231a9.173,9.173,0,0,0-.383-5.755C760.156,230.36,758.853,227.079,762.183,222.855Z" transform="translate(-481.45 -111.21)"/></g></g><g transform="translate(545.411 131.187)"><path class="g" d="M715.427,198.836c-5.93-4.278-14.923-3.282-20.412,1.444-4.141,3.565-2.431,8.553,3.151,8.782a18.632,18.632,0,0,0,5.151-.85c4.228-1.007,5.946-1.131,9.59,1.646,1.558,1.188,2.914,2.026,4.848.884C722.534,207.924,718.543,201.088,715.427,198.836Z" transform="translate(-551.059 -133.542)"/><path class="g" d="M680.712,147.773c-4.1-1.664-8.668-1.53-12.866-2.845-5.266-1.65-9.6-4.871-14.007-8.04-12.062-7.594-30.7-5.765-43.264-.538-5.4,2.245-10.746,5.805-13.277,11.273-2.232,4.822-1.16,9.763,3.8,12.07,7.013,3.261,15.864.548,23.154-.055a65.98,65.98,0,0,1,27.623,3.268c7.209,2.524,14.5,5.816,22.332,4.931,5.215-.591,11.255-3.283,13.077-8.647C689.058,153.976,685.382,149.668,680.712,147.773Z" transform="translate(-548.534 -131.799)"/><path class="g" d="M24.872.37A21.766,21.766,0,0,0,13.859,1.2C10.045,2.395,5.469,3.98,2.275,6.43.76,7.592-.742,9.531.4,11.5c1.546,2.666,7.068,1.783,9.346,1.554,2.251-.227,4.464-.7,6.71-.955,3.4-.378,5.468.856,8.528,1.879,2.108.705,4.469.835,5.923-1.134C34.277,8.281,29.426,1.59,24.872.37Z" transform="matrix(-0.259, -0.966, 0.966, -0.259, 8.298, 53.788)"/></g></g></svg>