<svg xmlns="http://www.w3.org/2000/svg" xmlns:xlink="http://www.w3.org/1999/xlink" width="189.999" height="128.432" viewBox="0 0 189.999 128.432"><defs><style>.a{fill:#7aac54;}.b{fill:#b8de83;}.c{fill:#7caf55;}.d{fill:#b96046;}.e{fill:none;}.f{fill:#4a6f2e;}.g{fill:#5a8638;}.h{fill:#e07c68;}.i{fill:#505050;}.j{filter:url(#m);}.k{filter:url(#k);}.l{filter:url(#i);}.m{filter:url(#g);}.n{filter:url(#e);}.o{filter:url(#c);}.p{filter:url(#a);}</style><filter id="a" x="82.718" y="78.106" width="34.558" height="48.183" filterUnits="userSpaceOnUse"><feOffset dy="1" input="SourceAlpha"/><feGaussianBlur stdDeviation="3" result="b"/><feFlood flood-opacity="0.161"/><feComposite operator="in" in2="b"/><feComposite in="SourceGraphic"/></filter><filter id="c" x="80" y="105.748" width="23.389" height="22.684" filterUnits="userSpaceOnUse"><feOffset dy="1" input="SourceAlpha"/><feGaussianBlur stdDeviation="3" result="d"/><feFlood flood-opacity="0.161"/><feComposite operator="in" in2="d"/><feComposite in="SourceGraphic"/></filter><filter id="e" x="15.885" y="36.128" width="128.359" height="67.694" filterUnits="userSpaceOnUse"><feOffset dy="3" input="SourceAlpha"/><feGaussianBlur stdDeviation="3" result="f"/><feFlood flood-opacity="0.161"/><feComposite operator="in" in2="f"/><feComposite in="SourceGraphic"/></filter><filter id="g" x="0" y="48.195" width="43.814" height="51.75" filterUnits="userSpaceOnUse"><feOffset dy="3" input="SourceAlpha"/><feGaussianBlur stdDeviation="3" result="h"/><feFlood flood-opacity="0.161"/><feComposite operator="in" in2="h"/><feComposite in="SourceGraphic"/></filter><filter id="i" x="32.448" y="0" width="55.226" height="42.767" filterUnits="userSpaceOnUse"><feOffset dx="3" dy="-6" input="SourceAlpha"/><feGaussianBlur stdDeviation="3" result="j"/><feFlood flood-opacity="0.161"/><feComposite operator="in" in2="j"/><feComposite in="SourceGraphic"/></filter><filter id="k" x="62.708" y="60.505" width="34.875" height="45.246" filterUnits="userSpaceOnUse"><feOffset dy="1" input="SourceAlpha"/><feGaussianBlur stdDeviation="3" result="l"/><feFlood flood-opacity="0.161"/><feComposite operator="in" in2="l"/><feComposite in="SourceGraphic"/></filter><filter id="m" x="107.856" y="45.278" width="42.152" height="51.601" filterUnits="userSpaceOnUse"><feOffset dx="3" dy="-6" input="SourceAlpha"/><feGaussianBlur stdDeviation="3" result="n"/><feFlood flood-opacity="0.161"/><feComposite operator="in" in2="n"/><feComposite in="SourceGraphic"/></filter></defs><g transform="translate(9 6.923)"><g transform="translate(50.358 69.842)"><path class="a" d="M77.985,95.2c-.011-.024,0-.049-.021-.072-.958-1.158-2.358-1.743-3.557-2.6a.318.318,0,0,0-.574-.075c-1.461,2.546-4.874,5.209-5.216,8.2-.324,2.823,2.177,5.46,4.116,7.113a.322.322,0,0,0,.447,0,2.42,2.42,0,0,0,.6-1.783,1.37,1.37,0,0,0,1.128.193,2.183,2.183,0,0,0,1.377-.761c.581-.917-.268-1.7-1.008-2.208a.324.324,0,0,0-.1-.116c-3.1-2.157,1.587-5.641,2.853-7.529A.264.264,0,0,0,77.985,95.2Z" transform="translate(-68.587 -92.303)"/><path class="b" d="M75.705,102.378c-.743-.858-2.153.293-2.7.85a.272.272,0,0,0-.04.339,2.677,2.677,0,0,0,.58,1.422,8.715,8.715,0,0,0,1.64,1.879.32.32,0,0,0,.528-.139,10.178,10.178,0,0,0,.342-2.381A3.153,3.153,0,0,0,75.705,102.378Z" transform="translate(-67.445 -89.728)"/><path class="b" d="M73.711,103.949c-.6-.711-1.318-.267-1.837.27a1.217,1.217,0,0,0-.442,1.317,1.951,1.951,0,0,0,.792.907q.806.646,1.577,1.333a.32.32,0,0,0,.54-.224C74.326,106.4,74.514,104.912,73.711,103.949Z" transform="translate(-67.852 -89.33)"/></g><g transform="translate(78.38 79.183)"><path class="c" d="M99.182,117.616a.246.246,0,0,0-.281-.075c-1.7.584-3.724.332-4.962,1.86-1.1,1.358-.834,2.589.087,3.978a.324.324,0,0,0,.5.044.293.293,0,0,0,.294-.056,32.286,32.286,0,0,0,2.6-2.783,13.757,13.757,0,0,0,1.9-2.54A.3.3,0,0,0,99.182,117.616Z" transform="translate(-90.115 -94.993)"/><g class="p" transform="matrix(1, 0, 0, 1, -87.38, -86.11)"><path class="c" d="M107.82,103.933c-2.075-2.727-6.662-5.487-9.74-3.637a.621.621,0,0,0-.815.191c-3.537,4.429-1.49,12.144,2.992,15.308,2.726,5.123-3.925,7.481-5.611,11.39-.005.013,0,.025-.008.038-.679.336-.58,1.552.316,1.494.412-.027.591.336.778.653a.744.744,0,0,0,.094.1.655.655,0,0,0,1.017.254c.259-.191.814-.193,1.136-.337a6.417,6.417,0,0,0,1.235-.772c.01-.009.014-.02.025-.029a.817.817,0,0,0,.254-.245c.239-.356.847-.251,1.211-.251a8.5,8.5,0,0,1,1.609-.063.778.778,0,0,0,.456-.051.707.707,0,0,0,.5-.226c1.247-1.29,1.592-2.88,2.211-4.513.662-1.75,1.869-3.182,2.631-4.848a.762.762,0,0,0,.094-.08C111.873,113.6,111.442,108.692,107.82,103.933Z" transform="translate(-2.48 -13.59)"/></g><path class="b" d="M102.143,121.592a.29.29,0,0,0-.193-.246c-.025-.009-.049-.01-.075-.018a1.3,1.3,0,0,0-.16-.12.284.284,0,0,0-.289.01,3.009,3.009,0,0,0-3.264,1.73.235.235,0,0,0-.158.2q-.26,1.746-.384,3.505a.317.317,0,0,0,.475.272c.859-.615,1.731-1.211,2.626-1.774a3.323,3.323,0,0,0,1.405-1.16A2.439,2.439,0,0,0,102.143,121.592Z" transform="translate(-88.955 -94.032)"/><path class="b" d="M94.637,120.967a1.344,1.344,0,0,0-.538-.735l-.009-.008h-.008a.654.654,0,0,0-.4-.056,1.792,1.792,0,0,0-1.207.771c-.589.668-1.14,1.369-1.668,2.086a.317.317,0,0,0,.188.464,10.73,10.73,0,0,0,1.941.206,7.3,7.3,0,0,0,1.9.071.315.315,0,0,0,.221-.221A5.067,5.067,0,0,0,94.637,120.967Z" transform="translate(-90.763 -94.299)"/><g class="o" transform="matrix(1, 0, 0, 1, -87.38, -86.11)"><path class="b" d="M94.8,121.631a.257.257,0,0,0-.135.1c-1.482.523-2.208,2.824-2.608,4.113a.283.283,0,0,0,.269.372c.028.008.04.032.073.032a11.159,11.159,0,0,0,4.83-1.5c.013-.006.01-.018.021-.025.037-.015.054-.058.081-.092s.047-.049.052-.081c0-.013.016-.013.018-.027C97.636,123.041,96.492,121.206,94.8,121.631Z" transform="translate(-3.04 -7.82)"/></g></g><path class="d" d="M43.837,80.919a.354.354,0,0,0-.039.011l-.008,0c-1.086-.095-1.4-.27-1.192-1.391a6.1,6.1,0,0,1,.614-1.724,12.1,12.1,0,0,1,2.425-3,.694.694,0,0,0,.1-.152,34.1,34.1,0,0,0,4.056.1,32.2,32.2,0,0,0,8.536-1.3C54.6,77.209,48.452,80.531,43.837,80.919Z" transform="translate(-25.098 -27.429)"/><path class="e" d="M43.212,77.813a6.1,6.1,0,0,0-.614,1.724c-.2,1.121.106,1.3,1.192,1.391l.008,0a.354.354,0,0,1,.039-.011c4.615-.388,10.759-3.71,14.5-7.457a32.2,32.2,0,0,1-8.536,1.3,34.1,34.1,0,0,1-4.056-.1.694.694,0,0,1-.1.152A12.1,12.1,0,0,0,43.212,77.813Z" transform="translate(-25.098 -27.429)"/><g class="n" transform="matrix(1, 0, 0, 1, -9, -6.92)"><path class="b" d="M150.966,98.852c-.591-.07-1.176-.144-1.74-.245a50.615,50.615,0,0,1-5.885-1.528,21.317,21.317,0,0,0-13.293.3c-5.268,1.7-7.84,6.2-13.135,7.372a21.343,21.343,0,0,1-13.941-2.659c-3.32-1.849-6.715-3.856-9.183-6.813-2.282-2.735-3.147-6.125-4.918-9.155-1.369-1.31-2.561-.676-3.833.3a2.417,2.417,0,0,1-1.779.633,3.361,3.361,0,0,1-2.438-2.07.828.828,0,0,1-.173-.262,9.994,9.994,0,0,1-.107-7.975c1.375-3.772,3.164-7.935-.476-10.952-5.656-3.859-12.83,5.674-17.517,8.286a20.284,20.284,0,0,1-3.887,1.634c-3.739,3.747-9.883,7.069-14.5,7.457a.357.357,0,0,0-.039.011l-.008,0c-1.086-.095-1.4-.27-1.192-1.391a6.1,6.1,0,0,1,.614-1.724,12.1,12.1,0,0,1,2.425-3,.7.7,0,0,0,.1-.152c-.641-.057-1.274-.142-1.9-.248-1.76,2.013-3.922,5.612-2.272,7.26a.739.739,0,0,0,.139.306c2.989,4.031,5.888,6.842,10.946,7.811a39.664,39.664,0,0,0,8.16.679c3.466-.069,7.11-1.515,10.227.471a.8.8,0,0,0,.155.167c9.837,7.06,17.05,18.81,29.82,20.8,12.318,1.921,24.452-3.081,35.822-7.144a48.185,48.185,0,0,0,14.5-8.129.742.742,0,0,1-.243.027C151.265,98.9,151.121,98.871,150.966,98.852Z" transform="translate(-16.42 -22.77)"/></g><path class="f" d="M58.052,49.382A29.388,29.388,0,0,1,60.8,47.6c.281-.16.565-.31.85-.46a6.162,6.162,0,0,1,1.482-2.287A7.91,7.91,0,0,1,66.4,42.7a.313.313,0,0,0,.231-.412c0-.01-.009-.016-.011-.027a.334.334,0,0,0-.336-.229,5.087,5.087,0,0,0-3.222-.049,22.414,22.414,0,0,0-2.357.655,6.28,6.28,0,0,1,2.608-1.621.363.363,0,0,0,.139-.08.319.319,0,0,0,.03-.042.33.33,0,0,0,.069-.2v-.014a.38.38,0,0,0-.08-.229l0,0a.3.3,0,0,0-.239-.111l-.008,0a11.783,11.783,0,0,0-4.288.6,13.565,13.565,0,0,0-2.76,1.533,7.522,7.522,0,0,1,1.791-1.952.346.346,0,0,0,.143-.262c.073-.211-.008-.468-.286-.437-4.553.5-7.861,4.376-10.053,8.108a.355.355,0,0,0-.046.149A10.976,10.976,0,0,1,58.052,49.382Z" transform="translate(-23.731 -36.301)"/><path class="g" d="M78.181,46.983c6.531,3.166,10.524,10.553,9.212,17.373a7.6,7.6,0,0,1,.169,2.061.279.279,0,0,0,.3.3.238.238,0,0,0,.278-.076c.829-.989.752-2.314.715-3.545a4.957,4.957,0,0,0-.624-2.373,4.96,4.96,0,0,1,1.146,2.262.261.261,0,0,0,.262.2.308.308,0,0,0,.112.008h0a.231.231,0,0,0,.253-.208,9.268,9.268,0,0,0-.547-4.9,5.917,5.917,0,0,0-2.3-2.718,6.4,6.4,0,0,1,3.885,2.43c.231.3.73.035.569-.272a.234.234,0,0,0,.006-.145c-1.388-3.533-3.258-7.111-6.849-8.285a6.409,6.409,0,0,1,4.351,1.48.26.26,0,0,0,.152.064l.024.01a.248.248,0,0,0,.086.005c.2.02.423-.116.336-.363A8.021,8.021,0,0,0,85.4,45.262a16.917,16.917,0,0,0-3.824-1.156A11.621,11.621,0,0,1,86,44.4c.014,0,.02-.006.033,0a.252.252,0,0,0,.143-.02.24.24,0,0,0,.1-.047.3.3,0,0,0,.043-.062.32.32,0,0,0,.061-.125.287.287,0,0,0-.006-.092.257.257,0,0,0-.048-.135c-.009-.014,0-.029-.014-.043-2.88-3.169-9.109-3.914-13.447-2.847a20.529,20.529,0,0,1,5.249-2.674.318.318,0,0,0,.125-.517.261.261,0,0,0-.263-.187c-7.542.169-15.939,3.8-19.9,10.523C64.11,44.724,71.247,43.623,78.181,46.983Z" transform="translate(-21.002 -36.872)"/><g class="m" transform="matrix(1, 0, 0, 1, -9, -6.92)"><path class="h" d="M51.373,74.51c-.214.159-.476.351-.829.586-3.277,2.193-6.993,4.371-9.639,7.341a22.387,22.387,0,0,0-5,8.663,34.761,34.761,0,0,1-6.107,11.636.272.272,0,0,0-.054.142c-1.2,1.412-1.7,4.9.7,5.285a3.1,3.1,0,0,0,2.872-1.5,11.85,11.85,0,0,0,2.186-4.487c2.228-6.43,4.4-12.586,8.307-18.248,3.346-3.529,7.307-6.144,10.746-9.488-.372.02-.743.051-1.113.062C52.758,74.525,52.067,74.528,51.373,74.51Z" transform="translate(-19.74 -20.25)"/></g><path class="c" d="M207.626,37.485a.65.65,0,0,0-.906-.389.667.667,0,0,0-.064.024,79.752,79.752,0,0,0-15.04,7.619C184,49.58,177.938,55.073,170.649,60.331a108.172,108.172,0,0,1-10.212,6.332c-1.961,1.106-3.866,2.307-5.855,3.366a26.235,26.235,0,0,1-7.121,2.817,7.624,7.624,0,0,1-3.82-.015,4.69,4.69,0,0,1-1.591-1.087q-.864-.756-1.764-1.472a35.024,35.024,0,0,0-7.405-4.567,33.912,33.912,0,0,0-8.611-2.508l-.382-.059a54.135,54.135,0,0,0-18.144.431,61.508,61.508,0,0,0-6.174,1.475c-1,.3-1.987.639-2.954,1.029-.93.374-1.773.887-2.685,1.3-.7.317-.971.37-1.415-.269a.842.842,0,0,0-.1-.094,13.508,13.508,0,0,0,.719-2.489c1.312-6.82-2.682-14.208-9.212-17.373-6.612-3.2-13.406-2.347-19.257.73-.286.15-.57.3-.85.46a29.389,29.389,0,0,0-2.75,1.779A10.976,10.976,0,0,0,50.74,48.81a9.314,9.314,0,0,0-5.2,4.352,16.321,16.321,0,0,0-1.324,5.4,14.528,14.528,0,0,1-4.174,9.066c-2.2,2.337-3.7,4.134-3.753,7.441.246,5.754,4.38,8.128,9.2,8.944.624.106,1.257.191,1.9.248.661.059,1.328.095,1.992.111.694.018,1.385.015,2.065-.006.37-.011.742-.042,1.113-.062a30.855,30.855,0,0,0,7.423-1.238,20.284,20.284,0,0,0,3.887-1.634c4.687-2.612,11.861-12.145,17.517-8.286,3.641,3.018,1.851,7.18.476,10.952a9.994,9.994,0,0,0,.107,7.975.828.828,0,0,0,.173.262,3.361,3.361,0,0,0,2.438,2.07,2.417,2.417,0,0,0,1.779-.633c1.271-.978,2.464-1.612,3.833-.3,1.772,3.03,2.636,6.421,4.918,9.155,2.468,2.957,5.864,4.964,9.183,6.813a21.343,21.343,0,0,0,13.941,2.659c5.295-1.175,7.866-5.668,13.135-7.372a21.317,21.317,0,0,1,13.293-.3,50.612,50.612,0,0,0,5.885,1.528c.564.1,1.149.176,1.74.245.155.019.3.049.459.066a.742.742,0,0,0,.243-.027c.157-.134.312-.272.466-.409a29.37,29.37,0,0,0,4.981-5.632c2.838-4.249,4.424-9.215,6.957-13.64,1.6-2.8,3.37-5.5,5.176-8.174,1.759-2.6,3.392-5.29,5.324-7.772,1.5-1.931,3.135-4.169,6.272-7.671,4.113-4.594,6.336-7.293,10.645-11.676,4.12-4.19,8.994-7.523,13.3-11.507.478-.442.948-.891,1.408-1.351A.713.713,0,0,0,207.626,37.485Z" transform="translate(-26.747 -37.035)"/><g class="l" transform="matrix(1, 0, 0, 1, -9, -6.92)"><path class="c" d="M79.771,45.461c-10.073-4.882-20.589-.375-27.514,7.117-.689.746.425,1.865,1.117,1.117.072-.078.145-.149.219-.226l31.959,13.66c-.416.809.856,1.515,1.4.706C92.209,60.037,87.958,49.427,79.771,45.461Z" transform="translate(-13.59 -28.43)"/></g><g transform="translate(72.512 30.654)"><path class="b" d="M92.65,64.652a2.487,2.487,0,0,0-1.345-1.941,2.856,2.856,0,0,0-1.783-.033c-.6.134-1.206.174-1.8.315-.9.214-1.711.734-1.594,1.77.172,1.523,2.5,3.118,3.912,3.31C91.966,68.335,92.939,66.305,92.65,64.652Z" transform="translate(-86.119 -60.96)"/><path class="b" d="M125.107,68.8a2.52,2.52,0,0,0-.765-.083c-.254,0-.507,0-.759.015a2.149,2.149,0,0,0-1.348.461,1.182,1.182,0,0,0-.245.33c-.522,1.044.454,2,1.319,2.367.433.182,1.046.532,1.529.387.449-.136.756-.694.921-1.088a2.531,2.531,0,0,0,.187-1.348,1.359,1.359,0,0,0-.479-.847A1.113,1.113,0,0,0,125.107,68.8Z" transform="translate(-76.699 -59.335)"/><path class="b" d="M121.484,73.2a.528.528,0,0,0-.185-.038c-.337-.009-.719.118-1.067.131-.389.015-.778.011-1.166.052a.915.915,0,0,0-.861.531,2.014,2.014,0,0,0,1.106,2.3,2.04,2.04,0,0,0,2.482-.583,1.682,1.682,0,0,0,.364-1.375A1.481,1.481,0,0,0,121.484,73.2Z" transform="translate(-77.682 -58.162)"/><path class="b" d="M115.273,67.7l-.12.037a7.493,7.493,0,0,0-2.047.887A2.669,2.669,0,0,0,112,71.356,4.708,4.708,0,0,0,116.75,74.8c1.112-.157,1.6-1.444,2-2.342.461-1.044.945-2.549.433-3.667a2.34,2.34,0,0,0-1.73-1.317A4.611,4.611,0,0,0,115.273,67.7Z" transform="translate(-79.307 -59.676)"/><path class="b" d="M103.2,70.359c-.013,0-.019.008-.03.006a2.579,2.579,0,0,0-1,.027,6.051,6.051,0,0,0-3.128,1.6c-1.765,2.541,4.026,2.793,5.147,2.962,2.281.342,6.1,1.572,6.138-1.9C110.361,69.473,105.409,70.745,103.2,70.359Z" transform="translate(-82.799 -58.91)"/><path class="b" d="M107.777,64.739c-.14.062-.283.118-.43.167-.452.153-1.141.431-1.136,1.006a1.075,1.075,0,0,0,.227.583c1.223,1.748,3.125,1.424,4.774.67.546-.25,1.523-.6,1.719-1.243.179-.589-.413-1.451-.778-1.851-.974-1.064-2.134-.58-3.2.044A11.063,11.063,0,0,1,107.777,64.739Z" transform="translate(-80.821 -60.725)"/><path class="b" d="M101.789,69.53c1.313-.652,3.166-1.735,3.72-3.212.388-1.032-.224-1.591-.926-2.321-.928-.963-2.249-2.325-3.618-2.623a6,6,0,0,0-3.829.84c-.876.42-2.328.9-2.2,2.131a1.845,1.845,0,0,0,.219.667c.335.633,1.267,1.073,1.746,1.568.744.77,1.289,1.638,2.112,2.338C100.1,69.842,100.523,70.158,101.789,69.53Z" transform="translate(-83.796 -61.292)"/><path class="b" d="M125.968,72.911a1.8,1.8,0,0,0-.618.445.672.672,0,0,0-.112.715,1.261,1.261,0,0,0,1.447.533,1.123,1.123,0,0,0,.463-1.572.641.641,0,0,0-.531-.316.874.874,0,0,0-.317.056A3.576,3.576,0,0,0,125.968,72.911Z" transform="translate(-75.819 -58.28)"/><path class="b" d="M128.877,66.741a.6.6,0,0,0-.564.09c-.34.292-.8.708-.65,1.213.1.332.531.786.9.722.435-.075.59-.739.682-1.089a.875.875,0,0,0-.033-.691A.6.6,0,0,0,128.877,66.741Z" transform="translate(-75.172 -59.864)"/><path class="b" d="M130.1,69.556a.463.463,0,0,0-.45-.024c-.224.139-.569.288-.567.6a.969.969,0,0,0,.567.7.337.337,0,0,0,.383-.049,1.058,1.058,0,0,0,.3-.924A.418.418,0,0,0,130.1,69.556Z" transform="translate(-74.791 -59.132)"/><path class="b" d="M132.014,64.489a.4.4,0,0,0-.086-.025.434.434,0,0,0-.389.119c-.186.215-.479.5-.335.809a.719.719,0,0,0,.691.317.551.551,0,0,0,.465-.584A.706.706,0,0,0,132.014,64.489Z" transform="translate(-74.241 -60.458)"/></g><g transform="translate(61.175 61.582)"><path class="c" d="M79.739,101.43a3.5,3.5,0,0,0-2.455,2.189,6.876,6.876,0,0,0,.583,4.147c.253.657,1.352.838,1.523,0a19.139,19.139,0,0,1,.964-4.175.78.78,0,0,0-.034-.741C81.02,102.37,80.621,101.082,79.739,101.43Z" transform="translate(-77.148 -81.652)"/><g class="k" transform="matrix(1, 0, 0, 1, -70.18, -68.51)"><path class="c" d="M94.2,87.736c-2.216-3.31-7.211-2.228-8.446,1.6-.452,1.4.063,3.029-.15,4.457-.571,3.826-2.519,5.205-4.726,7.861-2.577,3.1-1.463,6.687-2.488,10.355a.718.718,0,0,0,.045.518.465.465,0,0,0,.018.044.814.814,0,0,0,.046.08.659.659,0,0,0,.655.358c2.06-.114,3-1.472,3.619-3.164.133.952.311,1.683,1.47,1.586,2.536-.212,2.5-3.182,2.642-5.1,1.772-4.4,6.641-6.323,7.748-11.239C95.168,92.71,95.843,89.642,94.2,87.736Z" transform="translate(-6.65 -17.26)"/></g><g transform="translate(1.362 24.863)"><path class="b" d="M84.8,105.988c-.253-.853-2.16-.562-2.649-.1a.258.258,0,0,0-.051.325c0,.008-.005.011,0,.018q.349,1.53.7,3.059c.056.246.469.33.577.076.279-.657.68-1.245,1-1.882C84.563,107.095,84.932,106.43,84.8,105.988Z" transform="translate(-77.213 -105.442)"/><path class="b" d="M81.566,106.763a2.053,2.053,0,0,0-3.2.082l-.006.015a.3.3,0,0,0-.115.209c-.118,1.328.471,2.683.655,3.983a.3.3,0,0,0,.407.2.327.327,0,0,0,.42-.1c.844-1.188,1.989-2.616,2-4.137A.26.26,0,0,0,81.566,106.763Z" transform="translate(-78.226 -105.286)"/></g></g><g transform="translate(104.856 53.354)"><path class="c" d="M131.331,109.831a26.112,26.112,0,0,0,4.475-16.5c-.356-5.5-1.551-12.243-7.673-13.664-15.126-3.512-18.655,16.271-15.191,26.64a.839.839,0,0,0,.013.123c1.039,3.288,2.1,6.5,4.236,9.253,1.3,1.678,3.418,2.836,4.607,4.5,4.312,6.043.651,9.442-3.088,12.711a.71.71,0,0,0-.217.344.686.686,0,0,0-.27.816c.3.953.628,1.892.988,2.824a.811.811,0,0,0,.971.551,18.631,18.631,0,0,1,5.875-.414.642.642,0,0,0,.722-.512.859.859,0,0,0,.235-.212c1.609-2.171,1.993-4,2.67-6.546.847-3.179,2.635-5.989,3.543-9.13C134.283,116.954,134.329,112.514,131.331,109.831Z" transform="translate(-111.712 -79.256)"/><g class="j" transform="matrix(1, 0, 0, 1, -113.86, -60.28)"><path class="c" d="M135.806,93.332c-.356-5.5-1.551-12.243-7.673-13.664-15.327-3.559-18.752,16.807-15.054,27.053a.828.828,0,0,0,1.518.072l13.382,4.976c-.231.722.7,1.506,1.279.828A26.413,26.413,0,0,0,135.806,93.332Z" transform="translate(2.14 -18.98)"/></g><path class="b" d="M124.911,124.134a.317.317,0,0,0-.142-.107c-.741-.626-2,.306-2.412.988a.25.25,0,0,0-.021.154c-.188.973-.406,1.937-.66,2.9a.318.318,0,0,0,.528.307c.911-.833,1.9-1.572,2.818-2.391C125.663,125.409,125.358,124.748,124.911,124.134Z" transform="translate(-109.09 -67.505)"/><path class="b" d="M121.825,122.811a5.871,5.871,0,0,0-2.054.6,2.6,2.6,0,0,0-.692-1.448c-.016-.03-.009-.064-.039-.092-1.017-.955-2.023-.281-2.908.488a8.51,8.51,0,0,0-2.678,4.308.3.3,0,0,0,.04.239,1.121,1.121,0,0,0,.19.145.317.317,0,0,0,.234-.014h0a17.162,17.162,0,0,1,3.459-.969l.052-.013a11.935,11.935,0,0,0-.674,1.878.248.248,0,0,0-.013.04c0,.018-.013.039-.016.057s.01.035.009.057a.306.306,0,0,0,.02.121.265.265,0,0,0,.082.119.248.248,0,0,0,.053.037.3.3,0,0,0,.312.008c1.439-.377,3.235-.349,4.5-1.187a3.764,3.764,0,0,0,1.169-2.912C122.88,123.58,122.589,122.855,121.825,122.811Z" transform="translate(-111.257 -68.143)"/></g><path class="i" d="M58.909,63.738a1.945,1.945,0,1,1,3.844-.526c.118,1,1.7,1.01,1.58,0a3.667,3.667,0,0,0-4.02-3.436,3.523,3.523,0,0,0-2.928,4.382c.185,1,1.706.575,1.524-.421Z" transform="translate(-21.202 -31.045)"/></g></svg>