<svg xmlns="http://www.w3.org/2000/svg" width="16" height="20.023" viewBox="0 0 16 20.023"><defs><style>.a{fill:#416545;}</style></defs><g transform="translate(-1100.926 -843.011)"><path class="a" d="M1123.607,882.371c0-.017,0-.033,0-.049s0-.016,0-.024-.005-.028-.009-.042,0-.016-.007-.024-.008-.025-.013-.036l-.011-.023c-.005-.011-.011-.022-.018-.032l-.014-.021a.338.338,0,0,0-.023-.027l-.018-.018a.3.3,0,0,0-.029-.023l-.021-.015a.4.4,0,0,0-.036-.019l-.024-.011a.464.464,0,0,0-.046-.015l-.023-.007a.634.634,0,0,0-.08-.014h-13.123a.644.644,0,0,0-.08.014l-.023.007a.464.464,0,0,0-.046.015l-.024.011a.383.383,0,0,0-.036.019l-.021.015a.311.311,0,0,0-.029.023l-.018.018a.338.338,0,0,0-.023.027l-.014.021c-.006.01-.012.021-.018.032l-.011.023c0,.012-.009.024-.013.036s-.005.016-.007.024-.006.028-.009.042,0,.016,0,.024,0,.032,0,.049,0,.014,0,.022,0,.042,0,.063c0,0,0,.008,0,.012a1.292,1.292,0,0,0,.021.165l0,.017c0,.023.009.045.015.069l.007.026c.005.021.011.042.017.063l.009.029.019.061.01.031.021.061.012.032.024.061.013.032.026.062.013.031.028.064.013.029.031.066.012.026.037.076.007.014.045.089.011.021.034.064.019.036.025.046.022.04.021.038.024.042.018.031.026.044.014.024.028.047.009.016.03.049,0,.007.031.05.043.068,0,0,.035.055a4.911,4.911,0,0,0,1.568,1.55,7.372,7.372,0,0,0,.837.429,1.711,1.711,0,0,1,1.705-1.611h4.1a1.711,1.711,0,0,1,1.706,1.611,7.381,7.381,0,0,0,.837-.429,4.913,4.913,0,0,0,1.568-1.55l.035-.055,0,0,.043-.068.031-.05,0-.007.029-.049.009-.016.028-.047.014-.024.026-.044.018-.031.024-.042.021-.038.022-.04.025-.046.019-.036.034-.064.011-.021.045-.089.007-.014.037-.076.012-.026.031-.066.013-.029.028-.064.013-.031.026-.062.013-.032.024-.061.012-.032.021-.061.01-.031c.007-.021.013-.041.019-.061l.009-.029c.006-.021.012-.042.017-.063l.007-.026c.006-.023.01-.046.015-.069l0-.017a1.229,1.229,0,0,0,.021-.165s0-.008,0-.012c0-.021,0-.043,0-.063S1123.608,882.379,1123.607,882.371Z" transform="translate(-7.741 -34.274)"/><g transform="translate(1104.186 843.011)"><path class="a" d="M1137.516,846.722a3.759,3.759,0,0,0-1.287-2.713,6.466,6.466,0,0,0-6.9,0,3.758,3.758,0,0,0-1.287,2.713v.012h1.29a2.433,2.433,0,0,1,.788-1.718,4.042,4.042,0,0,1,2.645-.722h.033a4.042,4.042,0,0,1,2.645.722,2.434,2.434,0,0,1,.788,1.718h1.29Z" transform="translate(-1128.037 -843.011)"/></g><g transform="translate(1100.926 850.932)"><path class="a" d="M1149.741,912.578a.749.749,0,0,0-.715-.526h-4.1a.748.748,0,0,0-.749.748v1.528a.747.747,0,0,0,.171.476q.023.028.048.053a.745.745,0,0,0,.529.219h4.1a.748.748,0,0,0,.749-.749V912.8A.75.75,0,0,0,1149.741,912.578Z" transform="translate(-1138.975 -911.671)"/><path class="a" d="M1115.591,908.886a5.746,5.746,0,0,1-1.578,1.427,8.488,8.488,0,0,1-1.326.641v.591a1.712,1.712,0,0,1-1.71,1.711h-4.1a1.713,1.713,0,0,1-1.71-1.711v-.591a8.5,8.5,0,0,1-1.326-.641,5.745,5.745,0,0,1-1.578-1.427,16.17,16.17,0,0,0-1.335,5.238,6.958,6.958,0,0,0,1.186,4.081,5.353,5.353,0,0,0,3.393,2.448,17.609,17.609,0,0,0,6.841,0,5.352,5.352,0,0,0,3.393-2.448,6.959,6.959,0,0,0,1.187-4.081A16.174,16.174,0,0,0,1115.591,908.886Z" transform="translate(-1100.926 -908.886)"/></g></g></svg>