<svg xmlns="http://www.w3.org/2000/svg" width="29" height="29" viewBox="0 0 29 29"><defs><style>.a{fill:#c79c5f;}.b{fill:#fff;font-size:15px;font-family:GenJyuuGothicX-Bold, Gen Jyuu GothicX;font-weight:700;letter-spacing:0.05em;}.c,.d{stroke:none;}.d{fill:#cbe4c6;}</style></defs><g transform="translate(-306 -143)"><g class="a" transform="translate(309 146)"><path class="c" d="M 11.5 24.5 C 8.027580261230469 24.5 4.76298999786377 23.14776039123535 2.307610034942627 20.69239044189453 C -0.1477600038051605 18.23700904846191 -1.5 14.97241973876953 -1.5 11.5 C -1.5 8.027580261230469 -0.1477600038051605 4.76298999786377 2.307610034942627 2.307610034942627 C 4.76298999786377 -0.1477600038051605 8.027580261230469 -1.5 11.5 -1.5 C 14.97241973876953 -1.5 18.23700904846191 -0.1477600038051605 20.69239044189453 2.307610034942627 C 23.14776039123535 4.76298999786377 24.5 8.027580261230469 24.5 11.5 C 24.5 14.97241973876953 23.14776039123535 18.23700904846191 20.69239044189453 20.69239044189453 C 18.23700904846191 23.14776039123535 14.97241973876953 24.5 11.5 24.5 Z"/><path class="d" d="M 11.5 0 C 5.14872932434082 0 0 5.14872932434082 0 11.5 C 0 17.85127067565918 5.14872932434082 23 11.5 23 C 17.85127067565918 23 23 17.85127067565918 23 11.5 C 23 5.14872932434082 17.85127067565918 0 11.5 0 M 11.5 -3 C 15.37308979034424 -3 19.01436042785645 -1.491739273071289 21.75304985046387 1.246950149536133 C 24.49173927307129 3.985639572143555 26 7.626910209655762 26 11.5 C 26 15.37308979034424 24.49173927307129 19.01436042785645 21.75304985046387 21.75304985046387 C 19.01436042785645 24.49173927307129 15.37308979034424 26 11.5 26 C 7.626910209655762 26 3.985639572143555 24.49173927307129 1.246950149536133 21.75304985046387 C -1.491739273071289 19.01436042785645 -3 15.37308979034424 -3 11.5 C -3 7.626910209655762 -1.491739273071289 3.985639572143555 1.246950149536133 1.246950149536133 C 3.985639572143555 -1.491739273071289 7.626910209655762 -3 11.5 -3 Z"/></g><g transform="translate(35 -168)"><text class="b" transform="translate(278 331)"><tspan x="0" y="0">✕</tspan></text></g></g></svg>