<svg xmlns="http://www.w3.org/2000/svg" width="375.001" height="812" viewBox="0 0 375.001 812"><defs><style>.a{fill:#f2fcfc;}.b{fill:#fff;}.c{fill:#b1d1aa;}.d{fill:#a4c39d;}.e{fill:#bad8b4;}.f{fill:#cbe4c6;}</style></defs><rect class="a" width="375.001" height="281.383" transform="translate(0)"/><path class="b" d="M270.962,217.04c-8.235,3.805-16.7,7.671-25.75,8.306S226.261,222.7,221.5,214.977c-3.1-5.019-3.864-11.515-8.147-15.568-5.759-5.45-14.982-4.028-22.614-1.875s-16.333,4.551-23.042.325c-11.45-7.212-8.065-27.895-20.163-33.956-6.861-3.438-15.041-.091-21.889,3.371s-14.759,7.138-21.87,4.255c-5.359-2.171-8.72-7.639-10.321-13.2s-1.8-11.412-2.93-17.084C86.416,120.572,68.9,103.222,48.187,99.31,38.094,97.4,27.3,98.554,18.239,103.4S2.067,116.951,0,127.013V247.642H270.962Z"/><path class="c" d="M375,217.448V301.5H0v-98.45c20.719-5.11,45.581-9.273,71.592-9.273,67.328,0,76,28.854,115.908,31.74,29.134,2.106,123.635-21.419,187.5-8.075"/><path class="d" d="M0,214.261s154.791,15.827,187.5,17.2S375,237.6,375,237.6v53.049H0Z"/><path class="e" d="M187.679,237.6c-76.322,0-144.227,3.9-187.679,9.95V812H375V247.494C331.533,241.47,263.79,237.6,187.679,237.6Z"/><path class="f" d="M168.937,265.127C102.648,283.38,43.452,284.591,0,290.644V812H375V247.494C331.533,241.47,242.317,244.921,168.937,265.127Z"/><path class="b" d="M375,65.5V60.24a37.691,37.691,0,0,0-13.577-.734c-14.429,1.875-26.586,11.888-31.906,25.283-3.277,8.251-5.27,17.3-15.411,18.969-7.307,1.2-14.906-.655-22.1,1.575-16.085,4.988-11.1,27.122-26.129,32.55-8.286,2.992-18.042,1.683-25.337,7.35-7.67,5.958-7.3,18.665-.946,25.492a41.689,41.689,0,0,0,7.535,6.06,34.159,34.159,0,0,0,15.452,5.576,32.346,32.346,0,0,0,3.875.152c7.15-.149,13.883-2.833,20.578-5.049,8.343-2.761,15.735-3.589,24.288-1.139,7.277,2.084,14.167,4.536,21.768,5.245,8.388.782,16.829-.049,25.131-1.283,5.443-.809,11.135-1.589,16.776-2.7V65.5Z"/></svg>