<svg xmlns="http://www.w3.org/2000/svg" xmlns:xlink="http://www.w3.org/1999/xlink" width="254.376" height="256.568" viewBox="0 0 254.376 256.568"><defs><style>.a{fill:#bad8b4;}.b{fill:#ffe87e;}.c{fill:#ffecaa;}.d{fill:#3b3b3b;}.e{fill:#b9d7b4;}.f{fill:#789c8a;}.g{filter:url(#m);}.h{filter:url(#k);}.i{filter:url(#i);}.j{filter:url(#g);}.k{filter:url(#e);}.l{filter:url(#c);}.m{filter:url(#a);}</style><filter id="a" x="30.02" y="148.134" width="34.981" height="42.411" filterUnits="userSpaceOnUse"><feOffset dy="3" input="SourceAlpha"/><feGaussianBlur stdDeviation="3" result="b"/><feFlood flood-opacity="0.161"/><feComposite operator="in" in2="b"/><feComposite in="SourceGraphic"/></filter><filter id="c" x="3.001" y="49.861" width="251.376" height="174.255" filterUnits="userSpaceOnUse"><feOffset dy="3" input="SourceAlpha"/><feGaussianBlur stdDeviation="3" result="d"/><feFlood flood-opacity="0.161"/><feComposite operator="in" in2="d"/><feComposite in="SourceGraphic"/></filter><filter id="e" x="36.371" y="152.203" width="100.118" height="75.681" filterUnits="userSpaceOnUse"><feOffset dy="5" input="SourceAlpha"/><feGaussianBlur stdDeviation="3" result="f"/><feFlood flood-opacity="0.161"/><feComposite operator="in" in2="f"/><feComposite in="SourceGraphic"/></filter><filter id="g" x="47.742" y="40.861" width="90.637" height="84.637" filterUnits="userSpaceOnUse"><feOffset dx="3" dy="-6" input="SourceAlpha"/><feGaussianBlur stdDeviation="3" result="h"/><feFlood flood-opacity="0.161"/><feComposite operator="in" in2="h"/><feComposite in="SourceGraphic"/></filter><filter id="i" x="0" y="77.88" width="63.906" height="71.503" filterUnits="userSpaceOnUse"><feOffset dx="-3" dy="6" input="SourceAlpha"/><feGaussianBlur stdDeviation="3" result="j"/><feFlood flood-opacity="0.161"/><feComposite operator="in" in2="j"/><feComposite in="SourceGraphic"/></filter><filter id="k" x="93.005" y="157.437" width="59.386" height="92.492" filterUnits="userSpaceOnUse"><feOffset dy="3" input="SourceAlpha"/><feGaussianBlur stdDeviation="3" result="l"/><feFlood flood-opacity="0.161"/><feComposite operator="in" in2="l"/><feComposite in="SourceGraphic"/></filter><filter id="m" x="66.6" y="147.042" width="34.981" height="42.411" filterUnits="userSpaceOnUse"><feOffset dy="3" input="SourceAlpha"/><feGaussianBlur stdDeviation="3" result="n"/><feFlood flood-opacity="0.161"/><feComposite operator="in" in2="n"/><feComposite in="SourceGraphic"/></filter></defs><g transform="translate(-20 -425.832)"><ellipse class="a" cx="74.508" cy="23.105" rx="74.508" ry="23.105" transform="translate(49.992 636.19)"/><g class="m" transform="matrix(1, 0, 0, 1, 20, 425.83)"><path class="b" d="M155.661,319.427a6.39,6.39,0,0,0-4.072-.6,5.382,5.382,0,0,0-4.061,3.871,33.5,33.5,0,0,1-2.5,6.282,14.578,14.578,0,0,0-2.161,4.773,5.82,5.82,0,0,0,.554,3.508c-.632.35-1.385.844-1.471,1.469-.07.506.307,1.086.895.895.378-.123.749-.263,1.124-.4a16.723,16.723,0,0,0-.122,1.838.736.736,0,0,0,1.241.514c.222-.2.46-.385.689-.579a16.5,16.5,0,0,0,.648,1.788c.29.611,1.14.364,1.329-.173q.248-.705.494-1.41c3.29.443,6.307-2.891,7.939-5.928,1.8-3.349,3.386-7.439,2.468-11.288a8.207,8.207,0,0,0-1.914-3.719A4.519,4.519,0,0,0,155.661,319.427Z" transform="translate(-102.92 -164.6)"/></g><path class="b" d="M137.974,378.855c-1.16-9.51-5.111-22.486-16.018-24.721-3.92-.8-8.153-.356-11.015,2.69-7.043,7.494-3.31,18.279.177,26.344,1.97,4.555,5.023,8.591,7.161,13.071a21.8,21.8,0,0,1,2.535,8.639,7.565,7.565,0,0,1-1.036,4.276c-.64,1-1.832,1.719-2.022,2.985-.647,4.312,8.385,3.486,10.611,2.794a8.015,8.015,0,0,0,1.235-.482C141.671,408.362,139.308,389.792,137.974,378.855Z" transform="translate(-32.743 244.796)"/><g transform="translate(32.001 481.693)"><g class="l" transform="matrix(1, 0, 0, 1, -12, -55.86)"><path class="b" d="M474.762,933.7c-.019.006-.033,0-.05.008-11.065,4.518-23.331,6.344-34.959,2.779-10.182-3.123-19.358-9.142-29.473-12.629-22.522-7.768-42.564-15.157-58.022-34.161,4.2-10.221,6.634-20.882,3.8-31.789-2.722-10.47-8.252-20.621-17.118-27.1-11.462-8.37-26.745-8.1-39.236-2.113-16.578-11.487-36.024,1.433-37.448,19.995-14.144,8.976-25.26,26.544-15.774,42.791a19.954,19.954,0,0,0,10.365,8.68c2.375,8.048,10.041,11.753,17.822,12.977a.985.985,0,0,0,.3-.012,129.2,129.2,0,0,0,1.357,16.85,38.074,38.074,0,0,1,24.9-4.908c12.119,1.71,23.062,8.433,32.022,16.771a96.181,96.181,0,0,1,25.2,38.762c22.118-3.4,43.415-10.778,65.18-15.832,10.445-2.427,22.1-3.056,31.737-8.075,9.143-4.761,15.362-13.247,20.812-21.719C476.768,934.043,475.531,933.175,474.762,933.7Z" transform="translate(-230.95 -768.49)"/></g><g class="k" transform="matrix(1, 0, 0, 1, -12, -55.86)"><path class="c" d="M321.2,905.634c-8.96-8.338-19.9-15.061-32.022-16.771a38.073,38.073,0,0,0-24.9,4.908c1.954,12.9,6.324,25.44,15.239,35.092,15.644,16.941,38.836,18.925,60.573,16.4,2.111-.246,4.21-.544,6.305-.867A96.181,96.181,0,0,0,321.2,905.634Z" transform="translate(-218.91 -732.28)"/></g></g><g class="j" transform="matrix(1, 0, 0, 1, 20, 425.83)"><path class="b" d="M342.488,496.35c-2.724-10.47-8.251-20.621-17.118-27.095-16.736-12.221-41.614-6.034-54.062,9.5-.779.973.6,2.366,1.383,1.383.03-.036.061-.07.091-.106l63.895,47.885c-.047.114-.086.232-.133.346-.487,1.159,1.4,1.666,1.885.521C342.794,518.363,345.384,507.485,342.488,496.35Z" transform="translate(-217.34 -406.93)"/></g><path class="d" d="M9.334,7.894A12.609,12.609,0,0,0,7.848,2.15,4.168,4.168,0,0,0,3.781.011a2.939,2.939,0,0,0-2.6,1.443,3.661,3.661,0,0,0-.361.56A9.71,9.71,0,0,0,.237,8.162C.588,9.854,1.3,11.913,2.7,12.571a5.1,5.1,0,0,0,4.617-.3C8.9,11.218,9.5,10.142,9.334,7.894Z" transform="matrix(0.985, 0.174, -0.174, 0.985, 80.811, 517.823)"/><g class="i" transform="matrix(1, 0, 0, 1, 20, 425.83)"><path class="b" d="M186.535,566.635l-24.346-45.987.035-.021c1.044-.651.083-2.309-.967-1.653-13.991,8.735-25.1,26.076-15.741,42.1,4.1,7.025,11,9.57,18.826,10.606,7.475.99,17.142,1.5,23.3-3.558C188.513,567.4,187.447,566.233,186.535,566.635Z" transform="translate(-130.06 -437.94)"/></g><g class="h" transform="matrix(1, 0, 0, 1, 20, 425.83)"><path class="b" d="M261.237,388.921c-1.007-7.826-3.1-16.621-9.885-21.493a13.252,13.252,0,0,0-6.16-2.488,23.54,23.54,0,0,0-4.981-.17,21.983,21.983,0,0,0-9.218,2.758,20.876,20.876,0,0,0-9.35,11.315c-2.243,6.428-.967,13.207,1.435,19.391,2.231,5.744,6.074,10.753,8.5,16.423a22.2,22.2,0,0,1,1.976,7.293,11.539,11.539,0,0,1-.357,3.757,6.732,6.732,0,0,1-1.577,3.236,10.41,10.41,0,0,1-1.581.653,4.925,4.925,0,0,0-1.4,1.139,4.287,4.287,0,0,0-.97,3.5c.514,2.97,3.9,4.22,6.472,4.673,8.3,1.461,19.2-2.687,22.214-11.023a.956.956,0,0,0,.166-.268A81.052,81.052,0,0,0,261.237,388.921Z" transform="translate(-118.47 -201.27)"/></g><g transform="translate(-65.875 372.836)"><path class="e" d="M244.746,106.162c-2.379-19.884-14.8-36.611-32.763-45.464a77.644,77.644,0,0,0-30.016-7.569,108.459,108.459,0,0,0-18.288.694,9.1,9.1,0,0,0-2.839.6,1.749,1.749,0,0,0-.887.786,1.521,1.521,0,0,0-.008,1.2,1.751,1.751,0,0,0,.843.855c.652.361,1.241.778,1.857,1.2q1.125.767,2.253,1.529,2.256,1.526,4.522,3.034,1.285.856,2.573,1.707c1.567,1.034,3.472,1.968,3.38,4.155-.049,1.146-.987,1.744-1.949,2.108-1.307.494-2.6,1.034-3.876,1.592-2.348,1.024-4.668,2.112-7.03,3.1l-3.662,1.539-3.662,1.538L151.533,80.3l-3.662,1.538-1.391.585c-.35.147-.7.3-1.052.433s-.722.236-1.081.362a2.038,2.038,0,0,0-1.105.764,3.265,3.265,0,0,0-.36,1.841,9.791,9.791,0,0,0,.392,2.192c.187.67.417,1.327.669,1.976.046.119.093.237.14.356a35.943,35.943,0,0,0,8.078,12.174c8.075,7.991,19.844,11.129,30.725,13.158a167.453,167.453,0,0,0-18.866,54.026c-3.447,19.938-5.055,41.1-3.435,61.293a118.217,118.217,0,0,0,1.6,12.176c.657,3.536.457,5.406,3.96,6.737,1.875.712,4.116.857,5.525-.817,1.624-1.93.675-3.994.178-6.176a199.863,199.863,0,0,1-4.352-58.355c1.574-23.979,7.138-47.327,19.272-68.229a108.649,108.649,0,0,0,32.875.01c8.024-1.242,17.788-3,24.442-8.332.271-.217.531-.446.792-.675C244.836,106.948,244.793,106.554,244.746,106.162Z"/><path class="f" d="M230.032,78.143l-.067.015a.411.411,0,0,0-.062,0c-1.187.256-2.47.541-3.75.91-3.809.929-8.041,1.858-11.483,1.213-4.043-.759-8.542-5.408-9.39-9.363a.535.535,0,0,0-.073-.169,45.959,45.959,0,0,0-1.532-6.307c-.192-.59-1.086-.226-.895.365a53.2,53.2,0,0,1,1.561,5.977.414.414,0,0,0-.021.248c.061.283.138.563.226.841.284,1.591.5,3.19.621,4.777.406,5.115-3.962,4.793-7.942,3.509a27.128,27.128,0,0,0-3.971-1.583c-.5-.231-.937-.444-1.285-.616a.439.439,0,0,0-.637.336.529.529,0,0,0,.293.8q.585.158,1.162.335a37.953,37.953,0,0,0,4.566,1.857c1.478.789,3.063,2.026,1.277,3.476-1.007.817-2.822,1.257-4.021,1.766q-2.205.936-4.433,1.814a.418.418,0,0,0-.08.053l-.039.013c-.587.2-.223,1.1.364.895,2.536-.878,9.683-2.993,10.362,1.228a15.57,15.57,0,0,1-.4,4.178c-.211,1.567-.474,3.124-.767,4.678a.412.412,0,0,0,.148.417.462.462,0,0,0,.848-.022c1.423-4.053,3.7-8.24,8.1-9.493,4.879-1.391,8.588,1.261,12.05,4.384.152.21.3.414.45.607a.483.483,0,0,0,.837-.444.467.467,0,0,0-.15-.43l-.409-.373c-2.2-3.061-4.169-7.18-1.464-10.493,1.907-2.336,5.17-3.335,8.137-4.018q1-.209,1.985-.423C230.748,78.972,230.641,78.012,230.032,78.143Z" transform="translate(-10.666 -2.536)"/></g><g class="g" transform="matrix(1, 0, 0, 1, 20, 425.83)"><path class="b" d="M155.661,319.427a6.39,6.39,0,0,0-4.072-.6,5.382,5.382,0,0,0-4.061,3.871,33.5,33.5,0,0,1-2.5,6.282,14.578,14.578,0,0,0-2.161,4.773,5.82,5.82,0,0,0,.554,3.508c-.632.35-1.385.844-1.471,1.469-.07.506.307,1.086.895.895.378-.123.749-.263,1.124-.4a16.723,16.723,0,0,0-.122,1.838.736.736,0,0,0,1.241.514c.222-.2.46-.385.689-.579a16.5,16.5,0,0,0,.648,1.788c.29.611,1.14.364,1.329-.173q.248-.705.494-1.41c3.29.443,6.307-2.891,7.939-5.928,1.8-3.349,3.386-7.439,2.468-11.288a8.207,8.207,0,0,0-1.914-3.719A4.519,4.519,0,0,0,155.661,319.427Z" transform="translate(-66.34 -165.69)"/></g></g></svg>