<svg xmlns="http://www.w3.org/2000/svg" xmlns:xlink="http://www.w3.org/1999/xlink" width="224" height="223" viewBox="0 0 224 223"><defs><style>.a{fill:#fff;stroke:#95bb80;stroke-width:3px;}.b{fill:#c2c8d9;}.c{fill:#d73639;}.d{fill:#393840;}.e{fill:#c2000b;}.f,.h{fill:#555;}.f{font-size:12px;}.f,.g,.h{font-family:GenJyuuGothic-P-Bold, Gen Jyuu Gothic P;font-weight:700;letter-spacing:0.05em;}.g{fill:#c1c1c1;}.g,.h{font-size:10px;}.i{stroke:none;}.j{fill:none;}.k{filter:url(#a);}</style><filter id="a" x="0" y="0" width="224" height="223" filterUnits="userSpaceOnUse"><feOffset dy="3" input="SourceAlpha"/><feGaussianBlur stdDeviation="3" result="b"/><feFlood flood-opacity="0.161"/><feComposite operator="in" in2="b"/><feComposite in="SourceGraphic"/></filter></defs><g transform="translate(-76 -319)"><g class="k" transform="matrix(1, 0, 0, 1, 76, 319)"><g class="a" transform="translate(12 9)"><rect class="i" width="200" height="199" rx="17"/><rect class="j" x="-1.5" y="-1.5" width="203" height="202" rx="18.5"/></g></g><g transform="translate(147.503 353.528)"><path class="b" d="M305.7,552.594c-7.056-3.622-13.217-8.566-19.289-13.618-4.908-4.083-10.383-10.072-16.961-11.109a.328.328,0,0,0-.048,0,.314.314,0,0,0-.049-.015,12.607,12.607,0,0,0-6.838,1.01c-2.249,1.15-3.713,3.273-3.407,6.68.571,6.365,5.731,11.076,10.3,14.9,9.418,7.878,26.068,11.57,36.206,2.857v.008l.192-.156.4-.323Z" transform="translate(-258.15 -527.771)"/><path class="c" d="M305.768,557.85l-1.135-.6a.337.337,0,0,0-.156-.039.332.332,0,0,0-.216.08,21.259,21.259,0,0,1-13.962,4.713,34.132,34.132,0,0,1-20.935-7.676c-4.548-3.8-9.445-8.359-9.977-14.275-.024-.268-.026-.522-.026-.774a.335.335,0,0,0-.119-.255.331.331,0,0,0-.215-.078.338.338,0,0,0-.055,0l-1.185.2a.334.334,0,0,0-.278.338c.005.237.018.48.04.733.595,6.617,5.8,11.483,10.631,15.524a35.551,35.551,0,0,0,22.133,8.091,23.547,23.547,0,0,0,13.96-4.208.339.339,0,0,0,.12-.062l.508-.413c.159-.125.317-.253.468-.38l.453-.367a.334.334,0,0,0-.054-.555Z" transform="translate(-257.509 -532.364)"/></g><g transform="translate(147.5 345.554)"><g transform="translate(0 0)"><path class="d" d="M330.714,541.487c-.019-.292-.044-.584-.074-.876s-.067-.582-.107-.872-.087-.577-.137-.864-.1-.569-.164-.852-.121-.558-.187-.836-.135-.544-.208-.815-.146-.528-.224-.79c-.041-.136-.085-.271-.128-.406-.037-.118-.072-.237-.111-.356-.014-.041-.027-.086-.042-.13a.427.427,0,0,0-.082-.144.384.384,0,0,0-.157-.095c-.224-.094-.45-.183-.673-.279q-.29-.126-.576-.26-.566-.268-1.114-.571t-1.07-.636q-.524-.333-1.028-.7t-.991-.752q-.489-.391-.958-.8t-.928-.852q-.153-.146-.3-.3a46.468,46.468,0,0,0-4.237-4.236c-4.013-3.026-9.086-4.873-13.676-6.818a.389.389,0,0,0-.438.093c-.206.068-.413.121-.62.183-3.391,1.005-6.939,1.157-10.4,1.844-2.941.408-5.887.028-8.835.284-2.515.219-5.076.447-7.58.76a25.217,25.217,0,0,0-10.62,3.409.378.378,0,0,0-.117.115,12.607,12.607,0,0,1,6.838-1.01.327.327,0,0,1,.049.015.343.343,0,0,1,.048,0c6.578,1.037,12.053,7.026,16.961,11.109,6.071,5.051,12.233,10,19.289,13.617l.507.237s2.912,1.99,9.345,3.759a12.951,12.951,0,0,0,6.863-.036c.3-.109.6-.233.885-.37a8.867,8.867,0,0,0,.8-.434,8.418,8.418,0,0,0,.721-.492,7.885,7.885,0,0,0,.643-.547,7.787,7.787,0,0,0,.57-.6,8.074,8.074,0,0,0,.5-.643q.231-.332.431-.685t.366-.723q.168-.372.3-.757t.246-.787c.074-.268.137-.539.191-.812s.1-.554.138-.833.068-.566.09-.85.036-.575.044-.863.008-.581,0-.871S330.733,541.779,330.714,541.487Z" transform="translate(-260.553 -515.872)"/><path class="c" d="M347.876,552.393a19.506,19.506,0,0,1-3.99-.464,38.071,38.071,0,0,1-9.283-3.653.334.334,0,0,1-.039-.546l.983-.8a.331.331,0,0,1,.373-.032,38.5,38.5,0,0,0,8.4,3.234,17.765,17.765,0,0,0,3.55.414,8.07,8.07,0,0,0,2.753-.427c.278-.1.548-.214.8-.336s.489-.249.722-.389a7.516,7.516,0,0,0,.64-.437,7.2,7.2,0,0,0,.569-.484,6.923,6.923,0,0,0,.5-.527,7.129,7.129,0,0,0,.443-.571q.206-.3.383-.61c.121-.213.229-.43.329-.651s.193-.454.276-.687.158-.476.224-.72.125-.5.176-.749.094-.516.128-.775.064-.531.084-.8.035-.544.042-.815.007-.552,0-.828-.018-.559-.035-.837-.042-.561-.071-.84-.065-.558-.1-.837-.084-.558-.132-.835-.1-.55-.158-.823-.118-.541-.182-.811-.13-.524-.2-.786-.143-.514-.218-.768l-.2-.627s-.342-.141-.477-.2q-.308-.133-.607-.274c-.393-.186-.785-.388-1.166-.6s-.743-.427-1.117-.665-.722-.474-1.072-.724-.693-.514-1.029-.782-.667-.547-.991-.832-.642-.578-.955-.877l-.312-.3c-.525-.514-1.019-1.057-1.5-1.58a19.906,19.906,0,0,0-2.652-2.579c-3.3-2.486-7.368-4.17-11.305-5.8l-.162-.067q-.954-.395-1.89-.788l-.754-.4a.334.334,0,0,1-.156-.174.59.59,0,0,1,.042-.487,1.009,1.009,0,0,1,.743-.441,2.637,2.637,0,0,0,.294-.081l.349-.1.386-.11a4.442,4.442,0,0,0,.568-.217c.107-.046.214-.093.322-.135q.451-.176.907-.333a15.931,15.931,0,0,1,2.052-.566,12.008,12.008,0,0,1,2.145-.239h0a.622.622,0,0,1,.161.02l.032,0c4.524.841,8.839,3.275,13.2,7.443.286.273.579.55.875.829,3.109,2.933,6.633,6.257,7.209,10.66a.648.648,0,0,1-.1.446.728.728,0,0,1-.7.55.743.743,0,0,1-.113-.009l-.134-.021q.049.171.094.34c.076.278.147.558.214.839s.134.576.194.865.118.585.17.879.1.6.141.9.08.6.111.9.058.608.078.912.032.611.039.916.007.61,0,.915-.023.608-.047.912-.055.6-.1.9-.089.6-.148.891-.126.584-.205.873-.167.573-.266.852-.211.558-.333.829-.258.539-.4.8-.307.516-.477.76a9.032,9.032,0,0,1-.557.718,8.7,8.7,0,0,1-.635.666,8.8,8.8,0,0,1-.717.61,9.311,9.311,0,0,1-.8.546c-.289.175-.586.335-.885.478s-.632.283-.968.405A9.745,9.745,0,0,1,347.876,552.393Z" transform="translate(-286.669 -514.234)"/><g transform="translate(65.858 13.327)"><path class="e" d="M374.714,540.011c-.9-1.793-2.254-3.865-4.43-2.912a1.743,1.743,0,0,0-.164.077c-.046.023-.091.039-.137.065-.008,0-.011.011-.019.015a1.488,1.488,0,0,0-.274.22c-.694.717-.29,1.759.067,2.523s.842,1.442,1.162,2.216a16.649,16.649,0,0,0,.818,2.214,1.69,1.69,0,0,0,2.012.955C376.1,544.683,375.53,541.627,374.714,540.011Z" transform="translate(-369.311 -536.859)"/><path class="c" d="M376.4,545.149a1.434,1.434,0,0,0-.846-.943,1.541,1.541,0,0,0-1.906,1.348c.013.9.633,1.949,1.646,1.86S376.65,545.978,376.4,545.149Z" transform="translate(-371.093 -539.851)"/></g><path class="c" d="M305.611,553.244a.343.343,0,0,1-.156-.039l-1.136-.6c-.32-.168-.637-.345-.952-.522l-.416-.232-.38-.207c-.226-.123-.452-.245-.674-.373-.47-.271-.931-.554-1.392-.837l-.54-.328c-.2-.12-.4-.24-.6-.364-.492-.311-.975-.634-1.457-.956l-.5-.327c-.171-.113-.343-.224-.513-.341-.47-.321-.934-.653-1.4-.985l-.526-.374c-.163-.115-.326-.229-.488-.347-.455-.332-.9-.672-1.354-1.012l-.534-.4c-.161-.12-.32-.239-.479-.36-.457-.351-.91-.709-1.364-1.066l-.97-.762c-.564-.451-1.126-.908-1.687-1.366l-.622-.5q-1.151-.945-2.3-1.9c-.94-.782-1.878-1.613-2.873-2.495-.535-.475-1.047-.928-1.567-1.382-3.452-3.013-7.514-6.289-12.02-7.021l-.128-.012-.058-.012c-.273-.026-.542-.043-.812-.054l-.4-.011c-.089,0-.177-.006-.264-.006l-.439.01q-.266.009-.527.026l-.259.019c-.209.018-.414.042-.615.069l-.073.009c-.3.042-.528.086-.756.135l-.206.05c-.16.038-.316.078-.47.123-.078.022-.154.045-.229.069-.145.047-.289.1-.43.15l-.193.073c-.2.081-.389.166-.571.259a5.191,5.191,0,0,0-2.934,5,.335.335,0,0,1-.279.33l-1.185.2a.346.346,0,0,1-.055,0,.332.332,0,0,1-.213-.077.329.329,0,0,1-.121-.249,7.016,7.016,0,0,1,3.835-6.792l.111-.059a12.44,12.44,0,0,1,5.622-1.195c.566,0,1.147.029,1.729.087l.112.015c5.625.885,10.385,5.106,14.586,8.83.99.878,1.925,1.707,2.86,2.486,2.166,1.8,4.5,3.723,6.905,5.568.095.073.527.4.527.4.6.457,1.2.914,1.814,1.358.243.177.488.348.733.52l.772.545c.29.208.581.415.875.616s.57.38.858.567l.811.534c.253.169.507.338.763.5.422.267.854.522,1.284.778l.318.188.357.217c.176.108.352.216.532.319.573.329,1.159.64,1.744.951l.418.227c.132.074.265.148.4.217l.572.276c.062.037.288.185.713.422a.334.334,0,0,1,.048.551l-.983.8A.333.333,0,0,1,305.611,553.244Z" transform="translate(-257.504 -519.154)"/></g></g><text class="f" transform="translate(154 404)"><tspan x="0" y="0">抗</tspan><tspan y="0">UV</tspan><tspan y="0">遮陽帽</tspan></text><text class="g" transform="translate(99 438)"><tspan x="0" y="11">逛恐龍市場必備，大媽最愛的無敵遮陽</tspan><tspan x="0" y="25">帽！遭到火屬性攻擊時，傷害減免10％</tspan></text><text class="h" transform="translate(172 420)"><tspan x="0" y="0">$2500</tspan></text></g></svg>