<svg xmlns="http://www.w3.org/2000/svg" xmlns:xlink="http://www.w3.org/1999/xlink" width="131.186" height="69.874" viewBox="0 0 131.186 69.874"><defs><style>.a{fill:#393840;opacity:0.793;}.b{fill:#d73639;}.c{fill:#c2000b;}.d{filter:url(#a);}</style><filter id="a" x="0" y="5.972" width="101.905" height="63.902" filterUnits="userSpaceOnUse"><feOffset dy="3" input="SourceAlpha"/><feGaussianBlur stdDeviation="3" result="b"/><feFlood flood-opacity="0.161"/><feComposite operator="in" in2="b"/><feComposite in="SourceGraphic"/></filter></defs><g transform="translate(-248.504 -514.234)"><path class="a" d="M376.617,557.72c-.032-.5-.075-.992-.126-1.487s-.113-.988-.182-1.481-.147-.979-.233-1.467-.178-.966-.278-1.446-.205-.947-.318-1.419-.229-.924-.353-1.383-.248-.9-.381-1.341c-.07-.231-.145-.46-.217-.689-.063-.2-.123-.4-.189-.6-.023-.07-.045-.146-.072-.22a.72.72,0,0,0-.14-.245.652.652,0,0,0-.267-.161c-.381-.159-.764-.311-1.143-.474q-.492-.213-.977-.442-.961-.455-1.892-.97t-1.816-1.08q-.889-.565-1.746-1.182t-1.682-1.277q-.83-.663-1.626-1.365t-1.575-1.446q-.26-.248-.517-.5c-2.419-2.371-4.477-5.142-7.193-7.191-6.812-5.137-15.425-8.273-23.217-11.574a.66.66,0,0,0-.744.157c-.349.115-.7.206-1.052.31-5.756,1.707-11.78,1.965-17.662,3.131-4.993.693-10,.047-15,.482-4.269.371-8.618.759-12.869,1.29-6.367.795-12.573,2.316-18.03,5.788a.637.637,0,0,0-.2.2,21.4,21.4,0,0,1,11.609-1.715.55.55,0,0,1,.084.025.562.562,0,0,1,.082,0c11.168,1.761,20.463,11.927,28.8,18.859,10.307,8.575,20.768,16.969,32.746,23.118l.86.4s4.943,3.378,15.865,6.381c3.975.83,8.188,1.2,11.652-.062.51-.185,1.012-.4,1.5-.629a15.017,15.017,0,0,0,1.361-.736,14.351,14.351,0,0,0,1.224-.835,13.422,13.422,0,0,0,1.092-.929,13.236,13.236,0,0,0,.967-1.014,13.769,13.769,0,0,0,.846-1.092q.393-.564.731-1.163t.621-1.228q.285-.632.516-1.285t.417-1.336c.125-.455.232-.915.324-1.378s.171-.94.235-1.414.115-.961.153-1.443.062-.976.074-1.465.014-.986,0-1.479S376.649,558.215,376.617,557.72Z"/><path class="b" d="M361.416,579.016a33.12,33.12,0,0,1-6.774-.788c-9.011-2.473-14.022-5.16-15.759-6.2a.567.567,0,0,1-.067-.927l1.669-1.353a.562.562,0,0,1,.633-.054,65.366,65.366,0,0,0,14.26,5.491,30.154,30.154,0,0,0,6.027.7,13.7,13.7,0,0,0,4.673-.725c.472-.171.93-.364,1.363-.571s.831-.423,1.225-.661a12.806,12.806,0,0,0,1.086-.742,12.161,12.161,0,0,0,.966-.821,11.737,11.737,0,0,0,.852-.894,12.088,12.088,0,0,0,.752-.97q.35-.5.65-1.035c.205-.362.389-.73.559-1.106s.328-.771.469-1.166.269-.808.381-1.222.213-.844.3-1.271.159-.876.218-1.316.109-.9.143-1.355.06-.923.071-1.384.012-.937,0-1.406-.031-.949-.06-1.42-.072-.952-.12-1.426-.11-.948-.177-1.421-.142-.948-.224-1.417-.173-.933-.268-1.4-.2-.919-.309-1.376-.221-.89-.341-1.335-.242-.873-.37-1.3l-.335-1.064s-.581-.239-.81-.337q-.522-.227-1.031-.466c-.667-.316-1.333-.658-1.979-1.015-.623-.345-1.262-.725-1.9-1.129q-.927-.59-1.82-1.23t-1.747-1.328q-.858-.688-1.682-1.412c-.55-.484-1.09-.982-1.622-1.488l-.529-.513c-.891-.873-1.73-1.794-2.541-2.683a33.8,33.8,0,0,0-4.5-4.378c-5.6-4.22-12.508-7.079-19.193-9.844l-.275-.113q-1.62-.67-3.209-1.337l-1.28-.671a.568.568,0,0,1-.265-.3,1,1,0,0,1,.072-.826,1.714,1.714,0,0,1,1.262-.749,4.462,4.462,0,0,0,.5-.138l.593-.175.656-.186a7.541,7.541,0,0,0,.964-.369c.181-.078.363-.157.546-.23q.765-.3,1.54-.566a27.034,27.034,0,0,1,3.484-.961,20.365,20.365,0,0,1,3.642-.406h0a1.05,1.05,0,0,1,.274.034c.021,0,.043,0,.054,0,7.68,1.427,15.005,5.559,22.413,12.635.486.464.983.933,1.486,1.407,5.278,4.979,11.261,10.623,12.239,18.1a1.1,1.1,0,0,1-.165.757,1.235,1.235,0,0,1-1.189.934,1.28,1.28,0,0,1-.192-.015l-.227-.036q.082.289.16.577c.129.472.249.948.363,1.425s.227.978.329,1.468.2.993.288,1.493.169,1.013.24,1.522.136,1.02.189,1.534.1,1.032.132,1.548.054,1.038.066,1.555.012,1.036,0,1.553-.039,1.032-.079,1.548-.094,1.019-.162,1.528-.151,1.011-.252,1.513-.214.992-.348,1.482-.283.972-.451,1.446-.358.948-.565,1.407-.438.915-.685,1.354-.522.877-.81,1.29a15.291,15.291,0,0,1-.945,1.219,14.728,14.728,0,0,1-1.078,1.13,14.881,14.881,0,0,1-1.218,1.036,15.838,15.838,0,0,1-1.356.927c-.49.3-.995.569-1.5.812s-1.073.48-1.644.688A16.546,16.546,0,0,1,361.416,579.016Z"/><path class="c" d="M378.484,542.21c-1.536-3.044-3.827-6.562-7.521-4.943a2.953,2.953,0,0,0-.279.131c-.079.039-.154.066-.233.11-.013.007-.019.018-.032.026a2.531,2.531,0,0,0-.465.374c-1.178,1.217-.492,2.986.114,4.284s1.429,2.448,1.973,3.762a28.262,28.262,0,0,0,1.388,3.758,2.869,2.869,0,0,0,3.416,1.621C380.842,550.142,379.869,544.954,378.484,542.21Z"/><path class="b" d="M378.322,545.853a2.435,2.435,0,0,0-1.437-1.6,2.616,2.616,0,0,0-3.236,2.289c.023,1.524,1.074,3.308,2.8,3.157S378.745,547.261,378.322,545.853Z"/><g class="d" transform="matrix(1, 0, 0, 1, 248.5, 514.23)"><path class="b" d="M339.174,572.108a.58.58,0,0,1-.265-.066l-1.928-1.015c-.544-.285-1.081-.585-1.617-.886l-.706-.394-.645-.352c-.384-.208-.768-.416-1.145-.634-.8-.46-1.581-.94-2.364-1.421l-.916-.556c-.34-.2-.679-.407-1.013-.618-.835-.528-1.655-1.076-2.474-1.623l-.842-.556c-.291-.191-.583-.381-.871-.579-.8-.545-1.586-1.109-2.374-1.672l-.893-.634c-.276-.2-.554-.389-.828-.589-.772-.564-1.535-1.141-2.3-1.718l-.907-.681c-.273-.2-.544-.406-.813-.612-.776-.6-1.545-1.2-2.315-1.81l-1.646-1.293c-.958-.765-1.911-1.542-2.864-2.319l-1.056-.855q-1.955-1.6-3.9-3.227c-1.6-1.327-3.189-2.739-4.877-4.235-.909-.807-1.777-1.576-2.66-2.347C291.092,536.3,284.2,530.74,276.547,529.5l-.217-.02c-.02,0-.06-.011-.1-.02-.463-.044-.921-.073-1.378-.092l-.676-.018c-.151-.005-.3-.01-.449-.01l-.745.017q-.451.015-.894.045l-.439.032c-.355.031-.7.071-1.044.118l-.124.016c-.5.072-.9.146-1.284.229l-.35.085c-.271.065-.537.133-.8.209-.133.037-.261.077-.389.118-.247.079-.491.164-.73.255l-.328.124c-.335.137-.661.281-.969.439a8.813,8.813,0,0,0-4.981,8.488.568.568,0,0,1-.473.561l-2.012.338a.6.6,0,0,1-.094.008.565.565,0,0,1-.361-.131.559.559,0,0,1-.2-.423c-.153-6.595,3.456-9.91,6.51-11.53l.188-.1a21.12,21.12,0,0,1,9.544-2.028c.961,0,1.948.049,2.935.147l.19.026c9.55,1.5,17.631,8.669,24.762,14.991,1.68,1.491,3.268,2.9,4.856,4.22,3.677,3.059,7.642,6.321,11.723,9.453.161.124.895.672.895.672,1.023.775,2.045,1.552,3.079,2.306.412.3.828.591,1.244.882l1.31.926c.493.353.986.705,1.486,1.046.481.329.968.646,1.456.962l1.377.906c.43.287.86.573,1.3.848.717.453,1.449.887,2.179,1.32l.539.32.606.368c.3.183.6.367.9.542.973.559,1.967,1.087,2.961,1.614,0,0,.535.289.709.385.224.125.45.251.68.368l.971.469c.106.063.489.314,1.21.716a.567.567,0,0,1,.082.935l-1.669,1.353A.565.565,0,0,1,339.174,572.108Z" transform="translate(-248.5 -514.23)"/></g></g></svg>