<svg xmlns="http://www.w3.org/2000/svg" width="37.011" height="24.047" viewBox="0 0 37.011 24.047"><defs><style>.a{fill:#c2c8d9;}.b{fill:#d73639;}</style></defs><path class="a" d="M294.7,546.738c-5.391-2.768-10.1-6.546-14.738-10.405-3.75-3.12-7.934-7.7-12.96-8.488a.257.257,0,0,0-.037,0,.243.243,0,0,0-.038-.011,9.633,9.633,0,0,0-5.225.772,4.786,4.786,0,0,0-2.6,5.1c.437,4.863,4.379,8.463,7.873,11.385,7.2,6.019,19.918,8.841,27.665,2.183v.006l.147-.119.3-.247Z" transform="translate(-258.367 -527.771)"/><path class="b" d="M294.384,553.391l-.867-.457a.257.257,0,0,0-.119-.03.254.254,0,0,0-.165.061,16.244,16.244,0,0,1-10.669,3.6,26.081,26.081,0,0,1-16-5.865c-3.475-2.907-7.217-6.387-7.623-10.907-.018-.2-.02-.4-.02-.592a.256.256,0,0,0-.091-.195.253.253,0,0,0-.164-.06.267.267,0,0,0-.042,0l-.906.152a.255.255,0,0,0-.212.258c0,.181.013.367.031.56.455,5.056,4.431,8.774,8.123,11.862a27.165,27.165,0,0,0,16.912,6.182,17.993,17.993,0,0,0,10.667-3.215.26.26,0,0,0,.092-.048l.388-.315c.122-.1.242-.193.358-.29l.346-.28a.255.255,0,0,0-.041-.424Z" transform="translate(-257.509 -533.917)"/></svg>