<svg xmlns="http://www.w3.org/2000/svg" xmlns:xlink="http://www.w3.org/1999/xlink" width="312.19" height="334" viewBox="0 0 312.19 334"><defs><style>.a{fill:#90af89;}.b{filter:url(#a);}</style><filter id="a" x="0" y="0" width="312.19" height="334" filterUnits="userSpaceOnUse"><feOffset dy="-5" input="SourceAlpha"/><feGaussianBlur stdDeviation="25" result="b"/><feFlood flood-opacity="0.161"/><feComposite operator="in" in2="b"/><feComposite in="SourceGraphic"/></filter></defs><g class="b" transform="matrix(1, 0, 0, 1, 0, 0)"><path class="a" d="M397.153,459.7V332.932c2.591-10.1-9.936-16.884-18.125-19.4-11.506-3.53-31.49-1.783-39.319,8.59-.113.15-.2.312-.309.465q3.852,1.908,7.706,3.814l-9.857.087a26.8,26.8,0,0,0-1.726,12.8c.589,6,2.769,11.727,5.253,17.221,1.677,3.708,3.525,7.43,4.053,11.465s-.533,8.55-3.753,11.04c-4.217,3.262-9.768,1.92-15.239.707q-.165,7.823-.331,15.644-1.3-8.125-2.594-16.252c-.7-.131-1.394-.252-2.081-.34A24.428,24.428,0,0,0,293.307,402c-.177,4.24.752,8.446.965,12.685s-.419,8.8-3.21,11.993c0,0-4.888,3.762-7.361,3.986l-1.156,10.221-7.351-9.622c-2.928-.149-5.856-.441-8.786-.339a32.279,32.279,0,0,0-29.741,41.67s3.362,16.982,26.292,23.279H397.5v-36.2Zm-29.09-115.022c.662-1.536,1.365-3.112,2.153-4.587a4.991,4.991,0,0,1,4.136-2.819,4.179,4.179,0,0,1,2.491.816,1.961,1.961,0,0,1,.8,2.1c-.053.219-.144.427-.209.643-.447,1.5-.382,3.081-.929,4.59a10.146,10.146,0,0,1-2.358,3.814c-1.854,1.821-5.358,1.95-6.42-.813A4.822,4.822,0,0,1,368.062,344.676Zm-14.5,96.452a39.845,39.845,0,0,1,5.8-.67c.958-.066,1.976-.6,2.941-.345,1.216.317,2.385,2.211,3.131,3.159a9.355,9.355,0,0,1,2.009,4.077,1.87,1.87,0,0,1-2.271,2.272l-9.4-2.6c-1.587-.438-4.061-.677-4.657-2.546C350.559,442.712,351.974,441.478,353.565,441.128Zm-40.643-22.193c1-1.215,2.611-1.921,3.3-3.339a8.785,8.785,0,0,0,.5-3.2,3.555,3.555,0,0,1,1.318-2.851,3.486,3.486,0,0,1,2.852-.1,4.736,4.736,0,0,1,2.18,1.241,3.356,3.356,0,0,1,.981,2.829c-.163,2.46-1.18,3.526-1.835,5.572a10.421,10.421,0,0,1-3.511,5.281,4.875,4.875,0,0,1-4.219.981A3.782,3.782,0,0,1,312,422.585,4.361,4.361,0,0,1,312.922,418.935Z" transform="translate(-160.31 -231.87)"/></g></svg>