<svg xmlns="http://www.w3.org/2000/svg" xmlns:xlink="http://www.w3.org/1999/xlink" width="315.15" height="296.022" viewBox="0 0 315.15 296.022"><defs><style>.a{fill:#90af89;}.b{filter:url(#a);}</style><filter id="a" x="0" y="0" width="315.15" height="296.022" filterUnits="userSpaceOnUse"><feOffset dy="-5" input="SourceAlpha"/><feGaussianBlur stdDeviation="25" result="b"/><feFlood flood-opacity="0.161"/><feComposite operator="in" in2="b"/><feComposite in="SourceGraphic"/></filter></defs><g class="b" transform="matrix(1, 0, 0, 1, 0, 0)"><path class="a" d="M149.451,408.675c-5.249-1.562-10.857-1.113-16.315-.666s-11.074.86-16.3-.766-10.049-5.792-10.77-11.222c-1.2-9,8.719-16.365,8.384-25.436-.253-6.849-6.642-12.258-13.37-13.554s-13.64.6-20.1,2.878c-5.645,1.986-11.389,4.306-17.368,4.05a15.773,15.773,0,0,1-10.9-4.916l-7.479,1.088,6.022-3.193a9.633,9.633,0,0,1-.99-2.849c-1.037-5.934,3.4-11.334,4.727-17.209,1.764-7.824-2.483-16.249-9.162-20.686s-15.29-5.271-23.144-3.658A44.129,44.129,0,0,0,18.29,313.7l.747,6.263L14.376,315.1A81.956,81.956,0,0,0,.868,322.351v1.021L0,322.351V457.757s66.266-.671,100.471,0,50.158-7.353,50.158-7.353a21.973,21.973,0,0,0-1.178-41.729Zm-16.056,13a4.082,4.082,0,0,1,1.616-1.436,2.888,2.888,0,0,1,2.577-.017c1.962.812,2.55,1.937,4.038,3.037a8.971,8.971,0,0,1,3.335,4.325,4.2,4.2,0,0,1-.366,3.713,3.256,3.256,0,0,1-2.944,1.263,3.758,3.758,0,0,1-2.722-1.764c-.713-1.153-.844-2.661-1.81-3.613a7.542,7.542,0,0,0-2.473-1.291,3.065,3.065,0,0,1-1.962-1.865A3.007,3.007,0,0,1,133.4,421.676ZM87.46,374.912a3.8,3.8,0,0,1,.629.671c1.69,2.3,1.989,6.331,2.461,9.086a39.006,39.006,0,0,1-.2,13.984c-.368,1.9-2.785,1.737-3.721.487l-7.46-9.971c-1.707-2.282-4.074-4.766-4.238-7.785C74.683,376.544,83.71,371.766,87.46,374.912Zm-59.2-53.082a34.173,34.173,0,0,1,4.995-.578c.824-.057,1.7-.512,2.532-.3,1.047.272,2.054,1.9,2.7,2.72a8.064,8.064,0,0,1,1.73,3.512,1.611,1.611,0,0,1-1.957,1.958l-8.091-2.237c-1.367-.378-3.5-.584-4.012-2.194C25.674,323.193,26.892,322.13,28.264,321.83Z" transform="translate(75 -231.78)"/></g></svg>