<svg xmlns="http://www.w3.org/2000/svg" xmlns:xlink="http://www.w3.org/1999/xlink" width="301.023" height="245.458" viewBox="0 0 301.023 245.458"><defs><style>.a{fill:#a2a097;}.b{fill:#b4b2ab;}.c{fill:#3b3b3b;}.d{filter:url(#m);}.e{filter:url(#k);}.f{filter:url(#i);}.g{filter:url(#g);}.h{filter:url(#e);}.i{filter:url(#c);}.j{filter:url(#a);}</style><filter id="a" x="35.421" y="126.915" width="38.375" height="47.291" filterUnits="userSpaceOnUse"><feOffset dy="3" input="SourceAlpha"/><feGaussianBlur stdDeviation="3" result="b"/><feFlood flood-opacity="0.161"/><feComposite operator="in" in2="b"/><feComposite in="SourceGraphic"/></filter><filter id="c" x="3.001" y="9" width="298.022" height="205.486" filterUnits="userSpaceOnUse"><feOffset dy="3" input="SourceAlpha"/><feGaussianBlur stdDeviation="3" result="d"/><feFlood flood-opacity="0.161"/><feComposite operator="in" in2="d"/><feComposite in="SourceGraphic"/></filter><filter id="e" x="43.041" y="131.397" width="116.531" height="87.21" filterUnits="userSpaceOnUse"><feOffset dy="5" input="SourceAlpha"/><feGaussianBlur stdDeviation="3" result="f"/><feFlood flood-opacity="0.161"/><feComposite operator="in" in2="f"/><feComposite in="SourceGraphic"/></filter><filter id="g" x="56.085" y="0" width="105.155" height="97.957" filterUnits="userSpaceOnUse"><feOffset dx="3" dy="-6" input="SourceAlpha"/><feGaussianBlur stdDeviation="3" result="h"/><feFlood flood-opacity="0.161"/><feComposite operator="in" in2="h"/><feComposite in="SourceGraphic"/></filter><filter id="i" x="0" y="42.02" width="73.082" height="82.197" filterUnits="userSpaceOnUse"><feOffset dx="-3" dy="6" input="SourceAlpha"/><feGaussianBlur stdDeviation="3" result="j"/><feFlood flood-opacity="0.161"/><feComposite operator="in" in2="j"/><feComposite in="SourceGraphic"/></filter><filter id="k" x="110.995" y="138.077" width="67.658" height="107.381" filterUnits="userSpaceOnUse"><feOffset dy="3" input="SourceAlpha"/><feGaussianBlur stdDeviation="3" result="l"/><feFlood flood-opacity="0.161"/><feComposite operator="in" in2="l"/><feComposite in="SourceGraphic"/></filter><filter id="m" x="79.312" y="125.605" width="38.375" height="47.291" filterUnits="userSpaceOnUse"><feOffset dy="3" input="SourceAlpha"/><feGaussianBlur stdDeviation="3" result="n"/><feFlood flood-opacity="0.161"/><feComposite operator="in" in2="n"/><feComposite in="SourceGraphic"/></filter></defs><g transform="translate(-20 -466.693)"><g class="j" transform="matrix(1, 0, 0, 1, 20, 466.69)"><path class="a" d="M158.4,319.566a7.667,7.667,0,0,0-4.886-.723c-2.481.38-4.079,2.387-4.872,4.645a40.192,40.192,0,0,1-3,7.537c-1.039,1.791-2.253,3.64-2.593,5.727a6.984,6.984,0,0,0,.665,4.209c-.758.42-1.661,1.012-1.765,1.763-.084.607.369,1.3,1.074,1.074.454-.148.9-.316,1.349-.477a20.065,20.065,0,0,0-.147,2.206.883.883,0,0,0,1.49.617c.267-.242.551-.462.826-.7a19.792,19.792,0,0,0,.778,2.146c.348.733,1.368.437,1.594-.208q.3-.846.593-1.692c3.948.532,7.568-3.469,9.525-7.113,2.157-4.018,4.063-8.926,2.961-13.545a9.848,9.848,0,0,0-2.3-4.462A5.423,5.423,0,0,0,158.4,319.566Z" transform="translate(-97.52 -185.82)"/></g><path class="a" d="M144.174,383.866c-1.392-11.41-6.133-26.98-19.219-29.662-4.7-.964-9.782-.428-13.217,3.227-8.451,8.991-3.972,21.933.213,31.61,2.363,5.465,6.027,10.308,8.593,15.684,1.533,3.217,2.959,6.753,3.041,10.365a9.077,9.077,0,0,1-1.243,5.131c-.767,1.206-2.2,2.063-2.426,3.582-.776,5.174,10.061,4.183,12.732,3.353a9.62,9.62,0,0,0,1.481-.578C148.611,419.271,145.775,396.989,144.174,383.866Z" transform="translate(-24.306 268.159)"/><g transform="translate(32.001 481.693)"><g class="i" transform="matrix(1, 0, 0, 1, -12, -15)"><path class="a" d="M521.1,955.556c-.023.007-.039,0-.06.009-13.276,5.421-27.994,7.612-41.946,3.334-12.217-3.747-23.228-10.969-35.364-15.153-27.023-9.321-51.071-18.187-69.619-40.988,5.044-12.264,7.96-25.056,4.556-38.143-3.266-12.563-9.9-24.743-20.539-32.511-13.753-10.043-32.09-9.722-47.078-2.536-19.892-13.783-43.224,1.719-44.933,23.991-16.971,10.77-30.309,31.85-18.927,51.344a23.943,23.943,0,0,0,12.437,10.415c2.85,9.657,12.048,14.1,21.384,15.57a1.182,1.182,0,0,0,.357-.015,155.014,155.014,0,0,0,1.628,20.218,45.684,45.684,0,0,1,29.877-5.889c14.541,2.052,27.671,10.119,38.422,20.123a115.4,115.4,0,0,1,30.232,46.509c26.539-4.081,52.092-12.932,78.207-19,12.533-2.912,26.518-3.666,38.081-9.689,10.971-5.713,18.433-15.895,24.971-26.06C523.5,955.969,522.017,954.927,521.1,955.556Z" transform="translate(-230.95 -809.35)"/></g><g class="h" transform="matrix(1, 0, 0, 1, -12, -15)"><path class="b" d="M332.579,909.062c-10.751-10-23.881-18.071-38.422-20.123a45.683,45.683,0,0,0-29.877,5.889c2.345,15.476,7.588,30.525,18.285,42.106,18.771,20.327,46.6,22.708,72.681,19.678,2.533-.295,5.052-.653,7.566-1.04A115.406,115.406,0,0,0,332.579,909.062Z" transform="translate(-212.24 -753.09)"/></g></g><g class="g" transform="matrix(1, 0, 0, 1, 20, 466.69)"><path class="a" d="M356.761,503.058c-3.268-12.563-9.9-24.742-20.539-32.511-20.081-14.663-49.932-7.241-64.867,11.4-.935,1.168.715,2.838,1.66,1.66.036-.043.073-.084.109-.128l76.666,57.456c-.056.137-.1.278-.16.415-.584,1.391,1.686,2,2.262.625C357.129,529.471,360.236,516.418,356.761,503.058Z" transform="translate(-208.99 -447.79)"/></g><path class="c" d="M11.2,9.472A15.129,15.129,0,0,0,9.416,2.579,5,5,0,0,0,4.537.013,3.526,3.526,0,0,0,1.422,1.745a4.393,4.393,0,0,0-.433.672,11.651,11.651,0,0,0-.7,7.377c.421,2.03,1.272,4.5,2.952,5.29a6.12,6.12,0,0,0,5.54-.364C10.683,13.46,11.4,12.169,11.2,9.472Z" transform="matrix(0.985, 0.174, -0.174, 0.985, 90.568, 525.045)"/><g class="f" transform="matrix(1, 0, 0, 1, 20, 466.69)"><path class="a" d="M195.425,576.191l-29.212-55.178.042-.026c1.252-.781.1-2.771-1.16-1.984-16.788,10.481-30.115,31.288-18.887,50.515,4.92,8.429,13.193,11.483,22.589,12.726,8.969,1.188,20.568,1.8,27.956-4.27C197.8,577.115,196.519,575.71,195.425,576.191Z" transform="translate(-130.06 -473.8)"/></g><g class="e" transform="matrix(1, 0, 0, 1, 20, 466.69)"><path class="a" d="M269.384,393.76c-1.209-9.39-3.725-19.943-11.861-25.789a15.9,15.9,0,0,0-7.391-2.985,28.242,28.242,0,0,0-5.976-.2,26.377,26.377,0,0,0-11.061,3.309,25.049,25.049,0,0,0-11.219,13.577c-2.691,7.713-1.161,15.847,1.722,23.267,2.676,6.892,7.288,12.9,10.2,19.706a26.64,26.64,0,0,1,2.371,8.75,13.846,13.846,0,0,1-.429,4.508c-.32,1.175-.887,3.09-1.893,3.883a12.487,12.487,0,0,1-1.9.784,5.91,5.91,0,0,0-1.678,1.367,5.143,5.143,0,0,0-1.164,4.2c.616,3.563,4.681,5.064,7.766,5.607,9.955,1.753,23.037-3.225,26.654-13.226a1.146,1.146,0,0,0,.2-.322A97.253,97.253,0,0,0,269.384,393.76Z" transform="translate(-100.48 -220.63)"/></g><g class="d" transform="matrix(1, 0, 0, 1, 20, 466.69)"><path class="a" d="M158.4,319.566a7.667,7.667,0,0,0-4.886-.723c-2.481.38-4.079,2.387-4.872,4.645a40.192,40.192,0,0,1-3,7.537c-1.039,1.791-2.253,3.64-2.593,5.727a6.984,6.984,0,0,0,.665,4.209c-.758.42-1.661,1.012-1.765,1.763-.084.607.369,1.3,1.074,1.074.454-.148.9-.316,1.349-.477a20.065,20.065,0,0,0-.147,2.206.883.883,0,0,0,1.49.617c.267-.242.551-.462.826-.7a19.792,19.792,0,0,0,.778,2.146c.348.733,1.368.437,1.594-.208q.3-.846.593-1.692c3.948.532,7.568-3.469,9.525-7.113,2.157-4.018,4.063-8.926,2.961-13.545a9.848,9.848,0,0,0-2.3-4.462A5.423,5.423,0,0,0,158.4,319.566Z" transform="translate(-53.63 -187.13)"/></g></g></svg>