<svg xmlns="http://www.w3.org/2000/svg" xmlns:xlink="http://www.w3.org/1999/xlink" width="310.637" height="222" viewBox="0 0 310.637 222"><defs><style>.a{fill:#99a297;}.b{fill:#bfc7bd;}.c{fill:#3b3b3b;}.d{filter:url(#o);}.e{filter:url(#m);}.f{filter:url(#k);}.g{filter:url(#i);}.h{filter:url(#g);}.i{filter:url(#e);}.j{filter:url(#c);}.k{filter:url(#a);}</style><filter id="a" x="157.036" y="118.588" width="62.824" height="92.528" filterUnits="userSpaceOnUse"><feOffset dy="3" input="SourceAlpha"/><feGaussianBlur stdDeviation="3" result="b"/><feFlood flood-opacity="0.161"/><feComposite operator="in" in2="b"/><feComposite in="SourceGraphic"/></filter><filter id="c" x="80.878" y="133.7" width="60.5" height="80.681" filterUnits="userSpaceOnUse"><feOffset dy="3" input="SourceAlpha"/><feGaussianBlur stdDeviation="3" result="d"/><feFlood flood-opacity="0.161"/><feComposite operator="in" in2="d"/><feComposite in="SourceGraphic"/></filter><filter id="e" x="67.179" y="72.847" width="243.458" height="134.085" filterUnits="userSpaceOnUse"><feOffset dy="3" input="SourceAlpha"/><feGaussianBlur stdDeviation="3" result="f"/><feFlood flood-opacity="0.161"/><feComposite operator="in" in2="f"/><feComposite in="SourceGraphic"/></filter><filter id="g" x="18.424" y="56.771" width="66.821" height="55.603" filterUnits="userSpaceOnUse"><feOffset dy="3" input="SourceAlpha"/><feGaussianBlur stdDeviation="3" result="h"/><feFlood flood-opacity="0.161"/><feComposite operator="in" in2="h"/><feComposite in="SourceGraphic"/></filter><filter id="i" x="179.895" y="126.207" width="62.824" height="92.528" filterUnits="userSpaceOnUse"><feOffset dy="3" input="SourceAlpha"/><feGaussianBlur stdDeviation="3" result="j"/><feFlood flood-opacity="0.161"/><feComposite operator="in" in2="j"/><feComposite in="SourceGraphic"/></filter><filter id="k" x="105.642" y="141.319" width="60.5" height="80.681" filterUnits="userSpaceOnUse"><feOffset dy="3" input="SourceAlpha"/><feGaussianBlur stdDeviation="3" result="l"/><feFlood flood-opacity="0.161"/><feComposite operator="in" in2="l"/><feComposite in="SourceGraphic"/></filter><filter id="m" x="0" y="0" width="175.662" height="181.469" filterUnits="userSpaceOnUse"><feOffset dy="3" input="SourceAlpha"/><feGaussianBlur stdDeviation="3" result="n"/><feFlood flood-opacity="0.161"/><feComposite operator="in" in2="n"/><feComposite in="SourceGraphic"/></filter><filter id="o" x="31.965" y="51.269" width="66.821" height="55.603" filterUnits="userSpaceOnUse"><feOffset dy="3" input="SourceAlpha"/><feGaussianBlur stdDeviation="3" result="p"/><feFlood flood-opacity="0.161"/><feComposite operator="in" in2="p"/><feComposite in="SourceGraphic"/></filter></defs><g transform="translate(-3766.363 -2330)"><g transform="translate(3768 2336)"><g transform="translate(0 0)"><g class="k" transform="matrix(1, 0, 0, 1, -1.64, -6)"><path class="a" d="M1018.687,253.592a13.081,13.081,0,0,0-2.322-1.914,24.676,24.676,0,0,0-25.4-.512,18.728,18.728,0,0,0-4.878,4.375c-9.769,12.565,2.916,25.429,9.883,35.449,2.668,3.834,5.546,8.536,3.865,13.371-1.223,3.512-4.664,4.253-6.287,7.139-2.288,4.07,1.644,7.5,5.015,8.952,9.578,4.118,26.469,2.244,26.937-10.6.253-6.952,1.282-13.871,1.659-20.821.379-6.973.318-14.079-1.343-20.9a38.464,38.464,0,0,0-3.234-8.733A24.21,24.21,0,0,0,1018.687,253.592Z" transform="translate(-816.49 -123.29)"/></g><g class="j" transform="matrix(1, 0, 0, 1, -1.64, -6)"><path class="a" d="M974.094,261.23a15.978,15.978,0,0,0-3.554-2.324,22.02,22.02,0,0,0-15.965-1.091,20.879,20.879,0,0,0-7.234,3.956,14.552,14.552,0,0,0-2.417,2.577c-7.392,10.211-1.385,23.493,5.786,31.929a1.514,1.514,0,0,0,.112.107c1.7,2.5,4.525,7.377,1.463,9.767-1.96,1.531-4.335,2.945-4.076,5.779.284,3.087,3.35,5.152,5.946,6.255,7.506,3.192,19.008.366,23.419-6.6a44.088,44.088,0,0,0,6.165-28.417,42.9,42.9,0,0,0-3.074-11.832C979.018,267.449,977.14,263.859,974.094,261.23Z" transform="translate(-851.67 -117.11)"/></g><g class="i" transform="matrix(1, 0, 0, 1, -1.64, -6)"><path class="a" d="M1145.917,282.175c-19.067,7.043-37.2,1.415-51.389-12.563-10.125-9.971-17.94-22.166-28.594-31.567-13-11.47-30.16-18.3-47.492-18.184-27.8.19-52.078,19.582-70.323,38.875-8.634,9.127-20.311,19.6-24.208,31.861a2.5,2.5,0,0,0-.076.354,2.32,2.32,0,0,0-.49,1.415c-.516,20.313,17.239,31.419,34.013,38.235,23.482,9.544,45.825,4.687,69.365-2.04,13.222-3.779,26.208-6.933,40.022-7.47,11.746-.457,23.562.137,35.241-1.459,20.5-2.8,37.495-13.864,46.127-32.954a2.56,2.56,0,0,0,.2-.754C1149.54,284.263,1148.292,281.3,1145.917,282.175Z" transform="translate(-847.16 -141.01)"/></g><g class="h" transform="matrix(1, 0, 0, 1, -1.64, -6)"><path class="b" d="M947.359,235.288c-1.562-4.005-6.95-4.223-11.1-5.314-3.126-.823-6.247-1.667-9.327-2.644-6.057-1.922-12.089-4.362-17.185-8.23a30.905,30.905,0,0,1-6.327-6.39c-1.255-1.724-4.607-1.385-4.436,1.2.945,14.309,17.885,25.5,29.644,31.045,3.659,1.724,10.2,5.725,14.336,3.756,3.575-1.7,4.75-7.028,4.832-10.607A7.253,7.253,0,0,0,947.359,235.288Z" transform="translate(-871.56 -148.87)"/></g><g class="g" transform="matrix(1, 0, 0, 1, -1.64, -6)"><path class="a" d="M1018.687,253.592a13.081,13.081,0,0,0-2.322-1.914,24.676,24.676,0,0,0-25.4-.512,18.728,18.728,0,0,0-4.878,4.375c-9.769,12.565,2.916,25.429,9.883,35.449,2.668,3.834,5.546,8.536,3.865,13.371-1.223,3.512-4.664,4.253-6.287,7.139-2.288,4.07,1.644,7.5,5.015,8.952,9.578,4.118,26.469,2.244,26.937-10.6.253-6.952,1.282-13.871,1.659-20.821.379-6.973.318-14.079-1.343-20.9a38.464,38.464,0,0,0-3.234-8.733A24.21,24.21,0,0,0,1018.687,253.592Z" transform="translate(-793.63 -115.67)"/></g><g class="f" transform="matrix(1, 0, 0, 1, -1.64, -6)"><path class="a" d="M974.094,261.23a15.978,15.978,0,0,0-3.554-2.324,22.02,22.02,0,0,0-15.965-1.091,20.879,20.879,0,0,0-7.234,3.956,14.552,14.552,0,0,0-2.417,2.577c-7.392,10.211-1.385,23.493,5.786,31.929a1.514,1.514,0,0,0,.112.107c1.7,2.5,4.525,7.377,1.463,9.767-1.96,1.531-4.335,2.945-4.076,5.779.284,3.087,3.35,5.152,5.946,6.255,7.506,3.192,19.008.366,23.419-6.6a44.088,44.088,0,0,0,6.165-28.417,42.9,42.9,0,0,0-3.074-11.832C979.018,267.449,977.14,263.859,974.094,261.23Z" transform="translate(-826.9 -109.49)"/></g><g transform="translate(0)"><path class="b" d="M874.04,499.178c-1.125-2.023-3.209-1.639-4.935-1.844-1.3-.154-2.605-.321-3.909-.564a20.18,20.18,0,0,1-7.647-2.858,15.879,15.879,0,0,1-3.258-2.871c-.708-.818-1.943-.323-1.535,1.064,2.252,7.662,10.2,12.148,15.415,14.054,1.624.592,4.651,2.15,5.968.7,1.14-1.254.884-4.248.442-6.193A5.586,5.586,0,0,0,874.04,499.178Z" transform="translate(-852.675 -375.83)"/><g transform="translate(4.342)"><g class="e" transform="matrix(1, 0, 0, 1, -5.98, -6)"><path class="a" d="M1001.4,451.94c-15.635-19.789-43.958-27.545-67.286-17.252-30.13,13.3-18,59.508-28.663,84.19a2.571,2.571,0,0,0-.131.41,46.681,46.681,0,0,1-16.845,18.261c-6.8,4.216-14.607,6.376-20.844,11.54a38.764,38.764,0,0,0-11.074,15.256c5.235-.159,20.189-.013,28.418,6.233,8.324,6.32,12.078,18.834,13.14,23.026.44-.233.876-.476,1.326-.685,4.562-2.1,9.133-2.689,14.091-3.414,12.9-1.882,20.785-6.683,29.3-16.476a113.345,113.345,0,0,1,34.752-27.375c11.52-6,22.216-12.415,28.781-24.041C1018.364,500.369,1016.538,471.1,1001.4,451.94Z" transform="translate(-847.56 -424.14)"/></g><path class="b" d="M886.4,507.116c-8.229-6.246-23.183-6.393-28.418-6.233a40.783,40.783,0,0,0-3.021,15.436,19.963,19.963,0,0,0,.806,6.658,4.084,4.084,0,0,0,.71,1.336c1.087,1.256,3.4.582,4.8.347,3.624-.607,7.038-1.966,10.622-2.729a62.629,62.629,0,0,1,12.053-1.019,33.667,33.667,0,0,1-7.5,2.618c-1.825.374-5.2-.237-6.265,1.643a2.392,2.392,0,0,0,.156,2.567c1.057,1.389,3.133,2.091,4.643,2.842,2.093,1.042,4.159,2.19,6.305,3.119a14.019,14.019,0,0,0,10.878.292,65.274,65.274,0,0,0,7.366-3.854C898.481,525.951,894.727,513.437,886.4,507.116Z" transform="translate(-854.964 -366.673)"/></g></g><g class="d" transform="matrix(1, 0, 0, 1, -1.64, -6)"><path class="b" d="M947.359,235.288c-1.562-4.005-6.95-4.223-11.1-5.314-3.126-.823-6.247-1.667-9.327-2.644-6.057-1.922-12.089-4.362-17.185-8.23a30.905,30.905,0,0,1-6.327-6.39c-1.255-1.724-4.607-1.385-4.436,1.2.945,14.309,17.885,25.5,29.644,31.045,3.659,1.724,10.2,5.725,14.336,3.756,3.575-1.7,4.75-7.028,4.832-10.607A7.253,7.253,0,0,0,947.359,235.288Z" transform="translate(-858.02 -154.37)"/></g></g><path class="c" d="M7.317,7.944A30.836,30.836,0,0,1,4.3,6.473,14.211,14.211,0,0,1,2.415,5.406,31.249,31.249,0,0,1,6.176,1.855C7.231.9,5.668-.654,4.618.3c-1.11,1-2.2,2.031-3.259,3.091-.73.73-1.714,1.557-1.23,2.7C.534,7.04,1.864,7.614,2.7,8.1A35.208,35.208,0,0,0,6.731,10.07C8.036,10.62,8.607,8.488,7.317,7.944Z" transform="matrix(0.996, 0.087, -0.087, 0.996, 47.312, 112.528)"/></g></g></svg>