<svg xmlns="http://www.w3.org/2000/svg" xmlns:xlink="http://www.w3.org/1999/xlink" width="433.676" height="470.288" viewBox="0 0 433.676 470.288"><defs><style>.a{fill:#fff;}.b{fill:#90af89;}.c{filter:url(#a);}</style><filter id="a" x="0" y="0" width="433.676" height="470.288" filterUnits="userSpaceOnUse"><feOffset dy="-5" input="SourceAlpha"/><feGaussianBlur stdDeviation="25" result="b"/><feFlood flood-opacity="0.161"/><feComposite operator="in" in2="b"/><feComposite in="SourceGraphic"/></filter></defs><g transform="translate(-1725.921 -306.163) rotate(-13)"><g class="c" transform="matrix(0.97, 0.22, -0.22, 0.97, 1612.81, 686.56)"><path class="a" d="M41.6,36.043C26.818,51.8,17.858,71.8,11.215,91.481-1.61,129.47-5.156,171.35,9.754,208.689S60.425,277.62,103.3,282.567c43.181,4.981,86.76-18.054,110.229-51.794s28.7-76.269,21.706-115.813c-5.736-32.434-19.924-64.527-45.706-87.253A111.832,111.832,0,0,0,146.195,4.17c-17.787-5.023-37.487-6.2-54.906.358-18.711,7.046-36.284,17.261-49.6,31.418Z" transform="translate(124.18 80) rotate(10)"/></g><path class="b" d="M73.647,1.015A44.118,44.118,0,0,0,59.818,6.339a177.344,177.344,0,0,0-44.624,37.2q-1.353,1.586-2.676,3.212C5.508,55.375-1.209,66.59.185,78.8,1.972,94.436,15.6,102.683,27.54,107.634c17.518,7.263,35.688,13.312,54.127,12.628s37.362-8.856,49.618-26.188,16.2-44.672,6.494-64.389A50.28,50.28,0,0,0,109.036,4.691C97.757.714,85.363-1.381,73.647,1.015Z" transform="matrix(-0.996, -0.087, 0.087, -0.996, 1823.544, 984.954)"/><path class="b" d="M1.275,21.747a10.455,10.455,0,0,1-.982-2.318,8.541,8.541,0,0,1,4.228-9.8,7.871,7.871,0,0,1,1.7-.609C19.28,5.963,41.22,1.2,54.568.191c4.05-.305,8.31-.476,11.964,1.369,4.058,2.05,6.77,6.427,7.594,11.048A25.416,25.416,0,0,1,72.318,26.38,63.546,63.546,0,0,1,65.4,38.462c-3.355,4.893-7.332,10.018-12.973,11.29-2.957.667-6.033.173-9-.441A91.313,91.313,0,0,1,27.8,44.686a55.642,55.642,0,0,1-13.426-7.261A40.219,40.219,0,0,1,9.2,32.561a60.676,60.676,0,0,1-5.031-6.5C3.26,24.725,2.122,23.272,1.275,21.747Z" transform="matrix(0.883, -0.469, 0.469, 0.883, 1780.256, 1035.536)"/><path class="b" d="M26.441,2.739c-.868-.393-1.7-.809-2.62-1.147A26.18,26.18,0,0,0,15.964.022c-.712-.03-1.427-.03-2.138,0C8.287.274,2.9,2.589.564,6.112-.684,8,.029,16.481,3.827,24.085S14,35.957,15.757,36.526a9.993,9.993,0,0,0,6.918-.6A13.654,13.654,0,0,0,27.391,32.1a23.975,23.975,0,0,0,5.268-10.7A21.368,21.368,0,0,0,31.216,8.455a23.941,23.941,0,0,0-1.458-2.776A15.457,15.457,0,0,0,26.441,2.739Z" transform="translate(1662.882 1051.975) rotate(-70)"/></g></svg>