<svg xmlns="http://www.w3.org/2000/svg" width="245.902" height="219.906" viewBox="0 0 245.902 219.906"><defs><style>.a{fill:#fff;}</style></defs><g transform="translate(-14503 -2024)"><g transform="translate(14551.248 2121.008) rotate(11)"><g transform="translate(0 33.392)"><path class="a" d="M2.53.006a.69.69,0,0,1,.157.037,1.1,1.1,0,0,1,.623.745,2.735,2.735,0,0,1,.036.665c-.019.455-.1.907-.122,1.363Q3.169,4.2,3.111,5.577a.427.427,0,0,1-.789.213C1.84,5.024,1.378,4.247.942,3.451A5.594,5.594,0,0,1,0,1.381C-.036.592.751.25,1.406.118a5.344,5.344,0,0,1,.677-.1A2.448,2.448,0,0,1,2.53.006Z" transform="translate(6.349 3.421)"/><path class="a" d="M1,.1c.11.068.212.156.31.222a3.065,3.065,0,0,1,.868.686,1.483,1.483,0,0,1,.171.7,1.163,1.163,0,0,1-.179.543,6.42,6.42,0,0,1-.3.665L.789,5.32C.611,5.715-.005,5.5,0,5.107Q.033,2.748.271.4A.442.442,0,0,1,.694,0,.589.589,0,0,1,1,.1Z" transform="translate(2.675 2.017)"/><path class="a" d="M1.218.1A.934.934,0,0,1,1.851.03a.488.488,0,0,1,.295.295A17.064,17.064,0,0,1,3.07,4.79a.427.427,0,0,1-.723.3A10.792,10.792,0,0,1,.121,2.182,1.294,1.294,0,0,1,.233.89,2.41,2.41,0,0,1,.975.223,2.049,2.049,0,0,1,1.218.1Z" transform="translate(10.698 1.772)"/><path class="a" d="M1.037.191a.578.578,0,0,1,.9.054C2.757,1.631,1.673,2.29.717,3.238a.427.427,0,0,1-.708-.411A8.439,8.439,0,0,1,.532,1.159Q.707.758.922.373A1.845,1.845,0,0,1,1.037.191Z" transform="translate(0 0)"/></g><path class="a" d="M1.571,10.75A15.15,15.15,0,0,1,1.7,8.536,18.982,18.982,0,0,1,2.072,6.5a11.473,11.473,0,0,1,1.5-3.651A6.421,6.421,0,0,1,10.025.069a6.709,6.709,0,0,1,5.856,4.846A11.652,11.652,0,0,1,16.3,8.3a17.4,17.4,0,0,1-.108,1.755,13.387,13.387,0,0,0-.245,1.979c.083,2.106.1,4.218.08,6.324a64.586,64.586,0,0,1-.444,7.281,27.83,27.83,0,0,1-1.634,6.932,9.562,9.562,0,0,1-3.511,4.691,6.515,6.515,0,0,1-3.648.948A5.707,5.707,0,0,1,2.2,35.773,12.8,12.8,0,0,1,.259,30,38.336,38.336,0,0,1,.1,22.695c.139-2.36.411-4.709.748-7.047.134-.924.279-1.847.428-2.768A12.684,12.684,0,0,0,1.571,10.75Z" transform="translate(0.132 0)"/></g><path class="a" d="M147.12,107.991c-11.352-7.423-32.2-9.83-35.3,7.57a1.008,1.008,0,0,0-.533.848c-.684,11.388,2.331,19.178,10,27.8,6.424,7.22,13.673,12.706,21.135,18.594-.112,5.659-1.552,13.151-7.21,15.7a.866.866,0,0,0-.4.269.759.759,0,0,0-.117.179c-.014.029-.032.052-.044.085a.86.86,0,0,0-.036.515c.135,1.419.071,2.854.278,4.266a6.038,6.038,0,0,0,.955,3.113,1.069,1.069,0,0,0,1.767-.467c.55-1.368,2.084-2.742,3.563-1.855.841.5,1.515,1.209,2.412,1.659a1.081,1.081,0,0,0,.5.112.919.919,0,0,0,1.07-.493c.887-1.647,3.513-.11,4.743.291a1.658,1.658,0,0,0,1.893-.355,14.494,14.494,0,0,0,3.467-4.168,30.771,30.771,0,0,0,2.04-3.86c.592-1.4.838-2.885,1.307-4.32.567-1.732,1.19-3.447,1.662-5.207,1.371-5.121,2.468-11.252,4.88-15.955a.909.909,0,0,0,.029-.107.81.81,0,0,0,.911-.75C168.439,134.38,161.769,117.57,147.12,107.991Z" transform="translate(14451.673 2049.729)"/><g transform="translate(14503 2024)"><path class="a" d="M117.419,59.485c-.047-.039-.09-.083-.137-.118-.576-.442-.059-.806-.533-.753s-1.259,1.332-1.6,1.649c-1.129,1.05-2.913,2.879-4.566,2.764-1.253-.086-2.876-1.586-3.968-2.751-1.334,1.2-3.293,2.9-4.774,2.536-.7-.173-1.1-.975-1.488-1.495-1.534-2.038-1.241-2.73-3.822-1.276-1.552.875-2.649,2.235-4.391,1.309a5.23,5.23,0,0,1-1.09-.835,1.121,1.121,0,0,1-.151.064,25.244,25.244,0,0,1-3.34.43c.124,1.349,1.588,2.722.713,4.176a4,4,0,0,1-1.994,1.361c-.807.322-2.829.574-3.677,1.136.279-.1.386.432.791.914.3.361.721.623,1,1.007a1.864,1.864,0,0,1,.455.858c.108.838-.679,1.427-1.364,1.911.482.024.967.032,1.447.047a.954.954,0,0,1,1.459-.02c.049.054.095.09.144.142a.914.914,0,0,1,.432.425c3.99,3.753,5.155-1.439,8.462-2.873,3.12-1.349,5.74,1.757,8.576,1.038s2.783-5.547,6.781-6.153c.638-.1,1.373.362,2.013.371,5.532.068,1.933.444,3.179-1.5A18.493,18.493,0,0,0,117.419,59.485Z" transform="translate(-71.139 0.493)"/><path class="a" d="M101.738,95.014l0-.02a.969.969,0,0,0-.1-.3.84.84,0,0,0-.08-.112.906.906,0,0,0-.152-.159.981.981,0,0,0-.193-.11,1,1,0,0,0-.1-.046,1.133,1.133,0,0,0-1.495.62c-2.888,7.359-6.016,14.746-13.289,18.739-5.508,3.025-11.658,4.078-17.079,7.369-5.915,3.59-10.545,3.465-17.109,3.316-5.688-.13-10.306,1.689-15.592,3.529C22,132.9,8.15,128.667-5.728,123.528c-6.4-2.368-13.388-5.165-18.174-10.258-5.373-5.718-7.433-13.732-8.3-21.3.142-16.625-4.29-35.222-21.986-41.025-10.208-3.347-20.395-.914-28.321,5.05-9.288-11.1-30.562-4.936-36.033,7.161-2.631,5.816-2.976,13.129-7.777,17.822-3.328,3.25-8.44,3.734-11.41,7.438-4.691,5.849-2.4,13.664.124,19.843a1.078,1.078,0,0,0,.8.659,1.081,1.081,0,0,0,2.091.208c.423-1.188,2.268-2.692,3.577-3.582.466.655.884,1.749,1.358,2.258A2.935,2.935,0,0,0-127.917,109c1.479.08,3.254-1.324,4.615-2.468a20.226,20.226,0,0,0,1.229,2.048,23.31,23.31,0,0,1-2.9.3,1.1,1.1,0,0,0-1.021.777,3.6,3.6,0,0,0,.159,2.128c.521,1.855,1.094,2.185-1.109,2.976-1.2.43-4.08.782-4.252,2.463-.125,1.224,1.214,2.509,2.072,3.411-.008.012-.014.012-.022.024-.245.036-.95.792-1.119.972-.423.445-.945.958-.89,1.622a1.128,1.128,0,0,0,.45.833c.005.012,0,.024.008.036,4.718,10.248,17.81,17.521,26.377,24.219,5.341,4.178,9.62,8.037,12.3,14.509,2.1,5.068,3.536,10.389,5.419,15.545a1.224,1.224,0,0,0,.115.19c.62,1.854,1.21,3.675,1.8,5.481,2.531,7.7,5.116,14.968,10.262,21.761,6.675,8.811,13.925,13.6,23.833,18.453,12.962,6.346,27.627,10.638,42.085,7.626,2.089-.435,4.3-.963,6.548-1.595,6.411-1.8,13.072-4.486,17.786-8.539a.9.9,0,0,0,.344-.723,1.075,1.075,0,0,0,1.065-.166c11.43-9.1,24.089-15.775,35.86-24.183,5.651-4.036,10.866-8.266,16.845-11.824,5.139-3.057,10.36-6.091,14.89-10.032,8.789-7.643,12.73-17.71,14.243-29.044,2.224-16.635,1.947-33.822,2.7-50.574A1.042,1.042,0,0,0,101.738,95.014ZM-98.787,115.267c-.642-.008-1.375-.469-2.014-.371-4,.606-3.937,5.432-6.78,6.153s-5.458-2.387-8.576-1.036c-3.308,1.432-4.472,6.624-8.464,2.871a.907.907,0,0,0-.432-.425c-.049-.052-.093-.088-.144-.142a.952.952,0,0,0-1.457.02c-.482-.015-.967-.024-1.447-.047.684-.484,1.471-1.073,1.363-1.911a1.877,1.877,0,0,0-.454-.858c-.276-.383-.694-.647-1-1.007-.4-.482-.511-1.017-.791-.914.848-.562,2.869-.814,3.677-1.136a4.015,4.015,0,0,0,2-1.361c.873-1.454-.591-2.827-.714-4.176a24.988,24.988,0,0,0,3.342-.43,1.2,1.2,0,0,0,.149-.064,5.215,5.215,0,0,0,1.09.835c1.742.926,2.839-.433,4.391-1.307,2.582-1.456,2.289-.763,3.822,1.276.391.518.789,1.32,1.488,1.493,1.481.364,3.44-1.341,4.774-2.536,1.092,1.165,2.717,2.666,3.97,2.751,1.652.115,3.435-1.715,4.565-2.764.339-.315,1.136-1.6,1.6-1.649s-.042.311.533.753c.047.036.091.08.137.118a18.456,18.456,0,0,1-1.447,4.364C-96.855,115.71-93.256,115.334-98.787,115.267Z" transform="translate(140.442 -49.43)"/><path class="a" d="M159.274,111.565a72.341,72.341,0,0,0-50.507-7.68c2.531,7.706,5.116,14.969,10.26,21.763,6.675,8.811,13.927,13.6,23.835,18.452,12.96,6.348,27.627,10.639,42.083,7.628,2.089-.435,4.3-.963,6.549-1.595A72.34,72.34,0,0,0,159.274,111.565Z" transform="translate(-53.011 30.755)"/></g><g transform="translate(14602.843 2085.597)"><path class="a" d="M155.623,68.213q.708-.731,1.359-1.49c-.6-.379-1.185-.765-1.752-1.18a25.961,25.961,0,0,1-3.692-3.21c-.122-.129-.218-.274-.335-.4-.537-.6-1.061-1.2-1.532-1.847-.239.628-.477,1.254-.747,1.871A53.6,53.6,0,0,1,135.15,80.22a.885.885,0,0,0-.22,1.143,1.1,1.1,0,0,0,1.578,1.11,70.9,70.9,0,0,0,12.515-8.379C151.176,72.279,153.552,70.337,155.623,68.213Z" transform="translate(-134.81 -60.082)"/><path class="a" d="M207.688,66.09c-.1-.672-.2-1.349-.311-2.026q-1.008.376-2.008.784a36.6,36.6,0,0,0-4.444,2.135c-.191.11-.388.2-.576.317-.523.318-1.026.572-1.53.835q.005,1.183.01,2.329a43.6,43.6,0,0,0,1.082,11c1.568,6.17,3.826,12.2,5.884,18.226l.8,5.5c.181,1.248,1.992.828,2.077-.281A172.056,172.056,0,0,0,207.688,66.09Z" transform="translate(-90.465 -57.323)"/><path class="a" d="M192.219,67.935c-.5-.012-.984.01-1.469.027-.758.027-1.5.083-2.233.173q-.328,1.292-.647,2.517a32.1,32.1,0,0,0-1.415,10.629c.51,8.569,1.442,16.029-.56,24.569a1.09,1.09,0,0,0,1.615,1.165.881.881,0,0,0,.486-.318c3.873-4.943,5.1-10.353,5.519-16.566.41-6.047.813-11.572,2.461-17.468.239-.853.425-1.59.562-2.3a12.725,12.725,0,0,0,.249-2.38c-.721.01-1.461.007-2.224,0S193.026,67.954,192.219,67.935Z" transform="translate(-99.442 -54.643)"/><path class="a" d="M167.177,70.036q-1.059-.3-2.114-.626a24,24,0,0,0-1.292,2.367,44.105,44.105,0,0,0-3.076,10.011c-1.381,6.841-.23,14.358-5.138,20.034-.887,1.026.6,2.529,1.5,1.5a19.547,19.547,0,0,0,3.844-7.24,152.717,152.717,0,0,1,5.776-14.621,75.555,75.555,0,0,1,4.386-7.721c.476-.779.938-1.571,1.4-2.37q-1.079-.234-2.153-.5Q168.737,70.482,167.177,70.036Z" transform="translate(-120.625 -53.619)"/><path class="a" d="M165.944,69.283c-.658-.239-1.315-.477-1.974-.721-.068-.025-.135-.052-.2-.076-1.485-.552-3-1.126-4.5-1.747-.65-.267-1.3-.552-1.94-.838q-.371,1.021-.738,2.028c-3.282,8.958-6.643,17.194-13.214,24.649a1.035,1.035,0,0,0-.1,1.276.883.883,0,0,0,1.1.516.966.966,0,0,0,.266-.125l.014-.005c4.764-3.546,11.416-6.445,14.66-11.623a36.363,36.363,0,0,0,2.917-7.125A17.526,17.526,0,0,1,164.4,71.4C164.9,70.69,165.416,70,165.944,69.283Z" transform="translate(-129.068 -56.051)"/><path class="a" d="M189.061,70.6a40.912,40.912,0,0,1-9.683,1.733c-.714.041-1.43.069-2.143.076-.132.831-.261,1.657-.406,2.5-2.047,11.907-5.459,25.086-10.951,35.371a1.1,1.1,0,0,0,1.215,1.561.932.932,0,0,0,.9-.279c6.35-6.478,12.791-13.148,16.231-21.7,1.346-3.347,2.021-6.9,3.26-10.28.982-2.68,2.277-4.73,3.145-7.071a15.009,15.009,0,0,0,.718-2.651c-.262.091-.518.183-.784.274C190.06,70.306,189.561,70.444,189.061,70.6Z" transform="translate(-113.38 -53.31)"/></g><path class="a" d="M209.539,118.457c-4.647-10.678-13.636-19.154-26.081-16.926-12.913,2.312-20.37,14.633-18.719,27.242a31.493,31.493,0,0,0,4.425,12.352,42.783,42.783,0,0,0,8.559,9.867c1.41,1.222,2.976,2.253,4.361,3.5a27.652,27.652,0,0,1,2.664,2.825c.818.972,1.681,1.879,2.419,2.915a12.959,12.959,0,0,1,2.482,5.9c.489,4.027-1.532,7.216-3.858,10.277a.943.943,0,0,0-.156.327c-.012.025-.025.047-.036.074a1.072,1.072,0,0,0,.034.836c3.3,7.257,11.965,5.456,17.951,3.318a1.041,1.041,0,0,0,.477-.355.84.84,0,0,0,.491-.486,59.263,59.263,0,0,0,4.4-16.877C215.244,148.946,215.825,132.9,209.539,118.457Z" transform="translate(14488.609 2053.982)"/><path class="a" d="M221.769,32.987l-.68-1.315c-.1-.195-.178-.391-.268-.591-.061-.135-.162-.35-.34-.344-.359.01-.523.614-.635.875-.169.394-.339.789-.489,1.193s-.247.811-.386,1.214c-.239.691-.528,1.363-.821,2.033a15.232,15.232,0,0,0-1.327,3.98,7.726,7.726,0,0,0,.007,2.146c.57,4.061,3.844,9.265,1.41,14a1.165,1.165,0,0,0,.379,1.4,1.418,1.418,0,0,0,1.551-.036,3.371,3.371,0,0,0,1.2-1.287,15.866,15.866,0,0,0,2.339-6.461,11.944,11.944,0,0,0-.13-3.213,11.759,11.759,0,0,1,.374-4.093,10.427,10.427,0,0,0-.267-4.665,22.556,22.556,0,0,0-.914-2.538c-.264-.64-.494-1.314-.811-1.926Z" transform="translate(14524.801 2005.184)"/><path class="a" d="M219.652,38.974a7.458,7.458,0,0,0-.1,2.228,8.39,8.39,0,0,1-.135,2.87,34.255,34.255,0,0,0-1.186-5.05c-.36-1.455.242-2.758.795-4.17A7.1,7.1,0,0,1,219.652,38.974Z" transform="translate(14526.28 2012.75)"/><path class="a" d="M82.6,67.681c.848-.562,2.869-.814,3.677-1.136a4,4,0,0,0,1.994-1.361c.875-1.454-.589-2.827-.713-4.176a25.244,25.244,0,0,0,3.34-.43,1.121,1.121,0,0,0,.151-.064,5.23,5.23,0,0,0,1.09.835c1.742.926,2.839-.433,4.391-1.309,2.582-1.454,2.289-.762,3.822,1.276.389.52.789,1.322,1.488,1.495,1.481.364,3.44-1.341,4.774-2.536,1.092,1.165,2.715,2.664,3.968,2.751,1.652.115,3.436-1.715,4.566-2.764.34-.317,1.138-1.6,1.6-1.649s-.042.311.533.753c.047.036.09.08.137.118a18.493,18.493,0,0,1-1.447,4.362c-1.246,1.945,2.353,1.569-3.179,1.5-.64-.008-1.375-.469-2.013-.371-4,.606-3.937,5.432-6.781,6.153s-5.456-2.387-8.576-1.038c-3.308,1.434-4.472,6.626-8.462,2.873a.914.914,0,0,0-.432-.425c-.049-.052-.095-.088-.144-.142a.954.954,0,0,0-1.459.02c-.481-.015-.965-.024-1.447-.047.686-.484,1.473-1.073,1.364-1.911a1.864,1.864,0,0,0-.455-.858c-.274-.384-.694-.647-1-1.007C82.987,68.113,82.88,67.576,82.6,67.681Z" transform="matrix(0.996, -0.087, 0.087, 0.996, 14426.45, 2033.463)"/><path class="a" d="M142.6,25.214c-15.489-5.078-30.963,3.094-38.5,16.828-.655,1.2,1.171,2.263,1.827,1.068.025-.046.056-.088.08-.132l56.459,22.831c0,.142.005.288,0,.43a1.059,1.059,0,0,0,2.116,0C164.725,49.614,160.294,31.017,142.6,25.214Z" transform="translate(14446.658 2000.305)"/><g transform="translate(14667.202 2228.83)"><path class="a" d="M531.938,102.968a5.1,5.1,0,0,0-1.815.066,4.465,4.465,0,0,0-2.285,1.07,6.361,6.361,0,0,0-1.646,3.279,19.971,19.971,0,0,0-.393,4.306c-.005,1.408.069,2.813.113,4.22.014.45.026.9.022,1.349,0,.025.02.034.024.058,0,.262.2.508.5.383a14.388,14.388,0,0,0,7.938-7.767c.628-1.525,1.215-3.463.345-5.016a3.748,3.748,0,0,0-1.249-1.285,5.984,5.984,0,0,0-.813-.44A3.047,3.047,0,0,0,531.938,102.968Z" transform="translate(-515.784 -102.657)"/><path class="a" d="M529.093,102.853a5.867,5.867,0,0,0-1.659-.058,10.149,10.149,0,0,0-1.567.147,5.237,5.237,0,0,0-2.731,1.315c-1.681,1.615-2.084,4.078-3.145,6.067-.029.056-.007.1-.014.156a.431.431,0,0,0-.088.342l.039.234a.425.425,0,0,0,.408.31c2.116.135,5.7.423,7.476-1.08,1.559-1.317,1.446-3.543,1.55-5.393a9.438,9.438,0,0,1,.14-1.29C529.579,103.214,529.484,102.968,529.093,102.853Z" transform="translate(-519.884 -102.762)"/><path class="a" d="M538.947,105a4.028,4.028,0,0,0-1.718-1.539,3.7,3.7,0,0,0-4.344,1.146,4.029,4.029,0,0,0-.743,2.075,10.568,10.568,0,0,0,.933,4.735,6.671,6.671,0,0,0,.273.614.674.674,0,0,0,.318.195c.511.086,1.055.081,1.573.132.535.052,1.072.112,1.6.179s1.068.144,1.6.227a6.851,6.851,0,0,0,1.525.227c.235-.022.6-.085.62-.381a3.158,3.158,0,0,0-.19-.772c-.064-.269-.115-.54-.157-.813-.085-.555-.137-1.112-.19-1.671a13.217,13.217,0,0,0-.586-3.279A5.628,5.628,0,0,0,538.947,105Z" transform="translate(-511.408 -102.479)"/></g><g transform="translate(14579.176 2228.83)"><path class="a" d="M476.047,106.481c-.054.03-.107.061-.157.095a5.532,5.532,0,0,0-1.254,1.591,20.981,20.981,0,0,0-1.1,1.86,20.671,20.671,0,0,0-1.593,4.02q-.112.4-.208.807a.412.412,0,0,0,.052.311.421.421,0,0,0,.183.146c.031.017.039.051.078.061a12.9,12.9,0,0,0,7.509.207,6.647,6.647,0,0,0,1.386-.664,2.318,2.318,0,0,0,.626-.455,2.117,2.117,0,0,0,.179-.682,5.968,5.968,0,0,0,.146-.775,8.112,8.112,0,0,0,.034-1.344,8.23,8.23,0,0,0-.591-2.671,4.094,4.094,0,0,0-3.714-2.873A3.6,3.6,0,0,0,476.047,106.481Z" transform="translate(-463.829 -104.434)"/><g transform="translate(0 0)"><path class="a" d="M475.848,105.749a2,2,0,0,0-.574-.411,2.67,2.67,0,0,0-.728-.173,3.345,3.345,0,0,0-.664-.041,3.561,3.561,0,0,0-1.259.3,6.724,6.724,0,0,0-2.236,1.752,28.285,28.285,0,0,0-3.2,4.862l-.09.154c-.017.029,0,.052-.01.081a.427.427,0,0,0-.022.261.383.383,0,0,0,.374.332q4.421.1,8.835-.107a.336.336,0,0,0,.33-.222.835.835,0,0,0,.029-.242c.02-.657.235-1.273.294-1.923a9.123,9.123,0,0,0,0-1.923A4.761,4.761,0,0,0,475.848,105.749Z" transform="translate(-467.059 -105.122)"/><path class="a" d="M484.061,109.282a5.728,5.728,0,0,0-4.386-2.323.313.313,0,0,0-.322.151c-1.7,1.569-1.29,3.9-.757,5.91.01.042.047.051.068.085s.044.054.066.083c.037.036.063.078.11.095.032.022.041.058.081.071q2.468.782,4.933,1.566a.43.43,0,0,0,.479-.195A5.82,5.82,0,0,0,484.061,109.282Z" transform="translate(-459.387 -103.85)"/></g></g><path class="a" d="M464.391-1.655a.906.906,0,0,0-1.031-.718,1.079,1.079,0,0,0-.565.09l-9.023,4.222a.828.828,0,0,0-.518.713,1.025,1.025,0,0,0-.112.3c-.7,4.569-.335,14,6.935,12.456C466.591,14.024,465.5,2.857,464.391-1.655Z" transform="translate(14104.272 2055.156)"/><g transform="translate(14591.026 2118.797)"><path class="a" d="M489.892,43.772a15.148,15.148,0,0,0-.127-2.214,18.988,18.988,0,0,0-.374-2.038,11.473,11.473,0,0,0-1.5-3.651,6.421,6.421,0,0,0-6.455-2.778,6.709,6.709,0,0,0-5.855,4.847,11.652,11.652,0,0,0-.421,3.384,17.381,17.381,0,0,0,.108,1.755,13.39,13.39,0,0,1,.245,1.979c-.083,2.106-.1,4.218-.08,6.324a64.6,64.6,0,0,0,.444,7.281,27.828,27.828,0,0,0,1.634,6.932,9.562,9.562,0,0,0,3.511,4.691,6.515,6.515,0,0,0,3.648.948,5.707,5.707,0,0,0,4.591-2.436,12.8,12.8,0,0,0,1.942-5.771,38.334,38.334,0,0,0,.161-7.308c-.139-2.36-.411-4.709-.748-7.047-.134-.924-.279-1.847-.428-2.768A12.686,12.686,0,0,1,489.892,43.772Z" transform="translate(-475.161 -33.021)"/><g transform="translate(2.666 33.392)"><path class="a" d="M479.96,54.775a.69.69,0,0,0-.157.037,1.1,1.1,0,0,0-.623.745,2.735,2.735,0,0,0-.036.665c.019.455.1.907.122,1.363q.056,1.381.113,2.761a.427.427,0,0,0,.789.213c.482-.767.945-1.544,1.38-2.339a5.594,5.594,0,0,0,.941-2.07c.037-.789-.75-1.131-1.405-1.263a5.346,5.346,0,0,0-.677-.1A2.447,2.447,0,0,0,479.96,54.775Z" transform="translate(-475.07 -51.347)"/><path class="a" d="M483.253,54.041c-.11.068-.212.156-.31.222a3.063,3.063,0,0,0-.868.686,1.483,1.483,0,0,0-.171.7,1.163,1.163,0,0,0,.18.543,6.394,6.394,0,0,0,.3.665l1.078,2.4c.178.394.794.181.789-.213q-.033-2.359-.271-4.7a.442.442,0,0,0-.423-.4A.589.589,0,0,0,483.253,54.041Z" transform="translate(-473.155 -51.922)"/><path class="a" d="M478.588,53.894a.935.935,0,0,0-.633-.069.488.488,0,0,0-.294.295,17.067,17.067,0,0,0-.924,4.466.427.427,0,0,0,.723.3,10.793,10.793,0,0,0,2.226-2.907,1.294,1.294,0,0,0-.112-1.292,2.411,2.411,0,0,0-.741-.667A2.053,2.053,0,0,0,478.588,53.894Z" transform="translate(-476.735 -52.022)"/><path class="a" d="M484.744,52.938a.578.578,0,0,0-.9.054c-.819,1.386.264,2.045,1.221,2.993a.427.427,0,0,0,.708-.411,8.433,8.433,0,0,0-.523-1.667q-.175-.4-.389-.785A1.857,1.857,0,0,0,484.744,52.938Z" transform="translate(-472.011 -52.747)"/></g></g></g></svg>