<svg xmlns="http://www.w3.org/2000/svg" xmlns:xlink="http://www.w3.org/1999/xlink" width="161.085" height="152.725" viewBox="0 0 161.085 152.725"><defs><style>.a{fill:#c4831c;}.b{fill:#905420;}.c{fill:none;}.d{fill:#b70c15;}.e{fill:#ffff43;}.f{fill:#693c15;}.g{fill:#3b3b3b;}.h{filter:url(#i);}.i{filter:url(#g);}.j{filter:url(#e);}.k{filter:url(#c);}.l{filter:url(#a);}</style><filter id="a" x="24.272" y="65.321" width="31.761" height="41.996" filterUnits="userSpaceOnUse"><feOffset dy="2" input="SourceAlpha"/><feGaussianBlur stdDeviation="3" result="b"/><feFlood flood-opacity="0.161"/><feComposite operator="in" in2="b"/><feComposite in="SourceGraphic"/></filter><filter id="c" x="0" y="9" width="161.085" height="126.376" filterUnits="userSpaceOnUse"><feOffset dy="3" input="SourceAlpha"/><feGaussianBlur stdDeviation="3" result="d"/><feFlood flood-opacity="0.161"/><feComposite operator="in" in2="d"/><feComposite in="SourceGraphic"/></filter><filter id="e" x="88.682" y="86.478" width="47.218" height="66.248" filterUnits="userSpaceOnUse"><feOffset dy="3" input="SourceAlpha"/><feGaussianBlur stdDeviation="3" result="f"/><feFlood flood-opacity="0.161"/><feComposite operator="in" in2="f"/><feComposite in="SourceGraphic"/></filter><filter id="g" x="31.129" y="0" width="53.814" height="43.736" filterUnits="userSpaceOnUse"><feOffset dx="3" dy="-6" input="SourceAlpha"/><feGaussianBlur stdDeviation="3" result="h"/><feFlood flood-opacity="0.161"/><feComposite operator="in" in2="h"/><feComposite in="SourceGraphic"/></filter><filter id="i" x="52" y="64" width="27.63" height="40.573" filterUnits="userSpaceOnUse"><feOffset dy="2" input="SourceAlpha"/><feGaussianBlur stdDeviation="3" result="j"/><feFlood flood-opacity="0.161"/><feComposite operator="in" in2="j"/><feComposite in="SourceGraphic"/></filter></defs><g transform="translate(-14518 -2009)"><g transform="translate(14555.502 2081.306) rotate(11)"><g transform="translate(0 19.726)"><path class="a" d="M480.634,54.772a.407.407,0,0,1,.093.022.647.647,0,0,1,.368.44,1.616,1.616,0,0,1,.021.393c-.011.269-.061.536-.072.8q-.033.816-.067,1.631a.252.252,0,0,1-.466.126c-.285-.453-.558-.912-.815-1.382a3.3,3.3,0,0,1-.556-1.223c-.022-.466.443-.668.83-.746a3.157,3.157,0,0,1,.4-.057A1.446,1.446,0,0,1,480.634,54.772Z" transform="translate(-475.388 -52.747)"/><path class="a" d="M482.492,54c.065.04.125.092.183.131a1.81,1.81,0,0,1,.513.4.876.876,0,0,1,.1.416.687.687,0,0,1-.106.321,3.787,3.787,0,0,1-.176.393l-.637,1.417c-.105.233-.469.107-.466-.126q.02-1.393.16-2.778a.261.261,0,0,1,.25-.239A.348.348,0,0,1,482.492,54Z" transform="translate(-480.323 -52.747)"/><path class="a" d="M477.455,53.853a.552.552,0,0,1,.374-.041.288.288,0,0,1,.174.174,10.08,10.08,0,0,1,.546,2.638.252.252,0,0,1-.427.176,6.375,6.375,0,0,1-1.315-1.717.764.764,0,0,1,.066-.763,1.424,1.424,0,0,1,.438-.394A1.211,1.211,0,0,1,477.455,53.853Z" transform="translate(-470.416 -52.747)"/><path class="a" d="M484.167,52.86a.341.341,0,0,1,.532.032c.484.819-.156,1.208-.721,1.768a.252.252,0,0,1-.418-.243,4.985,4.985,0,0,1,.309-.985q.1-.237.23-.464A1.091,1.091,0,0,1,484.167,52.86Z" transform="translate(-483.554 -52.747)"/></g><g class="l" transform="matrix(0.98, -0.19, 0.19, 0.98, -50.61, -63.82)"><path class="b" d="M476.089,39.372a8.951,8.951,0,0,1,.075-1.308,11.213,11.213,0,0,1,.221-1.2,6.779,6.779,0,0,1,.885-2.157,3.793,3.793,0,0,1,3.813-1.641,3.963,3.963,0,0,1,3.459,2.863,6.882,6.882,0,0,1,.249,2,10.269,10.269,0,0,1-.064,1.037,7.907,7.907,0,0,0-.145,1.169c.049,1.244.062,2.492.047,3.736a38.158,38.158,0,0,1-.262,4.3,16.44,16.44,0,0,1-.965,4.095,5.649,5.649,0,0,1-2.074,2.771,3.849,3.849,0,0,1-2.155.56,3.371,3.371,0,0,1-2.712-1.439,7.564,7.564,0,0,1-1.147-3.409,22.645,22.645,0,0,1-.1-4.317c.082-1.394.243-2.782.442-4.163.079-.546.165-1.091.253-1.635A7.491,7.491,0,0,0,476.089,39.372Z" transform="translate(-422.55 -50.76) rotate(11)"/></g></g><path class="b" d="M132.418,105.688c-6.706-4.385-19.019-5.807-20.85,4.472a.6.6,0,0,0-.315.5c-.4,6.727,1.377,11.329,5.908,16.42,3.795,4.265,8.077,7.506,12.485,10.984-.066,3.343-.917,7.769-4.259,9.277a.512.512,0,0,0-.236.159.449.449,0,0,0-.069.106c-.008.017-.019.031-.026.05a.508.508,0,0,0-.021.3c.08.838.042,1.686.164,2.52a3.567,3.567,0,0,0,.564,1.839.632.632,0,0,0,1.044-.276c.325-.808,1.231-1.62,2.105-1.1.5.3.9.714,1.425.98a.638.638,0,0,0,.3.066.543.543,0,0,0,.632-.291c.524-.973,2.075-.065,2.8.172a.98.98,0,0,0,1.118-.21,8.562,8.562,0,0,0,2.048-2.462,18.176,18.176,0,0,0,1.205-2.28c.35-.825.495-1.7.772-2.552.335-1.023.7-2.036.982-3.076.81-3.025,1.458-6.647,2.883-9.425a.537.537,0,0,0,.017-.063.479.479,0,0,0,.538-.443C145.012,121.277,141.072,111.347,132.418,105.688Z" transform="translate(14451.17 1997.305)"/><g transform="translate(14451.17 2000.305)"><path class="c" d="M103.169,59.126c-.028-.023-.053-.049-.081-.07-.34-.261-.035-.476-.315-.445s-.744.787-.945.974c-.667.62-1.721,1.7-2.7,1.633a4.778,4.778,0,0,1-2.344-1.625c-.788.706-1.945,1.713-2.82,1.5-.413-.1-.649-.576-.879-.883-.906-1.2-.733-1.613-2.258-.754-.917.517-1.565,1.32-2.594.773a3.09,3.09,0,0,1-.644-.493.662.662,0,0,1-.089.038,14.912,14.912,0,0,1-1.973.254c.073.8.938,1.608.421,2.467a2.365,2.365,0,0,1-1.178.8,13.414,13.414,0,0,0-2.172.671c.165-.062.228.255.467.54.178.213.426.368.588.595a1.1,1.1,0,0,1,.269.507c.064.5-.4.843-.806,1.129.285.014.571.019.855.028a.564.564,0,0,1,.862-.012c.029.032.056.053.085.084a.54.54,0,0,1,.255.251c2.357,2.217,3.045-.85,5-1.7,1.843-.8,3.391,1.038,5.066.613s1.644-3.277,4.006-3.635c.377-.058.811.214,1.189.219,3.268.04,1.142.262,1.878-.887A10.925,10.925,0,0,0,103.169,59.126Z"/><g class="k" transform="matrix(1, 0, 0, 1, 66.83, 8.69)"><path class="b" d="M2.622,76.358l0-.012a.572.572,0,0,0-.057-.178.5.5,0,0,0-.047-.066.535.535,0,0,0-.09-.094.58.58,0,0,0-.114-.065.592.592,0,0,0-.057-.027.67.67,0,0,0-.883.366c-1.706,4.347-3.554,8.711-7.85,11.07-3.254,1.787-6.887,2.409-10.089,4.353-3.494,2.121-6.229,2.047-10.107,1.959-3.36-.077-6.088,1-9.211,2.085-8.6,2.991-16.779.489-24.977-2.547-3.78-1.4-7.909-3.051-10.736-6.06-3.174-3.378-4.391-8.112-4.9-12.583.084-9.821-2.534-20.807-12.988-24.235a18.09,18.09,0,0,0-16.73,2.983c-5.487-6.559-18.054-2.916-21.286,4.23-1.554,3.436-1.758,7.756-4.594,10.528-1.966,1.92-4.986,2.206-6.74,4.394-2.771,3.455-1.418,8.072.073,11.722a.637.637,0,0,0,.475.389.639.639,0,0,0,1.235.123,6.1,6.1,0,0,1,2.113-2.116c.275.387.522,1.033.8,1.334a1.734,1.734,0,0,0,1.1.712c.874.047,1.922-.782,2.726-1.458a11.95,11.95,0,0,0,.726,1.21,13.769,13.769,0,0,1-1.714.175.647.647,0,0,0-.6.459,2.124,2.124,0,0,0,.094,1.257c.308,1.1.646,1.291-.655,1.758-.708.254-2.41.462-2.512,1.455-.074.723.717,1.482,1.224,2.015,0,.007-.008.007-.013.014-.145.021-.561.468-.661.574-.25.263-.558.566-.526.958a.666.666,0,0,0,.266.492c0,.007,0,.014,0,.021,2.787,6.054,10.521,10.35,15.582,14.307,3.155,2.468,5.683,4.748,7.265,8.571,1.238,2.994,2.089,6.137,3.2,9.183a.724.724,0,0,0,.068.112c.366,1.1.715,2.171,1.065,3.238,1.495,4.551,3.022,8.842,6.062,12.855,3.943,5.205,8.226,8.035,14.079,10.9,7.657,3.749,16.32,6.284,24.861,4.505,1.234-.257,2.542-.569,3.868-.942,3.787-1.065,7.722-2.65,10.507-5.044a.531.531,0,0,0,.2-.427.635.635,0,0,0,.629-.1c6.752-5.374,14.23-9.319,21.184-14.286,3.338-2.384,6.419-4.883,9.951-6.985a59.254,59.254,0,0,0,8.8-5.926C-2.173,119,.155,113.055,1.049,106.36,2.363,96.533,2.2,86.38,2.642,76.484A.615.615,0,0,0,2.622,76.358ZM-115.835,88.322c-.379,0-.812-.277-1.19-.219-2.362.358-2.326,3.209-4,3.635s-3.224-1.41-5.066-.612c-1.954.846-2.642,3.913-5,1.7a.536.536,0,0,0-.255-.251c-.029-.031-.055-.052-.085-.084a.563.563,0,0,0-.861.012c-.285-.009-.571-.014-.855-.028.4-.286.869-.634.8-1.129a1.109,1.109,0,0,0-.268-.507c-.163-.226-.41-.382-.589-.6-.239-.285-.3-.6-.467-.54a13.415,13.415,0,0,1,2.172-.671,2.372,2.372,0,0,0,1.179-.8c.516-.859-.349-1.67-.422-2.467a14.762,14.762,0,0,0,1.974-.254.707.707,0,0,0,.088-.038,3.081,3.081,0,0,0,.644.493c1.029.547,1.677-.256,2.594-.772,1.525-.86,1.352-.451,2.258.754.231.306.466.78.879.882.875.215,2.032-.792,2.82-1.5a4.773,4.773,0,0,0,2.345,1.625c.976.068,2.029-1.013,2.7-1.633.2-.186.671-.943.944-.974s-.025.184.315.445c.028.021.054.047.081.07a10.9,10.9,0,0,1-.855,2.578C-114.694,88.584-112.568,88.362-115.835,88.322Z" transform="translate(149.44 -34.43)"/></g><path class="a" d="M138.6,107.768a42.735,42.735,0,0,0-29.836-4.537c1.5,4.552,3.022,8.843,6.061,12.856,3.943,5.205,8.227,8.034,14.08,10.9,7.656,3.75,16.32,6.285,24.86,4.506,1.234-.257,2.543-.569,3.869-.942A42.734,42.734,0,0,0,138.6,107.768Z"/></g><g transform="translate(14451.17 2000.305)"><path class="a" d="M147.1,64.885q.419-.432.8-.88c-.352-.224-.7-.452-1.035-.7a15.336,15.336,0,0,1-2.181-1.9c-.072-.076-.129-.162-.2-.239-.317-.353-.627-.711-.9-1.091-.141.371-.282.741-.441,1.1a31.661,31.661,0,0,1-8.137,10.791.523.523,0,0,0-.13.675.647.647,0,0,0,.932.656,41.881,41.881,0,0,0,7.393-4.95C144.478,67.287,145.882,66.14,147.1,64.885Z"/><path class="a" d="M204.058,65.261c-.058-.4-.12-.8-.184-1.2q-.6.222-1.186.463a21.62,21.62,0,0,0-2.625,1.261c-.113.065-.229.12-.34.187-.309.188-.606.338-.9.493q0,.7.006,1.376a25.757,25.757,0,0,0,.639,6.5c.926,3.645,2.26,7.2,3.476,10.767l.475,3.251c.107.737,1.177.489,1.227-.166A101.639,101.639,0,0,0,204.058,65.261Z"/><path class="a" d="M189.617,67.934c-.3-.007-.581.006-.868.016-.448.016-.889.049-1.319.1q-.193.763-.382,1.487a18.962,18.962,0,0,0-.836,6.279c.3,5.062.852,9.469-.331,14.514a.644.644,0,0,0,.954.688.521.521,0,0,0,.287-.188c2.288-2.92,3.01-6.116,3.26-9.786a49.237,49.237,0,0,1,1.454-10.319c.141-.5.251-.939.332-1.357a7.517,7.517,0,0,0,.147-1.406c-.426.006-.863,0-1.314,0S190.094,67.945,189.617,67.934Z"/><path class="a" d="M162.31,69.78q-.625-.178-1.249-.37a14.173,14.173,0,0,0-.763,1.4,26.054,26.054,0,0,0-1.817,5.914c-.816,4.041-.136,8.482-3.035,11.835-.524.606.357,1.494.884.884a11.547,11.547,0,0,0,2.271-4.277,90.219,90.219,0,0,1,3.412-8.637,44.637,44.637,0,0,1,2.591-4.561c.281-.46.554-.928.825-1.4q-.638-.138-1.272-.293Q163.231,70.044,162.31,69.78Z"/><path class="a" d="M156.594,67.9c-.389-.141-.777-.282-1.166-.426-.04-.015-.08-.031-.12-.045-.877-.326-1.77-.665-2.661-1.032-.384-.158-.765-.326-1.146-.5q-.219.6-.436,1.2c-1.939,5.292-3.924,10.157-7.806,14.561a.612.612,0,0,0-.057.754.522.522,0,0,0,.649.305.571.571,0,0,0,.157-.074l.008,0c2.814-2.1,6.744-3.807,8.66-6.866a21.48,21.48,0,0,0,1.723-4.209,10.353,10.353,0,0,1,1.285-2.418C155.975,68.73,156.282,68.323,156.594,67.9Z"/><path class="a" d="M179.518,70.294a24.168,24.168,0,0,1-5.72,1.024c-.422.024-.845.041-1.266.045-.078.491-.154.979-.24,1.479-1.209,7.034-3.225,14.819-6.469,20.895a.647.647,0,0,0,.718.922.551.551,0,0,0,.531-.165c3.751-3.827,7.556-7.767,9.588-12.821.795-1.977,1.194-4.078,1.926-6.073.58-1.583,1.345-2.794,1.858-4.177a8.867,8.867,0,0,0,.424-1.566l-.463.162C180.108,70.122,179.813,70.2,179.518,70.294Z"/></g><g class="j" transform="matrix(1, 0, 0, 1, 14518, 2009)"><path class="b" d="M191.111,111.383c-2.745-6.308-8.055-11.315-15.407-10-7.628,1.366-12.033,8.644-11.058,16.093a18.6,18.6,0,0,0,2.614,7.3,25.273,25.273,0,0,0,5.056,5.829c.833.722,1.758,1.331,2.576,2.065a16.336,16.336,0,0,1,1.574,1.669c.483.574.993,1.11,1.429,1.722a7.655,7.655,0,0,1,1.466,3.484c.289,2.379-.9,4.263-2.279,6.071a.557.557,0,0,0-.092.193c-.007.015-.015.028-.021.044a.633.633,0,0,0,.02.494c1.952,4.287,7.068,3.223,10.6,1.96a.615.615,0,0,0,.282-.21.5.5,0,0,0,.29-.287,35.009,35.009,0,0,0,2.6-9.97A32.8,32.8,0,0,0,191.111,111.383Z" transform="translate(-66.83 -8.69)"/></g><path class="d" d="M219.715,32.066l-.4-.777c-.06-.115-.105-.231-.158-.349-.036-.08-.1-.207-.2-.2-.212.006-.309.363-.375.517-.1.233-.2.466-.289.7s-.146.479-.228.717c-.141.408-.312.805-.485,1.2a9,9,0,0,0-.784,2.351,4.564,4.564,0,0,0,0,1.268c.337,2.4,2.271,5.473.833,8.268a.688.688,0,0,0,.224.826.837.837,0,0,0,.916-.021,1.992,1.992,0,0,0,.708-.76,9.373,9.373,0,0,0,1.382-3.817,7.055,7.055,0,0,0-.077-1.9A6.947,6.947,0,0,1,221,37.676a6.16,6.16,0,0,0-.158-2.756,13.324,13.324,0,0,0-.54-1.5c-.156-.378-.292-.776-.479-1.138Z" transform="translate(14451.17 2000.305)"/><path class="e" d="M219.024,37.287a4.406,4.406,0,0,0-.061,1.316,4.957,4.957,0,0,1-.08,1.7,20.237,20.237,0,0,0-.7-2.983,4.023,4.023,0,0,1,.469-2.463A4.2,4.2,0,0,1,219.024,37.287Z" transform="translate(14451.484 2003.09)"/><path class="f" d="M82.6,63.968a13.414,13.414,0,0,1,2.172-.671,2.365,2.365,0,0,0,1.178-.8c.517-.859-.348-1.67-.421-2.467a14.912,14.912,0,0,0,1.973-.254.662.662,0,0,0,.089-.038,3.09,3.09,0,0,0,.644.493c1.029.547,1.677-.256,2.594-.773,1.525-.859,1.352-.45,2.258.754.23.307.466.781.879.883.875.215,2.032-.792,2.82-1.5a4.778,4.778,0,0,0,2.344,1.625c.976.068,2.03-1.013,2.7-1.633.2-.187.672-.943.945-.974s-.025.184.315.445c.028.021.053.047.081.07a10.925,10.925,0,0,1-.855,2.577c-.736,1.149,1.39.927-1.878.887-.378-.005-.812-.277-1.189-.219-2.362.358-2.326,3.209-4.006,3.635s-3.223-1.41-5.066-.613c-1.954.847-2.642,3.914-5,1.7a.54.54,0,0,0-.255-.251c-.029-.031-.056-.052-.085-.084a.564.564,0,0,0-.862.012c-.284-.009-.57-.014-.855-.028.4-.286.87-.634.806-1.129a1.1,1.1,0,0,0-.269-.507c-.162-.227-.41-.382-.588-.595C82.829,64.223,82.766,63.906,82.6,63.968Z" transform="translate(14451.17 2000.305)"/><g class="i" transform="matrix(1, 0, 0, 1, 14518, 2009)"><path class="b" d="M126.784,24.592c-9.15-3-18.291,1.828-22.742,9.941-.387.706.692,1.337,1.079.631.015-.027.033-.052.047-.078L138.52,48.573c0,.084,0,.17,0,.254a.625.625,0,0,0,1.25,0C139.856,39.006,137.238,28.02,126.784,24.592Z" transform="translate(-66.83 -8.69)"/></g><g transform="translate(14104.116 2042.238)"><path class="a" d="M529.426,102.946a3.014,3.014,0,0,0-1.072.039,2.637,2.637,0,0,0-1.35.632,3.757,3.757,0,0,0-.972,1.937,11.794,11.794,0,0,0-.232,2.544c0,.832.041,1.662.067,2.493.008.266.015.531.013.8,0,.015.012.02.014.034,0,.155.118.3.3.226a8.5,8.5,0,0,0,4.689-4.588,3.491,3.491,0,0,0,.2-2.963,2.214,2.214,0,0,0-.738-.759,3.534,3.534,0,0,0-.48-.26A1.8,1.8,0,0,0,529.426,102.946Z"/><path class="a" d="M525.324,102.816a3.466,3.466,0,0,0-.98-.034,6,6,0,0,0-.926.087,3.094,3.094,0,0,0-1.613.777c-.993.954-1.231,2.409-1.858,3.584-.017.033,0,.061-.008.092a.254.254,0,0,0-.052.2l.023.138a.251.251,0,0,0,.241.183c1.25.08,3.366.25,4.416-.638.921-.778.854-2.093.916-3.186a5.58,5.58,0,0,1,.083-.762C525.611,103.029,525.555,102.884,525.324,102.816Z"/><path class="a" d="M536.152,104.253a2.379,2.379,0,0,0-1.015-.909,2.185,2.185,0,0,0-2.566.677,2.381,2.381,0,0,0-.439,1.226,6.243,6.243,0,0,0,.551,2.8,3.926,3.926,0,0,0,.161.363.244.244,0,0,0,.05.046.241.241,0,0,0,.138.069c.3.051.623.048.929.078s.633.066.948.106.631.085.945.134a4.047,4.047,0,0,0,.9.134c.139-.013.357-.05.366-.225a1.86,1.86,0,0,0-.112-.456c-.038-.159-.068-.319-.093-.48-.05-.328-.081-.657-.112-.987a7.811,7.811,0,0,0-.346-1.937A3.326,3.326,0,0,0,536.152,104.253Z"/></g><g transform="translate(14104.941 2039.878)"><path class="a" d="M474.276,106.331c-.032.018-.063.036-.093.056a3.269,3.269,0,0,0-.741.94,12.406,12.406,0,0,0-.652,1.1,12.212,12.212,0,0,0-.941,2.375q-.066.237-.123.477a.243.243,0,0,0,.031.184.249.249,0,0,0,.108.086c.018.01.023.03.046.036a7.618,7.618,0,0,0,4.436.122,3.927,3.927,0,0,0,.819-.392,1.369,1.369,0,0,0,.37-.269,1.25,1.25,0,0,0,.106-.4,3.523,3.523,0,0,0,.086-.458,4.788,4.788,0,0,0,.02-.794,4.863,4.863,0,0,0-.349-1.578,2.419,2.419,0,0,0-2.194-1.7A2.128,2.128,0,0,0,474.276,106.331Z"/><path class="a" d="M472.251,105.492a1.183,1.183,0,0,0-.339-.243,1.578,1.578,0,0,0-.43-.1,1.976,1.976,0,0,0-.392-.024,2.1,2.1,0,0,0-.744.18,3.973,3.973,0,0,0-1.321,1.035,16.71,16.71,0,0,0-1.888,2.872l-.053.091c-.01.017,0,.031-.006.048a.252.252,0,0,0-.013.154.226.226,0,0,0,.221.2q2.611.057,5.219-.063a.2.2,0,0,0,.2-.131.492.492,0,0,0,.017-.143c.012-.388.139-.752.174-1.136a5.391,5.391,0,0,0,0-1.136A2.813,2.813,0,0,0,472.251,105.492Z"/><path class="a" d="M481.634,108.33a3.384,3.384,0,0,0-2.591-1.372.185.185,0,0,0-.19.089c-1.006.927-.762,2.3-.447,3.491.006.025.028.03.04.05s.026.032.039.049.037.046.065.056.024.034.048.042l2.914.925a.254.254,0,0,0,.283-.115A3.438,3.438,0,0,0,481.634,108.33Z"/></g><path class="g" d="M459.687-1.951a.535.535,0,0,0-.609-.424.637.637,0,0,0-.334.053L453.414.172a.489.489,0,0,0-.306.421.6.6,0,0,0-.066.178c-.411,2.7-.2,8.271,4.1,7.358C460.987,7.311,460.344.714,459.687-1.951Z" transform="translate(14106.103 2043.378)"/><g transform="translate(14103.84 2046.979)"><g class="h" transform="matrix(1, 0, 0, 1, 414.16, -37.98)"><path class="b" d="M483.863,39.372a8.951,8.951,0,0,0-.075-1.308,11.221,11.221,0,0,0-.221-1.2,6.779,6.779,0,0,0-.885-2.157,3.793,3.793,0,0,0-3.813-1.641,3.963,3.963,0,0,0-3.459,2.863,6.882,6.882,0,0,0-.249,2,10.269,10.269,0,0,0,.064,1.037,7.908,7.908,0,0,1,.145,1.169c-.049,1.244-.062,2.492-.047,3.736a38.165,38.165,0,0,0,.262,4.3,16.44,16.44,0,0,0,.965,4.1,5.649,5.649,0,0,0,2.074,2.771,3.848,3.848,0,0,0,2.155.56,3.371,3.371,0,0,0,2.712-1.439,7.564,7.564,0,0,0,1.147-3.409,22.645,22.645,0,0,0,.1-4.317c-.082-1.394-.243-2.782-.442-4.163-.079-.546-.165-1.091-.253-1.635A7.491,7.491,0,0,1,483.863,39.372Z" transform="translate(-414.16 37.98)"/></g><path class="a" d="M479.624,54.772a.407.407,0,0,0-.093.022.647.647,0,0,0-.368.44,1.616,1.616,0,0,0-.021.393c.011.269.061.536.072.805q.033.816.067,1.631a.252.252,0,0,0,.466.126c.285-.453.558-.912.815-1.382a3.3,3.3,0,0,0,.556-1.223c.022-.466-.443-.668-.83-.746a3.157,3.157,0,0,0-.4-.057A1.446,1.446,0,0,0,479.624,54.772Z"/><path class="a" d="M482.7,54c-.065.04-.125.092-.183.131a1.81,1.81,0,0,0-.513.4.876.876,0,0,0-.1.416.687.687,0,0,0,.106.321,3.78,3.78,0,0,0,.176.393l.637,1.417c.105.233.469.107.466-.126q-.02-1.394-.16-2.778a.261.261,0,0,0-.25-.239A.348.348,0,0,0,482.7,54Z"/><path class="a" d="M477.83,53.853a.552.552,0,0,0-.374-.041.288.288,0,0,0-.174.174,10.082,10.082,0,0,0-.546,2.638.252.252,0,0,0,.427.176,6.376,6.376,0,0,0,1.315-1.717.764.764,0,0,0-.066-.763,1.424,1.424,0,0,0-.438-.394A1.211,1.211,0,0,0,477.83,53.853Z"/><path class="a" d="M484.257,52.86a.341.341,0,0,0-.532.032c-.484.819.156,1.208.721,1.768a.252.252,0,0,0,.418-.243,4.985,4.985,0,0,0-.309-.985q-.1-.237-.23-.464A1.091,1.091,0,0,0,484.257,52.86Z"/></g></g></svg>