<svg xmlns="http://www.w3.org/2000/svg" width="195" height="123.149" viewBox="0 0 195 123.149"><defs><style>.a{fill:#fff;}</style></defs><path class="a" d="M329.05,226.885h0c-.69-.061-1.371-.152-2.044-.267a13.353,13.353,0,0,0-2.98,5.27,27.324,27.324,0,0,0-4.107,3.655,24.139,24.139,0,0,0-5.391,9.333,37.481,37.481,0,0,1-6.58,12.538.3.3,0,0,0-.06.152c-1.288,1.521-1.835,5.277.754,5.692a3.342,3.342,0,0,0,3.1-1.612,12.8,12.8,0,0,0,2.355-4.834c2.4-6.928,4.735-13.561,8.949-19.661.647-.681,1.318-1.322,2-1.951,3.1,4.1,6.2,6.975,11.459,7.984a42.629,42.629,0,0,0,8.791.73c3.733-.075,7.658-1.631,11.017.509a.907.907,0,0,0,.169.18,89.593,89.593,0,0,1,9.354,8.116c-1.77,2.35-4.427,4.814-4.738,7.53-.328,2.856,2.023,5.523,4.042,7.315a1.238,1.238,0,0,0-.216,1.144,2.1,2.1,0,0,0,.852.979q.87.7,1.7,1.435a.344.344,0,0,0,.58-.241,11.5,11.5,0,0,0-.167-2.851,9.561,9.561,0,0,0,1.513,1.685.345.345,0,0,0,.569-.151,10.873,10.873,0,0,0,.368-2.564,3.388,3.388,0,0,0-.373-2.122.9.9,0,0,0-.408-.267A2.613,2.613,0,0,0,368.272,263a.348.348,0,0,0-.109-.125c-2.551-1.774-.214-4.378,1.643-6.418a66.4,66.4,0,0,0,6.064,5.007,10.025,10.025,0,0,0-.622,2.308,3.552,3.552,0,0,0-2.385,2.242,7.422,7.422,0,0,0,.628,4.468.979.979,0,0,0,.712.575c-.127,1.43.508,2.888.705,4.29a.321.321,0,0,0,.437.218.349.349,0,0,0,.452-.108c.909-1.278,2.144-2.817,2.152-4.456a.285.285,0,0,0-.165-.275c-.018-.027-.044-.044-.061-.068a6.239,6.239,0,0,0,1.4-2.369,2.808,2.808,0,0,0,.4,1.308l-.02.014a.279.279,0,0,0-.054.35c0,.007-.005.011,0,.019l.752,3.3c.061.264.506.355.622.082.3-.708.732-1.341,1.074-2.027.207-.417.6-1.133.464-1.609a.644.644,0,0,0-.206-.3c.982-.822,1.212-2.366,1.316-3.773a25.816,25.816,0,0,0,5.134,1.367,40.495,40.495,0,0,0,8.72.357,13.342,13.342,0,0,0,5.131,11.288c1.556,2.923.272,5.009-1.544,6.951a.255.255,0,0,0-.192-.007c-1.831.63-4.012.359-5.348,2.005a3.231,3.231,0,0,0-.753,1.6.658.658,0,0,0-.218-.03,1.929,1.929,0,0,0-1.3.829c-.636.72-1.229,1.476-1.8,2.248a.344.344,0,0,0,.2.5,11.671,11.671,0,0,0,2.091.222c.152.01.312.027.472.046a14.7,14.7,0,0,0-1.056,2.675.3.3,0,0,0,.29.4c.029.008.044.034.078.034,1.883.029,3.532-.837,5.2-1.619.014-.005.011-.019.022-.026.041-.016.06-.063.087-.1s.052-.052.057-.086c0-.014.016-.015.019-.03a2.824,2.824,0,0,0,.025-.617A8.891,8.891,0,0,1,400,293.3a5.819,5.819,0,0,0,.994-.595c-.184,1.244-.324,2.491-.411,3.747a.342.342,0,0,0,.512.294c.926-.663,1.867-1.3,2.829-1.911a3.58,3.58,0,0,0,1.514-1.25,3.006,3.006,0,0,0,.263-2.056c1.338-1.39,1.711-3.1,2.376-4.855.715-1.886,2.015-3.428,2.835-5.222a.739.739,0,0,0,.1-.086c3.955-5.078,3.489-10.365-.412-15.492-.191-.25-.407-.5-.634-.749,3.655-1,7.269-2.233,10.823-3.5.1.342.2.675.308,1h0a.77.77,0,0,0,.014.133c1.119,3.541,2.265,7,4.564,9.967,1.4,1.808,3.681,3.056,4.964,4.852,4.528,6.346.893,9.986-3.025,13.428-.908-.41-1.794.2-2.589.885a9.185,9.185,0,0,0-2.884,4.643.323.323,0,0,0,.042.256,1.129,1.129,0,0,0,.2.158.335.335,0,0,0,.252-.016h0a18.423,18.423,0,0,1,3.726-1.043l.057-.014a12.678,12.678,0,0,0-.726,2.023.228.228,0,0,0-.014.044c-.005.019-.014.041-.019.061s.011.038.011.06a.351.351,0,0,0,.02.131.282.282,0,0,0,.09.129.285.285,0,0,0,.057.039.326.326,0,0,0,.335.008c1.551-.406,3.485-.376,4.854-1.278a2.721,2.721,0,0,0,.96-1.4,20.387,20.387,0,0,1,2.041-.034c-.2,1.032-.43,2.054-.7,3.07a.343.343,0,0,0,.569.331c.983-.9,2.046-1.694,3.036-2.576.692-.615.361-1.327-.118-1.989a.336.336,0,0,0-.154-.116c-.007-.005-.015-.007-.02-.012,1.4-2.1,1.818-3.971,2.486-6.485.914-3.424,2.84-6.451,3.818-9.836,1.141-3.947,1.19-8.731-2.039-11.62l0-.005a28.917,28.917,0,0,0,3.14-6.117c.014-.035.03-.071.044-.106.193-.531.357-1.071.516-1.613.089-.293.177-.585.255-.881.12-.46.225-.923.32-1.39.086-.407.159-.817.226-1.228s.128-.81.174-1.22c.061-.524.1-1.055.131-1.586.019-.325.049-.648.057-.976.022-.875.014-1.759-.045-2.652-.018-.275-.039-.555-.063-.836a29.385,29.385,0,0,0,3.018-3.764c3.056-4.577,4.766-9.928,7.495-14.7,1.726-3.017,3.631-5.928,5.576-8.806,1.894-2.806,3.653-5.7,5.734-8.374,1.619-2.079,3.379-4.49,6.757-8.264,4.431-4.949,6.828-7.856,11.47-12.578,4.437-4.515,9.688-8.1,14.325-12.4q.77-.713,1.517-1.454a.769.769,0,0,0,.117-.991.7.7,0,0,0-.975-.419.5.5,0,0,0-.071.026,85.91,85.91,0,0,0-16.2,8.208c-8.205,5.216-14.735,11.134-22.588,16.8a116.734,116.734,0,0,1-11,6.824c-2.113,1.191-4.165,2.486-6.308,3.626a28.231,28.231,0,0,1-7.673,3.036,8.24,8.24,0,0,1-4.114-.016,5.027,5.027,0,0,1-1.714-1.171q-.931-.815-1.9-1.586a37.829,37.829,0,0,0-7.978-4.922,36.671,36.671,0,0,0-9.278-2.7c-.136-.022-.274-.042-.411-.063a58.287,58.287,0,0,0-19.548.464,66.693,66.693,0,0,0-6.651,1.587c-1.076.325-2.14.69-3.184,1.11-1,.4-1.91.956-2.892,1.4-.753.34-1.047.4-1.526-.29a.823.823,0,0,0-.1-.1h0a14.511,14.511,0,0,0,.784-2.609,8.111,8.111,0,0,1,.172,2.15.3.3,0,0,0,.325.327.26.26,0,0,0,.3-.082c.893-1.066.81-2.494.771-3.819a5.35,5.35,0,0,0-.674-2.558,5.335,5.335,0,0,1,1.235,2.438.282.282,0,0,0,.283.219.331.331,0,0,0,.121.01h0a.247.247,0,0,0,.272-.225,9.968,9.968,0,0,0-.59-5.281,6.359,6.359,0,0,0-2.482-2.928,6.881,6.881,0,0,1,4.186,2.618c.248.328.787.037.611-.293a.243.243,0,0,0,.008-.157c-1.5-3.807-3.51-7.661-7.379-8.926a6.9,6.9,0,0,1,4.687,1.594.28.28,0,0,0,.162.069l.026.011a.275.275,0,0,0,.094.005c.221.022.456-.125.362-.391a8.649,8.649,0,0,0-4.653-5.424,18.238,18.238,0,0,0-4.121-1.247,12.555,12.555,0,0,1,4.773.323c.014,0,.022-.007.035-.005a.255.255,0,0,0,.152-.02.3.3,0,0,0,.1-.05.355.355,0,0,0,.048-.068.349.349,0,0,0,.065-.133.321.321,0,0,0-.008-.1.275.275,0,0,0-.05-.144c-.011-.015,0-.031-.016-.046-3.1-3.415-9.812-4.216-14.486-3.069a22.2,22.2,0,0,1,5.654-2.881.342.342,0,0,0,.135-.557.284.284,0,0,0-.282-.2,28.469,28.469,0,0,0-15.825,5.259,5.661,5.661,0,0,0-3.184.027,23.8,23.8,0,0,0-2.538.705,6.773,6.773,0,0,1,2.809-1.748.359.359,0,0,0,.15-.086.2.2,0,0,0,.033-.044.358.358,0,0,0,.076-.211l0-.015a.417.417,0,0,0-.084-.246l0,0a.321.321,0,0,0-.257-.12l-.008,0a12.7,12.7,0,0,0-4.619.644,14.721,14.721,0,0,0-2.975,1.65,8.125,8.125,0,0,1,1.931-2.1.381.381,0,0,0,.154-.282c.078-.227-.008-.5-.308-.471-4.905.54-8.47,4.713-10.83,8.735a.342.342,0,0,0-.049.161,10.025,10.025,0,0,0-5.6,4.689,17.549,17.549,0,0,0-1.427,5.82,15.663,15.663,0,0,1-4.5,9.767c-2.366,2.517-3.988,4.452-4.044,8.016.266,6.2,4.719,8.757,9.917,9.636m40,39.54a1.506,1.506,0,0,0,.123.609.848.848,0,0,0-.508-.165,2.881,2.881,0,0,0,.037-.613,2.293,2.293,0,0,0,.347.165Z" transform="translate(-306.81 -176.004)"/></svg>