<svg xmlns="http://www.w3.org/2000/svg" width="145.263" height="129.906" viewBox="0 0 145.263 129.906"><defs><style>.a{fill:#fff;}</style></defs><g transform="translate(-14527 -2024)"><g transform="translate(14555.502 2081.306) rotate(11)"><g transform="translate(0 19.726)"><path class="a" d="M480.634,54.772a.407.407,0,0,1,.093.022.647.647,0,0,1,.368.44,1.616,1.616,0,0,1,.021.393c-.011.269-.061.536-.072.8q-.033.816-.067,1.631a.252.252,0,0,1-.466.126c-.285-.453-.558-.912-.815-1.382a3.3,3.3,0,0,1-.556-1.223c-.022-.466.443-.668.83-.746a3.157,3.157,0,0,1,.4-.057A1.446,1.446,0,0,1,480.634,54.772Z" transform="translate(-475.388 -52.747)"/><path class="a" d="M482.492,54c.065.04.125.092.183.131a1.81,1.81,0,0,1,.513.4.876.876,0,0,1,.1.416.687.687,0,0,1-.106.321,3.787,3.787,0,0,1-.176.393l-.637,1.417c-.105.233-.469.107-.466-.126q.02-1.393.16-2.778a.261.261,0,0,1,.25-.239A.348.348,0,0,1,482.492,54Z" transform="translate(-480.323 -52.747)"/><path class="a" d="M477.455,53.853a.552.552,0,0,1,.374-.041.288.288,0,0,1,.174.174,10.08,10.08,0,0,1,.546,2.638.252.252,0,0,1-.427.176,6.375,6.375,0,0,1-1.315-1.717.764.764,0,0,1,.066-.763,1.424,1.424,0,0,1,.438-.394A1.211,1.211,0,0,1,477.455,53.853Z" transform="translate(-470.416 -52.747)"/><path class="a" d="M484.167,52.86a.341.341,0,0,1,.532.032c.484.819-.156,1.208-.721,1.768a.252.252,0,0,1-.418-.243,4.985,4.985,0,0,1,.309-.985q.1-.237.23-.464A1.091,1.091,0,0,1,484.167,52.86Z" transform="translate(-483.554 -52.747)"/></g><path class="a" d="M476.089,39.372a8.951,8.951,0,0,1,.075-1.308,11.213,11.213,0,0,1,.221-1.2,6.779,6.779,0,0,1,.885-2.157,3.793,3.793,0,0,1,3.813-1.641,3.963,3.963,0,0,1,3.459,2.863,6.882,6.882,0,0,1,.249,2,10.269,10.269,0,0,1-.064,1.037,7.907,7.907,0,0,0-.145,1.169c.049,1.244.062,2.492.047,3.736a38.158,38.158,0,0,1-.262,4.3,16.44,16.44,0,0,1-.965,4.095,5.649,5.649,0,0,1-2.074,2.771,3.849,3.849,0,0,1-2.155.56,3.371,3.371,0,0,1-2.712-1.439,7.564,7.564,0,0,1-1.147-3.409,22.645,22.645,0,0,1-.1-4.317c.082-1.394.243-2.782.442-4.163.079-.546.165-1.091.253-1.635A7.491,7.491,0,0,0,476.089,39.372Z" transform="translate(-475.082 -33.021)"/></g><path class="a" d="M132.418,105.688c-6.706-4.385-19.019-5.807-20.85,4.472a.6.6,0,0,0-.315.5c-.4,6.727,1.377,11.329,5.908,16.42,3.795,4.265,8.077,7.506,12.485,10.984-.066,3.343-.917,7.769-4.259,9.277a.512.512,0,0,0-.236.159.449.449,0,0,0-.069.106c-.008.017-.019.031-.026.05a.508.508,0,0,0-.021.3c.08.838.042,1.686.164,2.52a3.567,3.567,0,0,0,.564,1.839.632.632,0,0,0,1.044-.276c.325-.808,1.231-1.62,2.105-1.1.5.3.9.714,1.425.98a.638.638,0,0,0,.3.066.543.543,0,0,0,.632-.291c.524-.973,2.075-.065,2.8.172a.98.98,0,0,0,1.118-.21,8.562,8.562,0,0,0,2.048-2.462,18.176,18.176,0,0,0,1.205-2.28c.35-.825.495-1.7.772-2.552.335-1.023.7-2.036.982-3.076.81-3.025,1.458-6.647,2.883-9.425a.537.537,0,0,0,.017-.063.479.479,0,0,0,.538-.443C145.012,121.277,141.072,111.347,132.418,105.688Z" transform="translate(14451.17 1997.305)"/><path class="a" d="M191.111,111.383c-2.745-6.308-8.055-11.315-15.407-10-7.628,1.366-12.033,8.644-11.058,16.093a18.6,18.6,0,0,0,2.614,7.3,25.273,25.273,0,0,0,5.056,5.829c.833.722,1.758,1.331,2.576,2.065a16.336,16.336,0,0,1,1.574,1.669c.483.574.993,1.11,1.429,1.722a7.655,7.655,0,0,1,1.466,3.484c.289,2.379-.9,4.263-2.279,6.071a.557.557,0,0,0-.092.193c-.007.015-.015.028-.021.044a.633.633,0,0,0,.02.494c1.952,4.287,7.068,3.223,10.6,1.96a.615.615,0,0,0,.282-.21.5.5,0,0,0,.29-.287,35.009,35.009,0,0,0,2.6-9.97A32.8,32.8,0,0,0,191.111,111.383Z" transform="translate(14451.17 2000.305)"/><path class="a" d="M219.715,32.066l-.4-.777c-.06-.115-.105-.231-.158-.349-.036-.08-.1-.207-.2-.2-.212.006-.309.363-.375.517-.1.233-.2.466-.289.7s-.146.479-.228.717c-.141.408-.312.805-.485,1.2a9,9,0,0,0-.784,2.351,4.564,4.564,0,0,0,0,1.268c.337,2.4,2.271,5.473.833,8.268a.688.688,0,0,0,.224.826.837.837,0,0,0,.916-.021,1.992,1.992,0,0,0,.708-.76,9.373,9.373,0,0,0,1.382-3.817,7.055,7.055,0,0,0-.077-1.9A6.947,6.947,0,0,1,221,37.676a6.16,6.16,0,0,0-.158-2.756,13.324,13.324,0,0,0-.54-1.5c-.156-.378-.292-.776-.479-1.138Z" transform="translate(14451.17 2000.305)"/><path class="a" d="M219.024,37.287a4.406,4.406,0,0,0-.061,1.316,4.957,4.957,0,0,1-.08,1.7,20.237,20.237,0,0,0-.7-2.983,4.023,4.023,0,0,1,.469-2.463A4.2,4.2,0,0,1,219.024,37.287Z" transform="translate(14451.484 2003.09)"/><g transform="translate(14104.116 2042.238)"><path class="a" d="M529.426,102.946a3.014,3.014,0,0,0-1.072.039,2.637,2.637,0,0,0-1.35.632,3.757,3.757,0,0,0-.972,1.937,11.794,11.794,0,0,0-.232,2.544c0,.832.041,1.662.067,2.493.008.266.015.531.013.8,0,.015.012.02.014.034,0,.155.118.3.3.226a8.5,8.5,0,0,0,4.689-4.588,3.491,3.491,0,0,0,.2-2.963,2.214,2.214,0,0,0-.738-.759,3.534,3.534,0,0,0-.48-.26A1.8,1.8,0,0,0,529.426,102.946Z"/><path class="a" d="M525.324,102.816a3.466,3.466,0,0,0-.98-.034,6,6,0,0,0-.926.087,3.094,3.094,0,0,0-1.613.777c-.993.954-1.231,2.409-1.858,3.584-.017.033,0,.061-.008.092a.254.254,0,0,0-.052.2l.023.138a.251.251,0,0,0,.241.183c1.25.08,3.366.25,4.416-.638.921-.778.854-2.093.916-3.186a5.58,5.58,0,0,1,.083-.762C525.611,103.029,525.555,102.884,525.324,102.816Z"/><path class="a" d="M536.152,104.253a2.379,2.379,0,0,0-1.015-.909,2.185,2.185,0,0,0-2.566.677,2.381,2.381,0,0,0-.439,1.226,6.243,6.243,0,0,0,.551,2.8,3.926,3.926,0,0,0,.161.363.244.244,0,0,0,.05.046.241.241,0,0,0,.138.069c.3.051.623.048.929.078s.633.066.948.106.631.085.945.134a4.047,4.047,0,0,0,.9.134c.139-.013.357-.05.366-.225a1.86,1.86,0,0,0-.112-.456c-.038-.159-.068-.319-.093-.48-.05-.328-.081-.657-.112-.987a7.811,7.811,0,0,0-.346-1.937A3.326,3.326,0,0,0,536.152,104.253Z"/></g><g transform="translate(14104.941 2039.878)"><path class="a" d="M474.276,106.331c-.032.018-.063.036-.093.056a3.269,3.269,0,0,0-.741.94,12.406,12.406,0,0,0-.652,1.1,12.212,12.212,0,0,0-.941,2.375q-.066.237-.123.477a.243.243,0,0,0,.031.184.249.249,0,0,0,.108.086c.018.01.023.03.046.036a7.618,7.618,0,0,0,4.436.122,3.927,3.927,0,0,0,.819-.392,1.369,1.369,0,0,0,.37-.269,1.25,1.25,0,0,0,.106-.4,3.523,3.523,0,0,0,.086-.458,4.788,4.788,0,0,0,.02-.794,4.863,4.863,0,0,0-.349-1.578,2.419,2.419,0,0,0-2.194-1.7A2.128,2.128,0,0,0,474.276,106.331Z"/><path class="a" d="M472.251,105.492a1.183,1.183,0,0,0-.339-.243,1.578,1.578,0,0,0-.43-.1,1.976,1.976,0,0,0-.392-.024,2.1,2.1,0,0,0-.744.18,3.973,3.973,0,0,0-1.321,1.035,16.71,16.71,0,0,0-1.888,2.872l-.053.091c-.01.017,0,.031-.006.048a.252.252,0,0,0-.013.154.226.226,0,0,0,.221.2q2.611.057,5.219-.063a.2.2,0,0,0,.2-.131.492.492,0,0,0,.017-.143c.012-.388.139-.752.174-1.136a5.391,5.391,0,0,0,0-1.136A2.813,2.813,0,0,0,472.251,105.492Z"/><path class="a" d="M481.634,108.33a3.384,3.384,0,0,0-2.591-1.372.185.185,0,0,0-.19.089c-1.006.927-.762,2.3-.447,3.491.006.025.028.03.04.05s.026.032.039.049.037.046.065.056.024.034.048.042l2.914.925a.254.254,0,0,0,.283-.115A3.438,3.438,0,0,0,481.634,108.33Z"/></g><path class="a" d="M2.62,76.346a.572.572,0,0,0-.057-.178.5.5,0,0,0-.047-.066.535.535,0,0,0-.09-.094.58.58,0,0,0-.114-.065.592.592,0,0,0-.057-.027.67.67,0,0,0-.883.366c-1.706,4.347-3.554,8.711-7.85,11.07-3.254,1.787-6.887,2.409-10.089,4.353-3.494,2.121-6.229,2.047-10.107,1.959-3.36-.077-6.088,1-9.211,2.085-8.6,2.991-16.779.489-24.977-2.547-3.78-1.4-7.909-3.051-10.736-6.06-3.174-3.378-4.391-8.112-4.9-12.583.084-9.821-2.534-20.807-12.988-24.235a18.09,18.09,0,0,0-16.73,2.983c-5.487-6.559-18.054-2.916-21.286,4.23-1.554,3.436-1.758,7.756-4.594,10.528-1.966,1.92-4.986,2.206-6.74,4.394-2.771,3.455-1.418,8.072.073,11.722a.637.637,0,0,0,.475.389.639.639,0,0,0,1.235.123,6.1,6.1,0,0,1,2.113-2.116c.275.387.522,1.033.8,1.334a1.734,1.734,0,0,0,1.1.712c.874.047,1.922-.782,2.726-1.458a11.95,11.95,0,0,0,.726,1.21,13.769,13.769,0,0,1-1.714.175.647.647,0,0,0-.6.459,2.124,2.124,0,0,0,.094,1.257c.308,1.1.646,1.291-.655,1.758-.708.254-2.41.462-2.512,1.455-.074.723.717,1.482,1.224,2.015,0,.007-.008.007-.013.014-.145.021-.561.468-.661.574-.25.263-.558.566-.526.958a.666.666,0,0,0,.266.492c0,.007,0,.014,0,.021,2.787,6.054,10.521,10.35,15.582,14.307,3.155,2.468,5.683,4.748,7.265,8.571,1.238,2.994,2.089,6.137,3.2,9.183a.724.724,0,0,0,.068.112c.366,1.1.715,2.171,1.065,3.238,1.495,4.551,3.022,8.842,6.062,12.855,3.943,5.205,8.226,8.035,14.079,10.9,7.657,3.749,16.32,6.284,24.861,4.505,1.234-.257,2.542-.569,3.868-.942,3.787-1.065,7.722-2.65,10.507-5.044a.531.531,0,0,0,.2-.427.635.635,0,0,0,.629-.1c6.752-5.374,14.23-9.319,21.184-14.286,3.338-2.384,6.419-4.883,9.951-6.985a59.254,59.254,0,0,0,8.8-5.926C-2.173,119,.155,113.055,1.049,106.36,2.363,96.533,2.2,86.38,2.642,76.484a.615.615,0,0,0-.02-.126Z" transform="translate(14667.442 1974.57)"/></g></svg>