<svg xmlns="http://www.w3.org/2000/svg" xmlns:xlink="http://www.w3.org/1999/xlink" width="159.1" height="120.47" viewBox="0 0 159.1 120.47"><defs><style>.a{fill:#fff;}.b{filter:url(#k);}.c{filter:url(#i);}.d{filter:url(#g);}.e{filter:url(#e);}.f{filter:url(#c);}.g{filter:url(#a);}</style><filter id="a" x="40.791" y="65.129" width="62.574" height="55.341" filterUnits="userSpaceOnUse"><feOffset dy="3" input="SourceAlpha"/><feGaussianBlur stdDeviation="3" result="b"/><feFlood flood-opacity="0.161"/><feComposite operator="in" in2="b"/><feComposite in="SourceGraphic"/></filter><filter id="c" x="13.452" y="60.01" width="32.209" height="38.918" filterUnits="userSpaceOnUse"><feOffset dy="6" input="SourceAlpha"/><feGaussianBlur stdDeviation="3" result="d"/><feFlood flood-opacity="0.161"/><feComposite operator="in" in2="d"/><feComposite in="SourceGraphic"/></filter><filter id="e" x="17.147" y="74.988" width="20.804" height="21.002" filterUnits="userSpaceOnUse"><feOffset dy="3" input="SourceAlpha"/><feGaussianBlur stdDeviation="3" result="f"/><feFlood flood-opacity="0.161"/><feComposite operator="in" in2="f"/><feComposite in="SourceGraphic"/></filter><filter id="g" x="14.792" y="74.718" width="20.487" height="20.872" filterUnits="userSpaceOnUse"><feOffset dy="3" input="SourceAlpha"/><feGaussianBlur stdDeviation="3" result="h"/><feFlood flood-opacity="0.161"/><feComposite operator="in" in2="h"/><feComposite in="SourceGraphic"/></filter><filter id="i" x="19.827" y="74.581" width="19.819" height="19.96" filterUnits="userSpaceOnUse"><feOffset dy="3" input="SourceAlpha"/><feGaussianBlur stdDeviation="3" result="j"/><feFlood flood-opacity="0.161"/><feComposite operator="in" in2="j"/><feComposite in="SourceGraphic"/></filter><filter id="k" x="32.583" y="0" width="52.018" height="72.716" filterUnits="userSpaceOnUse"><feOffset dy="3" input="SourceAlpha"/><feGaussianBlur stdDeviation="3" result="l"/><feFlood flood-opacity="0.161"/><feComposite operator="in" in2="l"/><feComposite in="SourceGraphic"/></filter></defs><g transform="translate(-548 -76.144)"><g transform="translate(-13983 -2135)"><g class="g" transform="matrix(1, 0, 0, 1, 14531, 2211.14)"><path class="a" d="M441.507,77.341a.74.74,0,0,0-.087-.022.57.57,0,0,0-.063-.041c-5.794-2.351-12.646-4.1-18.773-1.894-4.556,1.643-8.371,5.876-8.064,10.948.3,4.982,4.134,8.971,8.6,10.738a16.945,16.945,0,0,0,8.6,1.018c4.384-.631,7.9-3.7,12.449-3.5a.579.579,0,0,0,.143-.022c1.678.784,1.815,3.3,4.62,2.664,2.2-.5,3.408-2.832,3.661-4.873C453.4,85.793,446.821,79.863,441.507,77.341Z" transform="matrix(0.91, 0.41, -0.41, 0.91, -288.91, -165.4)"/></g><g transform="matrix(0.951, 0.309, -0.309, 0.951, 14216.157, 2096.365)"><g class="f" transform="matrix(0.95, -0.31, 0.31, 0.95, 334.9, 11.87)"><path class="a" d="M385.656,63.251a2.725,2.725,0,0,0-2.653.29,3.588,3.588,0,0,0-1.527,2.254c-.571,2.681,1.1,5.745,1.229,8.429.091,1.961-1.166,5.5.423,7.154,2.387,2.489,5.5-1.343,6.2-3.458a14.778,14.778,0,0,0,.4-7.811,13.96,13.96,0,0,0-1.39-3.711,8,8,0,0,0-2.385-2.99A2.616,2.616,0,0,0,385.656,63.251Z" transform="matrix(0.95, 0.31, -0.31, 0.95, -314.84, -114.78)"/></g><g class="e" transform="matrix(0.95, -0.31, 0.31, 0.95, 334.9, 11.87)"><path class="a" d="M386.807,80.64c-.131.051-.268.081-.4.132a2.123,2.123,0,0,0-.41.2.994.994,0,0,0-.474.715,1.3,1.3,0,0,0,.852,1.255.845.845,0,0,0,1.2-.441,1.839,1.839,0,0,0,.046-1,2.294,2.294,0,0,0-.17-.49,1.035,1.035,0,0,0-.256-.393C387.082,80.54,386.93,80.593,386.807,80.64Z" transform="matrix(0.95, 0.31, -0.31, 0.95, -314.84, -114.78)"/></g><g class="d" transform="matrix(0.95, -0.31, 0.31, 0.95, 334.9, 11.87)"><path class="a" d="M383.618,81.116c-.149.057-.324.165-.36.3a1.985,1.985,0,0,0,.348,1.778c.271.323.685.418.938.025a3.429,3.429,0,0,0,.336-.911,1.451,1.451,0,0,0,.1-.782.776.776,0,0,0-.689-.45,1.566,1.566,0,0,0-.567,0A.83.83,0,0,0,383.618,81.116Z" transform="matrix(0.95, 0.31, -0.31, 0.95, -314.84, -114.78)"/></g><g class="c" transform="matrix(0.95, -0.31, 0.31, 0.95, 334.9, 11.87)"><path class="a" d="M389.071,80.736a4.632,4.632,0,0,0-.2-.624c-.088-.166-.426-.821-.673-.634-.324.244-.63.564-.453,1s.664.532,1.086.576A.252.252,0,0,0,389.071,80.736Z" transform="matrix(0.95, 0.31, -0.31, 0.95, -314.84, -114.78)"/></g><path class="a" d="M382.616,79.648a.3.3,0,0,0-.225-.04c-.389.108-.854.515-.734.976s.737.313,1.059.176a.251.251,0,0,0,.124-.215,2.822,2.822,0,0,0-.1-.729A.255.255,0,0,0,382.616,79.648Z"/></g><g transform="translate(14069.295 2278.161) rotate(-13)"><g class="b" transform="matrix(0.97, 0.22, -0.22, 0.97, 464.95, 38.56)"><path class="a" d="M522.442,84.97c1.969-2.844,4.016-7.082,3.638-11.23s-2.476-3.712-4.3-2.239c1.408-3.447,2.526-7.816,1.277-10.882-1.76-4.321-5.565.326-7.156,2.529-3.909,5.415-6.37,13.73-8.664,21.531a92.81,92.81,0,0,0-4.3,24.335c-.017.7.45.813.635.371,7-.177,13.478-5.781,18.922-13.752,1.293-1.894,3.369-4.969,2.187-8.441C524.1,85.485,523.3,84.913,522.442,84.97Z" transform="translate(-461.71 67.02) rotate(-13)"/></g></g><g transform="translate(14469.746 2206.54)"><g transform="translate(0 -0.001)"><path class="a" d="M68.828,57.025a12.344,12.344,0,0,0-3.046,4.986v0c-.107,4.751,8.072.12,9.129-.53a27.04,27.04,0,0,0,4.623-3.627A22.475,22.475,0,0,1,68.828,57.025Z"/><path class="a" d="M220.3,45.447a.5.5,0,0,0-.279-.667,83.276,83.276,0,0,0-45.646-7.014,81.172,81.172,0,0,0-22.382,6.225c-9.5,4.207-19.559,13.021-30.48,8.266a.489.489,0,0,0-.074-.016c1.45-10.359-1.586-22.96-10.958-28.288a18.742,18.742,0,0,0-19.442.467c-10.917-5.8-21.483,2-22.32,13.648-5,3-10.351,9.537-5.653,15.215a12.055,12.055,0,0,0,4.508,3.247A13.656,13.656,0,0,0,64.7,61.369a.615.615,0,0,0-.156.355,3.022,3.022,0,0,0,1.14,2.882.544.544,0,0,0,.1.307,21.207,21.207,0,0,0,17.7,8.679,68.434,68.434,0,0,0,8.887,12.543,57.954,57.954,0,0,0,27.472,17.53,50.447,50.447,0,0,0,42.188-7.007c.712-.5,1.416-1.006,2.1-1.543a.584.584,0,0,0,.295-.086c10.893-6.557,13.984-18.96,19.353-29.642,6.847-13.623,20.359-21.858,35.79-19.016A.674.674,0,0,0,220.3,45.447ZM74.91,61.483c-1.057.65-9.236,5.281-9.129.53v0a12.344,12.344,0,0,1,3.046-4.986,22.475,22.475,0,0,0,10.7.831A27.04,27.04,0,0,1,74.91,61.483Z"/><path class="a" d="M136.991,78.857a58.8,58.8,0,0,0-31.553.014c-4.9,1.306-9.875,3.342-13.066,7.264a57.954,57.954,0,0,0,27.472,17.53,50.447,50.447,0,0,0,42.188-7.007A45.967,45.967,0,0,0,136.991,78.857Z"/></g><path class="a" d="M81.639,57.983a31.18,31.18,0,0,1-5.331,4.182c-1.219.75-10.65,6.09-10.527.611v0a14.234,14.234,0,0,1,3.512-5.749A25.917,25.917,0,0,0,81.639,57.983Z" transform="translate(-1.053 -0.544)"/></g><g transform="translate(14098.059 2164.156)"><path class="a" d="M537.181,83.479c3.458-2.682,7.051-6.678,6.388-10.589s-4.347-3.5-7.542-2.111c2.473-3.25,4.435-7.37,2.242-10.261-3.091-4.074-9.771.307-12.565,2.385-6.864,5.106-11.184,12.946-15.212,20.3-3.944,7.2-7.169,14.642-7.55,22.946a.615.615,0,0,0,1.115.35c12.293-.167,23.665-5.451,33.224-12.967,2.271-1.786,5.915-4.685,3.84-7.959A4.215,4.215,0,0,0,537.181,83.479Z"/></g><path class="a" d="M359.753,40.3a3.775,3.775,0,0,1,1.7-2.446,2.025,2.025,0,0,1,2.209.776c.984,1.255.912,3.093.8,4.68,0,.028-.021.039-.027.063a.368.368,0,0,1-.118.34,3.246,3.246,0,0,1-2.718.7c-.568-.093-1.634-.236-1.966-.905A5.942,5.942,0,0,1,359.753,40.3Z" transform="translate(14197.233 2262.306) rotate(-8)"/><path class="a" d="M441.507,77.341a.74.74,0,0,0-.087-.022.57.57,0,0,0-.063-.041c-5.794-2.351-12.646-4.1-18.773-1.894-4.556,1.643-8.371,5.876-8.064,10.948.3,4.982,4.134,8.971,8.6,10.738a16.945,16.945,0,0,0,8.6,1.018c4.384-.631,7.9-3.7,12.449-3.5a.579.579,0,0,0,.143-.022c1.678.784,1.815,3.3,4.62,2.664,2.2-.5,3.408-2.832,3.661-4.873C453.4,85.793,446.821,79.863,441.507,77.341Z" transform="translate(14201.497 2213.63)"/></g><path class="a" d="M-800.366-119.967c-7.589,0-15.271-2.564-15.271-7.464s7.682-7.464,15.271-7.464,15.271,2.564,15.271,7.464S-792.778-119.967-800.366-119.967Zm0-10.878c-7.723,0-11.221,2.619-11.221,3.415s3.5,3.415,11.221,3.415,11.221-2.619,11.221-3.415S-792.643-130.845-800.366-130.845Z" transform="translate(1378.637 215.894)"/></g></svg>