<svg xmlns="http://www.w3.org/2000/svg" xmlns:xlink="http://www.w3.org/1999/xlink" width="243.54" height="159.933" viewBox="0 0 243.54 159.933"><defs><style>.a{filter:url(#am);}.b{filter:url(#ak);}.c{filter:url(#ai);}.d{filter:url(#ag);}.e{filter:url(#ae);}.f{filter:url(#ac);}.g{filter:url(#aa);}.h{filter:url(#y);}.i{filter:url(#w);}.j{filter:url(#u);}.k{filter:url(#s);}.l{filter:url(#q);}.m{filter:url(#o);}.n{filter:url(#m);}.o{filter:url(#k);}.p{filter:url(#i);}.q{filter:url(#g);}.r{filter:url(#e);}.s{filter:url(#c);}.t{filter:url(#a);}</style><filter id="a" x="78.721" y="92.551" width="76.308" height="63.6" filterUnits="userSpaceOnUse"><feOffset dy="3" input="SourceAlpha"/><feGaussianBlur stdDeviation="3" result="b"/><feFlood flood-opacity="0.161"/><feComposite operator="in" in2="b"/><feComposite in="SourceGraphic"/></filter><filter id="c" x="40.411" y="89.831" width="34.376" height="45.46" filterUnits="userSpaceOnUse"><feOffset dy="6" input="SourceAlpha"/><feGaussianBlur stdDeviation="3" result="d"/><feFlood flood-opacity="0.161"/><feComposite operator="in" in2="d"/><feComposite in="SourceGraphic"/></filter><filter id="e" x="45.672" y="111.004" width="21.459" height="21.786" filterUnits="userSpaceOnUse"><feOffset dy="3" input="SourceAlpha"/><feGaussianBlur stdDeviation="3" result="f"/><feFlood flood-opacity="0.161"/><feComposite operator="in" in2="f"/><feComposite in="SourceGraphic"/></filter><filter id="g" x="42.488" y="111.031" width="21.025" height="21.662" filterUnits="userSpaceOnUse"><feOffset dy="3" input="SourceAlpha"/><feGaussianBlur stdDeviation="3" result="h"/><feFlood flood-opacity="0.161"/><feComposite operator="in" in2="h"/><feComposite in="SourceGraphic"/></filter><filter id="i" x="49.042" y="110.068" width="20.242" height="20.474" filterUnits="userSpaceOnUse"><feOffset dy="3" input="SourceAlpha"/><feGaussianBlur stdDeviation="3" result="j"/><feFlood flood-opacity="0.161"/><feComposite operator="in" in2="j"/><feComposite in="SourceGraphic"/></filter><filter id="k" x="54.433" y="5.087" width="70.524" height="92.664" filterUnits="userSpaceOnUse"><feOffset dy="3" input="SourceAlpha"/><feGaussianBlur stdDeviation="3" result="l"/><feFlood flood-opacity="0.161"/><feComposite operator="in" in2="l"/><feComposite in="SourceGraphic"/></filter><filter id="m" x="81.898" y="15.221" width="43.327" height="51.406" filterUnits="userSpaceOnUse"><feOffset dx="6" dy="3" input="SourceAlpha"/><feGaussianBlur stdDeviation="4.5" result="n"/><feFlood flood-opacity="0.161"/><feComposite operator="in" in2="n"/><feComposite in="SourceGraphic"/></filter><filter id="o" x="71.794" y="0.244" width="40.596" height="45.094" filterUnits="userSpaceOnUse"><feOffset dx="6" dy="-3" input="SourceAlpha"/><feGaussianBlur stdDeviation="3" result="p"/><feFlood flood-opacity="0.161"/><feComposite operator="in" in2="p"/><feComposite in="SourceGraphic"/></filter><filter id="q" x="0" y="4.022" width="243.54" height="155.911" filterUnits="userSpaceOnUse"><feOffset dy="3" input="SourceAlpha"/><feGaussianBlur stdDeviation="3" result="r"/><feFlood flood-opacity="0.161"/><feComposite operator="in" in2="r"/><feComposite in="SourceGraphic"/></filter><filter id="s" x="32.851" y="11.133" width="74.48" height="70.978" filterUnits="userSpaceOnUse"><feOffset dx="3" dy="-6" input="SourceAlpha"/><feGaussianBlur stdDeviation="3" result="t"/><feFlood flood-opacity="0.161"/><feComposite operator="in" in2="t"/><feComposite in="SourceGraphic"/></filter><filter id="u" x="13.832" y="84.343" width="57.052" height="35.408" filterUnits="userSpaceOnUse"><feOffset dx="1" dy="6" input="SourceAlpha"/><feGaussianBlur stdDeviation="3" result="v"/><feFlood flood-opacity="0.161"/><feComposite operator="in" in2="v"/><feComposite in="SourceGraphic"/></filter><filter id="w" x="92.368" y="5.276" width="80.021" height="88.425" filterUnits="userSpaceOnUse"><feOffset dy="3" input="SourceAlpha"/><feGaussianBlur stdDeviation="3" result="x"/><feFlood flood-opacity="0.161"/><feComposite operator="in" in2="x"/><feComposite in="SourceGraphic"/></filter><filter id="y" x="133.935" y="15.351" width="45.516" height="50.151" filterUnits="userSpaceOnUse"><feOffset dx="6" dy="3" input="SourceAlpha"/><feGaussianBlur stdDeviation="4.5" result="z"/><feFlood flood-opacity="0.161"/><feComposite operator="in" in2="z"/><feComposite in="SourceGraphic"/></filter><filter id="aa" x="119.439" y="0" width="47.885" height="43.007" filterUnits="userSpaceOnUse"><feOffset dx="6" dy="-3" input="SourceAlpha"/><feGaussianBlur stdDeviation="3" result="ab"/><feFlood flood-opacity="0.161"/><feComposite operator="in" in2="ab"/><feComposite in="SourceGraphic"/></filter><filter id="ac" x="122.962" y="89.772" width="72.7" height="56.035" filterUnits="userSpaceOnUse"><feOffset dy="3" input="SourceAlpha"/><feGaussianBlur stdDeviation="3" result="ad"/><feFlood flood-opacity="0.161"/><feComposite operator="in" in2="ad"/><feComposite in="SourceGraphic"/></filter><filter id="ae" x="72.795" y="86.739" width="30.577" height="44.094" filterUnits="userSpaceOnUse"><feOffset dy="6" input="SourceAlpha"/><feGaussianBlur stdDeviation="3" result="af"/><feFlood flood-opacity="0.161"/><feComposite operator="in" in2="af"/><feComposite in="SourceGraphic"/></filter><filter id="ag" x="78.333" y="107.461" width="20.997" height="21.395" filterUnits="userSpaceOnUse"><feOffset dy="3" input="SourceAlpha"/><feGaussianBlur stdDeviation="3" result="ah"/><feFlood flood-opacity="0.161"/><feComposite operator="in" in2="ah"/><feComposite in="SourceGraphic"/></filter><filter id="ai" x="75.185" y="107.987" width="20.562" height="21.337" filterUnits="userSpaceOnUse"><feOffset dy="3" input="SourceAlpha"/><feGaussianBlur stdDeviation="3" result="aj"/><feFlood flood-opacity="0.161"/><feComposite operator="in" in2="aj"/><feComposite in="SourceGraphic"/></filter><filter id="ak" x="81.339" y="106.042" width="19.938" height="20.222" filterUnits="userSpaceOnUse"><feOffset dy="3" input="SourceAlpha"/><feGaussianBlur stdDeviation="3" result="al"/><feFlood flood-opacity="0.161"/><feComposite operator="in" in2="al"/><feComposite in="SourceGraphic"/></filter><filter id="am" x="18.004" y="6.609" width="61.097" height="42.864" filterUnits="userSpaceOnUse"><feOffset dy="3" input="SourceAlpha"/><feGaussianBlur stdDeviation="3" result="an"/><feFlood flood-opacity="0.161"/><feComposite operator="in" in2="an"/><feComposite in="SourceGraphic"/></filter></defs><g transform="translate(-14685.713 -408.546) rotate(-7)"><g class="t" transform="matrix(0.99, 0.12, -0.12, 0.99, 14526.46, 2195.24)"><path d="M36.219,3.985a.993.993,0,0,0-.117-.03.769.769,0,0,0-.085-.055C28.247.747,19.057-1.6,10.839,1.36,4.728,3.564-.388,9.241.023,16.044c.405,6.682,5.545,12.032,11.539,14.4A22.727,22.727,0,0,0,23.09,31.811c5.88-.846,10.6-4.963,16.7-4.689a.776.776,0,0,0,.192-.03c2.251,1.052,2.434,4.422,6.2,3.573,2.947-.664,4.571-3.8,4.91-6.536C52.177,15.321,43.346,7.367,36.219,3.985Z" transform="translate(97.09 98.55) rotate(17)"/></g><g transform="matrix(0.951, 0.309, -0.309, 0.951, 14569.055, 2293.998)"><g class="s" transform="matrix(0.98, -0.19, 0.19, 0.98, -71.03, -80.76)"><path d="M5.765.3A3.654,3.654,0,0,0,2.207.689,4.812,4.812,0,0,0,.159,3.712c-.766,3.6,1.481,7.705,1.648,11.305.122,2.63-1.564,7.373.567,9.6,3.2,3.338,7.373-1.8,8.314-4.638A19.82,19.82,0,0,0,11.222,9.5,18.724,18.724,0,0,0,9.358,4.521a10.733,10.733,0,0,0-3.2-4.01A3.512,3.512,0,0,0,5.765.3Z" transform="translate(54.32 92.83) rotate(11)"/></g><g transform="translate(0.376 22.02)"><g class="r" transform="matrix(0.98, -0.19, 0.19, 0.98, -71.41, -102.78)"><path d="M1.728.082c-.176.068-.359.109-.535.177a2.848,2.848,0,0,0-.55.275,1.333,1.333,0,0,0-.636.959A1.742,1.742,0,0,0,1.15,3.176a1.133,1.133,0,0,0,1.607-.591A2.467,2.467,0,0,0,2.819,1.24,3.078,3.078,0,0,0,2.591.582,1.389,1.389,0,0,0,2.248.055C2.1-.052,1.893.019,1.728.082Z" transform="translate(55.3 117) rotate(11)"/></g><g class="q" transform="matrix(0.98, -0.19, 0.19, 0.98, -71.41, -102.78)"><path d="M.58.085C.38.161.146.306.1.49A2.662,2.662,0,0,0,.564,2.875c.364.433.919.561,1.258.034a4.6,4.6,0,0,0,.451-1.222A1.947,1.947,0,0,0,2.414.637a1.04,1.04,0,0,0-.924-.6,2.1,2.1,0,0,0-.76,0A1.113,1.113,0,0,0,.58.085Z" transform="translate(52.11 117.03) rotate(11)"/></g><g class="p" transform="matrix(0.98, -0.19, 0.19, 0.98, -71.41, -102.78)"><path d="M1.85,1.732A6.213,6.213,0,0,0,1.58.895c-.118-.223-.571-1.1-.9-.85C.243.372-.168.8.07,1.385s.891.714,1.457.773A.338.338,0,0,0,1.85,1.732Z" transform="translate(58.45 116.07) rotate(11)"/></g><path d="M1.312.064A.4.4,0,0,0,1.01.01C.489.155-.135.7.026,1.319s.988.42,1.42.236a.337.337,0,0,0,.166-.288A3.784,3.784,0,0,0,1.484.289.342.342,0,0,0,1.312.064Z" transform="translate(0 0.209)"/></g></g><g transform="translate(14586.771 2224.53) rotate(-13)"><g class="o" transform="matrix(0.94, 0.34, -0.34, 0.94, -52.18, -42.11)"><path d="M26.154,35.041c2.641-3.815,5.386-9.5,4.879-15.062s-3.32-4.978-5.761-3c1.889-4.623,3.388-10.483,1.713-14.6-2.361-5.795-7.464.437-9.6,3.392-5.243,7.263-8.543,18.414-11.62,28.878C2.755,44.895.292,55.479,0,67.29c-.023.935.6,1.091.852.5,9.39-.238,18.077-7.754,25.379-18.444,1.735-2.54,4.518-6.664,2.933-11.321C28.385,35.733,27.307,34.965,26.154,35.041Z" transform="translate(63.43 21.72) rotate(-20)"/></g><g class="n" transform="matrix(0.94, 0.34, -0.34, 0.94, -52.18, -42.11)"><path d="M9.07,4.407C8.3-4.1,2.145,1.767.156,4.976c-.375.6-.007,1.518.391,1.466l.92,14.341c-.059.067-.118.138-.178.2-.532.573-.052,2.111.481,1.536C4.714,19.351,9.741,11.771,9.07,4.407Z" transform="translate(89.4 28.84) rotate(-20)"/></g><g class="m" transform="matrix(0.94, 0.34, -0.34, 0.94, -52.18, -42.11)"><path d="M14.9,2.382c-2.361-5.795-7.464.437-9.6,3.392A49.681,49.681,0,0,0,0,15.658l.93.661a4.256,4.256,0,0,1,.7.566.346.346,0,0,0,.163.094Q5.784,20.042,9.777,23.1c.16.122.346-.037.465-.229C12.561,19.129,17.466,8.694,14.9,2.382Z" transform="translate(74.79 17.59) rotate(-20)"/></g></g><g transform="translate(14531 2232.095)"><g transform="translate(0 0)"><path d="M69.868,57.025a16.556,16.556,0,0,0-4.085,6.687v0c-.144,6.372,10.826.161,12.244-.711a36.266,36.266,0,0,0,6.2-4.865A30.144,30.144,0,0,1,69.868,57.025Z" transform="translate(-59.71 -9.325)"/><g class="l" transform="matrix(0.99, 0.12, -0.12, 0.99, -4.54, -36.86)"><path d="M274.573,53.632a.674.674,0,0,0-.374-.895,111.693,111.693,0,0,0-61.222-9.407,108.87,108.87,0,0,0-30.019,8.349c-12.744,5.643-26.233,17.464-40.881,11.087a.655.655,0,0,0-.1-.021c1.945-13.894-2.127-30.795-14.7-37.941a25.137,25.137,0,0,0-26.076.626c-14.642-7.78-28.814,2.681-29.936,18.305-6.71,4.025-13.883,12.791-7.582,20.407A16.168,16.168,0,0,0,69.732,68.5a18.316,18.316,0,0,0-3.86,6.49.825.825,0,0,0-.209.476,4.054,4.054,0,0,0,1.529,3.865.729.729,0,0,0,.135.412A28.443,28.443,0,0,0,91.071,91.381,91.784,91.784,0,0,0,102.99,108.2c9.855,11.011,22.415,19.5,36.846,23.512a67.66,67.66,0,0,0,56.584-9.4c.955-.667,1.9-1.349,2.821-2.07a.783.783,0,0,0,.4-.115c14.61-8.794,18.756-25.43,25.957-39.757,9.183-18.272,27.306-29.317,48-25.5A.9.9,0,0,0,274.573,53.632ZM79.57,75.14c-1.418.872-12.388,7.083-12.244.711v0a16.556,16.556,0,0,1,4.085-6.687A30.144,30.144,0,0,0,85.77,70.275,36.267,36.267,0,0,1,79.57,75.14Z" transform="translate(-54.41 22.19) rotate(-7)"/></g><path d="M152.216,79.591c-13.7-4.03-28.517-3.662-42.32.019-6.569,1.752-13.245,4.482-17.525,9.743,9.855,11.012,22.415,19.5,36.846,23.512a67.661,67.661,0,0,0,56.584-9.4C177.936,91.88,165.66,83.543,152.216,79.591Z" transform="translate(-50.636 -2.609)"/></g><path d="M84.226,58.14A36.266,36.266,0,0,1,78.025,63c-1.418.872-12.388,7.083-12.244.711v0a16.556,16.556,0,0,1,4.085-6.687A30.144,30.144,0,0,0,84.226,58.14Z" transform="translate(-59.71 -9.324)"/><g class="k" transform="matrix(0.99, 0.12, -0.12, 0.99, -4.54, -36.86)"><path d="M119.629,24.8c-13.19-7.5-29.187-1.827-35.854,11.446-.476.95.921,1.781,1.424.877L131.73,67.258c-.023.086-.039.177-.062.262a.839.839,0,0,0,1.616.445C137.2,53.4,133.825,32.874,119.629,24.8Z" transform="translate(-46.82 21.26) rotate(-7)"/></g><g class="j" transform="matrix(0.99, 0.12, -0.12, 0.99, -4.54, -36.86)"><path d="M102.228,70.842c-.244.184-.508.33-.759.5L67.781,65.032c-.168-.221-.354-.428-.514-.655-.614-.877-2.068-.04-1.447.845,8.081,11.529,25.725,15.741,37.254,7.067C103.926,71.648,103.092,70.193,102.228,70.842Z" transform="translate(-51.15 36.42) rotate(-7)"/></g></g><g transform="translate(14624.885 2225.389)"><g class="i" transform="matrix(0.99, 0.12, -0.12, 0.99, -98.43, -30.15)"><path d="M548.865,91.885c4.638-3.6,9.457-8.957,8.568-14.2s-5.83-4.694-10.116-2.831c3.317-4.359,5.948-9.885,3.007-13.762-4.146-5.464-13.105.412-16.853,3.2-9.206,6.848-15,17.364-20.4,27.23-5.29,9.658-9.615,19.638-10.126,30.776a.824.824,0,0,0,1.5.469c16.488-.224,31.74-7.311,44.561-17.392,3.046-2.4,7.933-6.284,5.15-10.675A5.654,5.654,0,0,0,548.865,91.885Z" transform="translate(-405 20.82) rotate(-7)"/></g><g class="h" transform="matrix(0.99, 0.12, -0.12, 0.99, -98.43, -30.15)"><path d="M547.621,73.947c-1.36-8.023-12.16-2.489-15.652.536-.659.57-.012,1.431.687,1.383l1.616,13.522c-.1.063-.207.13-.312.192a.839.839,0,0,0,.845,1.449C539.972,88.038,548.8,80.891,547.621,73.947Z" transform="translate(-394.8 23.33) rotate(-7)"/></g><g class="g" transform="matrix(0.99, 0.12, -0.12, 0.99, -98.43, -30.15)"><path d="M544.923,61.089c-4.146-5.464-13.105.412-16.853,3.2a48.7,48.7,0,0,0-9.3,9.32l1.632.624a8.477,8.477,0,0,1,1.225.534.841.841,0,0,0,.287.089q7.011,2.887,14.024,5.775a.834.834,0,0,0,.816-.216C540.824,76.881,549.438,67.042,544.923,61.089Z" transform="translate(-399.64 20.16) rotate(-7)"/></g></g><path d="M.41,3.412C.722,2.189,1.609.541,2.685.131a2.717,2.717,0,0,1,2.963,1.04C6.967,2.855,6.871,5.32,6.725,7.449c0,.038-.029.052-.036.084a.493.493,0,0,1-.158.457,4.354,4.354,0,0,1-3.645.938C2.125,8.8.695,8.611.249,7.714-.265,6.676.132,4.511.41,3.412Z" transform="translate(14567.799 2261.162) rotate(-8)"/><g class="f" transform="matrix(0.99, 0.12, -0.12, 0.99, 14526.46, 2195.24)"><path d="M450.722,78.355a1,1,0,0,0-.117-.03.763.763,0,0,0-.085-.055c-7.771-3.153-16.961-5.5-25.179-2.54-6.111,2.2-11.228,7.881-10.816,14.684.405,6.682,5.545,12.032,11.539,14.4a22.727,22.727,0,0,0,11.528,1.365c5.88-.846,10.6-4.963,16.7-4.689a.774.774,0,0,0,.192-.03c2.251,1.052,2.435,4.422,6.2,3.573,2.947-.664,4.571-3.8,4.91-6.536C466.68,89.691,457.849,81.737,450.722,78.355Z" transform="translate(-288.51 78.71) rotate(-7)"/></g><g transform="translate(14597.598 2294.387) rotate(9)"><g class="e" transform="matrix(1, -0.03, 0.03, 1, -85.77, -86.8)"><path d="M5.765.3A3.654,3.654,0,0,0,2.207.689,4.812,4.812,0,0,0,.159,3.712c-.766,3.6,1.481,7.705,1.648,11.305.122,2.63-1.564,7.373.567,9.6,3.2,3.338,7.373-1.8,8.314-4.638A19.82,19.82,0,0,0,11.222,9.5,18.724,18.724,0,0,0,9.358,4.521a10.733,10.733,0,0,0-3.2-4.01A3.512,3.512,0,0,0,5.765.3Z" transform="matrix(1, 0.03, -0.03, 1, 82.69, 89.74)"/></g><g transform="translate(0.376 22.02)"><g class="d" transform="matrix(1, -0.03, 0.03, 1, -86.15, -108.82)"><path d="M1.728.082c-.176.068-.359.109-.535.177a2.848,2.848,0,0,0-.55.275,1.333,1.333,0,0,0-.636.959A1.742,1.742,0,0,0,1.15,3.176a1.133,1.133,0,0,0,1.607-.591A2.467,2.467,0,0,0,2.819,1.24,3.078,3.078,0,0,0,2.591.582,1.389,1.389,0,0,0,2.248.055C2.1-.052,1.893.019,1.728.082Z" transform="matrix(1, 0.03, -0.03, 1, 87.45, 113.46)"/></g><g class="c" transform="matrix(1, -0.03, 0.03, 1, -86.15, -108.82)"><path d="M.58.085C.38.161.146.306.1.49A2.662,2.662,0,0,0,.564,2.875c.364.433.919.561,1.258.034a4.6,4.6,0,0,0,.451-1.222A1.947,1.947,0,0,0,2.414.637a1.04,1.04,0,0,0-.924-.6,2.1,2.1,0,0,0-.76,0A1.113,1.113,0,0,0,.58.085Z" transform="matrix(1, 0.03, -0.03, 1, 84.3, 113.99)"/></g><g class="b" transform="matrix(1, -0.03, 0.03, 1, -86.15, -108.82)"><path d="M1.85,1.732A6.213,6.213,0,0,0,1.58.895c-.118-.223-.571-1.1-.9-.85C.243.372-.168.8.07,1.385s.891.714,1.457.773A.338.338,0,0,0,1.85,1.732Z" transform="matrix(1, 0.03, -0.03, 1, 90.41, 112.04)"/></g><path d="M1.312.064A.4.4,0,0,0,1.01.01C.489.155-.135.7.026,1.319s.988.42,1.42.236a.337.337,0,0,0,.166-.288A3.784,3.784,0,0,0,1.484.289.342.342,0,0,0,1.312.064Z" transform="translate(0 0.209)"/></g></g><g class="a" transform="matrix(0.99, 0.12, -0.12, 0.99, 14526.46, 2195.24)"><path d="M-795.155-114.873c-10.178,0-20.481-3.438-20.481-10.011s10.3-10.011,20.481-10.011,20.481,3.438,20.481,10.011S-784.977-114.873-795.155-114.873Zm0-14.59c-10.359,0-15.05,3.512-15.05,4.58s4.691,4.58,15.05,4.58,15.051-3.513,15.051-4.58S-784.8-129.463-795.155-129.463Z" transform="translate(853 52.09) rotate(-7)"/></g></g></svg>