<svg xmlns="http://www.w3.org/2000/svg" xmlns:xlink="http://www.w3.org/1999/xlink" width="247.249" height="166.804" viewBox="0 0 247.249 166.804"><defs><style>.a{filter:url(#k);}.b{filter:url(#i);}.c{filter:url(#g);}.d{filter:url(#e);}.e{filter:url(#c);}.f{filter:url(#a);}</style><filter id="a" x="0" y="0.29" width="247.249" height="138.732" filterUnits="userSpaceOnUse"><feOffset dy="3" input="SourceAlpha"/><feGaussianBlur stdDeviation="3" result="b"/><feFlood flood-color="#fff" flood-opacity="0.161"/><feComposite operator="in" in2="b"/><feComposite in="SourceGraphic"/></filter><filter id="c" x="115.926" y="82.623" width="54.925" height="82.635" filterUnits="userSpaceOnUse"><feOffset dy="5" input="SourceAlpha"/><feGaussianBlur stdDeviation="3" result="d"/><feFlood flood-color="#fff" flood-opacity="0.161"/><feComposite operator="in" in2="d"/><feComposite in="SourceGraphic"/></filter><filter id="e" x="69.944" y="98.163" width="39.159" height="62.873" filterUnits="userSpaceOnUse"><feOffset dy="3" input="SourceAlpha"/><feGaussianBlur stdDeviation="3" result="f"/><feFlood flood-color="#fff" flood-opacity="0.161"/><feComposite operator="in" in2="f"/><feComposite in="SourceGraphic"/></filter><filter id="g" x="47.739" y="0" width="57.115" height="58.194" filterUnits="userSpaceOnUse"><feOffset dx="3" dy="-4" input="SourceAlpha"/><feGaussianBlur stdDeviation="3" result="h"/><feFlood flood-color="#fff" flood-opacity="0.161"/><feComposite operator="in" in2="h"/><feComposite in="SourceGraphic"/></filter><filter id="i" x="121.855" y="140.6" width="23.195" height="26.204" filterUnits="userSpaceOnUse"><feOffset dy="3" input="SourceAlpha"/><feGaussianBlur stdDeviation="3" result="j"/><feFlood flood-color="#fff" flood-opacity="0.161"/><feComposite operator="in" in2="j"/><feComposite in="SourceGraphic"/></filter><filter id="k" x="74.182" y="135.157" width="21.688" height="21.872" filterUnits="userSpaceOnUse"><feOffset dy="-2" input="SourceAlpha"/><feGaussianBlur stdDeviation="2.5" result="l"/><feFlood flood-color="#fff" flood-opacity="0.161"/><feComposite operator="in" in2="l"/><feComposite in="SourceGraphic"/></filter></defs><g transform="translate(-14522 -2351.71)"><g transform="translate(14531 2358)"><path d="M126.075,101.477c-1.069-3.667-3.231-7.04-6.745-8.756a14.4,14.4,0,0,0-7.52-1.141,20.611,20.611,0,0,0-6.911,1.376,19.267,19.267,0,0,0-8.82,7.833,22.755,22.755,0,0,0-3.026,10.049c-.4,5.818,1.166,11.542,3.465,16.835.617,1.42,1.476,2.717,2.219,4.071.67,1.221,1.181,2.469,1.906,3.662a4.237,4.237,0,0,1-.749,5.162,9.569,9.569,0,0,1-2.34,1.843c-.652.383-1.727.541-2.186,1.159-.75,1.011.215,2.475,1.1,3.023a6.254,6.254,0,0,0,3.157.729,12.881,12.881,0,0,0,6.255-1.335c2.326-1.3,3.336-3.158,4.139-5.632,1.109-3.413.461-6.862,2.3-10.2,1.54-2.794,4.308-5.088,6.328-7.548C123.157,117.125,128.255,108.961,126.075,101.477Z" transform="translate(3.802 -8.463)"/><path d="M71.81,101.448a8.258,8.258,0,0,0-2.24-.744c-3.776-.7-7.762.045-10.061,3.375-4.91,7.108,4.311,16.264-.687,22.8-2.034,2.66-5.857,3.749-3.094,7.829a6.21,6.21,0,0,0,5.438,2.478,15.323,15.323,0,0,0,7.092-1.733c2.772-1.612,4.475-5.152,5.717-7.985a39.319,39.319,0,0,0,2.835-10.165,23.239,23.239,0,0,0-.344-9.518C75.681,104.984,74.212,102.662,71.81,101.448Z" transform="translate(-14.976 -4.066)"/><g class="f" transform="matrix(1, 0, 0, 1, -9, -6.29)"><path d="M254.489,56.8c-2-2.882-4.833-5.41-8.473-5.7-3.248-.256-6.364,1.226-8.966,3.035a42.729,42.729,0,0,0-8.322,7.982,82.951,82.951,0,0,0-6.531,9.141c-1.145,1.845-2.271,3.7-3.407,5.55a32.051,32.051,0,0,1-3.354,4.9,23.715,23.715,0,0,1-4.3,3.968A23.958,23.958,0,0,1,201.058,89.7a38.42,38.42,0,0,1-11.322-.034,75.354,75.354,0,0,1-11.718-2.687c-3.8-1.159-7.542-2.519-11.258-3.932-1.244-.473-2.483-.956-3.725-1.43-7.748-2.988-15.78-5.6-24.175-5.5a33.6,33.6,0,0,0-10.531,1.7c-4.89,1.678-11.853,8.786-16.623,3.616.368-12.011.234-26.535-10.286-34.579a19.78,19.78,0,0,0-20.073-2.468,16.2,16.2,0,0,0-8.364-7.553,18.114,18.114,0,0,0-10.537-.432,26.4,26.4,0,0,0-10.131,5,19.308,19.308,0,0,0-5.147,5.735A11.318,11.318,0,0,1,43.217,51.5a8.533,8.533,0,0,1-3.986,1.053c-2.432.084-4.456-.034-6.609,1.281a9.838,9.838,0,0,0-4.456,9.791.953.953,0,0,0,.492.726.826.826,0,0,0,1.059.116l3.667-2.235A29.52,29.52,0,0,1,34.4,65.99a.943.943,0,0,0,1.369.556,12.6,12.6,0,0,0,3.1-2.114l1.108,2.777c.167.419.641.863,1.147.65a16.7,16.7,0,0,0,3.216-1.777l1.133,2.933a.946.946,0,0,0,1.147.65c.112-.04.218-.092.33-.134a5.4,5.4,0,0,1-1.206,1.845,2.135,2.135,0,0,1-1.652.616c-.465-.051-.82-.359-1.284-.424-1.616-.23-2.077,1.691-2.478,3.018L39,74.278a2.3,2.3,0,0,0-1.691-.033c-.932.517-.635,1.816-.426,2.788a.7.7,0,0,0-.143.106,5.229,5.229,0,0,0-.579.834,40.189,40.189,0,0,1-5.586.294.812.812,0,0,0-.778.458.984.984,0,0,0-.2.307c-2.295,5.641.188,10.422,4.432,14.375,7.405,6.9,15.909,9.621,19.566,20.116,2.727,7.827,3.2,16.234,7.1,23.678a36.117,36.117,0,0,0,16.188,15.845.945.945,0,0,0,.119.033,1,1,0,0,0,.1.061c14.71,5.2,30.588,3.4,45.744,1.451,15.993-2.062,32.3-4.955,47.328-11,13.019-5.244,24.352-13.338,32.494-24.867a90.974,90.974,0,0,0,8.113-14.232A163.275,163.275,0,0,0,216.845,89.2q1.074-3.1,2.088-6.212a55.218,55.218,0,0,1,3.829-9.226c.6-1.115,1.214-2.225,1.851-3.322a59.547,59.547,0,0,1,4.154-6.327,33.315,33.315,0,0,1,6.725-6.727c5.893-4.311,13.689-5.326,17.8,1.515,3.163,5.262,2.179,12.122.674,17.822-1.734,6.57-5.632,12.049-8.2,18.259a44.118,44.118,0,0,0-3.114,19.528c.063,1.193,1.928,1.2,1.864,0a43.18,43.18,0,0,1,3.99-21.087c2.15-4.608,4.966-8.88,6.558-13.743C257.353,72.706,258.968,63.266,254.489,56.8ZM39.365,76.273l1.145.264a.888.888,0,0,0,1.007-.441.912.912,0,0,0,.449-.51c.215-.59.391-1.223.655-1.792a3.209,3.209,0,0,0,.168-.419c-.01.07,0,.219.215.246a4.7,4.7,0,0,0,2.51.027c1.84-.658,2.726-2.395,3.443-4.083a.959.959,0,0,0-.034-.832c.352-.161.695-.353,1.042-.529l.644,3.386a.938.938,0,0,0,1.369.556l2.4-1.588c.294,1.427.857,3,2.055,3.467a2.039,2.039,0,0,0,.234.048,4.463,4.463,0,0,1-.508.957c-.671.862-.418.817-1.514.125a3.954,3.954,0,0,0-2.168-1.012c-2,.012-3.267,2.712-4.223,4.442a12.868,12.868,0,0,1-3.4-2.343.914.914,0,0,0-1.388.145.885.885,0,0,0-.148.134q-1.174,1.606-2.35,3.21a19.007,19.007,0,0,0-2.24-2.188.946.946,0,0,0,.054-.482c-.046-.309-.1-.619-.142-.929C38.894,76.187,39.158,76.225,39.365,76.273Zm-4.114,3.647c-.133.347-.267.681-.394,1.017-.528-.277-1.06-.549-1.567-.856C33.945,80.05,34.6,79.985,35.251,79.921Z" transform="translate(-19.08 -29.53)"/></g><path d="M37.649,65.606l1.145.264a.888.888,0,0,0,1.007-.441.912.912,0,0,0,.449-.51c.215-.591.391-1.223.655-1.792a3.21,3.21,0,0,0,.168-.419c-.01.07,0,.219.215.246a4.7,4.7,0,0,0,2.51.027c1.84-.658,2.726-2.395,3.443-4.083a.959.959,0,0,0-.034-.832c.352-.161.695-.353,1.042-.529l.644,3.386a.938.938,0,0,0,1.369.556l2.4-1.588c.294,1.427.857,3,2.055,3.467a2.02,2.02,0,0,0,.234.048,4.462,4.462,0,0,1-.508.957c-.671.862-.418.817-1.514.125a3.953,3.953,0,0,0-2.168-1.012c-2,.012-3.267,2.712-4.223,4.442a12.867,12.867,0,0,1-3.4-2.343.914.914,0,0,0-1.388.145.885.885,0,0,0-.148.134q-1.174,1.606-2.35,3.21a19.012,19.012,0,0,0-2.24-2.188.946.946,0,0,0,.054-.482c-.046-.309-.1-.619-.142-.929C37.178,65.52,37.442,65.558,37.649,65.606Zm-4.114,3.647c-.133.347-.267.681-.394,1.017-.528-.277-1.06-.549-1.567-.856C32.229,69.383,32.882,69.318,33.535,69.254Z" transform="translate(-26.364 -25.151)"/><path d="M179.238,87.174a57.555,57.555,0,0,0-9.36,2.924,1.026,1.026,0,0,0-.3,1.685q2.255,3.733,4.461,7.495a.94.94,0,0,0,1.609,0,95.349,95.349,0,0,0,4.731-10.957C180.64,87.611,179.878,87.032,179.238,87.174Z" transform="translate(41.264 -10.605)"/><path d="M64.245,52.115c-.3.04-.574.1-.76.136-2.386.426-4.767.843-7.125,1.411a.819.819,0,0,0-.541.394.877.877,0,0,0-.21.386c-.807,3.12-2.285,10.684,2.953,10.8,2.36.052,3.774-2.023,4.678-3.922a21.8,21.8,0,0,0,2.522-8.424C65.8,52.043,64.962,52.017,64.245,52.115Z" transform="translate(-14.965 -27.833)"/><g class="e" transform="matrix(1, 0, 0, 1, -9, -6.29)"><path d="M135.915,91.242c-10.165-4.712-22.94,1.958-27.742,11.4-2.417,4.754-2.772,11.111-1.956,16.315a24.821,24.821,0,0,0,3.018,8.561c3.373,5.886,11.018,12.9,2.481,18.768-2.859,1.676-2.117,5.058.5,6.551,2.013,1.147,4.882,2.237,7.023.831,4.76-3.126,5.015-8.8,5.577-13.872,1.117-10.062,6.484-14.53,12.339-22C142.941,110.419,146.607,96.2,135.915,91.242Z" transform="translate(19.1 -3.07)"/></g><g class="d" transform="matrix(1, 0, 0, 1, -9, -6.29)"><path d="M82.437,101.638a.914.914,0,0,0-.258.021c-5.356,1.561-7.253,6.211-7.192,11.573.045,3.874,1.9,7.566,3.243,11.117,1.275,3.352,2.7,7.328,1.3,10.868a8.583,8.583,0,0,1-1.227,2.079c-.6.774-1.5,1.2-2.058,2.007-1.363,1.95.75,4.057,2.316,5.04,1.956,1.227,4.142,2.4,6.516,1.843,2-.467,3.873-2.213,5.14-3.773a10.661,10.661,0,0,0,2.305-5.833c.215-2.4-.672-4.827-.834-7.207-.353-5.209,2.08-7.864,3.6-12.313C98.569,107.464,92.024,100.19,82.437,101.638Z" transform="translate(3.96 2.71)"/></g></g><g class="c" transform="matrix(1, 0, 0, 1, 14522, 2351.71)"><path d="M-157.787,119.522c-9.16-7-21.479-4.769-28.507,3.941-.747.925.564,2.252,1.318,1.318.02-.024.04-.045.06-.069l35.557,29.21-.022.747c-.039,1.2,1.825,1.2,1.864,0C-147.13,142.553-147.1,127.692-157.787,119.522Z" transform="translate(240.25 -102.38)"/></g><g transform="translate(14647.311 2496.677)"><g class="b" transform="matrix(1, 0, 0, 1, -125.31, -144.97)"><path d="M-404.306,235.936a2.822,2.822,0,0,0-1,.036,2.475,2.475,0,0,0-1.265.592,3.513,3.513,0,0,0-.911,1.814,11.077,11.077,0,0,0-.218,2.385c0,.779.038,1.558.063,2.336.009.248.014.5.012.747,0,.014.012.019.014.032,0,.144.11.281.277.212a7.965,7.965,0,0,0,4.395-4.3,3.272,3.272,0,0,0,.191-2.777,2.066,2.066,0,0,0-.692-.711,3.238,3.238,0,0,0-.45-.244A1.666,1.666,0,0,0-404.306,235.936Z" transform="translate(538.56 -89.31)"/></g><path d="M-408.522,235.8a3.215,3.215,0,0,0-.919-.032,5.6,5.6,0,0,0-.867.082,2.887,2.887,0,0,0-1.512.728c-.931.893-1.154,2.257-1.741,3.358-.017.031,0,.057-.008.087a.238.238,0,0,0-.049.189l.022.129a.237.237,0,0,0,.226.172c1.172.075,3.154.233,4.139-.6l.42-.5.438-2.485a5.4,5.4,0,0,1,.078-.714C-408.253,236-408.305,235.868-408.522,235.8Z" transform="translate(413.621 -235.754)"/><path d="M-397.606,237.176a2.227,2.227,0,0,0-.951-.851,2.047,2.047,0,0,0-2.4.634,2.23,2.23,0,0,0-.412,1.15,5.85,5.85,0,0,0,.516,2.621c.044.11.089.218.151.34a.2.2,0,0,0,.047.042.225.225,0,0,0,.129.065c.283.048.584.045.871.073s.593.062.888.1.591.079.887.125a3.716,3.716,0,0,0,.843.125c.131-.011.335-.046.344-.21a1.7,1.7,0,0,0-.106-.427c-.036-.149-.063-.3-.086-.451-.048-.306-.077-.616-.106-.924a7.309,7.309,0,0,0-.324-1.815A3.144,3.144,0,0,0-397.606,237.176Z" transform="translate(412.852 -234.288)"/></g><g transform="translate(14566.784 2484.416)"><path d="M-459.514,239.3c-.028.016-.056.032-.083.05a2.9,2.9,0,0,0-.658.835,10.994,10.994,0,0,0-.579.976,10.864,10.864,0,0,0-.836,2.108q-.058.212-.109.425a.218.218,0,0,0,.027.163.226.226,0,0,0,.1.075c.016.01.02.028.041.033a6.774,6.774,0,0,0,3.94.108,3.531,3.531,0,0,0,.727-.348,1.213,1.213,0,0,0,.329-.239,1.12,1.12,0,0,0,.094-.359,3.149,3.149,0,0,0,.076-.406,4.308,4.308,0,0,0,.018-.705,4.313,4.313,0,0,0-.31-1.4,2.146,2.146,0,0,0-1.949-1.507A1.887,1.887,0,0,0-459.514,239.3Z" transform="translate(467.415 -236.399)"/><path d="M-461.457,238.469a1.169,1.169,0,0,0-.325-.234,1.521,1.521,0,0,0-.414-.1,1.811,1.811,0,0,0-.376-.023,2,2,0,0,0-.715.173,3.819,3.819,0,0,0-1.269.994,16.018,16.018,0,0,0-1.814,2.759l-.051.088c-.01.016,0,.03,0,.046a.236.236,0,0,0-.014.148.218.218,0,0,0,.213.188q2.509.055,5.014-.061a.193.193,0,0,0,.189-.126.484.484,0,0,0,.015-.136c.012-.373.134-.723.168-1.092a5.233,5.233,0,0,0,0-1.09A2.7,2.7,0,0,0-461.457,238.469Z" transform="translate(466.445 -238.113)"/><path d="M-451.706,241.385a3.541,3.541,0,0,0-2.712-1.435.192.192,0,0,0-.2.093c-1.053.97-.8,2.41-.468,3.653.007.027.029.032.042.053s.027.034.041.051.038.048.068.059.025.036.05.044l3.051.967a.262.262,0,0,0,.3-.119A3.6,3.6,0,0,0-451.706,241.385Z" transform="translate(469.048 -237.241)"/></g><g transform="translate(14598.103 2493.695)"><g class="a" transform="matrix(1, 0, 0, 1, -76.1, -141.98)"><path d="M-183.922,246.5c-.2-.021-.4-.019-.588-.025a13.392,13.392,0,0,0-1.527.049,2.546,2.546,0,0,0-2.022.987c-1,1.47-1.09,3.713-1.063,5.416,0,.026.022.034.025.057a.359.359,0,0,0,.444.346,26.527,26.527,0,0,0,3.729-1.174,3.212,3.212,0,0,0,1.973-1.525c.538-1.145.966-3.239-.419-3.975A1.523,1.523,0,0,0-183.922,246.5Z" transform="translate(270.81 -101.82)"/></g><path d="M-181.367,246.559a.653.653,0,0,0-.322-.006,3.519,3.519,0,0,0-1.973,1.755,5.612,5.612,0,0,0-.713,2.492,1.656,1.656,0,0,0,.638,1.654,7.55,7.55,0,0,0,2.8,1.3.387.387,0,0,0,.479-.221,8.531,8.531,0,0,0,.183-4.587,6.919,6.919,0,0,0-.312-1.549A1.394,1.394,0,0,0-181.367,246.559Z" transform="translate(198.526 -245.264)"/><path d="M-186.676,246.432c0-.033-.027-.046-.033-.075-.088-.986-.605-1.979-1.771-1.588a3.118,3.118,0,0,0-1.373,1.214c-.656.865-1.3,1.74-1.949,2.609-.191.255.079.529.322.561a7.729,7.729,0,0,0,3.808-.377C-186.566,248.338-186.675,247.485-186.676,246.432Z" transform="translate(191.867 -244.683)"/></g><g transform="translate(14627.925 2492.566)"><path d="M-460.176,239.243c-.02.011-.04.023-.059.035a2.057,2.057,0,0,0-.466.591,7.744,7.744,0,0,0-.41.691,7.691,7.691,0,0,0-.592,1.494q-.041.15-.077.3a.153.153,0,0,0,.02.116.158.158,0,0,0,.068.053c.011.007.014.019.029.023a4.8,4.8,0,0,0,2.791.077,2.5,2.5,0,0,0,.515-.247.861.861,0,0,0,.233-.169.786.786,0,0,0,.067-.254,2.24,2.24,0,0,0,.054-.287,3.039,3.039,0,0,0,.013-.5,3.066,3.066,0,0,0-.22-.993,1.521,1.521,0,0,0-1.381-1.068A1.338,1.338,0,0,0-460.176,239.243Z" transform="translate(464.282 -237.885)"/><path d="M-463.7,238.309a.646.646,0,0,0-.179-.129.838.838,0,0,0-.228-.053,1.007,1.007,0,0,0-.207-.013,1.1,1.1,0,0,0-.394.1,2.1,2.1,0,0,0-.7.548,8.835,8.835,0,0,0-1,1.52l-.028.048c-.005.009,0,.016,0,.025a.128.128,0,0,0-.007.082.119.119,0,0,0,.117.1q1.382.03,2.762-.034a.106.106,0,0,0,.1-.069.269.269,0,0,0,.009-.075c.007-.205.074-.4.093-.6a2.877,2.877,0,0,0,0-.6A1.489,1.489,0,0,0-463.7,238.309Z" transform="translate(466.445 -238.113)"/><path d="M-452.775,240.966a2.508,2.508,0,0,0-1.921-1.017.135.135,0,0,0-.141.066,2.465,2.465,0,0,0-.332,2.588c.005.019.021.023.03.038s.019.024.029.036.027.034.048.042.018.025.036.031l2.162.685a.185.185,0,0,0,.209-.085A2.549,2.549,0,0,0-452.775,240.966Z" transform="translate(463.569 -238.727)"/></g></g></svg>