<svg xmlns="http://www.w3.org/2000/svg" xmlns:xlink="http://www.w3.org/1999/xlink" width="193.052" height="180.815" viewBox="0 0 193.052 180.815"><defs><style>.a{filter:url(#i);}.b{filter:url(#g);}.c{filter:url(#e);}.d{filter:url(#c);}.e{filter:url(#a);}</style><filter id="a" x="29.695" y="78.128" width="34.835" height="47.357" filterUnits="userSpaceOnUse"><feOffset dy="2" input="SourceAlpha"/><feGaussianBlur stdDeviation="3" result="b"/><feFlood flood-opacity="0.161"/><feComposite operator="in" in2="b"/><feComposite in="SourceGraphic"/></filter><filter id="c" x="0" y="9" width="193.052" height="150.589" filterUnits="userSpaceOnUse"><feOffset dy="3" input="SourceAlpha"/><feGaussianBlur stdDeviation="3" result="d"/><feFlood flood-opacity="0.161"/><feComposite operator="in" in2="d"/><feComposite in="SourceGraphic"/></filter><filter id="e" x="108.495" y="103.788" width="53.746" height="77.027" filterUnits="userSpaceOnUse"><feOffset dy="3" input="SourceAlpha"/><feGaussianBlur stdDeviation="3" result="f"/><feFlood flood-opacity="0.161"/><feComposite operator="in" in2="f"/><feComposite in="SourceGraphic"/></filter><filter id="g" x="37.414" y="0" width="61.816" height="49.486" filterUnits="userSpaceOnUse"><feOffset dx="3" dy="-6" input="SourceAlpha"/><feGaussianBlur stdDeviation="3" result="h"/><feFlood flood-opacity="0.161"/><feComposite operator="in" in2="h"/><feComposite in="SourceGraphic"/></filter><filter id="i" x="63.619" y="76.512" width="29.782" height="45.616" filterUnits="userSpaceOnUse"><feOffset dy="2" input="SourceAlpha"/><feGaussianBlur stdDeviation="3" result="j"/><feFlood flood-opacity="0.161"/><feComposite operator="in" in2="j"/><feComposite in="SourceGraphic"/></filter></defs><g transform="translate(-14688 -2009)"><g transform="translate(14731.87 2094.109) rotate(11)"><g class="e" transform="matrix(0.98, -0.19, 0.19, 0.98, -59.3, -75.17)"><path d="M1.136,7.769a10.948,10.948,0,0,1,.092-1.6A13.715,13.715,0,0,1,1.5,4.7,8.292,8.292,0,0,1,2.58,2.057,4.641,4.641,0,0,1,7.245.05a4.849,4.849,0,0,1,4.232,3.5A8.421,8.421,0,0,1,11.782,6,12.562,12.562,0,0,1,11.7,7.266a9.676,9.676,0,0,0-.177,1.43c.06,1.522.076,3.049.058,4.571a46.679,46.679,0,0,1-.321,5.262,20.112,20.112,0,0,1-1.181,5.01,6.911,6.911,0,0,1-2.537,3.39,4.709,4.709,0,0,1-2.637.685,4.125,4.125,0,0,1-3.318-1.76,9.254,9.254,0,0,1-1.4-4.171A27.7,27.7,0,0,1,.071,16.4c.1-1.705.3-3.4.541-5.093.1-.668.2-1.335.31-2A9.165,9.165,0,0,0,1.136,7.769Z" transform="translate(43.96 85.13) rotate(11)"/></g><g transform="translate(0 24.133)"><path d="M1.829,0a.5.5,0,0,1,.114.027.791.791,0,0,1,.45.538,1.977,1.977,0,0,1,.026.481c-.014.329-.075.656-.088.985q-.04,1-.082,2a.309.309,0,0,1-.57.154C1.33,3.631,1,3.069.681,2.494A4.043,4.043,0,0,1,0,1C-.026.428.543.181,1.016.085a3.862,3.862,0,0,1,.489-.07A1.768,1.768,0,0,1,1.829,0Z" transform="translate(4.589 2.472)"/><path d="M.719.073C.8.122.872.186.943.234a2.215,2.215,0,0,1,.628.5,1.072,1.072,0,0,1,.124.509.841.841,0,0,1-.13.393,4.625,4.625,0,0,1-.215.481L.57,3.845C.442,4.13,0,3.976,0,3.691q.024-1.7.2-3.4A.319.319,0,0,1,.5,0,.426.426,0,0,1,.719.073Z" transform="translate(1.934 1.458)"/><path d="M.881.072a.675.675,0,0,1,.458-.05.353.353,0,0,1,.213.213,12.331,12.331,0,0,1,.668,3.227.309.309,0,0,1-.522.215,7.8,7.8,0,0,1-1.609-2.1A.935.935,0,0,1,.169.643,1.741,1.741,0,0,1,.7.161,1.483,1.483,0,0,1,.881.072Z" transform="translate(7.732 1.281)"/><path d="M.749.138A.418.418,0,0,1,1.4.177c.592,1-.191,1.478-.882,2.163a.309.309,0,0,1-.511-.3A6.1,6.1,0,0,1,.385.837Q.511.548.666.27A1.335,1.335,0,0,1,.749.138Z" transform="translate(0 0)"/></g></g><path d="M137.159,106.431c-8.2-5.365-23.268-7.1-25.508,5.471a.728.728,0,0,0-.385.613c-.494,8.23,1.685,13.86,7.228,20.089,4.643,5.218,9.882,9.183,15.274,13.438-.081,4.09-1.122,9.5-5.211,11.35a.626.626,0,0,0-.289.195.549.549,0,0,0-.084.13c-.01.021-.023.038-.032.061a.622.622,0,0,0-.026.372c.1,1.025.051,2.063.2,3.083a4.363,4.363,0,0,0,.69,2.25.773.773,0,0,0,1.277-.338c.4-.989,1.506-1.982,2.575-1.341.608.365,1.095.874,1.743,1.2a.781.781,0,0,0,.365.081.664.664,0,0,0,.773-.356c.641-1.19,2.539-.08,3.428.21a1.2,1.2,0,0,0,1.368-.257,10.475,10.475,0,0,0,2.506-3.012,22.238,22.238,0,0,0,1.474-2.789c.428-1.009.606-2.085.944-3.122.41-1.252.86-2.491,1.2-3.763.991-3.7,1.784-8.132,3.527-11.531a.661.661,0,0,0,.021-.077.585.585,0,0,0,.658-.542C152.567,125.5,147.747,113.354,137.159,106.431Z" transform="translate(14629.072 2017.881)"/><g transform="translate(14697 2024)"><path d="M107.764,59.242c-.034-.028-.065-.06-.1-.086-.416-.319-.043-.582-.385-.544s-.91.963-1.156,1.192c-.816.759-2.105,2.081-3.3,2-.905-.062-2.079-1.146-2.868-1.988-.964.864-2.38,2.1-3.45,1.833-.505-.125-.794-.7-1.075-1.08-1.108-1.473-.9-1.973-2.762-.922-1.122.633-1.915,1.615-3.174.946a3.78,3.78,0,0,1-.788-.6.81.81,0,0,1-.109.046,18.244,18.244,0,0,1-2.414.311c.089.975,1.148,1.967.515,3.018a2.893,2.893,0,0,1-1.441.984,16.411,16.411,0,0,0-2.657.821c.2-.076.279.312.571.661.218.261.521.45.719.728a1.347,1.347,0,0,1,.329.62c.078.606-.491,1.031-.986,1.381.349.017.7.023,1.046.034a.69.69,0,0,1,1.055-.015c.035.039.069.065.1.1a.661.661,0,0,1,.312.307c2.884,2.712,3.725-1.04,6.116-2.076,2.255-.975,4.149,1.27,6.2.75s2.011-4.009,4.9-4.447c.461-.071.992.262,1.455.268,4,.049,1.4.321,2.3-1.085A13.365,13.365,0,0,0,107.764,59.242Z" transform="translate(-74.317 -15.895)"/><g class="d" transform="matrix(1, 0, 0, 1, -9, -15)"><path d="M34.585,82.374l0-.015a.7.7,0,0,0-.07-.218.607.607,0,0,0-.057-.081.655.655,0,0,0-.11-.115.709.709,0,0,0-.139-.08.723.723,0,0,0-.07-.033.819.819,0,0,0-1.08.448c-2.087,5.318-4.348,10.657-9.6,13.543-3.981,2.186-8.426,2.947-12.343,5.326-4.275,2.595-7.621,2.5-12.365,2.4-4.111-.094-7.448,1.221-11.269,2.551-10.519,3.659-20.528.6-30.557-3.116-4.625-1.712-9.676-3.733-13.135-7.414-3.883-4.133-5.372-9.924-6-15.394.1-12.015-3.1-25.456-15.89-29.65a22.132,22.132,0,0,0-20.468,3.649c-6.713-8.024-22.088-3.567-26.042,5.175-1.9,4.2-2.151,9.489-5.62,12.88-2.405,2.349-6.1,2.7-8.246,5.376-3.39,4.227-1.735,9.875.089,14.341a.779.779,0,0,0,.581.476.781.781,0,0,0,1.511.15,7.462,7.462,0,0,1,2.585-2.589c.336.473.639,1.264.981,1.632a2.121,2.121,0,0,0,1.342.871c1.069.057,2.351-.957,3.335-1.784a14.618,14.618,0,0,0,.888,1.48,16.844,16.844,0,0,1-2.1.214.792.792,0,0,0-.738.562,2.6,2.6,0,0,0,.115,1.538c.377,1.341.79,1.579-.8,2.151-.866.311-2.948.565-3.073,1.78-.091.885.877,1.813,1.5,2.465-.006.009-.01.009-.016.017-.177.026-.686.573-.809.7-.306.322-.683.692-.644,1.172a.815.815,0,0,0,.325.6c0,.009,0,.017.006.026,3.41,7.407,12.872,12.662,19.063,17.5,3.86,3.019,6.953,5.809,8.888,10.486,1.515,3.663,2.556,7.508,3.916,11.235a.887.887,0,0,0,.083.137c.448,1.34.875,2.656,1.3,3.961,1.829,5.568,3.7,10.817,7.416,15.727,4.824,6.368,10.064,9.83,17.225,13.337,9.368,4.587,19.966,7.688,30.415,5.512,1.51-.314,3.11-.7,4.732-1.152,4.633-1.3,9.447-3.242,12.854-6.171a.649.649,0,0,0,.248-.522.777.777,0,0,0,.77-.12c8.261-6.575,17.409-11.4,25.917-17.478,4.084-2.917,7.853-5.974,12.174-8.546a72.493,72.493,0,0,0,10.761-7.25c6.352-5.524,9.2-12.8,10.294-20.99,1.608-12.023,1.407-24.444,1.949-36.551A.751.751,0,0,0,34.585,82.374ZM-110.337,97.011c-.464-.006-.993-.339-1.456-.268-2.89.438-2.846,3.926-4.9,4.447s-3.944-1.725-6.2-.749c-2.391,1.035-3.232,4.787-6.117,2.075a.656.656,0,0,0-.312-.307c-.035-.038-.067-.064-.1-.1a.688.688,0,0,0-1.053.015c-.349-.011-.7-.017-1.046-.034.494-.35,1.063-.776.985-1.381a1.357,1.357,0,0,0-.328-.62c-.2-.276-.5-.467-.721-.728-.292-.349-.37-.735-.571-.661a16.41,16.41,0,0,1,2.657-.821,2.9,2.9,0,0,0,1.442-.984c.631-1.051-.427-2.043-.516-3.018a18.061,18.061,0,0,0,2.415-.311.864.864,0,0,0,.108-.046,3.769,3.769,0,0,0,.788.6c1.259.669,2.052-.313,3.174-.944,1.866-1.052,1.654-.552,2.762.922.283.374.57.954,1.075,1.079,1.07.263,2.486-.969,3.45-1.833.789.842,1.964,1.927,2.869,1.988,1.194.083,2.482-1.239,3.3-2,.245-.228.821-1.154,1.155-1.192s-.031.225.385.544c.034.026.066.057.1.086a13.338,13.338,0,0,1-1.046,3.154C-108.941,97.332-106.34,97.06-110.337,97.011Z" transform="translate(149.44 -34.43)"/></g><path d="M145.269,108.992a52.282,52.282,0,0,0-36.5-5.551c1.829,5.569,3.7,10.819,7.415,15.728,4.824,6.368,10.065,9.829,17.226,13.335,9.366,4.588,19.966,7.689,30.414,5.513,1.51-.314,3.111-.7,4.733-1.152A52.281,52.281,0,0,0,145.269,108.992Z" transform="translate(-68.471 -6.136)"/></g><g transform="translate(14769.157 2068.517)"><path d="M149.852,65.958q.512-.529.982-1.077c-.431-.274-.856-.553-1.266-.853a18.761,18.761,0,0,1-2.668-2.32c-.088-.093-.158-.2-.242-.292-.388-.432-.767-.87-1.107-1.335-.173.454-.345.907-.54,1.352a38.735,38.735,0,0,1-9.955,13.2.64.64,0,0,0-.159.826.792.792,0,0,0,1.14.8,51.239,51.239,0,0,0,9.045-6.056C146.638,68.9,148.356,67.493,149.852,65.958Z" transform="translate(-134.81 -60.082)"/><path d="M205.229,65.528c-.071-.486-.147-.975-.225-1.464q-.728.272-1.451.566a26.45,26.45,0,0,0-3.211,1.543c-.138.08-.28.147-.416.229-.378.23-.741.414-1.106.6q0,.855.007,1.683a31.512,31.512,0,0,0,.782,7.95c1.133,4.459,2.765,8.815,4.253,13.173l.581,3.977c.131.9,1.44.6,1.5-.2A124.347,124.347,0,0,0,205.229,65.528Z" transform="translate(-120.51 -59.192)"/><path d="M190.456,67.934c-.362-.009-.711.007-1.062.02-.548.02-1.088.06-1.614.125q-.237.934-.467,1.819a23.2,23.2,0,0,0-1.023,7.682c.368,6.193,1.042,11.585-.4,17.757a.788.788,0,0,0,1.167.842.637.637,0,0,0,.351-.23c2.8-3.572,3.682-7.482,3.988-11.972a60.235,60.235,0,0,1,1.779-12.624c.173-.617.307-1.149.406-1.66a9.2,9.2,0,0,0,.18-1.72c-.521.007-1.056,0-1.608,0S191.04,67.948,190.456,67.934Z" transform="translate(-123.404 -58.328)"/><path d="M163.879,69.863q-.765-.218-1.528-.453a17.338,17.338,0,0,0-.933,1.71,31.875,31.875,0,0,0-2.223,7.235c-1,4.944-.166,10.377-3.713,14.479-.641.741.437,1.828,1.081,1.081a14.126,14.126,0,0,0,2.778-5.233,110.373,110.373,0,0,1,4.174-10.567,54.612,54.612,0,0,1,3.17-5.58c.344-.563.678-1.135,1.009-1.713q-.78-.169-1.556-.358Q165.007,70.185,163.879,69.863Z" transform="translate(-130.236 -57.998)"/><path d="M159.609,68.345c-.476-.173-.951-.345-1.426-.521-.049-.018-.1-.038-.147-.055-1.073-.4-2.165-.814-3.256-1.263-.47-.193-.936-.4-1.4-.606q-.268.738-.533,1.466c-2.372,6.474-4.8,12.426-9.55,17.814a.748.748,0,0,0-.07.922.638.638,0,0,0,.794.373.7.7,0,0,0,.192-.091l.01,0c3.443-2.563,8.251-4.658,10.595-8.4a26.279,26.279,0,0,0,2.108-5.149,12.666,12.666,0,0,1,1.572-2.958C158.852,69.362,159.227,68.864,159.609,68.345Z" transform="translate(-132.959 -58.782)"/><path d="M182.6,70.392a29.568,29.568,0,0,1-7,1.253c-.516.029-1.034.05-1.549.055-.1.6-.188,1.2-.294,1.809-1.479,8.606-3.946,18.13-7.914,25.563a.792.792,0,0,0,.878,1.128.674.674,0,0,0,.65-.2c4.589-4.682,9.244-9.5,11.73-15.685.973-2.419,1.461-4.989,2.356-7.43.71-1.937,1.646-3.418,2.273-5.11a10.848,10.848,0,0,0,.519-1.916c-.19.066-.374.132-.566.2C183.317,70.181,182.956,70.282,182.6,70.392Z" transform="translate(-127.899 -57.898)"/></g><g class="c" transform="matrix(1, 0, 0, 1, 14688, 2009)"><path d="M197.054,113.664c-3.358-7.717-9.855-13.843-18.849-12.233-9.332,1.671-14.721,10.575-13.529,19.688a22.761,22.761,0,0,0,3.2,8.927,30.919,30.919,0,0,0,6.186,7.131c1.019.883,2.151,1.628,3.152,2.526a19.988,19.988,0,0,1,1.926,2.042c.591.7,1.215,1.358,1.748,2.107a9.366,9.366,0,0,1,1.793,4.262c.354,2.911-1.107,5.215-2.788,7.427a.681.681,0,0,0-.113.236c-.009.018-.018.034-.026.054a.774.774,0,0,0,.024.6c2.388,5.245,8.647,3.943,12.973,2.4a.752.752,0,0,0,.345-.257.607.607,0,0,0,.355-.351,42.83,42.83,0,0,0,3.182-12.2A40.131,40.131,0,0,0,197.054,113.664Z" transform="translate(-47.02 8.62)"/></g><path d="M220.377,32.363l-.492-.951c-.073-.141-.128-.283-.193-.427-.044-.1-.117-.253-.246-.248-.259.007-.378.444-.459.633-.122.285-.245.57-.354.863s-.179.586-.279.877c-.172.5-.382.985-.593,1.469a11.007,11.007,0,0,0-.959,2.876,5.584,5.584,0,0,0,0,1.551c.412,2.935,2.778,6.7,1.019,10.115a.842.842,0,0,0,.274,1.011,1.025,1.025,0,0,0,1.121-.026,2.437,2.437,0,0,0,.866-.93,11.467,11.467,0,0,0,1.691-4.67,8.63,8.63,0,0,0-.094-2.322,8.5,8.5,0,0,1,.27-2.958,7.536,7.536,0,0,0-.193-3.372,16.3,16.3,0,0,0-.661-1.834c-.191-.462-.357-.949-.586-1.392Z" transform="translate(14652.654 2001.879)"/><path d="M219.953,39.783a8.924,8.924,0,0,0-.124,2.666,10.039,10.039,0,0,1-.161,3.434,40.983,40.983,0,0,0-1.419-6.041c-.431-1.741.29-3.3.951-4.989A8.5,8.5,0,0,1,219.953,39.783Z" transform="translate(14652.96 2002.798)"/><path d="M82.6,65.166a16.411,16.411,0,0,1,2.657-.821,2.893,2.893,0,0,0,1.441-.984c.633-1.051-.426-2.043-.515-3.018a18.244,18.244,0,0,0,2.414-.311.81.81,0,0,0,.109-.046,3.78,3.78,0,0,0,.788.6c1.259.669,2.052-.313,3.174-.946,1.866-1.051,1.654-.551,2.762.922.281.376.57.955,1.075,1.08,1.07.263,2.486-.969,3.45-1.833.789.842,1.962,1.926,2.868,1.988,1.194.083,2.484-1.239,3.3-2,.246-.229.822-1.154,1.156-1.192s-.031.225.385.544c.034.026.065.058.1.086a13.365,13.365,0,0,1-1.046,3.153c-.9,1.406,1.7,1.134-2.3,1.085-.462-.006-.993-.339-1.455-.268-2.89.438-2.846,3.926-4.9,4.447s-3.943-1.725-6.2-.75c-2.391,1.036-3.232,4.788-6.116,2.076a.661.661,0,0,0-.312-.307c-.035-.038-.069-.064-.1-.1a.69.69,0,0,0-1.055.015c-.347-.011-.7-.017-1.046-.034.5-.35,1.064-.776.986-1.381a1.347,1.347,0,0,0-.329-.62c-.2-.278-.5-.467-.719-.728C82.88,65.478,82.8,65.09,82.6,65.166Z" transform="translate(14622.683 2008.105)"/><g class="b" transform="matrix(1, 0, 0, 1, 14688, 2009)"><path d="M131.883,24.792c-11.194-3.67-22.378,2.236-27.823,12.162-.473.864.847,1.636,1.32.772.018-.033.04-.064.057-.1l40.8,16.5c0,.1,0,.208,0,.311a.765.765,0,0,0,1.529,0C147.876,42.427,144.673,28.986,131.883,24.792Z" transform="translate(-60.55 -8.69)"/></g><g transform="translate(14815.671 2172.034)"><path d="M530.236,102.953a3.688,3.688,0,0,0-1.312.048,3.227,3.227,0,0,0-1.652.773,4.6,4.6,0,0,0-1.189,2.37,14.427,14.427,0,0,0-.284,3.112c0,1.018.05,2.033.082,3.05.01.325.018.65.016.975,0,.018.015.024.017.042,0,.19.144.367.363.276a10.4,10.4,0,0,0,5.737-5.613c.454-1.1.878-2.5.25-3.625a2.708,2.708,0,0,0-.9-.929,4.321,4.321,0,0,0-.587-.318A2.2,2.2,0,0,0,530.236,102.953Z" transform="translate(-518.562 -102.728)"/><path d="M526.539,102.828a4.24,4.24,0,0,0-1.2-.042,7.336,7.336,0,0,0-1.133.106,3.786,3.786,0,0,0-1.973.951c-1.215,1.167-1.506,2.947-2.273,4.385-.021.04,0,.075-.01.113a.311.311,0,0,0-.064.247l.028.169a.307.307,0,0,0,.295.224c1.529.1,4.118.306,5.4-.781,1.127-.952,1.045-2.561,1.121-3.9a6.834,6.834,0,0,1,.1-.932C526.891,103.089,526.822,102.911,526.539,102.828Z" transform="translate(-519.883 -102.762)"/><path d="M537.053,104.495a2.91,2.91,0,0,0-1.242-1.112,2.673,2.673,0,0,0-3.139.828,2.913,2.913,0,0,0-.537,1.5,7.636,7.636,0,0,0,.674,3.422,4.788,4.788,0,0,0,.2.444.488.488,0,0,0,.23.141c.37.062.762.059,1.137.1s.774.081,1.16.13.772.1,1.156.164a4.952,4.952,0,0,0,1.1.164c.17-.016.437-.061.448-.275a2.278,2.278,0,0,0-.137-.558c-.046-.195-.083-.39-.114-.587-.061-.4-.1-.8-.137-1.208a9.558,9.558,0,0,0-.423-2.37A4.07,4.07,0,0,0,537.053,104.495Z" transform="translate(-517.15 -102.671)"/></g><g transform="translate(14752.054 2175.704)"><path d="M474.847,106.379c-.039.022-.077.044-.114.068a4,4,0,0,0-.907,1.15,15.171,15.171,0,0,0-.8,1.345,14.94,14.94,0,0,0-1.151,2.906q-.081.29-.15.584a.3.3,0,0,0,.038.225.3.3,0,0,0,.132.105c.022.012.028.037.056.044a9.32,9.32,0,0,0,5.427.149,4.8,4.8,0,0,0,1-.48,1.675,1.675,0,0,0,.453-.329,1.53,1.53,0,0,0,.13-.493,4.312,4.312,0,0,0,.105-.56,5.858,5.858,0,0,0,.024-.971,5.949,5.949,0,0,0-.427-1.931,2.959,2.959,0,0,0-2.684-2.076A2.6,2.6,0,0,0,474.847,106.379Z" transform="translate(-466.017 -104.9)"/><g transform="translate(0 0)"><path d="M473.411,105.575a1.447,1.447,0,0,0-.415-.3,1.93,1.93,0,0,0-.526-.125,2.417,2.417,0,0,0-.48-.029,2.574,2.574,0,0,0-.91.22,4.86,4.86,0,0,0-1.616,1.266,20.438,20.438,0,0,0-2.31,3.514l-.065.111c-.012.021,0,.038-.007.059a.309.309,0,0,0-.016.188.276.276,0,0,0,.27.24q3.195.07,6.385-.077a.243.243,0,0,0,.239-.16.6.6,0,0,0,.021-.175c.015-.475.17-.92.213-1.39a6.6,6.6,0,0,0,0-1.39A3.441,3.441,0,0,0,473.411,105.575Z" transform="translate(-467.059 -105.122)"/><path d="M482.417,108.637a4.139,4.139,0,0,0-3.17-1.679.226.226,0,0,0-.233.109c-1.231,1.134-.932,2.816-.547,4.271.007.031.034.037.049.061s.032.039.048.06.045.056.08.069.029.042.059.051l3.565,1.132a.31.31,0,0,0,.346-.141A4.206,4.206,0,0,0,482.417,108.637Z" transform="translate(-464.585 -104.712)"/></g></g><path d="M461.2-1.855a.655.655,0,0,0-.745-.519.78.78,0,0,0-.409.065L453.529.742a.6.6,0,0,0-.374.515.739.739,0,0,0-.081.218c-.5,3.3-.242,10.119,5.012,9C462.794,9.476,462.008,1.4,461.2-1.855Z" transform="translate(14283.252 2047.177)"/><g transform="translate(14760.619 2092.511)"><g class="a" transform="matrix(1, 0, 0, 1, -72.62, -83.51)"><path d="M485.807,40.791a10.958,10.958,0,0,0-.092-1.6,13.722,13.722,0,0,0-.27-1.473,8.292,8.292,0,0,0-1.083-2.639,4.64,4.64,0,0,0-4.665-2.008,4.848,4.848,0,0,0-4.232,3.5,8.419,8.419,0,0,0-.3,2.446,12.575,12.575,0,0,0,.078,1.269,9.671,9.671,0,0,1,.177,1.43c-.06,1.522-.076,3.049-.057,4.571a46.7,46.7,0,0,0,.32,5.262,20.116,20.116,0,0,0,1.181,5.01,6.911,6.911,0,0,0,2.537,3.39,4.708,4.708,0,0,0,2.636.685,4.125,4.125,0,0,0,3.318-1.76,9.255,9.255,0,0,0,1.4-4.171,27.7,27.7,0,0,0,.116-5.282c-.1-1.705-.3-3.4-.541-5.093-.1-.668-.2-1.335-.31-2A9.17,9.17,0,0,1,485.807,40.791Z" transform="translate(-402.54 50.49)"/></g><g transform="translate(1.927 24.133)"><path d="M479.732,54.773a.5.5,0,0,0-.114.027.791.791,0,0,0-.45.538,1.976,1.976,0,0,0-.026.481c.013.329.075.656.088.985q.04,1,.082,2a.309.309,0,0,0,.57.154c.349-.554.683-1.116,1-1.691a4.043,4.043,0,0,0,.68-1.5c.027-.57-.542-.817-1.015-.913a3.863,3.863,0,0,0-.489-.07A1.768,1.768,0,0,0,479.732,54.773Z" transform="translate(-476.198 -52.296)"/><path d="M482.879,54.012c-.079.049-.153.113-.224.16a2.214,2.214,0,0,0-.628.5,1.071,1.071,0,0,0-.124.509.84.84,0,0,0,.13.393,4.638,4.638,0,0,0,.215.481l.779,1.734c.128.285.574.131.57-.154q-.024-1.7-.2-3.4a.319.319,0,0,0-.306-.292A.426.426,0,0,0,482.879,54.012Z" transform="translate(-475.581 -52.481)"/><path d="M478.075,53.866a.675.675,0,0,0-.458-.05.353.353,0,0,0-.213.213,12.334,12.334,0,0,0-.668,3.227.309.309,0,0,0,.522.215,7.8,7.8,0,0,0,1.609-2.1.935.935,0,0,0-.081-.933,1.742,1.742,0,0,0-.536-.482A1.479,1.479,0,0,0,478.075,53.866Z" transform="translate(-476.735 -52.514)"/><path d="M484.414,52.885a.418.418,0,0,0-.651.039c-.592,1,.191,1.478.882,2.163a.309.309,0,0,0,.511-.3,6.1,6.1,0,0,0-.378-1.205q-.127-.29-.281-.568A1.32,1.32,0,0,0,484.414,52.885Z" transform="translate(-475.212 -52.747)"/></g></g></g></svg>