<svg xmlns="http://www.w3.org/2000/svg" xmlns:xlink="http://www.w3.org/1999/xlink" width="204.38" height="136.65" viewBox="0 0 204.38 136.65"><defs><style>.a{filter:url(#m);}.b{filter:url(#k);}.c{filter:url(#i);}.d{filter:url(#g);}.e{filter:url(#e);}.f{filter:url(#c);}.g{filter:url(#a);}</style><filter id="a" x="89.29" y="83.756" width="35.874" height="50.581" filterUnits="userSpaceOnUse"><feOffset dy="1" input="SourceAlpha"/><feGaussianBlur stdDeviation="3" result="b"/><feFlood flood-opacity="0.161"/><feComposite operator="in" in2="b"/><feComposite in="SourceGraphic"/></filter><filter id="c" x="86.356" y="113.594" width="23.818" height="23.056" filterUnits="userSpaceOnUse"><feOffset dy="1" input="SourceAlpha"/><feGaussianBlur stdDeviation="3" result="d"/><feFlood flood-opacity="0.161"/><feComposite operator="in" in2="d"/><feComposite in="SourceGraphic"/></filter><filter id="e" x="17.147" y="38.284" width="137.127" height="71.642" filterUnits="userSpaceOnUse"><feOffset dy="3" input="SourceAlpha"/><feGaussianBlur stdDeviation="3" result="f"/><feFlood flood-opacity="0.161"/><feComposite operator="in" in2="f"/><feComposite in="SourceGraphic"/></filter><filter id="g" x="0" y="51.309" width="45.865" height="54.431" filterUnits="userSpaceOnUse"><feOffset dy="3" input="SourceAlpha"/><feGaussianBlur stdDeviation="3" result="h"/><feFlood flood-opacity="0.161"/><feComposite operator="in" in2="h"/><feComposite in="SourceGraphic"/></filter><filter id="i" x="34.788" y="0" width="58.184" height="44.735" filterUnits="userSpaceOnUse"><feOffset dx="3" dy="-6" input="SourceAlpha"/><feGaussianBlur stdDeviation="3" result="j"/><feFlood flood-opacity="0.161"/><feComposite operator="in" in2="j"/><feComposite in="SourceGraphic"/></filter><filter id="k" x="67.69" y="64.756" width="36.216" height="47.411" filterUnits="userSpaceOnUse"><feOffset dy="1" input="SourceAlpha"/><feGaussianBlur stdDeviation="3" result="l"/><feFlood flood-opacity="0.161"/><feComposite operator="in" in2="l"/><feComposite in="SourceGraphic"/></filter><filter id="m" x="116.187" y="48.875" width="44.071" height="54.271" filterUnits="userSpaceOnUse"><feOffset dx="3" dy="-6" input="SourceAlpha"/><feGaussianBlur stdDeviation="3" result="n"/><feFlood flood-opacity="0.161"/><feComposite operator="in" in2="n"/><feComposite in="SourceGraphic"/></filter></defs><g transform="translate(9 6.282)"><g transform="translate(54.359 75.392)"><path d="M78.732,95.432c-.012-.026,0-.053-.023-.078-1.034-1.25-2.545-1.881-3.84-2.8a.343.343,0,0,0-.619-.08c-1.577,2.749-5.261,5.623-5.631,8.852-.349,3.047,2.35,5.894,4.443,7.678a.347.347,0,0,0,.483,0,2.612,2.612,0,0,0,.649-1.925,1.479,1.479,0,0,0,1.218.209,2.357,2.357,0,0,0,1.487-.821c.628-.99-.289-1.833-1.089-2.383a.35.35,0,0,0-.109-.125c-3.347-2.329,1.713-6.089,3.08-8.127A.285.285,0,0,0,78.732,95.432Z" transform="translate(-68.587 -92.303)"/><path d="M75.927,102.4c-.8-.926-2.324.316-2.919.918a.293.293,0,0,0-.044.366,2.89,2.89,0,0,0,.626,1.535,9.408,9.408,0,0,0,1.771,2.028.345.345,0,0,0,.57-.15,10.987,10.987,0,0,0,.37-2.57A3.4,3.4,0,0,0,75.927,102.4Z" transform="translate(-67.01 -88.747)"/><path d="M73.9,103.978c-.642-.768-1.423-.288-1.983.292a1.314,1.314,0,0,0-.477,1.421,2.106,2.106,0,0,0,.855.979q.87.7,1.7,1.439a.346.346,0,0,0,.582-.241C74.56,106.625,74.763,105.018,73.9,103.978Z" transform="translate(-67.571 -88.197)"/></g><g transform="translate(84.608 85.475)"><path d="M99.656,117.623a.265.265,0,0,0-.3-.08c-1.833.63-4.02.359-5.357,2.008-1.189,1.466-.9,2.8.094,4.294a.35.35,0,0,0,.542.048.317.317,0,0,0,.318-.06,34.847,34.847,0,0,0,2.809-3,14.849,14.849,0,0,0,2.054-2.742A.327.327,0,0,0,99.656,117.623Z" transform="translate(-89.869 -93.203)"/><g class="g" transform="matrix(1, 0, 0, 1, -93.61, -91.76)"><path d="M108.9,104.27c-2.24-2.944-7.191-5.923-10.514-3.926a.671.671,0,0,0-.88.206c-3.818,4.781-1.608,13.109,3.23,16.525,2.942,5.53-4.237,8.075-6.057,12.295-.005.014,0,.027-.008.041-.733.363-.626,1.675.341,1.612.445-.029.638.363.84.705a.805.805,0,0,0,.1.112.708.708,0,0,0,1.1.274c.28-.206.878-.209,1.226-.364a6.929,6.929,0,0,0,1.333-.833c.011-.01.015-.022.027-.031a.882.882,0,0,0,.274-.265c.258-.385.914-.271,1.307-.271a9.172,9.172,0,0,1,1.736-.068.84.84,0,0,0,.492-.055.763.763,0,0,0,.536-.244c1.346-1.393,1.719-3.109,2.387-4.871.715-1.889,2.018-3.435,2.84-5.233a.823.823,0,0,0,.1-.086C113.277,114.7,112.812,109.407,108.9,104.27Z" transform="translate(4.09 -7.94)"/></g><path d="M102.5,121.625a.313.313,0,0,0-.209-.266c-.027-.01-.053-.011-.08-.019a1.4,1.4,0,0,0-.173-.13.306.306,0,0,0-.312.011,3.248,3.248,0,0,0-3.523,1.867.254.254,0,0,0-.17.217q-.28,1.884-.415,3.784a.342.342,0,0,0,.513.293c.928-.664,1.869-1.307,2.835-1.915a3.587,3.587,0,0,0,1.517-1.252A2.633,2.633,0,0,0,102.5,121.625Z" transform="translate(-88.267 -91.875)"/><path d="M94.945,121.031a1.45,1.45,0,0,0-.581-.794l-.01-.008h-.008a.706.706,0,0,0-.428-.06,1.935,1.935,0,0,0-1.3.832c-.636.722-1.23,1.477-1.8,2.252a.342.342,0,0,0,.2.5,11.581,11.581,0,0,0,2.1.222,7.879,7.879,0,0,0,2.054.076.34.34,0,0,0,.239-.239A5.47,5.47,0,0,0,94.945,121.031Z" transform="translate(-90.763 -92.244)"/><g class="f" transform="matrix(1, 0, 0, 1, -93.61, -91.76)"><path d="M95.023,121.636a.277.277,0,0,0-.146.113c-1.6.565-2.383,3.049-2.815,4.44a.306.306,0,0,0,.291.4c.03.008.044.034.079.034,1.885.029,3.537-.839,5.214-1.621.014-.007.011-.019.023-.027.04-.016.059-.063.087-.1s.05-.053.056-.087c0-.014.018-.014.019-.029C98.08,123.158,96.845,121.178,95.023,121.636Z" transform="translate(3.31 0.03)"/></g></g><path d="M43.94,81.511a.382.382,0,0,0-.042.012l-.008,0c-1.172-.1-1.506-.292-1.286-1.5a6.589,6.589,0,0,1,.663-1.861,13.066,13.066,0,0,1,2.618-3.242A.749.749,0,0,0,46,74.752a36.808,36.808,0,0,0,4.379.113,34.763,34.763,0,0,0,9.214-1.4C55.554,77.507,48.921,81.093,43.94,81.511Z" transform="translate(-23.712 -23.772)"/><path d="M43.266,78.159a6.589,6.589,0,0,0-.663,1.861c-.22,1.21.115,1.4,1.286,1.5l.008,0a.382.382,0,0,1,.042-.012c4.982-.419,11.614-4,15.65-8.049a34.763,34.763,0,0,1-9.214,1.4A36.808,36.808,0,0,1,46,74.752a.749.749,0,0,1-.113.164A13.066,13.066,0,0,0,43.266,78.159Z" transform="translate(-23.712 -23.772)"/><g class="e" transform="matrix(1, 0, 0, 1, -9, -6.28)"><path d="M159.678,101.55c-.638-.075-1.27-.156-1.878-.265a54.636,54.636,0,0,1-6.353-1.649,23.011,23.011,0,0,0-14.349.325c-5.687,1.84-8.463,6.689-14.178,7.958a23.038,23.038,0,0,1-15.049-2.87c-3.583-2-7.249-4.162-9.913-7.354-2.464-2.952-3.4-6.612-5.309-9.883-1.477-1.415-2.765-.73-4.137.326a2.609,2.609,0,0,1-1.921.683,3.628,3.628,0,0,1-2.631-2.234.894.894,0,0,1-.187-.282,10.788,10.788,0,0,1-.116-8.609c1.484-4.072,3.416-8.565-.514-11.823C77.038,61.708,69.294,72,64.234,74.818a21.9,21.9,0,0,1-4.2,1.764C56,80.626,49.37,84.212,44.388,84.631a.381.381,0,0,0-.042.012l-.008,0c-1.172-.1-1.506-.292-1.286-1.5a6.59,6.59,0,0,1,.663-1.861,13.066,13.066,0,0,1,2.618-3.242.75.75,0,0,0,.113-.164c-.692-.061-1.375-.153-2.049-.267-1.9,2.173-4.234,6.058-2.453,7.837a.8.8,0,0,0,.15.33c3.226,4.351,6.355,7.385,11.816,8.431a42.815,42.815,0,0,0,8.808.733c3.742-.075,7.674-1.636,11.04.509a.864.864,0,0,0,.168.18c10.618,7.621,18.4,20.3,32.19,22.454,13.3,2.073,26.4-3.326,38.668-7.711a52.014,52.014,0,0,0,15.653-8.775.8.8,0,0,1-.262.029C160,101.6,159.846,101.57,159.678,101.55Z" transform="translate(-15.16 -20.61)"/></g><path d="M58.873,50.142a31.723,31.723,0,0,1,2.968-1.921c.3-.173.61-.334.918-.5a6.652,6.652,0,0,1,1.6-2.469,8.539,8.539,0,0,1,3.526-2.324.338.338,0,0,0,.25-.445c0-.011-.01-.018-.012-.029a.36.36,0,0,0-.363-.247,5.491,5.491,0,0,0-3.478-.053,24.2,24.2,0,0,0-2.544.707,6.779,6.779,0,0,1,2.815-1.75.391.391,0,0,0,.15-.086.345.345,0,0,0,.033-.045.357.357,0,0,0,.075-.211v-.015a.411.411,0,0,0-.086-.247l0,0a.32.32,0,0,0-.258-.12l-.008,0a12.719,12.719,0,0,0-4.628.644,14.643,14.643,0,0,0-2.979,1.655,8.119,8.119,0,0,1,1.933-2.108.373.373,0,0,0,.154-.282c.079-.228-.008-.5-.308-.472-4.915.543-8.486,4.724-10.851,8.752a.383.383,0,0,0-.049.161C51.426,47.382,55.879,47.774,58.873,50.142Z" transform="translate(-21.825 -36.021)"/><path d="M79.778,47.725c7.05,3.417,11.36,11.392,9.944,18.754a8.2,8.2,0,0,1,.183,2.225.3.3,0,0,0,.326.327.257.257,0,0,0,.3-.082c.895-1.068.812-2.5.772-3.826a5.35,5.35,0,0,0-.674-2.562A5.355,5.355,0,0,1,91.867,65a.282.282,0,0,0,.282.221.332.332,0,0,0,.121.008h0a.25.25,0,0,0,.273-.225,10,10,0,0,0-.591-5.293A6.388,6.388,0,0,0,89.47,56.78,6.907,6.907,0,0,1,93.663,59.4c.25.329.788.038.614-.293a.253.253,0,0,0,.007-.157c-1.5-3.814-3.517-7.676-7.393-8.943a6.918,6.918,0,0,1,4.7,1.6.28.28,0,0,0,.164.07l.026.011a.268.268,0,0,0,.093.005c.221.022.457-.125.363-.391a8.659,8.659,0,0,0-4.662-5.435,18.262,18.262,0,0,0-4.128-1.248,12.545,12.545,0,0,1,4.781.322c.015,0,.022-.007.035,0a.272.272,0,0,0,.154-.022.259.259,0,0,0,.105-.05.325.325,0,0,0,.046-.067.346.346,0,0,0,.065-.135.31.31,0,0,0-.007-.1.278.278,0,0,0-.052-.146c-.01-.015,0-.031-.015-.046-3.109-3.421-9.832-4.225-14.515-3.073a22.16,22.16,0,0,1,5.666-2.886.343.343,0,0,0,.135-.558.282.282,0,0,0-.284-.2c-8.141.183-17.205,4.1-21.486,11.359C64.589,45.286,72.294,44.1,79.778,47.725Z" transform="translate(-18.057 -36.81)"/><g class="d" transform="matrix(1, 0, 0, 1, -9, -6.28)"><path d="M53.172,74.516c-.231.172-.514.379-.895.633-3.537,2.367-7.549,4.718-10.405,7.924a24.166,24.166,0,0,0-5.4,9.351,37.523,37.523,0,0,1-6.593,12.561.294.294,0,0,0-.059.153c-1.292,1.524-1.84,5.287.756,5.7a3.346,3.346,0,0,0,3.1-1.616,12.792,12.792,0,0,0,2.36-4.844c2.4-6.94,4.744-13.586,8.968-19.7,3.612-3.81,7.887-6.632,11.6-10.242-.4.022-.8.055-1.2.067C54.667,74.532,53.921,74.535,53.172,74.516Z" transform="translate(-19.74 -17.13)"/></g><path d="M221.24,37.521a.7.7,0,0,0-.978-.42.724.724,0,0,0-.07.026,86.088,86.088,0,0,0-16.235,8.224c-8.22,5.226-14.764,11.156-22.632,16.832A116.774,116.774,0,0,1,170.3,69.018c-2.117,1.194-4.173,2.491-6.32,3.634a28.32,28.32,0,0,1-7.687,3.041,8.23,8.23,0,0,1-4.124-.016,5.063,5.063,0,0,1-1.717-1.173q-.933-.816-1.9-1.589a37.807,37.807,0,0,0-7.994-4.93,36.606,36.606,0,0,0-9.295-2.708l-.412-.064a58.436,58.436,0,0,0-19.586.465,66.4,66.4,0,0,0-6.665,1.592c-1.078.326-2.144.69-3.189,1.11-1,.4-1.914.958-2.9,1.4-.754.342-1.048.4-1.528-.291a.906.906,0,0,0-.105-.1,14.581,14.581,0,0,0,.776-2.687c1.416-7.362-2.895-15.336-9.944-18.754-7.137-3.458-14.472-2.533-20.787.788-.308.162-.615.323-.918.5a31.725,31.725,0,0,0-2.968,1.921c-2.994-2.368-7.447-2.76-11.149-1.409a10.054,10.054,0,0,0-5.613,4.7,17.617,17.617,0,0,0-1.43,5.831,15.682,15.682,0,0,1-4.506,9.786c-2.371,2.522-4,4.462-4.051,8.032.266,6.211,4.728,8.774,9.936,9.655.674.115,1.357.206,2.049.267.713.064,1.434.1,2.15.12.749.019,1.5.016,2.229-.007.4-.012.8-.045,1.2-.067a33.306,33.306,0,0,0,8.013-1.337,21.9,21.9,0,0,0,4.2-1.764c5.059-2.82,12.8-13.11,18.909-8.944,3.93,3.257,2,7.751.514,11.823a10.788,10.788,0,0,0,.116,8.609.894.894,0,0,0,.187.282,3.628,3.628,0,0,0,2.631,2.234,2.609,2.609,0,0,0,1.921-.683c1.372-1.056,2.66-1.741,4.137-.326,1.912,3.271,2.845,6.931,5.309,9.883,2.664,3.192,6.329,5.358,9.913,7.354a23.038,23.038,0,0,0,15.049,2.87c5.716-1.269,8.491-6.118,14.178-7.958a23.011,23.011,0,0,1,14.349-.325,54.637,54.637,0,0,0,6.353,1.649c.608.109,1.24.19,1.878.265.168.02.323.053.5.071a.8.8,0,0,0,.262-.029c.169-.145.337-.293.5-.442a31.7,31.7,0,0,0,5.377-6.08c3.064-4.586,4.776-9.947,7.509-14.724,1.731-3.021,3.638-5.938,5.587-8.823,1.9-2.81,3.661-5.71,5.747-8.389,1.622-2.084,3.384-4.5,6.77-8.28,4.44-4.958,6.84-7.872,11.491-12.6,4.447-4.523,9.708-8.12,14.353-12.421.516-.477,1.023-.962,1.52-1.458A.77.77,0,0,0,221.24,37.521Z" transform="translate(-25.988 -37.035)"/><g class="c" transform="matrix(1, 0, 0, 1, -9, -6.28)"><path d="M81.975,45.622C71.1,40.353,59.75,45.217,52.274,53.3c-.743.8.458,2.013,1.206,1.206.078-.085.157-.161.236-.244l34.5,14.746c-.449.873.924,1.636,1.513.763C95.4,61.357,90.811,49.9,81.975,45.622Z" transform="translate(-11.25 -28.43)"/></g><g transform="translate(78.274 33.09)"><path d="M93.169,64.819a2.684,2.684,0,0,0-1.451-2.1,3.083,3.083,0,0,0-1.925-.035c-.642.145-1.3.188-1.941.34-.971.231-1.847.793-1.72,1.911.186,1.644,2.7,3.365,4.223,3.573C92.431,68.794,93.481,66.6,93.169,64.819Z" transform="translate(-86.119 -60.834)"/><path d="M125.366,68.806a2.721,2.721,0,0,0-.825-.09c-.274,0-.547,0-.82.016a2.32,2.32,0,0,0-1.455.5,1.275,1.275,0,0,0-.265.356c-.563,1.127.49,2.163,1.424,2.555.468.2,1.129.574,1.651.417.484-.147.816-.749.994-1.174a2.732,2.732,0,0,0,.2-1.455,1.467,1.467,0,0,0-.517-.914A1.2,1.2,0,0,0,125.366,68.806Z" transform="translate(-73.112 -58.59)"/><path d="M121.752,73.2a.571.571,0,0,0-.2-.041c-.364-.01-.776.127-1.151.142-.42.016-.84.012-1.259.056a.988.988,0,0,0-.929.573,2.174,2.174,0,0,0,1.194,2.481,2.2,2.2,0,0,0,2.679-.629,1.816,1.816,0,0,0,.393-1.484A1.6,1.6,0,0,0,121.752,73.2Z" transform="translate(-74.47 -56.971)"/><path d="M115.537,67.72l-.13.04a8.088,8.088,0,0,0-2.21.958,2.881,2.881,0,0,0-1.2,2.951,5.082,5.082,0,0,0,5.132,3.72c1.2-.169,1.727-1.559,2.154-2.528.5-1.127,1.02-2.751.468-3.959a2.526,2.526,0,0,0-1.867-1.421A4.977,4.977,0,0,0,115.537,67.72Z" transform="translate(-76.714 -59.06)"/><path d="M103.56,70.362c-.014,0-.02.008-.033.007a2.784,2.784,0,0,0-1.083.029c-.974.229-2.757.833-3.376,1.723-1.906,2.743,4.346,3.015,5.556,3.2,2.462.37,6.589,1.7,6.625-2.053C111.287,69.405,105.941,70.778,103.56,70.362Z" transform="translate(-81.535 -58.002)"/><path d="M107.9,64.842c-.151.067-.306.127-.464.18-.488.165-1.232.465-1.226,1.086a1.161,1.161,0,0,0,.246.629c1.32,1.887,3.373,1.537,5.154.723.589-.27,1.644-.645,1.855-1.342.194-.636-.446-1.566-.84-2-1.052-1.149-2.3-.626-3.455.048A11.943,11.943,0,0,1,107.9,64.842Z" transform="translate(-78.804 -60.509)"/><path d="M102.334,70.184c1.417-.7,3.417-1.873,4.016-3.468.419-1.114-.241-1.717-1-2.506-1-1.039-2.428-2.51-3.905-2.832a6.476,6.476,0,0,0-4.133.907c-.945.453-2.513.974-2.372,2.3a1.991,1.991,0,0,0,.236.72c.361.683,1.368,1.158,1.885,1.693.8.831,1.391,1.768,2.279,2.524C100.512,70.521,100.967,70.862,102.334,70.184Z" transform="translate(-82.911 -61.292)"/><path d="M126.031,72.926a1.944,1.944,0,0,0-.667.48.725.725,0,0,0-.121.772,1.361,1.361,0,0,0,1.562.576,1.212,1.212,0,0,0,.5-1.7.692.692,0,0,0-.573-.341.943.943,0,0,0-.342.06A3.862,3.862,0,0,0,126.031,72.926Z" transform="translate(-71.897 -57.133)"/><path d="M128.976,66.744a.653.653,0,0,0-.608.1c-.367.315-.862.764-.7,1.31.105.359.573.848.977.779.469-.08.637-.8.737-1.176a.945.945,0,0,0-.035-.746A.644.644,0,0,0,128.976,66.744Z" transform="translate(-71.003 -59.32)"/><path d="M130.177,69.562a.5.5,0,0,0-.486-.026c-.241.15-.614.311-.612.652a1.045,1.045,0,0,0,.612.757.364.364,0,0,0,.413-.053,1.142,1.142,0,0,0,.321-1A.451.451,0,0,0,130.177,69.562Z" transform="translate(-70.478 -58.31)"/><path d="M132.081,64.491a.427.427,0,0,0-.093-.027.468.468,0,0,0-.42.128c-.2.232-.517.54-.361.873a.777.777,0,0,0,.746.342.594.594,0,0,0,.5-.63A.762.762,0,0,0,132.081,64.491Z" transform="translate(-69.718 -60.141)"/></g><g transform="translate(66.036 66.475)"><path d="M79.944,101.435c-1.174.465-2.3,1.048-2.65,2.363a7.423,7.423,0,0,0,.629,4.477c.273.709,1.46.9,1.644,0a20.659,20.659,0,0,1,1.041-4.507.842.842,0,0,0-.037-.8C81.328,102.45,80.9,101.058,79.944,101.435Z" transform="translate(-77.148 -80.085)"/><g class="b" transform="matrix(1, 0, 0, 1, -75.04, -72.76)"><path d="M95.459,87.892c-2.393-3.573-7.783-2.4-9.118,1.73-.488,1.513.068,3.27-.162,4.811-.617,4.13-2.719,5.619-5.1,8.486-2.781,3.343-1.58,7.219-2.686,11.177a.775.775,0,0,0,.049.559.5.5,0,0,0,.019.048.874.874,0,0,0,.049.086.711.711,0,0,0,.707.386c2.223-.123,3.238-1.589,3.907-3.416.143,1.027.336,1.817,1.586,1.712,2.738-.229,2.7-3.435,2.852-5.505,1.912-4.751,7.168-6.826,8.363-12.132C96.5,93.261,97.232,89.949,95.459,87.892Z" transform="translate(-1.67 -13.01)"/></g><g transform="translate(1.471 26.839)"><path d="M85.018,106.031c-.273-.921-2.331-.607-2.859-.112a.278.278,0,0,0-.055.351c0,.008-.005.012,0,.019q.376,1.651.754,3.3c.06.266.506.356.623.082.3-.709.734-1.344,1.076-2.031C84.761,107.226,85.16,106.509,85.018,106.031Z" transform="translate(-76.828 -105.442)"/><path d="M81.831,106.822a2.216,2.216,0,0,0-3.458.089l-.007.016a.321.321,0,0,0-.124.225c-.127,1.434.509,2.9.707,4.3a.324.324,0,0,0,.439.22.353.353,0,0,0,.453-.108c.911-1.282,2.147-2.824,2.155-4.466A.281.281,0,0,0,81.831,106.822Z" transform="translate(-78.226 -105.227)"/></g></g><g transform="translate(113.187 57.594)"><path d="M132.889,112.26a28.187,28.187,0,0,0,4.83-17.81c-.385-5.939-1.674-13.215-8.283-14.75-16.328-3.791-20.137,17.564-16.4,28.756a.906.906,0,0,0,.014.132c1.121,3.549,2.27,7.013,4.572,9.988,1.4,1.812,3.69,3.061,4.973,4.86,4.654,6.523.7,10.192-3.334,13.721a.767.767,0,0,0-.235.371.74.74,0,0,0-.292.881c.323,1.029.678,2.042,1.067,3.049a.875.875,0,0,0,1.048.595,20.111,20.111,0,0,1,6.342-.447.693.693,0,0,0,.779-.552.926.926,0,0,0,.254-.229c1.737-2.343,2.151-4.323,2.882-7.066.914-3.432,2.844-6.464,3.825-9.856C136.076,119.95,136.126,115.156,132.889,112.26Z" transform="translate(-111.712 -79.256)"/><g class="a" transform="matrix(1, 0, 0, 1, -122.19, -63.88)"><path d="M137.721,94.451c-.385-5.939-1.674-13.215-8.283-14.75-16.545-3.841-20.242,18.142-16.25,29.2a.894.894,0,0,0,1.638.078l14.446,5.372c-.25.779.752,1.626,1.38.893A28.512,28.512,0,0,0,137.721,94.451Z" transform="translate(10.47 -15.38)"/></g><path d="M125.169,124.158a.342.342,0,0,0-.153-.116c-.8-.675-2.157.33-2.6,1.067a.269.269,0,0,0-.023.166c-.2,1.05-.438,2.091-.712,3.125a.344.344,0,0,0,.57.331c.984-.9,2.05-1.7,3.042-2.581C125.981,125.535,125.651,124.821,125.169,124.158Z" transform="translate(-108.091 -63.03)"/><path d="M122.49,122.923a6.337,6.337,0,0,0-2.217.648,2.8,2.8,0,0,0-.747-1.563c-.018-.033-.01-.07-.042-.1-1.1-1.031-2.184-.3-3.139.527a9.186,9.186,0,0,0-2.891,4.65.323.323,0,0,0,.044.258,1.21,1.21,0,0,0,.2.157.342.342,0,0,0,.252-.015h0a18.526,18.526,0,0,1,3.734-1.046l.056-.014a12.885,12.885,0,0,0-.727,2.027.264.264,0,0,0-.014.044c0,.019-.014.042-.018.061s.011.038.01.061a.331.331,0,0,0,.022.131.286.286,0,0,0,.089.128.267.267,0,0,0,.057.04.329.329,0,0,0,.337.008c1.554-.406,3.492-.376,4.862-1.281a4.063,4.063,0,0,0,1.262-3.143C123.629,123.753,123.316,122.971,122.49,122.923Z" transform="translate(-111.084 -63.911)"/></g><path d="M59.036,64.055a2.1,2.1,0,1,1,4.15-.567c.127,1.078,1.833,1.09,1.705,0a3.959,3.959,0,0,0-4.339-3.709,3.8,3.8,0,0,0-3.161,4.731c.2,1.078,1.842.621,1.645-.454Z" transform="translate(-18.333 -28.764)"/></g></svg>