<svg xmlns="http://www.w3.org/2000/svg" xmlns:xlink="http://www.w3.org/1999/xlink" width="375.001" height="812" viewBox="0 0 375.001 812"><defs><style>.a{fill:#f2fcfc;}.b,.q,.t,.v{fill:#fff;}.c{fill:#b1d1aa;}.d{fill:#a4c39d;}.e{fill:#bad8b4;}.f{fill:#cbe4c6;}.g{fill:#70bced;}.h{fill:#a3e5dd;}.i{fill:#719a95;}.j,.r{font-size:12px;}.j{font-family:GenJyuuGothic-P-Regular, Gen Jyuu Gothic P;}.j,.p,.r,.t,.v{letter-spacing:0.05em;}.k{font-family:PingFangTC-Regular, PingFang TC;}.l{fill:#545756;font-size:9px;font-family:GenJyuuGothic-P-Medium, Gen Jyuu Gothic P;font-weight:500;}.m{fill:#ffe87e;}.n{fill:#ffecaa;}.o{fill:#3b3b3b;}.p,.r,.s{fill:#416545;}.p,.t{font-size:18px;}.p,.r,.t{font-family:GenJyuuGothic-P-Heavy, Gen Jyuu Gothic P;}.p,.r,.t,.v{font-weight:800;}.q{stroke:#416545;stroke-width:2px;}.u{fill:#be0000;stroke:#f2fcfc;}.v{font-size:8px;font-family:NeutrifStudio-ExtraBoldItalic, Neutrif Studio;font-style:italic;}.w{stroke:none;}.x{fill:none;}.y{filter:url(#o);}.z{filter:url(#m);}.aa{filter:url(#k);}.ab{filter:url(#i);}.ac{filter:url(#g);}.ad{filter:url(#e);}.ae{filter:url(#c);}.af{filter:url(#a);}</style><filter id="a" x="248.621" y="651.518" width="103.516" height="102.93" filterUnits="userSpaceOnUse"><feOffset dy="5" input="SourceAlpha"/><feGaussianBlur stdDeviation="3" result="b"/><feFlood flood-opacity="0.161"/><feComposite operator="in" in2="b"/><feComposite in="SourceGraphic"/></filter><filter id="c" x="113.02" y="429.273" width="34.981" height="42.411" filterUnits="userSpaceOnUse"><feOffset dy="3" input="SourceAlpha"/><feGaussianBlur stdDeviation="3" result="d"/><feFlood flood-opacity="0.161"/><feComposite operator="in" in2="d"/><feComposite in="SourceGraphic"/></filter><filter id="e" x="86.001" y="331" width="251.376" height="174.255" filterUnits="userSpaceOnUse"><feOffset dy="3" input="SourceAlpha"/><feGaussianBlur stdDeviation="3" result="f"/><feFlood flood-opacity="0.161"/><feComposite operator="in" in2="f"/><feComposite in="SourceGraphic"/></filter><filter id="g" x="119.371" y="433.341" width="100.118" height="75.681" filterUnits="userSpaceOnUse"><feOffset dy="5" input="SourceAlpha"/><feGaussianBlur stdDeviation="3" result="h"/><feFlood flood-opacity="0.161"/><feComposite operator="in" in2="h"/><feComposite in="SourceGraphic"/></filter><filter id="i" x="130.742" y="322" width="90.637" height="84.637" filterUnits="userSpaceOnUse"><feOffset dx="3" dy="-6" input="SourceAlpha"/><feGaussianBlur stdDeviation="3" result="j"/><feFlood flood-opacity="0.161"/><feComposite operator="in" in2="j"/><feComposite in="SourceGraphic"/></filter><filter id="k" x="83" y="359.019" width="63.906" height="71.503" filterUnits="userSpaceOnUse"><feOffset dx="-3" dy="6" input="SourceAlpha"/><feGaussianBlur stdDeviation="3" result="l"/><feFlood flood-opacity="0.161"/><feComposite operator="in" in2="l"/><feComposite in="SourceGraphic"/></filter><filter id="m" x="176.005" y="438.576" width="59.386" height="92.492" filterUnits="userSpaceOnUse"><feOffset dy="3" input="SourceAlpha"/><feGaussianBlur stdDeviation="3" result="n"/><feFlood flood-opacity="0.161"/><feComposite operator="in" in2="n"/><feComposite in="SourceGraphic"/></filter><filter id="o" x="149.6" y="428.181" width="34.981" height="42.411" filterUnits="userSpaceOnUse"><feOffset dy="3" input="SourceAlpha"/><feGaussianBlur stdDeviation="3" result="p"/><feFlood flood-opacity="0.161"/><feComposite operator="in" in2="p"/><feComposite in="SourceGraphic"/></filter></defs><rect class="a" width="375.001" height="281.383" transform="translate(0)"/><path class="b" d="M270.962,217.04c-8.235,3.805-16.7,7.671-25.75,8.306S226.261,222.7,221.5,214.977c-3.1-5.019-3.864-11.515-8.147-15.568-5.759-5.45-14.982-4.028-22.614-1.875s-16.333,4.551-23.042.325c-11.45-7.212-8.065-27.895-20.163-33.956-6.861-3.438-15.041-.091-21.889,3.371s-14.759,7.138-21.87,4.255c-5.359-2.171-8.72-7.639-10.321-13.2s-1.8-11.412-2.93-17.084C86.416,120.572,68.9,103.222,48.187,99.31,38.094,97.4,27.3,98.554,18.239,103.4S2.067,116.951,0,127.013V247.642H270.962Z"/><path class="c" d="M375,217.448V301.5H0v-98.45c20.719-5.11,45.581-9.273,71.592-9.273,67.328,0,76,28.854,115.908,31.74,29.134,2.106,123.635-21.419,187.5-8.075"/><path class="d" d="M0,214.261s154.791,15.827,187.5,17.2S375,237.6,375,237.6v53.049H0Z"/><path class="e" d="M187.679,237.6c-76.322,0-144.227,3.9-187.679,9.95V812H375V247.494C331.533,241.47,263.79,237.6,187.679,237.6Z"/><path class="f" d="M168.937,265.127C102.648,283.38,43.452,284.591,0,290.644V812H375V247.494C331.533,241.47,242.317,244.921,168.937,265.127Z"/><path class="b" d="M375,65.5V60.24a37.691,37.691,0,0,0-13.577-.734c-14.429,1.875-26.586,11.888-31.906,25.283-3.277,8.251-5.27,17.3-15.411,18.969-7.307,1.2-14.906-.655-22.1,1.575-16.085,4.988-11.1,27.122-26.129,32.55-8.286,2.992-18.042,1.683-25.337,7.35-7.67,5.958-7.3,18.665-.946,25.492a41.689,41.689,0,0,0,7.535,6.06,34.159,34.159,0,0,0,15.452,5.576,32.346,32.346,0,0,0,3.875.152c7.15-.149,13.883-2.833,20.578-5.049,8.343-2.761,15.735-3.589,24.288-1.139,7.277,2.084,14.167,4.536,21.768,5.245,8.388.782,16.829-.049,25.131-1.283,5.443-.809,11.135-1.589,16.776-2.7V65.5Z"/><ellipse class="e" cx="74.508" cy="23.105" rx="74.508" ry="23.105" transform="translate(112.992 491.496)"/><rect class="b" width="375" height="217" transform="translate(0 595)"/><g transform="translate(255.992 655.518)"><ellipse class="g" cx="49.097" cy="13.474" rx="49.097" ry="13.474" transform="translate(0 62.88)"/><g class="af" transform="matrix(1, 0, 0, 1, -255.99, -655.52)"><path class="h" d="M351.368,552.118a1.68,1.68,0,0,1-.14.2,15.261,15.261,0,0,1-2.288,2.3,19.111,19.111,0,0,1-2.863,1.894,35.4,35.4,0,0,1-6.538,2.639c-1.8.556-3.62,1.031-5.436,1.521a91.251,91.251,0,0,1-20.142,3.1,84.135,84.135,0,0,1-19.531-1.451,78.655,78.655,0,0,1-8.928-2.293,41.8,41.8,0,0,1-5.828-2,8.476,8.476,0,0,1-2.434-1.719,5.533,5.533,0,0,1-1.211-1.809,3.05,3.05,0,0,1,.248-2.224c.51-1.641.895-3.316,1.3-4.984.136-.559,1.28-6.447,1.409-6.447a28.283,28.283,0,0,0,8.727.381c1.277-.164,1.293-2.195,0-2.028-7.065.9-19.578-1.9-21.649-9.9.048-1.819,2.334-2.045,3.7-1.843a11.5,11.5,0,0,1,2.408.823q1.764.675,3.587,1.179c4.815,1.321,10.143,1.753,14.906-.009a15.939,15.939,0,0,0,3.464-1.783,7.445,7.445,0,0,0,3.1-4.107,6.118,6.118,0,0,0-.509-4.42,7.3,7.3,0,0,0-3.592-3.232,11.266,11.266,0,0,0-1.9-.583,18.332,18.332,0,0,0-1.99-.263c-1.4-.174-2.789-.44-4.171-.721l-.413-.084a52.79,52.79,0,0,1-8.818-2.5c-2.1-.828-4.809-1.969-5.928-4.081-1.133-2.136.583-4.331,2.461-5.264a11.339,11.339,0,0,0,2.61-1.66,7.019,7.019,0,0,0,1.749-3.043c.358-.927.754-1.838,1.2-2.725a27.642,27.642,0,0,1,3.065-4.8,28.314,28.314,0,0,1,8.307-7.015,33.257,33.257,0,0,1,10.281-3.65,38.491,38.491,0,0,1,11.143-.372,39.117,39.117,0,0,1,10.893,2.819,35.22,35.22,0,0,1,9.319,5.737c8.408,7.253,11.687,18.126,14.772,28.409.84,2.8,1.619,5.616,2.317,8.454s1.32,5.709,1.837,8.593.93,5.779,1.22,8.69.458,5.853.481,8.787A2.669,2.669,0,0,1,351.368,552.118Z" transform="translate(-8.44 176.61)"/></g><path class="i" d="M5.279,4.464a7.13,7.13,0,0,0-.841-3.249A2.357,2.357,0,0,0,2.138.006,1.662,1.662,0,0,0,.67.822a2.07,2.07,0,0,0-.2.317A5.491,5.491,0,0,0,.134,4.616,3.524,3.524,0,0,0,1.525,7.109a2.885,2.885,0,0,0,2.611-.172A2.3,2.3,0,0,0,5.279,4.464Z" transform="matrix(0.985, 0.174, -0.174, 0.985, 35.526, 22.228)"/><path class="i" d="M1.628,1.377a2.2,2.2,0,0,0-.259-1A.727.727,0,0,0,.66,0,.513.513,0,0,0,.207.254a.639.639,0,0,0-.063.1,1.694,1.694,0,0,0-.1,1.072,1.087,1.087,0,0,0,.429.769.89.89,0,0,0,.805-.053A.711.711,0,0,0,1.628,1.377Z" transform="matrix(0.985, 0.174, -0.174, 0.985, 10.302, 26.417)"/><g transform="matrix(0.934, 0.358, -0.358, 0.934, 33.538, 14.098)"><path class="i" d="M9.186.141.765,2.938C-1.02,3.531.644,5,2.444,4.4l8.42-2.8c1.786-.593.121-2.059-1.678-1.461Z" transform="translate(0 0)"/></g></g><text class="j" transform="translate(30 634)"><tspan x="0" y="13">你好，我是負責指導你茁壯的尼斯湖</tspan><tspan x="0" y="43">水怪！現在，你必須要完成每日任務及</tspan><tspan x="0" y="73">恐龍訓練場的小遊戲才能逐漸長大</tspan><tspan class="k" x="0" y="103">唷</tspan><tspan y="103">！</tspan></text><text class="l" transform="translate(283 758)"><tspan x="0" y="0">尼斯湖水怪</tspan></text><g transform="translate(63 -144.693)"><g class="ae" transform="matrix(1, 0, 0, 1, -63, 144.69)"><path class="m" d="M155.661,319.427a6.39,6.39,0,0,0-4.072-.6,5.382,5.382,0,0,0-4.061,3.871,33.5,33.5,0,0,1-2.5,6.282,14.578,14.578,0,0,0-2.161,4.773,5.82,5.82,0,0,0,.554,3.508c-.632.35-1.385.844-1.471,1.469-.07.506.307,1.086.895.895.378-.123.749-.263,1.124-.4a16.723,16.723,0,0,0-.122,1.838.736.736,0,0,0,1.241.514c.222-.2.46-.385.689-.579a16.5,16.5,0,0,0,.648,1.788c.29.611,1.14.364,1.329-.173q.248-.705.494-1.41c3.29.443,6.307-2.891,7.939-5.928,1.8-3.349,3.386-7.439,2.468-11.288a8.207,8.207,0,0,0-1.914-3.719A4.519,4.519,0,0,0,155.661,319.427Z" transform="translate(-19.92 116.54)"/></g><path class="m" d="M137.974,378.855c-1.16-9.51-5.111-22.486-16.018-24.721-3.92-.8-8.153-.356-11.015,2.69-7.043,7.494-3.31,18.279.177,26.344,1.97,4.555,5.023,8.591,7.161,13.071a21.8,21.8,0,0,1,2.535,8.639,7.565,7.565,0,0,1-1.036,4.276c-.64,1-1.832,1.719-2.022,2.985-.647,4.312,8.385,3.486,10.611,2.794a8.015,8.015,0,0,0,1.235-.482C141.671,408.362,139.308,389.792,137.974,378.855Z" transform="translate(-32.743 244.796)"/><g transform="translate(32.001 481.693)"><g class="ad" transform="matrix(1, 0, 0, 1, -95, -337)"><path class="m" d="M474.762,933.7c-.019.006-.033,0-.05.008-11.065,4.518-23.331,6.344-34.959,2.779-10.182-3.123-19.358-9.142-29.473-12.629-22.522-7.768-42.564-15.157-58.022-34.161,4.2-10.221,6.634-20.882,3.8-31.789-2.722-10.47-8.252-20.621-17.118-27.1-11.462-8.37-26.745-8.1-39.236-2.113-16.578-11.487-36.024,1.433-37.448,19.995-14.144,8.976-25.26,26.544-15.774,42.791a19.954,19.954,0,0,0,10.365,8.68c2.375,8.048,10.041,11.753,17.822,12.977a.985.985,0,0,0,.3-.012,129.2,129.2,0,0,0,1.357,16.85,38.074,38.074,0,0,1,24.9-4.908c12.119,1.71,23.062,8.433,32.022,16.771a96.181,96.181,0,0,1,25.2,38.762c22.118-3.4,43.415-10.778,65.18-15.832,10.445-2.427,22.1-3.056,31.737-8.075,9.143-4.761,15.362-13.247,20.812-21.719C476.768,934.043,475.531,933.175,474.762,933.7Z" transform="translate(-147.95 -487.35)"/></g><g class="ac" transform="matrix(1, 0, 0, 1, -95, -337)"><path class="n" d="M321.2,905.634c-8.96-8.338-19.9-15.061-32.022-16.771a38.073,38.073,0,0,0-24.9,4.908c1.954,12.9,6.324,25.44,15.239,35.092,15.644,16.941,38.836,18.925,60.573,16.4,2.111-.246,4.21-.544,6.305-.867A96.181,96.181,0,0,0,321.2,905.634Z" transform="translate(-135.91 -451.14)"/></g></g><g class="ab" transform="matrix(1, 0, 0, 1, -63, 144.69)"><path class="m" d="M342.488,496.35c-2.724-10.47-8.251-20.621-17.118-27.095-16.736-12.221-41.614-6.034-54.062,9.5-.779.973.6,2.366,1.383,1.383.03-.036.061-.07.091-.106l63.895,47.885c-.047.114-.086.232-.133.346-.487,1.159,1.4,1.666,1.885.521C342.794,518.363,345.384,507.485,342.488,496.35Z" transform="translate(-134.34 -125.79)"/></g><path class="o" d="M9.334,7.894A12.609,12.609,0,0,0,7.848,2.15,4.168,4.168,0,0,0,3.781.011a2.939,2.939,0,0,0-2.6,1.443,3.661,3.661,0,0,0-.361.56A9.71,9.71,0,0,0,.237,8.162C.588,9.854,1.3,11.913,2.7,12.571a5.1,5.1,0,0,0,4.617-.3C8.9,11.218,9.5,10.142,9.334,7.894Z" transform="matrix(0.985, 0.174, -0.174, 0.985, 80.811, 517.823)"/><g class="aa" transform="matrix(1, 0, 0, 1, -63, 144.69)"><path class="m" d="M186.535,566.635l-24.346-45.987.035-.021c1.044-.651.083-2.309-.967-1.653-13.991,8.735-25.1,26.076-15.741,42.1,4.1,7.025,11,9.57,18.826,10.606,7.475.99,17.142,1.5,23.3-3.558C188.513,567.4,187.447,566.233,186.535,566.635Z" transform="translate(-47.06 -156.8)"/></g><g class="z" transform="matrix(1, 0, 0, 1, -63, 144.69)"><path class="m" d="M261.237,388.921c-1.007-7.826-3.1-16.621-9.885-21.493a13.252,13.252,0,0,0-6.16-2.488,23.54,23.54,0,0,0-4.981-.17,21.983,21.983,0,0,0-9.218,2.758,20.876,20.876,0,0,0-9.35,11.315c-2.243,6.428-.967,13.207,1.435,19.391,2.231,5.744,6.074,10.753,8.5,16.423a22.2,22.2,0,0,1,1.976,7.293,11.539,11.539,0,0,1-.357,3.757,6.732,6.732,0,0,1-1.577,3.236,10.41,10.41,0,0,1-1.581.653,4.925,4.925,0,0,0-1.4,1.139,4.287,4.287,0,0,0-.97,3.5c.514,2.97,3.9,4.22,6.472,4.673,8.3,1.461,19.2-2.687,22.214-11.023a.956.956,0,0,0,.166-.268A81.052,81.052,0,0,0,261.237,388.921Z" transform="translate(-35.47 79.87)"/></g><g class="y" transform="matrix(1, 0, 0, 1, -63, 144.69)"><path class="m" d="M155.661,319.427a6.39,6.39,0,0,0-4.072-.6,5.382,5.382,0,0,0-4.061,3.871,33.5,33.5,0,0,1-2.5,6.282,14.578,14.578,0,0,0-2.161,4.773,5.82,5.82,0,0,0,.554,3.508c-.632.35-1.385.844-1.471,1.469-.07.506.307,1.086.895.895.378-.123.749-.263,1.124-.4a16.723,16.723,0,0,0-.122,1.838.736.736,0,0,0,1.241.514c.222-.2.46-.385.689-.579a16.5,16.5,0,0,0,.648,1.788c.29.611,1.14.364,1.329-.173q.248-.705.494-1.41c3.29.443,6.307-2.891,7.939-5.928,1.8-3.349,3.386-7.439,2.468-11.288a8.207,8.207,0,0,0-1.914-3.719A4.519,4.519,0,0,0,155.661,319.427Z" transform="translate(16.66 115.45)"/></g></g><text class="p" transform="translate(45 63)"><tspan x="0" y="0">小楷</tspan></text><g transform="translate(-15)"><g class="q" transform="translate(179 74)"><rect class="w" width="78" height="25" rx="12.5"/><rect class="x" x="1" y="1" width="76" height="23" rx="11.5"/></g><text class="p" transform="translate(168 93)"><tspan x="0" y="0">$</tspan></text><text class="r" transform="translate(215 91)"><tspan x="0" y="0">1,500</tspan></text></g><g class="q" transform="translate(66 74)"><rect class="w" width="78" height="25" rx="12.5"/><rect class="x" x="1" y="1" width="76" height="23" rx="11.5"/></g><path class="s" d="M296.1,504.689a.588.588,0,0,1-.049.071,5.375,5.375,0,0,1-.806.808,6.73,6.73,0,0,1-1.008.667,12.463,12.463,0,0,1-2.3.929c-.633.2-1.275.363-1.914.535a32.133,32.133,0,0,1-7.093,1.091,29.626,29.626,0,0,1-6.877-.511,27.7,27.7,0,0,1-3.144-.807,14.721,14.721,0,0,1-2.052-.7,2.984,2.984,0,0,1-.857-.605,1.948,1.948,0,0,1-.427-.637,1.074,1.074,0,0,1,.087-.783c.18-.578.315-1.168.459-1.755.048-.2.451-2.27.5-2.27a9.959,9.959,0,0,0,3.073.134c.45-.058.455-.773,0-.714-2.488.319-6.894-.669-7.623-3.485.017-.641.822-.72,1.3-.649a4.049,4.049,0,0,1,.848.29q.621.238,1.263.415a8.662,8.662,0,0,0,5.249,0,5.611,5.611,0,0,0,1.22-.628,2.622,2.622,0,0,0,1.092-1.446,2.154,2.154,0,0,0-.179-1.557,2.571,2.571,0,0,0-1.265-1.138,3.969,3.969,0,0,0-.67-.205,6.458,6.458,0,0,0-.7-.093c-.493-.061-.982-.155-1.469-.254l-.145-.029a18.585,18.585,0,0,1-3.1-.879,3.879,3.879,0,0,1-2.087-1.437c-.4-.752.205-1.525.867-1.854a3.993,3.993,0,0,0,.919-.585,2.472,2.472,0,0,0,.616-1.071c.126-.327.265-.647.423-.96a9.731,9.731,0,0,1,1.079-1.689,9.97,9.97,0,0,1,2.925-2.47,11.71,11.71,0,0,1,3.62-1.285,13.553,13.553,0,0,1,3.924-.131,13.773,13.773,0,0,1,3.836.993,12.4,12.4,0,0,1,3.281,2.02c2.961,2.554,4.115,6.383,5.2,10,.3.986.57,1.978.816,2.977s.465,2.01.647,3.026.327,2.035.43,3.06.161,2.061.169,3.094A.939.939,0,0,1,296.1,504.689Z" transform="translate(-225.065 -407.91)"/><text class="t" transform="translate(54 94)"><tspan x="0" y="0">1</tspan></text><rect class="s" width="26" height="11" rx="5.5" transform="translate(72 81)"/><g transform="translate(-1907.719 -247.126)"><path class="s" d="M2247.183,343.126h-2.933c-.3-.777-.608-1.55-.9-2.331a.89.89,0,0,0-1.387-.574c-.536.262-1.073.525-1.6.8a.755.755,0,0,1-1.01-.168q-.66-.7-1.363-1.361a.753.753,0,0,1-.168-1.009c.277-.528.541-1.064.8-1.6a.891.891,0,0,0-.576-1.385c-.781-.288-1.556-.6-2.333-.895v-2.929c.779-.3,1.555-.607,2.338-.9a.893.893,0,0,0,.569-1.391,13.711,13.711,0,0,1-.778-1.611,1.149,1.149,0,0,1,.134-.93,19.353,19.353,0,0,1,1.388-1.43.764.764,0,0,1,1.017-.149c.529.279,1.067.541,1.6.8a.883.883,0,0,0,1.347-.55,18.465,18.465,0,0,1,.633-1.815,1.052,1.052,0,0,1,.708-.525,9.156,9.156,0,0,1,2.058,0,1.138,1.138,0,0,1,.743.571,15.616,15.616,0,0,1,.611,1.752.878.878,0,0,0,1.336.571c.538-.26,1.077-.52,1.6-.8a.8.8,0,0,1,1.07.177c.427.45.863.894,1.319,1.315a.788.788,0,0,1,.171,1.068c-.279.528-.542,1.065-.8,1.6a.875.875,0,0,0,.574,1.334c.586.2,1.172.407,1.766.583a.741.741,0,0,1,.589.833q-.026.964,0,1.928a.744.744,0,0,1-.608.821c-.594.178-1.18.38-1.767.581a.878.878,0,0,0-.547,1.346c.243.5.484,1,.75,1.48a.874.874,0,0,1-.187,1.234,13.591,13.591,0,0,0-1.223,1.221.846.846,0,0,1-1.181.174c-.485-.266-.985-.506-1.482-.75a.893.893,0,0,0-1.393.566C2247.792,341.572,2247.483,342.347,2247.183,343.126Zm-1.46-14.088a4.1,4.1,0,1,0,4.1,4.127A4.155,4.155,0,0,0,2245.723,329.037Z"/><path class="s" d="M2301.141,387.025a1.741,1.741,0,1,1-1.724-1.723A1.717,1.717,0,0,1,2301.141,387.025Z" transform="translate(-53.684 -53.9)"/></g><g transform="translate(-2198.912 -248.176)"><path class="s" d="M2450.912,339.462v-.176a1.748,1.748,0,0,1,.621-1.1,5.494,5.494,0,0,0,1.941-4.3c0-.786-.007-1.571,0-2.356a5.006,5.006,0,0,1,.077-.843,5.883,5.883,0,0,1,4.893-4.754c.094-.016.124-.052.122-.142,0-.259,0-.517,0-.776a.778.778,0,0,1,.257-.6.822.822,0,0,1,.883-.182.778.778,0,0,1,.549.73c.016.272.011.546.005.819,0,.107.037.139.14.156a5.486,5.486,0,0,1,1.9.654,5.758,5.758,0,0,1,3.056,5.184c.011.727,0,1.454,0,2.181a5.536,5.536,0,0,0,.917,3.086,6.467,6.467,0,0,0,1.165,1.286,1.4,1.4,0,0,1,.337,1.637,1.468,1.468,0,0,1-1.442.876q-6.924,0-13.847,0c-.054,0-.109,0-.164-.005a1.41,1.41,0,0,1-1.183-.707A3.748,3.748,0,0,1,2450.912,339.462Z" transform="translate(0 0)"/><path class="s" d="M2492.919,456.626c-.23-.058-.466-.1-.688-.177a3.089,3.089,0,0,1-2.042-2.178c-.01-.037-.015-.076-.025-.127h6.24c-.066.2-.113.388-.194.566a3.147,3.147,0,0,1-2.506,1.891.408.408,0,0,0-.068.024Z" transform="translate(-33.858 -112.45)"/></g><g transform="translate(-796.926 -767.011)"><path class="s" d="M1123.607,882.371c0-.017,0-.033,0-.049s0-.016,0-.024-.005-.028-.009-.042,0-.016-.007-.024-.008-.025-.013-.036l-.011-.023c-.005-.011-.011-.022-.018-.032l-.014-.021a.338.338,0,0,0-.023-.027l-.018-.018a.3.3,0,0,0-.029-.023l-.021-.015a.4.4,0,0,0-.036-.019l-.024-.011a.464.464,0,0,0-.046-.015l-.023-.007a.634.634,0,0,0-.08-.014h-13.123a.644.644,0,0,0-.08.014l-.023.007a.464.464,0,0,0-.046.015l-.024.011a.383.383,0,0,0-.036.019l-.021.015a.311.311,0,0,0-.029.023l-.018.018a.338.338,0,0,0-.023.027l-.014.021c-.006.01-.012.021-.018.032l-.011.023c0,.012-.009.024-.013.036s-.005.016-.007.024-.006.028-.009.042,0,.016,0,.024,0,.032,0,.049,0,.014,0,.022,0,.042,0,.063c0,0,0,.008,0,.012a1.292,1.292,0,0,0,.021.165l0,.017c0,.023.009.045.015.069l.007.026c.005.021.011.042.017.063l.009.029.019.061.01.031.021.061.012.032.024.061.013.032.026.062.013.031.028.064.013.029.031.066.012.026.037.076.007.014.045.089.011.021.034.064.019.036.025.046.022.04.021.038.024.042.018.031.026.044.014.024.028.047.009.016.03.049,0,.007.031.05.043.068,0,0,.035.055a4.911,4.911,0,0,0,1.568,1.55,7.372,7.372,0,0,0,.837.429,1.711,1.711,0,0,1,1.705-1.611h4.1a1.711,1.711,0,0,1,1.706,1.611,7.381,7.381,0,0,0,.837-.429,4.913,4.913,0,0,0,1.568-1.55l.035-.055,0,0,.043-.068.031-.05,0-.007.029-.049.009-.016.028-.047.014-.024.026-.044.018-.031.024-.042.021-.038.022-.04.025-.046.019-.036.034-.064.011-.021.045-.089.007-.014.037-.076.012-.026.031-.066.013-.029.028-.064.013-.031.026-.062.013-.032.024-.061.012-.032.021-.061.01-.031c.007-.021.013-.041.019-.061l.009-.029c.006-.021.012-.042.017-.063l.007-.026c.006-.023.01-.046.015-.069l0-.017a1.229,1.229,0,0,0,.021-.165s0-.008,0-.012c0-.021,0-.043,0-.063S1123.608,882.379,1123.607,882.371Z" transform="translate(-7.741 -34.274)"/><g transform="translate(1104.186 843.011)"><path class="s" d="M1137.516,846.722a3.759,3.759,0,0,0-1.287-2.713,6.466,6.466,0,0,0-6.9,0,3.758,3.758,0,0,0-1.287,2.713v.012h1.29a2.433,2.433,0,0,1,.788-1.718,4.042,4.042,0,0,1,2.645-.722h.033a4.042,4.042,0,0,1,2.645.722,2.434,2.434,0,0,1,.788,1.718h1.29Z" transform="translate(-1128.037 -843.011)"/></g><g transform="translate(1100.926 850.932)"><path class="s" d="M1149.741,912.578a.749.749,0,0,0-.715-.526h-4.1a.748.748,0,0,0-.749.748v1.528a.747.747,0,0,0,.171.476q.023.028.048.053a.745.745,0,0,0,.529.219h4.1a.748.748,0,0,0,.749-.749V912.8A.75.75,0,0,0,1149.741,912.578Z" transform="translate(-1138.975 -911.671)"/><path class="s" d="M1115.591,908.886a5.746,5.746,0,0,1-1.578,1.427,8.488,8.488,0,0,1-1.326.641v.591a1.712,1.712,0,0,1-1.71,1.711h-4.1a1.713,1.713,0,0,1-1.71-1.711v-.591a8.5,8.5,0,0,1-1.326-.641,5.745,5.745,0,0,1-1.578-1.427,16.17,16.17,0,0,0-1.335,5.238,6.958,6.958,0,0,0,1.186,4.081,5.353,5.353,0,0,0,3.393,2.448,17.609,17.609,0,0,0,6.841,0,5.352,5.352,0,0,0,3.393-2.448,6.959,6.959,0,0,0,1.187-4.081A16.174,16.174,0,0,0,1115.591,908.886Z" transform="translate(-1100.926 -908.886)"/></g></g><g transform="translate(21.438 -565.505)"><path class="s" d="M274.289,647.52l-2.865-4.291a1.628,1.628,0,0,0-1.354-.724H260.056a1.628,1.628,0,0,0-1.354.724l-2.865,4.291a1.629,1.629,0,0,0-.274.9v.284a1.616,1.616,0,0,0,1.569,1.633,1.578,1.578,0,0,0,.524-.085h0a1.58,1.58,0,0,0,.4-.2l.008-.006q.042-.03.081-.062l.017-.014a1.59,1.59,0,0,0,.205-.207l.028-.034c.015-.019.029-.039.043-.059l.034-.05c.012-.019.024-.037.035-.056s.025-.045.037-.067.017-.031.025-.047q.028-.057.051-.116c.005-.013.009-.027.014-.04.011-.03.02-.059.029-.089s.009-.031.013-.047.015-.061.021-.093c0-.014.006-.028.008-.043.008-.045.014-.091.017-.138a0,0,0,0,1,.01,0,1.574,1.574,0,0,0,.02.157c0,.014.007.028.01.042.008.037.016.075.026.111,0,.014.009.028.014.043.011.036.023.071.037.106,0,.012.011.024.016.036.016.036.032.072.05.107l.016.028q.03.055.064.108l.013.019q.038.056.08.109l.009.011q.046.056.1.108l0,0q.054.054.113.1h0a1.582,1.582,0,0,0,2.587-1.094,0,0,0,0,1,.01,0,1.583,1.583,0,0,0,3.157,0,0,0,0,0,1,.01,0,1.583,1.583,0,0,0,3.157,0,0,0,0,0,1,.01,0,1.582,1.582,0,0,0,2.587,1.094h0q.059-.049.113-.1l0,0q.051-.052.1-.108l.009-.011q.042-.053.08-.109l.013-.019c.023-.035.044-.071.064-.108l.016-.028c.018-.035.034-.07.05-.107l.016-.036c.014-.035.026-.07.037-.106,0-.014.01-.028.014-.043.01-.036.018-.074.026-.111,0-.014.007-.028.01-.042a1.574,1.574,0,0,0,.02-.157,0,0,0,1,1,.01,0c0,.047.01.092.017.138,0,.014.006.029.008.043.006.031.013.062.021.092s.008.031.013.047.019.06.029.089c0,.014.009.027.014.041q.023.059.051.116c.008.016.017.032.025.048s.024.044.036.066.024.038.036.057l.033.049c.014.02.029.041.044.06l.026.031a1.591,1.591,0,0,0,.207.21l.015.013q.04.033.082.063l.007,0a1.572,1.572,0,0,0,.4.205h0a1.579,1.579,0,0,0,.524.085,1.616,1.616,0,0,0,1.569-1.633v-.284A1.628,1.628,0,0,0,274.289,647.52Z"/><path class="s" d="M284.352,720.144h-.185v-5.873a2.507,2.507,0,0,1-1.074-.515,2.527,2.527,0,0,1-.575.353v6.034H271v-6.034a2.526,2.526,0,0,1-.575-.353,2.508,2.508,0,0,1-1.074.515v5.873h-.185a.391.391,0,0,0-.39.39v3.647a.391.391,0,0,0,.39.39h15.184a.391.391,0,0,0,.39-.39v-3.647A.391.391,0,0,0,284.352,720.144Z" transform="translate(-11.697 -63.065)"/></g><g transform="translate(8 13)"><g class="u" transform="translate(254 60)"><circle class="w" cx="5" cy="5" r="5"/><circle class="x" cx="5" cy="5" r="5.5"/></g><text class="v" transform="translate(256 68)"><tspan x="0" y="0">N</tspan></text></g></svg>