<svg xmlns="http://www.w3.org/2000/svg" xmlns:xlink="http://www.w3.org/1999/xlink" width="380.377" height="818" viewBox="0 0 380.377 818"><defs><style>.a{fill:#f2fcfc;}.b,.k,.m,.o,.r,.t,.w{fill:#fff;}.c{fill:#b1d1aa;}.d{fill:#a4c39d;}.e{fill:#bad8b4;}.f{fill:#cbe4c6;}.g{fill:#ffe87e;}.h{fill:#ffecaa;}.i{fill:#3b3b3b;}.j{fill:#90af89;}.k,.p,.t{font-size:12px;}.k{font-family:CP&U-Fo, 'CP & U-Fo';}.k,.l,.o,.p,.t{letter-spacing:0.05em;}.l,.n,.p{fill:#416545;}.l,.o{font-size:18px;}.l,.o,.p{font-family:GenJyuuGothic-P-Heavy, Gen Jyuu Gothic P;font-weight:800;}.m{stroke:#416545;stroke-width:2px;}.q{opacity:0.617;}.r{font-size:14px;font-family:GenJyuuGothic-P-Medium, Gen Jyuu Gothic P;font-weight:500;}.s{fill:#8dac86;stroke-linejoin:round;}.t{font-family:CP-&-TRANS, 'CP & TRANS';}.u,.w{stroke:none;}.v{fill:none;}.x{filter:url(#m);}.y{filter:url(#k);}.z{filter:url(#i);}.aa{filter:url(#g);}.ab{filter:url(#e);}.ac{filter:url(#c);}.ad{filter:url(#a);}</style><filter id="a" x="116.03" y="427.984" width="38.962" height="44.989" filterUnits="userSpaceOnUse"><feOffset dy="3" input="SourceAlpha"/><feGaussianBlur stdDeviation="3" result="b"/><feFlood flood-opacity="0.161"/><feComposite operator="in" in2="b"/><feComposite in="SourceGraphic"/></filter><filter id="c" x="91.001" y="331" width="251.376" height="174.255" filterUnits="userSpaceOnUse"><feOffset dy="3" input="SourceAlpha"/><feGaussianBlur stdDeviation="3" result="d"/><feFlood flood-opacity="0.161"/><feComposite operator="in" in2="d"/><feComposite in="SourceGraphic"/></filter><filter id="e" x="124.372" y="433.341" width="100.118" height="75.681" filterUnits="userSpaceOnUse"><feOffset dy="5" input="SourceAlpha"/><feGaussianBlur stdDeviation="3" result="f"/><feFlood flood-opacity="0.161"/><feComposite operator="in" in2="f"/><feComposite in="SourceGraphic"/></filter><filter id="g" x="135.742" y="322" width="90.637" height="84.637" filterUnits="userSpaceOnUse"><feOffset dx="3" dy="-6" input="SourceAlpha"/><feGaussianBlur stdDeviation="3" result="h"/><feFlood flood-opacity="0.161"/><feComposite operator="in" in2="h"/><feComposite in="SourceGraphic"/></filter><filter id="i" x="88" y="359.019" width="63.906" height="71.503" filterUnits="userSpaceOnUse"><feOffset dx="-3" dy="6" input="SourceAlpha"/><feGaussianBlur stdDeviation="3" result="j"/><feFlood flood-opacity="0.161"/><feComposite operator="in" in2="j"/><feComposite in="SourceGraphic"/></filter><filter id="k" x="181.005" y="438.576" width="59.386" height="92.492" filterUnits="userSpaceOnUse"><feOffset dy="3" input="SourceAlpha"/><feGaussianBlur stdDeviation="3" result="l"/><feFlood flood-opacity="0.161"/><feComposite operator="in" in2="l"/><feComposite in="SourceGraphic"/></filter><filter id="m" x="153.569" y="427.487" width="37.044" height="43.799" filterUnits="userSpaceOnUse"><feOffset dy="3" input="SourceAlpha"/><feGaussianBlur stdDeviation="3" result="n"/><feFlood flood-opacity="0.161"/><feComposite operator="in" in2="n"/><feComposite in="SourceGraphic"/></filter></defs><g transform="translate(5)"><rect class="a" width="375.001" height="281.383" transform="translate(0)"/><path class="b" d="M270.962,217.04c-8.235,3.805-16.7,7.671-25.75,8.306S226.261,222.7,221.5,214.977c-3.1-5.019-3.864-11.515-8.147-15.568-5.759-5.45-14.982-4.028-22.614-1.875s-16.333,4.551-23.042.325c-11.45-7.212-8.065-27.895-20.163-33.956-6.861-3.438-15.041-.091-21.889,3.371s-14.759,7.138-21.87,4.255c-5.359-2.171-8.72-7.639-10.321-13.2s-1.8-11.412-2.93-17.084C86.416,120.572,68.9,103.222,48.187,99.31,38.094,97.4,27.3,98.554,18.239,103.4S2.067,116.951,0,127.013V247.642H270.962Z"/><path class="c" d="M375,217.448V301.5H0v-98.45c20.719-5.11,45.581-9.273,71.592-9.273,67.328,0,76,28.854,115.908,31.74,29.134,2.106,123.635-21.419,187.5-8.075"/><path class="d" d="M0,214.261s154.791,15.827,187.5,17.2S375,237.6,375,237.6v53.049H0Z"/><path class="e" d="M187.679,237.6c-76.322,0-144.227,3.9-187.679,9.95V812H375V247.494C331.533,241.47,263.79,237.6,187.679,237.6Z"/><path class="f" d="M168.937,265.127C102.648,283.38,43.452,284.591,0,290.644V812H375V247.494C331.533,241.47,242.317,244.921,168.937,265.127Z"/><path class="b" d="M375,65.5V60.24a37.691,37.691,0,0,0-13.577-.734c-14.429,1.875-26.586,11.888-31.906,25.283-3.277,8.251-5.27,17.3-15.411,18.969-7.307,1.2-14.906-.655-22.1,1.575-16.085,4.988-11.1,27.122-26.129,32.55-8.286,2.992-18.042,1.683-25.337,7.35-7.67,5.958-7.3,18.665-.946,25.492a41.689,41.689,0,0,0,7.535,6.06,34.159,34.159,0,0,0,15.452,5.576,32.346,32.346,0,0,0,3.875.152c7.15-.149,13.883-2.833,20.578-5.049,8.343-2.761,15.735-3.589,24.288-1.139,7.277,2.084,14.167,4.536,21.768,5.245,8.388.782,16.829-.049,25.131-1.283,5.443-.809,11.135-1.589,16.776-2.7V65.5Z"/><g transform="translate(63 -144.693)"><ellipse class="e" cx="74.508" cy="23.105" rx="74.508" ry="23.105" transform="translate(50.345 635.799)"/><g class="ad" transform="matrix(1, 0, 0, 1, -68, 144.69)"><path class="g" d="M155.661,319.427a6.39,6.39,0,0,0-4.072-.6,5.382,5.382,0,0,0-4.061,3.871,33.5,33.5,0,0,1-2.5,6.282,14.578,14.578,0,0,0-2.161,4.773,5.82,5.82,0,0,0,.554,3.508c-.632.35-1.385.844-1.471,1.469-.07.506.307,1.086.895.895.378-.123.749-.263,1.124-.4a16.723,16.723,0,0,0-.122,1.838.736.736,0,0,0,1.241.514c.222-.2.46-.385.689-.579a16.5,16.5,0,0,0,.648,1.788c.29.611,1.14.364,1.329-.173q.248-.705.494-1.41c3.29.443,6.307-2.891,7.939-5.928,1.8-3.349,3.386-7.439,2.468-11.288a8.207,8.207,0,0,0-1.914-3.719A4.519,4.519,0,0,0,155.661,319.427Z" transform="translate(44.83 95.45) rotate(10)"/></g><path class="g" d="M137.974,378.855c-1.16-9.51-5.111-22.486-16.018-24.721-3.92-.8-8.153-.356-11.015,2.69-7.043,7.494-3.31,18.279.177,26.344,1.97,4.555,5.023,8.591,7.161,13.071a21.8,21.8,0,0,1,2.535,8.639,7.565,7.565,0,0,1-1.036,4.276c-.64,1-1.832,1.719-2.022,2.985-.647,4.312,8.385,3.486,10.611,2.794a8.015,8.015,0,0,0,1.235-.482C141.671,408.362,139.308,389.792,137.974,378.855Z" transform="translate(-32.743 244.796)"/><g transform="translate(32.001 481.693)"><g class="ac" transform="matrix(1, 0, 0, 1, -100, -337)"><path class="g" d="M474.762,933.7c-.019.006-.033,0-.05.008-11.065,4.518-23.331,6.344-34.959,2.779-10.182-3.123-19.358-9.142-29.473-12.629-22.522-7.768-42.564-15.157-58.022-34.161,4.2-10.221,6.634-20.882,3.8-31.789-2.722-10.47-8.252-20.621-17.118-27.1-11.462-8.37-26.745-8.1-39.236-2.113-16.578-11.487-36.024,1.433-37.448,19.995-14.144,8.976-25.26,26.544-15.774,42.791a19.954,19.954,0,0,0,10.365,8.68c2.375,8.048,10.041,11.753,17.822,12.977a.985.985,0,0,0,.3-.012,129.2,129.2,0,0,0,1.357,16.85,38.074,38.074,0,0,1,24.9-4.908c12.119,1.71,23.062,8.433,32.022,16.771a96.181,96.181,0,0,1,25.2,38.762c22.118-3.4,43.415-10.778,65.18-15.832,10.445-2.427,22.1-3.056,31.737-8.075,9.143-4.761,15.362-13.247,20.812-21.719C476.768,934.043,475.531,933.175,474.762,933.7Z" transform="translate(-142.95 -487.35)"/></g><g class="ab" transform="matrix(1, 0, 0, 1, -100, -337)"><path class="h" d="M321.2,905.634c-8.96-8.338-19.9-15.061-32.022-16.771a38.073,38.073,0,0,0-24.9,4.908c1.954,12.9,6.324,25.44,15.239,35.092,15.644,16.941,38.836,18.925,60.573,16.4,2.111-.246,4.21-.544,6.305-.867A96.181,96.181,0,0,0,321.2,905.634Z" transform="translate(-130.91 -451.14)"/></g></g><g class="aa" transform="matrix(1, 0, 0, 1, -68, 144.69)"><path class="g" d="M342.488,496.35c-2.724-10.47-8.251-20.621-17.118-27.095-16.736-12.221-41.614-6.034-54.062,9.5-.779.973.6,2.366,1.383,1.383.03-.036.061-.07.091-.106l63.895,47.885c-.047.114-.086.232-.133.346-.487,1.159,1.4,1.666,1.885.521C342.794,518.363,345.384,507.485,342.488,496.35Z" transform="translate(-129.34 -125.79)"/></g><path class="i" d="M9.334,7.894A12.609,12.609,0,0,0,7.848,2.15,4.168,4.168,0,0,0,3.781.011a2.939,2.939,0,0,0-2.6,1.443,3.661,3.661,0,0,0-.361.56A9.71,9.71,0,0,0,.237,8.162C.588,9.854,1.3,11.913,2.7,12.571a5.1,5.1,0,0,0,4.617-.3C8.9,11.218,9.5,10.142,9.334,7.894Z" transform="matrix(0.985, 0.174, -0.174, 0.985, 80.811, 517.823)"/><g class="z" transform="matrix(1, 0, 0, 1, -68, 144.69)"><path class="g" d="M186.535,566.635l-24.346-45.987.035-.021c1.044-.651.083-2.309-.967-1.653-13.991,8.735-25.1,26.076-15.741,42.1,4.1,7.025,11,9.57,18.826,10.606,7.475.99,17.142,1.5,23.3-3.558C188.513,567.4,187.447,566.233,186.535,566.635Z" transform="translate(-42.06 -156.8)"/></g><g class="y" transform="matrix(1, 0, 0, 1, -68, 144.69)"><path class="g" d="M261.237,388.921c-1.007-7.826-3.1-16.621-9.885-21.493a13.252,13.252,0,0,0-6.16-2.488,23.54,23.54,0,0,0-4.981-.17,21.983,21.983,0,0,0-9.218,2.758,20.876,20.876,0,0,0-9.35,11.315c-2.243,6.428-.967,13.207,1.435,19.391,2.231,5.744,6.074,10.753,8.5,16.423a22.2,22.2,0,0,1,1.976,7.293,11.539,11.539,0,0,1-.357,3.757,6.732,6.732,0,0,1-1.577,3.236,10.41,10.41,0,0,1-1.581.653,4.925,4.925,0,0,0-1.4,1.139,4.287,4.287,0,0,0-.97,3.5c.514,2.97,3.9,4.22,6.472,4.673,8.3,1.461,19.2-2.687,22.214-11.023a.956.956,0,0,0,.166-.268A81.052,81.052,0,0,0,261.237,388.921Z" transform="translate(-30.47 79.87)"/></g><g class="x" transform="matrix(1, 0, 0, 1, -68, 144.69)"><path class="g" d="M155.661,319.427a6.39,6.39,0,0,0-4.072-.6,5.382,5.382,0,0,0-4.061,3.871,33.5,33.5,0,0,1-2.5,6.282,14.578,14.578,0,0,0-2.161,4.773,5.82,5.82,0,0,0,.554,3.508c-.632.35-1.385.844-1.471,1.469-.07.506.307,1.086.895.895.378-.123.749-.263,1.124-.4a16.723,16.723,0,0,0-.122,1.838.736.736,0,0,0,1.241.514c.222-.2.46-.385.689-.579a16.5,16.5,0,0,0,.648,1.788c.29.611,1.14.364,1.329-.173q.248-.705.494-1.41c3.29.443,6.307-2.891,7.939-5.928,1.8-3.349,3.386-7.439,2.468-11.288a8.207,8.207,0,0,0-1.914-3.719A4.519,4.519,0,0,0,155.661,319.427Z" transform="matrix(1, 0.09, -0.09, 1, 51.07, 103.6)"/></g></g><path class="j" d="M286.815-311.086V-437.853c2.556-10.1-9.8-16.884-17.881-19.4-11.351-3.531-31.067-1.782-38.79,8.591-.111.149-.2.312-.3.465l7.6,3.814-9.724.086a27.119,27.119,0,0,0-1.7,12.8c.581,6,2.732,11.727,5.182,17.221,1.653,3.709,3.477,7.43,4,11.466s-.526,8.549-3.7,11.039c-4.16,3.262-9.636,1.92-15.034.707q-.163,7.823-.326,15.644l-2.559-16.252c-.69-.131-1.376-.251-2.052-.34a24.189,24.189,0,0,0-18.614,5.557,24.889,24.889,0,0,0-8.54,17.664c-.173,4.242.743,8.447.953,12.686s-.414,8.8-3.168,11.993c0,0-4.822,3.762-7.262,3.987l-1.14,10.22-7.252-9.622c-2.889-.149-5.778-.441-8.668-.339a32.227,32.227,0,0,0-24.8,13.5,33.174,33.174,0,0,0-4.543,28.165s3.317,16.982,25.938,23.279H287.157v-36.2Z" transform="translate(88.22 1086.911)"/><text class="k" transform="translate(288 776)"><tspan x="0" y="0">恐龍訓練場</tspan></text><g transform="translate(-1418.051 153.498)"><rect class="b" width="14.041" height="7.345" transform="translate(1730.719 584.014)"/><path class="b" d="M1.749,0h0A4.869,4.869,0,0,1,6.618,4.869V18.975a4.869,4.869,0,0,1-4.869,4.869h0A1.749,1.749,0,0,1,0,22.1V1.749A1.749,1.749,0,0,1,1.749,0Z" transform="translate(1746.029 575.764)"/><path class="b" d="M0,0H0A3.513,3.513,0,0,1,3.513,3.513v3.03A3.513,3.513,0,0,1,0,10.055H0a0,0,0,0,1,0,0V0A0,0,0,0,1,0,0Z" transform="translate(1753.916 582.659)"/><path class="b" d="M1.749,0h0A4.869,4.869,0,0,1,6.618,4.869V18.975a4.869,4.869,0,0,1-4.869,4.869h0A1.749,1.749,0,0,1,0,22.1V1.749A1.749,1.749,0,0,1,1.749,0Z" transform="translate(1729.45 599.608) rotate(-180)"/><path class="b" d="M0,0H0A3.513,3.513,0,0,1,3.513,3.513v3.03A3.513,3.513,0,0,1,0,10.055H0a0,0,0,0,1,0,0V0A0,0,0,0,1,0,0Z" transform="translate(1721.563 592.714) rotate(180)"/></g><text class="l" transform="translate(45 63)"><tspan x="0" y="0">小愷</tspan></text><g class="m" transform="translate(66 74)"><rect class="u" width="78" height="25" rx="12.5"/><rect class="v" x="1" y="1" width="76" height="23" rx="11.5"/></g><path class="n" d="M296.1,504.689a.588.588,0,0,1-.049.071,5.375,5.375,0,0,1-.806.808,6.73,6.73,0,0,1-1.008.667,12.463,12.463,0,0,1-2.3.929c-.633.2-1.275.363-1.914.535a32.133,32.133,0,0,1-7.093,1.091,29.626,29.626,0,0,1-6.877-.511,27.7,27.7,0,0,1-3.144-.807,14.721,14.721,0,0,1-2.052-.7,2.984,2.984,0,0,1-.857-.605,1.948,1.948,0,0,1-.427-.637,1.074,1.074,0,0,1,.087-.783c.18-.578.315-1.168.459-1.755.048-.2.451-2.27.5-2.27a9.959,9.959,0,0,0,3.073.134c.45-.058.455-.773,0-.714-2.488.319-6.894-.669-7.623-3.485.017-.641.822-.72,1.3-.649a4.049,4.049,0,0,1,.848.29q.621.238,1.263.415a8.662,8.662,0,0,0,5.249,0,5.611,5.611,0,0,0,1.22-.628,2.622,2.622,0,0,0,1.092-1.446,2.154,2.154,0,0,0-.179-1.557,2.571,2.571,0,0,0-1.265-1.138,3.969,3.969,0,0,0-.67-.205,6.458,6.458,0,0,0-.7-.093c-.493-.061-.982-.155-1.469-.254l-.145-.029a18.585,18.585,0,0,1-3.1-.879,3.879,3.879,0,0,1-2.087-1.437c-.4-.752.205-1.525.867-1.854a3.993,3.993,0,0,0,.919-.585,2.472,2.472,0,0,0,.616-1.071c.126-.327.265-.647.423-.96a9.731,9.731,0,0,1,1.079-1.689,9.97,9.97,0,0,1,2.925-2.47,11.71,11.71,0,0,1,3.62-1.285,13.553,13.553,0,0,1,3.924-.131,13.773,13.773,0,0,1,3.836.993,12.4,12.4,0,0,1,3.281,2.02c2.961,2.554,4.115,6.383,5.2,10,.3.986.57,1.978.816,2.977s.465,2.01.647,3.026.327,2.035.43,3.06.161,2.061.169,3.094A.939.939,0,0,1,296.1,504.689Z" transform="translate(-225.065 -407.91)"/><text class="o" transform="translate(54 94)"><tspan x="0" y="0">1</tspan></text><rect class="n" width="26" height="11" rx="5.5" transform="translate(72 81)"/><g transform="translate(-15)"><g class="m" transform="translate(179 74)"><rect class="u" width="78" height="25" rx="12.5"/><rect class="v" x="1" y="1" width="76" height="23" rx="11.5"/></g><text class="l" transform="translate(168 93)"><tspan x="0" y="0">$</tspan></text><text class="p" transform="translate(215 91)"><tspan x="0" y="0">1,500</tspan></text></g><g transform="translate(-796.926 -767.011)"><path class="n" d="M1123.607,882.371c0-.017,0-.033,0-.049s0-.016,0-.024-.005-.028-.009-.042,0-.016-.007-.024-.008-.025-.013-.036l-.011-.023c-.005-.011-.011-.022-.018-.032l-.014-.021a.338.338,0,0,0-.023-.027l-.018-.018a.3.3,0,0,0-.029-.023l-.021-.015a.4.4,0,0,0-.036-.019l-.024-.011a.464.464,0,0,0-.046-.015l-.023-.007a.634.634,0,0,0-.08-.014h-13.123a.644.644,0,0,0-.08.014l-.023.007a.464.464,0,0,0-.046.015l-.024.011a.383.383,0,0,0-.036.019l-.021.015a.311.311,0,0,0-.029.023l-.018.018a.338.338,0,0,0-.023.027l-.014.021c-.006.01-.012.021-.018.032l-.011.023c0,.012-.009.024-.013.036s-.005.016-.007.024-.006.028-.009.042,0,.016,0,.024,0,.032,0,.049,0,.014,0,.022,0,.042,0,.063c0,0,0,.008,0,.012a1.292,1.292,0,0,0,.021.165l0,.017c0,.023.009.045.015.069l.007.026c.005.021.011.042.017.063l.009.029.019.061.01.031.021.061.012.032.024.061.013.032.026.062.013.031.028.064.013.029.031.066.012.026.037.076.007.014.045.089.011.021.034.064.019.036.025.046.022.04.021.038.024.042.018.031.026.044.014.024.028.047.009.016.03.049,0,.007.031.05.043.068,0,0,.035.055a4.911,4.911,0,0,0,1.568,1.55,7.372,7.372,0,0,0,.837.429,1.711,1.711,0,0,1,1.705-1.611h4.1a1.711,1.711,0,0,1,1.706,1.611,7.381,7.381,0,0,0,.837-.429,4.913,4.913,0,0,0,1.568-1.55l.035-.055,0,0,.043-.068.031-.05,0-.007.029-.049.009-.016.028-.047.014-.024.026-.044.018-.031.024-.042.021-.038.022-.04.025-.046.019-.036.034-.064.011-.021.045-.089.007-.014.037-.076.012-.026.031-.066.013-.029.028-.064.013-.031.026-.062.013-.032.024-.061.012-.032.021-.061.01-.031c.007-.021.013-.041.019-.061l.009-.029c.006-.021.012-.042.017-.063l.007-.026c.006-.023.01-.046.015-.069l0-.017a1.229,1.229,0,0,0,.021-.165s0-.008,0-.012c0-.021,0-.043,0-.063S1123.608,882.379,1123.607,882.371Z" transform="translate(-7.741 -34.274)"/><g transform="translate(1104.186 843.011)"><path class="n" d="M1137.516,846.722a3.759,3.759,0,0,0-1.287-2.713,6.466,6.466,0,0,0-6.9,0,3.758,3.758,0,0,0-1.287,2.713v.012h1.29a2.433,2.433,0,0,1,.788-1.718,4.042,4.042,0,0,1,2.645-.722h.033a4.042,4.042,0,0,1,2.645.722,2.434,2.434,0,0,1,.788,1.718h1.29Z" transform="translate(-1128.037 -843.011)"/></g><g transform="translate(1100.926 850.932)"><path class="n" d="M1149.741,912.578a.749.749,0,0,0-.715-.526h-4.1a.748.748,0,0,0-.749.748v1.528a.747.747,0,0,0,.171.476q.023.028.048.053a.745.745,0,0,0,.529.219h4.1a.748.748,0,0,0,.749-.749V912.8A.75.75,0,0,0,1149.741,912.578Z" transform="translate(-1138.975 -911.671)"/><path class="n" d="M1115.591,908.886a5.746,5.746,0,0,1-1.578,1.427,8.488,8.488,0,0,1-1.326.641v.591a1.712,1.712,0,0,1-1.71,1.711h-4.1a1.713,1.713,0,0,1-1.71-1.711v-.591a8.5,8.5,0,0,1-1.326-.641,5.745,5.745,0,0,1-1.578-1.427,16.17,16.17,0,0,0-1.335,5.238,6.958,6.958,0,0,0,1.186,4.081,5.353,5.353,0,0,0,3.393,2.448,17.609,17.609,0,0,0,6.841,0,5.352,5.352,0,0,0,3.393-2.448,6.959,6.959,0,0,0,1.187-4.081A16.174,16.174,0,0,0,1115.591,908.886Z" transform="translate(-1100.926 -908.886)"/></g></g><g transform="translate(21.438 -565.505)"><path class="n" d="M274.289,647.52l-2.865-4.291a1.628,1.628,0,0,0-1.354-.724H260.056a1.628,1.628,0,0,0-1.354.724l-2.865,4.291a1.629,1.629,0,0,0-.274.9v.284a1.616,1.616,0,0,0,1.569,1.633,1.578,1.578,0,0,0,.524-.085h0a1.58,1.58,0,0,0,.4-.2l.008-.006q.042-.03.081-.062l.017-.014a1.59,1.59,0,0,0,.205-.207l.028-.034c.015-.019.029-.039.043-.059l.034-.05c.012-.019.024-.037.035-.056s.025-.045.037-.067.017-.031.025-.047q.028-.057.051-.116c.005-.013.009-.027.014-.04.011-.03.02-.059.029-.089s.009-.031.013-.047.015-.061.021-.093c0-.014.006-.028.008-.043.008-.045.014-.091.017-.138a0,0,0,0,1,.01,0,1.574,1.574,0,0,0,.02.157c0,.014.007.028.01.042.008.037.016.075.026.111,0,.014.009.028.014.043.011.036.023.071.037.106,0,.012.011.024.016.036.016.036.032.072.05.107l.016.028q.03.055.064.108l.013.019q.038.056.08.109l.009.011q.046.056.1.108l0,0q.054.054.113.1h0a1.582,1.582,0,0,0,2.587-1.094,0,0,0,0,1,.01,0,1.583,1.583,0,0,0,3.157,0,0,0,0,0,1,.01,0,1.583,1.583,0,0,0,3.157,0,0,0,0,0,1,.01,0,1.582,1.582,0,0,0,2.587,1.094h0q.059-.049.113-.1l0,0q.051-.052.1-.108l.009-.011q.042-.053.08-.109l.013-.019c.023-.035.044-.071.064-.108l.016-.028c.018-.035.034-.07.05-.107l.016-.036c.014-.035.026-.07.037-.106,0-.014.01-.028.014-.043.01-.036.018-.074.026-.111,0-.014.007-.028.01-.042a1.574,1.574,0,0,0,.02-.157,0,0,0,1,1,.01,0c0,.047.01.092.017.138,0,.014.006.029.008.043.006.031.013.062.021.092s.008.031.013.047.019.06.029.089c0,.014.009.027.014.041q.023.059.051.116c.008.016.017.032.025.048s.024.044.036.066.024.038.036.057l.033.049c.014.02.029.041.044.06l.026.031a1.591,1.591,0,0,0,.207.21l.015.013q.04.033.082.063l.007,0a1.572,1.572,0,0,0,.4.205h0a1.579,1.579,0,0,0,.524.085,1.616,1.616,0,0,0,1.569-1.633v-.284A1.628,1.628,0,0,0,274.289,647.52Z"/><path class="n" d="M284.352,720.144h-.185v-5.873a2.507,2.507,0,0,1-1.074-.515,2.527,2.527,0,0,1-.575.353v6.034H271v-6.034a2.526,2.526,0,0,1-.575-.353,2.508,2.508,0,0,1-1.074.515v5.873h-.185a.391.391,0,0,0-.39.39v3.647a.391.391,0,0,0,.39.39h15.184a.391.391,0,0,0,.39-.39v-3.647A.391.391,0,0,0,284.352,720.144Z" transform="translate(-11.697 -63.065)"/></g><g transform="translate(-2198.912 -248.176)"><path class="n" d="M2450.912,339.462v-.176a1.748,1.748,0,0,1,.621-1.1,5.494,5.494,0,0,0,1.941-4.3c0-.786-.007-1.571,0-2.356a5.006,5.006,0,0,1,.077-.843,5.883,5.883,0,0,1,4.893-4.754c.094-.016.124-.052.122-.142,0-.259,0-.517,0-.776a.778.778,0,0,1,.257-.6.822.822,0,0,1,.883-.182.778.778,0,0,1,.549.73c.016.272.011.546.005.819,0,.107.037.139.14.156a5.486,5.486,0,0,1,1.9.654,5.758,5.758,0,0,1,3.056,5.184c.011.727,0,1.454,0,2.181a5.536,5.536,0,0,0,.917,3.086,6.467,6.467,0,0,0,1.165,1.286,1.4,1.4,0,0,1,.337,1.637,1.468,1.468,0,0,1-1.442.876q-6.924,0-13.847,0c-.054,0-.109,0-.164-.005a1.41,1.41,0,0,1-1.183-.707A3.748,3.748,0,0,1,2450.912,339.462Z" transform="translate(0 0)"/><path class="n" d="M2492.919,456.626c-.23-.058-.466-.1-.688-.177a3.089,3.089,0,0,1-2.042-2.178c-.01-.037-.015-.076-.025-.127h6.24c-.066.2-.113.388-.194.566a3.147,3.147,0,0,1-2.506,1.891.408.408,0,0,0-.068.024Z" transform="translate(-33.858 -112.45)"/></g><g transform="translate(-1907.719 -247.126)"><path class="n" d="M2247.183,343.126h-2.933c-.3-.777-.608-1.55-.9-2.331a.89.89,0,0,0-1.387-.574c-.536.262-1.073.525-1.6.8a.755.755,0,0,1-1.01-.168q-.66-.7-1.363-1.361a.753.753,0,0,1-.168-1.009c.277-.528.541-1.064.8-1.6a.891.891,0,0,0-.576-1.385c-.781-.288-1.556-.6-2.333-.895v-2.929c.779-.3,1.555-.607,2.338-.9a.893.893,0,0,0,.569-1.391,13.711,13.711,0,0,1-.778-1.611,1.149,1.149,0,0,1,.134-.93,19.353,19.353,0,0,1,1.388-1.43.764.764,0,0,1,1.017-.149c.529.279,1.067.541,1.6.8a.883.883,0,0,0,1.347-.55,18.465,18.465,0,0,1,.633-1.815,1.052,1.052,0,0,1,.708-.525,9.156,9.156,0,0,1,2.058,0,1.138,1.138,0,0,1,.743.571,15.616,15.616,0,0,1,.611,1.752.878.878,0,0,0,1.336.571c.538-.26,1.077-.52,1.6-.8a.8.8,0,0,1,1.07.177c.427.45.863.894,1.319,1.315a.788.788,0,0,1,.171,1.068c-.279.528-.542,1.065-.8,1.6a.875.875,0,0,0,.574,1.334c.586.2,1.172.407,1.766.583a.741.741,0,0,1,.589.833q-.026.964,0,1.928a.744.744,0,0,1-.608.821c-.594.178-1.18.38-1.767.581a.878.878,0,0,0-.547,1.346c.243.5.484,1,.75,1.48a.874.874,0,0,1-.187,1.234,13.591,13.591,0,0,0-1.223,1.221.846.846,0,0,1-1.181.174c-.485-.266-.985-.506-1.482-.75a.893.893,0,0,0-1.393.566C2247.792,341.572,2247.483,342.347,2247.183,343.126Zm-1.46-14.088a4.1,4.1,0,1,0,4.1,4.127A4.155,4.155,0,0,0,2245.723,329.037Z"/><path class="n" d="M2301.141,387.025a1.741,1.741,0,1,1-1.724-1.723A1.717,1.717,0,0,1,2301.141,387.025Z" transform="translate(-53.684 -53.9)"/></g><rect class="q" width="375" height="812"/><text class="r" transform="translate(56 542)"><tspan x="0" y="0">每日任務</tspan><tspan x="0" y="20">寫信給對方，</tspan><tspan x="0" y="40">可以獲得經驗値及侏幣</tspan></text><g transform="translate(0 1)"><g class="s" transform="translate(95.22 1081.911)"><path class="u" d="M 31.90317344665527 -267.4111022949219 C 24.3062744140625 -267.4111022949219 15.34469890594482 -267.5375671386719 5.267374038696289 -267.7869262695312 L 5.187049388885498 -267.7889099121094 C 4.848974227905273 -267.7972717285156 4.505574226379395 -267.8055419921875 4.432599067687988 -267.8072204589844 C -5.667500495910645 -268.0434875488281 -19.32102584838867 -268.1632690429688 -36.15019989013672 -268.1632690429688 C -65.56475067138672 -268.1632690429688 -94.89514923095703 -267.7920532226562 -95.18800354003906 -267.7882995605469 L -97.72000122070312 -267.755859375 L -97.72000122070312 -270.2880859375 L -97.72000122070312 -441.4853515625 L -97.72000122070312 -449.6855773925781 L -94.36004638671875 -444.6872863769531 C -89.85230255126953 -448.25537109375 -85.884521484375 -450.8800964355469 -81.98550415039062 -452.8811645507812 L -80.11842346191406 -453.8393859863281 L -79.49755096435547 -453.0198059082031 L -79.59494781494141 -454.0524291992188 L -77.85312652587891 -454.7445068359375 C -76.0865478515625 -455.4464416503906 -74.59930419921875 -455.9456787109375 -73.17267608642578 -456.3157348632812 C -70.51162719726562 -457.0065002441406 -67.81835174560547 -457.3567810058594 -65.16812896728516 -457.3567810058594 C -58.60800170898438 -457.3567810058594 -52.59980010986328 -455.2226867675781 -47.79304885864258 -451.1851806640625 C -44.14765167236328 -448.123779296875 -41.13310241699219 -443.6741638183594 -39.30490112304688 -438.6561279296875 C -37.38275146484375 -433.3801574707031 -36.85470199584961 -427.8554077148438 -37.77782440185547 -422.6791687011719 C -38.2989501953125 -419.7574768066406 -39.25125122070312 -416.9787292480469 -40.17222595214844 -414.29150390625 C -41.65917587280273 -409.9527893066406 -43.06365203857422 -405.8547058105469 -42.48955154418945 -401.7013244628906 C -42.35012435913086 -400.6928100585938 -42.07412719726562 -399.6900024414062 -41.66922760009766 -398.7208557128906 L -41.17581558227539 -397.5398254394531 L -40.46892547607422 -396.5269775390625 C -38.38242721557617 -393.5374145507812 -34.9379768371582 -391.5638732910156 -31.47977638244629 -391.3765563964844 C -31.22297668457031 -391.3626098632812 -30.96032524108887 -391.3555908203125 -30.69922637939453 -391.3555908203125 C -26.1877498626709 -391.3558044433594 -21.71852493286133 -393.3744812011719 -16.98690032958984 -395.51171875 C -16.42252540588379 -395.7666320800781 -15.8389253616333 -396.0302429199219 -15.26332569122314 -396.286376953125 C -10.38442611694336 -398.4560546875 -4.602575778961182 -400.6738891601562 1.291974306106567 -400.6738891601562 C 3.068074226379395 -400.6738891601562 4.803049087524414 -400.4706115722656 6.448724269866943 -400.0697021484375 C 10.37639904022217 -399.1121215820312 14.0876989364624 -396.7059631347656 16.89934921264648 -393.2944030761719 C 18.34049987792969 -391.5457763671875 19.48614883422852 -389.6020202636719 20.30447387695312 -387.51708984375 C 21.17817497253418 -385.2911987304688 21.65639877319336 -382.955810546875 21.72592353820801 -380.5758361816406 C 21.90404891967773 -374.4782104492188 19.53377342224121 -369.1143493652344 17.24154853820801 -363.9270629882812 C 14.9473237991333 -358.7352905273438 12.78032398223877 -353.8314514160156 13.32932472229004 -348.6052551269531 C 13.61817455291748 -345.8544006347656 14.71044921875 -343.2278137207031 16.48807334899902 -341.0093994140625 C 18.11199951171875 -338.9827270507812 20.25694847106934 -337.3748779296875 22.52779960632324 -336.4820251464844 C 24.78452491760254 -335.5945129394531 27.28804969787598 -335.1812133789062 30.4067497253418 -335.1812438964844 C 32.70932388305664 -335.1812744140625 35.05364990234375 -335.4046936035156 37.659423828125 -335.6746215820312 C 40.26279830932617 -335.9436950683594 42.95425033569336 -336.2218627929688 45.69697570800781 -336.2218627929688 C 49.28487396240234 -336.2218627929688 52.36439895629883 -335.7192993164062 55.11157608032227 -334.6853942871094 C 57.56032562255859 -333.7635498046875 59.88667297363281 -332.3228454589844 62.02619934082031 -330.4032592773438 C 64.06330108642578 -328.5756225585938 65.87615203857422 -326.3644104003906 67.41439819335938 -323.8311462402344 C 68.93772125244141 -321.3224182128906 70.14285278320312 -318.5784606933594 70.99629974365234 -315.6754760742188 C 71.87347412109375 -312.6918029785156 72.35295104980469 -309.6248168945312 72.42137145996094 -306.5597839355469 C 72.49012756347656 -303.4812927246094 71.81212615966797 -299.8271179199219 70.40622711181641 -295.6987609863281 C 69.14967346191406 -292.0089416503906 67.33792114257812 -288.0592041015625 65.16687774658203 -284.2765808105469 C 63.01702499389648 -280.5309143066406 60.59704971313477 -277.0897521972656 58.16859817504883 -274.3250732421875 C 55.45542526245117 -271.2362365722656 52.85607528686523 -269.1125793457031 50.4427490234375 -268.0130920410156 L 50.04940032958984 -267.8338623046875 L 49.61869812011719 -267.7971496582031 C 49.43389892578125 -267.7813720703125 44.94269943237305 -267.4111022949219 31.90317344665527 -267.4111022949219 Z"/><path class="w" d="M 31.90330123901367 -269.9111328125 C 44.98633193969727 -269.9111328125 49.40625 -270.2880859375 49.40625 -270.2880859375 C 58.03924942016602 -274.2212829589844 70.18099975585938 -294.9041748046875 69.9219970703125 -306.5039978027344 C 69.66300201416016 -318.1050720214844 63.0260009765625 -329.0346069335938 54.23099899291992 -332.3456115722656 C 51.46136856079102 -333.3879699707031 48.59160995483398 -333.7218933105469 45.69700241088867 -333.7218933105469 C 43.10574722290039 -333.7218933105469 40.4946174621582 -333.454345703125 37.91699981689453 -333.1879272460938 C 35.42951965332031 -332.9302673339844 32.9085693359375 -332.6812744140625 30.40681648254395 -332.6812438964844 C 27.41925621032715 -332.6812133789062 24.45888519287109 -333.0361938476562 21.61299896240234 -334.1553955078125 C 16.38299942016602 -336.2117919921875 11.56399917602539 -341.47802734375 10.84299945831299 -348.3440551757812 C 9.647998809814453 -359.7200012207031 19.56199836730957 -369.0345458984375 19.22699928283691 -380.5028381347656 C 18.9739990234375 -389.1634826660156 12.58499908447266 -396.0004272460938 5.856999397277832 -397.6407470703125 C 4.342542171478271 -398.0097045898438 2.817906618118286 -398.1738891601562 1.292011618614197 -398.1738891601562 C -3.960906505584717 -398.1738891601562 -9.238032341003418 -396.2298278808594 -14.2470006942749 -394.0022583007812 C -19.60292816162109 -391.619140625 -25.0487174987793 -388.8558349609375 -30.69904518127441 -388.8555908203125 C -31.00400543212891 -388.8555908203125 -31.30882453918457 -388.8636169433594 -31.6150016784668 -388.8801879882812 C -35.677001953125 -389.1002502441406 -39.9010009765625 -391.3450927734375 -42.51900100708008 -395.09619140625 C -45.01200103759766 -394.6370849609375 -47.50500106811523 -394.1792602539062 -49.99800109863281 -393.7201843261719 C -47.9900016784668 -395.0657958984375 -45.98300170898438 -396.4114990234375 -43.97600173950195 -397.7571411132812 C -44.44200134277344 -398.87255859375 -44.78800201416016 -400.071533203125 -44.96599960327148 -401.3590087890625 C -46.00300216674805 -408.8612060546875 -41.56399917602539 -415.6892700195312 -40.2390022277832 -423.1181030273438 C -38.47500228881836 -433.0093383789062 -42.72200012207031 -443.6619262695312 -49.4010009765625 -449.2708740234375 C -54.02746200561523 -453.1569519042969 -59.58138656616211 -454.8568115234375 -65.16813659667969 -454.8568115234375 C -67.64670562744141 -454.8568115234375 -70.13137054443359 -454.5223388671875 -72.54499816894531 -453.8958129882812 C -74.03199768066406 -453.5101013183594 -75.48799896240234 -452.994140625 -76.93000030517578 -452.4212036132812 L -76.18299865722656 -444.5016479492188 C -77.73699951171875 -446.552978515625 -79.29000091552734 -448.6055908203125 -80.84400177001953 -450.656982421875 C -85.56800079345703 -448.2325439453125 -90.05899810791016 -444.9923706054688 -94.35199737548828 -441.4853515625 L -94.35199737548828 -440.194091796875 L -95.22000122070312 -441.4853515625 L -95.22000122070312 -270.2880859375 C -95.22000122070312 -270.2880859375 -65.92148590087891 -270.6632690429688 -36.1493034362793 -270.6632690429688 C -21.59329032897949 -270.6632690429688 -6.925650119781494 -270.5736083984375 4.489610195159912 -270.3065795898438 C 4.563055038452148 -270.3049011230469 4.908638000488281 -270.2965698242188 5.250999450683594 -270.2880859375 C 5.285193920135498 -270.2872314453125 5.319388389587402 -270.286376953125 5.329221725463867 -270.2861633300781 C 16.69407653808594 -270.0049438476562 25.37674713134766 -269.9111328125 31.90330123901367 -269.9111328125 M 31.90330505371094 -264.9111022949219 C 24.2863597869873 -264.9111022949219 15.3039436340332 -265.0378112792969 5.205526828765869 -265.2876892089844 C 5.184643745422363 -265.2882080078125 5.154890537261963 -265.2889099121094 5.125138282775879 -265.2896728515625 C 4.788693904876709 -265.2980041503906 4.446916103363037 -265.3062438964844 4.374277114868164 -265.3079223632812 C -5.706639766693115 -265.5437316894531 -19.34022331237793 -265.6632690429688 -36.14930725097656 -265.6632690429688 C -65.54666900634766 -265.6632690429688 -94.86328125 -265.2922668457031 -95.15597534179688 -265.2885131835938 C -95.17735290527344 -265.2882385253906 -95.19878387451172 -265.2880859375 -95.22013854980469 -265.2880859375 C -96.53423309326172 -265.2880859375 -97.79649353027344 -265.8055419921875 -98.73283386230469 -266.7300109863281 C -99.68438720703125 -267.6694641113281 -100.2200012207031 -268.950927734375 -100.2200012207031 -270.2880859375 L -100.2200012207031 -441.4853515625 C -100.2200012207031 -443.6851501464844 -98.78227996826172 -445.6264953613281 -96.67808532714844 -446.2680053710938 C -96.53630065917969 -446.3112182617188 -96.39389801025391 -446.3478393554688 -96.25093078613281 -446.3780212402344 C -91.47251892089844 -450.1869201660156 -87.27210998535156 -452.9779968261719 -83.12697601318359 -455.1053466796875 C -82.40061950683594 -455.4781188964844 -81.61923217773438 -455.6573486328125 -80.84659576416016 -455.6573486328125 C -80.81196594238281 -455.6573486328125 -80.77717590332031 -455.656982421875 -80.74258422851562 -455.6562805175781 C -80.22507476806641 -456.2665405273438 -79.55701446533203 -456.7576599121094 -78.77625274658203 -457.06787109375 C -76.91091918945312 -457.8089904785156 -75.32978057861328 -458.3389587402344 -73.80036163330078 -458.7356567382812 C -70.9346923828125 -459.4795227050781 -68.03008270263672 -459.8568115234375 -65.16813659667969 -459.8568115234375 C -58.01227951049805 -459.8568115234375 -51.44805526733398 -457.5201416015625 -46.18511199951172 -453.0994567871094 C -44.17102813720703 -451.4080200195312 -42.34508514404297 -449.3574829101562 -40.75841903686523 -447.0050659179688 C -39.21072387695312 -444.7103881835938 -37.93138885498047 -442.1893310546875 -36.9559440612793 -439.5119018554688 C -34.88311004638672 -433.8222961425781 -34.31624984741211 -427.849853515625 -35.31666564941406 -422.2402648925781 C -35.87158584594727 -419.1290588378906 -36.85561370849609 -416.2577209472656 -37.8072509765625 -413.4809875488281 C -39.25519561767578 -409.2560729980469 -40.50569534301758 -405.6072998046875 -40.01308441162109 -402.0436096191406 C -39.90163803100586 -401.2374572753906 -39.68880462646484 -400.4657592773438 -39.36244583129883 -399.6846008300781 C -39.22966766357422 -399.3667907714844 -39.13201141357422 -399.0419921875 -39.06800079345703 -398.7145690917969 C -38.82977676391602 -398.4873352050781 -38.61196517944336 -398.2344970703125 -38.41886138916016 -397.9578247070312 C -37.58630752563477 -396.7649230957031 -36.46213912963867 -395.7517700195312 -35.16786193847656 -395.0279235839844 C -33.94013977050781 -394.3412780761719 -32.61805725097656 -393.9418640136719 -31.34452819824219 -393.8728637695312 C -31.13272285461426 -393.8613891601562 -30.91555595397949 -393.8555908203125 -30.69905662536621 -393.8555908203125 C -26.72616767883301 -393.8557434082031 -22.49527931213379 -395.7668151855469 -18.01597213745117 -397.7901000976562 C -17.44847297668457 -398.0464172363281 -16.86163902282715 -398.3114624023438 -16.27964019775391 -398.5704345703125 C -11.16044521331787 -400.8470458984375 -5.070333957672119 -403.1738891601562 1.291999220848083 -403.1738891601562 C 3.267277002334595 -403.1738891601562 5.20136022567749 -402.9467163085938 7.04047155380249 -402.4986572265625 C 11.48966598510742 -401.4139099121094 15.67580509185791 -398.7098693847656 18.82858276367188 -394.8843994140625 C 20.43744277954102 -392.9322814941406 21.71697235107422 -390.7608642578125 22.63163757324219 -388.4305114746094 C 23.61086082458496 -385.9356994628906 24.14691543579102 -383.3175659179688 24.22486114501953 -380.6488342285156 C 24.31394386291504 -377.5997314453125 23.8311939239502 -374.4494323730469 22.74902725219727 -371.0179443359375 C 21.85386085510254 -368.1794738769531 20.67158317565918 -365.5039672851562 19.52822113037109 -362.9165954589844 C 18.37727737426758 -360.3120727539062 17.29019355773926 -357.8519592285156 16.57297134399414 -355.4209899902344 C 15.84555435180664 -352.9553527832031 15.60488796234131 -350.8726196289062 15.81563854217529 -348.8664245605469 C 16.3497486114502 -343.7800903320312 20.0311107635498 -340.1499633789062 23.4426097869873 -338.8086242675781 C 25.39852714538574 -338.0394287109375 27.61136054992676 -337.6812133789062 30.4067497253418 -337.6812438964844 C 32.59005355834961 -337.6812744140625 34.86641693115234 -337.898681640625 37.40183258056641 -338.1613159179688 C 39.94466781616211 -338.4241333007812 42.82552719116211 -338.7218933105469 45.69699859619141 -338.7218933105469 C 49.5909423828125 -338.7218933105469 52.95852661132812 -338.1669006347656 55.99216461181641 -337.0251770019531 C 58.73263931274414 -335.9934692382812 61.32433319091797 -334.3916931152344 63.69572067260742 -332.2640991210938 C 65.91555786132812 -330.2724914550781 67.88563537597656 -327.8717956542969 69.55130767822266 -325.1286926269531 C 71.18708038330078 -322.4347839355469 72.480224609375 -319.4914855957031 73.39480590820312 -316.380615234375 C 74.33399963378906 -313.1859130859375 74.84741973876953 -309.9005126953125 74.92074584960938 -306.6156311035156 C 74.99605560302734 -303.243408203125 74.27336120605469 -299.29931640625 72.77277374267578 -294.8928527832031 C 71.46522521972656 -291.0532836914062 69.58491516113281 -286.951904296875 67.33511352539062 -283.0320739746094 C 65.10369110107422 -279.1443481445312 62.58347320556641 -275.56298828125 60.0468864440918 -272.6752014160156 C 57.0988883972168 -269.3190612792969 54.21633148193359 -266.9850769042969 51.479248046875 -265.7380676269531 C 50.95863723754883 -265.5008544921875 50.40116500854492 -265.3547973632812 49.8311653137207 -265.3061828613281 C 49.64202880859375 -265.2900390625 45.04802703857422 -264.9111022949219 31.90330505371094 -264.9111022949219 Z"/></g><text class="t" transform="translate(30 776)"><tspan x="0" y="0">毎日任務</tspan></text><g transform="translate(-1449.845 184.155)"><path class="b" d="M1530.24,688.11a2.838,2.838,0,0,0,3.042,2.628h2.5c.869,0,1.737,0,2.606,0a2.878,2.878,0,0,0,2.977-2.963c.006-.878.022-1.757.013-2.635H1530.14C1530.182,686.13,1530.121,687.13,1530.24,688.11Z" transform="translate(-29.818 -119.497)"/><path class="b" d="M1518.973,547.973a12.627,12.627,0,0,0-6.83-10.69,12.3,12.3,0,0,0-9.162-1.214,13.058,13.058,0,0,0-7.75,5.328,12.5,12.5,0,0,0-2.25,9.2,12.84,12.84,0,0,0,4.723,8.336,6.24,6.24,0,0,1,2.377,3.5,9.666,9.666,0,0,1,.162,1.288h11.338a7.19,7.19,0,0,1,2.794-5.011A12.12,12.12,0,0,0,1518.973,547.973Zm-14.017-3.957a.952.952,0,0,1,.708-.3h.57a.951.951,0,0,1,.708.3.932.932,0,0,1,.276.716l-.017,1.312-.483,5.783a.735.735,0,0,1-.241.518.8.8,0,0,1-1.071,0,.732.732,0,0,1-.241-.518l-.466-5.783-.017-1.312A.931.931,0,0,1,1504.956,544.016Zm2.124,12.611a1.719,1.719,0,0,1-2.279,0,1.438,1.438,0,0,1-.466-1.1,1.466,1.466,0,0,1,.466-1.113,1.694,1.694,0,0,1,2.279,0,1.465,1.465,0,0,1,.466,1.113A1.437,1.437,0,0,1,1507.079,556.627Z" transform="translate(0 0)"/></g></g></g></svg>