<svg xmlns="http://www.w3.org/2000/svg" width="52.414" height="74.622" viewBox="0 0 52.414 74.622"><defs><style>.a{fill:#e26b6b;}.b,.c{stroke:none;}.c{fill:#fff;}</style></defs><g transform="matrix(0.891, 0.454, -0.454, 0.891, -641.043, -726.666)"><g class="a"><path class="b" d="M 941.319580078125 412.6001586914062 C 938.6932983398438 412.6001586914062 936.4479370117188 411.6539916992188 934.6458740234375 409.7879638671875 C 932.8590698242188 407.931640625 931.9539794921875 405.5995178222656 931.9539794921875 402.8545532226562 C 931.9539794921875 400.1098937988281 932.8592529296875 397.7787170410156 934.6447143554688 395.9258117675781 C 936.4457397460938 394.0567321777344 938.6914672851562 393.1090087890625 941.319580078125 393.1090087890625 C 943.9475708007812 393.1090087890625 946.207275390625 394.0705871582031 948.035888671875 395.9670715332031 C 949.8499145507812 397.8443603515625 950.770263671875 400.1760559082031 950.770263671875 402.8961791992188 C 950.770263671875 405.6217041015625 949.8469848632812 407.9435119628906 948.026123046875 409.7971496582031 C 946.1968994140625 411.6572875976562 943.940673828125 412.6001586914062 941.319580078125 412.6001586914062 Z M 941.319580078125 389.7161865234375 C 939.78271484375 389.7161865234375 938.4337768554688 389.1839904785156 937.3101806640625 388.1343994140625 C 936.1986694335938 387.1006469726562 935.5584716796875 385.7887573242188 935.40966796875 384.2374877929688 L 935.40673828125 384.2069091796875 L 935.4050903320312 384.1762390136719 L 933.8905639648438 356.49560546875 L 933.8897705078125 356.4816284179688 L 933.8892822265625 356.4676513671875 L 933.6378784179688 349.4881896972656 C 933.5643310546875 347.7312316894531 934.1404418945312 346.1901245117188 935.350341796875 344.90771484375 C 936.565673828125 343.6193237304688 938.1071166992188 342.9660034179688 939.9317626953125 342.9660034179688 L 942.70751953125 342.9660034179688 C 944.467041015625 342.9660034179688 945.9895629882812 343.6135864257812 947.2327880859375 344.8907775878906 C 948.4798583984375 346.1763610839844 949.0748291015625 347.7217712402344 949.0030517578125 349.4862670898438 L 948.75 356.4679870605469 L 948.7493896484375 356.4840393066406 L 948.7484741210938 356.5000915527344 L 947.1510620117188 384.1743469238281 C 947.07275390625 385.749267578125 946.4600219726562 387.08203125 945.3297729492188 388.1355285644531 C 944.2071533203125 389.1840209960938 942.8575439453125 389.7161865234375 941.319580078125 389.7161865234375 Z"/><path class="c" d="M 941.319580078125 411.1001586914062 C 943.5367431640625 411.1001586914062 945.413818359375 410.3142700195312 946.9560546875 408.7459716796875 C 948.5 407.1742553710938 949.270263671875 405.2243041992188 949.270263671875 402.8961791992188 C 949.270263671875 400.571533203125 948.5 398.6060180664062 946.9560546875 397.0082397460938 C 945.413818359375 395.4087524414062 943.5367431640625 394.6090087890625 941.319580078125 394.6090087890625 C 939.104248046875 394.6090087890625 937.2393798828125 395.3948364257812 935.724853515625 396.9666137695312 C 934.2120361328125 398.53662109375 933.4539794921875 400.5004272460938 933.4539794921875 402.8545532226562 C 933.4539794921875 405.2103881835938 934.2120361328125 407.1742553710938 935.724853515625 408.7459716796875 C 937.2393798828125 410.3142700195312 939.104248046875 411.1001586914062 941.319580078125 411.1001586914062 M 941.319580078125 388.2161865234375 C 942.4681396484375 388.2161865234375 943.465576171875 387.8241577148438 944.3070068359375 387.0382690429688 C 945.1483154296875 386.2540893554688 945.595947265625 385.2705078125 945.6531982421875 384.0942993164062 L 947.2509765625 356.4136352539062 L 947.504150390625 349.4292602539062 C 947.559814453125 348.0830688476562 947.1104736328125 346.9190063476562 946.157958984375 345.9370727539062 C 945.203857421875 344.9569091796875 944.0537109375 344.4660034179688 942.70751953125 344.4660034179688 L 939.9317626953125 344.4660034179688 C 938.530029296875 344.4660034179688 937.365966796875 344.9569091796875 936.44140625 345.9370727539062 C 935.5150146484375 346.9190063476562 935.0794677734375 348.0830688476562 935.13671875 349.4292602539062 L 935.3883056640625 356.4136352539062 L 936.90283203125 384.0942993164062 C 937.015625 385.2705078125 937.490966796875 386.2540893554688 938.3341064453125 387.0382690429688 C 939.1754150390625 387.8241577148438 940.16943359375 388.2161865234375 941.319580078125 388.2161865234375 M 941.319580078125 414.1001586914062 C 939.8155517578125 414.1001586914062 938.3943481445312 413.8229370117188 937.095458984375 413.2761840820312 C 935.79150390625 412.727294921875 934.6043090820312 411.9042663574219 933.5668334960938 410.8299560546875 C 931.5001220703125 408.6828002929688 930.4539794921875 406.0007019042969 930.4539794921875 402.8545532226562 C 930.4539794921875 399.7084045410156 931.5005493164062 397.0270690917969 933.5645751953125 394.885009765625 C 934.6019287109375 393.8083801269531 935.7896118164062 392.9837036132812 937.0944213867188 392.433837890625 C 938.3932495117188 391.8865356445312 939.8147583007812 391.6090087890625 941.319580078125 391.6090087890625 C 942.8289184570312 391.6090087890625 944.2576293945312 391.8914794921875 945.5661010742188 392.4485778808594 C 946.8728637695312 393.0049438476562 948.067138671875 393.8384399414062 949.1156616210938 394.9259338378906 C 951.2081298828125 397.0913391113281 952.270263671875 399.7737121582031 952.270263671875 402.8961791992188 C 952.270263671875 406.0287780761719 951.2023315429688 408.7042846679688 949.09619140625 410.8482971191406 C 948.0457153320312 411.91650390625 946.8522338867188 412.7339782714844 945.5477294921875 413.2791748046875 C 944.2442016601562 413.8239440917969 942.8216552734375 414.1001586914062 941.319580078125 414.1001586914062 Z M 941.319580078125 391.2161865234375 C 939.4172973632812 391.2161865234375 937.6768188476562 390.5295715332031 936.2861938476562 389.2305603027344 C 934.9179077148438 387.9558410644531 934.0985717773438 386.2789611816406 933.91650390625 384.3806762695312 L 933.91064453125 384.3195190429688 L 933.9072875976562 384.2582092285156 L 932.3927612304688 356.5775451660156 L 932.3912963867188 356.5495910644531 L 932.3902587890625 356.5216369628906 L 932.1389770507812 349.5455322265625 C 932.0505981445312 347.4017944335938 932.7836303710938 345.4424438476562 934.25927734375 343.8783569335938 C 935.7478637695312 342.3002624511719 937.70947265625 341.4660034179688 939.9317626953125 341.4660034179688 L 942.70751953125 341.4660034179688 C 944.8565063476562 341.4660034179688 946.79296875 342.2884826660156 948.3076782226562 343.8445129394531 L 948.3094482421875 343.8463745117188 L 948.311279296875 343.8482360839844 C 949.8317260742188 345.4156799316406 950.5891723632812 347.3854370117188 950.501953125 349.5451965332031 L 950.2490234375 356.5223083496094 L 950.2478637695312 356.5544128417969 L 950.2459716796875 356.5865173339844 L 948.64892578125 384.2542724609375 C 948.5507202148438 386.20263671875 947.7568359375 387.923828125 946.3525390625 389.2327880859375 C 944.9640502929688 390.5296325683594 943.222900390625 391.2161865234375 941.319580078125 391.2161865234375 Z"/></g></g></svg>