<svg xmlns="http://www.w3.org/2000/svg" xmlns:xlink="http://www.w3.org/1999/xlink" width="375" height="261.582" viewBox="0 0 375 261.582">
  <defs>
    <filter id="Path_144" x="248.621" y="64.1" width="103.516" height="102.93" filterUnits="userSpaceOnUse">
      <feOffset dy="5" input="SourceAlpha"/>
      <feGaussianBlur stdDeviation="3" result="blur"/>
      <feFlood flood-opacity="0.161"/>
      <feComposite operator="in" in2="blur"/>
      <feComposite in="SourceGraphic"/>
    </filter>
  </defs>
  <g id="Group_422" data-name="Group 422" transform="translate(0 -550.418)">
    <g id="Group_64" data-name="Group 64">
      <rect id="白底" width="375" height="234" transform="translate(0 578)" fill="#fff"/>
      <g id="Group_63" data-name="Group 63" transform="translate(255.992 618.518)">
        <ellipse id="Ellipse_1" data-name="Ellipse 1" cx="49.097" cy="13.474" rx="49.097" ry="13.474" transform="translate(0 62.88)" fill="#70bced"/>
        <g transform="matrix(1, 0, 0, 1, -255.99, -68.1)" filter="url(#Path_144)">
          <path id="Path_144-2" data-name="Path 144" d="M351.368,552.118a1.68,1.68,0,0,1-.14.2,15.261,15.261,0,0,1-2.288,2.3,19.111,19.111,0,0,1-2.863,1.894,35.4,35.4,0,0,1-6.538,2.639c-1.8.556-3.62,1.031-5.436,1.521a91.251,91.251,0,0,1-20.142,3.1,84.135,84.135,0,0,1-19.531-1.451,78.655,78.655,0,0,1-8.928-2.293,41.8,41.8,0,0,1-5.828-2,8.476,8.476,0,0,1-2.434-1.719,5.533,5.533,0,0,1-1.211-1.809,3.05,3.05,0,0,1,.248-2.224c.51-1.641.895-3.316,1.3-4.984.136-.559,1.28-6.447,1.409-6.447a28.283,28.283,0,0,0,8.727.381c1.277-.164,1.293-2.195,0-2.028-7.065.9-19.578-1.9-21.649-9.9.048-1.819,2.334-2.045,3.7-1.843a11.5,11.5,0,0,1,2.408.823q1.764.675,3.587,1.179c4.815,1.321,10.143,1.753,14.906-.009a15.939,15.939,0,0,0,3.464-1.783,7.445,7.445,0,0,0,3.1-4.107,6.118,6.118,0,0,0-.509-4.42,7.3,7.3,0,0,0-3.592-3.232,11.266,11.266,0,0,0-1.9-.583,18.332,18.332,0,0,0-1.99-.263c-1.4-.174-2.789-.44-4.171-.721l-.413-.084a52.79,52.79,0,0,1-8.818-2.5c-2.1-.828-4.809-1.969-5.928-4.081-1.133-2.136.583-4.331,2.461-5.264a11.339,11.339,0,0,0,2.61-1.66,7.019,7.019,0,0,0,1.749-3.043c.358-.927.754-1.838,1.2-2.725a27.642,27.642,0,0,1,3.065-4.8,28.314,28.314,0,0,1,8.307-7.015,33.257,33.257,0,0,1,10.281-3.65,38.491,38.491,0,0,1,11.143-.372,39.117,39.117,0,0,1,10.893,2.819,35.22,35.22,0,0,1,9.319,5.737c8.408,7.253,11.687,18.126,14.772,28.409.84,2.8,1.619,5.616,2.317,8.454s1.32,5.709,1.837,8.593.93,5.779,1.22,8.69.458,5.853.481,8.787A2.669,2.669,0,0,1,351.368,552.118Z" transform="translate(-8.44 -410.81)" fill="#a3e5dd"/>
        </g>
        <path id="Path_143" data-name="Path 143" d="M5.279,4.464a7.13,7.13,0,0,0-.841-3.249A2.357,2.357,0,0,0,2.138.006,1.662,1.662,0,0,0,.67.822a2.07,2.07,0,0,0-.2.317A5.491,5.491,0,0,0,.134,4.616,3.524,3.524,0,0,0,1.525,7.109a2.885,2.885,0,0,0,2.611-.172A2.3,2.3,0,0,0,5.279,4.464Z" transform="matrix(0.985, 0.174, -0.174, 0.985, 35.526, 22.228)" fill="#719a95"/>
        <path id="Path_146" data-name="Path 146" d="M1.628,1.377a2.2,2.2,0,0,0-.259-1A.727.727,0,0,0,.66,0,.513.513,0,0,0,.207.254a.639.639,0,0,0-.063.1,1.694,1.694,0,0,0-.1,1.072,1.087,1.087,0,0,0,.429.769.89.89,0,0,0,.805-.053A.711.711,0,0,0,1.628,1.377Z" transform="matrix(0.985, 0.174, -0.174, 0.985, 10.302, 26.417)" fill="#719a95"/>
        <g id="Group_62" data-name="Group 62" transform="matrix(0.934, 0.358, -0.358, 0.934, 33.538, 14.098)">
          <path id="Path_145" data-name="Path 145" d="M9.186.141.765,2.938C-1.02,3.531.644,5,2.444,4.4l8.42-2.8c1.786-.593.121-2.059-1.678-1.461Z" transform="translate(0 0)" fill="#719a95"/>
        </g>
      </g>
      <text id="住在洞穴裡可怕的惡魔屁頭龍_又出來作祟了_他將街上的恐龍擄走_現在_我們需要勇敢的屁頭龍助我一臂之力_你願意幫忙我一起對抗惡勢力嗎_幫忙的話會進入戰鬥_" data-name="住在洞穴裡可怕的惡魔屁頭龍，
又出來作祟了，他將街上的恐龍擄走
現在，我們需要勇敢的屁頭龍助我一臂之力，你願意幫忙我一起對抗惡勢力嗎。
(幫忙的話會進入戰鬥)


" transform="translate(30 604)" font-size="12" font-family="GenJyuuGothic-P-Regular, Gen Jyuu Gothic P" letter-spacing="0.05em"><tspan x="0" y="13">住在洞穴裡可怕的</tspan><tspan y="13" fill="#b14343" text-decoration="underline">惡魔屁頭龍，</tspan><tspan x="0" y="33">又出來作祟了，他將街上的恐龍擄走</tspan><tspan x="0" y="53">現在，我們需要勇敢的屁頭龍助我一</tspan><tspan x="0" y="73">臂之力，你願意幫忙我一起對抗惡勢</tspan><tspan x="0" y="93">力嗎。</tspan><tspan x="0" y="113">(幫忙的話會進入戰鬥)</tspan></text>
      <text id="尼斯湖水怪" transform="translate(283 721)" fill="#545756" font-size="9" font-family="GenJyuuGothic-P-Medium, Gen Jyuu Gothic P" font-weight="500"><tspan x="0" y="0">尼斯湖水怪</tspan></text>
    </g>
    <g id="Group_406" data-name="Group 406" transform="translate(-919.932 297.235)">
      <g id="Group_405" data-name="Group 405" transform="translate(1029.932 253.183)">
        <path id="Path_1921" data-name="Path 1921" d="M1048.82,274.28h5.961q.228,0,.266-.262l.152-1.081c.021-.153-.044-.229-.2-.229h-5.961a.256.256,0,0,0-.294.229l-.151,1.081Q1048.557,274.28,1048.82,274.28Z" transform="translate(-1035.99 -259.523)" fill="#7c411e"/>
        <path id="Path_1922" data-name="Path 1922" d="M1049.615,268.7h2.195a.236.236,0,0,0,.261-.23l.125-.884c.024-.174-.041-.262-.192-.262h-2.195a.272.272,0,0,0-.3.262l-.124.884C1049.364,268.624,1049.441,268.7,1049.615,268.7Z" transform="translate(-1036.247 -257.774)" fill="#7c411e"/>
        <path id="Path_1923" data-name="Path 1923" d="M1050.442,278.381h-2.195a.257.257,0,0,0-.294.23l-.142,1.016c-.025.175.05.261.225.261h2.195c.152,0,.241-.086.265-.261l.143-1.016C1050.66,278.459,1050.594,278.381,1050.442,278.381Z" transform="translate(-1035.736 -261.365)" fill="#7c411e"/>
        <path id="Path_1924" data-name="Path 1924" d="M1055.376,281.708h-2.339l.682.934q.834-.427,1.631-.863Z" transform="translate(-1037.434 -262.445)" fill="#7c411e"/>
        <path id="Path_1925" data-name="Path 1925" d="M1102.734,272.446h7.271a.613.613,0,0,0,.453-.2q.925-.983,1.638-1.867a.147.147,0,0,0,.018-.132.089.089,0,0,0-.089-.065h-6.91a.619.619,0,0,0-.417.163q-.957.983-2.007,1.933a.071.071,0,0,0-.047.1A.088.088,0,0,0,1102.734,272.446Z" transform="translate(-1053.539 -258.704)" fill="#7c411e"/>
        <path id="Path_1926" data-name="Path 1926" d="M1221.469,274.552a.236.236,0,0,0,.162.075.293.293,0,0,0,.2-.107,13.3,13.3,0,0,0,2.278-2.456.148.148,0,0,0,0-.147c-.025-.055-.059-.082-.1-.082h-4.52a.128.128,0,0,0-.11.082.174.174,0,0,0-.02.147A11.283,11.283,0,0,0,1221.469,274.552Z" transform="translate(-1091.436 -259.239)" fill="#7c411e"/>
        <path id="Path_1927" data-name="Path 1927" d="M1196.328,258.745a7.609,7.609,0,0,0-5.947-2.778h-1.08a8.183,8.183,0,0,0-5.559,2.182c-.063.058-.119.121-.18.18a7.589,7.589,0,0,0-5.561-2.362h-1.08a8.163,8.163,0,0,0-4.894,1.634,7.467,7.467,0,0,0-4.108-1.207h-2.905a7.355,7.355,0,0,0-3.883-2.62l-.145-.041-.147-.034a8.634,8.634,0,0,0-5.193.417l-.109.044-.107.048a9.491,9.491,0,0,0-1.565.887,7.3,7.3,0,0,0-2.9-.594,7.7,7.7,0,0,0-.93.057h-8.553a7.871,7.871,0,0,0-4.168,1.174,8.933,8.933,0,0,0-5.279-1.763,9.5,9.5,0,0,0-2.505.346l-.057.016-.057.017a76.616,76.616,0,0,1-8.647,1.933,7.466,7.466,0,0,0-3.1-2.1l-.118-.047-.217-.086-.223-.069a8.014,8.014,0,0,0-5.931.44,8.753,8.753,0,0,0-3.854,3.463l-.023.039-.022.038a37.379,37.379,0,0,1-4.469,6.22c-.134-.194-.273-.386-.426-.569a7.594,7.594,0,0,0-2.646-2.048,7.383,7.383,0,0,0-2.926-4.337l-.111-.08-.115-.074-.681-.44a7.091,7.091,0,0,0-5.036-1.222h-2.42a7.148,7.148,0,0,0-3.638-1.938l-.1-.02-.1-.017-.365-.063a7.854,7.854,0,0,0-1.721-.189,8.873,8.873,0,0,0-3.576.768,9.432,9.432,0,0,0-3.774,2.956,21.294,21.294,0,0,1-1.654,1.817,7.1,7.1,0,0,0-4.1-3.691l-.14-.049-.143-.042a14.693,14.693,0,0,0-4.182-.514h-8.319a8.057,8.057,0,0,0-1.1.074,7.222,7.222,0,0,0-2.643-.5h-11a8.138,8.138,0,0,0-5.521,2.133,8.241,8.241,0,0,0-2.7,5.03l-1.474,10.483a7.742,7.742,0,0,0,.991,5.071q-.16.132-.314.272a7.763,7.763,0,0,0-2.213,8.183c-.074.167-.144.337-.207.511l-.021.058-.02.059a7.456,7.456,0,0,0-.332,1.365,7.083,7.083,0,0,0,.034,2.211l-.193,1.277,1.823,2.138a6.222,6.222,0,0,0,.574.583,8.57,8.57,0,0,0,4.186,2.191,8.7,8.7,0,0,0,1.847.2,9.555,9.555,0,0,0,3.048-.514l.213-.072.208-.088q1.134-.477,2.2-.987a7.687,7.687,0,0,0,5.657,2.414h.066a8.174,8.174,0,0,0,5.461-2.065,8.615,8.615,0,0,0,.76-.753c.258.158.506.315.741.471l.028.019.029.018a8.841,8.841,0,0,0,4.8,1.393,9.111,9.111,0,0,0,4.943-1.444c.179-.114.346-.239.513-.365a8.264,8.264,0,0,0,4.205,1.122h.115l.148,0a8.626,8.626,0,0,0,3.007-.658c2.29,1.661,5.162,1.875,7.236,1.875h4.847a11.349,11.349,0,0,0,6.434-1.736c.106-.072.21-.145.313-.22q.365.156.748.277a7.418,7.418,0,0,0,2.412.4,8.122,8.122,0,0,0,3.82-.963l.242-.128.231-.15.091-.059c.18-.1.353-.217.523-.332a7.973,7.973,0,0,0,.53.667,7.693,7.693,0,0,0,5.829,2.6h.131a8.128,8.128,0,0,0,4.5-1.349,8.029,8.029,0,0,0,1.944.235h16.016a8.145,8.145,0,0,0,4.241-1.17c.018.017.035.036.053.053a7.853,7.853,0,0,0,5.361,2.1h.35l.219-.016a13.628,13.628,0,0,0,5.083-1.26,8.233,8.233,0,0,0,.88.381l.129.047.132.041a8.167,8.167,0,0,0,5.761-.315l.093-.04.092-.044q.651-.307,1.27-.642a7.759,7.759,0,0,0,4.789,1.617h.091l.091,0c.889-.026,1.613-.066,2.216-.121l.1-.009.1-.013a10.69,10.69,0,0,0,6.01-2.76l.02-.018.02-.019a9.406,9.406,0,0,0,.9-.992,8.628,8.628,0,0,0,5.456,1.872,9.446,9.446,0,0,0,6.307-2.408,8.588,8.588,0,0,0,6.073,2.408,9.456,9.456,0,0,0,6.363-2.454,9.709,9.709,0,0,0,3.2-5.973,9.054,9.054,0,0,0-.891-5.464,8.017,8.017,0,0,0,.457-1.534l2.133-10.76.012-.062.011-.062.479-2.718A7.6,7.6,0,0,0,1196.328,258.745Z" transform="translate(-1029.932 -253.183)" fill="#fff"/>
      </g>
      <path id="Path_1928" data-name="Path 1928" d="M1044.409,288.549a4.806,4.806,0,0,1,2.146-.59,3.313,3.313,0,0,1,1.307.262.864.864,0,0,1,.568.852c-.009.065-.019.13-.028.2a1.072,1.072,0,0,1-.57.785,38.457,38.457,0,0,1-5.4,2.751,3.469,3.469,0,0,1-1.109.2,2.611,2.611,0,0,1-.58-.065,2.5,2.5,0,0,1-1.4-.786c-.022,0-.032-.011-.028-.033a.9.9,0,0,1-.25-.786,1.547,1.547,0,0,1,.07-.262,1.234,1.234,0,0,1,.831-.786A29.522,29.522,0,0,0,1044.409,288.549Zm16.776-4.945a.873.873,0,0,1-.367-.885,1.147,1.147,0,0,1,.615-.884,2.835,2.835,0,0,1,1.469-.426h.032a2.264,2.264,0,0,1,1.32.392,30.954,30.954,0,0,1,4.078,3.374,1.175,1.175,0,0,1,.316,1.016c-.01.065-.017.12-.023.163a1.8,1.8,0,0,1-.811,1.114,2.36,2.36,0,0,1-1.193.328,1,1,0,0,1-.257-.032,1.959,1.959,0,0,1-1.222-.623.278.278,0,0,1-.089-.065.506.506,0,0,0-.4-.163q-1.451.066-4.409.148t-4.405.113a.272.272,0,0,0-.3.263l-.617,4.389a2.176,2.176,0,0,1-.75,1.375,2.14,2.14,0,0,1-1.453.557h-.066a1.638,1.638,0,0,1-1.661-1.932l.608-4.323c.024-.175-.042-.251-.2-.23q-3.486.1-10.644.23h-.033a1.377,1.377,0,0,1-1.374-1.638,1.663,1.663,0,0,1,.573-1.048,1.693,1.693,0,0,1,1.183-.492q3.569,0,6.259-.032a.665.665,0,0,0,.2-.032.328.328,0,0,0,.059-.066.051.051,0,0,0-.007-.065,40.79,40.79,0,0,0-3.637-2.555.932.932,0,0,1-.447-1.014,1.245,1.245,0,0,1,.513-.852,2.993,2.993,0,0,1,1.426-.59,1.757,1.757,0,0,1,.332-.033,2.133,2.133,0,0,1,1.072.3c.1.066.21.131.332.2a.379.379,0,0,0,.426,0q1.443-.949,2.429-1.67a.164.164,0,0,0,.032-.115c-.006-.032-.032-.049-.074-.049h-7.173a1.594,1.594,0,0,1-1.295-.573,1.667,1.667,0,0,1-.366-1.359l1.473-10.481a2.2,2.2,0,0,1,.748-1.359,2.115,2.115,0,0,1,1.455-.573h11a1.086,1.086,0,0,1,.862.393,1.147,1.147,0,0,1,.259.949,1.451,1.451,0,0,1-.524.933,1.472,1.472,0,0,1-.971.377h-3.176c-.153,0-.242.088-.266.262l-.125.884c-.021.154.045.23.2.23h2.1a1.6,1.6,0,0,1,1.278.573,1.642,1.642,0,0,1,.383,1.359l-.313,2.227a2.178,2.178,0,0,1-.765,1.359,2.133,2.133,0,0,1-1.44.573h-2.1a.239.239,0,0,0-.262.23l-.142,1.016c-.024.175.04.261.193.261h4.192c.153,0,.218.078.2.23,0,.022.007.032.028.032a19.125,19.125,0,0,0,4.524-1.9c.144-.086.179-.185.107-.3a17.779,17.779,0,0,1-1.73-3.537,1.168,1.168,0,0,1-.076-.622,1.374,1.374,0,0,1,.209-.556,1.8,1.8,0,0,1,1.065-.819,2.246,2.246,0,0,1,.533-.065,1.641,1.641,0,0,1,.791.2,1.779,1.779,0,0,1,.887.916,13.024,13.024,0,0,0,1.287,2.26q.136.2.328,0a18.88,18.88,0,0,0,2.888-3.537.167.167,0,0,0,.007-.164.119.119,0,0,0-.106-.065h-7.041a1.37,1.37,0,0,1-1.1-.475,1.4,1.4,0,0,1-.311-1.163,1.847,1.847,0,0,1,.638-1.163,1.818,1.818,0,0,1,1.229-.475h8.319a8.975,8.975,0,0,1,2.452.263,1.079,1.079,0,0,1,.664.638,1.149,1.149,0,0,1-.038.966,22.1,22.1,0,0,1-5.26,7.6c-.128.131-.132.241-.013.328a15.056,15.056,0,0,0,3.457,1.966,1.134,1.134,0,0,1,.695.884,2.956,2.956,0,0,1-.023.393,1.5,1.5,0,0,1-.372.785.461.461,0,0,0-.079.1,3.249,3.249,0,0,1-1.444.949,1.974,1.974,0,0,1-.707.132,2.064,2.064,0,0,1-.856-.2,15.283,15.283,0,0,1-3.856-2.62.292.292,0,0,0-.388-.032,24.628,24.628,0,0,1-3.309,1.637,2.389,2.389,0,0,1-.809.164,1.643,1.643,0,0,1-.73-.164,2.237,2.237,0,0,1-1.108-.982,8.893,8.893,0,0,0-.638-1.048.07.07,0,0,0-.092-.049.092.092,0,0,0-.077.082l-.092.655a1.666,1.666,0,0,1-.572,1.048,1.636,1.636,0,0,1-1.109.425.034.034,0,0,0-.037.033c0,.022.006.032.028.032a.624.624,0,0,1,.367.655.883.883,0,0,1-.461.721q-1.687,1.049-3.416,1.932a.246.246,0,0,0-.087.148.1.1,0,0,0,.05.114q.746.526,1.186.885a.328.328,0,0,0,.393,0q3.1-1.573,5.729-3.243a3.639,3.639,0,0,1,1.682-.557h.2a2.577,2.577,0,0,1,1.386.393.933.933,0,0,1,.447,1.016,1.24,1.24,0,0,1-.69.95q-2.921,1.67-6.322,3.275c-.026.022-.034.044-.026.066a.043.043,0,0,0,.044.032l7.481-.1a.088.088,0,0,0,.089-.049c.016-.033,0-.061-.036-.082Q1061.419,283.8,1061.185,283.6Zm-15.777-10.088a.257.257,0,0,0-.294.23l-.142,1.016c-.025.175.05.261.225.261h2.195c.152,0,.241-.086.265-.261l.143-1.016c.022-.152-.044-.23-.2-.23Zm6.279-2.259q.228,0,.265-.262l.152-1.081c.021-.153-.044-.229-.2-.229h-5.961a.256.256,0,0,0-.294.229l-.151,1.081q-.037.262.225.262Zm-2.842-4.946c.024-.174-.041-.262-.192-.262h-2.195a.272.272,0,0,0-.3.262l-.124.884c-.021.154.055.23.23.23h2.195a.236.236,0,0,0,.261-.23Zm10.18,23.811a.818.818,0,0,1-.456-.951,1.084,1.084,0,0,1,.536-.785,3.614,3.614,0,0,1,1.884-.59,3.161,3.161,0,0,1,1.24.262q2.306,1.081,4.179,2.194a1.009,1.009,0,0,1,.469,1.081,1.378,1.378,0,0,1-.666,1.016,2.964,2.964,0,0,1-1.642.491h-.033a2.731,2.731,0,0,1-1.512-.426A40.726,40.726,0,0,0,1059.024,290.121Z" transform="translate(-2.964 -3.316)" fill="#e26b6b"/>
      <path id="Path_1929" data-name="Path 1929" d="M1091.756,291.135a2.579,2.579,0,0,1-1.594.623h-.033a2.185,2.185,0,0,1-1.466-.524l-.122-.066a1.193,1.193,0,0,1-.4-1.146,1.879,1.879,0,0,1,.657-1.179,13.8,13.8,0,0,0,2.715-3.013,2.7,2.7,0,0,1,1.229-1.049,1.92,1.92,0,0,1,.814-.2,1.385,1.385,0,0,1,.6.132,1.469,1.469,0,0,1,.943.982,1.387,1.387,0,0,1,.1.721,1.7,1.7,0,0,1-.261.688,16.692,16.692,0,0,1-1.455,2.195A13.717,13.717,0,0,1,1091.756,291.135Zm2.77-18.079a.292.292,0,0,1-.23-.115.3.3,0,0,1-.08-.246c0-.022-.007-.032-.028-.032a1.625,1.625,0,0,0-.29.2,2.173,2.173,0,0,1-1.165.36,1.618,1.618,0,0,1-.323-.032,2.1,2.1,0,0,1-1.274-.721.448.448,0,0,0-.08-.131,1.3,1.3,0,0,1-.307-1.08,1.618,1.618,0,0,1,.825-1.212,28.835,28.835,0,0,0,7.3-6.485,3.422,3.422,0,0,1,1.4-1.114,2.846,2.846,0,0,1,1.15-.262,1.7,1.7,0,0,1,.482.065l.577.1a1,1,0,0,1,.816.721,1.413,1.413,0,0,1,.024.523,1.262,1.262,0,0,1-.284.623.14.14,0,0,0-.018.131c.015.044.056.065.122.065h7.2a1.249,1.249,0,0,1,.37-.065,1.046,1.046,0,0,1,.656.23l.81.524a1.369,1.369,0,0,1,.578,1.015,1.185,1.185,0,0,1,.01.393,1.676,1.676,0,0,1-.376.819q-.926,1.211-1.965,2.325c-.05.045-.061.087-.034.131a.119.119,0,0,0,.105.066h4.814a1.6,1.6,0,0,1,1.3.573,1.67,1.67,0,0,1,.365,1.359l-1.238,8.811a2.185,2.185,0,0,1-.75,1.376,2.14,2.14,0,0,1-1.454.556h-8.581c-.022,0-.041.017-.057.049a.071.071,0,0,0,.005.082,14.639,14.639,0,0,1,1.345.917,1.265,1.265,0,0,1,.471,1.309,1.881,1.881,0,0,1-.657,1.18,2.163,2.163,0,0,1-1.426.59h-.066a1.989,1.989,0,0,1-1.283-.425,21.077,21.077,0,0,0-2.985-2.064.758.758,0,0,1-.392-.7,1.031,1.031,0,0,1,.375-.8.082.082,0,0,0,.028-.082c-.007-.032-.032-.049-.075-.049h-6.419a1.312,1.312,0,0,1-1.049-.458,1.339,1.339,0,0,1-.3-1.114,1.831,1.831,0,0,1,.617-1.13,1.714,1.714,0,0,1,1.18-.475h17.489a.257.257,0,0,0,.295-.23l.17-1.212c.022-.152-.055-.229-.23-.229H1095.58a1.209,1.209,0,0,1-.986-.442,1.314,1.314,0,0,1-.276-1.064,1.659,1.659,0,0,1,.573-1.047,1.631,1.631,0,0,1,1.107-.426h16.409a.272.272,0,0,0,.3-.263l.161-1.145c.022-.153-.055-.23-.23-.23Zm7.046,16.507h4.029a1.571,1.571,0,0,0,.951-.246,2.033,2.033,0,0,0,.571-1.031,1.686,1.686,0,0,1,.821-.949,1.591,1.591,0,0,1,.678-.164,1.3,1.3,0,0,1,.477.1,1.974,1.974,0,0,1,1.078.95,1.646,1.646,0,0,1,.184,1.015,2.683,2.683,0,0,1-.088.393,5.189,5.189,0,0,1-1.746,2.636,5.472,5.472,0,0,1-3.048.7h-4.847q-3.012,0-3.9-.917t-.537-3.406l.29-2.064a2.3,2.3,0,0,1,2.2-1.932h.033a1.638,1.638,0,0,1,1.661,1.932l-.281,2c-.061.438-.007.71.163.819A3.049,3.049,0,0,0,1101.572,289.564Zm5.813-21.78a.148.148,0,0,0,.018-.132.089.089,0,0,0-.089-.065h-6.91a.619.619,0,0,0-.417.163q-.957.983-2.007,1.933a.071.071,0,0,0-.047.1.088.088,0,0,0,.089.066h7.271a.613.613,0,0,0,.453-.2Q1106.672,268.668,1107.385,267.784Zm3.712,19.028a1.247,1.247,0,0,1-.255-.982c.012-.087.023-.164.032-.23a1.591,1.591,0,0,1,.868-1.048,2.857,2.857,0,0,1,1.324-.328h.327a2.139,2.139,0,0,1,1.339.721,27.754,27.754,0,0,1,2.878,3.766,1.5,1.5,0,0,1,.189.983,1.659,1.659,0,0,1-.124.425,2.194,2.194,0,0,1-1.045,1.147l-.253.164a2.1,2.1,0,0,1-.986.262,1.363,1.363,0,0,1-.511-.1,1.713,1.713,0,0,1-1.092-.851A32.951,32.951,0,0,0,1111.1,286.812Z" transform="translate(-18.896 -2.922)" fill="#e26b6b"/>
      <path id="Path_1930" data-name="Path 1930" d="M1169.836,276.733a1.638,1.638,0,0,1,.367,1.359,2.164,2.164,0,0,1-.748,1.359,2.141,2.141,0,0,1-1.454.556h-6.191a.271.271,0,0,0-.3.262l-1.137,8.09c-.025.174.05.262.225.262h5.863a1.614,1.614,0,0,1,1.665,1.9,2.259,2.259,0,0,1-2.2,1.9h-16.016a1.583,1.583,0,0,1-1.264-.556,1.617,1.617,0,0,1-.369-1.343,2.141,2.141,0,0,1,.746-1.343,2.1,2.1,0,0,1,1.421-.556h5.6c.153,0,.241-.088.267-.262l1.137-8.09c.024-.174-.041-.262-.193-.262h-6.91a1.616,1.616,0,0,1-1.663-1.916,2.26,2.26,0,0,1,2.2-1.916h6.911c.152,0,.242-.087.266-.262l.976-6.944c.025-.174-.043-.24-.2-.2q-2.141.328-4.911.689h-.294a1.9,1.9,0,0,1-1.128-.361,2.074,2.074,0,0,1-.8-1.277q-.143-.622-.321-1.212a.13.13,0,0,0-.1-.082c-.053-.01-.1.016-.125.082q-1.031,1.737-2.337,3.57a1.047,1.047,0,0,0-.194.459l-2.946,20.96a2.3,2.3,0,0,1-2.2,1.933h-.131a1.637,1.637,0,0,1-1.661-1.933l2.108-15c.007-.043-.007-.07-.038-.082s-.072.006-.122.049q-.807.852-1.419,1.474a1.439,1.439,0,0,1-1.01.425h-.23a1.149,1.149,0,0,1-.909-.753c-.116-.263-.231-.535-.344-.819a2.156,2.156,0,0,1-.184-1.245,1.313,1.313,0,0,1,.074-.294,3.067,3.067,0,0,1,.863-1.474,41.955,41.955,0,0,0,7.659-9.76,2.66,2.66,0,0,1,1.233-1.081,1.945,1.945,0,0,1,1.525-.131l.249.1a1.378,1.378,0,0,1,.947.949,1.633,1.633,0,0,1,.063.721,1.882,1.882,0,0,1-.261.687q-.215.361-.391.687a.137.137,0,0,0-.018.131c.014.045.056.066.121.066a98.583,98.583,0,0,0,15.12-2.948,3.444,3.444,0,0,1,.9-.13,2.427,2.427,0,0,1,.8.13,2.284,2.284,0,0,1,1.285.885l.333.425a1.059,1.059,0,0,1,.212.819,1.272,1.272,0,0,1-.115.361,1.459,1.459,0,0,1-.972.852q-2.624.719-5.681,1.276a.339.339,0,0,0-.271.3l-1.082,7.7c-.024.175.05.262.225.262h6.191A1.621,1.621,0,0,1,1169.836,276.733Z" transform="translate(-35.578 -3.127)" fill="#e26b6b"/>
      <path id="Path_1931" data-name="Path 1931" d="M1220.234,266.026a1.422,1.422,0,0,1,.325,1.178,1.815,1.815,0,0,1-.654,1.163,1.873,1.873,0,0,1-1.247.475h-.065a.337.337,0,0,0-.327.23,20.963,20.963,0,0,1-3.747,4.52q-.187.164.029.262a20.451,20.451,0,0,0,3.858,1.441.919.919,0,0,1,.709.785,1.2,1.2,0,0,1,.01.394,1.306,1.306,0,0,1-.363.72,1.91,1.91,0,0,0-.271.3,3.42,3.42,0,0,1-1.457,1.048,2.534,2.534,0,0,1-.874.163,1.94,1.94,0,0,1-.7-.13,20.094,20.094,0,0,1-4.473-2.194.375.375,0,0,0-.425,0,28.827,28.827,0,0,1-5.492,2.259,2.688,2.688,0,0,1-.566.066,1.691,1.691,0,0,1-.67-.13,1.734,1.734,0,0,1-.9-.786c-.018-.022-.051-.027-.1-.017s-.069.028-.072.049q-.847,2.293-1.68,4.029a1.437,1.437,0,0,1-.835.818,1.6,1.6,0,0,1-.538.1,1.315,1.315,0,0,1-.571-.131,1.462,1.462,0,0,1-.731-.852,1.686,1.686,0,0,1-.058-.753,1.759,1.759,0,0,1,.13-.459q.562-1.441,1.069-2.948c.043-.153-.023-.23-.2-.23h-1.278a.238.238,0,0,0-.262.23l-1.625,11.561a7.008,7.008,0,0,1-.626,2.243,2.813,2.813,0,0,1-1.3,1.228,7.709,7.709,0,0,1-2.913.688h-.13a1.745,1.745,0,0,1-1.241-.492,2.151,2.151,0,0,1-.691-1.376.12.12,0,0,1-.02-.1,1.037,1.037,0,0,1-.038-.426,1.5,1.5,0,0,1,.373-.786,1.429,1.429,0,0,1,1.126-.557h1.114a1.013,1.013,0,0,0,.425-.114.522.522,0,0,0,.168-.377l.976-6.943c0-.021-.011-.038-.042-.049s-.05.006-.056.049a29.839,29.839,0,0,1-3.423,4.552,1.164,1.164,0,0,1-.879.426.97.97,0,0,1-.257-.033,1.059,1.059,0,0,1-.844-.752q-.071-.2-.141-.393a2.574,2.574,0,0,1-.1-1.18,2.464,2.464,0,0,1,.088-.392,3.526,3.526,0,0,1,.9-1.507,26.948,26.948,0,0,0,4.054-5.306.115.115,0,0,0,0-.131.121.121,0,0,0-.106-.066h-2.227a1.426,1.426,0,0,1-1.155-.523,1.533,1.533,0,0,1-.332-1.245,1.954,1.954,0,0,1,.68-1.228,1.923,1.923,0,0,1,1.3-.509h5.7c.044,0,.067-.016.072-.049a.1.1,0,0,0-.021-.081,45.182,45.182,0,0,0-4.277-2.424.987.987,0,0,1-.6-.885c.011-.086.024-.174.036-.261a1.38,1.38,0,0,1,.443-.819,3.191,3.191,0,0,1,1.481-.753,2.683,2.683,0,0,1,.566-.066,2.5,2.5,0,0,1,.987.2q.371.164.708.328a.347.347,0,0,0,.4-.066q1.069-.851,2.017-1.769a.118.118,0,0,0,.051-.131.088.088,0,0,0-.089-.066h-6.124a1.425,1.425,0,0,1-1.468-1.67,2,2,0,0,1,1.938-1.671h9.073a.3.3,0,0,0,.135-.033,1.273,1.273,0,0,1,.988.2l.717.491a1.253,1.253,0,0,1,.554.95,1.647,1.647,0,0,1-.014.328,1.5,1.5,0,0,1-.372.786,33.7,33.7,0,0,1-4.478,4.126c-.124.11-.114.2.03.263l.544.328a1.152,1.152,0,0,1,.559,1.146.578.578,0,0,1,.005.2,1.734,1.734,0,0,1-.611,1.081l-.153.163a.072.072,0,0,0-.047.1.088.088,0,0,0,.09.065h1.31a.149.149,0,0,0,.1-.032,1.547,1.547,0,0,1,.945.032l1.249.426a.714.714,0,0,1,.378.344.647.647,0,0,1,.022.54.131.131,0,0,0,.007.066c.008.022.024.022.049,0a21.219,21.219,0,0,0,4-1.409c.161-.066.185-.153.069-.262a15.889,15.889,0,0,1-1.723-2.424q-.1-.2-.291-.032a2.235,2.235,0,0,1-1.463.621h-.1a2,2,0,0,1-1.312-.458.423.423,0,0,1-.117-.1,1.169,1.169,0,0,1-.457-1.18,1.692,1.692,0,0,1,.644-1.081,24.158,24.158,0,0,0,4.769-5.043,3.3,3.3,0,0,1,1.332-1.08,2.556,2.556,0,0,1,1.558-.131,1.3,1.3,0,0,1,.924.884,1.443,1.443,0,0,1,.042.623,1.682,1.682,0,0,1-.3.721,3.154,3.154,0,0,0-.289.426c-.05.043-.062.087-.035.13a.12.12,0,0,0,.106.066h7.991A1.4,1.4,0,0,1,1220.234,266.026Zm-9.389,14.607c-.045.153.022.229.2.229h5.306a1.414,1.414,0,0,1,1.194.59,1.384,1.384,0,0,1,.33,1.147.713.713,0,0,1-.06.2,57.394,57.394,0,0,1-1.736,6.174,7.748,7.748,0,0,1-1.6,2.865,4.57,4.57,0,0,1-2.623,1.178q-.729.066-1.848.1a1.684,1.684,0,0,1-1.3-.557,2.38,2.38,0,0,1-.658-1.375l-.028-.033a2.386,2.386,0,0,1,.023-.393,1.411,1.411,0,0,1,.331-.721,1.312,1.312,0,0,1,1.018-.492h1.015a1.818,1.818,0,0,0,1.132-.36q.818-.689,1.912-4.749c.046-.175-.018-.263-.192-.263h-3.406a.348.348,0,0,0-.332.263,15.831,15.831,0,0,1-8.174,8.286,2.2,2.2,0,0,1-.879.2,2.115,2.115,0,0,1-.642-.1,2.217,2.217,0,0,1-1.143-.949,1.39,1.39,0,0,1-.171-.884,1.827,1.827,0,0,1,.078-.328,1.57,1.57,0,0,1,.892-.983,12.539,12.539,0,0,0,5.883-5.273.149.149,0,0,0,0-.148.137.137,0,0,0-.136-.082h-2.129A1.423,1.423,0,0,1,1202,283.7a1.373,1.373,0,0,1-.328-1.162,1.885,1.885,0,0,1,.657-1.179,1.849,1.849,0,0,1,1.248-.492h2.981a.335.335,0,0,0,.327-.229q.125-.425.213-.819a2.584,2.584,0,0,1,.9-1.376,2.331,2.331,0,0,1,1.5-.556h.1a1.447,1.447,0,0,1,1.228.589,1.411,1.411,0,0,1,.3,1.114,1.07,1.07,0,0,1-.065.229C1211,280.1,1210.926,280.371,1210.845,280.633Zm2.967-11.561a.148.148,0,0,0,0-.147c-.025-.055-.059-.082-.1-.082h-4.52a.128.128,0,0,0-.11.082.175.175,0,0,0-.02.147,11.284,11.284,0,0,0,2.106,2.489c.116.11.238.1.365-.032A13.3,13.3,0,0,0,1213.813,269.072Z" transform="translate(-51.204 -3.064)" fill="#e26b6b"/>
      <path id="Path_1932" data-name="Path 1932" d="M1244.046,291.328a3.4,3.4,0,0,1-2.324.918,2.513,2.513,0,0,1-2.049-.918,2.827,2.827,0,0,1-.562-2.292,3.69,3.69,0,0,1,1.206-2.293,3.344,3.344,0,0,1,2.307-.917,2.535,2.535,0,0,1,2.063.933,2.823,2.823,0,0,1,.579,2.292A3.634,3.634,0,0,1,1244.046,291.328Zm.156-8.449a1.885,1.885,0,0,1-1.227.459,1.431,1.431,0,0,1-1.1-.459,1.505,1.505,0,0,1-.4-1.146l.925-10.776.284-2.718a2.085,2.085,0,0,1,.7-1.359,2.058,2.058,0,0,1,1.44-.573h1.08a1.561,1.561,0,0,1,1.263.573,1.587,1.587,0,0,1,.333,1.359l-.48,2.718-2.136,10.776A1.906,1.906,0,0,1,1244.2,282.878Z" transform="translate(-67.906 -4.261)" fill="#e26b6b"/>
      <path id="Path_1933" data-name="Path 1933" d="M1262.378,291.328a3.4,3.4,0,0,1-2.324.918,2.513,2.513,0,0,1-2.049-.918,2.826,2.826,0,0,1-.562-2.292,3.689,3.689,0,0,1,1.206-2.293,3.344,3.344,0,0,1,2.307-.917,2.535,2.535,0,0,1,2.063.933,2.823,2.823,0,0,1,.579,2.292A3.634,3.634,0,0,1,1262.378,291.328Zm.156-8.449a1.885,1.885,0,0,1-1.227.459,1.431,1.431,0,0,1-1.1-.459,1.5,1.5,0,0,1-.4-1.146l.925-10.776.284-2.718a2.085,2.085,0,0,1,.7-1.359,2.058,2.058,0,0,1,1.44-.573h1.08a1.561,1.561,0,0,1,1.263.573,1.586,1.586,0,0,1,.333,1.359l-.48,2.718-2.136,10.776A1.906,1.906,0,0,1,1262.534,282.878Z" transform="translate(-73.858 -4.261)" fill="#e26b6b"/>
    </g>
  </g>
</svg>
